<svg version="1.1" id="Layer_1" xmlns="http://www.w3.org/2000/svg" x="0" y="0" viewBox="0 0 165.7 103" xml:space="preserve"><style>.st0{fill:#fff}.st1{fill:#e7e126}.st2{fill:#fff0e1}.st3{fill:#ff6709}.st4{fill:#ad4000}</style><path class="st0" d="M15 78.7v-3.8c0-.2-.2-.4-.4-.4h-5v-.7c0-1.8.7-2.7 2.3-2.7.5 0 .9 0 1.3.1s.8.2 1.3.4c.1 0 .3 0 .4-.1.1-.1.2-.2.2-.3v-3.9c0-.2-.1-.3-.3-.4-.5-.2-1.1-.3-1.7-.4-.6-.1-1.3-.2-2.2-.2-2.1 0-3.8.6-4.9 1.7s-1.8 3-1.8 5.3v1.1H2c-.2 0-.4.2-.4.4v3.9c0 .2.2.4.4.4h2.2V95c0 .2.2.4.4.4h4.7c.2 0 .4-.2.4-.4V79.1h4.9c.2 0 .4-.2.4-.4zM32.9 77.1c-1-1-2.2-1.8-3.5-2.3-1.4-.6-2.9-.9-4.5-.9s-3.1.3-4.5.9c-1.4.6-2.5 1.4-3.5 2.4s-1.8 2.2-2.3 3.5c-.6 1.3-.9 2.8-.9 4.3s.3 2.9.8 4.2c.6 1.3 1.3 2.5 2.3 3.5 1 1 2.2 1.8 3.5 2.3 1.4.6 2.8.9 4.4.9 1.6 0 3.1-.3 4.5-.9 1.4-.6 2.6-1.4 3.6-2.4s1.8-2.2 2.3-3.5c.6-1.3.9-2.8.9-4.3s-.3-2.9-.8-4.3c-.5-1.3-1.3-2.4-2.3-3.4zM22.6 90.5c-.7-.3-1.3-.8-1.8-1.3s-.9-1.2-1.2-2c-.3-.8-.4-1.6-.4-2.4 0-.8.1-1.6.4-2.4.3-.7.6-1.4 1.1-1.9.5-.5 1.1-1 1.8-1.3.7-.3 1.5-.5 2.3-.5.9 0 1.6.2 2.3.5.7.3 1.3.8 1.8 1.3.5.6.9 1.2 1.2 2 .3.7.4 1.6.4 2.4 0 .8-.1 1.6-.4 2.4-.3.7-.6 1.4-1.1 1.9-.5.5-1.1 1-1.8 1.3-1.3.6-3.2.6-4.6 0zM46 74c-1.7 0-3.2.2-4.4.5-1.2.3-2.4.7-3.5 1.3-.2.1-.3.3-.2.5l1.3 3.7c0 .1.1.2.2.2h.3c.9-.4 1.8-.7 2.7-.9.9-.2 1.9-.3 3-.3 1.5 0 2.7.3 3.4 1 .8.7 1.1 1.6 1.1 2.9-.7-.2-1.3-.3-2-.5-.9-.2-2-.2-3.2-.2-1.2 0-2.3.1-3.4.4-1.1.3-2 .7-2.7 1.3-.8.6-1.4 1.3-1.8 2.2-.4.9-.7 1.9-.7 3.1 0 1.1.2 2.1.6 2.9.4.8 1 1.5 1.7 2.1.7.6 1.5 1 2.4 1.3.9.3 1.9.4 2.9.4 1.6 0 3-.3 4.1-.9.8-.4 1.5-.9 2.1-1.4v1.5c0 .2.2.4.4.4h4.6c.2 0 .4-.2.4-.4v-12c0-2.8-.8-5-2.3-6.6-1.6-1.7-3.9-2.5-7-2.5zm-1 17.5c-1 0-1.9-.2-2.6-.7-.6-.4-1-1.1-1-2 0-.9.3-1.6 1.1-2.1.7-.5 1.8-.8 3.2-.8.9 0 1.7.1 2.5.2.7.1 1.3.3 1.8.5v1c0 .6-.1 1.1-.4 1.6-.2.5-.6.9-1 1.2-.4.3-1 .6-1.6.8-.6.2-1.3.3-2 .3zM81.7 73.9c-1.6 0-3 .4-4.2 1-1 .6-1.9 1.3-2.6 2.2-.5-.9-1.3-1.7-2.2-2.2-1.1-.7-2.4-1.1-3.9-1.1-.8 0-1.5.1-2.2.3-.7.2-1.3.5-1.8.8-.5.4-1 .8-1.4 1.2l-.4.4v-1.9c0-.2-.2-.4-.4-.4h-4.7c-.2 0-.4.2-.4.4v20.3c0 .2.2.4.4.4h4.7c.2 0 .4-.2.4-.4V83.6c0-1.5.4-2.6 1.1-3.4.7-.8 1.6-1.2 2.8-1.2 1.2 0 2.1.4 2.7 1.1.6.8 1 1.9 1 3.4V95c0 .2.2.4.4.4h4.7c.2 0 .4-.2.4-.4V83.5c0-1.5.4-2.7 1.1-3.5.7-.8 1.7-1.2 2.8-1.2 1.2 0 2.1.4 2.7 1.1.6.8 1 1.9 1 3.4v11.5c0 .2.2.4.4.4h4.7c.2 0 .4-.2.4-.4V82c0-2.6-.7-4.6-2-6-1.3-1.4-3.2-2.1-5.5-2.1zM112.1 66.9c-.5-.2-1.1-.3-1.7-.4-.6-.1-1.3-.2-2.2-.2-2.1 0-3.8.6-4.9 1.7-1.2 1.2-1.7 2.9-1.7 5.3v1.1h-2.2c-.2 0-.4.2-.4.4v3.9c0 .2.2.4.4.4h2.2V95c0 .2.2.4.4.4h4.7c.2 0 .4-.2.4-.4V79.1h4.9c.2 0 .4-.2.4-.4v-3.8c0-.2-.2-.4-.4-.4h-5v-.7c0-1.8.7-2.7 2.3-2.7.5 0 .9 0 1.3.1s.8.2 1.3.4c.1 0 .3 0 .4-.1.1-.1.2-.2.2-.3v-3.9c-.1-.2-.2-.4-.4-.4zM124.8 79.6c.2 0 .4-.2.4-.4v-4.9c0-.2-.2-.4-.4-.4-1.9-.1-3.5.4-4.7 1.4-.8.6-1.5 1.4-2.1 2.3v-2.9c0-.2-.2-.4-.4-.4h-4.7c-.2 0-.4.2-.4.4V95c0 .2.2.4.4.4h4.7c.2 0 .4-.2.4-.4v-7.7c0-1.3.2-2.4.5-3.4s.8-1.7 1.3-2.4c.6-.6 1.3-1.1 2-1.4.8-.3 1.7-.5 2.7-.5h.3zM142 77.3c-.8-1-1.9-1.9-3.2-2.5s-2.7-.9-4.4-.9c-1.5 0-2.9.3-4.2.9-1.2.6-2.3 1.4-3.3 2.4-.9 1-1.6 2.2-2.1 3.5-.5 1.3-.8 2.7-.8 4.2 0 1.6.3 3.1.8 4.5.6 1.3 1.3 2.5 2.3 3.4 1 1 2.1 1.7 3.4 2.2 1.3.5 2.7.8 4.2.8 1.9 0 3.6-.4 5-1.1 1.4-.7 2.6-1.7 3.6-2.9.1-.2.1-.4 0-.6l-2.7-2.4c-.2-.1-.4-.1-.5 0-.8.8-1.6 1.3-2.4 1.7-.8.4-1.7.6-2.8.6-1.4 0-2.6-.4-3.6-1.2-.9-.7-1.5-1.8-1.8-3.1H144c.2 0 .4-.2.4-.4s0-.5.1-.7v-.6c0-1.5-.2-2.9-.6-4.3-.4-1.3-1.1-2.5-1.9-3.5zM129.6 83c.2-1.3.8-2.4 1.5-3.2.9-.9 1.9-1.4 3.3-1.4.7 0 1.3.1 1.9.4.5.3 1 .6 1.4 1 .4.4.7 1 1 1.6.2.5.3 1 .4 1.5h-9.5zM162.7 77.3c-.8-1-1.9-1.9-3.2-2.5s-2.7-.9-4.4-.9c-1.5 0-2.9.3-4.2.9-1.2.6-2.3 1.4-3.3 2.4-.9 1-1.6 2.2-2.1 3.5-.5 1.3-.8 2.7-.8 4.2 0 1.6.3 3.1.8 4.5.6 1.3 1.3 2.5 2.3 3.4 1 1 2.1 1.7 3.4 2.2 1.3.5 2.7.8 4.2.8 1.9 0 3.6-.4 5-1.1 1.4-.7 2.6-1.7 3.6-2.9.1-.2.1-.4 0-.6l-2.7-2.4c-.2-.1-.4-.1-.5 0-.8.8-1.6 1.3-2.4 1.7-.8.4-1.7.6-2.8.6-1.4 0-2.6-.4-3.6-1.2-.9-.7-1.5-1.8-1.8-3.1h14.4c.2 0 .4-.2.4-.4s0-.5.1-.7v-.6c0-1.5-.2-2.9-.6-4.3-.3-1.3-1-2.5-1.8-3.5zM150.3 83c.2-1.3.8-2.4 1.5-3.2.9-.9 1.9-1.4 3.3-1.4.7 0 1.3.1 1.9.4.5.3 1 .6 1.4 1 .4.4.7 1 1 1.6.2.5.3 1 .4 1.5h-9.5zM2.1 19.4c.2.1.4.1.5.1l7.6-2.1v38.4c0 .4.3.7.7.7h8.3c.4 0 .7-.3.7-.7V8c0-.4-.3-.7-.7-.7h-6L.5 11.4c-.4.1-.6.5-.5.8L1.8 19c0 .2.1.4.3.4zM30.4 49.9c1.9 2.3 4.1 4.1 6.7 5.4 2.6 1.3 5.6 2 8.8 2 3.2 0 6.2-.7 8.8-2 2.6-1.3 4.9-3.2 6.8-5.4 1.9-2.3 3.3-5 4.3-8 1-3.1 1.5-6.4 1.5-9.8 0-3.4-.5-6.7-1.5-9.8-1-3-2.4-5.7-4.3-8s-4.1-4.1-6.7-5.4c-2.6-1.3-5.6-2-8.8-2-3.2 0-6.2.7-8.8 2-2.6 1.3-4.9 3.2-6.8 5.4-1.9 2.3-3.3 5-4.3 8-1 3.1-1.5 6.4-1.5 9.8 0 3.4.5 6.7 1.5 9.8 1 3 2.4 5.7 4.3 8zM41.2 17c1.3-.8 2.9-1.2 4.6-1.2 1.7 0 3.3.4 4.6 1.3 1.4.8 2.6 2 3.6 3.5s1.8 3.2 2.3 5.2c.5 2 .8 4.2.8 6.5s-.3 4.4-.8 6.4-1.3 3.7-2.3 5.2c-1 1.4-2.2 2.6-3.5 3.4-1.3.8-2.9 1.2-4.6 1.2-1.7 0-3.3-.4-4.7-1.2-1.4-.8-2.6-2-3.6-3.4-1-1.5-1.8-3.2-2.3-5.2-.5-2-.8-4.2-.8-6.5s.3-4.4.8-6.5c.5-2 1.3-3.7 2.3-5.2 1.1-1.6 2.3-2.7 3.6-3.5zM106.1 49.8c1.9-2.3 3.3-5 4.3-8 1-3.1 1.5-6.4 1.5-9.8 0-3.4-.5-6.7-1.5-9.8-1-3.1-2.4-5.7-4.3-8s-4.1-4.1-6.7-5.4c-2.6-1.3-5.6-2-8.8-2-3.2 0-6.2.7-8.8 2-2.6 1.3-4.9 3.2-6.8 5.4-1.9 2.3-3.3 5-4.3 8-1 3.1-1.5 6.4-1.5 9.8 0 3.4.5 6.7 1.5 9.8 1 3 2.4 5.7 4.3 8s4.1 4.1 6.7 5.4c2.6 1.3 5.6 2 8.8 2 3.2 0 6.2-.7 8.8-2 2.6-1.3 4.9-3.1 6.8-5.4zm-10.9-2.7c-1.4.8-2.9 1.2-4.6 1.2-1.7 0-3.3-.4-4.7-1.2-1.4-.8-2.6-2-3.6-3.4-1-1.5-1.8-3.2-2.3-5.2-.5-2-.8-4.2-.8-6.5s.3-4.4.8-6.5c.5-2 1.3-3.7 2.3-5.2 1-1.4 2.2-2.6 3.5-3.4 1.3-.8 2.9-1.2 4.6-1.2 1.7 0 3.3.4 4.6 1.3 1.4.8 2.6 2 3.6 3.5s1.8 3.2 2.3 5.2c.5 2 .8 4.2.8 6.5s-.3 4.4-.8 6.4-1.3 3.7-2.3 5.2c-.8 1.3-2 2.5-3.4 3.3zM153.9 31.3c-1.8 0-3.4.4-4.9 1-1.5.7-2.7 1.6-3.8 2.8-1 1.2-1.9 2.5-2.4 4.1-.6 1.5-.9 3.2-.9 4.9 0 1.7.3 3.3.9 4.9.6 1.5 1.4 2.9 2.4 4.1 1 1.2 2.3 2.1 3.7 2.8 1.4.7 3.1 1 4.8 1s3.4-.4 4.9-1.1c1.5-.7 2.7-1.6 3.8-2.8 1-1.2 1.9-2.5 2.4-4.1.6-1.5.9-3.2.9-4.9 0-1.7-.3-3.3-.9-4.9-.6-1.5-1.4-2.9-2.4-4.1-1-1.2-2.3-2.1-3.7-2.8-1.4-.5-3.1-.9-4.8-.9zm0 19.1c-1.3 0-2.4-.6-3.2-1.7-.9-1.2-1.3-2.7-1.3-4.6 0-1.7.4-3.2 1.2-4.4.8-1.1 1.8-1.7 3.1-1.7s2.4.6 3.2 1.7c.9 1.2 1.3 2.7 1.3 4.6 0 1.7-.4 3.2-1.2 4.4-.8 1.1-1.8 1.7-3.1 1.7zM118.2 56.1c.1.2.4.4.6.4h6.7c.2 0 .4-.1.6-.3l34.7-47.4c.2-.2.2-.5.1-.7-.1-.2-.4-.4-.6-.4h-6.7c-.2 0-.4.1-.6.3l-34.7 47.4c-.2.1-.3.4-.1.7zM116.5 29c1 1.2 2.3 2.1 3.7 2.8 1.4.7 3.1 1 4.8 1 1.8 0 3.4-.4 4.9-1 1.5-.7 2.7-1.6 3.8-2.8 1-1.2 1.9-2.5 2.4-4.1.6-1.5.9-3.2.9-4.9 0-1.7-.3-3.3-.9-4.9-.6-1.5-1.4-2.9-2.4-4.1-1-1.2-2.3-2.1-3.7-2.8-1.4-.7-3.1-1-4.8-1s-3.4.4-4.9 1c-1.5.7-2.7 1.6-3.8 2.8-1 1.2-1.9 2.5-2.4 4.1-.6 1.5-.9 3.2-.9 4.9 0 1.7.3 3.3.9 4.9.6 1.5 1.4 2.9 2.4 4.1zm8.6-15.3c1.3 0 2.4.6 3.2 1.7.9 1.2 1.3 2.7 1.3 4.6 0 1.7-.4 3.2-1.2 4.4-.8 1.1-1.8 1.7-3.1 1.7s-2.4-.6-3.2-1.7c-.9-1.2-1.3-2.7-1.3-4.6 0-1.7.4-3.2 1.2-4.4.7-1.1 1.7-1.7 3.1-1.7z"/><g><path class="st1" d="M88 88.9c0-.8-.6-1.4-1.4-1.4-.8 0-1.4.6-1.4 1.4 0 .8.6 1.4 1.4 1.4.7 0 1.4-.6 1.4-1.4"/><path class="st1" d="M92.7 90.3c.3-.3.5-.8.6-1.3.1-1.1-.7-2.1-1.9-2.2-1.1-.1-2.1.7-2.2 1.9 0 .7.2 1.3.7 1.7-2 .5-3.7 2-4.4 4-.6-.9-1.6-1.4-2.7-1.4-1.8 0-3.2 1.5-3.2 3.2s1.5 3.2 3.2 3.2c1 0 1.9-.5 2.5-1.2.7 2.7 3.2 4.8 6.2 4.8 3.5 0 6.4-2.9 6.4-6.4.1-3.2-2.2-5.8-5.2-6.3zM52.6 71.2c-2.2 1.4-2.9 4.4-1.5 6.6 1.4 2.2 4.4 2.9 6.6 1.5 2.2-1.4 2.9-4.4 1.5-6.6-1.3-2.2-4.3-2.9-6.6-1.5"/><path class="st1" d="M50.4 78.1c-.8.5-1 1.5-.5 2.3.5.8 1.5 1 2.3.5s1-1.5.5-2.3c-.5-.8-1.6-1-2.3-.5M48.3 76.2c-.5.3-.6.9-.3 1.4.3.5.9.6 1.4.3.5-.3.6-.9.3-1.4-.3-.5-.9-.6-1.4-.3M36.5 96.3c0-.6-.4-1.2-1.1-1.2-.6 0-1.2.4-1.2 1.1s.4 1.2 1.1 1.2c.6 0 1.1-.5 1.2-1.1M38.1 92.4c.1-1-.6-1.8-1.6-1.9-1-.1-1.8.6-1.9 1.6s.6 1.8 1.6 1.9c1 .1 1.8-.6 1.9-1.6M34.1 93.5c.1-1.5-1-2.9-2.6-3-1.5-.1-2.9 1-3 2.6-.1 1.5 1 2.9 2.6 3 1.5.1 2.9-1.1 3-2.6M18.4 80.7c.7-.7.7-1.9 0-2.6s-1.9-.7-2.6 0c-.5.5-.6 1.1-.5 1.7-1.8-.5-3.7-.1-5.1 1.3-2.1 2.1-2.1 5.4 0 7.4 2.1 2.1 5.4 2.1 7.4 0 2-2 2.1-5.4 0-7.4.3 0 .6-.1.8-.4z"/><path class="st1" d="M21.1 80.6c-.4-.4-1.2-.4-1.6 0-.4.4-.4 1.2 0 1.6.4.4 1.2.4 1.6 0s.5-1.1 0-1.6z"/></g><g><ellipse transform="rotate(-31.229 83.738 6.243)" class="st2" cx="83.7" cy="6.2" rx="6.6" ry="5.8"/><path class="st3" d="M83 12.5c-.4 0-.8 0-1.2-.1-1.7-.3-3.1-1.2-3.9-2.6-1.7-2.8-.5-6.7 2.8-8.7 3.2-2 7.3-1.3 9 1.6.8 1.4 1 3 .5 4.7-.5 1.6-1.7 3.1-3.2 4-1.3.7-2.7 1.1-4 1.1zm1.5-12c-1.2 0-2.5.3-3.6 1-3 1.8-4.2 5.4-2.6 8 .8 1.3 2 2.1 3.6 2.4 1.6.3 3.2-.1 4.7-.9 1.5-.9 2.5-2.2 3-3.7s.3-3-.4-4.3c-1-1.6-2.8-2.5-4.7-2.5z"/><ellipse transform="rotate(-31.229 76.783 7.422)" class="st2" cx="76.8" cy="7.4" rx="7" ry="6.7"/><path class="st3" d="M76.5 14.4c-.5 0-1.1-.1-1.6-.2-1.8-.4-3.4-1.5-4.4-3.1-2-3.3-.8-7.6 2.6-9.7 1.6-1 3.6-1.3 5.4-.9 2 .5 3.5 1.6 4.5 3.2s1.2 3.5.7 5.3c-.5 1.8-1.7 3.4-3.3 4.4-1.2.7-2.5 1-3.9 1zM77 .9c-1.2 0-2.5.3-3.6 1-3.2 1.9-4.3 6-2.4 9 .9 1.5 2.3 2.5 4 2.9 1.7.4 3.5.1 5-.9 1.5-.9 2.6-2.4 3.1-4.1.5-1.7.2-3.4-.7-4.9-.9-1.5-2.3-2.5-4-2.9-.4 0-.9-.1-1.4-.1z"/><path class="st4" d="M78.9 3.1c-1.3.1-2.3 1.3-2.2 2.5.1 1.3 1.3 2.2 2.6 2 1.3-.1 2.3-1.3 2.2-2.5-.1-1.2-1.3-2.1-2.6-2zm1.3 2.3c-.3.2-.7.1-.9-.2-.2-.3-.1-.7.2-.9s.7-.1.9.2c.2.3.2.7-.2.9zM85.9 2.5c-1 .3-1.6 1.4-1.3 2.3.3 1 1.4 1.5 2.4 1.2 1-.3 1.6-1.4 1.3-2.3-.3-1-1.3-1.5-2.4-1.2zm1.5 1.6c-.2.2-.6.2-.8 0-.2-.2-.2-.6 0-.8.2-.2.6-.2.8 0 .2.2.2.6 0 .8z"/></g></svg>