<svg version="1.1" id="Layer_1" xmlns="http://www.w3.org/2000/svg" x="0" y="0" viewBox="0 0 281.4 156.9" xml:space="preserve"><style>.st1{fill:#e7e126}.st2{fill:#fff}</style><path d="M274.6 54.3c-8.1-11.9-21.9-19.3-36.3-20-4-.2-7.9.1-11.7.8-3.1-16.9-17.4-27.9-33.3-32.6-18-5.3-37.7-1.7-53.7 7.9-3 1.8-5.6 3.9-8 6.2-6.6-3.6-14.6-5.1-22.7-3.5-6.5 1.3-13 4.2-18 8.7-9.7-5.5-20.8-7.4-31.9-5-11.7 2.6-21.5 10.1-26.6 20.9-1.3 2.7-2.1 5.6-2.6 8.6C16.5 47 4.1 57.2.8 70.2c-2.3 9 .8 18.2 6.6 25.1 2.7 3.2 6 5.5 9.6 7-1.2 1.9-2.3 3.9-3.3 6-5.5 12.5-2 30.8 9.8 38.6 11.1 7.3 24.5 7.6 35.5 0 7.5-5.2 12.9-12.6 16-21 1.1 2 2.6 3.9 4.4 5.6 6.6 6.1 16.6 7.6 25.2 7.6 4.8 0 9-1.3 12.9-3.4.7 7.2 5 13.6 11.1 17.8 10 6.7 22.7 2.3 31.9-3.5 3.5-2.2 7.1-5.3 9.7-8.8 2.6 3.3 5.9 6.1 9.5 8.4 11.9 7.8 27.5 7.7 40.5 3.1s23-12.9 29.7-24.9c3.2-5.7 5.5-12.4 6.1-19 7.4-3.5 13.9-8.9 19-15.3 9.5-11.9 7.6-27.5-.4-39.2" fill="#ed7547"/><path class="st1" d="M75.9 39.7H59v8.2h15v4.7H59v12.1h-5.2V35h22v4.7zM83.5 64.6h-5.2V42.2h5.2v5c.7-1.7 1.7-3 3-4.1 1.3-1 2.9-1.5 4.9-1.4v5.4h-.3c-1.1 0-2.2.2-3.1.5-.9.4-1.7.9-2.4 1.7-.7.7-1.2 1.7-1.6 2.8-.4 1.1-.6 2.4-.6 3.9v8.6zM98.4 59.4c1.2 1 2.6 1.5 4.2 1.5 1.3 0 2.4-.2 3.3-.7.9-.5 1.8-1.1 2.8-2l3 2.7c-1.1 1.3-2.3 2.3-3.8 3-1.5.8-3.3 1.1-5.3 1.1-1.6 0-3.1-.3-4.5-.8-1.4-.6-2.6-1.4-3.6-2.4s-1.8-2.2-2.4-3.7c-.6-1.4-.9-3-.9-4.8 0-1.6.3-3.1.8-4.5s1.3-2.6 2.3-3.7c1-1.1 2.1-1.9 3.4-2.5 1.3-.6 2.8-.9 4.4-.9 1.8 0 3.3.3 4.7 1 1.3.6 2.5 1.5 3.3 2.6.9 1.1 1.6 2.4 2 3.8.5 1.5.7 3 .7 4.6v.7c0 .2 0 .5-.1.7H96.2c.3 2 1 3.4 2.2 4.3zm9.2-7.5c-.1-.8-.3-1.6-.6-2.3-.3-.7-.7-1.3-1.1-1.9-.5-.5-1.1-.9-1.7-1.2-.7-.3-1.4-.5-2.3-.5-1.6 0-2.9.5-3.9 1.6s-1.7 2.5-1.9 4.3h11.5zM121.2 59.4c1.2 1 2.6 1.5 4.2 1.5 1.3 0 2.4-.2 3.3-.7.9-.5 1.8-1.1 2.8-2l3 2.7c-1.1 1.3-2.3 2.3-3.8 3-1.5.8-3.3 1.1-5.3 1.1-1.6 0-3.1-.3-4.5-.8-1.4-.6-2.6-1.4-3.6-2.4s-1.8-2.2-2.4-3.7c-.6-1.4-.9-3-.9-4.8 0-1.6.3-3.1.8-4.5s1.3-2.6 2.3-3.7c1-1.1 2.1-1.9 3.4-2.5 1.3-.6 2.8-.9 4.4-.9 1.8 0 3.3.3 4.7 1 1.3.6 2.5 1.5 3.3 2.6.9 1.1 1.6 2.4 2 3.8.5 1.5.7 3 .7 4.6v.7c0 .2 0 .5-.1.7H119c.3 2 1.1 3.4 2.2 4.3zm9.2-7.5c-.1-.8-.3-1.6-.6-2.3-.3-.7-.7-1.3-1.1-1.9-.5-.5-1.1-.9-1.7-1.2-.7-.3-1.4-.5-2.3-.5-1.6 0-2.9.5-3.9 1.6s-1.7 2.5-1.9 4.3h11.5zM160.1 42.4v4.2h-5.8v17.9h-5.2V46.6h-2.8v-4.3h2.8v-1.6c0-2.5.6-4.3 1.8-5.5 1.2-1.2 2.9-1.8 5.1-1.8.9 0 1.7.1 2.3.2.6.1 1.3.3 1.8.4v4.3c-.5-.2-1-.3-1.5-.4-.5-.1-1-.1-1.5-.1-2 0-3 1.1-3 3.4v1.2h6zM166.3 64.6h-5.2V42.2h5.2v5c.7-1.7 1.7-3 3-4.1s2.9-1.5 4.9-1.4v5.4h-.3c-1.1 0-2.2.2-3.1.5-.9.4-1.7.9-2.4 1.7-.7.7-1.2 1.7-1.6 2.8s-.5 2.4-.5 3.9v8.6zM196.8 57.9c-.6 1.4-1.4 2.6-2.5 3.7s-2.3 1.9-3.8 2.5c-1.5.6-3.1.9-4.8.9-1.7 0-3.3-.3-4.7-.9-1.5-.6-2.7-1.4-3.8-2.5-1.1-1.1-1.9-2.3-2.5-3.7-.6-1.4-.9-2.9-.9-4.5s.3-3.1.9-4.5c.6-1.4 1.4-2.7 2.5-3.7 1.1-1.1 2.3-1.9 3.8-2.5 1.5-.6 3-.9 4.8-.9s3.3.3 4.8.9c1.5.6 2.7 1.4 3.8 2.5 1.1 1.1 1.9 2.3 2.5 3.7.6 1.4.9 2.9.9 4.5s-.4 3.1-1 4.5zm-4.7-7.2c-.3-.9-.8-1.6-1.4-2.3-.6-.7-1.3-1.2-2.1-1.6s-1.7-.6-2.8-.6c-1 0-1.9.2-2.8.6s-1.5.9-2.1 1.5c-.6.6-1 1.4-1.3 2.3-.3.9-.5 1.8-.5 2.8 0 1 .2 1.9.5 2.8.3.9.8 1.7 1.4 2.3.6.7 1.3 1.2 2.1 1.5s1.7.6 2.7.6c1 0 2-.2 2.8-.6s1.5-.9 2.1-1.5c.6-.6 1-1.4 1.3-2.3.3-.9.5-1.8.5-2.8.1-.9-.1-1.8-.4-2.7zM222 42.9c1.2-.7 2.7-1.1 4.4-1.1 2.5 0 4.4.7 5.8 2.2 1.4 1.5 2.1 3.6 2.1 6.3v14.3h-5.2V51.9c0-1.8-.4-3.1-1.2-4.1-.8-.9-1.9-1.4-3.3-1.4s-2.5.5-3.4 1.4-1.3 2.3-1.3 4.1v12.6h-5.2V51.9c0-1.7-.4-3.1-1.2-4-.8-.9-1.9-1.4-3.3-1.4s-2.6.5-3.5 1.5c-.9 1-1.3 2.4-1.3 4.1v12.5h-5.2V42.2h5.2v3.4l1.2-1.5c.4-.5.9-.9 1.5-1.2s1.2-.7 1.9-.9c.7-.2 1.5-.3 2.3-.3 1.6 0 3 .4 4.1 1.1 1.1.7 2 1.7 2.6 2.9.7-1.1 1.8-2.1 3-2.8z"/><g><path class="st2" d="M72 80c-.6 0-1.2.1-1.6.2-.5.2-.9.4-1.3.6-.4.3-.8.6-1.1.9l-.3.3v-7.2c0-.2-.1-.3-.3-.3H64c-.2 0-.3.1-.3.3v20.6c0 .2.1.3.3.3h3.4c.2 0 .3-.1.3-.3V87c0-1.1.3-1.9.8-2.5.6-.6 1.3-.9 2.2-.9.9 0 1.6.3 2.1.8.5.6.8 1.4.8 2.5v8.4c0 .2.1.3.3.3h3.4c.2 0 .3-.1.3-.3V86c0-1.8-.5-3.3-1.5-4.4-.9-1.1-2.3-1.6-4.1-1.6zM83.9 96.1c1.2 0 2.2-.2 3-.7.6-.3 1.1-.7 1.5-1.1v1.1c0 .2.1.3.3.3h3.4c.2 0 .3-.1.3-.3v-8.8c0-2.1-.6-3.7-1.7-4.8-1.1-1.2-2.9-1.7-5.1-1.7-1.2 0-2.3.1-3.2.3-.9.2-1.7.5-2.6.9-.1.1-.2.2-.2.4l.9 2.7c0 .1.1.1.2.2h.2c.7-.3 1.3-.5 2-.7.6-.2 1.4-.2 2.2-.2 1.1 0 2 .3 2.5.7.6.5.8 1.2.8 2.1-.5-.1-1-.3-1.5-.3-.6-.1-1.4-.2-2.3-.2-.9 0-1.7.1-2.5.3-.8.2-1.5.5-2 .9-.6.4-1 1-1.3 1.6-.3.6-.5 1.4-.5 2.3 0 .8.2 1.5.5 2.1.3.6.7 1.1 1.2 1.5.5.4 1.1.7 1.8.9.6.4 1.4.5 2.1.5zm1-3.2c-.7 0-1.4-.2-1.9-.5s-.7-.8-.7-1.5.3-1.2.8-1.5c.5-.4 1.3-.6 2.3-.6.6 0 1.2.1 1.8.2.5.1.9.2 1.3.3v.7c0 .4-.1.8-.3 1.1-.2.3-.4.6-.7.9-.3.3-.7.4-1.2.6-.4.2-.9.3-1.4.3zM98.1 95.5v-5.7c0-.9.1-1.8.4-2.5.2-.7.6-1.3 1-1.7.4-.5.9-.8 1.5-1 .6-.2 1.2-.3 2-.3h.2c.2 0 .3-.1.3-.3v-3.6c0-.2-.1-.3-.3-.3-1.4-.1-2.5.3-3.5 1-.6.5-1.1 1-1.5 1.7v-2.1c0-.2-.1-.3-.3-.3h-3.4c-.2 0-.3.1-.3.3v14.9c0 .2.1.3.3.3h3.4c.1-.1.2-.3.2-.4zM127.1 95.5V86c0-1.9-.5-3.4-1.5-4.4-1-1-2.3-1.6-4-1.6-1.2 0-2.2.3-3.1.8-.7.4-1.4 1-1.9 1.6-.4-.7-.9-1.2-1.6-1.6-.8-.5-1.8-.8-2.9-.8-.6 0-1.1.1-1.6.2-.5.2-.9.4-1.3.6-.4.3-.7.6-1 .9l-.3.3v-1.4c0-.2-.1-.3-.3-.3h-3.4c-.2 0-.3.1-.3.3v14.9c0 .2.1.3.3.3h3.4c.2 0 .3-.1.3-.3v-8.4c0-1.1.3-1.9.8-2.5.5-.6 1.2-.9 2.1-.9.9 0 1.5.3 2 .8.5.6.7 1.4.7 2.5v8.5c0 .2.1.3.3.3h3.4c.2 0 .3-.1.3-.3v-8.4c0-1.1.3-2 .8-2.5.5-.6 1.2-.9 2.1-.9.9 0 1.5.3 2 .8.5.6.7 1.4.7 2.5v8.4c0 .2.1.3.3.3h3.4c.2.1.3-.1.3-.2zM129.6 95.5c0 .2.1.3.3.3h3.4c.2 0 .3-.1.3-.3V83.8h3.6c.1 0 .2-.1.2-.2V90c0 1.8.5 3.3 1.5 4.4 1 1.1 2.4 1.6 4.1 1.6 1.2 0 2.2-.3 3-.8.5-.4 1-.8 1.4-1.2v1.5c0 .2.1.3.3.3h3.4c.2 0 .3-.1.3-.3V80.6c0-.2-.1-.3-.3-.3h-3.4c-.2 0-.3.1-.3.3V89c0 1.1-.3 1.9-.8 2.5-.6.6-1.3.9-2.2.9-.9 0-1.6-.3-2.1-.8-.5-.6-.8-1.4-.8-2.5v-8.4c0-.2-.1-.3-.3-.3h-3.4c-.2 0-.3.1-.3.3 0-.1-.1-.2-.2-.2h-3.7V80c0-1.3.5-2 1.7-2 .4 0 .7 0 1 .1.3.1.6.1.9.3h.3c.1-.1.1-.1.1-.2v-2.9c0-.1-.1-.2-.2-.3l-1.2-.3c-.5-.1-1-.1-1.6-.1-1.5 0-2.8.4-3.6 1.3-.8.9-1.3 2.2-1.3 3.9v.8H128c-.2 0-.3.1-.3.3v2.8c0 .2.1.3.3.3h1.6v11.5zM157.5 95.5V74.9c0-.2-.1-.3-.3-.3h-3.4c-.2 0-.3.1-.3.3v20.6c0 .2.1.3.3.3h3.4c.2 0 .3-.2.3-.3zM173.1 95.7c0 .1.2.2.3.2h3c.1 0 .2-.1.3-.2l8.2-19.9v-.3c0-.1-.1-.1-.2-.1h-3.8c-.1 0-.2.1-.3.2L175 90.1l-5.7-14.5c0-.1-.2-.2-.3-.2h-3.8c-.1 0-.2 0-.2.1s-.1.2 0 .3l8.1 19.9zM183.8 85.6c0 1.4.3 2.8.8 4.1.5 1.3 1.3 2.4 2.2 3.3.9.9 2 1.7 3.3 2.2 1.3.5 2.7.8 4.3.8 1.6 0 3-.3 4.3-.8 1.3-.6 2.4-1.3 3.4-2.3.9-1 1.7-2.1 2.2-3.4.5-1.3.8-2.6.8-4.1s-.3-2.8-.8-4.1c-.5-1.3-1.3-2.4-2.2-3.3-.9-.9-2-1.7-3.3-2.2-1.3-.5-2.7-.8-4.3-.8-1.6 0-3 .3-4.3.8-1.3.6-2.4 1.3-3.4 2.3-.9 1-1.7 2.1-2.2 3.4-.5 1.3-.8 2.7-.8 4.1zm10.6-6.7c.9 0 1.8.2 2.6.5.8.4 1.5.8 2 1.5.6.6 1 1.3 1.3 2.1.3.8.5 1.7.5 2.6s-.2 1.8-.5 2.6-.8 1.5-1.3 2.1c-.6.6-1.2 1.1-2 1.4-1.6.7-3.6.7-5.2 0-.8-.4-1.5-.8-2-1.5-.6-.6-1-1.3-1.3-2.1-.3-.8-.5-1.7-.5-2.6s.2-1.8.5-2.6.8-1.5 1.3-2.1c.6-.6 1.2-1.1 2-1.4.8-.4 1.7-.5 2.6-.5zM224.5 92.1l-2.2-2.3c-.1-.1-.3-.1-.4 0-.8.8-1.7 1.4-2.5 1.8-.8.4-1.8.7-3 .7-.9 0-1.7-.2-2.5-.5-.8-.4-1.4-.8-2-1.4-.6-.6-1-1.3-1.3-2.1-.3-.8-.5-1.7-.5-2.6 0-.9.2-1.8.5-2.6s.7-1.5 1.3-2.1c.6-.6 1.2-1.1 2-1.4.8-.3 1.6-.5 2.5-.5 1.1 0 2 .2 2.9.6.9.4 1.7 1 2.4 1.7.1.1.1.1.2.1s.2 0 .2-.1l2.2-2.6c.1-.1.1-.3 0-.4-.5-.5-1-.9-1.5-1.3s-1.1-.7-1.8-1c-.6-.3-1.3-.5-2.1-.7-.8-.2-1.6-.2-2.5-.2-1.5 0-3 .3-4.2.8-1.3.5-2.4 1.3-3.3 2.3-.9 1-1.7 2.1-2.2 3.4-.5 1.3-.8 2.6-.8 4.1 0 1.5.3 2.8.8 4.1.5 1.3 1.2 2.4 2.2 3.3.9.9 2 1.7 3.3 2.2 1.3.5 2.6.8 4.1.8.9 0 1.8-.1 2.6-.2.8-.2 1.5-.4 2.2-.7.7-.3 1.3-.7 1.8-1.1.6-.4 1.1-.9 1.6-1.5.1-.3.1-.5 0-.6zM95 110.6c-.6-.8-1.4-1.4-2.4-1.9-.9-.5-2.1-.7-3.3-.7-1.1 0-2.2.2-3.1.7-.9.4-1.8 1-2.4 1.8-.7.7-1.2 1.6-1.6 2.6-.4 1-.6 2.1-.6 3.2 0 1.2.2 2.4.6 3.4.4 1 1 1.9 1.7 2.6.7.7 1.6 1.3 2.6 1.7 1 .4 2.1.6 3.2.6 1.4 0 2.7-.3 3.8-.8 1-.5 1.9-1.3 2.7-2.1.1-.1.1-.3 0-.4l-2-1.8c-.1-.1-.3-.1-.4 0-.6.6-1.2 1-1.8 1.3-.6.3-1.3.4-2.1.4-1.1 0-2-.3-2.7-.9-.7-.6-1.1-1.3-1.3-2.3h10.8c.2 0 .3-.1.3-.3v-.5-.5c0-1.1-.2-2.2-.5-3.2-.4-1.2-.9-2.1-1.5-2.9zm-9.3 4.3c.2-1 .6-1.8 1.2-2.4.6-.7 1.4-1 2.4-1 .5 0 1 .1 1.4.3.4.2.8.5 1.1.8.3.3.5.7.7 1.2l.3 1.2h-7.1zM116.1 108.1c-1.2 0-2.3.3-3.1.8-.7.4-1.4 1-2 1.7-.4-.7-1-1.2-1.6-1.7-.8-.5-1.8-.8-2.9-.8-.6 0-1.2.1-1.7.2-.5.2-.9.4-1.3.6-.4.3-.7.6-1 .9l-.3.3v-1.5c0-.2-.1-.3-.3-.3h-3.5c-.2 0-.3.1-.3.3v15.2c0 .2.1.3.3.3h3.5c.2 0 .3-.1.3-.3v-8.5c0-1.1.3-2 .8-2.6.5-.6 1.2-.9 2.1-.9.9 0 1.6.3 2 .8.5.6.7 1.4.7 2.5v8.7c0 .2.1.3.3.3h3.5c.2 0 .3-.1.3-.3v-8.6c0-1.1.3-2 .8-2.6.5-.6 1.2-.9 2.1-.9.9 0 1.6.3 2 .8.5.6.7 1.4.7 2.6v8.6c0 .2.1.3.3.3h3.5c.2 0 .3-.1.3-.3V114c0-1.9-.5-3.4-1.5-4.5-.9-.9-2.3-1.4-4-1.4zM127.5 108.4H124c-.2 0-.3.1-.3.3v15.2c0 .2.1.3.3.3h3.5c.2 0 .3-.1.3-.3v-15.2c0-.2-.2-.3-.3-.3zM127.6 102.7h-3.8c-.2 0-.3.1-.3.3v3.3c0 .2.1.3.3.3h3.8c.2 0 .3-.1.3-.3V103c0-.1-.2-.3-.3-.3zM140.8 117.4c-.3-.5-.7-1-1.2-1.3-.5-.3-1-.6-1.6-.9-.6-.2-1.1-.4-1.7-.6-.4-.1-.9-.3-1.3-.4-.4-.1-.8-.3-1.1-.4-.3-.1-.5-.3-.7-.5-.1-.1-.2-.3-.2-.6s.1-.6.4-.9c.6-.5 1.9-.5 3.4 0 .7.3 1.5.6 2.2 1 .1 0 .2.1.2 0 .1 0 .1-.1.2-.1l1.4-2.5c.1-.1 0-.3-.1-.4-.8-.6-1.8-1-2.8-1.3-1.8-.6-3.6-.6-5.2-.1-.7.2-1.3.5-1.8 1-.5.4-.9 1-1.2 1.6-.3.6-.4 1.3-.4 2.1s.2 1.4.5 2c.3.5.7 1 1.2 1.3.5.4 1 .6 1.6.9.6.2 1.1.4 1.7.6l1.3.4c.4.1.7.3 1 .4.3.1.5.3.7.5.1.2.2.3.2.6 0 .4-.2.7-.5 1-.4.3-.9.4-1.6.4-.7 0-1.5-.2-2.4-.5-.8-.3-1.6-.8-2.4-1.4-.1 0-.1-.1-.2-.1s-.2.1-.2.1l-1.6 2.4c-.1.1-.1.3.1.4 1 .8 2.1 1.4 3.2 1.7 1.2.4 2.3.6 3.4.6.8 0 1.6-.1 2.3-.3.7-.2 1.4-.5 1.9-.9s1-1 1.3-1.6c.3-.6.5-1.4.5-2.3 0-.7-.2-1.4-.5-1.9z"/><path class="st2" d="M151.9 116.1c-.5-.4-1-.6-1.6-.9-.6-.2-1.1-.4-1.7-.6-.4-.1-.9-.3-1.3-.4-.4-.1-.8-.3-1.1-.4-.3-.1-.5-.3-.7-.5-.1-.1-.2-.3-.2-.6s.1-.6.4-.9c.6-.5 1.9-.5 3.4 0 .7.3 1.5.6 2.2 1 .1 0 .2.1.2 0 .1 0 .1-.1.2-.1l1.4-2.5c.1-.1 0-.3-.1-.4-.8-.6-1.8-1-2.8-1.3-1.8-.6-3.6-.6-5.2-.1-.7.2-1.3.5-1.8 1-.5.4-.9 1-1.2 1.6-.3.6-.4 1.3-.4 2.1s.2 1.4.5 2c.3.5.7 1 1.2 1.3.5.4 1 .6 1.6.9.6.2 1.1.4 1.7.6l1.3.4c.4.1.7.3 1 .4.3.1.5.3.7.5.1.2.2.3.2.6 0 .4-.2.7-.5 1-.4.3-.9.4-1.6.4-.7 0-1.5-.2-2.4-.5-.8-.3-1.6-.8-2.4-1.4-.1 0-.1-.1-.2-.1s-.2.1-.2.1l-1.6 2.4c-.1.1-.1.3.1.4 1 .8 2.1 1.4 3.2 1.7 1.2.4 2.3.6 3.4.6.8 0 1.6-.1 2.3-.3.7-.2 1.4-.5 1.9-.9s1-1 1.3-1.6c.3-.6.5-1.4.5-2.3 0-.7-.2-1.4-.5-1.9s-.7-.9-1.2-1.3zM158.8 102.7H155c-.2 0-.3.1-.3.3v3.3c0 .2.1.3.3.3h3.8c.2 0 .3-.1.3-.3V103c0-.1-.2-.3-.3-.3zM158.6 108.4h-3.5c-.2 0-.3.1-.3.3v15.2c0 .2.1.3.3.3h3.5c.2 0 .3-.1.3-.3v-15.2c0-.2-.1-.3-.3-.3zM174.6 110.5c-.7-.7-1.6-1.3-2.7-1.8-1-.4-2.2-.6-3.4-.6-1.2 0-2.3.2-3.4.7-1 .4-1.9 1-2.7 1.8-.7.7-1.3 1.6-1.8 2.6-.4 1-.6 2.1-.6 3.2s.2 2.2.6 3.2c.4 1 1 1.9 1.7 2.6.7.7 1.6 1.3 2.7 1.8 1 .4 2.1.6 3.3.6 1.2 0 2.3-.2 3.4-.7 1-.4 1.9-1 2.7-1.8.7-.7 1.3-1.6 1.8-2.6.4-1 .6-2.1.6-3.2s-.2-2.2-.6-3.2c-.2-1-.8-1.9-1.6-2.6zm-7.7 10c-.5-.2-1-.6-1.4-1-.4-.4-.7-.9-.9-1.5-.2-.6-.3-1.2-.3-1.8 0-.6.1-1.2.3-1.8.2-.5.5-1 .9-1.4.4-.4.8-.7 1.3-1 .5-.2 1.1-.4 1.8-.4.6 0 1.2.1 1.8.4.5.2 1 .6 1.4 1 .4.4.7.9.9 1.5.2.6.3 1.2.3 1.8 0 .6-.1 1.2-.3 1.8-.2.5-.5 1-.9 1.4-.4.4-.8.7-1.4 1-1 .5-2.4.5-3.5 0zM186.7 108.1c-.6 0-1.2.1-1.7.2-.5.2-1 .4-1.4.6-.4.3-.8.6-1.1.9l-.3.3v-1.5c0-.2-.1-.3-.3-.3h-3.5c-.2 0-.3.1-.3.3v15.2c0 .2.1.3.3.3h3.5c.2 0 .3-.1.3-.3v-8.6c0-1.1.3-2 .9-2.6.6-.6 1.3-.9 2.2-.9.9 0 1.7.3 2.2.9.5.6.8 1.4.8 2.5v8.6c0 .2.1.3.3.3h3.5c.2 0 .3-.1.3-.3V114c0-1.9-.5-3.4-1.5-4.5-1-.9-2.4-1.4-4.2-1.4zM203.9 116.1c-.5-.4-1-.6-1.6-.9-.6-.2-1.1-.4-1.7-.6-.4-.1-.9-.3-1.3-.4-.4-.1-.8-.3-1.1-.4-.3-.1-.5-.3-.7-.5-.1-.1-.2-.3-.2-.6s.1-.6.4-.9c.6-.5 1.9-.5 3.4 0 .7.3 1.5.6 2.2 1 .1 0 .2.1.2 0 .1 0 .1-.1.2-.1l1.4-2.5c.1-.1 0-.3-.1-.4-.8-.6-1.8-1-2.8-1.3-1.8-.6-3.6-.6-5.2-.1-.7.2-1.3.5-1.8 1-.5.4-.9 1-1.2 1.6-.3.6-.4 1.3-.4 2.1s.2 1.4.5 2c.3.5.7 1 1.2 1.3.5.4 1 .6 1.6.9.6.2 1.1.4 1.7.6l1.3.4c.4.1.7.3 1 .4.3.1.5.3.7.5.1.2.2.3.2.6 0 .4-.2.7-.5 1-.4.3-.9.4-1.6.4-.7 0-1.5-.2-2.4-.5-.8-.3-1.6-.8-2.4-1.4-.1 0-.1-.1-.2-.1s-.2.1-.2.1l-1.6 2.4c-.1.1-.1.3.1.4 1 .8 2.1 1.4 3.2 1.7 1.2.4 2.3.6 3.4.6.8 0 1.6-.1 2.3-.3.7-.2 1.4-.5 1.9-.9s1-1 1.3-1.6c.3-.6.5-1.4.5-2.3 0-.7-.2-1.4-.5-1.9s-.7-.9-1.2-1.3z"/></g></svg>