<svg version="1.1" id="Layer_1" xmlns="http://www.w3.org/2000/svg" x="0" y="0" viewBox="0 0 468.6 111.4" xml:space="preserve"><style>.st0{fill:#fdefe3}.st1{fill:#f29249}.st2{fill:#fbd2b4}.st3{fill:#fcdfc8}.st4{fill:#f7b481}.st9{fill:#eb691c}.st11{fill:#f6ae78}</style><path class="st0" d="M73 86.2c-12.3-1-24.6-3.6-36-8-1.6-.6-3.3-1.3-4.9-2 .2.1.4.3.6.4l3.3 2.1c.3.2.6.4 1 .6 4 2.4 8.7 4.2 12.9 5.4.6.2 1.2.3 1.8.5.6.2 1.3.3 1.9.5h.2c.5.1.9.2 1.4.3h.1c2.7.6 4.9.8 6 .8H96c1.7 0 3.4-.2 5.3-.5-9.4.6-18.9.7-28.3-.1M118.6 86c.3-.1.6-.1.8-.2-.2 0-.5.1-.8.2M99.6 90.4c.2 0 .4 0 .7-.1-.3.1-.5.1-.7.1M108.9 88.6c-.3.1-.5.1-.8.2-.3.1-.5.1-.8.2-.3.1-.5.1-.8.2-.3.1-.5.1-.8.2l-3 .6c-.5.1-1 .2-1.5.2-.1 0-.2 0-.4.1-.2 0-.5.1-.7.1 5.2-.6 10.7-2.3 16.7-3.9-1.8.5-3.6 1-5.3 1.4-.7.2-1.3.4-2 .5-.1.1-.3.1-.6.2M98.3 90.5h.5-.5M120.7 85.4c1-.2 1.9-.5 2.9-.7-1 .2-1.9.5-2.9.7M127.2 83.9c.3-.1.7-.1 1-.2-.3.1-.7.2-1 .2M140.7 82.5c-2.4 0-4.8.2-7.2.4 2.3-.2 4.7-.4 7.2-.4M129.3 83.5c.3-.1.7-.1 1.1-.2-.4.1-.8.2-1.1.2M131.9 83.1c.4 0 .7-.1 1.1-.1-.4 0-.7.1-1.1.1"/><path class="st1" d="M227.5 110.2h.9-.9c-.1 0 0 0 0 0"/><path class="st0" d="M153 43.1c.1.5.1 1.1.2 1.6-.1-1-.1-2.1-.2-3.1 0 .9-.1.6 0 1.5"/><path class="st2" d="M158.1 87.4c.5.4 1 .8 1.6 1.2-.2-.1-.4-.3-.5-.4-.4-.3-.8-.6-1.1-.8"/><path class="st0" d="M119.6 78.1c4.3-.6 8.5-1.2 12.8-1.9 6.8-1.1 13.6-2.4 20.4-3.7.5-5.2.8-10.8.8-16.6 0-3.2-.1-6.4-.3-9.5v1.7c-3.8-.5-7.1-1.3-20.5-4.9-16.4-4.4-22.5-4.4-36.4-5.9-13.8-1.5-32.9-1-44.5 1.3-11.5 2.3-20.4 5.3-27.3 8.9-4.4 2.3-7.6 4.5-10.1 5.9v11.1l.9.6s1.9 1.3 4.6 3.2c30.8 13.3 66.1 14.1 99.6 9.8"/><path class="st3" d="M52 38.5c11.5-2.3 30.7-2.8 44.5-1.3 13.9 1.5 20 1.5 36.4 5.9 13.4 3.6 16.7 4.4 20.5 4.9v-1.7c0-.5-.1-1.1-.1-1.7 0-.5-.1-1.1-.2-1.6-.1-1 0-.7-.1-1.4v-.5c-5.7-1.6-13.7-3.5-19.4-4.9-14.4-3.6-27.6-5.4-41.7-6.3-12.7-.8-26.8-.5-41.2 2.5-11.5 2.4-24 7.6-31 11.2-2.2 1.2-3.9 2.3-5.2 3.3v6.2c2.6-1.3 5.8-3.6 10.1-5.9 7-3.4 15.9-6.4 27.4-8.7"/><path class="st4" d="M149.5 27.5c-.1.2-.3.4-.4.6.7-.1 1.3-.2 2-.3-.2 0-.6-.1-1.1-.2-.1 0-.3 0-.5-.1M19.7 43.8c6.9-3.6 19.5-8.8 31-11.2 14.4-3 28.5-3.3 41.2-2.5 14.1.9 27.3 2.7 41.7 6.3 5.6 1.4 13.6 3.3 19.4 4.9-.1-.6-.7-6.1-1.8-9.7 0 0 0 .1-.1.1-3.4.6-6.8.9-10.5.9-10 0-19.1-2.5-27.1-4.7-6.4-1.8-12.4-3.4-17.6-3.4H61.3c-3.2 0-15.5 2.3-24.3 7.6-9.1 5.5-21.5 14.1-21.6 14.2l-.9.6v.2c1.3-1 3-2.1 5.2-3.3"/><path fill="none" d="M152.1 78.4"/><path d="M152.1 78.4c.2-1.4.4-2.9.5-4.4.1-.5.1-1 .2-1.5-6.8 1.3-13.6 2.6-20.4 3.7-4.3.7-8.5 1.3-12.8 1.9-33.5 4.3-68.8 3.5-99.6-9.9 3.2 2.2 7.8 5.2 12.2 8 1.6.7 3.2 1.4 4.9 2 11.5 4.4 23.7 7 36 8 9.4.8 18.8.7 28.3.1 3.9-.6 8-1.8 12.3-2.9 8-2.2 17.1-4.7 27.1-4.7 2.7 0 5.3.2 7.8.5 1.1-.3 2.3-.5 3.5-.8" fill="#fff"/><path d="M231.1 8.5s-1.3.3-3.5.8c-.7.2-1.4.4-2.2.5-6 1.6-15.7 4.4-24.2 8.5-.2.4-.4.9-.6 1.3l-.1.1c18.8-2.4 36.4-3.7 42-4 21.4-1.1 13.3-.3 3.7 4.8-9.6 5.1-8.9 11.1 11.1 7.4 19.9-3.7 70.9-7.7 50.2-2-20.7 5.7 59.1 4.5 70.9 10.8s-8.1 0-23.6 3.4c-14.8 3.3 51.9 11.7 57.9 15.4.3.2.5.3.5.5 0 3.5-73.8 12.5-58.3 15.9s35.4-2.8 23.6 3.4c-11.8 6.3-91.6 5.1-70.9 10.8s-30.3 1.7-50.2-2c-19.9-3.7-20.7 2.3-11.1 7.4 9.6 5.1 17.7 6-3.7 4.8-6.4-.3-25-3.1-44.7-7 .2.4.3.9.5 1.3.2.6.5 1.2.7 1.7l.8 1.7c.1.2.2.5.3.7 15 7.1 32.7 9.3 32.7 9.3 16.5 2.8 34.5 4.2 54.5 3.3 20-.8 4.2-4.2-3.9-6s-8.5-5.2 11.2-2.6 55.1 3.9 62.3.1c7.2-3.8 11.2-2.9-2.3-4.5s-31.3-3.5-8.3-4.4S416 80 421.8 74.4s-.9-2.7-8.3-2.9c-7.4-.3-36.5-8.2-14.1-8s69.2-3.8 69.2-7.6c0-.2-.1-.3-.3-.5-3.9-3.6-47.5-7.3-68.9-7.1-22.5.2 6.7-7.7 14.1-8s14.1 2.7 8.3-2.9c-5.8-5.6-52.4-14.6-75.4-15.5s-5.2-2.8 8.3-4.4c13.5-1.6 9.4-.7 2.3-4.5-7.2-3.8-44-1.4-63.8 1.2-19.7 2.6-20.8-2.8-12.7-4.6 8.1-1.8 51.8-4.5 3.2-6.5-15.5-.5-33.7 1.2-52.6 5.4" fill="#f7b37f"/><path d="M286.1 55.6c0 .1 0 .1-.1.2.1-.1.1-.1.1-.2m-39.9 36c-9.6-5.1-8.9-11.1 11.1-7.4 19.9 3.7 70.9 7.7 50.2 2-20.7-5.7 59.1-4.5 70.9-10.8s-8.1 0-23.6-3.4 58.3-12.5 58.3-15.9c0-.2-.2-.3-.5-.5-6-3.8-72.7-12.2-57.9-15.4 15.5-3.4 35.4 2.8 23.6-3.4-11.8-6.3-91.6-5.1-70.9-10.8s-30.3-1.7-50.2 2c-19.9 3.7-20.7-2.3-11.1-7.4 9.6-5.1 17.7-6-3.7-4.8-5.5.3-23.1 1.6-42 4l-.7 1.6c-.3.6-.5 1.1-.7 1.7-.2.4-.3.7-.4 1.1l-3.6 8.6c2.5 1 4.7 3.1 6 5.9s8.2-1.6 7.6 1.5c-.2 1.4-3 4.3-2.8 5.3.2.7.4 1.4.6 2 .6 2.1 3.1 2.1 3.2 5.2l-.3.5V56l.6.5c-.1 3.6-2.4 3.2-3.2 5.8-.1.4-.2.8-.4 1.3-.2.9 2.1 4.1 2.3 5.6.5 3.1-11.6-1.5-13 1.2-1.3 2.8-3.5 4.8-6 5.9l6.9 9.8c.2.6.4 1.1.6 1.5.2.6.4 1.1.6 1.7 19.7 4 38.3 6.7 44.7 7 21.5 1.3 13.4.5 3.8-4.7" fill="#fdeadb"/><path class="st9" d="M217.2 46.4h2.2c.1 0 .1 0 .1-.1l.1-.1v-3.9c.3.3.6.6 1 .8.6.4 1.3.5 2.1.5.6 0 1.2-.1 1.8-.3s1.1-.6 1.5-1c.4-.5.8-1 1.1-1.7.3-.6.4-1.4.4-2.2s-.1-1.6-.4-2.2c-.3-.6-.6-1.2-1.1-1.7-.4-.5-.9-.8-1.5-1s-1.1-.3-1.7-.3c-.8 0-1.5.2-2.1.6-.4.3-.7.6-1 .9v-1.1c0-.1-.1-.2-.2-.2h-2.2c-.1 0-.2.1-.2.2l.1 12.8c-.1-.1-.1 0 0 0zm2.4-8c0-.5.1-.9.2-1.2.1-.4.3-.7.6-.9.2-.3.5-.5.8-.6s.7-.2 1-.2c.4 0 .7.1 1 .2.3.1.6.3.8.6l.6.9c.1.4.2.8.2 1.2s-.1.9-.2 1.2c-.1.4-.3.7-.6.9-.2.3-.5.4-.8.6-.6.3-1.4.3-2 0-.3-.1-.6-.3-.8-.6l-.6-.9c-.1-.4-.2-.8-.2-1.2zM228.5 43.4h2.2c.1 0 .2-.1.2-.2V29.8c0-.1-.1-.2-.2-.2h-2.2c-.1 0-.2.1-.2.2v13.4c0 .2.1.2.2.2zM235.3 43.6c.8 0 1.4-.1 2-.4.4-.2.7-.4 1-.7v.7c0 .1.1.2.2.2h2.2c.1 0 .2-.1.2-.2v-5.8c0-1.3-.4-2.4-1.1-3.2s-1.9-1.1-3.4-1.1c-.8 0-1.5.1-2.1.2-.6.1-1.1.4-1.7.6-.1 0-.1.1-.1.2l.6 1.8.1.1h.2c.4-.2.9-.3 1.3-.4.4-.1.9-.2 1.4-.2.7 0 1.3.2 1.7.5.4.3.5.8.6 1.4-.3-.1-.6-.2-1-.2-.4-.1-.9-.1-1.5-.1s-1.1.1-1.6.2-.9.3-1.3.6-.7.6-.9 1-.3.9-.3 1.5c0 .5.1 1 .3 1.4.2.4.5.7.8 1s.7.5 1.2.6c.2.3.7.3 1.2.3zm-1.1-3.3c0-.4.2-.8.5-1 .4-.2.9-.4 1.5-.4.4 0 .8 0 1.2.1.3.1.6.1.8.2v.5c0 .3-.1.5-.2.8-.1.2-.3.4-.5.6-.2.2-.5.3-.8.4-.3.1-.6.1-1 .1-.5 0-.9-.1-1.2-.3-.1-.3-.3-.6-.3-1zM243.3 43.2c.7.3 1.5.4 2.2.4.5 0 1-.1 1.5-.2s.9-.3 1.2-.6c.3-.3.6-.6.8-1 .2-.4.3-.9.3-1.5 0-.5-.1-.9-.3-1.2-.2-.3-.5-.6-.8-.8s-.6-.4-1-.6c-.4-.2-.7-.3-1.1-.4-.3-.1-.6-.2-.8-.3-.3-.1-.5-.2-.7-.3s-.3-.2-.4-.3-.1-.2-.1-.4.1-.4.3-.5c.4-.3 1.2-.3 2.2 0 .5.2.9.4 1.4.7h.1s.1 0 .1-.1l.9-1.6v.9c0 .1.1.2.2.2h1v4.9c0 .6.1 1 .2 1.4s.4.7.6 1c.3.2.6.4 1 .5s.8.2 1.2.2c.4 0 .8 0 1.2-.1.3-.1.7-.2.9-.4.1 0 .1-.1.1-.2v-1.8c0-.1 0-.1-.1-.2h-.2c-.4.2-.9.3-1.3.3-.3 0-.6-.1-.8-.2-.2-.2-.3-.4-.3-.8v-4.6h2.4c.1 0 .2-.1.2-.2v-1.9c0-.1-.1-.2-.2-.2h-2.4v-2.5c0-.1-.1-.2-.2-.2h-2.2c-.1 0-.2.1-.2.2v2.5h-1c-.1 0-.2.1-.2.2v.9s0-.1-.1-.1c-.5-.4-1.1-.6-1.8-.8-1.1-.4-2.3-.4-3.3-.1-.4.1-.8.4-1.2.6-.3.3-.6.6-.8 1-.2.4-.3.8-.3 1.4 0 .5.1.9.3 1.3.2.3.5.6.8.8s.6.4 1 .6c.4.1.7.3 1.1.4l.8.2c.3.1.5.2.7.3s.3.2.4.3.1.2.1.4c0 .3-.1.5-.3.6-.2.2-.6.2-1 .2-.5 0-1-.1-1.5-.3s-1.1-.5-1.6-.9h-.1c-.1 0-.1 0-.1.1l-1 1.5c-.1.1 0 .2 0 .3.7.4 1.4.8 2.2 1zM256.4 32.2h2.4c.1 0 .2-.1.2-.2v-2.1c0-.1-.1-.2-.2-.2h-2.4c-.1 0-.2.1-.2.2V32c0 .1.1.2.2.2zM258.7 43.4c.1 0 .2-.1.2-.2v-9.7c0-.1-.1-.2-.2-.2h-2.2c-.1 0-.2.1-.2.2v9.7c0 .1.1.2.2.2h2.2zM261.2 42.1c.5.5 1 .9 1.7 1.1.6.3 1.3.4 2.1.4 1 0 1.8-.2 2.4-.5s1.2-.8 1.7-1.4c.1-.1.1-.2 0-.3l-1.3-1.3c-.1-.1-.2-.1-.3 0-.3.3-.7.6-1.1.8s-.8.3-1.3.3c-.4 0-.8-.1-1.1-.2l-.9-.6-.6-.9c-.2-.3-.2-.7-.2-1.2 0-.4.1-.8.2-1.1.1-.4.3-.7.5-.9.2-.3.5-.5.8-.6.3-.2.7-.2 1-.2.5 0 1 .1 1.3.3.4.2.7.5 1.1.8l.1.1c.1 0 .1 0 .1-.1l1.4-1.5c.1-.1.1-.2 0-.3-.5-.5-1-.9-1.6-1.3-.6-.3-1.4-.5-2.4-.5-.7 0-1.5.1-2.1.4-.6.3-1.2.7-1.7 1.1-.5.5-.8 1-1.1 1.7-.3.6-.4 1.3-.4 2s.1 1.4.4 2 .8 1.4 1.3 1.9zM273.7 43.4h2.2c.1 0 .1 0 .1-.1l.1-.1v-1c.3.3.6.6 1 .8.6.4 1.3.5 2.1.5.6 0 1.2-.1 1.8-.3.6-.2 1.1-.6 1.5-1 .4-.5.8-1 1.1-1.7.3-.6.4-1.4.4-2.2s-.1-1.6-.4-2.2-.6-1.2-1.1-1.7c-.4-.5-.9-.8-1.5-1s-1.1-.3-1.7-.3c-.8 0-1.5.2-2.1.6-.4.3-.7.6-1 .9v-4.8c0-.1-.1-.2-.2-.2h-2.2c-.1 0-.2.1-.2.2v13.4c-.1.2 0 .2.1.2zm5.1-8c.4 0 .7.1 1 .2.3.1.6.3.8.6l.6.9c.1.4.2.8.2 1.2s-.1.9-.2 1.2c-.1.4-.3.7-.6.9-.2.2-.5.4-.8.6-.6.3-1.4.3-2 0-.3-.1-.6-.3-.8-.6l-.6-.9c-.1-.4-.2-.8-.2-1.2 0-.5.1-.9.2-1.2.1-.4.3-.7.6-.9.2-.3.5-.5.8-.6.3-.1.6-.2 1-.2zM285.7 42.1c.5.5 1 .9 1.7 1.1.7.3 1.4.4 2.1.4.8 0 1.5-.1 2.2-.4.7-.3 1.2-.7 1.7-1.1.5-.5.9-1 1.1-1.7.3-.6.4-1.3.4-2s-.1-1.4-.4-2-.6-1.2-1.1-1.7-1-.9-1.7-1.1c-.7-.3-1.4-.4-2.1-.4-.8 0-1.5.1-2.1.4-.7.3-1.2.7-1.7 1.1-.5.5-.9 1-1.1 1.7-.3.6-.4 1.3-.4 2.1s.1 1.4.4 2c.1.6.5 1.1 1 1.6zm2.8-1l-.9-.6-.6-.9c-.1-.4-.2-.8-.2-1.2s.1-.8.2-1.1.3-.7.5-.9c.2-.3.5-.5.9-.6.3-.2.7-.2 1.1-.2s.8.1 1.1.2l.9.6.6.9c.2.3.2.7.2 1.1 0 .4-.1.8-.2 1.1s-.3.7-.5.9c-.2.3-.5.5-.9.6-.7.4-1.6.4-2.2.1zM295 35.6h1v4.9c0 .6.1 1 .2 1.4s.4.7.6 1c.3.2.6.4 1 .5s.8.2 1.2.2c.4 0 .8 0 1.2-.1.3-.1.7-.2.9-.4.1 0 .1-.1.1-.2v-1.8c0-.1 0-.1-.1-.2h-.2c-.4.2-.9.3-1.3.3-.3 0-.6-.1-.8-.2-.2-.2-.3-.4-.3-.8v-4.6h2.4c.1 0 .1 0 .1-.1l.1.1h1v4.9c0 .6.1 1 .2 1.4s.4.7.6 1c.3.2.6.4 1 .5s.8.2 1.2.2c.4 0 .8 0 1.2-.1.3-.1.7-.2.9-.4.1 0 .1-.1.1-.2v-1.8c0-.1 0-.1-.1-.2h-.2c-.4.2-.9.3-1.3.3-.3 0-.6-.1-.8-.2-.2-.2-.3-.4-.3-.8v-4.6h2.4c.1 0 .2-.1.2-.2v-1.9c0-.1-.1-.2-.2-.2h-2.4v-2.5c0-.1-.1-.2-.2-.2h-2.2c-.1 0-.2.1-.2.2v2.5h-1c-.1 0-.1 0-.1.1l-.1-.1h-2.4v-2.5c0-.1-.1-.2-.2-.2H296c-.1 0-.2.1-.2.2v2.5h-1c-.1 0-.2.1-.2.2v1.9c.2.1.3.2.4.2zM308.7 43.4h2.2c.1 0 .2-.1.2-.2V29.8c0-.1-.1-.2-.2-.2h-2.2c-.1 0-.2.1-.2.2v13.4c0 .2.1.2.2.2zM313.4 42.2c.5.5 1 .8 1.6 1.1s1.3.4 2 .4c.9 0 1.7-.2 2.4-.5s1.2-.8 1.7-1.4c.1-.1.1-.2 0-.3l-1.3-1.2c-.1-.1-.2-.1-.3 0-.4.4-.8.6-1.1.8-.4.2-.8.3-1.4.3-.7 0-1.3-.2-1.7-.6-.4-.4-.7-.9-.8-1.5h6.9c.1 0 .2-.1.2-.2v-.3-.3c0-.7-.1-1.4-.3-2.1-.2-.7-.5-1.2-.9-1.7s-.9-.9-1.5-1.2-1.3-.4-2.1-.4c-.7 0-1.4.1-2 .4-.6.3-1.1.7-1.6 1.1-.4.5-.8 1-1 1.7-.2.6-.4 1.3-.4 2 0 .8.1 1.5.4 2.1.4.8.7 1.3 1.2 1.8zm1.1-4.7c.1-.6.4-1.1.7-1.5.4-.4.9-.6 1.6-.6.3 0 .6.1.9.2.3.1.5.3.7.5s.3.5.5.8c.1.2.2.5.2.7h-4.6v-.1zM323.1 38.5c.3.2.6.4 1 .6.4.1.7.3 1.1.4l.8.2c.3.1.5.2.7.3s.3.2.4.3.1.2.1.4c0 .3-.1.5-.3.6-.2.2-.6.2-1 .2-.5 0-1-.1-1.5-.3s-1.1-.5-1.6-.9h-.1c-.1 0-.1 0-.1.1l-1 1.5c-.1.1 0 .2 0 .3.6.5 1.3.9 2.1 1.1.7.3 1.5.4 2.2.4.5 0 1-.1 1.5-.2s.9-.3 1.2-.6c.3-.3.6-.6.8-1 .2-.4.3-.9.3-1.5 0-.5-.1-.9-.3-1.2-.2-.3-.5-.6-.8-.8s-.6-.4-1-.6c-.4-.2-.7-.3-1.1-.4-.3-.1-.6-.2-.8-.3-.3-.1-.5-.2-.7-.3s-.3-.2-.4-.3-.1-.2-.1-.4.1-.4.3-.5c.4-.3 1.2-.3 2.2 0 .5.2.9.4 1.4.7h.1s.1 0 .1-.1l.9-1.6c0-.1 0-.2-.1-.3-.5-.4-1.1-.6-1.8-.8-1.1-.4-2.3-.4-3.3-.1-.4.1-.8.4-1.2.6-.3.3-.6.6-.8 1-.2.4-.3.8-.3 1.4 0 .5.1.9.3 1.3l.8.8zM336.2 32.4v-.2l-.7-1.1-.1-.1h-.2l-1.5 1.1.2-1.8v-.1l-.1-.1h-1.3c-.1 0-.1 0-.1.1s-.1.1 0 .1l.2 1.8-1.5-1.1h-.2c-.1 0-.1 0-.1.1l-.7 1.1v.2c0 .1.1.1.1.1l1.7.7-1.7.7-.1.1v.2l.7 1.1.1.1h.2l1.5-1.1-.2 1.8v.1l.1.1h1.3c.1 0 .1 0 .1-.1s.1-.1 0-.1l-.2-1.8 1.5 1.1h.2c.1 0 .1 0 .1-.1l.7-1.1V34c0-.1-.1-.1-.1-.1l-1.7-.7 1.7-.7c.1 0 .1 0 .1-.1zM341.2 33.3l1.7-.7.1-.1v-.2l-.7-1.1-.1-.1h-.2l-1.5 1.1.2-1.8v-.1l-.1-.1h-1.3c-.1 0-.1 0-.1.1s-.1.1 0 .1l.2 1.8-1.5-1.1h-.2c-.1 0-.1 0-.1.1l-.7 1.1v.2c0 .1.1.1.1.1l1.7.7-1.7.7-.1.1v.2l.7 1.1.1.1h.2l1.5-1.1-.2 1.8v.1l.1.1h1.3c.1 0 .1 0 .1-.1s.1-.1 0-.1l-.2-1.8 1.5 1.1h.2c.1 0 .1 0 .1-.1l.7-1.1v-.2c0-.1-.1-.1-.1-.1l-1.7-.7zM219 74.4h-.4c-.4 0-.7.1-.9.3s-.3.6-.3 1v.2h-.4s-.1 0-.1.1v.7s0 .1.1.1h.4v3s0 .1.1.1h.9s.1 0 .1-.1v-3h.9s.1 0 .1-.1V76s0-.1-.1-.1h-.9v-.1c0-.3.1-.5.4-.5h.3c.1 0 .2 0 .2.1h.1V74.6s0-.1-.1-.1c-.2 0-.3 0-.4-.1zM324.7 76.5c-.2-.2-.4-.4-.6-.5s-.5-.2-.8-.2-.6.1-.8.2c-.2.1-.4.3-.6.5s-.3.4-.4.7-.1.5-.1.8.1.6.2.9c.1.3.3.5.4.7.2.2.4.3.7.4.2.1.5.2.8.2.4 0 .7-.1 1-.2.3-.1.5-.3.7-.5v-.1l-.5-.5h-.1c-.1.1-.3.3-.5.3-.1.1-.3.1-.5.1-.3 0-.5-.1-.7-.2-.2-.1-.3-.3-.3-.6h2.7s.1 0 .1-.1v-.2c0-.3 0-.6-.1-.8-.3-.5-.5-.7-.6-.9zm-2.4 1.1c0-.2.1-.5.3-.6.2-.2.4-.3.6-.3.1 0 .3 0 .4.1s.2.1.3.2c.1.1.1.2.2.3 0 .1.1.2.1.3h-1.9zM237.3 75.9s0 .1 0 0l-.1.5c-.1-.1-.3-.2-.4-.3-.2-.1-.5-.2-.8-.2-.2 0-.5 0-.7.1s-.4.2-.6.4-.3.4-.4.6c-.1.2-.2.5-.2.8s.1.6.2.8.2.4.4.6c.2.2.4.3.6.4.2.1.4.1.7.1.3 0 .6-.1.8-.2.2-.1.3-.2.4-.4v.1c0 .4-.1.6-.3.8-.2.2-.5.3-.9.3-.3 0-.5 0-.7-.1l-.6-.3h-.1l-.3.7v.1c.5.3 1.1.5 1.8.5s1.2-.2 1.6-.5.6-.9.6-1.6V76s0-.1-.1-.1h-.9zm-.1 2.2c-.1.1-.1.2-.2.3s-.2.2-.3.2c-.3.1-.6.1-.8 0-.1 0-.2-.1-.3-.2-.1-.1-.2-.2-.2-.3-.1-.1-.1-.3-.1-.4s0-.3.1-.4c.1-.1.1-.2.2-.3s.2-.2.3-.2c.1 0 .3-.1.4-.1s.3 0 .4.1c.1 0 .2.1.3.2.1.1.2.2.2.3.1.1.1.3.1.4 0 .2-.1.3-.1.4zM335.8 77.9c-.1-.1-.3-.2-.4-.2-.1-.1-.3-.1-.4-.2-.1 0-.2-.1-.3-.1-.1 0-.2-.1-.3-.1-.1 0-.1-.1-.2-.1l-.1-.1c0-.1 0-.2.1-.2.2-.1.5-.1.9 0 .2.1.4.1.5.3h.1l.4-.6v-.1c-.2-.1-.4-.3-.7-.3-.5-.1-.9-.2-1.3 0-.2.1-.3.1-.5.2-.1.1-.2.2-.3.4-.1.2-.1.3-.1.5s0 .4.1.5l.3.3c.1.1.3.2.4.2.1.1.3.1.4.1s.2.1.3.1c.1 0 .2.1.3.1.1 0 .1.1.2.1 0 0 .1.1.1.2s0 .2-.1.2c-.2.1-.6.1-1 0l-.6-.3h-.1-.1l-.4.6v.1c.2.2.5.3.8.4.3.1.6.2.9.2.2 0 .4 0 .6-.1s.3-.1.5-.2c.1-.1.2-.2.3-.4.1-.2.1-.4.1-.6 0-.2 0-.4-.1-.5-.1-.2-.2-.3-.3-.4zM327.1 75.9c-.3 0-.6 0-.8.1-.2.1-.5.1-.7.2 0 0-.1.1 0 .1l.2.7h.1c.2-.1.3-.1.5-.2s.4-.1.6-.1c.3 0 .5.1.7.2.1.1.2.3.2.5-.1 0-.3-.1-.4-.1h-.6c-.2 0-.4 0-.6.1s-.4.1-.5.2c-.1.1-.3.2-.3.4-.1.2-.1.4-.1.6 0 .2 0 .4.1.5.1.2.2.3.3.4.1.1.3.2.5.2.2.1.4.1.5.1.3 0 .6-.1.8-.2.1-.1.3-.2.4-.3v.3s0 .1.1.1h.9s.1 0 .1-.1v-2.3c0-.5-.1-1-.4-1.3-.6 0-1.1-.1-1.6-.1zm.7 2.6c0 .1 0 .2-.1.3 0 .1-.1.2-.2.2-.1.1-.2.1-.3.2-.1 0-.2.1-.4.1s-.4 0-.5-.1-.2-.2-.2-.4.1-.3.2-.4c.1-.1.3-.1.6-.1h.5c.1 0 .2.1.3.1v.1h.1zM331.4 75.8c-.2 0-.3 0-.4.1-.1 0-.2.1-.3.2-.1.1-.2.1-.3.2l-.1.1V76s0-.1-.1-.1h-.9s-.1 0-.1.1v3.9s0 .1.1.1h.9s.1 0 .1-.1v-2.2c0-.3.1-.5.2-.7s.3-.2.6-.2c.2 0 .4.1.5.2.1.1.2.4.2.6v2.2s0 .1.1.1h.9s.1 0 .1-.1v-2.5c0-.5-.1-.9-.4-1.1-.3-.2-.6-.4-1.1-.4z"/><path class="st9" d="M221.7 76.9c.1 0 .1 0 0 0l.1-1s0-.1-.1-.1c-.4 0-.7.1-.9.3-.2.1-.3.3-.4.4v-.6s0-.1-.1-.1h-.9s-.1 0-.1.1v3.9s0 .1.1.1h.9s.1 0 .1-.1v-1.5c0-.2 0-.5.1-.6.1-.2.1-.3.3-.5.1-.1.2-.2.4-.3.1.1.3 0 .5 0zM230.7 75.8c-.3 0-.6.1-.8.2-.2.1-.4.3-.5.4-.1-.2-.2-.3-.4-.4-.2-.1-.5-.2-.7-.2s-.3 0-.4.1c-.1 0-.2.1-.3.2-.1.1-.2.1-.3.2 0 0 0 .1-.1.1V76s0-.1-.1-.1h-.9s-.1 0-.1.1v3.9s0 .1.1.1h.9s.1 0 .1-.1v-2.2c0-.3.1-.5.2-.7.1-.2.3-.2.5-.2s.4.1.5.2c.1.1.2.4.2.6v2.2s0 .1.1.1h.9s.1 0 .1-.1v-2.2c0-.3.1-.5.2-.7.1-.1.3-.2.5-.2s.4.1.5.2c.1.1.2.4.2.7v2.2s0 .1.1.1h.9s.1 0 .1-.1v-2.5c0-.5-.1-.9-.4-1.1-.3-.2-.6-.4-1.1-.4zM295.8 76.5c-.2-.2-.4-.3-.7-.4-.3-.1-.5-.2-.9-.2-.3 0-.6.1-.9.2-.3.1-.5.3-.7.5s-.3.4-.4.7-.2.5-.2.8.1.6.2.8.3.5.4.7c.2.2.4.3.7.4.3.1.5.2.8.2s.6-.1.9-.2c.3-.1.5-.3.7-.5s.3-.4.4-.7c.1-.3.2-.5.2-.8s-.1-.6-.2-.8c0-.3-.1-.6-.3-.7zm-.6 1.9c0 .1-.1.3-.2.4s-.2.2-.3.2c-.3.1-.6.1-.9 0-.1-.1-.3-.1-.3-.3-.1-.1-.2-.2-.2-.4-.1-.1-.1-.3-.1-.5s0-.3.1-.5c0-.1.1-.3.2-.4.1-.1.2-.2.3-.2.1-.1.3-.1.4-.1.2 0 .3 0 .4.1s.2.1.3.3c.1.1.2.2.2.4.1.1.1.3.1.5.1.2.1.4 0 .5zM225.3 76.5c-.2-.2-.4-.3-.7-.4-.3-.1-.5-.2-.9-.2-.3 0-.6.1-.9.2-.3.1-.5.3-.7.5s-.3.4-.4.7c-.1.3-.2.5-.2.8s.1.6.2.8c.1.2.3.5.4.7.2.2.4.3.7.4.3.1.5.2.8.2s.6-.1.9-.2c.3-.1.5-.3.7-.5s.3-.4.4-.7c.1-.3.2-.5.2-.8s-.1-.6-.2-.8c0-.3-.1-.6-.3-.7zm-.5 1.9c0 .1-.1.3-.2.4-.1.1-.2.2-.3.2-.3.1-.6.1-.9 0-.1-.1-.2-.1-.3-.3-.1-.1-.2-.2-.2-.4-.1-.1-.1-.3-.1-.5s0-.3.1-.5c0-.1.1-.3.2-.4.1-.1.2-.2.3-.2.1-.1.3-.1.4-.1s.3 0 .4.1c.1.1.2.1.3.3.1.1.2.2.2.4.1.1.1.3.1.5v.5zM272.3 75.9c-.3 0-.6 0-.8.1-.2.1-.5.1-.7.2 0 0-.1.1 0 .1l.2.7h.1c.2-.1.3-.1.5-.2.2 0 .4-.1.6-.1.3 0 .5.1.7.2.1.1.2.3.2.5-.1 0-.3-.1-.4-.1h-.6c-.2 0-.4 0-.6.1s-.4.1-.5.2c-.1.1-.3.3-.3.4-.1.2-.1.4-.1.6 0 .2 0 .4.1.5.1.2.2.3.3.4.1.1.3.2.5.2.2.1.4.1.5.1.3 0 .6-.1.8-.2.1-.1.3-.2.4-.3v.3s0 .1.1.1h.9s.1 0 .1-.1v-2.3c0-.5-.1-1-.4-1.3-.6 0-1-.1-1.6-.1zm.8 2.6c0 .1 0 .2-.1.3 0 .1-.1.2-.2.2-.1.1-.2.1-.3.2-.1 0-.2.1-.4.1s-.4 0-.5-.1-.2-.2-.2-.4.1-.3.2-.4c.1-.1.3-.1.6-.1h.5c.1 0 .2.1.3.1v.1h.1zM276.7 75.8c-.2 0-.3 0-.4.1-.1 0-.2.1-.3.2-.1.1-.2.1-.3.2l-.1.1V76s0-.1-.1-.1h-.9s-.1 0-.1.1v3.9s0 .1.1.1h.9s.1 0 .1-.1v-2.2c0-.3.1-.5.2-.7s.3-.2.6-.2c.2 0 .4.1.5.2.1.1.2.4.2.6v2.2s0 .1.1.1h.9s.1 0 .1-.1v-2.5c0-.5-.1-.9-.4-1.1-.3-.2-.7-.4-1.1-.4zM281.5 74.4s0 .1 0 0l-.1 2c-.1-.1-.3-.2-.4-.3-.2-.1-.5-.2-.8-.2-.2 0-.5 0-.7.1s-.4.2-.6.4-.3.4-.4.7-.2.6-.2.9c0 .3.1.6.2.9.1.3.2.5.4.7.2.2.4.3.6.4.2.1.5.1.7.1.3 0 .6-.1.8-.2.2-.1.3-.2.4-.4v.4s0 .1.1.1h.9s.1 0 .1-.1v-5.3s0-.1-.1-.1h-.9v-.1zm-.1 4c-.1.1-.1.3-.2.4-.1.1-.2.2-.3.2-.3.1-.5.1-.8 0-.1-.1-.2-.1-.3-.2-.1-.1-.2-.2-.2-.4-.1-.1-.1-.3-.1-.5s0-.4.1-.5.1-.3.2-.4c.1-.1.2-.2.3-.2.1-.1.3-.1.4-.1s.3 0 .4.1.2.1.3.2c.1.1.2.2.2.4.1.1.1.3.1.5s0 .4-.1.5zM298.1 76.1c-.2.1-.3.3-.4.4v-.6s0-.1-.1-.1h-.9s-.1 0-.1.1v3.9s0 .1.1.1h.9s.1 0 .1-.1v-1.5c0-.2 0-.5.1-.6.1-.2.1-.3.3-.5s.2-.2.4-.3c.2-.1.3-.1.5-.1h.1s.1 0 .1-.1v-.9s0-.1-.1-.1c-.5.1-.8.2-1 .4zM269.2 74.4c-.1 0-.1.1 0 0l-.1 5.4s0 .1.1.1h.9s.1 0 .1-.1v-5.3s0-.1-.1-.1h-.9zM304.4 76.5c-.2-.2-.4-.3-.7-.4-.3-.1-.5-.2-.9-.2-.3 0-.6.1-.9.2-.3.1-.5.3-.7.5s-.3.4-.4.7-.2.5-.2.8.1.6.2.8.3.5.4.7c.2.2.4.3.7.4.3.1.5.2.8.2s.6-.1.9-.2c.3-.1.5-.3.7-.5s.3-.4.4-.7c.1-.3.2-.5.2-.8s-.1-.6-.2-.8c0-.3-.2-.6-.3-.7zm-.6 1.9c-.1.1-.1.3-.2.4-.1.1-.2.2-.3.2-.3.1-.6.1-.9 0-.1-.1-.2-.1-.3-.3-.1-.1-.2-.2-.2-.4-.1-.1-.1-.3-.1-.5s0-.3.1-.5c.1-.1.1-.3.2-.4.1-.1.2-.2.3-.2.1-.1.3-.1.4-.1.2 0 .3 0 .4.1s.2.1.3.3c.1.1.2.2.2.4.1.1.1.3.1.5.1.2.1.4 0 .5zM287.5 74.4c-.1 0-.1.1 0 0l-.1 5.4s0 .1.1.1h.9s.1 0 .1-.1v-5.3s0-.1-.1-.1h-.9zM284.9 74.4h-.4c-.4 0-.7.1-.9.3-.2.2-.3.6-.3 1v.2h-.4s-.1 0-.1.1v.7s0 .1.1.1h.4v3s0 .1.1.1h.9s.1 0 .1-.1v-3h.9s.1 0 .1-.1V76s0-.1-.1-.1h-.9v-.1c0-.3.1-.5.4-.5h.2c.1 0 .2 0 .2.1h.1V74.6s0-.1-.1-.1-.2 0-.3-.1zM289.1 74.4s-.1.1 0 0l-.1 5.4s0 .1.1.1h.9s.1 0 .1-.1v-5.3s0-.1-.1-.1h-.9zM266.5 76.5c-.2-.2-.4-.3-.7-.4-.3-.1-.5-.2-.9-.2-.3 0-.6.1-.9.2-.3.1-.5.3-.7.5s-.3.4-.4.7-.2.5-.2.8.1.6.2.8.3.5.4.7c.2.2.4.3.7.4.3.1.5.2.8.2s.6-.1.9-.2c.3-.1.5-.3.7-.5s.3-.4.4-.7.2-.5.2-.8-.1-.6-.2-.8c0-.3-.1-.6-.3-.7zm-.5 1.9c0 .1-.1.3-.2.4-.1.1-.2.2-.3.2-.3.1-.6.1-.9 0-.1-.1-.2-.1-.3-.3-.1-.1-.2-.2-.2-.4-.1-.1-.1-.3-.1-.5s0-.3.1-.5c0-.1.1-.3.2-.4.1-.1.2-.2.3-.2.1-.1.3-.1.4-.1s.3 0 .4.1.2.1.3.3c.1.1.2.2.2.4.1.1.1.3.1.5v.5zM320.9 78.6h-.1c-.1.1-.3.2-.4.3s-.3.1-.5.1-.3 0-.4-.1-.2-.1-.3-.2c-.1-.1-.2-.2-.2-.4-.1-.1-.1-.3-.1-.5s0-.3.1-.5c.1-.1.1-.3.2-.4.1-.1.2-.2.3-.2.1-.1.3-.1.4-.1.2 0 .4 0 .5.1s.3.2.4.3h.2l.5-.6v-.1c-.2-.2-.4-.4-.7-.5-.3-.1-.6-.2-.9-.2s-.6.1-.8.2c-.3.1-.5.3-.7.5s-.3.4-.4.7-.2.5-.2.8.1.6.2.8.3.5.4.7c.2.2.4.3.7.4.3.1.5.2.8.2.4 0 .7-.1 1-.2.3-.1.5-.3.7-.5v-.1l-.7-.5zM285.8 74.5s-.1 0 0 0l-.1.9s0 .1.1.1h1s.1 0 .1-.1v-.8s0-.1-.1-.1h-1zM285.9 75.9c-.1 0-.1.1 0 0l-.1 3.9s0 .1.1.1h.9s.1 0 .1-.1v-3.9s0-.1-.1-.1l-.9.1zM246.9 75.8c-.2 0-.3 0-.4.1-.1 0-.2.1-.3.2-.1.1-.2.1-.3.2l-.1.1V76s0-.1-.1-.1h-.9s-.1 0-.1.1v3.9s0 .1.1.1h.9s.1 0 .1-.1v-2.2c0-.3.1-.5.2-.7s.3-.2.6-.2c.2 0 .4.1.5.2.1.1.2.4.2.6v2.2s0 .1.1.1h.9s.1 0 .1-.1v-2.5c0-.5-.1-.9-.4-1.1-.3-.2-.7-.4-1.1-.4zM243.2 74.5c-.1 0-.1 0 0 0l-.1.9s0 .1.1.1h1s.1 0 .1-.1v-.8s0-.1-.1-.1h-1zM317 76.5c-.2-.2-.4-.3-.7-.4-.3-.1-.5-.2-.9-.2-.3 0-.6.1-.9.2-.3.1-.5.3-.7.5s-.3.4-.4.7-.2.5-.2.8.1.6.2.8.3.5.4.7c.2.2.4.3.7.4s.5.2.8.2.6-.1.9-.2c.3-.1.5-.3.7-.5s.3-.4.4-.7.2-.5.2-.8-.1-.6-.2-.8c.1-.3-.1-.6-.3-.7zm-.5 1.9c0 .1-.1.3-.2.4-.1.1-.2.2-.3.2-.3.1-.6.1-.9 0-.1-.1-.2-.1-.3-.3-.1-.1-.2-.2-.2-.4-.1-.1-.1-.3-.1-.5s0-.3.1-.5c0-.1.1-.3.2-.4.1-.1.2-.2.3-.2.1-.1.3-.1.4-.1s.3 0 .4.1.2.1.3.3c.1.1.2.2.2.4.1.1.1.3.1.5.1.2.1.4 0 .5zM251.8 75.9c-.1 0-.1.1 0 0l-.1.5c-.1-.1-.3-.2-.4-.3-.2-.1-.5-.2-.8-.2-.2 0-.5 0-.7.1s-.4.2-.6.4-.3.4-.4.6c-.1.2-.2.5-.2.8s.1.6.2.8.2.4.4.6c.2.2.4.3.6.4.2.1.4.1.7.1.3 0 .6-.1.8-.2.2-.1.3-.2.4-.4v.1c0 .4-.1.6-.3.8-.2.2-.5.3-.9.3-.3 0-.5 0-.7-.1l-.6-.3h-.1l-.3.7v.1c.5.3 1.1.5 1.8.5s1.2-.2 1.6-.5.6-.9.6-1.6V76s0-.1-.1-.1h-.9zm-.2 2.2c-.1.1-.1.2-.2.3s-.2.2-.3.2c-.3.1-.6.1-.8 0-.1 0-.2-.1-.3-.2-.1-.1-.2-.2-.2-.3-.1-.1-.1-.3-.1-.4 0-.1 0-.3.1-.4.1-.1.1-.2.2-.3s.2-.2.3-.2c.1 0 .3-.1.4-.1s.3 0 .4.1c.1 0 .2.1.3.2.1.1.2.2.2.3.1.1.1.3.1.4s0 .3-.1.4zM242.2 76.5c-.2-.2-.4-.3-.7-.4-.3-.1-.5-.2-.9-.2-.3 0-.6.1-.9.2-.3.1-.5.3-.7.5s-.3.4-.4.7-.2.5-.2.8.1.6.2.8.3.5.4.7c.2.2.4.3.7.4.3.1.5.2.8.2s.6-.1.9-.2c.3-.1.5-.3.7-.5s.3-.4.4-.7.2-.5.2-.8-.1-.6-.2-.8c.1-.3-.1-.6-.3-.7zm-.5 1.9c0 .1-.1.3-.2.4s-.2.2-.3.2c-.3.1-.6.1-.9 0-.1-.1-.3-.1-.3-.3-.1-.1-.2-.2-.2-.4-.1-.1-.1-.3-.1-.5s0-.3.1-.5c0-.1.1-.3.2-.4.1-.1.2-.2.3-.2.1-.1.3-.1.4-.1.2 0 .3 0 .4.1s.2.1.3.3c.1.1.2.2.2.4.1.1.1.3.1.5.1.2.1.4 0 .5zM243.2 75.9s-.1.1 0 0l-.1 3.9s0 .1.1.1h.9s.1 0 .1-.1v-3.9s0-.1-.1-.1l-.9.1zM255 74.5s-.1 0 0 0l-.1.9s0 .1.1.1h1s.1 0 .1-.1v-.8s0-.1-.1-.1h-1zM258.7 75.8c-.2 0-.3 0-.4.1-.1 0-.2.1-.3.2-.1.1-.2.1-.3.2l-.1.1V76s0-.1-.1-.1h-.9s-.1 0-.1.1v3.9s0 .1.1.1h.9s.1 0 .1-.1v-2.2c0-.3.1-.5.2-.7s.3-.2.6-.2c.2 0 .4.1.5.2.1.1.2.4.2.6v2.2s0 .1.1.1h.9s.1 0 .1-.1v-2.5c0-.5-.1-.9-.4-1.1-.3-.2-.6-.4-1.1-.4z"/><path class="st9" d="M262.7 78.9c-.2.1-.3.1-.5.1-.1 0-.2 0-.3-.1-.1-.1-.1-.2-.1-.3v-1.8h1s.1 0 .1-.1v-.8s0-.1-.1-.1h-1v-1s0-.1-.1-.1h-.9s-.1 0-.1.1v1h-.3s-.1 0-.1.1v.8s0 .1.1.1h.4v2c0 .2 0 .4.1.6.1.2.1.3.3.4.1.1.2.2.4.2.1 0 .3.1.5.1s.3 0 .5-.1c.1 0 .3-.1.4-.2V79c-.2 0-.2 0-.3-.1.1 0 .1 0 0 0zM310.7 76.1c-.2.1-.3.3-.4.4v-.6s0-.1-.1-.1h-.8s-.1 0-.1.1v3.9s0 .1.1.1h.9s.1 0 .1-.1v-1.5c0-.2 0-.5.1-.6.1-.2.1-.3.3-.5s.2-.2.4-.3c.2-.1.3-.1.5-.1h.1s.1 0 .1-.1v-.9s0-.1-.1-.1c-.5.1-.8.2-1.1.4zM255 75.9s0 .1 0 0l-.1 3.9s0 .1.1.1h.9s.1 0 .1-.1v-3.9s0-.1-.1-.1l-.9.1zM307.8 75.9s0 .1 0 0l-.1 2.3c0 .3-.1.5-.2.7s-.3.2-.6.2c-.2 0-.4-.1-.5-.2-.1-.1-.2-.4-.2-.6v-2.2s0-.1-.1-.1h-.9s-.1 0-.1.1v2.5c0 .5.1.9.4 1.1.3.3.6.4 1.1.4.3 0 .6-.1.8-.2.1-.1.3-.2.4-.3v.4s0 .1.1.1h.9s.1 0 .1-.1v-3.9s0-.1-.1-.1h-1v-.1zM230.2 53.3c-.6-.7-1.4-1.2-2.2-1.5s-1.7-.5-2.5-.5c-1.2 0-2.2.3-3 .8-.6.4-1.1.8-1.5 1.3v-1.5c0-.2-.1-.3-.3-.3h-3.3c-.2 0-.3.1-.3.3v18.4c0 .2.1.3.3.3h3.3c.1 0 .1 0 .2-.1s.1-.1.1-.2v-5.7c.4.4.9.9 1.5 1.2.8.5 1.8.8 3 .8.9 0 1.7-.2 2.5-.5s1.6-.8 2.2-1.5c.6-.7 1.1-1.5 1.5-2.4.4-.9.6-2 .6-3.2s-.2-2.3-.6-3.2c-.3-1.1-.9-1.9-1.5-2.5zm-2 7.4c-.2.5-.5 1-.8 1.3-.3.4-.7.6-1.2.8-.9.4-2 .4-2.9 0-.5-.2-.9-.5-1.2-.9s-.6-.8-.8-1.3-.3-1.1-.3-1.8.1-1.2.3-1.8c.2-.5.5-1 .8-1.3.3-.4.8-.7 1.2-.9.5-.2 1-.3 1.5-.3s1 .1 1.5.3.9.5 1.2.8c.3.4.6.8.8 1.3s.3 1.1.3 1.8c-.1.8-.2 1.4-.4 2zM241.7 55.3h.2c.2 0 .3-.1.3-.3v-3.4c0-.1-.1-.3-.3-.3-1.3-.1-2.4.3-3.3.9-.6.4-1.1 1-1.4 1.6v-2c0-.2-.1-.3-.3-.3h-3.3c-.2 0-.3.1-.3.3v14.1c0 .2.1.3.3.3h3.3c.2 0 .3-.1.3-.3v-5.4c0-.9.1-1.7.3-2.4.2-.7.5-1.2.9-1.6.4-.4.9-.8 1.4-1 .6-.1 1.2-.2 1.9-.2z"/><path class="st9" d="M254.9 63.4l-1.9-1.7c-.1-.1-.3-.1-.4 0-.5.5-1.1.9-1.7 1.2-.5.3-1.2.4-2 .4-1 0-1.8-.3-2.5-.9-.6-.5-1-1.2-1.2-2.2h10c.1 0 .3-.1.3-.2v-.5-.4c0-1-.1-2-.4-3s-.7-1.8-1.3-2.5c-.6-.7-1.3-1.3-2.2-1.7-.9-.4-1.9-.6-3.1-.6-1 0-2 .2-2.9.6-.9.4-1.6 1-2.3 1.6-.6.7-1.1 1.5-1.5 2.4-.3.9-.5 1.9-.5 3s.2 2.2.6 3.1c.4.9.9 1.7 1.6 2.4.7.7 1.5 1.2 2.4 1.6.9.4 1.9.6 2.9.6 1.3 0 2.5-.3 3.5-.8s1.8-1.2 2.5-2c.2-.1.2-.3.1-.4zm-8.6-8c.6-.6 1.3-.9 2.3-.9.5 0 .9.1 1.3.3s.7.4 1 .7.5.7.7 1.1c.1.3.2.7.3 1.1h-6.6c.1-1 .4-1.7 1-2.3zM265.7 51.7l-3.6 9.6-3.5-9.6c0-.1-.1-.2-.3-.2h-3.5c-.1 0-.2 0-.2.1-.1.1-.1.2 0 .3l5.8 14.2c0 .1.1.2.3.2h2.9c.1 0 .2-.1.3-.2l5.8-14.2v-.3c-.1-.1-.1-.1-.2-.1h-3.4c-.3.1-.4.1-.4.2zM280.9 53.6c-.6-.7-1.3-1.3-2.2-1.7-.9-.4-1.9-.6-3.1-.6-1 0-2 .2-2.9.6-.9.4-1.6 1-2.3 1.6-.6.7-1.1 1.5-1.5 2.4-.3.9-.5 1.9-.5 3s.2 2.2.6 3.1c.4.9.9 1.7 1.6 2.4.7.7 1.5 1.2 2.4 1.6.9.4 1.9.6 2.9.6 1.3 0 2.5-.3 3.5-.8s1.8-1.2 2.5-2c.1-.1.1-.3 0-.4l-1.9-1.7c-.1-.1-.3-.1-.4 0-.5.5-1.1.9-1.7 1.2-.5.3-1.2.4-2 .4-1 0-1.8-.3-2.5-.9-.6-.5-1-1.2-1.2-2.2h10c.1 0 .3-.1.3-.2v-.5-.4c0-1-.1-2-.4-3-.1-.9-.6-1.7-1.2-2.5zm-8.6 4c.2-.9.5-1.6 1.1-2.2.6-.6 1.3-.9 2.3-.9.5 0 .9.1 1.3.3s.7.4 1 .7.5.7.7 1.1c.1.3.2.7.3 1.1l-6.7-.1zM296.9 65.9v-9c0-1.7-.5-3.1-1.4-4.1s-2.2-1.6-3.9-1.6c-.6 0-1.1.1-1.6.2s-.9.3-1.3.6c-.4.2-.7.5-1 .8l-.3.3v-1.4c0-.2-.1-.3-.3-.3h-3.3c-.2 0-.3.1-.3.3v14.1c0 .2.1.3.3.3h3.3c.2 0 .3-.1.3-.3v-7.9c0-1 .3-1.8.8-2.4.5-.6 1.2-.8 2.1-.8s1.5.3 2 .8.7 1.3.7 2.4v8c0 .2.1.3.3.3h3.3c.1 0 .3-.1.3-.3zM303.5 66.4c.6 0 1.2-.1 1.7-.2s.9-.3 1.4-.6c.1 0 .1-.1.1-.2v-2.6c0-.1 0-.2-.1-.2s-.2-.1-.3 0c-.6.3-1.2.5-1.9.5-.5 0-.8-.1-1.1-.3-.2-.2-.4-.6-.4-1.1V55h3.5c.2 0 .3-.1.3-.3V52c0-.2-.1-.3-.3-.3h-3.5v-3.6c0-.2-.1-.3-.3-.3h-3.3c-.2 0-.3.1-.3.3v3.6h-1.5c-.2 0-.3.1-.3.3v2.7c0 .2.1.3.3.3h1.5v7.2c0 .8.1 1.5.3 2.1.2.6.5 1 .9 1.4.4.3.9.6 1.4.8.7-.1 1.3-.1 1.9-.1z"/><path class="st9" d="M320.7 60.1v-.5-.4c0-1-.1-2-.4-3s-.7-1.8-1.3-2.5c-.6-.7-1.3-1.3-2.2-1.7-.9-.4-1.9-.6-3.1-.6-1 0-2 .2-2.9.6-.9.4-1.6 1-2.3 1.6-.6.7-1.1 1.5-1.5 2.4-.3.9-.5 1.9-.5 3s.2 2.2.6 3.1c.4.9.9 1.7 1.6 2.4.7.7 1.5 1.2 2.4 1.6.9.4 1.9.6 2.9.6 1.3 0 2.5-.3 3.5-.8s1.8-1.2 2.5-2c.1-.1.1-.3 0-.4l-1.9-1.7c-.1-.1-.3-.1-.4 0-.5.5-1.1.9-1.7 1.2-.5.3-1.2.4-2 .4-1 0-1.8-.3-2.5-.9-.6-.5-1-1.2-1.2-2.2h10c.3 0 .4-.1.4-.2zm-10.3-2.5c.2-.9.5-1.6 1.1-2.2.6-.6 1.3-.9 2.3-.9.5 0 .9.1 1.3.3s.7.4 1 .7.5.7.7 1.1c.1.3.2.7.3 1.1l-6.7-.1zM332.6 66.2h3.3c.2 0 .3-.1.3-.3V46.4c0-.2-.1-.3-.3-.3h-3.3c-.2 0-.3.1-.3.3v6.8c-.4-.5-.9-.9-1.5-1.2-.8-.5-1.8-.8-3-.8-.9 0-1.7.2-2.5.5s-1.6.8-2.2 1.5-1.1 1.5-1.5 2.4-.6 2-.6 3.2.2 2.3.6 3.2.9 1.7 1.5 2.4 1.4 1.2 2.2 1.5c.8.3 1.7.5 2.5.5 1.2 0 2.2-.3 3-.8.6-.4 1.1-.8 1.5-1.3v1.6c0 .2.2.3.3.3zm-.5-5.6c-.2.5-.5 1-.8 1.3-.3.4-.8.7-1.2.9-.9.4-2 .4-2.9 0-.5-.2-.9-.5-1.2-.8-.3-.4-.6-.8-.8-1.3-.2-.5-.3-1.1-.3-1.8s.1-1.3.3-1.8c.2-.5.5-1 .8-1.3.3-.4.7-.6 1.2-.8s.9-.3 1.4-.3 1 .1 1.4.3c.5.2.9.5 1.2.9.3.4.6.8.8 1.3.2.5.3 1.1.3 1.8.1.5 0 1.1-.2 1.6z"/><g><path class="st9" d="M77.9 46.5H60.7c-.2 0-.4.2-.4.4v3.8c0 .2.2.4.4.4h11.7L61.7 71.2c-.1.1-.1.2 0 .4.1.1.2.2.3.2h4.8c.1 0 .3-.1.3-.2l11-21.2V47c.2-.3 0-.5-.2-.5zM100.5 54.1c-.5-1.6-1.3-3-2.2-4.1-1-1.2-2.1-2.1-3.5-2.8s-2.9-1-4.5-1c-1.7 0-3.2.3-4.5 1-1.4.7-2.5 1.6-3.5 2.8s-1.7 2.6-2.2 4.1c-.5 1.6-.8 3.3-.8 5.1s.3 3.5.8 5c.5 1.6 1.3 3 2.2 4.1 1 1.2 2.1 2.1 3.5 2.8 1.3.7 2.9 1 4.5 1s3.2-.3 4.5-1c1.4-.7 2.5-1.6 3.5-2.8s1.7-2.6 2.2-4.1c.5-1.6.8-3.3.8-5.1-.1-1.8-.3-3.5-.8-5zm-4.4 5.1c0 1.2-.1 2.3-.4 3.3s-.7 1.9-1.2 2.7c-.5.7-1.1 1.3-1.8 1.8-1.4.8-3.4.8-4.8 0-.7-.4-1.3-1-1.9-1.8-.5-.8-.9-1.7-1.2-2.7-.3-1-.4-2.1-.4-3.3s.1-2.3.4-3.3.7-1.9 1.2-2.7c.5-.7 1.1-1.3 1.8-1.7.7-.4 1.5-.6 2.4-.6s1.7.2 2.4.6c.7.4 1.3 1 1.9 1.8.5.8.9 1.7 1.2 2.7.2.9.4 2 .4 3.2z"/></g><g><path class="st9" d="M115.1 56.6c-.5 0-1 .1-1.4.3-.3.2-.6.4-.9.7-.2-.3-.4-.5-.7-.7s-.8-.3-1.3-.3c-.3 0-.5 0-.7.1l-.6.3c-.2.1-.3.2-.5.4l-.1.1v-.6c0-.1-.1-.1-.1-.1h-1.5c-.1 0-.1.1-.1.1v6.6c0 .1.1.1.1.1h1.5c.1 0 .1-.1.1-.1v-3.7c0-.5.1-.9.4-1.1.2-.3.5-.4.9-.4s.7.1.9.4c.2.3.3.6.3 1.1v3.8c0 .1.1.1.1.1h1.5c.1 0 .1-.1.1-.1v-3.7c0-.5.1-.9.4-1.1.2-.3.5-.4.9-.4s.7.1.9.4c.2.3.3.6.3 1.1v3.8c0 .1.1.1.1.1h1.5c.1 0 .1-.1.1-.1v-4.2c0-.8-.2-1.5-.6-2-.2-.7-.8-.9-1.6-.9zM120.1 54.3h-1.6c-.1 0-.1.1-.1.1v1.4c0 .1.1.1.1.1h1.6c.1 0 .1-.1.1-.1v-1.4c0-.1 0-.1-.1-.1zM120.1 56.7h-1.5c-.1 0-.1.1-.1.1v6.6c0 .1.1.1.1.1h1.5c.1 0 .1-.1.1-.1v-6.6l-.1-.1zM122.8 54.2h-1.5c-.1 0-.1.1-.1.1v9.2c0 .1.1.1.1.1h1.5c.1 0 .1-.1.1-.1v-9.2c.1 0 0-.1-.1-.1zM125.6 54.2h-1.5c-.1 0-.1.1-.1.1v9.2c0 .1.1.1.1.1h1.5c.1 0 .1-.1.1-.1v-9.2s0-.1-.1-.1zM128.4 56.7h-1.5c-.1 0-.1.1-.1.1v6.6c0 .1.1.1.1.1h1.5c.1 0 .1-.1.1-.1v-6.6s0-.1-.1-.1zM128.4 54.3h-1.6c-.1 0-.1.1-.1.1v1.4c0 .1.1.1.1.1h1.6c.1 0 .1-.1.1-.1v-1.4c.1-.1 0-.1-.1-.1zM135.3 57.7c-.3-.3-.7-.6-1.2-.8-.4-.2-.9-.3-1.5-.3-.5 0-1 .1-1.5.3-.4.2-.8.4-1.2.8-.3.3-.6.7-.8 1.1-.2.4-.3.9-.3 1.4s.1 1 .3 1.4.4.8.8 1.1c.3.3.7.6 1.2.8.4.2.9.3 1.4.3s1-.1 1.5-.3c.4-.2.8-.5 1.2-.8.3-.3.6-.7.8-1.1.2-.4.3-.9.3-1.4s-.1-1-.3-1.4c-.1-.4-.3-.8-.7-1.1zM132 62c-.2-.1-.4-.3-.6-.4-.2-.2-.3-.4-.4-.6-.1-.2-.1-.5-.1-.8s0-.5.1-.8c.1-.2.2-.4.4-.6.2-.2.4-.3.6-.4.2-.1.5-.2.8-.2s.5.1.8.2c.2.1.4.3.6.4.2.2.3.4.4.6.1.2.1.5.1.8s0 .5-.1.8c-.1.2-.2.4-.4.6-.2.2-.4.3-.6.4-.6.2-1.2.3-1.6 0zM142.4 57.3c-.4-.5-1.1-.7-1.8-.7-.3 0-.5 0-.7.1l-.6.3c-.2.1-.3.3-.5.4l-.1.1v-.7c0-.1-.1-.1-.1-.1h-1.5c-.1 0-.1.1-.1.1v6.6c0 .1.1.1.1.1h1.5c.1 0 .1-.1.1-.1v-3.7c0-.5.1-.9.4-1.1.3-.3.6-.4 1-.4s.7.1.9.4c.2.3.3.6.3 1.1v3.8c0 .1.1.1.1.1h1.5c.1 0 .1-.1.1-.1v-4.2c.1-.8-.2-1.5-.6-2z"/></g><g><path class="st9" d="M33.8 61.3h-1.7v-1.7c0-.1-.1-.1-.1-.1h-1.5c-.1 0-.1.1-.1.1v1.7h-.7c-.1 0-.1.1-.1.1v1.3c0 .1.1.1.1.1h.7v3.4c0 .4 0 .7.1 1s.2.5.4.6c.2.2.4.3.7.4.2.1.5.1.8.1.3 0 .6 0 .8-.1.2-.1.4-.1.6-.3l.1-.1v-1.2s0-.1-.1-.1h-.1c-.3.1-.6.2-.9.2-.2 0-.4-.1-.5-.2-.1-.1-.2-.3-.2-.5v-3.1h1.7c.1 0 .1-.1.1-.1v-1.3c0-.2 0-.2-.1-.2zM38.1 61.1c-.3 0-.5 0-.7.1l-.6.3c-.2.1-.3.3-.5.4l-.1.1v-3.2c0-.1-.1-.1-.1-.1h-1.5c-.1 0-.1.1-.1.1V68c0 .1.1.1.1.1h1.5c.1 0 .1-.1.1-.1v-3.7c0-.5.1-.9.4-1.1.3-.3.6-.4 1-.4s.7.1.9.4c.2.3.3.6.3 1.1v3.8c0 .1.1.1.1.1h1.5c.1 0 .1-.1.1-.1v-4.2c0-.8-.2-1.5-.6-1.9-.4-.6-1-.9-1.8-.9zM44.1 61.2c-.6 0-1 .1-1.4.2-.4.1-.8.2-1.2.4-.1 0-.1.1-.1.2l.4 1.2s0 .1.1.1h.1l.9-.3c.3-.1.6-.1 1-.1.5 0 .9.1 1.1.3.3.2.4.5.4.9-.2-.1-.4-.1-.7-.2-.3-.1-.6-.1-1-.1s-.8 0-1.1.1c-.3.1-.6.2-.9.4s-.5.4-.6.7-.2.6-.2 1 .1.7.2.9c.1.3.3.5.5.7s.5.3.8.4c.3.1.6.1.9.1.5 0 1-.1 1.3-.3.3-.1.5-.3.7-.5v.5c0 .1.1.1.1.1h1.5c.1 0 .1-.1.1-.1v-3.7c0-.9-.3-1.6-.8-2.2-.3-.5-1.1-.7-2.1-.7zm1.3 4.1v.3c0 .2 0 .4-.1.5-.1.2-.2.3-.3.4-.1.1-.3.2-.5.3s-.4.1-.7.1c-.3 0-.6-.1-.8-.2-.2-.1-.3-.3-.3-.6s.1-.5.3-.7c.2-.2.6-.3 1-.3.3 0 .6 0 .8.1.3 0 .5 0 .6.1zM51.6 61.1c-.3 0-.5 0-.7.1l-.6.3c-.2.1-.3.3-.5.4l-.1.1v-.7c0-.1-.1-.1-.1-.1h-1.5c-.1 0-.1.1-.1.1v6.6c0 .1.1.1.1.1h1.5c.1 0 .1-.1.1-.1v-3.7c0-.5.1-.9.4-1.1.3-.3.6-.4 1-.4s.7.1.9.4c.2.3.3.6.3 1.1V68c0 .1.1.1.1.1h1.5c.1 0 .1-.1.1-.1v-4.2c0-.8-.2-1.5-.6-1.9-.4-.5-1-.8-1.8-.8zM35.7 56.7v-4.2c0-.8-.2-1.5-.6-2s-1-.7-1.8-.7c-.5 0-1 .1-1.4.3-.3.2-.6.4-.9.7-.2-.3-.4-.5-.7-.7-.4-.2-.8-.3-1.3-.3-.3 0-.5 0-.7.1l-.6.3c-.2.1-.3.2-.5.4l-.1.1v-.6c0-.1-.1-.1-.1-.1h-1.5c-.1 0-.1.1-.1.1v6.6c0 .1.1.1.1.1H27c.1 0 .1-.1.1-.1V53c0-.5.1-.9.4-1.1.2-.3.5-.4.9-.4s.7.1.9.4c.2.3.3.6.3 1.1v3.8c0 .1.1.1.1.1h1.5c.1 0 .1-.1.1-.1v-3.7c0-.5.1-.9.4-1.1.2-.3.5-.4.9-.4s.7.1.9.4c.2.3.3.6.3 1.1v3.8c0 .1.1.1.1.1h1.5c.3-.1.3-.2.3-.3zM37.2 56c.3.3.7.6 1.2.8.4.2.9.3 1.4.3s1-.1 1.5-.3c.4-.2.8-.5 1.2-.8s.6-.7.8-1.1c.2-.4.3-.9.3-1.4s-.1-1-.3-1.4c-.2-.4-.4-.8-.8-1.1-.3-.3-.7-.6-1.2-.8-.4-.2-.9-.3-1.5-.3-.5 0-1 .1-1.5.3-.4.2-.8.5-1.2.8-.3.3-.6.7-.8 1.1-.2.4-.3.9-.3 1.4s.1 1 .3 1.4c.3.4.6.7.9 1.1zm1.9-.7c-.2-.1-.4-.2-.6-.4s-.3-.4-.4-.6c-.1-.2-.1-.5-.1-.8s0-.5.1-.8c.1-.2.2-.4.4-.6.2-.2.4-.3.6-.4.2-.1.5-.2.8-.2s.5.1.8.2c.2.1.4.3.6.4.2.2.3.4.4.6.1.2.1.5.1.8s0 .5-.1.8c-.1.2-.2.4-.4.6-.2.2-.4.3-.6.4-.5.2-1.2.2-1.6 0zM44.1 56.9h1.5c.1 0 .1-.1.1-.1v-2.5c0-.4.1-.8.2-1.1s.2-.6.4-.8c.2-.2.4-.4.7-.5.3-.1.6-.2.9-.2h.1c.1 0 .1-.1.1-.1V50c0-.1-.1-.1-.1-.1-.6 0-1.1.1-1.5.4-.3.2-.5.5-.7.8v-1c0-.1-.1-.1-.1-.1h-1.5c-.1 0-.1.1-.1.1v6.6c-.2.1-.1.2 0 .2zM54.2 52.1c-.1-.4-.3-.8-.6-1.2-.3-.3-.6-.6-1-.8s-.9-.3-1.4-.3-1 .1-1.4.3-.8.5-1.1.8c-.3.3-.5.7-.7 1.1-.2.4-.2.9-.2 1.4s.1 1 .3 1.5c.2.4.4.8.8 1.1.3.3.7.6 1.1.7.4.2.9.3 1.4.3.6 0 1.2-.1 1.6-.4.5-.2.8-.5 1.2-.9v-.2l-.9-.8h-.2c-.3.2-.5.4-.8.6-.3.1-.6.2-.9.2-.5 0-.9-.1-1.2-.4-.3-.2-.5-.6-.6-1h4.7c.1 0 .1 0 .1-.1v-.2-.2c0-.5-.1-1-.2-1.5zm-4.7.7c.1-.4.2-.8.5-1 .3-.3.6-.4 1.1-.4.2 0 .4 0 .6.1s.3.2.5.3c.1.1.2.3.3.5.1.2.1.3.1.5h-3.1z"/></g><path d="M14.4 44.4c0-.1 0-.1-.1-.2 0-.1-.1-.2-.1-.3s0-.1-.1-.2l-.6-.9c-.5-.6-1.2-.9-1.9-.9H2.9c-1.6 0-2.9 1.6-2.9 3.6V65.3c0 2.4 1.9 4.3 4.2 4.3h6.2c1.2 0 2.3-.6 3.1-1.5.2-.3.5-.6.6-1 0-.1.1-.1.1-.2.1-.2.2-.5.2-.7.1-.3.1-.5.1-.8V45.6c0-.4 0-.8-.1-1.2z" fill="#e7e126"/><g><path class="st2" d="M214.1 4.8h-1.2c-.6 0-1.2 0-1.7.1-.7 0-1.5.1-2.2.1-.5 0-1 .1-1.5.1-3.7.3-6.9.7-10.4 1.4-.3 0-.5.1-.8.1-.8.1-1.5.3-2.2.5l-1.5.3c-2.4.6-4.8 1.3-7.1 2.1-.9.3-1.8.7-2.6 1-.7.3-1.4.7-2.1 1l-.6.3-.6.3-3.6 2.1c-.3.2-.5.3-.8.4-.1.1-.2.1-.3.2-.2.1-.3.2-.3.3 0 .2.4.3 1.4.6l1.5.3h1.5c.4 0 .8-.1 1.2-.2.2-.1.4-.1.5-.2.6-.3 1.1-.6 1.6-1 .1-.1.3-.2.4-.3l.1-.1c.3-.2.6-.4.9-.7l.1-.1c.5-.4 1.1-.8 1.6-1.2.3-.2.7-.4 1.1-.6 2-1.1 4.2-2 6.5-2.8.6-.2 1.3-.4 2-.6 1.9-.5 3.8-1 5.8-1.5.4-.1.9-.2 1.3-.3.2-.1.4-.1.7-.2l2.7-.6c.7-.1 1.4-.3 2.1-.4 3-.5 6.1-.8 9.1-.7-.5.3-1.6.3-2.6.3"/></g><g><path class="st11" d="M217 5c-3-.1-6.1.2-9.1.7-.7.1-1.4.2-2.1.4l-2.7.6c-.2 0-.5.1-.7.2-.4.1-.9.2-1.3.3-2 .5-3.9 1-5.8 1.5-.7.2-1.3.4-2 .6-2.3.8-4.5 1.7-6.5 2.8-.4.2-.7.4-1.1.6-.6.3-1.1.7-1.6 1.2l-.1.1c-.3.2-.6.4-.8.7l-.1.1c-.1.1-.3.2-.4.3-.5.4-1 .7-1.6 1-.2.1-.3.1-.5.2-.4.1-.8.2-1.2.2h-1.5c-.5 0-1-.1-1.5-.3-1-.3-1.4-.5-1.4-.6s.1-.2.3-.3c.1 0 .2-.1.3-.2.2-.1.5-.3.8-.4l3.6-2.1.6-.3.6-.3c.7-.4 1.4-.7 2.1-1 .8-.4 1.7-.7 2.6-1 2.3-.8 4.7-1.5 7.1-2.1.5-.1 1-.2 1.5-.4.7-.2 1.5-.3 2.2-.5.3 0 .5-.1.8-.1 3.5-.7 6.7-1.1 10.4-1.4.5 0 1-.1 1.5-.1.7 0 1.4-.1 2.2-.1.6 0 1.1 0 1.7-.1H214.5c.6-.4 1.7-.4 2.5-.2m-9.4-1.8h-1.3c-3.6.1-7.2.4-10.7.9-.3 0-.7.1-1 .1h-.3l-1.3.2c-.2 0-.4.1-.7.1-.4.1-.9.2-1.3.3-.2 0-.4.1-.7.1-.2 0-.3.1-.5.1h-.2l-.3.1-.3.1c-.1 0-.2.1-.3.1-.2.1-.4.1-.6.2-.1 0-.2.1-.3.1l-1.4.5c-.2.1-.4.1-.6.2l-.6.2c-1.7.5-3.4 1.1-5 1.8-.4.2-.8.3-1.2.5-1.2.5-2.5 1.1-3.7 1.6l-1.2.6-1.2.6c-2.4 1.2-4.8 2.5-7.1 3.9-.6.3-1.2.7-1.7 1-.2.1-.4.2-.6.4l-2.3 1.4c-.4.2-.8.5-1.2.7-1.2.7-2.3 1.4-3.4 2.2-.4.2-.7.5-1.1.8-1.1.8-2.1 1.6-3.1 2.4l-.2.2c-.1.1-.3.2-.4.4-.5.5-1 1-1.5 1.6-.1.2-.3.3-.4.5-.1.2-.3.3-.4.5.2 0 .4.1.5.1.5.1.8.1 1.1.2.6-.1 1.1-.2 1.7-.3.3-.3.6-.5.9-.8.3-.2.5-.5.8-.7.4-.3.8-.7 1.2-1.1l1.8-1.5c.8-.6 1.8-1.2 2.7-1.8.1-.1.3-.1.4-.2.1 0 .2-.1.3-.1.6-.3 1.3-.6 1.9-.9l2.1-.9c.2-.1.3-.1.5-.2.3-.1.7-.2 1-.3.2-.1.5-.2.7-.2.1 0 .3-.1.4-.1 1.8-.5 3-.8 3-.8s-.1.2-.3.4c-.1.1-.1.2-.2.3 0 0 0 .1-.1.1-.1.1-.1.2-.2.3l-.1.1-.2.2c-.1.1-.1.2-.2.2l-.1.1c-.1.2-.3.3-.4.5-.1.1-.2.2-.2.3-.1.1-.2.2-.2.3l-.3.3c0 .1-.1.1-.1.2-.1.2-.3.3-.4.5 0 .1-.1.1-.1.2-.2.2-.4.5-.6.7-.2.2-.3.4-.5.5l-.2.2-.4.4c-.3.2-.5.5-.8.7l-.2.2c-.5.5-1.1 1-1.7 1.5-.2.2-.4.3-.5.5v.1c0 .1-.1.1-.1.2V27.3c0 .2.2.4.5.6.3.2.7.3 1.2.5.1 0 .2 0 .2.1 1.8.4 4.4.7 7.2.9h.4c.3 0 .6.1 1 .1h.8c.2 0 .4 0 .6.1H175.9c.2 0 .5.1.7.1h.5c.1 0 .2 0 .3.1.2 0 .4.1.6.1.1 0 .2 0 .3.1.1 0 .3.1.4.1 1.2.1 2.6 0 4-.2.6-.1 1.3-.2 1.9-.4.1 0 .2-.1.4-.1l1.8-.6c.1 0 .2-.1.3-.1.5-.2.9-.4 1.3-.6l.6-.3c.2-.1.4-.2.6-.4.1-.1.2-.1.3-.2 1.3-.9 2.5-1.9 3.8-2.9.3-.2.6-.5.8-.7.4-.4.9-.7 1.3-1.1 1.6-1.4 3.3-3 5.1-4.6.2-.1.3-.3.5-.4.3-.3.7-.6 1.1-.9.7-.6 1.5-1.2 2.3-1.9l.6-.6.4-.4.2-.2s.1 0 .1-.1c.1-.1.2-.2.3-.2l.3-.3.3-.3c.3-.3.7-.6 1-.8.2-.2.5-.4.7-.5.2-.2.5-.3.7-.5.4-.2.7-.5 1.1-.7.2-.2.5-.3.7-.5 1.3-.8 2.7-1.6 4-2.4l.7-.4.4-.2.4-.2c.4-.2.7-.4 1-.5.1-.1.3-.1.4-.2.1 0 .1-.1.2-.1.8-.3 1.6-.7 2.3-1 .2-.1.5-.2.7-.3h.1l.6-.3.2-.1.2-.1H219.8c-.4 0-.9-.1-1.3-.1s-.9-.1-1.3-.1c-1.8-.1-3.6-.1-5.4-.2h-2.7c-.6-.2-1.1-.2-1.5-.2"/></g><g><path class="st2" d="M225.1 110.1c-1.5-.8-3.9-1.7-6.6-2.1-9.3-1.6-20.6-4.4-28.2-7.7-5.3-2.3-10-5.6-14.1-9.6-2.5-2.4-4.3-5.9-7.2-8-.2-.1-2.5-2.1-2.7-2.2-1.5.4-3 .8-4.6 1.1-1.4.3-2.8.7-4.1 1 1.3.9 2.5 1.9 3.6 2.8 2.7 2.3 5.4 4.6 8.1 6.7 2.7 2.2 5.6 4.2 8.5 6.1l4.5 2.7c.8.4 1.5.8 2.3 1.2s1.5.8 2.3 1.1c3.2 1.4 6.5 2.5 9.9 3.3 3.4.9 6.9 1.5 10.3 2 3.5.5 7 .9 10.5 1.1 2.4.2 4.8.3 7.2.3.2.3.2.3.3.2"/></g><g><path class="st11" d="M176.1 72.6c-6.5 1.7-13 3.2-19.5 4.8-1.5.3-3 .7-4.5 1-.1.5-.1.9-.2 1.3h.1c.9.2 1.8.6 2.5.9.9.5 1.7 1 2.5 1.5.2.2.5.3.7.5 1.4-.3 2.8-.7 4.1-1 1.5-.4 3-.8 4.6-1.1.2.1 2.5 2.1 2.7 2.2 2.8 2.1 4.6 5.6 7.2 8 4.1 3.9 8.9 7.3 14.1 9.6 7.7 3.3 18.9 6.1 28.2 7.7 2.7.5 5.1 1.3 6.6 2.1h-.1 2.1c.1 0 .2-.1.3-.1-.3-.3-.6-.5-1-.6l-1.5-.6c-.5-.2-1.1-.3-1.6-.5-.1-.1-.3-.1-.4-.2-.1-.1-.3-.1-.4-.2-.2-.1-.5-.2-.7-.4-1-.5-2-.8-3.1-1.3-.5-.2-1-.4-1.5-.7-.3-.1-.5-.3-.7-.4l-.7-.4c-1.9-1.1-3.9-2.2-5.8-3.4-.9-.6-1.9-1.3-2.7-2l-.6-.6-.6-.6-.6-.6c-6.7-5.2-11-12.8-13.1-18-1.3-3.3-2.8-1.3-6.4-1.2-3.6.2-6.8 1-8.1.8-.6-.1-1.1-.2-1.1-.4-.1-.2.4-.6 1.8-1.2 2.6-1.2 14-5 14-5 .5-.2 10.8-4.1 14.1-5.3-.2-.9-.2-2-.1-2.9-7.1 2-25.1 6.9-30.6 8.3"/></g><g><path class="st11" d="M153 41.7c.1 1 .2 2 .2 3.1 0 .6.1 1.2.1 1.7.2 3.1.3 6.3.3 9.5 0 5.8-.3 11.4-.8 16.6 1.5-.3 3.1-.6 5-1 14.1-2.9 37.1-7.9 49.6-10.5.6-1.9.9-3.2 1-6.2v-.4c0-.8 0-1.4-.1-1.9-13.4.5-19.4.5-26.5-.2-5.2-.4-10.8-1-16.5-2.2l-11.5-2s-.2-2.9-.6-6.8v-.1c-.2.1-.2.3-.2.4"/></g><g><path class="st3" d="M152.6 74c-.2 1.5-.3 3-.5 4.4 1.5-.3 3-.7 4.5-1 6.5-1.5 13-3.1 19.5-4.8 5.5-1.4 23.5-6.4 30.4-8.2 0-.5.1-1 .2-1.4v-.1c.1-.4.3-.8.4-1.1.1-.3.2-.6.3-.8-12.9 2.7-35.7 7.6-49.6 10.5-1.8.4-3.5.7-5 1-.1.5-.1 1-.2 1.5"/></g><g><path d="M165.1 50.1c7.3 1.1 12.1 1.8 16.5 2.2 7.1.7 13.2.7 26.5.2-.1-1.7-.5-2.6-1-4-1-.1-2.3-.2-3.8-.3 0 0-.3-.1-.7-.1-2.3-.2-4.8-.4-6.8-.5-3-.3-6.2-.8-8.7-1.1l-3.9-.6c-10.1-1.4-20.3-2.5-30.3-4.6.4 3.9.6 6.8.6 6.8l11.6 2z" fill="#f39755"/></g><path class="st1" d="M211.6 3.2c1.8 0 3.6.1 5.4.2.4 0 .9 0 1.3.1.4 0 .9.1 1.3.1h2.6l-.2.1-.2.1-.6.3h-.1c-.2.1-.5.2-.7.3-.7.3-1.5.6-2.3 1-.1 0-.1.1-.2.1-.1.1-.3.1-.4.2-.3.2-.7.3-1 .5l-.4.2-.4.2-.7.4c-1.3.8-2.7 1.5-4 2.4-.2.2-.5.3-.7.5-.4.2-.7.5-1.1.7-.2.2-.5.3-.7.5s-.5.3-.7.5c-.4.3-.7.5-1 .8l-.3.3-.3.3-.2.2-.1.1-.2.2-.4.4-.6.6c-.8.6-1.5 1.2-2.3 1.9-.4.3-.7.6-1.1.9-.2.1-.3.3-.5.4-1.9 1.6-3.5 3.2-5.1 4.6-.4.4-.9.8-1.3 1.1-.3.2-.6.5-.8.7-1.3 1.1-2.5 2-3.8 2.9-.1.1-.2.1-.3.2-.2.1-.4.2-.6.4l-.6.3c-.4.2-.9.4-1.3.6-.1 0-.2.1-.3.1l-1.8.6c-.1 0-.2.1-.4.1-.6.2-1.2.3-1.9.4-1.4.2-2.7.3-4 .2-.1 0-.3-.1-.4-.1-.1 0-.2 0-.3-.1-.2 0-.4-.1-.6-.1-.1 0-.2 0-.3-.1h-.5c-.2 0-.5-.1-.7-.1h-1.6c-.2 0-.4 0-.6-.1h-.8c-.3 0-.6-.1-1-.1h-.4c-2.7-.3-5.4-.5-7.2-.9-.1 0-.2 0-.2-.1-.5-.1-.9-.3-1.2-.5s-.5-.4-.5-.6V27v-.2c0-.1.1-.1.1-.2v-.1l.5-.5c.6-.5 1.2-1 1.7-1.5l.2-.2c.3-.2.5-.5.8-.7l.4-.4.2-.2c.2-.2.3-.4.5-.5.2-.2.4-.5.6-.7.1-.1.1-.1.1-.2.1-.2.3-.3.4-.5 0-.1.1-.1.1-.2l.3-.3c.1-.1.2-.2.2-.3.1-.1.2-.2.2-.3.2-.2.3-.4.4-.5l.1-.1c.1-.1.1-.2.2-.2.1-.1.1-.2.2-.2l.1-.1c.1-.1.1-.2.2-.3 0 0 0-.1.1-.1.1-.1.1-.2.2-.3.2-.3.3-.4.3-.4s-1.2.3-3 .8c-.1 0-.3.1-.4.1-.2.1-.5.1-.7.2-.3.1-.6.2-1 .3-.2.1-.3.1-.5.2-.7.3-1.4.5-2.1.9-.6.3-1.3.6-1.9.9-.1 0-.2.1-.3.1-.1.1-.3.1-.4.2-.9.5-1.9 1.1-2.7 1.8-.7.5-1.3 1-1.8 1.5-.4.4-.9.7-1.2 1.1-.3.2-.6.5-.8.7-.3.3-.6.6-.9.8-.6.1-1.1.2-1.7.3-.7.1-1.3.2-2 .3.1-.2.3-.4.4-.6.1-.2.3-.4.4-.5s.3-.3.4-.5c.5-.5.9-1.1 1.5-1.6.1-.1.3-.2.4-.4l.2-.2c1-.9 2-1.7 3.1-2.4.4-.3.7-.5 1.1-.8 1.1-.7 2.2-1.5 3.4-2.2.4-.2.8-.5 1.2-.7l2.3-1.4c.2-.1.4-.2.6-.4.6-.4 1.2-.7 1.7-1 2.3-1.4 4.7-2.7 7.1-3.9l1.2-.6 1.2-.6c1.2-.6 2.4-1.1 3.7-1.6.4-.2.8-.3 1.2-.5 1.7-.7 3.3-1.3 5-1.8l.6-.2c.2-.1.4-.1.6-.2l1.3-.4c.1 0 .2-.1.3-.1.2-.1.4-.1.6-.2.1 0 .2-.1.3-.1l.3-.1.3-.1h.2c.2 0 .3-.1.5-.1s.4-.1.6-.1c.4-.1.9-.2 1.3-.3.2 0 .4-.1.7-.1l1.3-.2h.3c.3 0 .7-.1 1-.1 3.5-.5 7.1-.8 10.7-.9h2.6c1.2 0 2.1 0 3 .1M60 90.6h.3-.3M206.1.1c-3.7.1-7.4.5-11 1-.5.1-.9.1-1.4.2l-1.4.2c-.9.1-1.8.4-2.7.6-.2 0-.5.1-.7.2l-.7.2c-.4.1-.9.2-1.4.4l-1.3.4c-.2.1-.4.1-.7.2l-.7.2c-3.5 1.1-7 2.5-10.3 4.1s-6.6 3.4-9.7 5.3c-.8.5-1.6 1-2.3 1.4l-2.3 1.5c-1.5 1-3.1 1.9-4.6 3-1.4.9-2.8 2-4.1 3.1-3.1 2.4-1.8 2.8-5 5.1-.1.1-.2.2-.3.2 0 0-.1 0-.1.1-.5.3-1 .5-1.5.7H131c-.4-.1-.9-.1-1.3-.2H129.4c-.4-.1-.8-.1-1.2-.2h-.1-.1c-.5-.1-1-.2-1.4-.3-.5-.1-.9-.2-1.3-.3h-.2c-7.2-1.6-13.9-3.8-20.1-5.1h-.1c-.4-.1-.8-.2-1.2-.2h-.1c-.4-.1-.7-.1-1.1-.2h-.2c-.3-.1-.7-.1-1-.2h-.3c-.3 0-.6-.1-1-.1H99.7c-.3 0-.6-.1-.9-.1h-.2.2-.3-.1c-.3 0-.6 0-.9-.1H61.3c-3.7 0-16.9 2.5-26.2 8.1-1.7 1-3.5 2.1-5.3 3.3-.2.2-.5.3-.7.5-.5.3-1 .6-1.5 1-.2.2-.5.3-.7.5-.5.3-1 .7-1.5 1-.2.2-.5.3-.7.5-2.3 1.5-4.4 2.9-6.2 4.1-.2.1-.4.3-.6.4-2 1.4-3.4 2.4-4 2.8.2.2.4.5.6.9 0 .1.1.1.1.2s.1.2.1.3 0 .1.1.2c.1.4.2.7.2 1.1V47.4l.9-.6c.1-.1 12.5-8.7 21.6-14.2 8.7-5.2 21.1-7.6 24.3-7.6h34.7c5.2 0 11.2 1.7 17.6 3.4 8 2.2 17.1 4.7 27.1 4.7 3.7 0 7.1-.4 10.5-.9 0 0 0-.1.1-.1 1 3.5 1.7 9.1 1.8 9.7v.1c10 2.1 20.2 3.2 30.3 4.6l3.9.6c2.4.3 5.7.8 8.7 1.1 2 .2 4.5.4 6.8.5.4 0 .7 0 .7.1 1.5.1 2.8.2 3.8.3.5 1.4.8 2.3 1 4 0 .6.1 1.2.1 1.9V55.3c0 3-.3 4.3-1 6.2l-.3.8c-.1.3-.2.7-.4 1.1v.1c-.1.4-.2.8-.2 1.4-.1.9 0 2 .1 2.9-3.3 1.2-13.6 5.1-14.1 5.3 0 0-11.4 3.8-14 5-1.4.6-1.9 1-1.8 1.2.1.2.5.3 1.1.4 1.3.2 4.4-.7 8.1-.8 3.6-.2 5.1-2.1 6.4 1.2 2.1 5.2 6.5 12.8 13.1 18l.6.6.6.6.6.6c.9.7 1.8 1.4 2.7 2 1.9 1.2 3.8 2.3 5.8 3.4l.7.4c.2.1.5.3.7.4.5.3 1 .5 1.5.7 1 .4 2.1.8 3.1 1.3.2.1.5.2.7.4.1.1.3.1.4.2.1.1.3.1.4.2.5.2 1.1.4 1.6.5.5.2 1.1.3 1.5.6.4.2.7.4 1 .6-.1 0-.2.1-.3.1h-2.1-.1c-2.4 0-4.8-.1-7.2-.3-3.5-.2-7-.6-10.5-1.1s-6.9-1.2-10.3-2c-3.4-.9-6.7-1.9-9.9-3.3-.8-.4-1.6-.7-2.3-1.1-.8-.4-1.5-.8-2.3-1.2l-4.5-2.7c-2.9-1.9-5.7-4-8.5-6.1-2.7-2.2-5.4-4.5-8.1-6.7-1.2-1-2.4-1.9-3.6-2.8-.2-.2-.5-.3-.7-.5-.8-.5-1.6-1-2.5-1.5-.8-.4-1.6-.7-2.5-.9h-.2c-.1 0-.2 0-.4-.1-1-.2-1.9-.3-2.9-.4-2.5-.3-5.1-.5-7.8-.5-10 0-19.1 2.5-27.1 4.7-4.3 1.2-8.5 2.3-12.3 2.9-1.8.3-3.6.5-5.3.5H61.3c-1.1 0-3.2-.3-6-.8h-.1c-.4-.1-.9-.2-1.4-.3h-.2c-.6-.1-1.2-.3-1.9-.5-.6-.2-1.2-.3-1.8-.5-4.3-1.2-8.9-3-12.9-5.4-.3-.2-.6-.4-1-.6-1.1-.7-2.2-1.3-3.3-2.1-.2-.1-.4-.3-.6-.4-4.4-2.8-8.9-5.8-12.2-8-2.7-1.9-4.6-3.1-4.6-3.2l-.9-.6v1.4c0 .3 0 .5-.1.8-.1.2-.1.5-.2.7 0 .1-.1.1-.1.2l-.6.9c1.5 1.1 10.2 7.1 18.1 12 .4.2.8.5 1.2.7.4.2.8.5 1.1.7h.1c.4.2.7.5 1.1.7l2.7 1.5c.3.1.5.3.8.4.3.1.5.3.8.4.2.1.5.2.7.3.6.3 1.2.5 1.8.8.3.1.6.2.9.4 1.2.5 2.4.9 3.6 1.3l-.9-.3 1.8.6c.1 0 .2.1.3.1.2.1.3.1.5.2.9.3 1.8.5 2.6.7.5.1.9.2 1.4.3.2 0 .3.1.5.1s.4.1.6.1c.1 0 .2 0 .3.1.3.1.7.1 1 .2.1 0 .2 0 .3.1-.1 0-.2 0-.2-.1.1 0 .2 0 .2.1.3.1.5.1.8.2.3.1.5.1.8.1-.2 0-.5-.1-.8-.1.3.1.5.1.8.2.2 0 .5.1.7.1.6.1 1.1.2 1.6.2h.2c.2 0 .3 0 .4.1.4.1.8.1 1.2.1h35.7c.7 0 1.5 0 2.2-.1h.5c.3 0 .6-.1.8-.1.2 0 .4-.1.7-.1.2 0 .5-.1.7-.1.1 0 .2 0 .4-.1.5-.1 1-.2 1.5-.2l3-.6c.3-.1.5-.1.8-.2.3-.1.5-.1.8-.2.3-.1.5-.1.8-.2.3-.1.5-.1.8-.2.3-.1.5-.1.8-.2.7-.2 1.3-.3 2-.5 2.9-.8 5.9-1.7 9.1-2.5 1-.2 1.9-.5 2.9-.7 5.4-1.3 11-2.2 17.1-2.2 3.5 0 6.9.4 10.2.9.6.1 1.3.3 2 .6s1.4.7 2.1 1.2c1.1.7 2.1 1.4 3.1 2.2.4.3.7.5 1.1.8.2.1.4.3.5.4 2.6 2 5.2 4 7.9 6 2.9 2.1 5.9 4.1 9 5.9 1.5.9 3.1 1.8 4.7 2.6l2.4 1.2c.8.4 1.7.7 2.5 1.1 3.4 1.3 6.8 2.2 10.3 3 3.5.7 7 1.2 10.5 1.6 3.5.3 7.1.5 10.6.6 3.2.1 6.5 0 9.7-.1h.9l-.2-.3c-.4-.5-.9-.8-1.4-1.1s-1.1-.4-1.6-.6c-.5-.2-1.1-.3-1.5-.5-.1-.1-.2-.1-.4-.2-.1-.1-.2-.1-.4-.2s-.5-.3-.8-.4c-1-.5-2.1-.9-3.1-1.3-.5-.2-1-.5-1.5-.7-.2-.1-.5-.3-.7-.4l-.7-.4c-1.9-1.1-3.8-2.2-5.7-3.5-.9-.6-1.8-1.3-2.6-2l-.6-.6-.6-.6-.6-.6-.6-.6c-.8-.8-1.5-1.6-2.2-2.5-.2-.3-.5-.6-.7-.9l-1.2-1.8c-.5-.7-.9-1.5-1.3-2.3l-.3-.6-.8-1.5c-.3-.5-.5-1-.7-1.5-.2-.4-.3-.7-.5-1.1-.2-.5-.4-.9-.6-1.4-.2-.4-.4-.8-.6-1.3l4.9-1.7c2.5-.9 4.7-2.6 6-5 1.3-2.3 1.8-5.1 1.2-7.7-.3-1.3-.2-2.8 0-3.6.1-.4.2-.7.4-1.1.8-2.3 1.2-3.6 1.3-6.7v-1-.2-1.2c-.1-2.7-.5-3.9-1.2-5.7-.2-.5-.4-1-.6-1.7-.2-.8-.2-2.4 0-3.6.5-2.6.1-5.4-1.2-7.7s-3.5-4.1-6-5l-2.8-.9c.1-.3.3-.6.4-.9.2-.5.5-1 .7-1.4l.7-1.3.1-.1c.2-.4.4-.7.6-1.1.3-.6.7-1.2 1-1.7.6-.9 1.2-1.8 1.8-2.6l2.1-2.4c.4-.4.8-.8 1.1-1.2l.6-.6.3-.3.3-.3c.3-.3.7-.6 1.1-.9.5-.3.9-.7 1.4-1 1.8-1.2 3.7-2.3 5.6-3.4l.7-.4.4-.2.3-.2c.4-.2.9-.4 1.4-.7 1-.4 2-.8 3.1-1.3.3-.1.6-.3.8-.4l.2-.1.1-.1c.1 0 .2-.1.3-.1.4-.2.9-.3 1.4-.5s1.1-.4 1.8-.7c.2-.1.3-.2.5-.3l.2-.1c.1-.1.2-.1.2-.2.3-.2.6-.5.9-.9l.4-.5.9-1.1-1.8-.9c-.5-.3-1.1-.4-1.6-.6-.5-.1-1.1-.2-1.6-.2-1-.1-2-.1-2.9-.1h-2.6c-.9-.1-1.8-.1-2.8-.2-3.2-.6-6.9-.7-10.6-.5"/></svg>