<svg version="1.1" id="Layer_1" xmlns="http://www.w3.org/2000/svg" x="0" y="0" viewBox="0 0 173.6 112.2" xml:space="preserve"><style>.st0{fill:#e7e126}.st1{fill:#fff}</style><path class="st0" d="M116.1 18.6c-1.2-3.9-3.4-7.7-6.4-10.7C99.2-2.6 82-2.6 71.6 7.8 61.1 18.3 61 35.5 71.6 46c4.5 4.5 10.2 7 16.1 7.6v-8.7c-3.7-.6-7.2-2.2-10-5-7.2-7.2-7.2-18.7 0-25.9 7.1-7 18.6-7 25.8.2 1.3 1.3 2.5 3 3.3 4.5l-4.5.1 4.7 5.8 4.7 5.9 4.7-5.9 4.6-5.8-4.9-.2z"/><path class="st1" d="M30 74.9l-1.6-2.2H27v2.2h-1.1v-6.3h2.8c.4 0 .7 0 1 .1.3.1.5.2.7.4s.4.4.5.6c.1.2.2.5.2.8 0 .3 0 .5-.1.7-.1.2-.2.4-.3.5-.1.2-.3.3-.5.4l-.6.3 1.7 2.4H30zm-.4-5c-.2-.2-.6-.3-1-.3H27v2.1h1.6c.4 0 .7-.1.9-.3.2-.2.4-.5.4-.8 0-.3-.1-.5-.3-.7zM33.2 73.8c.2.2.5.3.9.3.3 0 .5 0 .7-.1s.4-.2.6-.4l.6.6c-.2.3-.5.5-.8.6-.3.1-.7.2-1.2.2-.3 0-.7-.1-1-.2-.3-.1-.6-.3-.8-.5s-.4-.5-.5-.8-.2-.6-.2-1c0-.3.1-.7.2-1 .1-.3.3-.6.5-.8.2-.2.5-.4.7-.5.3-.1.6-.2.9-.2.4 0 .7.1 1 .2.3.1.5.3.7.6.2.2.3.5.4.8.1.3.1.6.1 1V72.9h-3.5c.3.4.4.7.7.9zm1.9-1.6c0-.2-.1-.3-.1-.5-.1-.2-.1-.3-.2-.4-.1-.1-.2-.2-.4-.3h-.5c-.3 0-.6.1-.8.3-.2.2-.4.5-.4.9h2.4zM40.5 74.9v-.8c-.2.2-.4.5-.7.6-.3.2-.6.3-1 .3-.3 0-.6-.1-.8-.2-.3-.1-.5-.3-.7-.5-.2-.2-.4-.5-.5-.8-.1-.3-.2-.7-.2-1.1 0-.4.1-.7.2-1.1.1-.3.3-.6.5-.8.2-.2.4-.4.7-.5.3-.1.5-.2.8-.2.4 0 .7.1 1 .3.3.2.5.4.6.6v-2.6h1.1v6.6h-1zm-.1-3c-.1-.2-.2-.3-.3-.5-.1-.1-.3-.2-.4-.3-.2-.1-.4-.1-.5-.1-.2 0-.4 0-.5.1-.2.1-.3.2-.4.3-.1.1-.2.3-.3.5-.1.2-.1.4-.1.6 0 .2 0 .4.1.6.1.2.2.3.3.5.1.1.3.2.4.3s.3.1.5.1.4 0 .5-.1c.2-.1.3-.2.4-.3.1-.1.2-.3.3-.5.1-.2.1-.4.1-.6s0-.4-.1-.6zM45.7 70.2h1.1V75h-1.1v-.7c-.2.2-.3.4-.6.6-.2.2-.5.2-.9.2-.5 0-1-.2-1.2-.5-.3-.3-.4-.8-.4-1.3v-3h1.1V73c0 .4.1.7.3.9.2.2.4.3.7.3.3 0 .6-.1.8-.3.2-.2.3-.5.3-.9v-2.8zM51.2 74.8c-.3.2-.7.2-1.1.2-.4 0-.7-.1-1-.2-.3-.1-.6-.3-.8-.5-.2-.2-.4-.5-.5-.8s-.2-.6-.2-1c0-.3.1-.7.2-1 .1-.3.3-.6.5-.8.2-.2.5-.4.8-.5.3-.1.6-.2 1-.2.5 0 .8.1 1.1.2s.6.3.8.6l-.7.7c-.2-.2-.3-.3-.5-.4-.2-.1-.4-.2-.7-.2-.2 0-.4 0-.5.1s-.3.2-.4.3c-.1.1-.2.3-.3.5-.1.2-.1.4-.1.6 0 .2 0 .4.1.6.1.2.2.3.3.5.1.1.3.2.5.3.2.1.4.1.6.1.3 0 .5-.1.7-.2.2-.1.4-.3.6-.4l.7.6c-.5.5-.8.7-1.1.9zM52.6 69.4v-1h1.2v1h-1.2zm.1 5.5v-4.8h1.1v4.8h-1.1zM55.9 74.9h-1.1v-4.8h1.1v.7l.3-.3.3-.3c.1-.1.3-.1.4-.2.1 0 .3-.1.5-.1.5 0 1 .2 1.2.5.3.3.4.8.4 1.3v3h-1V72c0-.4-.1-.7-.3-.9-.2-.2-.4-.3-.7-.3-.3 0-.6.1-.8.3-.2.2-.3.5-.3.9v2.9zM64.1 75.8c-.4.4-1.1.6-1.9.6-.8 0-1.5-.2-2.1-.6l.4-.8c.3.2.5.3.8.4.3.1.6.1.9.1.5 0 .9-.1 1.1-.4s.4-.6.4-1.1v-.4c-.2.3-.4.5-.7.6-.3.2-.6.2-1 .2-.3 0-.6 0-.8-.1-.3-.1-.5-.2-.7-.4-.2-.2-.4-.4-.5-.7-.1-.3-.2-.6-.2-.9 0-.4.1-.7.2-.9.1-.3.3-.5.5-.7.2-.2.4-.3.7-.4.3-.1.5-.2.8-.2.4 0 .7.1 1 .2.3.2.5.4.7.6v-.7h1.1V74c-.1.8-.3 1.4-.7 1.8zm-.6-4c-.1-.2-.2-.3-.3-.4s-.3-.2-.4-.3c-.2-.1-.4-.1-.5-.1-.2 0-.4 0-.5.1s-.3.2-.4.3c-.1.1-.2.3-.3.4-.1.2-.1.3-.1.5s0 .4.1.5c.1.2.2.3.3.4s.3.2.4.3.3.1.5.1.4 0 .5-.1c.2-.1.3-.2.4-.3s.2-.3.3-.4.1-.3.1-.5c.1-.2 0-.4-.1-.5zM72.8 73.6c-.1.3-.3.6-.5.8-.2.2-.4.4-.7.5-.3.1-.5.1-.8.1-.4 0-.7-.1-1-.3s-.5-.4-.6-.6v2.2h-1.1v-6.2h1.1v.9c.2-.3.4-.5.6-.6s.6-.3 1-.3c.3 0 .6.1.8.2.3.1.5.3.7.5.2.2.4.5.5.8.1.3.2.7.2 1.1 0 .2-.1.6-.2.9zm-1-1.7c-.1-.2-.2-.3-.3-.5s-.3-.2-.4-.3-.4-.1-.6-.1c-.2 0-.4 0-.5.1s-.3.2-.4.3-.2.3-.3.5c-.1.2-.1.4-.1.6s0 .4.1.6c.1.2.2.3.3.5s.3.2.4.3.3.1.5.1.4 0 .5-.1.3-.2.4-.3.2-.3.3-.5c.1-.2.1-.4.1-.6s.1-.4 0-.6zM76.7 74.9v-.6c-.2.2-.4.4-.6.5-.3.1-.6.2-.9.2-.2 0-.4 0-.6-.1-.2-.1-.4-.2-.5-.3-.2-.1-.3-.3-.4-.5-.1-.2-.1-.4-.1-.6 0-.3 0-.5.1-.7.1-.2.2-.4.4-.5l.6-.3c.2-.1.5-.1.8-.1.3 0 .5 0 .7.1s.4.1.6.1V72c0-.3-.1-.6-.3-.8s-.5-.3-.9-.3c-.3 0-.5 0-.7.1-.2.1-.4.1-.6.2l-.3-.9c.3-.1.5-.2.8-.3.3-.1.6-.1 1-.1.7 0 1.2.2 1.6.5.3.4.5.8.5 1.5v2.8h-1.2zm0-2c-.1-.1-.3-.1-.5-.1s-.4-.1-.6-.1c-.3 0-.6.1-.8.2-.2.1-.3.3-.3.6 0 .2.1.4.3.5.2.1.4.2.7.2.2 0 .3 0 .5-.1.2 0 .3-.1.4-.2l.3-.3c.1-.1.1-.3.1-.4v-.3zM82 74.8c-.3.2-.7.2-1.1.2-.4 0-.7-.1-1-.2-.3-.1-.6-.3-.8-.5-.2-.2-.4-.5-.5-.8s-.2-.6-.2-1c0-.3.1-.7.2-1 .1-.3.3-.6.5-.8.2-.2.5-.4.8-.5.3-.1.6-.2 1-.2.5 0 .8.1 1.1.2s.6.3.8.6l-.7.7c-.2-.2-.3-.3-.5-.4-.2-.1-.4-.2-.7-.2-.2 0-.4 0-.5.1s-.3.2-.4.3c-.1.1-.2.3-.3.5-.1.2-.1.4-.1.6 0 .2 0 .4.1.6.1.2.2.3.3.5.1.1.3.2.5.3.2.1.4.1.6.1.3 0 .5-.1.7-.2.2-.1.4-.3.6-.4l.7.6c-.5.5-.8.7-1.1.9zM87.9 74.9h-1.3l-1.4-2.1-.7.7v1.4h-1.1v-6.6h1.1v3.9l2-2.1h1.3l-1.8 2 1.9 2.8z"/><path class="st1" d="M89.4 73.8c.2.2.5.3.9.3.3 0 .5 0 .7-.1s.4-.2.6-.4l.6.6c-.2.3-.5.5-.8.6-.3.2-.7.2-1.1.2-.3 0-.7-.1-1-.2s-.6-.3-.8-.5c-.2-.2-.4-.5-.5-.8s-.2-.6-.2-1c0-.3.1-.7.2-1s.3-.6.5-.8c.2-.2.5-.4.7-.5.3-.1.6-.2.9-.2.4 0 .7.1 1 .2.3.1.5.3.7.6.2.2.3.5.4.8.1.3.1.6.1 1V72.9h-3.5c.2.4.4.7.6.9zm2-1.6c0-.2-.1-.3-.1-.5-.1-.2-.1-.3-.2-.4-.1-.1-.2-.2-.4-.3h-.5c-.3 0-.6.1-.8.3-.2.2-.4.5-.4.9h2.4zM96.8 74.9v-.8c-.2.2-.4.5-.7.6-.3.2-.6.3-1 .3-.3 0-.6-.1-.8-.2-.3-.1-.5-.3-.7-.5-.2-.2-.4-.5-.5-.8-.1-.2-.1-.6-.1-1s.1-.7.2-1.1c.1-.3.3-.6.5-.8.2-.2.4-.4.7-.5.3-.1.5-.2.8-.2.4 0 .7.1 1 .3.3.2.5.4.6.6v-2.6h1.1v6.6h-1.1zm-.1-3c-.1-.2-.2-.3-.3-.5s-.3-.2-.4-.3c-.2-.1-.4-.1-.6-.1-.2 0-.4 0-.5.1-.2.1-.3.2-.4.3-.1.1-.2.3-.3.5-.1.2-.1.4-.1.6 0 .2 0 .4.1.6.1.2.2.3.3.5.1.1.3.2.4.3.2.1.3.1.5.1s.4 0 .5-.1c.2-.1.3-.2.4-.3s.2-.3.3-.5c.1-.2.1-.4.1-.6s.1-.4 0-.6z"/><g><path class="st1" d="M52.6 84.2c-.1.2-.2.3-.4.5s-.3.2-.6.3H51c-.3 0-.7-.1-1-.2-.4-.1-.7-.3-1-.5l.5-.7c.3.2.5.3.8.4.3.1.5.1.8.1.2 0 .4 0 .5-.1.1-.1.2-.2.2-.4 0-.1 0-.2-.1-.2l-.2-.2c-.1-.1-.2-.1-.3-.1s-.3-.1-.4-.1c-.2-.1-.3-.1-.5-.2s-.3-.2-.5-.3c-.1-.1-.3-.2-.3-.4-.1-.2-.1-.3-.1-.6 0-.2 0-.4.1-.6.1-.2.2-.3.4-.5.2-.1.3-.2.5-.3.2-.1.4-.1.7-.1.3 0 .6 0 .9.1.3.1.6.2.8.4l-.4.8c-.2-.1-.5-.2-.7-.3s-.5-.1-.6-.1c-.2 0-.4 0-.5.1s-.2.2-.2.3c0 .1 0 .2.1.2l.2.2c.1.1.2.1.3.1s.3.1.4.1c.2.1.3.1.5.2s.3.2.5.3c.1.1.3.2.3.4.1.1.1.3.1.5-.1.5-.1.7-.2.9zM53.5 79.4v-1h1.2v1h-1.2zm0 5.5v-4.8h1.1v4.8h-1.1zM55.6 81.1v-.9h4v.7L56.9 84h2.7v.9h-4.1v-.7l2.7-3.1h-2.6zM61.5 83.8c.2.2.5.3.9.3.3 0 .5 0 .7-.1s.4-.2.6-.4l.6.6c-.2.3-.5.5-.8.6-.3.2-.7.2-1.1.2-.3 0-.7-.1-1-.2-.3-.1-.6-.3-.8-.5s-.4-.5-.5-.8-.2-.6-.2-1c0-.3.1-.7.2-1 .1-.3.3-.6.5-.8.2-.2.5-.4.7-.5.3-.1.6-.2.9-.2.4 0 .7.1 1 .2.3.1.5.3.7.6.2.2.3.5.4.8.1.3.1.6.1 1V82.9h-3.5c.2.4.4.7.6.9zm2-1.6c0-.2-.1-.3-.1-.5-.1-.2-.1-.3-.2-.4-.1-.1-.2-.2-.4-.3h-.5c-.3 0-.6.1-.8.3-.2.2-.4.5-.4.9h2.4zM72.4 83.6c-.1.3-.3.6-.5.8-.2.2-.4.4-.7.5-.3.1-.5.1-.8.1-.4 0-.7-.1-1-.3-.3-.2-.5-.4-.6-.6v.7h-1.1v-6.6h1.1V81c.2-.3.4-.5.6-.6.3-.2.6-.3 1-.3.3 0 .6.1.8.2.3.1.5.3.7.5.2.2.4.5.5.8.1.3.2.7.2 1.1 0 .2-.1.6-.2.9zm-1-1.7c-.1-.2-.2-.3-.3-.5-.1-.1-.3-.2-.4-.3s-.4-.1-.6-.1c-.2 0-.4 0-.5.1s-.3.2-.4.3-.2.3-.3.5c-.1.2-.1.4-.1.6s0 .4.1.6c.1.2.2.3.3.5s.3.2.4.3.3.1.5.1.4 0 .5-.1.3-.2.4-.3c.1-.1.2-.3.3-.5.1-.2.1-.4.1-.6s.1-.4 0-.6zM75.7 85c-.1.2-.2.5-.3.6-.1.2-.2.3-.3.4-.1.1-.3.2-.4.2-.2 0-.3.1-.5.1s-.4 0-.6-.1c-.2-.1-.3-.1-.5-.2l.4-.8c.1.1.2.1.3.1h.3c.2 0 .3 0 .4-.1.1-.1.2-.2.3-.4l-2-4.7H74l1.4 3.5 1.2-3.5h1.1l-2 4.9zM80.4 78.6h4.4v.8L82 84.9h-1.2l2.8-5.3h-3.2v-1zM90.6 83c-.1.4-.3.7-.6 1s-.5.5-.9.7c-.3.2-.7.3-1.1.3s-.8-.1-1.1-.3c-.3-.2-.6-.4-.9-.7s-.4-.6-.6-1c-.1-.4-.2-.8-.2-1.3s.1-.9.2-1.3.3-.7.6-1c.2-.3.5-.5.9-.7.3-.2.7-.3 1.1-.3s.8.1 1.1.3.6.4.9.7.4.6.6 1c.1.4.2.8.2 1.3s-.1.9-.2 1.3zm-1.1-2.1c-.1-.3-.2-.5-.3-.7-.1-.2-.3-.4-.5-.5-.2-.1-.4-.2-.7-.2s-.5.1-.7.2c-.2.1-.4.3-.5.5-.1.2-.2.4-.3.7-.1.3-.1.6-.1.9 0 .3 0 .6.1.9.1.3.2.5.3.7s.3.4.5.5c.2.1.5.1.7.1s.5-.1.7-.2.4-.3.5-.5.2-.4.3-.7c.1-.3.1-.6.1-.9 0-.2 0-.5-.1-.8zM94.2 80.8c-.1.2-.2.4-.3.5-.1.1-.3.3-.5.4-.2.1-.4.1-.6.1-.2 0-.4 0-.6-.1-.2-.1-.3-.2-.5-.3-.1-.1-.2-.3-.3-.5-.1-.2-.1-.4-.1-.6 0-.2 0-.4.1-.6.1-.2.2-.4.3-.5.1-.1.3-.3.5-.4s.4-.1.6-.1.4 0 .6.1c.2.1.3.2.5.3s.2.3.3.5c.1.2.1.4.1.6 0 .2 0 .4-.1.6zm-1.3 4.1H92l4.6-6.3h.9l-4.6 6.3zm.4-5.4c-.1-.2-.3-.3-.5-.3s-.4.1-.5.3c-.1.2-.2.4-.2.6 0 .3.1.5.2.7s.3.3.5.3.4-.1.5-.3.2-.4.2-.6c0-.3-.1-.5-.2-.7zM98 84c-.1.2-.2.4-.3.5-.1.1-.3.3-.5.4-.2 0-.4.1-.6.1s-.4 0-.6-.1c-.2-.1-.3-.2-.5-.3s-.2-.3-.3-.5c-.1-.2-.1-.4-.1-.6 0-.2 0-.4.1-.6.1-.2.2-.4.3-.5.1-.1.3-.3.5-.4.2-.1.4-.1.6-.1.2 0 .4 0 .6.1.2.1.3.2.5.3.1.1.2.3.3.5.1.2.1.4.1.6 0 .2 0 .4-.1.6zm-.9-1.3c-.1-.2-.3-.3-.5-.3s-.4.1-.5.3-.2.4-.2.6c0 .3.1.5.2.7.1.2.3.3.5.3s.4-.1.5-.3c.1-.2.2-.4.2-.6 0-.3-.1-.5-.2-.7z"/></g><g><path class="st1" d="M173.6 73.6c0-6.6-4.1-12.4-10.3-14.5-.9-6.3-6.2-10.9-12.6-10.9-2.8 0-5.5.9-7.7 2.6-2.6-1.8-5.9-2.8-9-2.8-2.4 0-4.7.5-6.9 1.6l-.1.1v4.7l.3-.2c2-1.3 4.3-2.1 6.7-2.1 2.9 0 5.6 1 7.8 2.9l.5.4c.5.5 1.4.4 1.9-.1l.4-.5c1.6-1.7 3.8-2.6 6.1-2.6 4.6 0 8.5 3.8 8.6 8.4v.6c0 .6.4 1.1 1 1.3l.5.1c5.1 1.2 8.6 5.7 8.6 10.9 0 2.7-1 5.4-2.8 7.4l-.2.3c-.3.3-.4.8-.3 1.2l.1.3c.1.4.1.8.1 1.2 0 3.1-2.6 5.7-5.7 5.7-.8 0-1.6-.2-2.3-.5l-.5-.2c-.6-.3-1.3-.1-1.7.5l-.3.5c-1.6 2.4-4.3 3.8-7.2 3.8-1 0-2.1-.2-3.1-.6l-.3-.1v4.3h.2c1.1.3 2.1.4 3.2.4 3.6 0 7.2-1.6 9.6-4.4.8.2 1.6.3 2.4.3 5.4 0 9.8-4.4 9.8-9.8 0-.3 0-.7-.1-1.1 2.2-2.4 3.3-5.7 3.3-9.1zM132.2 94.3c-2.1 0-4.1-.8-5.6-2.3-1.5-1.5-2.3-3.6-2.3-5.7v-.6c0-.7-.5-1.3-1.2-1.4l-.6-.1c-5.2-.7-9.1-5.3-9.1-10.5 0-1.8.5-3.6 1.4-5.2l.2-.3h-4.6l-.1.1c-.7 1.7-1 3.6-1 5.4 0 6.7 4.5 12.5 10.9 14.2.8 6 5.9 10.5 12 10.5 1.8 0 3.6-.4 5.3-1.2l.1-.1v-4.9l-.5.4c-1.4 1-3.1 1.7-4.9 1.7z"/></g><g><path class="st1" d="M5.1 38.3H7c.1 0 .1 0 .2-.1l5-12V26l-.1-.1H9.7c-.1 0-.1 0-.2.1l-3.4 8.8L2.7 26c0-.1-.1-.1-.2-.1H.2c-.1 0-.1 0-.1.1v.2l5 12c-.1.1 0 .1 0 .1zM16.8 38.1c0 .1.1.2.2.2h2c.1 0 .2-.1.2-.2v-5.3c0-1.2-.3-2.2-1-2.9-.7-.7-1.7-1.1-3.1-1.1-.8 0-1.4.1-1.9.2s-1.1.3-1.6.6c-.1 0-.1.1-.1.2l.6 1.7s0 .1.1.1h.1c.4-.2.8-.3 1.2-.4.4-.1.8-.1 1.3-.1.7 0 1.2.2 1.5.5.3.3.5.7.5 1.3-.3-.1-.6-.2-.9-.2-.4-.1-.9-.1-1.4-.1-.5 0-1 .1-1.5.2s-.9.3-1.2.6c-.3.3-.6.6-.8 1-.2.4-.3.8-.3 1.4 0 .5.1.9.3 1.3.2.4.4.7.7.9.3.2.7.4 1.1.6.4.1.8.2 1.3.2.7 0 1.3-.1 1.8-.4.3-.2.7-.4.9-.6v.3zm-2.2-1.6c-.5 0-.8-.1-1.1-.3-.3-.2-.4-.5-.4-.9s.2-.7.5-.9c.3-.2.8-.3 1.4-.3.4 0 .8 0 1.1.1.3.1.6.1.8.2v.4c0 .3-.1.5-.2.7-.1.2-.3.4-.5.5-.2.2-.4.3-.7.4-.2.1-.5.1-.9.1zM21.1 37c.4.4 1 .8 1.5 1 .6.3 1.2.4 1.9.4.9 0 1.7-.2 2.3-.5.6-.3 1.1-.7 1.6-1.3.1-.1.1-.2 0-.2l-1.2-1.2c-.1-.1-.2-.1-.2 0-.3.3-.7.6-1 .8-.3.2-.7.3-1.2.3-.4 0-.7-.1-1-.2-.3-.1-.6-.3-.8-.6-.2-.2-.4-.5-.5-.9-.1-.3-.2-.7-.2-1.1 0-.4.1-.7.2-1.1.1-.3.3-.6.5-.9.2-.2.5-.4.8-.6.3-.1.6-.2 1-.2.5 0 .9.1 1.2.3.3.2.7.5 1 .8l.1.1s.1 0 .1-.1l1.3-1.4c.1-.1.1-.2 0-.2-.4-.5-.9-.9-1.5-1.2-.6-.3-1.3-.4-2.2-.4-.7 0-1.3.1-1.9.4-.6.3-1.1.6-1.5 1.1-.4.4-.8 1-1 1.6-.2.6-.4 1.2-.4 1.9s.1 1.3.4 1.9c-.1.5.3 1.1.7 1.5z"/><path class="st1" d="M33.9 37.9c.3-.2.6-.5.8-.8v.9c0 .1.1.2.2.2H37c.1 0 .2-.1.2-.2v-9c0-.1-.1-.2-.2-.2h-2.1c-.1 0-.2.1-.2.2v5.1c0 .7-.2 1.2-.5 1.5-.3.4-.8.5-1.3.5-.6 0-1-.2-1.3-.5-.3-.3-.5-.9-.5-1.5V29c0-.1-.1-.2-.2-.2h-2.1c-.1 0-.2.1-.2.2v5.7c0 1.1.3 2 .9 2.6.6.7 1.4 1 2.5 1 .8.1 1.4-.1 1.9-.4zM46.5 28.9h-2.1c-.1 0-.2.1-.2.2v5.1c0 .7-.2 1.2-.5 1.5-.3.4-.8.5-1.3.5-.6 0-1-.2-1.3-.5-.3-.3-.5-.9-.5-1.5V29c0-.1-.1-.2-.2-.2h-2.1c-.1 0-.2.1-.2.2v5.7c0 1.1.3 2 .9 2.6.6.7 1.4 1 2.5 1 .7 0 1.3-.2 1.8-.5.3-.2.6-.5.8-.8v.9c0 .1.1.2.2.2h2.1c.1 0 .2-.1.2-.2v-9h-.1zM56 38.1V33c0-.7.2-1.2.5-1.5.3-.3.7-.5 1.3-.5.5 0 .9.2 1.2.5.3.3.4.9.4 1.5v5.1c0 .1.1.2.2.2h2.1c.1 0 .2-.1.2-.2v-5.7c0-1.1-.3-2-.9-2.7-.6-.6-1.4-1-2.4-1-.7 0-1.3.2-1.9.5-.4.3-.8.6-1.2 1-.2-.4-.6-.7-1-1-.5-.3-1.1-.5-1.7-.5-.4 0-.7 0-1 .1-.3.1-.6.2-.8.4-.2.2-.4.3-.6.5l-.2.2V29c0-.1-.1-.2-.2-.2h-2c-.1 0-.2.1-.2.2v9c0 .1.1.2.2.2h2c.1 0 .2-.1.2-.2v-5c0-.7.2-1.2.5-1.5.3-.4.7-.5 1.3-.5.5 0 .9.2 1.2.5.3.3.4.8.4 1.5v5.1c0 .1.1.2.2.2h2.1c.1-.1.1-.2.1-.2zM7.8 47.1c-1.2 0-2.2.1-3.1.3-.8.3-1.7.6-2.5 1-.1.1-.2.2-.2.3l1 2.6c0 .1.1.1.2.2h.2c.6-.2 1.2-.5 1.8-.6.6-.2 1.3-.2 2.1-.2 1.1 0 1.9.2 2.4.7.5.5.8 1.1.8 2-.5-.1-.9-.2-1.4-.3-.6-.1-1.4-.2-2.3-.2-.9 0-1.7.1-2.4.3-.7.2-1.4.5-1.9.9-.6.4-1 .9-1.3 1.5-.2.7-.4 1.4-.4 2.3 0 .8.2 1.5.5 2 .3.6.7 1.1 1.2 1.5.5.4 1.1.7 1.7.9.6.2 1.3.3 2 .3 1.1 0 2.1-.2 2.9-.6.6-.3 1-.6 1.5-1v1c0 .2.1.3.3.3h3.3c.2 0 .3-.1.3-.3v-8.5c0-2-.5-3.6-1.6-4.7-1.2-1.1-2.9-1.7-5.1-1.7zm-.7 12.5c-.7 0-1.3-.2-1.8-.5s-.7-.8-.7-1.4c0-.7.2-1.1.7-1.5.5-.4 1.3-.5 2.3-.5.6 0 1.2.1 1.8.2.5.1.9.2 1.3.3v.7c0 .4-.1.8-.3 1.1-.2.3-.4.6-.7.9-.3.1-.7.3-1.1.4-.5.2-1 .3-1.5.3zM24.1 47.1c-.6 0-1.1.1-1.6.2s-.9.3-1.3.6c-.4.2-.7.5-1 .9l-.3.3v-1.4c0-.2-.1-.3-.3-.3h-3.3c-.2 0-.3.1-.3.3V62c0 .2.1.3.3.3h3.3c.2 0 .3-.1.3-.3v-8.1c0-1 .3-1.9.8-2.4.5-.6 1.2-.8 2.1-.8.9 0 1.6.3 2 .8.5.6.7 1.4.7 2.4V62c0 .2.1.3.3.3h3.3c.2 0 .3-.1.3-.3v-9.1c0-1.8-.5-3.2-1.4-4.2-.8-1.1-2.2-1.6-3.9-1.6zM45.6 41.9h-3.3c-.2 0-.3.1-.3.3v7c-.4-.5-1-.9-1.5-1.3-.8-.5-1.9-.8-3.1-.8-.9 0-1.8.2-2.6.5s-1.6.9-2.2 1.5c-.6.7-1.2 1.5-1.5 2.4-.4 1-.6 2.1-.6 3.3s.2 2.3.6 3.3c.4 1 .9 1.8 1.6 2.4.6.7 1.4 1.2 2.2 1.5.8.3 1.7.5 2.6.5 1.2 0 2.2-.3 3.1-.8.6-.4 1.1-.8 1.5-1.3V62c0 .2.1.3.3.3h3.3c.2 0 .3-.1.3-.3V42.1c-.1-.1-.3-.2-.4-.2zM42 54.8c0 .7-.1 1.3-.3 1.8-.2.5-.5 1-.9 1.4-.4.4-.8.7-1.2.9-1 .4-2 .4-2.9 0-.5-.2-.9-.5-1.2-.9-.4-.4-.6-.8-.8-1.4-.2-.5-.3-1.2-.3-1.8 0-.7.1-1.3.3-1.8.2-.5.5-1 .8-1.4.4-.4.8-.7 1.2-.8.5-.2 1-.3 1.5-.3s1 .1 1.5.3c.5.2.9.5 1.2.9.4.4.6.8.9 1.4.1.5.2 1.1.2 1.7zM62.8 51.1c.2 0 .3-.1.3-.3v-3.5c0-.2-.1-.3-.3-.3-1.3-.1-2.5.3-3.3 1-.6.5-1.1 1-1.5 1.7v-2.1c0-.2-.1-.3-.3-.3h-3.3c-.2 0-.3.1-.3.3V62c0 .2.1.3.3.3h3.3c.2 0 .3-.1.3-.3v-5.5c0-.9.1-1.7.3-2.4.2-.7.5-1.2.9-1.7.4-.4.9-.8 1.4-1 .6-.2 1.2-.3 1.9-.3h.3zM76 49.3c-.7-.7-1.5-1.3-2.5-1.7-1-.4-2-.6-3.2-.6-1.1 0-2.2.2-3.2.6-1 .4-1.8 1-2.5 1.7s-1.3 1.5-1.7 2.5c-.4.9-.6 2-.6 3 0 1.1.2 2.1.6 3 .4.9.9 1.8 1.7 2.5.7.7 1.6 1.3 2.5 1.7 1 .4 2 .6 3.1.6s2.2-.2 3.2-.6c1-.4 1.8-1 2.5-1.7s1.3-1.5 1.7-2.5c.4-.9.6-2 .6-3s-.2-2.1-.6-3c-.4-.9-.9-1.8-1.6-2.5zm-7.4 9.6c-.5-.2-.9-.5-1.3-.9s-.6-.9-.8-1.4c-.2-.5-.3-1.1-.3-1.7 0-.6.1-1.2.3-1.7.2-.5.5-1 .8-1.4.4-.4.8-.7 1.3-.9.5-.2 1-.3 1.7-.3s1.2.1 1.7.3c.5.2.9.5 1.3.9s.7.9.9 1.4c.2.5.3 1.1.3 1.7 0 .6-.1 1.2-.3 1.7-.2.5-.5 1-.8 1.4-.3.4-.8.7-1.3.9-1.1.4-2.4.4-3.5 0zM83 41.9h-3.3c-.2 0-.3.1-.3.3V62c0 .2.1.3.3.3H83c.2 0 .3-.1.3-.3V42.1c0-.1-.1-.2-.3-.2zM89.1 41.9h-3.3c-.2 0-.3.1-.3.3V62c0 .2.1.3.3.3h3.3c.2 0 .3-.1.3-.3V42.1c-.1-.1-.2-.2-.3-.2zM103.2 49.5c-.6-.7-1.4-1.3-2.2-1.8-.9-.4-2-.7-3.1-.7s-2.1.2-3 .6c-.9.4-1.7 1-2.3 1.7-.6.7-1.2 1.5-1.5 2.5-.4.9-.5 2-.5 3 0 1.2.2 2.2.6 3.2.4.9.9 1.8 1.6 2.4.7.7 1.5 1.2 2.4 1.6.9.4 1.9.6 3 .6 1.4 0 2.6-.3 3.5-.8 1-.5 1.8-1.2 2.6-2 .1-.1.1-.3 0-.4l-1.9-1.7c-.1-.1-.3-.1-.4 0-.6.5-1.1 1-1.7 1.2-.6.3-1.2.4-2 .4-1 0-1.8-.3-2.5-.9-.6-.5-1-1.3-1.3-2.2h10.2c.1 0 .3-.1.3-.3v-.5-.5c0-1.1-.2-2.1-.4-3.1-.4-.7-.8-1.6-1.4-2.3zm-8.8 4c.2-.9.5-1.7 1.1-2.3.6-.6 1.4-1 2.3-1 .5 0 1 .1 1.3.3.4.2.7.4 1 .7.3.3.5.7.7 1.1.1.3.2.7.3 1.1h-6.7zM120.4 41.9h-3.3c-.2 0-.3.1-.3.3v7c-.4-.5-1-.9-1.5-1.3-.8-.5-1.9-.8-3.1-.8-.9 0-1.8.2-2.6.5s-1.6.9-2.2 1.5c-.6.7-1.2 1.5-1.5 2.4-.4 1-.6 2.1-.6 3.3s.2 2.3.6 3.3c.4 1 .9 1.8 1.6 2.4.6.7 1.4 1.2 2.2 1.5.8.3 1.7.5 2.6.5 1.2 0 2.2-.3 3.1-.8.6-.4 1.1-.8 1.5-1.3V62c0 .2.1.3.3.3h3.3c.2 0 .3-.1.3-.3V42.1c-.1-.1-.2-.2-.4-.2zm-3.6 12.9c0 .7-.1 1.3-.3 1.8-.2.5-.5 1-.9 1.4-.4.4-.8.7-1.2.9-1 .4-2 .4-2.9 0-.5-.2-.9-.5-1.2-.9-.4-.4-.6-.8-.8-1.4-.2-.5-.3-1.1-.3-1.8s.1-1.3.3-1.8c.2-.5.5-1 .8-1.4.4-.4.8-.7 1.2-.8.5-.2 1-.3 1.5-.3s1 .1 1.5.3c.5.2.9.5 1.2.9.4.4.6.8.9 1.4.1.4.2 1.1.2 1.7zM67 41h2.1s.1 0 .1-.1.1-.1.1-.1v-3.6c.3.3.6.5.9.8.5.3 1.2.5 1.9.5.6 0 1.1-.1 1.6-.3.5-.2 1-.5 1.4-1 .4-.4.7-.9 1-1.5.2-.6.4-1.3.4-2.1s-.1-1.5-.4-2.1c-.2-.6-.6-1.1-1-1.5-.4-.4-.9-.7-1.4-1-.5-.2-1.1-.3-1.6-.3-.8 0-1.4.2-1.9.5-.4.2-.7.5-1 .8v-1c0-.1-.1-.2-.2-.2h-2c-.1 0-.2.1-.2.2v11.7c0 .2.1.3.2.3zm2.2-7.5c0-.4.1-.8.2-1.1.1-.3.3-.6.5-.9.2-.2.5-.4.8-.5.3-.1.6-.2.9-.2.3 0 .6.1.9.2s.5.3.8.5c.2.2.4.5.5.9.1.3.2.7.2 1.1s-.1.8-.2 1.1c-.1.3-.3.6-.5.9-.2.2-.5.4-.8.5-.6.3-1.3.3-1.9 0-.3-.1-.6-.3-.8-.5-.2-.2-.4-.5-.5-.9 0-.3-.1-.6-.1-1.1zM80.9 28.7c-.8 0-1.4.1-1.9.2s-1.1.3-1.6.6c-.1 0-.1.1-.1.2l.6 1.7s0 .1.1.1h.1c.4-.2.8-.3 1.2-.4.4-.1.8-.1 1.3-.1.7 0 1.2.2 1.5.5.3.3.5.7.5 1.3-.3-.1-.6-.2-.9-.2-.4-.1-.9-.1-1.4-.1-.5 0-1 .1-1.5.2s-.9.3-1.2.6c-.3.3-.6.6-.8 1-.2.4-.3.8-.3 1.4 0 .5.1.9.3 1.3.2.4.4.7.7.9.3.2.7.4 1.1.6.4.1.8.2 1.3.2.7 0 1.3-.1 1.8-.4.3-.2.7-.4.9-.6v.7c0 .1.1.2.2.2h2c.1 0 .2-.1.2-.2v-5.3c0-1.2-.3-2.2-1-2.9-.6-1.1-1.7-1.5-3.1-1.5zm-.4 7.8c-.5 0-.8-.1-1.1-.3-.3-.2-.4-.5-.4-.9s.2-.7.5-.9c.3-.2.8-.3 1.4-.3.4 0 .8 0 1.1.1.3.1.6.1.8.2v.4c0 .3-.1.5-.2.7-.1.2-.3.4-.5.5-.2.2-.4.3-.7.4-.3.1-.6.1-.9.1zM94.3 36.7c.1-.1.1-.2 0-.2L93 35.2c-.1-.1-.2-.1-.2 0-.3.3-.7.6-1 .8-.3.2-.7.3-1.2.3-.4 0-.7-.1-1-.2-.3-.1-.6-.3-.8-.6-.2-.2-.4-.5-.5-.9-.1-.3-.2-.7-.2-1.1 0-.4.1-.7.2-1.1.1-.3.3-.6.5-.9.2-.2.5-.4.8-.6.3-.1.6-.2 1-.2.5 0 .9.1 1.2.3.3.2.7.5 1 .8l.1.1s.1 0 .1-.1l1.3-1.4c.1-.1.1-.2 0-.2-.4-.5-.9-.9-1.5-1.2-.6-.3-1.3-.4-2.2-.4-.7 0-1.3.1-1.9.4-.6.3-1.1.6-1.5 1.1-.4.4-.8 1-1 1.6-.2.6-.4 1.2-.4 1.9s.1 1.3.4 1.9c.2.6.6 1.1 1 1.5.4.4.9.8 1.5 1 .6.3 1.2.4 1.9.4.9 0 1.7-.2 2.3-.5.4-.3.9-.7 1.4-1.2zM94.9 38.2H97c.1 0 .2-.1.2-.2v-2.5l1.1-1.1 2.6 3.7.1.1h2.4c.1 0 .1 0 .2-.1v-.2l-3.6-5.2 3.5-3.6c0-.1.1-.1 0-.2 0-.1-.1-.1-.2-.1h-2.5s-.1 0-.1.1l-3.4 3.7v-7c0-.1-.1-.2-.2-.2H95c-.1 0-.2.1-.2.2v12.5c-.1 0 0 .1.1.1z"/><path class="st1" d="M102.6 33.6c0 .7.1 1.4.4 2 .2.6.6 1.1 1 1.5s.9.8 1.5 1c.6.2 1.2.4 1.9.4.9 0 1.6-.2 2.2-.5.6-.3 1.2-.7 1.6-1.3.1-.1.1-.2 0-.2l-1.2-1.1c-.1-.1-.2-.1-.2 0-.3.3-.7.6-1.1.8-.3.2-.8.3-1.3.3-.6 0-1.2-.2-1.6-.5-.4-.3-.7-.8-.8-1.4h6.4c.1 0 .2-.1.2-.2v-.3-.3c0-.7-.1-1.3-.3-1.9-.2-.6-.5-1.2-.8-1.6-.4-.5-.8-.8-1.4-1.1s-1.2-.4-2-.4c-.7 0-1.3.1-1.8.4-.6.3-1 .6-1.4 1.1-.4.4-.7 1-.9 1.5-.2.5-.4 1.1-.4 1.8zm2.5-.9c.1-.6.3-1 .7-1.4.4-.4.9-.6 1.4-.6.3 0 .6.1.8.2.2.1.5.3.6.5.2.2.3.4.4.7.1.2.1.4.2.7h-4.1zM121.4 25.4h-2.1c-.1 0-.2.1-.2.2V30c-.3-.3-.6-.6-1-.8-.5-.3-1.2-.5-1.9-.5-.6 0-1.1.1-1.6.3-.5.2-1 .5-1.4 1-.4.4-.7.9-1 1.5-.2.6-.4 1.3-.4 2.1s.1 1.5.4 2.1c.2.6.6 1.1 1 1.5.4.4.9.7 1.4 1 .5.2 1.1.3 1.6.3.8 0 1.4-.2 1.9-.5.4-.2.7-.5 1-.8v1c0 .1.1.2.2.2h2.1c.1 0 .2-.1.2-.2V25.6c-.1-.1-.1-.2-.2-.2zm-2.3 8.1c0 .4-.1.8-.2 1.1-.1.3-.3.6-.5.9-.2.2-.5.4-.8.5-.6.3-1.3.2-1.8 0-.3-.1-.5-.3-.8-.5-.2-.2-.4-.5-.5-.9-.1-.3-.2-.7-.2-1.1 0-.4.1-.8.2-1.2.1-.3.3-.6.5-.9.2-.2.5-.4.8-.5.3-.1.6-.2.9-.2.3 0 .6.1.9.2.3.1.6.3.8.5.2.2.4.5.5.9.2.5.2.8.2 1.2z"/></g><g><path class="st0" d="M136 76.6c-.2-.2-.5-.2-.7 0-.6.6-1.3 1.1-1.9 1.4-.6.3-1.4.5-2.2.5-.7 0-1.3-.1-1.9-.4-.6-.3-1.1-.6-1.5-1.1-.4-.5-.8-1-1-1.6-.2-.6-.4-1.3-.4-2.1 0-.7.1-1.4.4-2.1.2-.6.6-1.2 1-1.6.4-.5.9-.8 1.5-1.1.6-.3 1.2-.4 1.9-.4.9 0 1.6.2 2.2.5.6.3 1.2.8 1.8 1.3.1.1.2.1.4.1.1 0 .3-.1.4-.2l1.1-1.1c.2-.2.2-.5 0-.7-.4-.3-.7-.7-1.1-.9-.4-.3-.8-.5-1.3-.7-.5-.2-1-.4-1.5-.5-.5-.1-1.1-.2-1.8-.2-1.1 0-2.1.2-3 .6-.9.4-1.7 1-2.4 1.6-.7.7-1.2 1.5-1.5 2.4-.4.9-.6 1.9-.6 3s.2 2.1.6 3c.4.9.9 1.7 1.6 2.4.7.7 1.4 1.2 2.3 1.6.9.4 1.9.6 3 .6.7 0 1.3-.1 1.8-.2s1.1-.3 1.5-.5c.5-.2.9-.5 1.3-.8.4-.3.8-.7 1.2-1 .2-.2.2-.5 0-.7l-1.2-1.1z"/></g><g><path class="st0" d="M149.7 67.9c-.7-.7-1.5-1.3-2.4-1.7-.9-.4-2-.6-3.1-.6s-2.1.2-3.1.6c-.9.4-1.7 1-2.4 1.7s-1.2 1.5-1.5 2.4c-.4.9-.5 1.9-.5 2.9s.2 2 .5 2.9c.4.9.9 1.7 1.5 2.4.7.7 1.5 1.3 2.4 1.7.9.4 1.9.6 3.1.6 1.1 0 2.1-.2 3.1-.6.9-.4 1.7-1 2.4-1.7s1.2-1.5 1.5-2.4c.4-.9.5-1.9.5-2.9s-.2-2-.5-2.9c-.3-.9-.9-1.7-1.5-2.4m-.9 7.4c-.2.6-.6 1.2-1 1.6-.4.5-.9.8-1.5 1.1-.6.3-1.3.4-2 .4s-1.4-.1-2-.4c-.6-.3-1.1-.6-1.6-1.1-.4-.5-.8-1-1-1.6-.2-.6-.4-1.3-.4-2s.1-1.4.4-2c.2-.6.6-1.2 1-1.6.4-.5.9-.8 1.5-1.1.6-.3 1.3-.4 2-.4s1.4.1 2 .4c.6.3 1.1.6 1.6 1.1.4.5.8 1 1 1.6.2.6.4 1.3.4 2s-.2 1.3-.4 2"/></g><g><path class="st0" d="M158.8 79.2h-3.4l1.5-1.3c.3-.3.6-.6.9-.8.3-.3.5-.5.6-.8.2-.3.3-.5.4-.8.1-.3.1-.6.1-.9 0-.4-.1-.7-.2-1-.1-.3-.3-.6-.6-.8-.2-.2-.5-.4-.8-.5-.3-.1-.7-.2-1.1-.2-.4 0-.7 0-1 .1-.3.1-.6.2-.8.4-.2.1-.5.3-.7.6-.2.2-.4.5-.6.7-.1.1-.1.3.1.4l.6.5c.1 0 .1.1.2 0s.1-.1.2-.1c.3-.4.6-.7.9-.9.3-.2.6-.3 1-.3.2 0 .3 0 .5.1s.3.1.4.2c.1.1.2.2.3.4.1.1.1.3.1.5s0 .3-.1.5c0 .2-.1.3-.2.5s-.3.4-.5.6l-.7.7-2.8 2.5c-.1.1-.1.1-.1.2v.7c0 .2.1.3.3.3h5.4c.2 0 .3-.1.3-.3v-.8c.1-.2 0-.4-.2-.4"/></g><g><path class="st0" d="M150.1 101.7c-.7-.7-2-.7-2.7 0l-4 4V86.4c0-1.1-.9-1.9-1.9-1.9s-1.9.9-1.9 1.9v19.3l-4-4c-.7-.7-2-.7-2.7 0-.4.4-.6.8-.6 1.4 0 .5.2 1 .6 1.4l7.3 7.3c.1.1.2.1.2.2 0 0 .1 0 .1.1h.1c.1 0 .1.1.2.1s.1 0 .2.1H142.2c.1 0 .1 0 .2-.1.1 0 .1 0 .2-.1h.1s.1 0 .1-.1c.1-.1.2-.1.3-.2l7.3-7.3c.4-.4.6-.8.6-1.4-.4-.6-.6-1.1-.9-1.4"/></g></svg>