<svg version="1.1" id="Layer_1" xmlns="http://www.w3.org/2000/svg" x="0" y="0" viewBox="0 0 218.6 154.7" xml:space="preserve"><style>.st1{fill:#d8d8d7}.st2{fill:#eaeaea}.st3{fill:#fff}.st4{fill:#9c9b9b}.st5{fill:none}.st7{fill:#fca581}.st8{fill:#fb7632}.st9{fill:#f99c57}.st10{fill:#fa7632}.st19{fill:#ff6e16}.st20{fill:#fff0e1}.st21{fill:#ff6709}.st22{fill:#ad4000}.st26{fill:#db5713}.st27{fill:#e7e126}</style><path d="M82.1 130.1s-20-21.1-14.6-43 16.1-29.2 25.4-35 26.1-13.1 40.7-10c14.6 3.1 33.1 13.5 41.1 33.1 8.1 19.6 5.4 40-7.3 53-12.7 13.1-28.8 20.4-38.8 20.8-10 .3-30.3.3-46.5-18.9z" fill="#e3e3e2"/><path class="st1" d="M94.8 132.4s-19.2-13.5-23.4-26.5S69 81.7 71 76.3c1.9-5.4 7.3-9.2 11.1-.8s9.2 24.2 24.6 34.2 33.8 15.4 41.9 15.8c8.1.4 12.3 0 17.7-3.5 5.4-3.5 9.2-7.3 9.2-7.3s.8 2.7-4.6 8.5c-5.4 5.8-8.1 9.6-17.3 16.1-9.2 6.5-13.5 5.4-19.6 5.4-6.1 0-23.1 0-39.2-12.3z"/><path class="st2" d="M104.8 72.1s-13.5-.8-12.7-8.8 7.7-13.1 14.2-15.8c6.5-2.7 29.2-6.5 41.9 1.9 12.7 8.5 20.4 18.4 23.8 28.1s7.7 23.1 1.5 29.2c-6.1 6.1-18.4-3.1-23.8-8.8-5.3-5.8-12.2-20.5-44.9-25.8z"/><path class="st3" d="M143 61.3s-8.8-2.1-14.8-4.4c-6-2.3-10.6-6-5.2-7.5s13.6-2.3 20.2 1.3c6.5 3.7 12.9 6.9 15.2 9.6 2.3 2.7 3.8 5.6.2 5.6-3.6 0-15.6-4.6-15.6-4.6zM164.6 76.8s.8-.5-1.3-3.6c-2-3.1-1.8-5.9 1-4.9s5.1 4.6 5.4 7.4c.3 2.8.5 6.1-1 6.1s-3.8-1.9-4.1-5zM76 95.3s-4.1-.3-4.1-5.4 2.6-10 4.9-10c2.3 0 5.9 2.8 4.6 7.2-1.3 4.3-1.6 8.7-5.4 8.2zM94.2 89.6l-4.6-2c-2.3-1-2.6-3.3 1-5.4 3.6-2 5.4-1.5 7.4.8s1 3.3 0 5.1c-1 1.8-3.8 1.5-3.8 1.5zM106.2 82.4s-3.1-2-1-4.6c2-2.6 5.1-2 6.1-.5 1.1 1.6 2.3 6.4-5.1 5.1zM88.5 61.4s-2.8-2 0-3.8 6.9-1.5 7.2 0c.3 1.5-1 4.1-2.6 5.1-1.5 1-3.8-.5-4.6-1.3zM108.5 61.9s-2-1-1.3-3.1 3.6-1.8 5.1-.8c1.5 1 3.1 2.8 0 3.6-3 .9-3.8.3-3.8.3zM126.4 66.3s-1.3-1-2.3-3.1c-1-2 .3-3.1 3.1-3.3 2.8-.3 6.7 0 9 .8s3.6 2.3.5 5.4c-3.1 3.1-3.6 2.8-5.6 2.3-2.1-.6-4.7-2.1-4.7-2.1zM152.6 73.7s-2.6 0-1.5-2c1-2 1.8-4.9 5.9-4.1 4.1.8 4.6 3.6 3.3 5.4-1.3 1.8-3.9 3-7.7.7z"/><path class="st3" d="M164.4 76s-3.8-6.9-1.8-7.7c2-.8 4.9 2.6 6.1 4.6 1.3 2 1.3 5.4 1 7.2-.3 1.8-2.3 2.3-3.6.3-1.2-2.1-1.7-4.4-1.7-4.4zM78.3 103.2s4.4-1 4.9 2.3-.3 5.9-2.3 6.7c-2 .8-5.6.5-5.6-2.3s-.6-5.7 3-6.7zM146.2 89.6s-1-.3-1-2.6c0-2.3 1.3-3.1 2.6-2.8 1.2.3 3.8 3.9-1.6 5.4zM151.6 95.5s0-3.8 1.8-5.1 4.1-.8 6.1.5 3.3 2 2.6 6.4-4.6 4.4-6.9 4.4c-2.3 0-3.3-2-3.3-3.6s-.3-2.6-.3-2.6zM133.4 107.8s-4.1 0-4.4-1.8c-.3-1.8 2-3.6 4.4-4.1 2.3-.5 5.1 0 3.6 2.8-1.6 2.9-3.6 3.1-3.6 3.1zM136.7 117.6s-2-3.1.3-4.4c2.3-1.3 3.8-.5 5.4.5s1.8 3.3-.3 4.4-4.1.7-5.4-.5zM154.6 121.7s-5.4-1-3.1-3.8 4.1-2.6 6.4-2.6 3.6 2.8 2.6 5.1-5.9 1.3-5.9 1.3zM104.2 115.2s1.3-1.8 6.9-1.5c5.6.3 7.2 1.3 7.4 3.3.3 2 .3 6.9-2 7.4s-7.9.5-9.5-.3c-1.6-.7-4.6-5.8-2.8-8.9zM83.7 124.7s3.1-.8 5.6.8c2.6 1.5 2.6 2.8 2 4.6-.5 1.8-3.6 2.3-5.1.5-1.5-1.8-3.8-4.6-2.5-5.9zM101.1 137s2.8-.5 6.4.5c3.6 1 5.9 2.6 6.4 4.4.5 1.8-3.1 1.5-5.9 1.3s-6.9-4.4-6.9-6.2zM125.9 144.5s0-4.4 3.1-5.6c3.1-1.3 6.1.5 6.4 2s-.8 4.1-4.1 4.6-5.4-1-5.4-1zM152.6 130.4s1.5-3.1 4.6-4.1c3.1-1 3.8 0 3.3 1.5s-1 3.1-3.6 3.6c-2.5.5-4.8 1-4.3-1zM137.2 47.3s-4.6-.3-7.4-1c-2.8-.8-3.1-2.8 1.3-3.6 4.4-.8 12 1.5 13.1 2.8 1 1.3-2 1.5-3.6 1.8-1.6.3-3.4 0-3.4 0z"/><path class="st4" d="M75.7 93.2s-3.1-1.8-2.3-5.1c.8-3.3.8-5.6 3.1-5.6s3.3 1.8 2.8 4.1-1.3 6.6-3.6 6.6zM90 61.5s-2.9-2.1-1.2-3.5c1.7-1.3 4-1.3 5-.2 1 1.2.2 2.3-.4 3.5-.5 1.2-2.4 1-3.4.2zM108.4 60.9s-1-2.5.8-2.9c1.7-.4 3.3.8 3.5 1.5.2.8-.8 2.1-2.5 1.7l-1.8-.3zM133.2 46.5s-2.7.2-3.7-1-.8-2.1 2.5-2.1 3.8.2 7.1 1.2 4 1.9 1 2.3-6.9-.4-6.9-.4zM126.3 65.1s-2.9-3.5.4-4 7.1.4 8.1.6c1 .2 2.3 1.9.4 3.7s-2.9 2.7-5.6 1.7-3.3-2-3.3-2zM153.6 73s-1.9-1.5-.8-3.1c1.2-1.5 3.3-2.1 4.8-1 1.5 1.2 2.1 3.5.8 4.6-1.3 1.2-2.9 1.7-3.8.6l-1-1.1zM145.3 86.9s-.2-1.9 1.3-1.9 1.9 1.5 1.5 2.5c-.3.9-2 1.9-2.8-.6zM152.3 96.3s.6-3.8 2.1-4.8 5.6.8 6 1.7c.4 1 1.3 4.8-.2 6.1-1.5 1.3-4.6 1.9-5.8 1.3-1.2-.5-2.1-4.3-2.1-4.3zM130.5 105.7s-.2-2.1 1.9-2.7c2.1-.6 3.7 1.5 3.3 2.3-.4.8-1.5 1.7-3.1 1.7-1.5 0-2.1-1.3-2.1-1.3zM105.9 80.7s-1.2-2.5 1.2-2.9c2.3-.4 3.7 1.5 2.7 2.9s-3.3.8-3.9 0zM90.2 86.3s-1-2.1 1.2-3.3c2.1-1.2 4.4-1.2 6 .4 1.5 1.5.6 4.4-1.3 5-2.1.6-4.4.2-5.9-2.1z"/><path class="st4" d="M72.7 89.2s.4-5.2 2.7-6.3c2.3-1.2 4.2.8 4 4-.2 3.3-2.5 6.5-4.2 6.1s-2.5-3.8-2.5-3.8zM76.4 109.9s-.6-3.7 1.3-4.6c1.9-1 3.8-.6 3.8 1.9s-.6 4.2-2.3 4.2-2.8-1.5-2.8-1.5zM105.4 116.3s1-1 4.4-1.2c3.5-.2 6.5 1.3 6.9 2.5.4 1.2 1.3 3.5-1.2 3.8s-3.5.8-6.3-.6c-2.9-1.3-4.8-3-3.8-4.5zM136.5 115.5s1.2-2.5 3.7-1.3 1.5 3.1.2 3.7-3.1.3-3.9-2.4zM153.8 119.5s-1-1.9 1.2-2.9c2.1-1 4-.2 4.4 1.3.4 1.5-.6 3.1-2.7 2.9-2.1-.1-2.9-1.3-2.9-1.3zM157.3 127.8s3.1-.4 1.9 1.3c-1.2 1.7-1.5 2.3-3.1 2.1s-2.9-.4-1.3-1.9c1.5-1.5 2.5-1.5 2.5-1.5zM104.8 138.6s2.5-.4 4.2.8c1.7 1.2 4 2.1 3.1 2.7-1 .6-3.3-.4-5-1s-3.5-2-2.3-2.5zM127.1 145.3s-.4-2.9 1.7-3.8c2.1-1 4.8-.2 4.8 1.3s-2.1 2.3-3.5 2.5-3 1.1-3 0zM85.2 106.7s-.4-1.9.8-1.7c1.1.1.9 3-.8 1.7zM90.4 92.1s-.8-1.2.4-1.2 1.5 1.3-.4 1.2zM74.6 71.3c1.6-2.4 3.7-4 2.9-2.3-.8 1.7-3.3 2.9-2.9 2.3zM87.5 65s-1.2-2.1.6-1.3c1.7.7.7 2-.6 1.3zM95.8 54s-1.3-.2 0-1.2 2.3-.6 1.9.4c-.4 1-1.2.6-1.9.8zM111.5 47.7s-.2-.4 1.9-1.3c2.1-1 2.1.2.8 1-1.3.6-3.1 1-2.7.3zM103.6 67.8s-1-1 1-2.3c1.9-1.3 3.5-1.3 1.7.4s-1.5 2.5-2.7 1.9zM145.9 51.3s2.7-1.2 3.7-.2 0 1.3-1 1.5-2.7-1.3-2.7-1.3zM121.5 66.3s1.3-1.7 1.2-.6c-.2 1.2-1.2.6-1.2.6zM142.7 78s.6-2.1 1.2-.8-1.2.8-1.2.8zM169.9 75.3s0-1.7 1.3-1.3c1.4.4.3 2.1-1.3 1.3zM173 87.4s.8-3.5 2.5-2.1c1.7 1.3 1 4.6-.4 4.4-1.3-.1-2.1-2.3-2.1-2.3zM123.8 84.9s.2-2.1.8-1.2c.6 1.1.4 1.8-.8 1.2zM108.3 102.8s-2.7-.2-1.7-1.5 2.7-.8 3.3 0c.5.7.3 1.7-1.6 1.5zM153 105.7s0-1.9 1.2-1.5.4 2.3-1.2 1.5zM166.3 110.1s-1.3-2.1.2-2.9c1.5-.8 3.5.6 3.1 1.9s-2.2 1.4-3.3 1zM133.4 121.1s-1-.2-1.2-1.3c-.1-1.2 2-1 1.2 1.3zM168.8 120.1s.4-2.5 1-4 1.5-1.5 1.2-.4c-.5 1.1-1.4 4.6-2.2 4.4zM173.6 97.8s-.4-1.7 1.3-2.1c1.7-.4 2.5.4 2.3 1.9-.2 1.5-1.2 1-1.2 0s-.8-1.7-1.3-1c-.5.8-.9 2.2-1.1 1.2z"/><path class="st5" d="M64.4 100.4s9 3.8 13.3 5.6c4.4 1.8 5.1 3.1 5.1 3.1s-12.2-4.9-18.4-8.7z"/><path class="st4" d="M71 76.3s.4-.3-9.6-1.5-27.4-2-32.3 1.5-15.1 2.3-.8 13.1 38.4 25.1 70 36.9 57.9 19.5 69.7 20.8c11.8 1.3 22 2.6 29 .8 6.9-1.8 12-2.8 12-5.9s2-6.4-2.3-11.8c-4.4-5.4-8.2-7.9-15.9-12.3s-13.3-7.2-13.3-7.2l-1 3.3s10 5.6 16.7 10.2 12.6 10 10.2 14.1c-2.3 4.1-5.6 7.7-20.5 6.4s-41.8-5.6-73.3-18.4-49.8-22.3-54.9-24.6c-5.1-2.3-19.2-11.5-21.8-14.1-2.6-2.6-3.6-6.1 3.6-8.5 7.2-2.3 13.8-2.6 21.8-1.3 7.9 1.3 11 2 11 2l1.7-3.5z"/><path class="st4" d="M68.3 83.7S53.7 82.4 47.5 85c-6.1 2.6-4.4 3.8-.3 5.9 4.1 2 12.3 8.2 35.6 18.2s51.2 19.7 62 22.5c10.8 2.8 27.4 4.9 33.6 4.9 6.1 0 11-.8 11.3-3.6.3-2.8 2.6-.8-.5-4.4-3.1-3.6-5.6-5.4-10-8.5-4.4-3.1-4.6-2.6-4.6-2.6l-1.5 3.1s9.5 4.9 11.8 7.2 3.1 5.6-2.6 5.6-13.1-.5-19.5-1.8-25.6-3.1-96.9-32.8c0 0-21.8-9-13.8-11.3 7.9-2.3 15.4-.5 15.4-.5l.8-3.2z"/><path class="st1" d="M195.4 123.2s-2-2.6-.3-2c1.8.5 2.8.3 8.7 5.1 5.9 4.9 10 9.2 10.8 12.6.8 3.3 1 8.5-8.2 10.5s-26.4 2.3-40.2-.3-68.2-19.2-89.4-29S32.4 96.3 28 93.2c-4.4-3.1-12-12-5.1-15.6s17.2-5.6 32.5-3.8c0 0 9.2.3 9.7 1.5s-.8 1.3-6.7.5S41.1 74 35.7 75 24.2 81.7 29 86.3s12 12.6 38.2 23.6 43 18.2 67.6 25.9 36.1 10.2 49.7 11c13.6.8 19.2-2 21.3-4.6s1.8-5.6-1.5-9.5c-3.3-3.9-8.9-9.5-8.9-9.5z"/><path class="st2" d="M207.9 133.7s-3.1-3.8-.3-2.6c2.8 1.3 5.9 6.4 6.1 9 .3 2.6-.5 7.4-6.9 8.2s-21 2.8-32.3.5c-11.3-2.3-13.6-3.6-12.6-3.6s6.1 2 18.7 2.3c12.6.3 20.5-.3 23.1-1.5 2.6-1.3 4.9-1.5 5.1-4.1s-.6-6.9-.9-8.2z"/><path class="st2" d="M187.9 131.4s-.5-3.8 1.3-2.8 3.6 3.1 2.6 4.9-1.8 2.8-7.2 3.1-9.7.3-17.2-.8-12.8-2.8-12.8-2.8 16.9 3.8 24.6 2.6c7.7-1.4 8.5-2.2 8.7-4.2zM82.1 119.9s-4.1-1-13.8-5.1-18.2-9-22.5-11.8-8.2-7.2-6.1-6.1c2 1 9.2 5.4 19.2 9.7s19.2 9 22.3 10.5c3 1.5 5.5 3.5.9 2.8z"/><path class="st1" d="M73.9 118.6s1 3.7 4.9 5.3c3.8 1.5 14.9 7.6 26.9 11.4 12 3.8 28.2 8.7 31 9.7s5.4.8 5.4.8l4-2.3-11.1-3.8s-38.4-12.6-47.1-15.9c-8.9-3.4-14-5.2-14-5.2zM68 104.5s22 10.5 29.5 13.1c7.4 2.6 23.3 8.2 37.2 11.8 13.8 3.6 24.7 5.9 24.7 5.9l-4 2.8s-8.5-.8-24.1-5.9c-15.6-5.1-33.8-11.8-48.2-17.7-14.3-5.9-14.9-6.9-14.9-6.9l-.2-3.1z"/><path d="M82.1 130.1s-20-21.1-14.6-43 16.1-29.2 25.4-35 26.1-13.1 40.7-10c14.6 3.1 33.1 13.5 41.1 33.1 8.1 19.6 5.4 40-7.3 53-12.7 13.1-28.8 20.4-38.8 20.8-10 .3-30.3.3-46.5-18.9z" fill="#fb9363"/><path class="st7" d="M143 61.3s-8.8-2.1-14.8-4.4c-6-2.3-10.6-6-5.2-7.5s13.6-2.3 20.2 1.3c6.5 3.7 12.9 6.9 15.2 9.6 2.3 2.7 3.8 5.6.2 5.6-3.6 0-15.6-4.6-15.6-4.6zM164.6 76.8s.8-.5-1.3-3.6c-2-3.1-1.8-5.9 1-4.9s5.1 4.6 5.4 7.4c.3 2.8.5 6.1-1 6.1s-3.8-1.9-4.1-5zM76 95.3s-4.1-.3-4.1-5.4 2.6-10 4.9-10c2.3 0 5.9 2.8 4.6 7.2-1.3 4.3-1.6 8.7-5.4 8.2zM94.2 89.6l-4.6-2c-2.3-1-2.6-3.3 1-5.4 3.6-2 5.4-1.5 7.4.8s1 3.3 0 5.1c-1 1.8-3.8 1.5-3.8 1.5zM106.2 82.4s-3.1-2-1-4.6c2-2.6 5.1-2 6.1-.5 1.1 1.6 2.3 6.4-5.1 5.1zM88.5 61.4s-2.8-2 0-3.8 6.9-1.5 7.2 0c.3 1.5-1 4.1-2.6 5.1-1.5 1-3.8-.5-4.6-1.3zM108.5 61.9s-2-1-1.3-3.1 3.6-1.8 5.1-.8c1.5 1 3.1 2.8 0 3.6-3 .9-3.8.3-3.8.3z"/><path class="st3" d="M126.4 66.3s-1.3-1-2.3-3.1c-1-2 .3-3.1 3.1-3.3 2.8-.3 6.7 0 9 .8s3.6 2.3.5 5.4c-3.1 3.1-3.6 2.8-5.6 2.3-2.1-.6-4.7-2.1-4.7-2.1z"/><path class="st7" d="M152.6 73.7s-2.6 0-1.5-2c1-2 1.8-4.9 5.9-4.1 4.1.8 4.6 3.6 3.3 5.4-1.3 1.8-3.9 3-7.7.7zM78.3 103.2s4.4-1 4.9 2.3-.3 5.9-2.3 6.7c-2 .8-5.6.5-5.6-2.3s-.6-5.7 3-6.7zM146.2 89.6s-1-.3-1-2.6c0-2.3 1.3-3.1 2.6-2.8 1.2.3 3.8 3.9-1.6 5.4zM151.6 95.5s0-3.8 1.8-5.1 4.1-.8 6.1.5 3.3 2 2.6 6.4-4.6 4.4-6.9 4.4c-2.3 0-3.3-2-3.3-3.6s-.3-2.6-.3-2.6zM133.4 107.8s-4.1 0-4.4-1.8c-.3-1.8 2-3.6 4.4-4.1 2.3-.5 5.1 0 3.6 2.8-1.6 2.9-3.6 3.1-3.6 3.1zM136.7 117.6s-2-3.1.3-4.4c2.3-1.3 3.8-.5 5.4.5s1.8 3.3-.3 4.4-4.1.7-5.4-.5zM154.6 121.7s-5.4-1-3.1-3.8 4.1-2.6 6.4-2.6 3.6 2.8 2.6 5.1-5.9 1.3-5.9 1.3zM104.2 115.2s1.3-1.8 6.9-1.5c5.6.3 7.2 1.3 7.4 3.3.3 2 .3 6.9-2 7.4s-7.9.5-9.5-.3c-1.6-.7-4.6-5.8-2.8-8.9zM83.7 124.7s3.1-.8 5.6.8c2.6 1.5 2.6 2.8 2 4.6-.5 1.8-3.6 2.3-5.1.5-1.5-1.8-3.8-4.6-2.5-5.9zM101.1 137s2.8-.5 6.4.5c3.6 1 5.9 2.6 6.4 4.4.5 1.8-3.1 1.5-5.9 1.3s-6.9-4.4-6.9-6.2zM125.9 144.5s0-4.4 3.1-5.6c3.1-1.3 6.1.5 6.4 2s-.8 4.1-4.1 4.6-5.4-1-5.4-1zM152.6 130.4s1.5-3.1 4.6-4.1c3.1-1 3.8 0 3.3 1.5s-1 3.1-3.6 3.6c-2.5.5-4.8 1-4.3-1z"/><path class="st3" d="M137.2 47.3s-4.6-.3-7.4-1c-2.8-.8-3.1-2.8 1.3-3.6 4.4-.8 12 1.5 13.1 2.8 1 1.3-2 1.5-3.6 1.8-1.6.3-3.4 0-3.4 0z"/><path class="st8" d="M75.7 93.2s-3.1-1.8-2.3-5.1c.8-3.3.8-5.6 3.1-5.6s3.3 1.8 2.8 4.1-1.3 6.6-3.6 6.6zM90 61.5s-2.9-2.1-1.2-3.5c1.7-1.3 4-1.3 5-.2 1 1.2.2 2.3-.4 3.5-.5 1.2-2.4 1-3.4.2zM108.4 60.9s-1-2.5.8-2.9c1.7-.4 3.3.8 3.5 1.5.2.8-.8 2.1-2.5 1.7l-1.8-.3z"/><path class="st9" d="M133.2 46.5s-2.7.2-3.7-1-.8-2.1 2.5-2.1 3.8.2 7.1 1.2 4 1.9 1 2.3-6.9-.4-6.9-.4zM145.3 86.9s-.2-1.9 1.3-1.9 1.9 1.5 1.5 2.5c-.3.9-2 1.9-2.8-.6z"/><path class="st8" d="M152.3 96.3s.6-3.8 2.1-4.8 5.6.8 6 1.7c.4 1 1.3 4.8-.2 6.1-1.5 1.3-4.6 1.9-5.8 1.3-1.2-.5-2.1-4.3-2.1-4.3zM130.5 105.7s-.2-2.1 1.9-2.7c2.1-.6 3.7 1.5 3.3 2.3-.4.8-1.5 1.7-3.1 1.7-1.5 0-2.1-1.3-2.1-1.3zM105.9 80.7s-1.2-2.5 1.2-2.9c2.3-.4 3.7 1.5 2.7 2.9s-3.3.8-3.9 0zM90.2 86.3s-1-2.1 1.2-3.3c2.1-1.2 4.4-1.2 6 .4 1.5 1.5.6 4.4-1.3 5-2.1.6-4.4.2-5.9-2.1zM76.4 109.9s-.6-3.7 1.3-4.6c1.9-1 3.8-.6 3.8 1.9s-.6 4.2-2.3 4.2-2.8-1.5-2.8-1.5zM105.4 116.3s1-1 4.4-1.2c3.5-.2 6.5 1.3 6.9 2.5.4 1.2 1.3 3.5-1.2 3.8s-3.5.8-6.3-.6c-2.9-1.3-4.8-3-3.8-4.5zM136.5 115.5s1.2-2.5 3.7-1.3 1.5 3.1.2 3.7-3.1.3-3.9-2.4zM153.8 119.5s-1-1.9 1.2-2.9c2.1-1 4-.2 4.4 1.3.4 1.5-.6 3.1-2.7 2.9-2.1-.1-2.9-1.3-2.9-1.3zM157.3 127.8s3.1-.4 1.9 1.3c-1.2 1.7-1.5 2.3-3.1 2.1s-2.9-.4-1.3-1.9c1.5-1.5 2.5-1.5 2.5-1.5zM104.8 138.6s2.5-.4 4.2.8c1.7 1.2 4 2.1 3.1 2.7-1 .6-3.3-.4-5-1s-3.5-2-2.3-2.5zM127.1 145.3s-.4-2.9 1.7-3.8c2.1-1 4.8-.2 4.8 1.3s-2.1 2.3-3.5 2.5-3 1.1-3 0zM85.2 106.7s-.4-1.9.8-1.7M90.4 92.1s-.8-1.2.4-1.2M74.6 71.3c1.6-2.4 3.7-4 2.9-2.3-.8 1.7-3.3 2.9-2.9 2.3zM87.5 65s-1.2-2.1.6-1.3c1.7.7.7 2-.6 1.3zM95.8 54s-1.3-.2 0-1.2 2.3-.6 1.9.4c-.4 1-1.2.6-1.9.8zM111.5 47.7s-.2-.4 1.9-1.3c2.1-1 2.1.2.8 1-1.3.6-3.1 1-2.7.3zM103.6 67.8s-1-1 1-2.3c1.9-1.3 3.5-1.3 1.7.4s-1.5 2.5-2.7 1.9z"/><path class="st9" d="M145.9 51.3s2.7-1.2 3.7-.2 0 1.3-1 1.5-2.7-1.3-2.7-1.3zM121.5 66.3s1.3-1.7 1.2-.6c-.2 1.2-1.2.6-1.2.6zM142.7 78s.6-2.1 1.2-.8-1.2.8-1.2.8zM123.8 84.9s.2-2.1.8-1.2c.6 1.1.4 1.8-.8 1.2z"/><path class="st8" d="M86 104.9c1.2.2 1 3.1-.8 1.7M90.8 90.9c1.2 0 1.5 1.3-.4 1.2M169.9 75.3s0-1.7 1.3-1.3c1.4.4.3 2.1-1.3 1.3zM173 87.4s.8-3.5 2.5-2.1c1.7 1.3 1 4.6-.4 4.4-1.3-.1-2.1-2.3-2.1-2.3zM108.3 102.8s-2.7-.2-1.7-1.5 2.7-.8 3.3 0c.5.7.3 1.7-1.6 1.5zM153 105.7s0-1.9 1.2-1.5.4 2.3-1.2 1.5M166.3 110.1s-1.3-2.1.2-2.9c1.5-.8 3.5.6 3.1 1.9s-2.2 1.4-3.3 1zM168.8 120.1s.4-2.5 1-4 1.5-1.5 1.2-.4c-.5 1.1-1.4 4.6-2.2 4.4zM173.6 97.8s-.4-1.7 1.3-2.1c1.7-.4 2.5.4 2.3 1.9-.2 1.5-1.2 1-1.2 0s-.8-1.7-1.3-1c-.5.8-.9 2.2-1.1 1.2zM133.4 121.1s-1-.2-1.2-1.3c-.1-1.2 2-1 1.2 1.3z"/><path class="st5" d="M64.4 100.4s9 3.8 13.3 5.6c4.4 1.8 5.1 3.1 5.1 3.1s-12.2-4.9-18.4-8.7z"/><path class="st10" d="M71 76.3s.4-.3-9.6-1.5-27.4-2-32.3 1.5-15.1 2.3-.8 13.1 38.4 25.1 70 36.9 57.9 19.5 69.7 20.8c11.8 1.3 22 2.6 29 .8 6.9-1.8 12-2.8 12-5.9s2-6.4-2.3-11.8c-4.4-5.4-8.2-7.9-15.9-12.3s-13.3-7.2-13.3-7.2l-1 3.3s10 5.6 16.7 10.2 12.6 10 10.2 14.1c-2.3 4.1-5.6 7.7-20.5 6.4s-41.8-5.6-73.3-18.4-49.8-22.3-54.9-24.6c-5.1-2.3-19.2-11.5-21.8-14.1-2.6-2.6-3.6-6.1 3.6-8.5 7.2-2.3 13.8-2.6 21.8-1.3 7.9 1.3 11 2 11 2l1.7-3.5z"/><path class="st10" d="M68.3 83.7S53.7 82.4 47.5 85c-6.1 2.6-4.4 3.8-.3 5.9 4.1 2 12.3 8.2 35.6 18.2s51.2 19.7 62 22.5c10.8 2.8 27.4 4.9 33.6 4.9 6.1 0 11-.8 11.3-3.6.3-2.8 2.6-.8-.5-4.4-3.1-3.6-5.6-5.4-10-8.5-4.4-3.1-4.6-2.6-4.6-2.6l-1.5 3.1s9.5 4.9 11.8 7.2 3.1 5.6-2.6 5.6-13.1-.5-19.5-1.8-25.6-3.1-96.9-32.8c0 0-21.8-9-13.8-11.3 7.9-2.3 15.4-.5 15.4-.5l.8-3.2z"/><path d="M195.4 123.2s-2-2.6-.3-2c1.8.5 2.8.3 8.7 5.1 5.9 4.9 10 9.2 10.8 12.6.8 3.3 1 8.5-8.2 10.5s-26.4 2.3-40.2-.3-68.2-19.2-89.4-29S32.4 96.3 28 93.2c-4.4-3.1-12-12-5.1-15.6s17.2-5.6 32.5-3.8c0 0 9.2.3 9.7 1.5s-.8 1.3-6.7.5S41.1 74 35.7 75 24.2 81.7 29 86.3s12 12.6 38.2 23.6 43 18.2 67.6 25.9 36.1 10.2 49.7 11c13.6.8 19.2-2 21.3-4.6s1.8-5.6-1.5-9.5c-3.3-3.9-8.9-9.5-8.9-9.5z" fill="#fb9668"/><path class="st5" d="M47.5 85c-1.5.4-7.7 2.8-3.1 5.9s38.2 20.2 67.4 30.7 47.7 14.3 59.7 15.1c12 .8 18.4.5 20.5-2.3s1-5.1-1.3-6.4-3.3-3.1-5.6-4.4c-2.3-1.3-6.4-3.3-1.5 1.3s5.9 7.9.3 9.7-26.6-1.3-37.7-4.4c-11-3.1-47.7-15.1-63.8-22.5s-28-12.4-31-14.7c-3.1-2.3-4.1-4.9-2.6-6.4s2.1-2.4-1.3-1.6z"/><path d="M207.9 133.7s-3.1-3.8-.3-2.6c2.8 1.3 5.9 6.4 6.1 9 .3 2.6-.5 7.4-6.9 8.2s-21 2.8-32.3.5c-11.3-2.3-13.6-3.6-12.6-3.6s6.1 2 18.7 2.3c12.6.3 20.5-.3 23.1-1.5 2.6-1.3 4.9-1.5 5.1-4.1s-.6-6.9-.9-8.2z" fill="#fb976a"/><path d="M187.9 131.4s-.5-3.8 1.3-2.8 3.6 3.1 2.6 4.9-1.8 2.8-7.2 3.1-9.7.3-17.2-.8-12.8-2.8-12.8-2.8 16.9 3.8 24.6 2.6c7.7-1.4 8.5-2.2 8.7-4.2z" fill="#fb9669"/><path d="M73.9 118.6s1 3.7 4.9 5.3c3.8 1.5 14.9 7.6 26.9 11.4 12 3.8 28.2 8.7 31 9.7s5.4.8 5.4.8l4-2.3-11.1-3.8s-38.4-12.6-47.1-15.9c-8.9-3.4-14-5.2-14-5.2z" fill="#fbb078"/><path d="M68 104.5s22 10.5 29.5 13.1c7.4 2.6 23.3 8.2 37.2 11.8 13.8 3.6 24.7 5.9 24.7 5.9l-4 2.8s-8.5-.8-24.1-5.9c-15.6-5.1-33.8-11.8-48.2-17.7-14.3-5.9-14.9-6.9-14.9-6.9l-.2-3.1z" fill="#fab078"/><path class="st9" d="M126.3 65.1s-2.9-3.5.4-4 7.1.4 8.1.6c1 .2 2.3 1.9.4 3.7s-2.9 2.7-5.6 1.7-3.3-2-3.3-2z"/><g><path d="M135.5 60.5s1.5.2 2.6.4 1.2.3.9.7c-.4.4-2.3 3.2-2.5 4.4-.2 1.2.9 2.4.9 2.4s-1.5-1.5-2.6-1.2l-1 .3s2.4-.2 2.3-3c-.1-2.8-.1-2.7-.3-3.3l-.3-.7z" fill="#545453"/><path d="M133.4 67.4s-3.5-1.2-7.3-1.9 2.6-1.6.4-1.3c-2.1.3-5.1.7-6.1-.4s.8-1.7 1.8-2.3c1-.6 3.8-1.6 7-1.5 3.2.1-4 .9-2 .9h2.8s-5.2-8.5-5.5-12.4c-.2-3.9 4.4-10.8 6.4-13.6s4.2-4.9 5.7-5.5 4.2-4 4.2-5.7c0-3.5 2.4-2.3 2.2-1.2-.1 1.1-1.1 4.8 0 5.8s2.7 1.6 4.6.1c1.9-1.5 3.2-4.1 3.7-7.4.5-3.3.6-4.7.6-4.7s.8-1.5 2.1-1.1 1.7.7 1.7.7-1.3 3.3-1.5 3.6c-.2.3-2.4 5.7-2.9 7.9-.6 2.2.1 4.3.5 5.8.5 1.4 2.2 5.9 2.5 10.8.3 4.9-1.9 10-4.1 12.7-2.2 2.8-5 4.4-5.5 5.5-.4 1-.5 1.7-.5 1.7s.1.7 4.4 1.8c4.4 1.1 7.2 1.5 10.1 3.8s3.4 3.2 2.9 4.1-1.6.7-4.8-.8c-3.2-1.5-10.4-3.1-14.3-3.5-3.9-.4-3.9-.1-5-.7-1.1-.7-1.8-1.3-.3-3.8s1.9-3 2-3.3-3.8-.8-3.8-.8.6.9.6 2.8c.1 1.7.6 3.8-2.6 3.9z" fill="#fcbc98"/><path d="M160.8 74.1c-.8 0-2-.4-3.9-1.3-3.3-1.5-10.6-3.1-14.2-3.5-1.4-.2-2.3-.2-2.9-.2-1.1-.1-1.4-.1-2.2-.5-1.2-.8-1.9-1.5-.4-4.1.8-1.4 1.3-2.2 1.6-2.7.1-.2.2-.4.3-.5-.4-.2-1.8-.4-3.3-.6.2.4.4 1.2.4 2.5v.7c0 1.1.1 2.1-.6 2.8-.5.5-1.2.7-2.2.7 0 0-3.6-1.2-7.3-1.9-1-.2-1.4-.4-1.4-.7 0-.2.1-.3.3-.4-1.8.2-3.9.3-4.7-.7-.3-.3-.4-.6-.3-.9.1-.6.9-1 1.6-1.3.2-.1.4-.2.5-.3 1.1-.6 4-1.6 7.1-1.5-1.4-2.5-4.6-8.2-4.8-11.3-.2-3.8 3.9-10.2 6.4-13.7 1.9-2.7 4.2-4.9 5.7-5.6 1.4-.6 4.1-3.9 4.1-5.6 0-1.6.5-2.2.9-2.4.4-.2.8-.2 1.2.1.4.3.6.7.5 1.1 0 .2-.1.5-.1.9-.3 1.4-.7 4 .1 4.8.9.9 2.4 1.6 4.4.1 1.9-1.5 3.1-4.1 3.6-7.3s.6-4.7.6-4.7c.3-.6 1.2-1.6 2.3-1.2 1.3.5 1.8.7 1.8.8l.1.1-.1.1c-.1.1-1.3 3.3-1.5 3.7-.2.4-2.4 5.7-2.9 7.9-.5 2.1 0 4 .5 5.7.1.2.1.4.2.6.7 1.9 2 5.9 2.3 10.2.3 4.8-1.9 9.9-4.1 12.8-1.2 1.5-2.5 2.6-3.6 3.6-.9.8-1.6 1.4-1.8 1.9-.3.8-.5 1.4-.5 1.6.1.1.7.7 4.3 1.6.6.2 1.3.3 1.9.4 3.4.8 5.8 1.4 8.4 3.4 2.8 2.2 3.5 3.3 3 4.3-.4.3-.7.5-1.3.5zm-25.6-13.8h.4c1.7.2 3.7.5 3.9.8v.2c0 .2-.1.3-.4.7-.3.5-.8 1.2-1.6 2.6-1.4 2.5-.7 3 .3 3.6.6.4.9.4 2 .5.7 0 1.5.1 3 .2 3.6.4 11 2 14.3 3.5 3.4 1.6 4.3 1.5 4.6.9.4-.7 0-1.6-2.9-3.9-2.5-1.9-4.9-2.5-8.2-3.3-.6-.1-1.2-.3-1.9-.4-4.2-1-4.6-1.7-4.6-1.9 0 0 .1-.7.5-1.7.2-.5.9-1.1 1.9-2 1.1-.9 2.4-2.1 3.6-3.5 2.3-2.9 4.4-7.9 4.1-12.6-.3-4.3-1.6-8.2-2.3-10.1-.1-.2-.1-.4-.2-.6-.6-1.7-1-3.7-.5-5.9.6-2.2 2.8-7.6 2.9-8 .1-.3 1.2-2.9 1.4-3.5-.2-.1-.7-.3-1.6-.6-1.1-.4-1.8.8-1.9 1 0 .2-.1 1.7-.6 4.7-.5 3.4-1.8 6-3.8 7.5-2.3 1.8-4 .7-4.8-.1-1-.9-.5-3.6-.2-5.1.1-.3.1-.6.1-.8 0-.3-.1-.6-.4-.7-.3-.2-.6-.2-.8-.1-.3.1-.7.6-.7 2.1 0 1.8-2.8 5.2-4.3 5.9-1.5.7-3.7 2.8-5.6 5.5-2.5 3.5-6.5 9.8-6.3 13.5.2 3 3.5 9 4.8 11.3.4 0 .6.1.6.3 0 .1 0 .2-.3.3.2.3.3.5.3.5l.2.3h-.3-2.8c-.3 0-.5 0-.5-.2s.1-.2 1.5-.5c.3-.1.7-.1 1-.2h-.1c-3-.1-5.8.9-6.9 1.5l-.6.3c-.6.3-1.3.7-1.4 1.1 0 .2 0 .4.2.6.9 1.1 4.1.6 6 .4.2 0 .3 0 .3-.1.1 0 .3 0 .3.1 0 .2-.1.2-.3.2-1.5.4-1.8.6-1.8.6s.2.2 1.1.3c3.6.6 7 1.8 7.3 1.9.9 0 1.5-.2 1.9-.6.6-.6.5-1.6.5-2.6v-.7c0-1.8-.5-2.6-.5-2.7l.1-.5zm-7.1.5h1.7c0-.1-.1-.2-.2-.3-.3.1-.7.1-1.3.3-.1-.1-.2-.1-.2 0z" fill="#575756"/><path class="st2" d="M126.4 61.3s3.4-.5 0-.2-5.9 1.7-5.9 1.7 2.5-2.8 6.8-2.8c4.3-.1-.9 1.3-.9 1.3z"/><path class="st3" d="M142.4 22.9s-1.1 5.5-2.4 6.2c-1.3.7-3 1.1-4.5 3s-5.3 6-7.1 9.2-2.6 7.1-1.9 9.5c.7 2.4 2.4 6.7 3.8 8.3 1.5 1.6 1.7 1.9 1.7 1.9s-1.5.6-2-.1c-.6-.8-3.6-6.1-4.6-8.8-.9-2.7-1-5.8.1-8.1 1-2.3 4.7-8.6 7.3-11.4 2.7-2.8 3.6-3.3 4.6-3.6 1-.3 3.3-3.4 3.4-5.3.1-2 0-1.2 0-1.2l1.6.4z"/><path class="st2" d="M153.4 16.7s.6-.5-.2 1.7-1.8 7.2-3 8.8c-1.3 1.6-2.6 2.5-4.6 2.3 0 0 2.6-.6 4.1-4s1.6-4.5 1.9-6.6c.3-2.1.3-2.7.3-2.7l1.5.5z"/><path class="st19" d="M133.4 67.4l-.5-.2-.5-.2c-.4-.1-.7-.2-1.1-.3-.7-.2-1.5-.4-2.2-.5-.7-.2-1.5-.3-2.2-.5l-1.1-.2c-.2 0-.4-.1-.6-.1-.1 0-.2-.1-.3-.1-.1 0-.1-.1-.2-.2 0 0-.1-.1-.1-.2v-.2c0-.1.1-.2.1-.2l.1-.1c.1-.1.2-.1.3-.1.2-.1.4-.1.6-.2.4-.1.7-.2 1.1-.3-.1-.4 0 .6.1.5h-.5l-.6.1c-.4.1-.7.1-1.1.2-.8.1-1.5.2-2.3.1-.4 0-.8-.1-1.2-.2-.2-.1-.4-.1-.6-.2-.2-.1-.4-.2-.6-.4-.1-.1-.2-.2-.2-.3-.1-.1-.1-.2-.2-.3 0-.1-.1-.3 0-.4 0-.2.1-.3.1-.4.1-.2.3-.4.5-.5.2-.1.3-.2.5-.3.3-.2.7-.4 1-.5l.1-.1.1-.1c.1-.1.2-.1.3-.1.2-.1.4-.2.5-.2.7-.3 1.5-.5 2.2-.7.8-.2 1.5-.3 2.3-.4H130.1l.1.1c0 .1.1.1.1.2v.2c0 .1 0 .1-.1.1 0 0 0 .1-.1.1l-.1.1c-.1 0-.1 0-.1.1-.1 0-.1 0-.2.1-.2.1-.4.1-.6.1-.4.1-.7.1-1.1.2l-.5.1c-.2 0-.4.1-.5.1l.1-.1c0-.1.1-.1.1-.3 0-.1-.1-.2-.1-.3l-.1-.1h3l-.4.7c-.8-1.3-1.6-2.6-2.3-4-.7-1.4-1.4-2.7-2-4.2-.3-.7-.6-1.4-.8-2.2-.1-.4-.2-.8-.3-1.1-.1-.4-.1-.8-.2-1.2 0-.8.1-1.6.3-2.4.2-.8.5-1.5.8-2.2.6-1.4 1.3-2.8 2.1-4.1.8-1.3 1.6-2.6 2.5-3.8.4-.6.9-1.2 1.4-1.9l1.5-1.8c.5-.6 1.1-1.1 1.6-1.6.6-.5 1.2-1 1.9-1.4.1 0 .2-.1.3-.1.1 0 .2-.1.2-.1.2-.1.3-.2.4-.3.3-.2.6-.5.8-.7.5-.5 1-1.1 1.4-1.7l.6-.9c.2-.3.3-.7.4-1 .1-.2.1-.3.1-.5v-.2-.3c0-.4.1-.8.2-1.2.1-.2.2-.4.3-.5.1-.2.3-.3.6-.4.2-.1.5 0 .7.1.2.1.4.2.5.4.1.2.3.4.3.6v.6l.1 1.1c-.1.7-.2 1.5-.3 2.2 0 .4 0 .7.1 1.1 0 .2.1.3.2.5 0 .1.1.2.1.2 0 .1.1.1.2.2.3.3.6.5.9.6.3.2.7.3 1 .3.4 0 .7 0 1.1-.1.3-.1.7-.3 1-.5.6-.4 1.1-.9 1.6-1.5s.8-1.2 1.2-1.9c.6-1.4 1-2.8 1.2-4.3.1-.8.2-1.5.3-2.3.1-.8.2-1.5.2-2.3v-.1c.1-.2.2-.3.3-.5.1-.2.3-.3.4-.4l.6-.3c.2-.1.4-.1.7-.1.1 0 .2 0 .3.1H154.4c.2.1.4.1.5.2.2.1.4.1.5.2.1 0 .2.1.3.1l.1.1s.1 0 .1.1l.2.1-.1.3c-.4 1-.8 2-1.2 3.1l-.2.4c0 .1-.1.1-.1.2l-.1.2c-.1.2-.2.5-.3.8l-.6 1.5c-.4 1-.8 2-1.1 3.1-.2.5-.3 1-.5 1.5l-.1.4-.1.4c-.1.3-.1.5-.1.8-.1 1-.1 2.1.2 3.1.1.5.3 1 .4 1.5.2.5.4 1 .5 1.5.7 2.1 1.3 4.2 1.7 6.4.2 1.1.3 2.2.4 3.3.1 1.1 0 2.3-.2 3.4-.3 2.2-1.1 4.4-2.1 6.4-.5 1-1.1 2-1.8 2.9-.7.9-1.5 1.7-2.3 2.5-.4.4-.8.8-1.2 1.1-.4.4-.8.7-1.2 1.1l-.5.5c-.1.1-.2.2-.2.3v.2c-.1.2-.2.5-.3.7 0 .1-.1.2-.1.4v.4-.2-.1l.1.1s.1.1.2.1.1.1.2.1.1.1.2.1.1.1.2.1c.1.1.3.1.4.2.5.2 1.1.4 1.7.5 1.2.3 2.3.6 3.5.9 1.2.3 2.4.6 3.6 1 1.2.4 2.4.9 3.4 1.6.3.2.5.4.8.6.3.2.5.4.7.6.5.4 1 .8 1.4 1.2.2.2.4.5.7.7l.6.9c.1.2.1.4.1.6 0 .2-.1.5-.1.7-.1.2-.2.4-.4.6-.2.2-.4.3-.6.3-.2.1-.4.1-.6.1-.2 0-.4 0-.5-.1-.3-.1-.6-.2-1-.3-.6-.2-1.2-.5-1.7-.7-.3-.1-.6-.3-.8-.4-.3-.1-.5-.2-.8-.3-.6-.2-1.1-.4-1.7-.6-1.1-.4-2.3-.7-3.5-1-1.2-.3-2.4-.6-3.5-.8-1.2-.2-2.4-.5-3.6-.6-.3 0-.6-.1-.9-.1-.3 0-.6-.1-.9-.1-.6-.1-1.2-.1-1.8-.1-.3 0-.6 0-.9-.1h-.4c-.1 0-.2 0-.3-.1-.1 0-.2-.1-.2-.1-.1 0-.2-.1-.2-.1l-.1-.1-.1-.1c-.1-.1-.3-.2-.4-.3-.3-.2-.5-.4-.7-.7-.1-.2-.2-.3-.2-.5s-.1-.4 0-.5c0-.4.1-.7.2-1 .2-.6.6-1.1.9-1.7.3-.5.6-1 1-1.6.2-.3.3-.5.5-.8.1-.1.2-.3.2-.4v-.1.2h-.1c-.3-.1-.6-.2-.8-.2-.3-.1-.6-.1-.9-.2L136 61l.2-.3c.1.1.1.2.1.3 0 .1.1.2.1.3.1.2.1.4.2.5.1.4.1.7.2 1.1v2.2c0 .4 0 .7-.1 1.1-.1.4-.3.7-.6 1-.3.3-.6.4-1 .5-.2 0-.4.1-.5.1h-.4l-.8-.4zm.1-.1h.5c.2 0 .3-.1.5-.1.3-.1.7-.2.9-.5.2-.2.4-.6.5-.9.1-.3.1-.7.1-1v-1.1-1.1c0-.4-.1-.7-.2-1 0-.2-.1-.3-.2-.5 0-.1-.1-.2-.1-.2 0-.1-.1-.2-.1-.2l-.2-.3h.4c.6.1 1.2.2 1.8.2.3 0 .6.1.9.1.3.1.6.1.9.2 0 0 .1 0 .1.1h.2l.1.1V61.4c0 .1 0 .1-.1.1-.1.1-.2.3-.3.4-.2.3-.3.5-.5.8-.3.5-.6 1-.9 1.6-.1.3-.3.5-.4.8-.1.3-.3.5-.4.8-.1.3-.2.5-.2.8 0 .3 0 .5.2.7.1.2.3.4.6.5.1.1.2.2.4.2l.1.1h.1c.1 0 .1.1.2.1.2.1.5.1.8.2h.9c.6 0 1.2.1 1.8.1.3 0 .6.1.9.1.3 0 .6.1.9.1l3.6.6c1.2.2 2.4.5 3.6.8 1.2.3 2.4.6 3.6 1l1.8.6c.3.1.6.2.9.4.3.1.5.3.8.4.5.2 1.1.5 1.7.7.3.1.5.2.8.2.3 0 .5.1.7 0 .1 0 .1 0 .2-.1 0 0 .1-.1.1-.2V73c0-.1 0-.2-.1-.3-.1-.2-.2-.4-.4-.6l-.6-.6c-.4-.4-.9-.8-1.3-1.2-.5-.4-.9-.7-1.4-1.1-1-.6-2-1.1-3.2-1.5-1.1-.4-2.3-.7-3.5-.9-1.2-.3-2.4-.5-3.6-.9-.6-.2-1.2-.3-1.8-.6-.1-.1-.3-.1-.4-.2-.1 0-.1-.1-.2-.1s-.1-.1-.2-.1-.2-.1-.2-.1c-.1 0-.2-.1-.2-.1-.1 0-.2-.1-.2-.2l-.1-.1s0-.1-.1-.1v-.1-.4c0-.1 0-.2.1-.2l.1-.2c0-.1.1-.3.1-.4.1-.3.2-.5.3-.8v-.1-.2c0-.1 0-.1.1-.1 0 0 0-.1.1-.1.1-.2.2-.3.3-.4l.6-.6c.4-.4.8-.7 1.3-1.1.4-.4.8-.7 1.2-1.1.8-.7 1.5-1.5 2.2-2.3.6-.8 1.2-1.8 1.7-2.7.5-.9.9-1.9 1.2-2.9.3-1 .6-2 .8-3.1.2-1 .2-2.1.2-3.2-.1-1.1-.2-2.1-.4-3.2-.4-2.1-.9-4.2-1.6-6.3-.3-1-.7-2.1-1-3.2-.2-1.1-.3-2.3-.1-3.4 0-.3.1-.6.2-.8l.1-.4.1-.4c.2-.5.4-1 .5-1.6.4-1 .8-2.1 1.2-3.1l.6-1.5c.1-.3.2-.5.3-.8l.2-.4.2-.4c.4-1 .9-2 1.3-3l.1.3s-.1 0-.1-.1l-.1-.1c-.1 0-.2-.1-.2-.1-.2-.1-.3-.1-.5-.2s-.3-.1-.5-.2H154.3c-.1 0-.1 0-.2-.1-.3 0-.6.1-.9.2-.1.1-.3.2-.4.3-.1.1-.2.3-.3.4v-.1c-.1 1.5-.4 3-.6 4.5-.2 1.5-.6 3-1.3 4.4-.3.7-.7 1.4-1.2 2-.5.6-1 1.2-1.7 1.6-.3.2-.7.4-1.1.5-.4.1-.8.2-1.2.2-.4 0-.8-.1-1.2-.3-.4-.2-.7-.4-1-.7-.1-.1-.2-.1-.2-.2-.1-.1-.1-.2-.2-.3-.1-.2-.1-.4-.2-.6-.1-.4-.1-.8-.1-1.2 0-.8.1-1.5.3-2.3l.2-1.1v-.3-.2c0-.1-.1-.3-.2-.4-.2-.2-.6-.4-.8-.3-.3.1-.5.4-.6.7-.1.3-.2.7-.2 1.1V23.8c0 .2-.1.4-.1.6-.1.4-.3.7-.5 1.1-.2.3-.4.7-.6 1-.4.6-.9 1.2-1.5 1.8-.3.3-.6.5-.9.8-.2.1-.3.2-.5.3-.1.1-.2.1-.3.1-.1 0-.2.1-.2.1-.6.3-1.2.8-1.8 1.3-.6.5-1.1 1-1.6 1.6-.5.6-1 1.2-1.4 1.8-.4.6-.9 1.2-1.3 1.9-.8 1.3-1.6 2.5-2.4 3.9-.7 1.3-1.4 2.7-2 4-.3.7-.5 1.4-.7 2.1-.2.7-.3 1.4-.3 2.1 0 .7.2 1.4.4 2.1.2.7.5 1.4.8 2.1.6 1.4 1.2 2.7 2 4.1.4.7.7 1.3 1.1 2 .4.7.7 1.3 1.1 2l.4.7h-4-.2-.1s-.1 0-.1-.1c0 0-.1-.2-.1-.3 0-.2 0-.2.1-.3l.1-.1h.1c.1 0 .1 0 .1-.1h.1c.2-.1.4-.1.6-.1l.6-.1c.4-.1.7-.1 1.1-.2.2 0 .4-.1.5-.1h.1l-.1.1v.1s0 .1-.1.1v.2c0 .1 0 .1.1.2 0 0 0 .1.1.1h-2.1c-.7.1-1.5.2-2.2.3l-2.1.6c-.2.1-.3.1-.5.2-.1 0-.2.1-.2.1l-.1.1-.1.1c-.4.2-.7.3-1 .5-.2.1-.3.2-.4.3l-.3.3c-.1.1-.1.1 0 .2 0 .1.1.2.2.3.2.2.5.4.8.4.3.1.7.1 1 .2.7 0 1.5 0 2.2-.1.4 0 .7-.1 1.1-.1l.6-.1h.6c.1-.1.2.9.1.5-.4.1-.7.2-1.1.3-.2.1-.3.1-.5.2-.1 0-.2.1-.2.1s-.1 0-.1.1c.1 0 .1.1.2.1.2.1.3.1.5.2.4.1.7.2 1.1.2.7.2 1.5.3 2.2.5.7.2 1.5.4 2.2.6.4.1.7.2 1.1.3l.5.2.3.1h.1c-.3-.1-.3-.1-.2-.1z"/><circle class="st20" cx="142.7" cy="18.7" r="4.1"/><path class="st21" d="M146.8 19.4c.1-.5.1-1.1-.1-1.6-.1-.5-.4-1-.7-1.4-.7-.8-1.6-1.3-2.6-1.5-.5-.1-1-.1-1.5 0s-1 .3-1.4.6c-.4.3-.8.7-1.1 1.1-.3.5-.4 1-.5 1.5-.1 1 .2 2.1.8 2.9.6.8 1.5 1.4 2.5 1.5 1 .2 2 0 2.9-.6.4-.3.8-.6 1.1-1.1.3-.4.5-.9.6-1.4zm0 0c-.1.5-.3 1.1-.5 1.5-.3.5-.6.9-1.1 1.3-.4.4-1 .6-1.5.8-.6.1-1.1.2-1.7.1-.6-.1-1.1-.3-1.6-.6s-.9-.7-1.2-1.2c-.3-.5-.6-1-.7-1.6-.1-.6-.1-1.1 0-1.7.2-1.1.9-2.1 1.8-2.7.4-.3.9-.6 1.5-.7.5-.2 1.1-.2 1.7-.1.6.1 1.1.3 1.6.6s.9.7 1.2 1.2c.3.5.5 1 .6 1.5 0 .5 0 1-.1 1.6z"/><circle class="st22" cx="141.3" cy="17.6" r="1.2"/><circle class="st20" cx="141.1" cy="17.4" r=".4"/><circle class="st20" cx="154.1" cy="12.4" r="4.3"/><path class="st21" d="M158.3 13.2c.1-.5.1-1.1-.1-1.7-.1-.5-.4-1-.7-1.5-.7-.9-1.6-1.4-2.6-1.7-.5-.1-1.1-.1-1.6-.1-.5.1-1.1.3-1.5.6-.5.3-.9.7-1.1 1.2-.3.5-.5 1-.6 1.5-.2 1.1.1 2.2.7 3 .3.4.7.8 1.1 1.1.4.3.9.5 1.4.6.5.1 1 .1 1.6 0 .5-.1 1-.3 1.5-.5.5-.3.9-.6 1.2-1.1.3-.3.6-.9.7-1.4zm0 0c-.1.6-.3 1.1-.6 1.6s-.7.9-1.1 1.3c-.5.4-1 .6-1.6.8-.6.1-1.2.1-1.8 0-.6-.1-1.2-.3-1.7-.7-.5-.3-.9-.8-1.2-1.3-.3-.5-.6-1.1-.7-1.6-.1-.6-.1-1.2.1-1.7.3-1.1 1-2.1 1.9-2.8.5-.3 1-.6 1.6-.7.6-.1 1.2-.2 1.7-.1.6.1 1.1.3 1.6.6s.9.8 1.2 1.3c.3.5.5 1.1.6 1.6.1.6.1 1.2 0 1.7z"/><circle class="st22" cx="152.6" cy="11.2" r="1.3"/><circle class="st20" cx="152.4" cy="11.1" r=".4"/><circle transform="rotate(-78.416 138.652 38.304)" class="st2" cx="138.6" cy="38.3" r=".6"/><circle class="st2" cx="133.9" cy="38.2" r=".3"/><ellipse transform="rotate(-78.416 134.595 35.59)" class="st2" cx="134.6" cy="35.6" rx=".4" ry=".1"/><ellipse transform="rotate(-78.416 138.098 33.2)" class="st2" cx="138.1" cy="33.2" rx=".5" ry=".4"/><ellipse transform="rotate(-78.416 140.043 31.058)" class="st2" cx="140" cy="31.1" rx=".2" ry=".4"/><ellipse transform="rotate(-78.416 142.624 32.246)" class="st2" cx="142.6" cy="32.2" rx=".5" ry=".4"/><ellipse transform="rotate(-78.416 140.52 35.392)" class="st2" cx="140.5" cy="35.4" rx=".4" ry=".3"/><circle class="st2" cx="143.8" cy="35.1" r=".5"/><ellipse transform="rotate(-78.416 145.427 38.092)" class="st2" cx="145.4" cy="38.1" rx=".5" ry=".4"/><g><ellipse transform="rotate(-78.416 142.595 38.36)" class="st2" cx="142.6" cy="38.4" rx=".3" ry=".2"/></g><g><ellipse transform="rotate(-78.416 140.436 41.541)" class="st2" cx="140.4" cy="41.5" rx=".2" ry=".3"/></g><g><circle class="st2" cx="148.2" cy="41.4" r=".2"/></g><g><circle transform="rotate(-78.416 149.076 38.888)" class="st2" cx="149.1" cy="38.9" r=".2"/></g><g><ellipse transform="rotate(-78.416 148.07 35.763)" class="st2" cx="148.1" cy="35.8" rx=".3" ry=".2"/></g><g><ellipse transform="rotate(-78.416 147.83 32.795)" class="st2" cx="147.8" cy="32.8" rx=".5" ry=".4"/></g><g><path d="M147.1 49.9c0-.1.1-.3.1-.4.2-1.6-.8-2.2-2.2-2.2-1.8.1-3.6.8-5.4.8-2.5.1-4.8-.8-6.6-2.7 0 0 1.5 10 8.7 7.1 1.7-.6 4.7-.5 5.4-2.6z" fill="#ba4605"/></g><g><path d="M143.3 81.9s-5.5-1.1-13.3-3.2c-7.8-2.2-10.1-4.3-13.8-5.4-3.7-1.1-6.9-6.5-1.8-10.8s6.4-9.7 13.3-9.7 11.5 4.3 17 2.2c5.5-2.2 8.7-3.2 9.7 8.7.9 11.7-11.1 18.2-11.1 18.2z" fill="#fff0e4"/><path d="M162.7 72.2s.9 7.6-7.8 9.7c-8.7 2.2-12.4 0-14.7-1.1-2.3-1.1 3.7-2.2 6-6.5s3.2-1.1 2.8-7.6 2.8-16.2 5.1-10.8 1.8 10.8 4.6 11.9c2.6 1.1 4 4.4 4 4.4z" fill="#ff8e4d"/><path class="st19" d="M162.5 72.2l-.1-.1-.1-.1c-.1-.1-.1-.2-.2-.3-.1-.1-.1-.2-.2-.3-.1-.1-.1-.2-.2-.3-.1-.2-.3-.3-.4-.5l-.5-.5c-.6-.6-1.3-1.1-2.1-1.4-.1 0-.2-.1-.3-.1H158.1c-.1-.1-.3-.1-.4-.2-.1 0-.1-.1-.2-.1s-.1-.1-.2-.1c-.5-.4-.9-.8-1.2-1.3-.3-.5-.5-.9-.7-1.4-.2-.5-.3-.9-.5-1.4-.3-.9-.5-1.8-.8-2.7-.1-.4-.2-.9-.4-1.3-.1-.4-.3-.8-.4-1.3-.1-.4-.3-.8-.4-1.2-.2-.4-.3-.8-.5-1.2-.1-.2-.2-.3-.2-.4l-.2-.2H152.6c.1 0 .2 0 .2-.1l-2-.3c-.1-.1-.2-.2-.3-.2-.1-.1-.2-.1-.3-.1-.1 0-.2-.1-.3-.1h-.8c-.2 0-.3 0-.5.1-.3.1-.7.2-1.1.3-.7.2-1.5.5-2.3.8-1 .4-2 .6-3 .6h-1.5c-.2 0-.5-.1-.7-.1-.2 0-.5-.1-.7-.1-.9-.2-1.8-.5-2.6-.8-1.7-.6-3.2-1.3-4.8-1.8l-1.2-.3c-.2-.1-.4-.1-.6-.1l-.6-.1c-.2 0-.4-.1-.6-.1-.2 0-.4 0-.6-.1h-1.2c-.4 0-.8 0-1.2.1h-.3c-.1 0-.2 0-.3.1-.2 0-.4.1-.6.2-.8.2-1.5.6-2.2 1.1-.7.5-1.3 1-1.8 1.7-.6.6-1.1 1.3-1.6 2s-1.1 1.4-1.6 2.1c-.3.3-.6.7-.9 1-.1.2-.3.3-.4.5l-.2.2-.2.2-.5.5-.1.1-.1.1-.1.1-.2.2c-.3.3-.5.6-.7.9-.1.1-.1.2-.2.2 0 .1-.1.2-.1.2-.1.2-.2.3-.2.5-.2.3-.3.7-.3 1-.1.3-.1.7-.1 1 0 .3.1.7.2 1 .2.6.5 1.2.9 1.7.2.3.5.5.7.7.3.2.5.4.8.6.3.2.6.3.9.4l.6.2.3.1.3.1c.9.3 1.7.7 2.6 1 .8.4 1.6.7 2.4 1 1.5.7 3.1 1.2 4.7 1.7s3.2.9 4.9 1.4c3.3.9 6.6 1.7 9.9 2.5l.2.1.1.1c.5.2.9.4 1.4.6.2.1.5.2.7.2.2.1.5.1.7.2 1 .2 2 .3 3 .4 1 0 2.1 0 3.2-.1.3 0 .5 0 .8-.1l.8-.1c.3 0 .5-.1.8-.1l.4-.1c.1 0 .3 0 .4-.1.5-.1 1-.2 1.5-.4l.4-.1c.1 0 .2-.1.4-.1.1 0 .2-.1.4-.1l.3-.2c.1 0 .2-.1.3-.2.1-.1.2-.1.3-.2.2-.1.4-.3.6-.4.2-.1.4-.3.6-.5.2-.2.4-.3.6-.5.7-.7 1.3-1.6 1.7-2.6.2-.5.4-1 .5-1.5.1-.3.1-.5.2-.8v-.4-.2l-.2-.3zm.3-.1V73.8c0 .6-.1 1.2-.2 1.8-.1.6-.3 1.2-.5 1.7-.2.6-.5 1.1-.9 1.6-.2.3-.4.5-.6.7-.2.2-.4.5-.7.7-.2.2-.5.4-.7.6-.1.1-.3.2-.4.3-.1.1-.3.2-.4.3-1 .7-2.2 1.2-3.4 1.6-.1.1-.3.1-.4.1l-.4.1c-.3.1-.6.2-.8.2l-.9.2c-.3.1-.6.1-.9.2l-.4.1-.4.1-.4.1c-.1 0-.3 0-.4.1-.3 0-.6.1-.9.1l-.9.1c-1.2.1-2.5 0-3.7-.2-.3-.1-.6-.1-.9-.2-.3-.1-.6-.1-.9-.2l-1.8-.6.4.1c-3.4-.7-6.8-1.4-10.2-2.4-1.7-.5-3.4-1-5.1-1.6-.2-.1-.4-.2-.6-.2l-.6-.2c-.4-.2-.8-.3-1.2-.5-.8-.4-1.6-.7-2.4-1.1-.8-.4-1.6-.8-2.3-1.2-.8-.4-1.5-.7-2.2-1l-.3-.1-.4-.1-.7-.2c-.5-.2-1-.5-1.5-.8-.5-.3-.9-.6-1.2-1-.4-.4-.7-.8-1-1.2-.6-.9-1-1.9-1.1-3-.1-.5-.1-1.1-.1-1.6.1-.5.2-1.1.3-1.6.2-.5.4-1 .7-1.4.1-.2.3-.4.4-.6.1-.1.2-.2.2-.3.1-.1.2-.2.2-.3.3-.4.7-.7 1-1l.3-.2.1-.1h.1l.1-.1c.2-.1.3-.3.5-.4l.2-.2.2-.2c.2-.1.3-.3.5-.4l.9-.9c.6-.6 1.2-1.2 1.7-1.9.6-.6 1.2-1.3 1.8-1.9.6-.6 1.3-1.2 2-1.8.4-.3.8-.5 1.2-.7l.2-.1.2-.1.3-.1c.1 0 .2-.1.3-.1.1 0 .2-.1.3-.1.9-.3 1.8-.5 2.7-.6h3.5l.7.1c.4.1.9.1 1.3.2 1.8.3 3.5.8 5.1 1.1.8.2 1.6.3 2.4.4h1.2c.4 0 .7 0 1.1-.1.7-.1 1.4-.3 2-.5.8-.3 1.6-.7 2.5-.9.4-.1.9-.3 1.4-.4.3 0 .5-.1.8-.1h.9c.6 0 1.3.1 1.9.4.3.1.6.3.9.5.3.2.5.4.7.6l-2-.3c.2-.1.5-.2.8-.3h.5c.2 0 .3 0 .5.1.1 0 .2 0 .2.1.1 0 .1.1.2.1h.1l.1.1c.1 0 .1.1.2.1.1.1.2.1.3.2l.2.2c.3.3.5.6.6.9.2.3.3.5.4.8.4.9.7 1.8.9 2.8.1.5.2.9.3 1.4.1.5.2.9.3 1.4.2.9.3 1.8.5 2.7.1.4.2.9.3 1.3.1.4.2.8.4 1.1.1.3.3.6.5.8l.1.1s.1 0 .1.1c.1.1.1.1.2.1h.1l.2.1c.1.1.2.1.3.2.9.6 1.6 1.3 2.1 2.1.3.4.5.8.7 1.2.1.2.2.4.3.7 0 .1.1.2.1.3l.1.2v.1z"/><path class="st3" d="M127.7 56.2s-8.7 3.1-8.7 10.2 3.5-4.8 7.4-5.8c3.9-1 3.5 3.7 7.4.7 3.9-3-6.1-5.1-6.1-5.1z"/></g></g><path class="st3" d="M206.5 1C198.4-.6 190-.2 182 1.6c-3.1.7-6.2 1.7-9.2 3-2.6 1.2-5 2.7-6.7 5.2-3 4.2-3.4 9.8-2.7 14.8.3 2 .7 3.9 1.3 5.8.9 2.9 2.5 5.2 5.1 6.4 2.2 1.1 5.6.9 6.8 3.7.6 1.4.3 3.1-.3 4.5 0 .1-.1.2-.1.3 3.4-2.8 8-4.4 12.3-4.8 4.1-.4 8.1.5 12.2.2 3.1-.2 6.2-1 8.9-2.7 4.1-2.5 6.7-6.7 7.9-11.4 1.1-4.4 1.7-9 .9-13.5-.4-2.5-1.3-4.9-2.7-6.8-1.7-2.3-4-3.8-6.6-4.6-1-.3-1.8-.6-2.6-.7"/><g><path class="st26" d="M179.9 18.3h-1.5c-.1 0-.1.1-.1.1v6.5c0 .1.1.1.1.1h1.5c.1 0 .1-.1.1-.1v-6.5c0-.1 0-.1-.1-.1z"/><path class="st26" d="M180 15.8h-1.6c-.1 0-.1.1-.1.1v.2h-1.7s-.1 0-.1.1l-2.3 3.7-2.3-3.7-.1-.1H170s-.1 0-.1.1v.1l3.4 5.2v3.4c0 .1.1.1.1.1h1.5c.1 0 .1-.1.1-.1v-3.4l3.3-5v.9c0 .1.1.1.1.1h1.6c.1 0 .1-.1.1-.1V16c0-.1-.1-.2-.1-.2zM186.9 19c-.3-.3-.6-.5-1-.7-.4-.2-.8-.2-1.2-.2-.5 0-1 .1-1.4.4-.3.2-.5.4-.7.6v-.7c0-.1-.1-.1-.1-.1H181c-.1 0-.1.1-.1.1v8.5c0 .1.1.1.1.1h1.6v-2.7c.2.2.4.4.7.6.4.2.8.4 1.4.4.4 0 .8-.1 1.2-.2.4-.2.7-.4 1-.7.3-.3.5-.7.7-1.1.2-.4.3-.9.3-1.5s-.1-1.1-.3-1.5c-.1-.6-.4-1-.7-1.3zm-2.5.7c.2 0 .5 0 .7.1s.4.2.6.4c.2.2.3.4.4.6.1.2.1.5.1.8 0 .3 0 .6-.1.8-.1.2-.2.5-.4.6-.2.2-.3.3-.6.4-.4.2-.9.2-1.3 0-.2-.1-.4-.2-.6-.4-.2-.2-.3-.4-.4-.6-.1-.2-.1-.5-.1-.8 0-.3 0-.6.1-.8.1-.2.2-.4.4-.6.2-.2.3-.3.6-.4.2-.1.4-.1.6-.1zM194.4 19c-.3-.3-.6-.5-1-.7-.4-.2-.8-.2-1.2-.2-.5 0-1 .1-1.4.4-.3.2-.5.4-.7.6v-.7c0-.1-.1-.1-.1-.1h-1.5c-.1 0-.1.1-.1.1v8.5c0 .1.1.1.1.1h1.6v-2.7c.2.2.4.4.7.6.4.2.8.4 1.4.4.4 0 .8-.1 1.2-.2.4-.2.7-.4 1-.7.3-.3.5-.7.7-1.1.2-.4.3-.9.3-1.5s-.1-1.1-.3-1.5c-.2-.6-.4-1-.7-1.3zm-2.5.7c.2 0 .5 0 .7.1s.4.2.6.4c.2.2.3.4.4.6.1.2.1.5.1.8 0 .3 0 .6-.1.8-.1.2-.2.5-.4.6-.2.2-.3.3-.6.4-.4.2-.9.2-1.3 0-.2-.1-.4-.2-.6-.4-.2-.2-.3-.4-.4-.6-.1-.2-.1-.5-.1-.8 0-.3 0-.6.1-.8.1-.2.2-.4.4-.6.2-.2.3-.3.6-.4.1-.1.4-.1.6-.1zM201.3 19.2c-.3-.3-.6-.6-1-.8-.4-.2-.9-.3-1.4-.3-.5 0-.9.1-1.3.3-.4.2-.8.4-1 .8-.3.3-.5.7-.7 1.1-.2.4-.2.9-.2 1.4 0 .5.1 1 .3 1.4.2.4.4.8.7 1.1.3.3.7.5 1.1.7s.9.3 1.4.3c.6 0 1.2-.1 1.6-.3.4-.2.8-.5 1.2-.9v-.2l-.9-.8h-.2c-.3.2-.5.4-.8.6-.3.1-.6.2-.9.2-.5 0-.8-.1-1.2-.4-.3-.2-.5-.6-.6-1h4.6c.1 0 .1 0 .1-.1v-.2-.2c0-.5-.1-.9-.2-1.4-.2-.6-.4-1-.6-1.3zm-4 1.9c.1-.4.2-.8.5-1 .3-.3.6-.4 1-.4.2 0 .4 0 .6.1.2.1.3.2.5.3.1.1.2.3.3.5.1.2.1.3.1.5h-3zM207.9 19.2c-.3-.3-.6-.6-1-.8-.4-.2-.9-.3-1.4-.3-.5 0-.9.1-1.3.3-.4.2-.8.4-1 .8-.3.3-.5.7-.7 1.1-.2.4-.2.9-.2 1.4 0 .5.1 1 .3 1.4.2.4.4.8.7 1.1.3.3.7.5 1.1.7s.9.3 1.4.3c.6 0 1.2-.1 1.6-.3.4-.2.8-.5 1.2-.9v-.2l-.9-.8h-.2c-.3.2-.5.4-.8.6-.3.1-.6.2-.9.2-.5 0-.8-.1-1.2-.4-.3-.2-.5-.6-.6-1h4.6c.1 0 .1 0 .1-.1v-.2-.2c0-.5-.1-.9-.2-1.4-.1-.6-.3-1-.6-1.3zm-4 1.9c.1-.4.2-.8.5-1 .3-.3.6-.4 1-.4.2 0 .4 0 .6.1.2.1.3.2.5.3.1.1.2.3.3.5.1.2.1.3.1.5h-3zM211.1 23.1h-1.6c-.1 0-.1.1-.1.1v1.7c0 .1.1.1.1.1h1.6c.1 0 .1-.1.1-.1v-1.7c0-.1-.1-.1-.1-.1zM211.1 16.1h-1.8c-.1 0-.1.1-.1.1v.4l.5 5.5c0 .1.1.1.1.1h.8c.1 0 .1-.1.1-.1l.5-5.5v-.4s0-.1-.1-.1z"/></g><g><path class="st3" d="M11.1 72H9.2c-.1 0-.2.1-.2.2v4.4H4.2v-4.4c0-.1-.1-.2-.2-.2H2.1c-.1 0-.2.1-.2.2v10.9c0 .1.1.2.2.2H4c.1 0 .2-.1.2-.2v-4.4h4.9v4.4c0 .1.1.2.2.2h1.9c.1 0 .2-.1.2-.2V72.2c-.1-.1-.2-.2-.3-.2zM19.4 75.9c-.3-.4-.8-.8-1.3-1-.5-.2-1.1-.4-1.8-.4-.6 0-1.2.1-1.7.4-.5.2-1 .6-1.3 1-.4.4-.7.9-.9 1.4-.2.5-.3 1.1-.3 1.7 0 .7.1 1.3.3 1.8.2.5.5 1 .9 1.4.4.4.9.7 1.4.9.5.2 1.1.3 1.7.3.8 0 1.5-.1 2-.4.6-.3 1.1-.7 1.5-1.2.1-.1 0-.2 0-.2l-1.1-1c-.1-.1-.2-.1-.2 0-.3.3-.6.5-1 .7-.3.2-.7.2-1.1.2-.6 0-1.1-.2-1.5-.5-.4-.3-.6-.7-.7-1.3h5.9c.1 0 .2-.1.2-.1v-.3-.3c0-.6-.1-1.2-.3-1.7-.1-.5-.4-1-.7-1.4zm-5.1 2.3c.1-.5.3-1 .6-1.3.4-.4.8-.5 1.3-.5.3 0 .5.1.8.2.2.1.4.2.6.4.2.2.3.4.4.6.1.2.1.4.2.6h-3.9zM23.2 71.6h-1.9c-.1 0-.2.1-.2.2v11.4c0 .1.1.2.2.2h1.9c.1 0 .2-.1.2-.2V71.7c-.1-.1-.1-.1-.2-.1zM32.1 75.7c-.4-.4-.8-.7-1.3-.9-.5-.2-1-.3-1.5-.3-.7 0-1.3.2-1.8.5-.3.2-.6.5-.9.8v-.9c0-.1-.1-.2-.2-.2h-1.9c-.1 0-.2.1-.2.2v10.7c0 .1.1.2.2.2h2v-3.4c.2.3.5.5.9.7.5.3 1.1.5 1.8.5.5 0 1-.1 1.5-.3.5-.2.9-.5 1.3-.9s.7-.9.9-1.4c.2-.5.3-1.2.3-1.9s-.1-1.3-.3-1.9c-.1-.6-.5-1.1-.8-1.5zm-1 3.3c0 .4-.1.7-.2 1-.1.3-.3.6-.5.8-.2.2-.4.4-.7.5-.5.2-1.2.2-1.7 0-.3-.1-.5-.3-.7-.5-.2-.2-.4-.5-.5-.8-.1-.3-.2-.6-.2-1s.1-.7.2-1c.1-.3.3-.6.5-.8.2-.2.4-.4.7-.5.3-.1.6-.2.9-.2.3 0 .6.1.8.2.3.1.5.3.7.5.2.2.4.5.5.8s.2.6.2 1zM36.2 71.6h-2c-.1 0-.2.1-.2.2v1.8c0 .1.1.2.2.2h2c.1 0 .2-.1.2-.2v-1.8l-.2-.2zM36.1 74.7h-1.9c-.1 0-.2.1-.2.2v8.2c0 .1.1.2.2.2h1.9c.1 0 .2-.1.2-.2v-8.2c0-.1-.1-.2-.2-.2zM42 74.5c-.3 0-.6 0-.9.1-.3.1-.5.2-.7.3-.2.1-.4.3-.6.5l-.2.2v-.8c0-.1-.1-.2-.2-.2h-1.9c-.1 0-.2.1-.2.2V83c0 .1.1.2.2.2h1.9c.1 0 .2-.1.2-.2v-4.6c0-.6.2-1.1.5-1.4.3-.3.7-.5 1.2-.5s.9.2 1.2.5c.3.3.4.8.4 1.4v4.7c0 .1.1.2.2.2H45c.1 0 .2-.1.2-.2v-5.2c0-1-.3-1.8-.8-2.4-.7-.7-1.4-1-2.4-1zM54.3 74.7h-1.9c-.1 0-.2.1-.2.2v.8c-.3-.3-.6-.5-.9-.7-.5-.3-1.1-.4-1.8-.4-.5 0-1 .1-1.5.3-.5.2-.9.5-1.3.8-.4.3-.7.8-.9 1.3-.2.5-.3 1.1-.3 1.7s.1 1.2.3 1.7c.2.5.5.9.9 1.3.4.3.8.6 1.2.8.5.2 1 .3 1.5.3.7 0 1.3-.2 1.8-.5.3-.2.7-.5 1-.8v.2c0 .8-.2 1.4-.6 1.8-.4.4-1 .6-1.8.6-.5 0-1.1-.1-1.5-.2-.5-.2-.9-.4-1.3-.6h-.1s-.1 0-.1.1l-.8 1.2c0 .1 0 .2.1.2 1.1.7 2.4 1 3.8 1s2.6-.4 3.4-1.1c.8-.7 1.2-1.8 1.2-3.3v-6.6c-.1 0-.1-.1-.2-.1zm-5.1 5.8c-.3-.1-.5-.2-.7-.4-.2-.2-.3-.4-.5-.7-.1-.3-.2-.5-.2-.9 0-.3.1-.6.2-.9.1-.3.3-.5.5-.7.2-.2.4-.3.7-.4.3-.1.6-.2.9-.2.3 0 .6.1.9.2.3.1.5.2.7.4.2.2.4.4.5.7.1.3.2.6.2.9s-.1.6-.2.9c-.1.3-.3.5-.5.7-.2.2-.4.3-.7.4-.7.2-1.3.2-1.8 0zM66.8 75.7c-.4-.4-.8-.7-1.3-.9-.5-.2-1-.3-1.5-.3-.7 0-1.3.2-1.8.5-.3.2-.6.5-.9.8v-.9c0-.1-.1-.2-.2-.2h-1.9c-.1 0-.2.1-.2.2v10.7c0 .1.1.2.2.2h2v-3.4c.2.3.5.5.9.7.5.3 1.1.5 1.8.5.5 0 1-.1 1.5-.3.5-.2.9-.5 1.3-.9s.7-.9.9-1.4c.2-.5.3-1.2.3-1.9s-.1-1.3-.3-1.9c-.2-.6-.5-1.1-.8-1.5zm-1 3.3c0 .4-.1.7-.2 1-.1.3-.3.6-.5.8-.2.2-.4.4-.7.5-.5.2-1.2.2-1.7 0-.3-.1-.5-.3-.7-.5-.2-.2-.4-.5-.5-.8-.1-.3-.2-.6-.2-1s.1-.7.2-1c.1-.3.3-.6.5-.8.2-.2.4-.4.7-.5.3-.1.6-.2.9-.2.3 0 .6.1.8.2.3.1.5.3.7.5.2.2.4.5.5.8s.2.6.2 1zM73.6 76.9c.1 0 .2-.1.2-.2v-2c0-.1-.1-.2-.2-.2-.8 0-1.4.2-1.9.5-.3.3-.6.6-.8 1v-1.2c0-.1-.1-.2-.2-.2h-1.9c-.1 0-.2.1-.2.2V83c0 .1.1.2.2.2h1.9c.1 0 .2-.1.2-.2v-3c0-.5.1-1 .2-1.4.1-.4.3-.7.5-1 .2-.3.5-.4.8-.6.3-.1.7-.2 1.1-.2h.1zM81.1 75.8c-.4-.4-.9-.7-1.4-1-.6-.2-1.2-.3-1.8-.3s-1.3.1-1.8.4c-.6.2-1 .6-1.4 1-.4.4-.7.9-1 1.4-.2.5-.3 1.1-.3 1.7 0 .6.1 1.2.3 1.7s.5 1 .9 1.4c.4.4.9.7 1.4 1 .6.2 1.2.3 1.8.3.7 0 1.3-.1 1.8-.4.6-.2 1-.6 1.4-1 .4-.4.7-.9 1-1.4.2-.5.3-1.1.3-1.7s-.1-1.2-.3-1.7c-.1-.5-.5-1-.9-1.4zm-4.2 5.5c-.3-.1-.5-.3-.7-.5-.2-.2-.4-.5-.5-.8-.1-.3-.2-.6-.2-1 0-.3.1-.7.2-1 .1-.3.3-.6.5-.8.2-.2.4-.4.7-.5.3-.1.6-.2.9-.2s.7.1.9.2c.3.1.5.3.7.5.2.2.4.5.5.8.1.3.2.6.2 1 0 .3-.1.7-.2 1-.1.3-.3.6-.5.8-.2.2-.4.4-.7.5-.4.3-1.2.3-1.8 0zM87.6 81.1c-.4.2-.7.3-1.1.3-.3 0-.5-.1-.6-.2-.1-.1-.2-.4-.2-.7v-3.9h2.1c.1 0 .2-.1.2-.2v-1.6c0-.1-.1-.2-.2-.2h-2.1v-2.1c0-.1-.1-.2-.2-.2h-1.9c-.1 0-.2.1-.2.2v2.1h-.9c-.1 0-.2.1-.2.2v1.6c0 .1.1.2.2.2h.9v4.2c0 .5.1.9.2 1.2.1.3.3.6.5.8.2.2.5.4.8.4.3.1.6.1 1 .1s.7 0 1-.1c.3-.1.6-.2.8-.3.1 0 .1-.1.1-.1v-1.5c0-.1 0-.1-.1-.1 0-.1-.1-.1-.1-.1z"/><path class="st3" d="M95 75.9c-.3-.4-.8-.8-1.3-1-.5-.2-1.1-.4-1.8-.4-.6 0-1.2.1-1.7.4-.5.2-1 .6-1.3 1-.4.4-.7.9-.9 1.4-.2.5-.3 1.1-.3 1.7 0 .7.1 1.3.3 1.8.2.5.5 1 .9 1.4.4.4.9.7 1.4.9.5.2 1.1.3 1.7.3.8 0 1.5-.1 2-.4.6-.3 1.1-.7 1.5-1.2.1-.1 0-.2 0-.2l-1.1-1c-.1-.1-.2-.1-.2 0-.3.3-.6.5-1 .7-.3.2-.7.2-1.1.2-.6 0-1.1-.2-1.5-.5-.4-.3-.6-.7-.7-1.3h5.9c.1 0 .2-.1.2-.1v-.3-.3c0-.6-.1-1.2-.3-1.7-.1-.5-.4-1-.7-1.4zm-5 2.3c.1-.5.3-1 .6-1.3.4-.4.8-.5 1.3-.5.3 0 .5.1.8.2.2.1.4.2.6.4.2.2.3.4.4.6.1.2.1.4.2.6H90zM109.2 76.6c.1 0 .2-.1.2-.2v-1.6c0-.1-.1-.2-.2-.2h-2.1v-2.1c0-.1-.1-.2-.2-.2H105c-.1 0-.2.1-.2.2v2.1h-.8c-.1 0-.2.1-.2.2v1c-.4-.4-.8-.7-1.2-.9-.5-.3-1.2-.4-2-.4-.6 0-1.2.1-1.8.4-.5.2-1 .6-1.4 1-.4.4-.7.9-.9 1.4-.2.5-.3 1.1-.3 1.7 0 .6.1 1.2.3 1.7.2.5.5 1 .9 1.4.4.4.9.7 1.4 1 .5.2 1.1.3 1.8.3.8 0 1.5-.2 2.1-.4.5-.3 1-.7 1.4-1.1.1-.1.1-.2 0-.2l-1.1-1.1c-.1-.1-.2-.1-.2 0-.3.3-.6.5-.9.7-.3.2-.7.3-1.1.3-.3 0-.7-.1-.9-.2-.3-.1-.5-.3-.7-.5-.2-.2-.4-.5-.5-.8-.1-.3-.2-.6-.2-1 0-.3.1-.7.2-1 .1-.3.3-.6.5-.8.2-.2.4-.4.7-.5.3-.1.6-.2.9-.2.4 0 .8.1 1.1.3.3.2.6.4.9.7h.1s.1 0 .1-.1l1-1.1v.1c0 .1.1.2.2.2h.9v4.2c0 .5.1.9.2 1.2.1.3.3.6.5.8.2.2.5.4.8.4.3.1.6.1 1 .1s.7 0 1-.1c.3-.1.6-.2.8-.3.1 0 .1-.1.1-.1v-1.5c0-.1 0-.1-.1-.1h-.2c-.4.2-.7.3-1.1.3-.3 0-.5-.1-.6-.2-.1-.1-.2-.4-.2-.7v-3.9h1.9z"/></g><g><path class="st3" d="M11.3 143.1c-.3-.7-.7-1.4-1.2-1.9s-1.1-.9-1.7-1.2c-.6-.3-1.3-.4-2-.4-.9 0-1.7.2-2.3.6-.4.3-.8.6-1.2 1v-5.4c0-.1-.1-.2-.2-.2H.2c-.1 0-.2.1-.2.2V151c0 .1.1.2.2.2h2.5c.1 0 .1 0 .2-.1 0 0 .1-.1.1-.2v-1.1c.3.3.7.7 1.1.9.6.4 1.4.6 2.4.6.7 0 1.3-.1 2-.4s1.2-.6 1.7-1.2c.5-.5.9-1.1 1.2-1.9.3-.7.4-1.6.4-2.5 0-.7-.2-1.5-.5-2.2zm-5.4-.8c.4 0 .8.1 1.1.2.4.2.7.4.9.7.3.3.5.6.6 1 .2.4.2.9.2 1.4 0 .5-.1 1-.2 1.4-.2.4-.4.8-.6 1-.3.3-.6.5-.9.7-.7.3-1.6.3-2.3 0-.4-.2-.7-.4-.9-.7-.3-.3-.5-.6-.7-1-.2-.4-.2-.9-.2-1.4 0-.5.1-1 .2-1.4.2-.4.4-.8.7-1 .3-.3.6-.5.9-.7.4-.2.8-.2 1.2-.2z"/><path class="st3" d="M22.5 139.9h-2.6c-.1 0-.2.1-.2.1l-2.7 7.6-2.9-7.6c0-.1-.1-.1-.2-.1h-2.7c-.1 0-.1 0-.2.1v.2l4.5 10.9c-.2.4-.4.7-.6.8-.2.2-.4.2-.8.2-.2 0-.5 0-.7-.1-.2-.1-.5-.2-.7-.3h-.2c-.1 0-.1.1-.1.1l-.9 1.9c0 .1 0 .2.1.3.4.2.8.4 1.2.5.4.1.9.2 1.5.2.5 0 .9-.1 1.3-.2s.7-.3 1-.6c.3-.3.6-.6.8-1 .2-.4.5-.9.7-1.5l4.4-11.3v-.2c.1 0 .1 0 0 0z"/><path class="st27" d="M34.6 142.5v-2.7c-1 0-1.8.2-2.4.7s-1.1 1.2-1.5 2V140h-2.5v11h2.5v-4.2c0-.7.1-1.4.3-1.9.2-.5.4-1 .8-1.4.3-.4.7-.6 1.2-.8.5-.2 1-.3 1.5-.3h.1zM43.7 141.6c-.4-.5-1-1-1.6-1.3-.7-.3-1.4-.5-2.3-.5-.8 0-1.5.2-2.2.5s-1.2.7-1.7 1.2-.8 1.1-1.1 1.8c-.3.7-.4 1.4-.4 2.2 0 .9.1 1.6.4 2.3.3.7.7 1.3 1.2 1.8s1.1.9 1.8 1.2c.7.3 1.4.4 2.2.4 1 0 1.9-.2 2.6-.6.7-.4 1.4-.9 1.9-1.5l-1.5-1.3c-.4.4-.9.8-1.4 1-.5.2-1 .3-1.6.3-.8 0-1.5-.2-2.1-.7-.6-.5-.9-1.2-1.1-2.1H45v-.4-.3c0-.8-.1-1.5-.3-2.3-.2-.5-.5-1.1-1-1.7zm-6.8 3.2c.1-.9.4-1.6.9-2.1s1.1-.8 1.9-.8c.4 0 .8.1 1.1.2.3.2.6.4.8.6l.6.9c.2.3.2.7.3 1.1h-5.6zM54.5 141.8c-.4-.5-.9-1-1.5-1.4-.6-.4-1.3-.6-2.2-.6-.6 0-1.3.1-1.9.4-.6.3-1.2.6-1.6 1.1-.5.5-.8 1.1-1.1 1.8-.3.7-.4 1.5-.4 2.4 0 .9.1 1.7.4 2.4.3.7.7 1.3 1.1 1.8.5.5 1 .9 1.6 1.1.6.2 1.2.4 1.9.4.9 0 1.6-.2 2.2-.6.6-.4 1.1-.9 1.5-1.5v1.8H57v-15.2h-2.5v6.1zm-.2 5.2c-.2.4-.4.8-.7 1.1-.3.3-.6.6-1 .7-.4.2-.8.3-1.2.3-.4 0-.8-.1-1.2-.3-.4-.2-.7-.4-1-.7s-.5-.7-.7-1.1c-.2-.4-.2-.9-.2-1.5s.1-1 .2-1.5.4-.8.7-1.1c.3-.3.6-.5 1-.7.4-.2.8-.2 1.2-.2.4 0 .8.1 1.2.2.4.2.7.4 1 .7.3.3.5.7.7 1.1.2.4.3.9.3 1.5s-.1 1.1-.3 1.5zM66 146.3c0 .9-.2 1.5-.7 2-.5.5-1 .7-1.8.7-.7 0-1.3-.2-1.7-.7-.4-.5-.6-1.1-.6-2v-6.2h-2.5v7c0 1.3.3 2.3 1 3.1s1.6 1.1 2.9 1.1c.8 0 1.5-.2 2.1-.6.5-.4 1-.8 1.3-1.4v1.7h2.5v-11H66v6.3zM77.2 148.7c-.5.3-1 .4-1.6.4-.5 0-.9-.1-1.3-.3-.4-.2-.7-.4-1-.8-.3-.3-.5-.7-.7-1.1-.2-.4-.2-.9-.2-1.4 0-.5.1-.9.2-1.4.2-.4.4-.8.7-1.1.3-.3.6-.6 1-.8.4-.2.8-.3 1.3-.3.6 0 1.2.1 1.6.4.4.3.8.6 1.2 1l1.6-1.7c-.5-.6-1.1-1-1.8-1.4-.7-.3-1.5-.5-2.6-.5-.8 0-1.6.2-2.3.5-.7.3-1.3.7-1.8 1.2s-.9 1.1-1.2 1.8c-.3.7-.4 1.4-.4 2.2 0 .8.1 1.5.4 2.2.3.7.7 1.3 1.2 1.8s1.1.9 1.8 1.2c.7.3 1.4.4 2.3.4 1.1 0 1.9-.2 2.6-.6s1.3-.9 1.8-1.5l-1.5-1.5c-.5.8-.9 1.1-1.3 1.3zM80.9 136h2.7v2.4h-2.7zM81 140.1h2.5v11H81zM91.5 139.9c-.4 0-.8.1-1.2.2-.3.1-.6.2-.9.4s-.5.4-.7.6c-.2.2-.4.5-.6.7v-1.7h-2.5v11H88v-6.2c0-.9.2-1.5.7-2s1-.7 1.8-.7c.7 0 1.3.2 1.7.7s.6 1.1.6 2v6.2h2.5v-7c0-1.3-.3-2.3-1-3.1-.6-.8-1.6-1.1-2.8-1.1zM105.3 141.7c-.4-.5-.9-1-1.5-1.3s-1.4-.6-2.3-.6c-.6 0-1.3.1-1.9.4-.6.2-1.1.6-1.6 1s-.8 1-1.1 1.6c-.3.6-.4 1.4-.4 2.2s.1 1.5.4 2.2c.3.6.6 1.2 1.1 1.6.5.4 1 .8 1.6 1s1.2.3 1.9.3c.9 0 1.7-.2 2.3-.6.6-.4 1.1-.9 1.6-1.5v.9c0 1.1-.3 2-.9 2.5-.6.6-1.5.9-2.6.9-.7 0-1.4-.1-2.1-.3-.6-.2-1.2-.5-1.8-.9l-.9 1.9c1.4.9 3.1 1.3 4.9 1.3 1.9 0 3.3-.5 4.4-1.4s1.5-2.3 1.5-4.3v-8.7h-2.5v1.8zm-.2 4.6c-.2.4-.4.7-.7 1-.3.3-.6.5-1 .6-.4.1-.8.2-1.2.2s-.8-.1-1.2-.2c-.4-.1-.7-.4-1-.6-.3-.3-.5-.6-.7-1-.2-.4-.2-.8-.2-1.2s.1-.9.2-1.2c.2-.4.4-.7.7-.9.3-.3.6-.5 1-.6s.8-.2 1.2-.2c.4 0 .8.1 1.2.2.4.1.7.3 1 .6.3.3.5.6.7 1 .2.4.3.8.3 1.2s-.1.7-.3 1.1z"/><path class="st3" d="M130.3 140c0-.1-.1-.1-.2-.1h-2.5c-.1 0-.2.1-.2.2l-2 6.9-2.2-6.9c0-.1-.1-.1-.2-.1h-2.1c-.1 0-.2.1-.2.1l-2.2 6.9-2-6.9c0-.1-.1-.2-.2-.2h-2.6c-.1 0-.1 0-.2.1s-.1.1 0 .2l3.6 11.1c0 .1.1.1.2.1h2.2c.1 0 .2-.1.2-.1l2.3-6.9 2.2 6.9c0 .1.1.1.2.1h2.2c.1 0 .2-.1.2-.1l3.6-11.1c-.1-.1-.1-.2-.1-.2zM135 139.7c-.9 0-1.7.1-2.4.3-.6.2-1.3.4-1.9.7-.1 0-.2.2-.1.3l.7 2c0 .1.1.1.1.1h.2c.5-.2 1-.4 1.4-.5.5-.1 1-.2 1.6-.2.8 0 1.4.2 1.9.6.4.4.6.9.6 1.6-.4-.1-.7-.2-1.1-.3-.5-.1-1.1-.1-1.7-.1-.7 0-1.3.1-1.8.2-.6.2-1.1.4-1.5.7-.4.3-.8.7-1 1.2-.2.5-.4 1-.4 1.7 0 .6.1 1.1.3 1.6.2.4.5.8.9 1.1.4.3.8.5 1.3.7.5.2 1 .2 1.6.2.9 0 1.6-.2 2.2-.5.4-.2.8-.5 1.1-.8v.8c0 .1.1.2.2.2h2.5c.1 0 .2-.1.2-.2v-6.5c0-1.5-.4-2.7-1.2-3.6-.8-.9-2-1.3-3.7-1.3zm2.2 6.9v.5c0 .3-.1.6-.2.8-.1.3-.3.5-.6.7-.2.2-.5.3-.9.4-.3.1-.7.2-1.1.2-.5 0-1-.1-1.4-.4-.3-.2-.5-.6-.5-1.1 0-.5.2-.9.6-1.1.4-.3 1-.4 1.7-.4.5 0 .9 0 1.3.1.5.1.8.2 1.1.3zM156.2 148.4c-.5.2-1 .4-1.5.4-.4 0-.7-.1-.9-.3-.2-.2-.3-.5-.3-.9v-5.2h2.7c.1 0 .2-.1.2-.2v-2.1c0-.1-.1-.2-.2-.2h-2.7v-2.8c0-.1-.1-.2-.2-.2h-2.5c-.1 0-.2.1-.2.2v2.8h-1.2c-.1 0-.2.1-.2.2v.8c-.6-.4-1.3-.7-2-.9-1.3-.4-2.6-.5-3.8-.1-.5.2-.9.4-1.3.7-.4.3-.7.7-.9 1.1-.2.4-.3.9-.3 1.5s.1 1 .3 1.4c.2.4.5.7.9 1 .3.3.7.5 1.2.6.4.1.8.3 1.2.4l.9.3c.3.1.5.2.8.3.2.1.4.2.5.4.1.1.1.2.1.4 0 .3-.1.5-.4.7-.3.2-.6.3-1.1.3-.5 0-1.1-.1-1.7-.3-.6-.2-1.2-.5-1.8-1h-.2c-.1 0-.1 0-.1.1l-1.1 1.7c-.1.1 0 .2 0 .3.7.6 1.5 1 2.3 1.3.8.3 1.7.4 2.5.4.6 0 1.1-.1 1.7-.2.5-.2 1-.4 1.4-.7.4-.3.7-.7.9-1.1.2-.5.3-1 .3-1.7 0-.5-.1-1-.3-1.4-.2-.4-.5-.7-.9-.9-.3-.3-.7-.5-1.1-.6-.4-.2-.8-.3-1.2-.4l-.9-.3c-.3-.1-.5-.2-.8-.3-.2-.1-.4-.2-.5-.4-.1-.1-.1-.2-.1-.4 0-.3.1-.5.3-.6.5-.4 1.4-.4 2.4 0 .5.2 1 .4 1.6.7h.2c.1 0 .1-.1.1-.1l1-1.7v.9c0 .1.1.2.2.2h1.2v5.6c0 .6.1 1.2.2 1.6.2.4.4.8.7 1.1.3.3.7.5 1.1.6.4.1.9.2 1.3.2.5 0 .9-.1 1.3-.2s.7-.3 1.1-.4c.1 0 .1-.1.1-.2v-2.1c0-.1 0-.1-.1-.2s-.2-.1-.2-.1z"/><path class="st3" d="M167.1 143.5c-.2-.7-.6-1.4-1-2-.5-.6-1-1-1.7-1.3-.7-.3-1.5-.5-2.4-.5-.8 0-1.6.2-2.3.5-.7.3-1.3.7-1.8 1.3-.5.5-.9 1.2-1.2 1.9-.3.7-.4 1.5-.4 2.3 0 .9.2 1.7.5 2.4s.7 1.4 1.2 1.9 1.1.9 1.9 1.2c.7.3 1.5.4 2.3.4 1 0 2-.2 2.7-.6.7-.4 1.4-.9 1.9-1.5.1-.1.1-.2 0-.3l-1.5-1.3c-.1-.1-.2-.1-.3 0-.4.4-.9.7-1.3.9-.4.2-.9.3-1.5.3-.8 0-1.4-.2-1.9-.7-.5-.4-.8-1-1-1.7h7.8c.1 0 .2-.1.2-.2v-.4-.3c.1-.8 0-1.6-.2-2.3zm-7.8 1.1c.1-.7.4-1.3.8-1.7.5-.5 1-.7 1.8-.7.4 0 .7.1 1 .2.3.1.6.3.8.6.2.2.4.5.5.8.1.3.2.5.2.8h-5.1z"/></g><path class="st3" d="M44 101.6c-.1-.1-.3-.2-.4-.2h-6.4c-.2 0-.5.2-.5.4l-5.2 17.4-5.7-17.5c-.1-.2-.3-.4-.5-.4h-5.4c-.2 0-.4.2-.5.4l-5.6 17.5-5.1-17.4c-.1-.2-.3-.4-.5-.4H1.6c-.2 0-.3.1-.4.2-.2.1-.2.3-.1.4l9 28c.1.2.3.4.5.4h5.7c.2 0 .4-.2.5-.4l5.8-17.5 5.7 17.5c.1.2.3.4.5.4h5.7c.2 0 .4-.2.5-.4l9.1-28c.1-.1.1-.3-.1-.4z"/><g><path class="st3" d="M52.7 101.3h-6.4c-.3 0-.5.2-.5.5v27.8c0 .3.2.5.5.5h6.4c.3 0 .5-.2.5-.5v-27.8c0-.2-.2-.5-.5-.5zM52.9 91H46c-.3 0-.5.2-.5.5v6.1c0 .3.2.5.5.5h6.9c.3 0 .5-.2.5-.5v-6.1c0-.3-.2-.5-.5-.5z"/></g><path class="st3" d="M64.3 90.7h-6.4c-.3 0-.5.2-.5.5v38.5c0 .3.2.5.5.5h6.4c.3 0 .5-.2.5-.5V91.2c.1-.3-.2-.5-.5-.5zM96.6 90.7h-6.4c-.3 0-.5.2-.5.5v13.5c-.9-.9-1.8-1.7-2.9-2.4-1.6-1-3.6-1.6-6-1.6-1.7 0-3.4.3-5 1s-3.1 1.7-4.3 2.9c-1.2 1.3-2.2 2.9-3 4.7-.7 1.8-1.1 4-1.1 6.4 0 2.4.4 4.5 1.1 6.4.8 1.8 1.8 3.4 3 4.7 1.2 1.3 2.7 2.3 4.3 2.9 1.6.7 3.3 1 5 1 2.3 0 4.3-.5 6-1.6 1.1-.7 2.1-1.6 3-2.6v3.1c0 .3.2.5.5.5h6.4c.3 0 .5-.2.5-.5V91.2c-.1-.3-.3-.5-.6-.5zm-6.9 25.1c0 1.3-.2 2.5-.6 3.5-.4 1-1 1.9-1.7 2.7-.7.7-1.5 1.3-2.4 1.7-1.8.8-3.9.8-5.7 0-.9-.4-1.7-1-2.4-1.7s-1.2-1.6-1.6-2.6c-.4-1-.6-2.2-.6-3.5 0-1.3.2-2.5.6-3.6.4-1 .9-1.9 1.6-2.6.7-.7 1.5-1.3 2.4-1.6.9-.4 1.9-.6 2.9-.6s1.9.2 2.8.6c.9.4 1.7 1 2.4 1.7s1.2 1.6 1.7 2.7c.4.8.6 2 .6 3.3zM107.9 90.7h-6.4c-.3 0-.5.2-.5.5v38.5c0 .3.2.5.5.5h6.4c.3 0 .5-.2.5-.5V91.2c.1-.3-.2-.5-.5-.5z"/><g><path class="st3" d="M119.8 91h-6.9c-.3 0-.5.2-.5.5v6.1c0 .3.2.5.5.5h6.9c.3 0 .5-.2.5-.5v-6.1c0-.3-.2-.5-.5-.5zM119.6 101.3h-6.4c-.3 0-.5.2-.5.5v27.8c0 .3.2.5.5.5h6.4c.3 0 .5-.2.5-.5v-27.8c0-.2-.2-.5-.5-.5z"/></g><path class="st3" d="M135.9 96.9c.7 0 1.3.1 1.8.2.6.1 1.1.3 1.8.5.2.1.3 0 .5-.1.1-.1.2-.3.2-.4v-5.4c0-.2-.2-.5-.4-.5-.7-.2-1.5-.4-2.3-.5-.8-.1-1.8-.2-3-.2-2.9 0-5.2.8-6.7 2.4-1.6 1.6-2.4 4-2.4 7.3v1.5h-3c-.3 0-.5.2-.5.5v5.3c0 .3.2.5.5.5h3v21.8c0 .3.2.5.5.5h6.4c.3 0 .5-.2.5-.5V108h6.7c.3 0 .5-.2.5-.5v-5.3c0-.3-.2-.5-.5-.5h-6.8v-1c.1-2.6 1.1-3.8 3.2-3.8z"/><path class="st3" d="M165.5 110.4c-.6-1.9-1.5-3.6-2.6-5-1.2-1.4-2.6-2.6-4.4-3.4-1.7-.8-3.8-1.3-6.1-1.3-2.1 0-4 .4-5.7 1.2-1.7.8-3.2 1.9-4.5 3.3-1.3 1.4-2.2 3-2.9 4.8-.7 1.8-1 3.8-1 5.8 0 2.2.4 4.3 1.1 6.1.8 1.8 1.8 3.4 3.2 4.7 1.3 1.3 2.9 2.3 4.7 3.1 1.8.7 3.8 1.1 5.8 1.1 2.6 0 5-.5 6.9-1.5 1.9-1 3.6-2.3 4.9-3.9.2-.2.2-.6-.1-.8l-3.7-3.3c-.2-.2-.5-.2-.7 0-1.1 1-2.2 1.8-3.3 2.4-1.1.5-2.4.8-3.9.8-1.9 0-3.6-.6-4.9-1.7-1.2-1-2-2.4-2.4-4.3h19.8c.3 0 .5-.2.5-.5s.1-.6.1-.9v-.9c.1-1.9-.2-3.9-.8-5.8zm-19.7 2.9c.3-1.8 1-3.2 2.1-4.4 1.2-1.3 2.7-1.9 4.5-1.9 1 0 1.8.2 2.6.5.8.4 1.4.8 2 1.4.5.6 1 1.3 1.3 2.1.3.7.5 1.4.6 2.1h-13.1z"/></svg>