<svg version="1.1" id="Layer_1" xmlns="http://www.w3.org/2000/svg" x="0" y="0" viewBox="0 0 150.4 101.3" xml:space="preserve"><style>.st0{fill:#e7e126}.st1{fill:#fff}</style><path class="st0" d="M5.7 7.8V0h40v6.5L16.2 42.3h29.5V50h-41v-6.5L34.3 7.8H5.7zM59.6 41.4c2 1.6 4.3 2.5 7.1 2.5 2.1 0 4-.4 5.6-1.1 1.6-.8 3.1-1.9 4.6-3.4l5.1 4.5c-1.8 2.1-4 3.9-6.5 5.1-2.5 1.3-5.5 1.9-9 1.9-2.7 0-5.3-.5-7.6-1.4-2.4-1-4.4-2.3-6.1-4-1.7-1.7-3.1-3.8-4.1-6.2-1-2.4-1.5-5.1-1.5-8 0-2.7.5-5.3 1.4-7.6.9-2.4 2.2-4.5 3.8-6.3 1.6-1.8 3.6-3.2 5.8-4.3 2.2-1 4.7-1.6 7.4-1.6 3 0 5.6.5 7.9 1.6 2.3 1.1 4.1 2.6 5.6 4.4 1.5 1.9 2.6 4 3.4 6.5.8 2.5 1.1 5.1 1.1 7.8v1.1c0 .4-.1.8-.1 1.2H55.8c.6 3.2 1.8 5.6 3.8 7.3zm15.6-12.9c-.1-1.4-.5-2.7-.9-3.9-.5-1.2-1.1-2.3-1.9-3.1-.8-.9-1.8-1.6-2.9-2.1-1.1-.5-2.4-.8-3.8-.8-2.7 0-4.9.9-6.6 2.8-1.7 1.8-2.8 4.2-3.2 7.2h19.3zM96.6 50h-8.7V12.3h8.7v8.5c1.2-2.9 2.9-5.1 5.1-6.9 2.2-1.7 5-2.5 8.3-2.4v9.2h-.5c-1.9 0-3.6.3-5.2.9-1.6.6-2.9 1.5-4.1 2.8-1.1 1.2-2 2.8-2.6 4.7-.6 1.9-.9 4.1-.9 6.5V50zM148.1 38.8c-1 2.4-2.4 4.5-4.2 6.3-1.8 1.8-3.9 3.2-6.4 4.3-2.5 1-5.2 1.6-8.1 1.6-2.9 0-5.5-.5-8-1.5s-4.6-2.4-6.4-4.2c-1.8-1.8-3.2-3.9-4.2-6.2-1-2.4-1.5-4.9-1.5-7.6 0-2.7.5-5.3 1.5-7.7 1-2.4 2.4-4.5 4.2-6.3s3.9-3.2 6.4-4.3c2.5-1 5.1-1.6 8-1.6 2.9 0 5.6.5 8 1.5 2.5 1 4.6 2.4 6.4 4.2 1.8 1.8 3.2 3.9 4.2 6.3s1.5 4.9 1.5 7.6c.1 2.7-.4 5.2-1.4 7.6zm-8-12.2c-.6-1.5-1.4-2.8-2.4-3.9s-2.2-2-3.6-2.6c-1.4-.6-2.9-1-4.7-1s-3.3.3-4.7 1c-1.4.6-2.6 1.5-3.6 2.6s-1.8 2.4-2.3 3.8c-.5 1.5-.8 3-.8 4.7 0 1.7.3 3.3.9 4.8.6 1.5 1.4 2.8 2.4 3.9s2.2 2 3.6 2.6c1.4.6 2.9 1 4.6 1 1.8 0 3.3-.3 4.7-1 1.4-.6 2.6-1.5 3.6-2.6s1.8-2.4 2.3-3.8c.5-1.5.8-3 .8-4.7 0-1.8-.3-3.3-.8-4.8z"/><g><path class="st1" d="M11.1 78.3c-.7.4-1.5.6-2.3.6-.6 0-1.1-.1-1.4-.4-.3-.3-.4-.8-.4-1.5v-8.3h4.4c.2 0 .3-.2.3-.3V65c0-.2-.2-.3-.3-.3H7v-4.5c0-.2-.2-.3-.3-.3H2.6c-.2 0-.3.2-.3.3v4.5h-2c-.2 0-.3.2-.3.3v3.4c0 .2.2.3.3.3h1.9v8.9c0 1 .1 1.9.4 2.6.3.7.7 1.3 1.2 1.7.5.4 1.1.7 1.8.9.7.2 1.4.3 2.1.3.8 0 1.5-.1 2.1-.2.6-.2 1.2-.4 1.7-.7.1-.1.2-.2.2-.3v-3.3c0-.1-.1-.2-.2-.3-.1 0-.2-.1-.4 0zM52.7 83.2c1.4 0 2.6-.3 3.6-.8.7-.4 1.3-.8 1.8-1.2v1.3c0 .2.2.3.3.3h4c.2 0 .3-.2.3-.3V72.1c0-2.4-.7-4.4-2-5.7-1.3-1.4-3.4-2.1-6.1-2.1-1.5 0-2.7.1-3.8.4-1 .3-2.1.6-3.1 1.1-.2.1-.2.3-.2.4l1.1 3.2c0 .1.1.2.2.2h.3c.8-.3 1.6-.6 2.3-.8.7-.2 1.6-.3 2.6-.3 1.3 0 2.3.3 3 .9.7.6 1 1.4 1 2.5-.6-.2-1.1-.3-1.7-.4-.8-.1-1.7-.2-2.8-.2-1 0-2 .1-2.9.4-.9.2-1.7.6-2.4 1.1-.7.5-1.2 1.1-1.6 1.9-.4.8-.6 1.6-.6 2.7 0 .9.2 1.8.6 2.5.4.7.9 1.3 1.5 1.8s1.3.8 2.1 1.1c.8.3 1.6.4 2.5.4zm-1-7.8c.6-.4 1.6-.7 2.8-.7.8 0 1.5.1 2.2.2.6.1 1.1.2 1.5.4v.9c0 .5-.1 1-.3 1.4-.2.4-.5.8-.9 1-.4.3-.9.5-1.4.7-.5.2-1.1.3-1.7.3-.9 0-1.6-.2-2.2-.6-.6-.4-.8-.9-.8-1.7-.1-.9.2-1.5.8-1.9z"/><path class="st1" d="M25 82.5c1.2-.5 2.2-1.2 3.1-2.1.9-.9 1.5-1.9 2-3s.7-2.4.7-3.7c0-1.3-.2-2.5-.7-3.7-.5-1.1-1.2-2.2-2-3-.9-.9-1.9-1.5-3.1-2-1.2-.5-2.5-.7-3.9-.7s-2.7.3-3.9.8c-1.2.5-2.2 1.2-3.1 2.1-.9.9-1.5 1.9-2 3-.5 1.2-.7 2.4-.7 3.7 0 1.3.2 2.5.7 3.7.5 1.1 1.2 2.1 2 3 .9.9 1.9 1.5 3.1 2 1.2.5 2.5.7 3.8.7 1.5 0 2.8-.3 4-.8zm-7.4-5c-.4-.5-.8-1-1-1.7-.2-.7-.4-1.4-.4-2.1 0-.7.1-1.4.3-2.1.2-.6.6-1.2 1-1.7s1-.9 1.6-1.1c.6-.3 1.3-.4 2-.4s1.4.1 2 .4c.6.3 1.1.7 1.6 1.2.4.5.8 1.1 1 1.7.2.6.4 1.3.4 2.1 0 .7-.1 1.4-.3 2.1-.2.6-.6 1.2-1 1.7s-1 .9-1.6 1.1c-1.2.5-2.8.6-4 0-.6-.3-1.2-.7-1.6-1.2zM116.2 62.6h4.4c.2 0 .3-.2.3-.3v-3.8c0-.2-.2-.3-.3-.3h-4.4c-.2 0-.3.2-.3.3v3.8c0 .1.1.3.3.3zM123.8 82.9h4.1c.2 0 .3-.2.3-.3V58.2c0-.2-.2-.3-.3-.3h-4.1c-.2 0-.3.2-.3.3v24.3c-.1.2.1.4.3.4zM116.4 64.6c-.2 0-.3.2-.3.3v17.6c0 .2.2.3.3.3h4.1c.2 0 .3-.2.3-.3V64.9c0-.2-.2-.3-.3-.3h-4.1zM131.1 82.9h4.1c.2 0 .3-.2.3-.3V58.2c0-.2-.2-.3-.3-.3h-4.1c-.2 0-.3.2-.3.3v24.3c0 .2.1.4.3.4zM96.4 80.6v1.9c0 .2.2.3.3.3h4.1c.2 0 .3-.2.3-.3V58.2c0-.2-.2-.3-.3-.3h-4.1c-.2 0-.3.2-.3.3v8.5c-.5-.6-1.2-1.1-1.9-1.5-1-.7-2.3-1-3.8-1-1.1 0-2.1.2-3.2.6-1 .4-1.9 1-2.7 1.9-.8.8-1.4 1.8-1.9 3s-.7 2.5-.7 4 .2 2.9.7 4c.5 1.2 1.1 2.2 1.9 3 .8.8 1.7 1.4 2.7 1.9 1 .4 2.1.6 3.2.6 1.5 0 2.7-.3 3.8-1 .7-.5 1.3-1 1.9-1.6zm-6.5-1.9c-.6-.2-1.1-.6-1.5-1.1-.4-.5-.8-1-1-1.7-.2-.7-.4-1.4-.4-2.2 0-.8.1-1.6.4-2.3.2-.7.6-1.2 1-1.7s.9-.8 1.5-1c.6-.2 1.2-.4 1.8-.4.6 0 1.2.1 1.8.4.6.2 1.1.6 1.5 1.1.4.5.8 1 1 1.7.3.6.4 1.4.4 2.2 0 .8-.1 1.6-.4 2.2-.3.6-.6 1.2-1 1.7s-.9.8-1.5 1.1c-1.2.5-2.5.4-3.6 0zM137.3 66v.3l1.2 2c0 .1.1.1.2.2.1 0 .2 0 .3-.1l2.7-2-.4 3.3c0 .1 0 .2.1.3.1.1.2.1.3.1h2.3c.1 0 .2 0 .3-.1.1-.1.1-.2.1-.3l-.4-3.3 2.7 2c.1.1.2.1.3.1.1 0 .2-.1.2-.2l1.2-2c0-.1.1-.2 0-.3s-.1-.2-.2-.2l-3.1-1.4 3.1-1.3c.1 0 .2-.1.2-.2v-.3l-1.2-2c0-.1-.1-.1-.2-.2s-.2 0-.3.1l-2.7 2 .4-3.3c0-.1 0-.2-.1-.3-.1-.1-.2-.1-.3-.1h-2.3c-.1 0-.2 0-.3.1-.1.1-.1.2-.1.3l.4 3.3-2.7-2c-.1-.1-.2-.1-.3-.1-.1 0-.2.1-.2.2l-1.2 2c0 .1-.1.2 0 .3s.1.2.2.2l3.1 1.3-3.1 1.4c-.1 0-.1.1-.2.2zM40.5 82.9h4.1c.2 0 .3-.2.3-.3V58.2c0-.2-.2-.3-.3-.3h-4.1c-.2 0-.3.2-.3.3v24.3c0 .2.1.4.3.4zM102.3 68.7h1.9v13.8c0 .2.2.3.3.3h4.1c.2 0 .3-.2.3-.3V68.7h4.3c.2 0 .3-.2.3-.3v-3.3c0-.2-.2-.3-.3-.3h-4.3v-.6c0-1.6.6-2.3 2-2.3.4 0 .8 0 1.1.1.4.1.7.2 1.1.3h.3c.1-.1.1-.2.1-.3v-3.4c0-.2-.1-.3-.2-.3-.5-.1-.9-.3-1.5-.3-.5-.1-1.2-.1-1.9-.1-1.8 0-3.2.5-4.2 1.5s-1.5 2.6-1.5 4.6v.9h-1.9c-.2 0-.3.2-.3.3v3.4s.1.1.3.1zM65 82.9h4.1c.2 0 .3-.2.3-.3v-9.9c0-1.3.3-2.3 1-3 .7-.7 1.5-1 2.6-1s1.9.3 2.5 1c.6.7.9 1.7.9 2.9v10c0 .2.2.3.3.3h4.1c.2 0 .3-.2.3-.3V71.3c0-2.1-.6-3.9-1.7-5.2-1.1-1.3-2.8-1.9-4.9-1.9-.7 0-1.4.1-1.9.3-.6.2-1.1.4-1.6.7-.5.3-.9.7-1.3 1-.1.1-.2.3-.3.4v-1.7c0-.2-.2-.3-.3-.3H65c-.2 0-.3.2-.3.3v17.6c0 .2.1.4.3.4zM7.8 92.2c-.4-.4-.9-.7-1.4-.9S5.3 91 4.6 91H1.5v8.3h3.1c.6 0 1.2-.1 1.8-.3s1-.5 1.4-.9c.4-.4.7-.8.9-1.3.2-.5.3-1.1.3-1.6s0-1.2-.3-1.7c-.2-.5-.5-.9-.9-1.3zm-.5 4.1c-.1.4-.3.7-.6.9l-.9.6c-.3.1-.7.2-1.2.2H3v-5.7h1.6c.4 0 .8.1 1.2.2.4.1.7.3.9.6l.6.9c.1.3.2.7.2 1.1s0 .9-.2 1.2zM10 93.1h1.5v6.3H10zM9.9 90.7h1.6v1.4H9.9zM16.4 96.2c-.2-.1-.4-.3-.6-.4-.2-.1-.5-.2-.7-.2-.2-.1-.4-.1-.5-.2-.2-.1-.3-.1-.5-.2s-.2-.1-.3-.2c-.1-.1-.1-.2-.1-.3 0-.2.1-.3.2-.5.2-.1.4-.2.6-.2.3 0 .5.1.9.2.3.1.6.3.9.4l.6-1c-.3-.2-.7-.4-1.1-.5-.4-.1-.8-.1-1.2-.1-.3 0-.6 0-.9.1-.3.1-.5.2-.7.4-.2.2-.4.4-.5.6-.1.2-.2.5-.2.8 0 .3.1.6.2.8.1.2.3.4.5.5.2.1.4.3.6.3.2.1.5.2.7.2.2.1.4.1.5.2.2.1.3.1.5.2s.2.1.3.2c.1.1.1.2.1.3 0 .2-.1.4-.3.5-.2.1-.4.2-.7.2-.3 0-.7-.1-1-.2-.4-.1-.7-.3-1-.6l-.6 1c.4.3.8.5 1.3.7.5.2.9.2 1.4.2.3 0 .6 0 .9-.1.3-.1.5-.2.7-.4.2-.2.4-.4.5-.6.1-.2.2-.5.2-.9 0-.3-.1-.5-.2-.7l-.5-.5zM21.6 98c-.3.1-.6.2-.9.2-.3 0-.5-.1-.8-.2-.2-.1-.4-.3-.6-.4-.2-.2-.3-.4-.4-.6-.1-.2-.1-.5-.1-.8 0-.3 0-.5.1-.8.1-.2.2-.5.4-.6s.3-.3.6-.4c.2-.1.5-.2.7-.2.4 0 .7.1.9.2.3.1.5.3.7.6l.9-1c-.3-.3-.6-.6-1-.8-.4-.2-.9-.3-1.5-.3-.5 0-.9.1-1.3.3-.4.2-.7.4-1 .7-.3.3-.5.7-.7 1s-.2.8-.2 1.3.1.9.2 1.3c.2.4.4.7.7 1 .3.3.6.5 1 .7.4.2.8.3 1.3.3.6 0 1.1-.1 1.5-.3s.7-.5 1.1-.8l-.9-.9c-.2.2-.4.4-.7.5zM29 93.9c-.3-.3-.6-.5-1.1-.7-.4-.2-.9-.3-1.3-.3-.5 0-.9.1-1.3.3-.4.2-.8.4-1.1.7-.3.3-.5.6-.7 1-.2.4-.3.8-.3 1.3s.1.9.2 1.3c.2.4.4.7.7 1 .3.3.6.5 1.1.7.4.2.9.3 1.3.3.5 0 .9-.1 1.3-.3.4-.2.8-.4 1.1-.7.3-.3.5-.6.7-1 .2-.4.3-.8.3-1.3s-.1-.9-.2-1.3-.4-.7-.7-1zm-.7 3.1c-.1.2-.2.5-.4.6-.2.2-.4.3-.6.4-.2.1-.5.2-.8.2-.3 0-.5-.1-.8-.2-.2-.1-.4-.3-.6-.4-.2-.2-.3-.4-.4-.6-.1-.3-.1-.5-.1-.8s0-.5.1-.8c.1-.2.2-.5.4-.6.2-.2.4-.3.6-.4.2-.1.5-.2.8-.2s.5.1.8.2c.2.1.4.3.6.4s.3.4.4.6c.1.2.1.5.1.8.1.3 0 .6-.1.8zM34.6 93.1l-1.7 4.6-1.7-4.6h-1.5l2.5 6.3h1.3l2.6-6.3zM41.2 93.9c-.2-.3-.6-.6-.9-.7-.4-.2-.8-.3-1.3-.3s-.9.1-1.2.3c-.4.2-.7.4-1 .7-.3.3-.5.6-.6 1-.2.4-.2.8-.2 1.3s.1.9.2 1.3.4.7.7 1c.3.3.6.5 1 .7.4.2.8.2 1.3.2.6 0 1.1-.1 1.5-.3.4-.2.8-.5 1.1-.9l-.8-.8c-.3.2-.5.4-.8.6s-.6.2-.9.2c-.5 0-.9-.1-1.2-.4-.3-.3-.5-.7-.6-1.2h4.6v-.2-.2c0-.5-.1-.9-.2-1.3s-.5-.7-.7-1zm-3.9 1.9c.1-.5.2-.9.5-1.2.3-.3.7-.5 1.1-.5.2 0 .4 0 .6.1.2.1.3.2.5.4s.2.3.3.5c.1.2.1.4.2.6h-3.2zM44.1 94.5v-1.4h-1.5v6.3h1.5V97c0-.4.1-.8.2-1.1s.2-.6.4-.8c.2-.2.4-.4.7-.5.3-.1.6-.2.9-.2h.1v-1.5c-.6 0-1 .1-1.4.4-.4.3-.7.7-.9 1.2zM56.9 92.9c-.5 0-.9.1-1.2.3s-.6.5-.9.8c-.2-.3-.4-.6-.7-.8s-.7-.3-1.1-.3c-.2 0-.5 0-.6.1-.2.1-.4.1-.5.2-.2.1-.3.2-.4.3-.1.1-.2.3-.3.4v-1h-1.5v6.3H51v-3.5c0-.5.1-.9.4-1.2.2-.3.6-.4 1-.4s.7.1.9.4.3.6.3 1.1v3.6h1.5v-3.5c0-.5.1-.9.4-1.2s.6-.4 1-.4.7.1.9.4.3.6.3 1.1v3.6h1.5v-4c0-.8-.2-1.4-.6-1.8-.4-.3-1-.5-1.7-.5zM65.5 93.9c-.3-.3-.6-.5-1.1-.7-.4-.2-.9-.3-1.3-.3-.5 0-.9.1-1.3.3-.4.2-.8.4-1.1.7-.3.3-.5.6-.7 1-.2.4-.3.8-.3 1.3s.1.9.2 1.3c.2.4.4.7.7 1 .3.3.6.5 1.1.7.4.2.9.3 1.3.3.5 0 .9-.1 1.3-.3.4-.2.8-.4 1.1-.7.3-.3.5-.6.7-1 .2-.4.3-.8.3-1.3s-.1-.9-.2-1.3-.4-.7-.7-1zm-.6 3.1c-.1.2-.2.5-.4.6-.2.2-.4.3-.6.4-.2.1-.5.2-.8.2-.3 0-.5-.1-.8-.2-.2-.1-.4-.3-.6-.4-.2-.2-.3-.4-.4-.6-.1-.3-.1-.5-.1-.8s0-.5.1-.8c.1-.2.2-.5.4-.6.2-.2.4-.3.6-.4.2-.1.5-.2.8-.2s.5.1.8.2c.2.1.4.3.6.4s.3.4.4.6c.1.2.1.5.1.8 0 .3 0 .6-.1.8zM70.8 94.5V93c-.6 0-1 .1-1.4.4-.4.3-.6.7-.8 1.1v-1.4h-1.5v6.3h1.5V97c0-.4.1-.8.2-1.1s.2-.6.4-.8c.2-.2.4-.4.7-.5.2-.1.5-.1.9-.1zM76.1 93.9c-.3-.3-.6-.6-.9-.7-.4-.2-.8-.3-1.3-.3s-.9.1-1.2.3c-.4.2-.7.4-1 .7-.3.3-.5.6-.6 1-.2.4-.2.8-.2 1.3s.1.9.2 1.3.4.7.7 1c.3.3.6.5 1 .7.4.2.8.2 1.3.2.6 0 1.1-.1 1.5-.3.4-.2.8-.5 1.1-.9l-.8-.8c-.3.2-.5.4-.8.6s-.6.2-.9.2c-.5 0-.9-.1-1.2-.4-.3-.3-.5-.7-.6-1.2H77v-.2-.2c0-.5-.1-.9-.2-1.3s-.5-.7-.7-1zm-3.9 1.9c.1-.5.2-.9.5-1.2.3-.3.7-.5 1.1-.5.2 0 .4 0 .6.1.2.1.3.2.5.4s.2.3.3.5c.1.2.1.4.2.6h-3.2zM82.8 93c-.5 0-1 0-1.3.1-.4.1-.7.2-1.1.4l.4 1.2c.3-.1.6-.2.8-.3.3-.1.6-.1 1-.1.5 0 .9.1 1.1.3.3.2.4.6.4 1v.2c-.2-.1-.5-.1-.8-.2-.3 0-.6-.1-1-.1s-.7 0-1 .1c-.3.1-.6.2-.8.4-.2.2-.4.4-.5.6-.1.3-.2.6-.2.9 0 .3.1.6.2.8.1.2.3.4.5.6.2.2.4.3.7.4s.6.1.9.1c.5 0 .9-.1 1.2-.3.3-.2.6-.4.8-.6v.8h1.4v-3.7c0-.8-.2-1.5-.7-2s-1-.6-2-.6zm1.4 4.1c0 .2 0 .4-.1.5-.1.2-.2.3-.4.4-.2.1-.3.2-.5.3-.2.1-.4.1-.7.1-.3 0-.6-.1-.9-.2-.2-.2-.4-.4-.4-.7 0-.3.1-.6.4-.8.3-.2.6-.3 1.1-.3.3 0 .5 0 .8.1.2 0 .5.1.6.2v.4zM88.2 91.3h-1.5V93H86v1.2h.8v3.3c0 .3 0 .6.1.9s.2.4.4.6l.6.3c.2.1.5.1.7.1.3 0 .5 0 .7-.1.2-.1.4-.1.6-.2v-1.2c-.3.1-.6.2-.9.2-.2 0-.4-.1-.6-.2-.1-.1-.2-.3-.2-.6v-3.1h1.7V93h-1.7v-1.7zM93.4 90.7H95v1.4h-1.6zM93.5 99.3c0 .3-.1.5-.2.6-.1.1-.3.2-.5.2h-.4v1.2h.7c.6 0 1.1-.1 1.4-.4.3-.3.5-.8.5-1.4v-6.4h-1.5v6.2zM98.6 93c-.5 0-1 0-1.3.1-.4.1-.7.2-1.1.4l.4 1.2c.3-.1.6-.2.8-.3.3-.1.6-.1 1-.1.5 0 .9.1 1.1.3.3.2.4.6.4 1v.2c-.2-.1-.5-.1-.8-.2-.3 0-.6-.1-1-.1s-.7 0-1 .1c-.3.1-.6.2-.8.4-.2.2-.4.4-.5.6-.1.3-.2.6-.2.9 0 .3.1.6.2.8.1.2.3.4.5.6.2.2.4.3.7.4s.6.1.9.1c.5 0 .9-.1 1.2-.3.3-.2.6-.4.8-.6v.8h1.4v-3.7c0-.8-.2-1.5-.7-2s-1.1-.6-2-.6zm1.3 4.1c0 .2 0 .4-.1.5-.1.2-.2.3-.4.4-.2.1-.3.2-.5.3-.2.1-.4.1-.7.1-.3 0-.6-.1-.9-.2-.1-.2-.3-.4-.3-.7 0-.3.1-.6.4-.8.3-.2.6-.3 1.1-.3.3 0 .5 0 .8.1.2 0 .5.1.6.2v.4zM104.8 97.7L103 93h-1.5l2.6 6.3c-.1.3-.2.5-.4.6-.1.1-.3.2-.5.2s-.3 0-.4-.1c-.1 0-.3-.1-.4-.2l-.5 1.1c.2.1.5.2.7.3.2.1.5.1.8.1.3 0 .5 0 .7-.1s.4-.2.5-.3c.2-.1.3-.3.5-.5s.3-.5.4-.8l2.5-6.5h-1.5l-1.7 4.6zM107.9 95h3.5v1.4h-3.5zM117.9 93.8c-.3-.3-.6-.5-.9-.6-.3-.1-.7-.2-1.1-.2-.5 0-.9.1-1.3.3-.3.2-.6.5-.9.8v-3.4h-1.5v8.7h1.5v-1c.2.3.5.6.8.8.3.2.8.3 1.3.3.4 0 .7-.1 1.1-.2s.7-.4.9-.6c.3-.3.5-.6.7-1 .2-.4.2-.9.2-1.4s-.1-1-.2-1.4-.4-.8-.6-1.1zm-.7 3.2c-.1.2-.2.5-.4.6-.2.2-.4.3-.6.4-.2.1-.5.1-.7.1-.2 0-.5 0-.7-.1-.2-.1-.4-.2-.6-.4-.2-.2-.3-.4-.4-.6-.1-.2-.1-.5-.1-.8 0-.3 0-.6.1-.8.1-.2.2-.5.4-.6.2-.2.4-.3.6-.4.2-.1.5-.1.7-.1.2 0 .5 0 .7.1.2.1.4.2.6.4.2.2.3.4.4.6.1.2.1.5.1.8 0 .3 0 .6-.1.8zM124.5 93.9c-.3-.3-.6-.6-.9-.7-.4-.2-.8-.3-1.3-.3s-.9.1-1.2.3c-.4.2-.7.4-1 .7-.3.3-.5.6-.6 1-.2.4-.2.8-.2 1.3s.1.9.3 1.3c.2.4.4.7.7 1 .3.3.6.5 1 .7.4.2.8.2 1.3.2.6 0 1.1-.1 1.5-.3.4-.2.8-.5 1.1-.9l-.8-.8c-.3.2-.5.4-.8.6s-.6.2-.9.2c-.5 0-.9-.1-1.2-.4-.3-.3-.5-.7-.6-1.2h4.6v-.2-.2c0-.5-.1-.9-.2-1.3s-.6-.7-.8-1zm-3.9 1.9c.1-.5.2-.9.5-1.2.3-.3.7-.5 1.1-.5.2 0 .5 0 .6.1.2.1.3.2.5.4.1.1.2.3.3.5s.1.4.2.6h-3.2zM125.7 97.7h1.6v1.6h-1.6zM131.8 98c-.3.1-.6.2-.9.2-.3 0-.5-.1-.8-.2-.2-.1-.4-.3-.6-.4-.2-.2-.3-.4-.4-.6-.1-.2-.1-.5-.1-.8 0-.3 0-.5.1-.8.1-.2.2-.5.4-.6.2-.2.3-.3.6-.4.2-.1.5-.2.7-.2.4 0 .7.1.9.2.2.1.5.3.7.6l.9-1c-.3-.3-.6-.6-1-.8s-.9-.3-1.5-.3c-.5 0-.9.1-1.3.3-.4.2-.7.4-1 .7s-.5.7-.7 1-.2.8-.2 1.3.1.9.2 1.3c.2.4.4.7.7 1 .3.3.6.5 1 .7.4.2.8.3 1.3.3.6 0 1.1-.1 1.5-.3s.8-.5 1.1-.8l-.9-.9c-.2.2-.4.4-.7.5zM139.2 93.9c-.3-.3-.7-.5-1.1-.7-.4-.2-.9-.3-1.3-.3s-.9.1-1.3.3c-.4.2-.8.4-1.1.7-.3.3-.5.6-.7 1-.2.4-.3.8-.3 1.3s.1.9.3 1.3c.2.4.4.7.7 1 .3.3.7.5 1.1.7.4.2.9.3 1.3.3.5 0 .9-.1 1.3-.3.4-.2.8-.4 1.1-.7.3-.3.5-.6.7-1 .2-.4.3-.8.3-1.3s-.1-.9-.3-1.3c-.1-.4-.4-.7-.7-1zm-.6 3.1c-.1.2-.2.5-.4.6-.2.2-.4.3-.6.4-.2.1-.5.2-.8.2-.3 0-.5-.1-.8-.2-.2-.1-.4-.3-.6-.4-.2-.2-.3-.4-.4-.6s-.1-.5-.1-.8 0-.5.1-.8c.1-.2.2-.5.4-.6.2-.2.4-.3.6-.4.2-.1.5-.2.8-.2.3 0 .5.1.8.2.2.1.4.3.6.4.2.2.3.4.4.6.1.2.1.5.1.8 0 .3 0 .6-.1.8zM149.8 93.6c-.4-.4-.9-.6-1.6-.6-.5 0-.9.1-1.2.3s-.6.5-.9.8c-.2-.3-.4-.6-.7-.8-.3-.2-.7-.3-1.1-.3-.2 0-.5 0-.6.1-.2.1-.4.1-.5.2-.2.1-.3.2-.4.3-.1.1-.2.3-.3.4v-1H141v6.3h1.5v-3.5c0-.5.1-.9.4-1.2.2-.3.6-.4 1-.4s.7.1.9.4c.2.3.3.6.3 1.1v3.6h1.5v-3.5c0-.5.1-.9.4-1.2.2-.3.6-.4 1-.4s.7.1.9.4.3.6.3 1.1v3.6h1.5v-4c-.3-.7-.5-1.3-.9-1.7z"/></g></svg>