<svg xmlns="http://www.w3.org/2000/svg" viewBox="0 0 981.44 117.74"><g id="Layer_2" data-name="Layer 2"><g id="Layer_1-2" data-name="Layer 1"><path d="M2.59,115.87H52.87a68.26,68.26,0,0,0,17.1-2,40.6,40.6,0,0,0,13.59-6.15A29,29,0,0,0,92.5,97.4a30.56,30.56,0,0,0,3.15-14.07A31.86,31.86,0,0,0,94,72.59,24.55,24.55,0,0,0,89,64.34,31,31,0,0,0,81.6,58.5q-2-1.17-4.3-2.19c.55-.39,1.1-.79,1.64-1.2A26.64,26.64,0,0,0,84.4,49.5,27.88,27.88,0,0,0,88.15,42a30.46,30.46,0,0,0,1.45-9.7c0-9.42-3.58-17-10.63-22.45-6.85-5.32-16.15-8-27.66-8H2.59A2.59,2.59,0,0,0,0,4.46V113.28a2.59,2.59,0,0,0,2.59,2.59M24.15,24H49c5.59,0,9.84,1.06,12.62,3.15a9.71,9.71,0,0,1,3.85,8.32c0,4.21-1.45,7.21-4.42,9.17-3.27,2.15-7.79,3.25-13.45,3.25H24.15Zm0,45.08H51.78c7,0,12.11,1.15,15.32,3.41a10.05,10.05,0,0,1,4.41,8.77c0,4.09-1.46,7.08-4.45,9.13-3.26,2.23-7.94,3.35-13.89,3.35h-29Z" style="fill:#3bbcd9"/><path d="M203.44,115.87h19a2.6,2.6,0,0,0,2.6-2.59V43.45l55.23,71.41a2.6,2.6,0,0,0,2.06,1h16a2.6,2.6,0,0,0,2.59-2.59V4.46a2.6,2.6,0,0,0-2.59-2.59h-19a2.59,2.59,0,0,0-2.59,2.59V72.12L223.17,2.88a2.58,2.58,0,0,0-2-1H203.44a2.59,2.59,0,0,0-2.59,2.59V113.28a2.59,2.59,0,0,0,2.59,2.59" style="fill:#3bbcd9"/><path d="M327.58,100.71a56.83,56.83,0,0,0,18.32,12.46,58,58,0,0,0,23.1,4.57,71.09,71.09,0,0,0,14.44-1.38,53,53,0,0,0,12.18-4.09,61.28,61.28,0,0,0,10.32-6.34,72.38,72.38,0,0,0,9.13-8.33A2.59,2.59,0,0,0,415,94L402.71,81.61a2.63,2.63,0,0,0-3.65,0,64.81,64.81,0,0,1-13.56,9.91A33.58,33.58,0,0,1,369.62,95a31.73,31.73,0,0,1-13.3-2.8,32.63,32.63,0,0,1-10.59-7.71,35,35,0,0,1-7-11.52,40.38,40.38,0,0,1-2.48-14.25,40,40,0,0,1,2.47-14.16,34.79,34.79,0,0,1,6.94-11.36,33.26,33.26,0,0,1,10.61-7.64,31.58,31.58,0,0,1,13.3-2.8,33.76,33.76,0,0,1,15.45,3.45,59.13,59.13,0,0,1,13.26,9.38,2.59,2.59,0,0,0,1.9.69,2.63,2.63,0,0,0,1.82-.89l12.28-14.15a2.58,2.58,0,0,0-.14-3.54,79.69,79.69,0,0,0-8.55-7.1A56,56,0,0,0,395.69,5a58.16,58.16,0,0,0-11.8-3.66A71.79,71.79,0,0,0,369.77,0a59.53,59.53,0,0,0-23.72,4.64,56.88,56.88,0,0,0-30.68,31.5A61.05,61.05,0,0,0,311.06,59a60.46,60.46,0,0,0,4.4,23.06,57.59,57.59,0,0,0,12.12,18.63" style="fill:#3bbcd9"/><path d="M425.43,115.87h19a2.59,2.59,0,0,0,2.59-2.59V70h47v43.27a2.59,2.59,0,0,0,2.6,2.59h19a2.6,2.6,0,0,0,2.6-2.59V4.46a2.6,2.6,0,0,0-2.6-2.59h-19A2.59,2.59,0,0,0,494,4.46V47.11H447V4.46a2.59,2.59,0,0,0-2.59-2.59h-19a2.59,2.59,0,0,0-2.58,2.59V113.28a2.59,2.59,0,0,0,2.59,2.59" style="fill:#3bbcd9"/><path d="M535.8,115.87h19a2.59,2.59,0,0,0,2.59-2.59V44.1L586.65,88a2.6,2.6,0,0,0,2.16,1.15h.62A2.6,2.6,0,0,0,591.59,88L621.2,43.77v69.51a2.59,2.59,0,0,0,2.59,2.59h19a2.59,2.59,0,0,0,2.59-2.59V4.46a2.59,2.59,0,0,0-2.59-2.59H622.39a2.6,2.6,0,0,0-2.18,1.19L589.28,51.13,558.34,3.06a2.58,2.58,0,0,0-2.18-1.19H535.8a2.59,2.59,0,0,0-2.59,2.59V113.28a2.59,2.59,0,0,0,2.59,2.59" style="fill:#1d1d1b"/><path d="M653.64,115.87h19.58a2.6,2.6,0,0,0,2.39-1.58L686.13,89.6h48l10.37,24.68a2.57,2.57,0,0,0,2.39,1.59h20.21a2.59,2.59,0,0,0,2.37-3.63L721.61,2.64a2.59,2.59,0,0,0-2.37-1.55H701.52a2.59,2.59,0,0,0-2.38,1.56L651.26,112.24a2.58,2.58,0,0,0,2.38,3.63m56.43-82.78,14.86,34.38H695.34Z" style="fill:#1d1d1b"/><path d="M778,115.87h19a2.58,2.58,0,0,0,2.59-2.59V77.94h20.08l26,36.84a2.61,2.61,0,0,0,2.12,1.09h22.54a2.58,2.58,0,0,0,2.3-1.4,2.62,2.62,0,0,0-.19-2.7L845.14,73.48a41.66,41.66,0,0,0,7.65-3.61,35.15,35.15,0,0,0,8.82-7.56,34.13,34.13,0,0,0,5.8-10.25A38.53,38.53,0,0,0,869.51,39a38.28,38.28,0,0,0-3-15.41,32.19,32.19,0,0,0-8.7-11.83A39.34,39.34,0,0,0,844.15,4.4,58.11,58.11,0,0,0,826.5,1.87H778a2.59,2.59,0,0,0-2.59,2.59V113.28a2.59,2.59,0,0,0,2.59,2.59m21.55-91.56h25.32c6.56,0,11.63,1.36,15.1,4.05,3.32,2.58,4.92,6.38,4.92,11.62a13.91,13.91,0,0,1-5.13,11.43c-3.56,2.92-8.51,4.4-14.73,4.4H799.55Z" style="fill:#1d1d1b"/><path d="M980.91,111.71,935,51.45,978.69,6.26a2.59,2.59,0,0,0-1.86-4.39H953.35a2.61,2.61,0,0,0-1.88.8l-47.29,50V4.46a2.59,2.59,0,0,0-2.59-2.59h-19A2.59,2.59,0,0,0,880,4.46V113.28a2.59,2.59,0,0,0,2.59,2.59h19a2.59,2.59,0,0,0,2.59-2.59V82.77l14.11-14.5,35.33,46.58a2.6,2.6,0,0,0,2.06,1h23.17a2.59,2.59,0,0,0,2.06-4.16" style="fill:#1d1d1b"/><path d="M168.71,47.11H107.39A2.92,2.92,0,0,0,104.46,50V66.62a2.93,2.93,0,0,0,2.93,2.92h61.32A2.59,2.59,0,0,0,171.3,67V49.7a2.58,2.58,0,0,0-2.59-2.59" style="fill:#3bbcd9"/><path d="M187.58,1.87h-72.9a10.21,10.21,0,0,0-10.22,10.21v9.3a2.93,2.93,0,0,0,2.93,2.93h80.19a2.59,2.59,0,0,0,2.59-2.59V4.46a2.59,2.59,0,0,0-2.59-2.59" style="fill:#3bbcd9"/><path d="M188.36,93.43h-81a2.93,2.93,0,0,0-2.93,2.93v9.3a10.22,10.22,0,0,0,10.22,10.21h73.68a2.59,2.59,0,0,0,2.59-2.59V96a2.59,2.59,0,0,0-2.59-2.59m-11.72,8.31a.36.36,0,0,1-.36.35h-2.22v6.57a.35.35,0,0,1-.35.35h-1.14a.36.36,0,0,1-.36-.35v-6.57H170a.35.35,0,0,1-.35-.35v-1.09a.36.36,0,0,1,.35-.36h6.29a.36.36,0,0,1,.36.36Zm9.88,6.92a.35.35,0,0,1-.35.35h-1.12a.35.35,0,0,1-.35-.35v-5l-2.22,3.36a.34.34,0,0,1-.29.16H182a.35.35,0,0,1-.29-.16l-2.19-3.35v5a.35.35,0,0,1-.35.35h-1.14a.36.36,0,0,1-.36-.35v-8a.36.36,0,0,1,.36-.36h1.22a.36.36,0,0,1,.29.16l2.57,3.94,2.54-3.93a.34.34,0,0,1,.29-.17h1.2a.36.36,0,0,1,.35.36Z" style="fill:#3bbcd9"/></g></g></svg>