<svg xmlns="http://www.w3.org/2000/svg" width="80.794" height="103.917" viewBox="0 0 80.794 103.917">
  <g id="Group_5" data-name="Group 5" transform="translate(-836.875 -2270.588)">
    <text id="Deep" transform="translate(855.306 2355.847)" font-size="15.944" font-family="Gotham-Medium, Gotham" font-weight="500"><tspan x="0" y="0">Deep</tspan></text>
    <text id="e-Spring" transform="translate(836.875 2371.504)" font-size="15.944" font-family="Gotham-Medium, Gotham" font-weight="500"><tspan x="0" y="0">e-Spring</tspan></text>
    <text id="_" data-name="™" transform="translate(904.669 2371.504)" font-size="15.944" font-family="Gotham-Medium, Gotham" font-weight="500"><tspan x="0" y="0">™</tspan></text>
    <path id="Path_1" data-name="Path 1" d="M900.335,2307.025a25.943,25.943,0,1,0-25.945,25.859,25.9,25.9,0,0,0,25.945-25.859" fill="#fff"/>
    <path id="Path_2" data-name="Path 2" d="M881.056,2283.3l17.241-10.164a1.369,1.369,0,0,0-.706-2.545H880.354a1.368,1.368,0,1,0,0,2.736h12.221l-12.923,7.62a1.363,1.363,0,0,0-.477,1.883,1.385,1.385,0,0,0,1.179.664,1.4,1.4,0,0,0,.7-.194" fill="#12100b"/>
    <path id="Path_3" data-name="Path 3" d="M898.194,2316.683H885.973l12.923-7.616a1.362,1.362,0,0,0,.633-.847,1.339,1.339,0,0,0-.154-1.033,1.383,1.383,0,0,0-1.883-.475l-17.241,10.165a1.371,1.371,0,0,0-.622,1.543,1.385,1.385,0,0,0,1.326,1h17.239a1.368,1.368,0,1,0,0-2.737" fill="#12100b"/>
    <path id="Path_4" data-name="Path 4" d="M881.363,2288.8l17.24-10.163a1.37,1.37,0,0,0,.474-1.884,1.388,1.388,0,0,0-1.882-.47l-17.234,10.163a1.367,1.367,0,0,0-.481,1.881,1.378,1.378,0,0,0,1.883.473" fill="#12100b"/>
    <path id="Path_5" data-name="Path 5" d="M879.776,2313.112a1.381,1.381,0,0,0,1.181.664,1.415,1.415,0,0,0,.7-.19l17.237-10.163a1.348,1.348,0,0,0,.633-.847,1.332,1.332,0,0,0-.154-1.03,1.382,1.382,0,0,0-1.883-.476l-17.237,10.163a1.36,1.36,0,0,0-.477,1.879" fill="#12100b"/>
    <path id="Path_6" data-name="Path 6" d="M880.957,2307.284a1.37,1.37,0,0,0,.7-.192l17.237-10.162a1.367,1.367,0,0,0,.634-.842,1.349,1.349,0,0,0-.157-1.038,1.382,1.382,0,0,0-1.88-.473l-17.238,10.161a1.358,1.358,0,0,0-.631.843,1.341,1.341,0,0,0,.154,1.039,1.383,1.383,0,0,0,1.181.664" fill="#12100b"/>
    <path id="Path_7" data-name="Path 7" d="M899.373,2289.152a1.38,1.38,0,0,0-1.883-.474l-17.235,10.163a1.359,1.359,0,0,0-.479,1.878,1.383,1.383,0,0,0,1.18.666,1.406,1.406,0,0,0,.7-.19L898.9,2291.03a1.361,1.361,0,0,0,.477-1.878" fill="#12100b"/>
    <path id="Path_8" data-name="Path 8" d="M897.491,2282.154l-17.238,10.163a1.366,1.366,0,0,0-.631.843,1.346,1.346,0,0,0,.155,1.039,1.386,1.386,0,0,0,1.18.664,1.406,1.406,0,0,0,.7-.19l17.238-10.165a1.366,1.366,0,0,0,.479-1.881,1.382,1.382,0,0,0-1.883-.473" fill="#12100b"/>
  </g>
</svg>
