<svg xmlns="http://www.w3.org/2000/svg" viewBox="0 0 38.74 27.14"><path d="M32.3 13.57C32.3 6.08 26.22 0 18.73 0S5.16 6.08 5.16 13.57s6.08 13.57 13.57 13.57S32.3 21.06 32.3 13.57" fill="#ffffff"/><path  d="M.63 9.52h.65c.1 0 .17-.08.17-.17v-2.3h2.93c.1 0 .17-.08.17-.17V6.3c0-.1-.08-.17-.17-.17H1.45V4.45h3.3c.1 0 .17-.08.17-.17v-.59c0-.09-.08-.17-.17-.17H.63c-.1 0-.17.08-.17.17v5.66c0 .1.08.17.17.17zM6.25 9.45c.28.11.57.17.89.17.43 0 .8-.08 1.1-.23.29-.15.55-.36.78-.61.06-.07.05-.18-.02-.24l-.39-.35a.185.185 0 00-.25.01c-.16.16-.34.3-.53.4-.18.09-.41.13-.67.13-.16 0-.32-.03-.47-.08-.15-.05-.29-.13-.41-.24-.12-.11-.22-.24-.3-.39-.05-.11-.09-.23-.11-.36h3.15c.09 0 .16-.06.17-.15 0-.04.01-.08.01-.12V7.3c0-.32-.05-.63-.14-.92-.1-.29-.24-.55-.42-.76-.19-.22-.41-.4-.68-.52a2.09 2.09 0 00-.91-.19c-.32 0-.62.06-.89.19-.27.12-.5.29-.7.51-.2.21-.35.47-.46.75-.1.28-.15.58-.15.91 0 .34.06.67.18.96.12.29.29.54.5.75.2.19.45.36.72.47zm-.28-2.92c.07-.15.16-.29.26-.4a1.049 1.049 0 01.8-.35c.18 0 .34.03.48.1.14.07.26.16.35.27.1.11.17.25.23.4.04.1.06.2.08.31h-2.3c.02-.12.06-.23.1-.33zM9.88 8.97c.21.21.45.37.73.48.28.11.57.17.89.17.43 0 .8-.08 1.1-.23.29-.15.55-.36.78-.61.06-.07.06-.18-.02-.24l-.39-.35c-.07-.06-.18-.06-.24.01-.16.16-.34.3-.53.4a1.666 1.666 0 01-1.16.05 1.242 1.242 0 01-.69-.63 1.8 1.8 0 01-.12-.35h3.15c.09 0 .16-.06.17-.15.01-.05.01-.09.01-.13V7.3c0-.32-.05-.63-.14-.92-.09-.29-.23-.55-.42-.76-.19-.22-.41-.39-.68-.52a2.09 2.09 0 00-.91-.19c-.32 0-.62.06-.89.19-.27.12-.5.29-.7.51-.2.2-.35.46-.46.74-.11.29-.16.59-.16.92 0 .34.06.67.18.96.12.28.29.53.5.74zm.45-2.44c.07-.15.16-.29.26-.4a1.049 1.049 0 01.8-.35 1.03 1.03 0 01.83.37c.1.11.17.25.23.4.04.1.06.2.08.31h-2.31c.03-.12.06-.23.11-.33zM14.85 9.35v-5.9c0-.1-.08-.17-.17-.17h-.63c-.1 0-.17.08-.17.17v5.91c0 .1.08.17.17.17h.63c.09-.01.17-.08.17-.18zM21.65 9.58c.11-.27.16-.59.16-.95V5.17c0-.09-.08-.17-.17-.17h-.63c-.1 0-.17.08-.17.17v.31a1.95 1.95 0 00-.4-.29c-.15-.08-.31-.15-.49-.2-.41-.11-.93-.1-1.39.07-.26.1-.49.24-.69.43-.2.18-.36.41-.49.68-.12.27-.18.57-.18.9 0 .33.06.63.18.9.12.26.28.49.49.67.2.18.43.33.69.42.26.1.53.14.8.14.42 0 .78-.1 1.08-.29.15-.1.28-.2.41-.32v.05c0 .44-.12.77-.36.99-.24.22-.58.33-1 .33-.28 0-.55-.04-.8-.13s-.49-.21-.72-.37c-.04-.03-.09-.04-.14-.03-.05.01-.09.04-.11.08l-.29.49c-.05.08-.02.18.05.23.3.2.62.36.96.46.34.1.69.15 1.06.15.34 0 .66-.05.94-.14.29-.09.54-.23.74-.42.2-.19.36-.43.47-.7zm-.9-2.01a1.345 1.345 0 01-.75.66c-.32.12-.7.12-1.02 0-.16-.06-.29-.14-.41-.25a1.207 1.207 0 01-.38-.92c0-.19.03-.37.1-.52.07-.15.16-.29.27-.39.12-.11.25-.19.41-.25.16-.06.33-.09.51-.09s.36.02.52.08c.17.06.31.15.44.26.13.11.23.24.31.4.07.15.11.32.11.51 0 .18-.04.35-.11.51zM22.8 8.93c.21.21.46.38.75.51s.61.19.95.19c.34 0 .66-.06.95-.19.29-.12.55-.3.76-.51.21-.21.38-.47.5-.76.12-.29.18-.59.18-.91 0-.32-.06-.62-.18-.91-.12-.29-.28-.54-.5-.75-.21-.21-.46-.38-.75-.5-.29-.13-.61-.19-.95-.19a2.351 2.351 0 00-2.21 1.46c-.12.29-.18.59-.18.91a2.305 2.305 0 00.68 1.65zm.42-2.25c.07-.18.16-.33.28-.46.12-.13.26-.23.43-.3a1.471 1.471 0 011.11 0c.17.08.32.18.44.31.13.13.23.29.3.47.07.18.11.37.11.57a1.519 1.519 0 01-.38 1.03c-.12.13-.27.23-.43.3-.33.14-.77.15-1.11 0-.17-.08-.32-.18-.44-.31a1.29 1.29 0 01-.31-.46 1.575 1.575 0 010-1.15zM31.01 5.6c-.21-.21-.46-.38-.75-.51s-.61-.19-.95-.19a2.351 2.351 0 00-2.21 1.46c-.12.29-.18.59-.18.91 0 .32.06.62.18.91.12.28.28.54.5.75.21.21.46.38.75.51s.61.19.95.19c.34 0 .66-.06.95-.19.29-.12.55-.3.76-.51.21-.21.38-.47.5-.76.12-.29.18-.59.18-.91 0-.32-.06-.62-.18-.91a2.59 2.59 0 00-.5-.75zm-.43 2.24c-.07.18-.16.33-.28.46-.12.13-.26.23-.43.3-.33.14-.77.15-1.11 0-.17-.08-.32-.18-.44-.31-.13-.13-.23-.29-.3-.46-.07-.18-.11-.37-.11-.58s.04-.4.1-.57c.07-.18.16-.33.28-.46.12-.13.26-.23.43-.3a1.471 1.471 0 011.11 0c.17.08.32.18.45.31s.22.29.3.46c.07.18.11.37.11.57-.01.21-.04.4-.11.58zM36.18 3.27h-.63c-.1 0-.17.08-.17.17v2.05c-.12-.11-.24-.21-.38-.29-.14-.09-.31-.16-.49-.21-.18-.05-.38-.08-.59-.08-.28 0-.55.05-.81.16s-.5.27-.7.46c-.21.2-.37.45-.5.74-.12.29-.19.62-.19.99s.06.7.19.99c.12.29.29.54.5.74.21.2.44.36.7.46.26.11.53.16.81.16a1.98 1.98 0 001.08-.3c.14-.09.26-.2.38-.31v.36c0 .1.08.17.17.17h.63c.1 0 .17-.08.17-.17V3.45c0-.1-.08-.18-.17-.18zm-.89 4.58c-.07.18-.18.33-.3.45a1.6 1.6 0 01-.44.29c-.32.14-.7.13-1.01 0-.16-.07-.3-.16-.42-.29-.12-.11-.22-.26-.29-.44-.07-.18-.11-.38-.11-.61 0-.23.04-.44.11-.62.07-.17.17-.32.29-.44.12-.12.25-.21.41-.27.16-.06.33-.1.52-.1.17 0 .34.04.5.1.16.07.31.17.44.29.13.12.23.28.3.45.07.18.11.38.11.59 0 .22-.04.43-.11.6zM36.86 10.51c.01 0 .03 0 .04-.01.35-.08.61-.22.78-.41.17-.2.26-.49.26-.86V8.5c0-.09-.08-.17-.17-.17h-.75c-.1 0-.17.08-.17.17v.85c0 .1.08.17.17.17h.12c-.01.06-.03.1-.06.15-.08.09-.2.16-.37.22-.09.03-.14.13-.1.22l.1.28c.02.08.08.12.15.12zM32.78 11.36h-.63c-.1 0-.17.08-.17.17v5.91c0 .09.08.17.17.17h.63c.1 0 .17-.08.17-.17v-5.91c.01-.09-.07-.17-.17-.17zM34.44 11.36h-.63c-.1 0-.17.08-.17.17v5.91c0 .09.08.17.17.17h.63c.1 0 .17-.08.17-.17v-5.91c.01-.09-.07-.17-.17-.17zM36.1 16.42h-.75c-.1 0-.17.08-.17.17v.85c0 .09.08.17.17.17h.75c.1 0 .17-.08.17-.17v-.85c0-.09-.08-.17-.17-.17zM3.1 15.3c-.14-.1-.3-.18-.48-.25-.16-.06-.33-.11-.5-.17-.14-.04-.28-.08-.41-.13-.12-.04-.23-.08-.32-.13a.575.575 0 01-.19-.15.254.254 0 01-.05-.16c0-.12.05-.21.16-.3s.28-.14.49-.14c.19 0 .38.03.58.1.2.07.4.16.58.28.04.04.09.05.13.04.05-.01.08-.04.11-.08l.29-.47c.05-.08.02-.18-.05-.23-.23-.15-.49-.27-.77-.36-.51-.16-1.04-.18-1.48-.04-.2.06-.37.16-.52.27-.15.12-.26.27-.35.44-.07.17-.12.36-.12.58 0 .23.05.42.16.58.1.15.22.28.38.38.15.09.31.17.49.23.17.06.34.11.5.16l.39.12c.12.04.22.08.31.14.08.04.14.1.18.15.03.05.05.1.05.18 0 .15-.05.26-.17.35-.13.1-.31.15-.53.15-.23 0-.46-.04-.69-.13-.23-.08-.46-.21-.67-.37-.04-.03-.08-.04-.13-.03-.05.01-.09.03-.12.07l-.32.44c-.05.07-.04.18.03.23.25.2.55.36.88.48.33.12.66.18.98.18.23 0 .45-.03.65-.09s.38-.16.53-.28c.15-.12.28-.27.36-.45.09-.18.14-.38.14-.63 0-.22-.05-.41-.14-.57-.09-.15-.21-.28-.36-.39zM4.8 11.36h-.63c-.1 0-.17.08-.17.17v5.91c0 .09.08.17.17.17h.63c.1 0 .17-.08.17-.17v-5.91c0-.09-.08-.17-.17-.17zM9.13 13.71c-.19-.22-.41-.39-.68-.52a2.06 2.06 0 00-.91-.19c-.32 0-.62.06-.89.19-.27.12-.5.29-.7.51-.19.21-.35.46-.46.75-.11.28-.16.59-.16.91 0 .34.06.67.18.96.12.29.29.54.5.75.21.21.45.37.73.48.28.11.57.17.89.17.43 0 .8-.08 1.1-.24.29-.15.55-.36.78-.61.06-.07.06-.18-.01-.24l-.4-.35c-.07-.06-.18-.06-.24.01-.16.16-.34.3-.53.4-.18.09-.41.14-.68.14-.16 0-.32-.03-.47-.08a1.242 1.242 0 01-.69-.63c-.07-.12-.11-.24-.13-.36H9.5c.09 0 .16-.06.17-.15.01-.05.01-.09.01-.13v-.09c0-.32-.05-.63-.14-.92-.09-.29-.23-.55-.41-.76zm-2.77 1.24c.02-.12.06-.22.1-.33.07-.15.16-.29.26-.4a1.049 1.049 0 01.8-.35 1.03 1.03 0 01.83.37c.1.11.17.25.23.4.04.1.06.2.08.31h-2.3zM13.48 13.71c-.19-.22-.41-.39-.68-.52a2.03 2.03 0 00-.91-.19c-.32 0-.62.06-.89.19-.27.12-.5.29-.7.51-.19.21-.35.46-.46.75-.11.28-.16.59-.16.91 0 .34.06.67.18.96.12.29.29.54.5.75.21.21.45.37.73.48.28.11.57.17.89.17.43 0 .8-.08 1.1-.24.29-.15.55-.36.78-.61.06-.07.06-.18-.01-.24l-.39-.35c-.07-.06-.18-.06-.24.01-.16.16-.34.3-.53.4-.18.09-.41.14-.68.14-.16 0-.32-.03-.47-.08-.15-.05-.28-.14-.4-.24-.12-.11-.22-.24-.3-.39-.05-.11-.09-.23-.12-.35h3.15c.09 0 .16-.06.17-.15.01-.05.01-.09.01-.13v-.09c0-.32-.05-.63-.14-.92-.1-.3-.24-.56-.43-.77zm-2.77 1.24c.02-.12.06-.22.1-.33.07-.15.15-.29.26-.4a1.049 1.049 0 01.8-.35c.18 0 .34.03.48.1.14.07.26.16.35.27.1.11.17.25.23.4.04.1.06.2.08.31h-2.3zM18.25 13.62c-.21-.2-.44-.36-.71-.46-.26-.11-.54-.16-.81-.16-.21 0-.41.03-.59.08-.17.06-.34.13-.48.22-.14.09-.26.19-.38.31v-.36c0-.09-.08-.17-.17-.17h-.63c-.1 0-.17.08-.17.17v5.48c0 .09.08.17.17.17h.63c.1 0 .17-.08.17-.17v-1.62c.11.11.24.21.37.29.14.09.31.16.48.21.18.05.38.08.59.08.28 0 .55-.06.82-.16a2.211 2.211 0 001.19-1.21c.12-.29.19-.62.19-.99s-.06-.7-.19-.99c-.11-.27-.28-.52-.48-.72zm-.42 2.35c-.07.18-.17.33-.28.45-.12.12-.26.21-.41.27-.32.13-.69.13-1.01-.01a1.6 1.6 0 01-.44-.29c-.13-.12-.23-.28-.31-.45-.07-.18-.11-.38-.11-.6 0-.22.04-.42.11-.59.08-.18.18-.33.31-.45s.27-.22.44-.29c.16-.07.33-.1.5-.1.18 0 .35.03.5.1.16.06.3.16.42.29.12.13.22.28.29.46.07.18.11.38.11.6a2.2 2.2 0 01-.12.61zM27.53 13.16a.191.191 0 00-.14-.07h-.66c-.07 0-.14.05-.17.12l-.95 2.86-.98-2.88a.174.174 0 00-.17-.12h-.52c-.07 0-.14.05-.17.12l-.97 2.88-.95-2.86a.171.171 0 00-.16-.12h-.67c-.06 0-.11.03-.14.07a.18.18 0 00-.02.16l1.48 4.22c.03.07.09.11.17.11h.56c.07 0 .14-.05.17-.12l.98-2.83.97 2.83c.02.07.09.12.17.12h.55c.07 0 .14-.05.17-.11l1.49-4.22c0-.06-.01-.11-.04-.16zM31.1 13.71a1.96 1.96 0 00-.68-.52 2.09 2.09 0 00-.91-.19c-.32 0-.62.06-.89.19-.27.12-.5.29-.7.51-.19.21-.35.46-.46.75-.11.28-.16.59-.16.91 0 .34.06.67.18.96.12.29.29.54.5.75.21.21.45.37.73.48.28.11.57.17.89.17.43 0 .8-.08 1.1-.24.29-.15.55-.36.78-.61.06-.07.06-.18-.01-.24l-.39-.35c-.07-.06-.18-.06-.24.01-.16.16-.34.3-.53.4-.18.09-.41.14-.68.14-.16 0-.32-.03-.47-.08-.15-.05-.28-.14-.4-.24-.12-.11-.22-.24-.3-.39-.05-.11-.09-.23-.12-.35h3.15c.09 0 .16-.06.17-.15.01-.05.01-.09.01-.13v-.09c0-.32-.05-.63-.14-.92-.11-.3-.25-.56-.43-.77zm-2.77 1.24c.02-.12.06-.22.1-.33.07-.15.16-.29.26-.4a1.049 1.049 0 01.8-.35c.18 0 .34.03.48.1.14.07.26.16.35.27.1.11.17.25.23.4.04.1.06.2.08.31h-2.3zM36.56 16.42c-.02 0-.03.02-.03.03v.12c0 .02.01.03.03.03h.35v.97c0 .02.02.03.03.03h.13c.02 0 .03-.02.03-.03v-.97h.35c.02 0 .03-.02.03-.03v-.12c0-.02-.02-.03-.03-.03h-.89zM38.7 16.42h-.13c-.01 0-.02.01-.03.02l-.39.57-.39-.57c-.01-.01-.02-.02-.03-.02h-.13c-.02 0-.03.02-.03.03v1.13c0 .02.01.03.03.03h.13c.02 0 .03-.02.03-.03v-.8l.35.51c.01.01.02.02.03.02h.01c.01 0 .02-.01.03-.02l.35-.51v.8c0 .02.02.03.03.03h.13c.02 0 .03-.02.03-.03v-1.13c.02-.01 0-.03-.02-.03z"/></svg>