<svg xmlns="http://www.w3.org/2000/svg" width="76.699" height="94.888" viewBox="0 0 76.699 94.888">
  <g id="Group_7" data-name="Group 7" transform="translate(-1034.579 -2277.823)">
    <path id="Path_23" data-name="Path 23" d="M1099.022,2306.564a25.586,25.586,0,1,0-25.587,25.586,25.587,25.587,0,0,0,25.587-25.586" fill="#fff"/>
    <path id="Path_24" data-name="Path 24" d="M1047.2,2291.431a.791.791,0,0,0,.73.486h0a.789.789,0,0,0,.728-.488l1.915-4.557a.5.5,0,0,0-.654-.647l-.9.384v-2.944a1.086,1.086,0,1,0-2.172,0v2.944l-.906-.384a.491.491,0,0,0-.545.1.5.5,0,0,0-.108.543Z" fill="#12100b"/>
    <path id="Path_25" data-name="Path 25" d="M1073.66,2300.869a.792.792,0,0,0-.731-.486h0a.789.789,0,0,0-.728.486l-1.914,4.56a.5.5,0,0,0,.106.542.5.5,0,0,0,.549.1l.9-.384v2.945a1.086,1.086,0,1,0,2.172,0v-2.945l.9.384a.5.5,0,0,0,.546-.1.492.492,0,0,0,.108-.542Z" fill="#12100b"/>
    <path id="Path_26" data-name="Path 26" d="M1073.07,2284.621a4.322,4.322,0,1,1-4.24,4.321,4.285,4.285,0,0,1,4.24-4.321m0,10.132a5.811,5.811,0,1,0-5.73-5.811,5.776,5.776,0,0,0,5.73,5.811" fill="#12100b"/>
    <path id="Path_27" data-name="Path 27" d="M1047.818,2279.314a8.418,8.418,0,1,1-8.271,8.416,8.353,8.353,0,0,1,8.271-8.416m0,18.324a9.909,9.909,0,1,0-9.761-9.908,9.848,9.848,0,0,0,9.761,9.908" fill="#12100b"/>
    <path id="Path_28" data-name="Path 28" d="M1082.557,2288.209a.745.745,0,0,0-.864.6c-.062.357-1.612,8.719-8.453,8.719-4.993,0-7.317-4.489-8.26-7.167a3.243,3.243,0,0,0-3.053-2.168,3.279,3.279,0,0,0-3.129,2.4c-1.053,3.72-3.881,9.958-11.017,9.958-9.583,0-11.64-10.268-11.724-10.705a.745.745,0,1,0-1.465.277c.021.119,2.362,11.918,13.189,11.918,8.419,0,11.513-7.723,12.451-11.041a1.747,1.747,0,0,1,3.341-.142c1.074,3.05,3.755,8.163,9.667,8.163,8.1,0,9.9-9.852,9.921-9.952a.744.744,0,0,0-.6-.862" fill="#12100b"/>
    <text id="Memory" transform="translate(1043 2356.054)" font-size="15.944" font-family="Gotham-Medium, Gotham" font-weight="500"><tspan x="0" y="0">Memory</tspan></text>
    <text id="e-Fibre_" data-name="e-Fibre™" transform="translate(1041.278 2371.711)" font-size="15.944" font-family="Gotham-Medium, Gotham" font-weight="500"><tspan x="0" y="0">e-Fibre™</tspan></text>
  </g>
</svg>
