<svg xmlns="http://www.w3.org/2000/svg" width="83.473" height="93.385" viewBox="0 0 83.473 93.385">
  <g id="Group_6" data-name="Group 6" transform="translate(-936.824 -2279.328)">
    <path id="Path_13" data-name="Path 13" d="M1003.213,2304.987a25.659,25.659,0,1,0-25.658,25.659,25.659,25.659,0,0,0,25.658-25.659" fill="#fff"/>
    <path id="Path_14" data-name="Path 14" d="M961.737,2295.753H951.556a4.147,4.147,0,0,0-4.143,4.141v10.181a4.15,4.15,0,0,0,4.143,4.147h10.181a4.148,4.148,0,0,0,4.143-4.147v-10.181a4.145,4.145,0,0,0-4.143-4.141m2.893,14.322a2.9,2.9,0,0,1-2.893,2.894H951.556a2.9,2.9,0,0,1-2.891-2.894v-10.181a2.891,2.891,0,0,1,2.891-2.887h10.181a2.893,2.893,0,0,1,2.893,2.887Z" fill="#12100b"/>
    <path id="Path_15" data-name="Path 15" d="M950.478,2305.839a.63.63,0,0,0,.558.34.655.655,0,0,0,.285-.07l11.223-5.8a.626.626,0,0,0-.285-1.184H951.034a.627.627,0,0,0,0,1.254h8.649L950.748,2305a.628.628,0,0,0-.27.844" fill="#12100b"/>
    <path id="Path_16" data-name="Path 16" d="M962.258,2309.6h-8.649l8.938-4.62a.626.626,0,0,0-.576-1.112l-11.223,5.8a.625.625,0,0,0,.287,1.181h11.223a.625.625,0,1,0,0-1.251" fill="#12100b"/>
    <path id="Path_17" data-name="Path 17" d="M982.5,2295.753H972.319a4.147,4.147,0,0,0-4.143,4.141v10.181a4.15,4.15,0,0,0,4.143,4.147H982.5a4.148,4.148,0,0,0,4.143-4.147v-10.181a4.145,4.145,0,0,0-4.143-4.141m2.893,14.322a2.9,2.9,0,0,1-2.893,2.894H972.319a2.9,2.9,0,0,1-2.892-2.894v-10.181a2.892,2.892,0,0,1,2.892-2.887H982.5a2.893,2.893,0,0,1,2.893,2.887Z" fill="#12100b"/>
    <path id="Path_18" data-name="Path 18" d="M971.241,2305.839a.63.63,0,0,0,.558.34.655.655,0,0,0,.285-.07l11.223-5.8a.626.626,0,0,0-.287-1.184H971.8a.627.627,0,0,0,0,1.254h8.649L971.51,2305a.629.629,0,0,0-.269.844" fill="#12100b"/>
    <path id="Path_19" data-name="Path 19" d="M983.021,2309.6h-8.649l8.936-4.62a.626.626,0,1,0-.575-1.112l-11.222,5.8a.625.625,0,0,0,.287,1.181h11.223a.625.625,0,1,0,0-1.251" fill="#12100b"/>
    <path id="Path_20" data-name="Path 20" d="M1003.552,2295.753H993.371a4.145,4.145,0,0,0-4.141,4.141v10.181a4.148,4.148,0,0,0,4.141,4.147h10.181a4.15,4.15,0,0,0,4.145-4.147v-10.181a4.147,4.147,0,0,0-4.145-4.141m2.893,14.322a2.9,2.9,0,0,1-2.893,2.894H993.371a2.9,2.9,0,0,1-2.891-2.894v-10.181a2.892,2.892,0,0,1,2.891-2.887h10.181a2.891,2.891,0,0,1,2.893,2.887Z" fill="#12100b"/>
    <path id="Path_21" data-name="Path 21" d="M992.294,2305.839a.63.63,0,0,0,.558.34.663.663,0,0,0,.286-.07l11.222-5.8a.627.627,0,0,0-.287-1.184H992.85a.627.627,0,0,0,0,1.254h8.649L992.565,2305a.628.628,0,0,0-.271.844" fill="#12100b"/>
    <path id="Path_22" data-name="Path 22" d="M1004.074,2309.6h-8.647l8.934-4.62a.626.626,0,1,0-.574-1.112l-11.223,5.8a.625.625,0,0,0,.287,1.181h11.223a.625.625,0,1,0,0-1.251" fill="#12100b"/>
    <text id="Micro" transform="translate(955.781 2356.055)" font-size="15.944" font-family="Gotham-Medium, Gotham" font-weight="500"><tspan x="0" y="0">Mic</tspan><tspan y="0" letter-spacing="-0.022em">r</tspan><tspan y="0">o</tspan></text>
    <text id="e-Pocket" transform="translate(936.824 2371.712)" font-size="15.944" font-family="Gotham-Medium, Gotham" font-weight="500"><tspan x="0" y="0">e-</tspan><tspan y="0" letter-spacing="-0.005em">P</tspan><tspan y="0">oc</tspan><tspan y="0" letter-spacing="-0.024em">k</tspan><tspan y="0">et</tspan></text>
    <text id="_" data-name="™" transform="translate(1007.297 2371.712)" font-size="15.944" font-family="Gotham-Medium, Gotham" font-weight="500"><tspan x="0" y="0">™</tspan></text>
  </g>
</svg>
