<svg xmlns="http://www.w3.org/2000/svg" viewBox="0 0 233.6 224.8" style="enable-background:new 0 0 233.6 224.8" xml:space="preserve"><path d="M32.4 173.6h-7.6c-1.6 3.2-4.4 4.8-8 4.8-5.8 0-9.9-4.3-9.9-11s4.1-11 9.9-11c3.6 0 6.4 1.6 8 4.8h7.6c-2.2-6.8-8.2-10.7-15.6-10.7-9.5 0-16.8 7-16.8 17s7.3 16.9 16.8 16.9c7.4-.1 13.4-4 15.6-10.8zM53.5 184.4c9.4 0 17-7 17-17 0-9.9-7.5-17-17-17-9.4 0-17 7-17 17s7.6 17 17 17zm0-28c6 0 10.1 4.2 10.1 11s-4.1 11.1-10.1 11.1-10.2-4.3-10.2-11.1 4.2-11 10.2-11zM93.5 175.6l-10.6-24.7h-7.5v33.2H82v-21.6l9 21.6h5l8.9-21.6v21.6h6.6v-33.2H104zM135.3 164.8h-10.6v-8.5h13.9v-5.4h-20.5v33.2h6.6V170h10.6zM158.7 184.4c9.4 0 17-7 17-17 0-9.9-7.5-17-17-17-9.4 0-17 7-17 17-.1 10 7.6 17 17 17zm0-28c6 0 10.1 4.2 10.1 11s-4.1 11.1-10.1 11.1-10.2-4.3-10.2-11.1 4.1-11 10.2-11zM205 161.1c0-5.6-4-10.2-12-10.2h-12.4v33.2h6.7v-12.9h3.1l7.3 12.9h7.7l-7.9-13.4c5.2-1.5 7.5-5.6 7.5-9.6zm-12.2 5.1h-5.6v-9.7h5.6c3.7 0 5.4 1.9 5.4 4.8-.1 2.9-1.7 4.9-5.4 4.9zM209.2 150.9v5.4h8.9v27.8h6.6v-27.8h8.9v-5.4zM86.8 115.1c-12.1 0-18.9-6.9-19.7-17.2H39.4c.4 24.5 21.1 38.6 48 38.6 29.5 0 45.8-18.4 45.8-38.7 0-45.6-66.4-31.1-66.4-57.1 0-10.6 7.6-15.6 17.8-15.2 11.1.2 18 6.9 18.5 15.4h28.6c-1.7-23.5-19.8-37-46.3-37-26.7 0-45.7 14.1-45.7 37.4-.2 46.9 66.6 30 66.6 58 0 9.3-7.2 15.8-19.5 15.8zM167.5 135.2h26.7V0h-44.7v23.9h18zM13.5 214h8.1v-3.3h-8.1v-3.5h9.2v-3.3H9.9v17h12.9v-3.3h-9.3zM34 214.3c-.4-.3-.8-.5-1.3-.7-.5-.2-.9-.4-1.4-.5-.4-.1-.7-.2-1-.3-.3-.1-.6-.2-.8-.4-.2-.1-.4-.3-.6-.4-.1-.1-.2-.3-.2-.5 0-.3.1-.5.3-.6.2-.2.6-.3 1-.3.5 0 1 .1 1.6.3s1.2.5 1.9.9l1.4-2.6c-.7-.5-1.5-.8-2.3-1.1s-1.7-.4-2.5-.4c-.7 0-1.3.1-1.9.3-.6.2-1.1.4-1.5.8-.4.4-.8.8-1 1.3-.3.5-.4 1.1-.4 1.8 0 .6.1 1.2.4 1.6.2.4.5.8.9 1.1.4.3.8.5 1.3.7.5.2.9.3 1.4.5.4.1.7.2 1 .3l.9.3c.2.1.4.2.6.4.1.1.2.3.2.5 0 .3-.1.5-.4.7-.3.2-.6.3-1.2.3s-1.3-.1-2-.4c-.7-.3-1.4-.6-2.1-1.2l-1.6 2.4c.9.7 1.8 1.2 2.8 1.5s1.9.5 2.8.5c.7 0 1.3-.1 2-.3s1.1-.4 1.6-.8.8-.8 1.1-1.3c.3-.5.4-1.2.4-1.9 0-.6-.1-1.1-.4-1.5-.3-.4-.6-.7-1-1zM46.2 214.3c-.4-.3-.8-.5-1.3-.7-.5-.2-.9-.4-1.4-.5-.4-.1-.7-.2-1-.3s-.6-.2-.8-.4c-.2-.1-.4-.3-.6-.4-.1-.1-.2-.3-.2-.5 0-.3.1-.5.3-.6s.6-.3 1-.3c.5 0 1 .1 1.6.3.6.2 1.2.5 1.9.9l1.4-2.6c-.7-.5-1.5-.8-2.3-1.1-.8-.3-1.7-.4-2.5-.4-.7 0-1.3.1-1.9.3-.6.2-1.1.4-1.5.8s-.8.8-1 1.3c-.3.5-.4 1.1-.4 1.8 0 .6.1 1.2.4 1.6.2.4.5.8.9 1.1.4.3.8.5 1.3.7.5.2.9.3 1.4.5.4.1.7.2 1 .3l.9.3c.3.1.4.2.6.4.1.1.2.3.2.5 0 .3-.1.5-.4.7-.3.2-.6.3-1.2.3s-1.3-.1-2-.4c-.7-.3-1.4-.6-2.1-1.2l-1.6 2.4c.9.7 1.8 1.2 2.8 1.5 1 .3 1.9.5 2.8.5.7 0 1.3-.1 2-.3s1.1-.4 1.6-.8c.5-.3.8-.8 1.1-1.3.3-.5.4-1.2.4-1.9 0-.6-.1-1.1-.4-1.5-.3-.4-.6-.7-1-1zM60.7 209.8c-.5-.7-1.2-1.2-2-1.6s-1.7-.6-2.8-.6c-1 0-1.8.2-2.6.5-.8.4-1.5.8-2 1.5-.6.6-1 1.3-1.3 2.2-.3.8-.5 1.7-.5 2.6 0 1 .2 1.9.5 2.7.3.8.8 1.5 1.4 2.1s1.3 1.1 2.2 1.4c.8.3 1.7.5 2.7.5 1.2 0 2.2-.2 3.1-.6s1.6-1 2.2-1.8l-2.1-1.9c-.5.5-1 .8-1.5 1-.5.2-1 .3-1.7.3-.8 0-1.5-.2-2.1-.6-.6-.4-.9-1.1-1.1-1.9h9.1v-1c0-.9-.1-1.8-.4-2.7-.1-.7-.5-1.5-1.1-2.1zm-7.6 3.5c.1-.8.5-1.5.9-2 .5-.5 1.1-.8 1.9-.8.8 0 1.4.3 1.9.8s.8 1.2.9 2h-5.6zM72.5 207.6c-.5 0-.9.1-1.3.2s-.7.3-1 .5c-.3.2-.6.4-.8.7-.3.3-.5.5-.7.8v-1.9H65v13h3.7v-7.2c0-.9.2-1.5.6-2s1-.7 1.7-.7 1.3.2 1.7.7.6 1.1.6 2v7.2H77v-8.4c0-1.5-.4-2.7-1.2-3.5-.8-1-1.9-1.4-3.3-1.4zM84.5 204.5h-3.7v3.3h-1.6v3.2h1.6v6.2c0 .8.1 1.4.3 1.9.2.5.4.9.8 1.2.3.3.7.5 1.2.6.5.1 1 .2 1.5.2.6 0 1.2-.1 1.6-.2.5-.1.9-.3 1.3-.5v-3c-.6.3-1.2.5-1.8.5-.8 0-1.2-.4-1.2-1.3V211h3.1v-3.2h-3.1v-3.3zM90.3 203.1h3.9v3.3h-3.9zM90.4 207.9h3.7v13h-3.7zM103 207.7c-1.1 0-2 .1-2.8.3-.8.2-1.5.4-2.2.8l.9 2.8c.6-.2 1.2-.4 1.7-.5s1.2-.2 1.9-.2c.9 0 1.6.2 2.1.6.5.4.7 1 .7 1.8v.2c-.5-.2-1-.3-1.4-.4-.5-.1-1.1-.1-1.7-.1-.8 0-1.5.1-2.1.3-.6.2-1.2.4-1.7.8s-.8.8-1.1 1.3c-.3.5-.4 1.1-.4 1.8 0 .6.1 1.2.4 1.7.2.5.6.9 1 1.2s.9.6 1.4.8c.5.2 1.1.3 1.7.3.9 0 1.7-.2 2.3-.4.6-.3 1.2-.7 1.6-1.2v1.4h3.6v-7.6c0-1.8-.5-3.1-1.4-4.1-1-1.1-2.5-1.6-4.5-1.6zm2.3 8.6c0 .7-.3 1.2-.8 1.7-.5.4-1.2.6-2.1.6-.6 0-1.1-.1-1.5-.4-.4-.3-.6-.7-.6-1.2 0-.6.2-1 .7-1.3.5-.3 1.1-.5 1.9-.5.5 0 .9 0 1.3.1s.8.2 1.1.4v.6zM112.1 203.1h3.7v17.7h-3.7zM137.9 212.5c-.5-.4-1-.7-1.7-1-.7-.3-1.4-.5-2.3-.8-.7-.2-1.3-.4-1.8-.5-.5-.1-.9-.3-1.1-.5s-.5-.3-.6-.5c-.1-.2-.2-.4-.2-.7 0-.4.2-.8.5-1.1s.9-.4 1.6-.4 1.5.1 2.2.4c.7.3 1.5.7 2.2 1.2l1.9-2.8c-.9-.7-1.8-1.2-2.9-1.6s-2.2-.6-3.4-.6c-.9 0-1.7.1-2.4.4-.7.2-1.4.6-1.9 1-.5.5-.9 1-1.2 1.6-.3.6-.4 1.3-.4 2.1s.1 1.5.4 2.1c.3.6.6 1 1.1 1.4s1.1.7 1.8 1c.7.3 1.5.5 2.3.7.7.2 1.3.3 1.7.5.4.2.8.3 1 .5.3.2.4.3.5.5.1.2.1.4.1.6 0 .5-.2.9-.6 1.2-.4.3-1 .4-1.8.4-1 0-1.9-.2-2.7-.6-.8-.4-1.6-.9-2.4-1.5l-2.2 2.6c1 .9 2.2 1.6 3.4 2.1s2.5.7 3.8.7c.9 0 1.8-.1 2.5-.4s1.4-.6 2-1c.5-.4 1-1 1.3-1.7.3-.7.5-1.4.5-2.2 0-.7-.1-1.4-.4-1.9s-.4-.8-.8-1.2zM150.3 215.1c0 .9-.2 1.5-.6 2-.4.4-1 .7-1.7.7s-1.3-.2-1.7-.7c-.4-.4-.6-1.1-.6-2v-7.2H142v8.4c0 1.5.4 2.7 1.2 3.5.8.9 1.9 1.3 3.3 1.3.5 0 .9-.1 1.3-.2s.7-.3 1-.5.6-.4.8-.7c.3-.3.5-.5.7-.8v1.9h3.7v-13h-3.7v7.3zM169.1 209.4c-.6-.6-1.2-1-1.9-1.3-.7-.3-1.4-.4-2.2-.4-1 0-1.8.2-2.4.6-.6.4-1.2.9-1.6 1.5v-1.9h-3.7v16.9h3.7v-5.6c.4.5 1 1 1.6 1.3.6.4 1.5.6 2.4.6.8 0 1.5-.1 2.2-.4.7-.3 1.3-.7 1.9-1.3.5-.6 1-1.3 1.3-2.1s.5-1.8.5-2.9c0-1.1-.2-2-.5-2.9-.3-.9-.7-1.6-1.3-2.1zm-1.8 5c0 .6-.1 1.1-.3 1.5-.2.4-.4.8-.7 1.1-.3.3-.6.6-1 .7s-.8.3-1.2.3-.8-.1-1.2-.3c-.4-.2-.7-.4-1-.7-.3-.3-.5-.7-.7-1.1-.2-.4-.3-.9-.3-1.5 0-.5.1-1 .3-1.5.2-.4.4-.8.7-1.2.3-.3.6-.6 1-.7.4-.2.8-.3 1.2-.3s.8.1 1.2.3c.4.2.7.4 1 .7.3.3.5.7.7 1.2.2.4.3.9.3 1.5zM185.5 209.4c-.6-.6-1.2-1-1.9-1.3-.7-.3-1.4-.4-2.2-.4-1 0-1.8.2-2.4.6-.6.4-1.2.9-1.6 1.5v-1.9h-3.7v16.9h3.7v-5.6c.4.5 1 1 1.6 1.3.6.4 1.5.6 2.4.6.8 0 1.5-.1 2.2-.4.7-.3 1.3-.7 1.9-1.3.5-.6 1-1.3 1.3-2.1s.5-1.8.5-2.9c0-1.1-.2-2-.5-2.9-.3-.9-.7-1.6-1.3-2.1zm-1.9 5c0 .6-.1 1.1-.3 1.5-.2.4-.4.8-.7 1.1-.3.3-.6.6-1 .7s-.8.3-1.2.3-.8-.1-1.2-.3c-.4-.2-.7-.4-1-.7-.3-.3-.5-.7-.7-1.1-.2-.4-.3-.9-.3-1.5 0-.5.1-1 .3-1.5.2-.4.4-.8.7-1.2.3-.3.6-.6 1-.7.4-.2.8-.3 1.2-.3s.8.1 1.2.3c.4.2.7.4 1 .7.3.3.5.7.7 1.2.3.4.3.9.3 1.5zM201.5 209.6c-.6-.6-1.4-1.1-2.2-1.4-.9-.3-1.8-.5-2.8-.5-1 0-2 .2-2.8.5-.9.4-1.6.8-2.2 1.5s-1.1 1.3-1.5 2.2c-.4.8-.5 1.7-.5 2.6 0 .9.2 1.8.5 2.6.4.8.8 1.5 1.5 2.1.6.6 1.4 1.1 2.2 1.4.9.3 1.8.5 2.8.5 1 0 2-.2 2.8-.5s1.6-.8 2.2-1.5 1.1-1.3 1.5-2.2.5-1.7.5-2.6c0-.9-.2-1.8-.5-2.6s-.9-1.5-1.5-2.1zm-1.6 4.8c0 .5-.1.9-.2 1.4-.2.4-.4.8-.7 1.1-.3.3-.6.6-1.1.8s-.9.3-1.4.3c-.5 0-1-.1-1.4-.3-.4-.2-.8-.5-1.1-.8s-.5-.7-.7-1.1-.2-.9-.2-1.4c0-.5.1-.9.2-1.4.2-.4.4-.8.7-1.1.3-.3.6-.6 1.1-.8.4-.2.9-.3 1.4-.3.5 0 1 .1 1.4.3.4.2.8.5 1.1.8s.5.7.7 1.1c.1.5.2.9.2 1.4zM209.9 210.5v-2.6h-3.7v13h3.7v-4.8c0-1.6.4-2.7 1.1-3.5.7-.7 1.7-1.1 2.9-1.1h.2v-3.9c-1.1 0-2 .2-2.6.7-.7.6-1.2 1.3-1.6 2.2zM220.6 204.5H217v3.3h-1.6v3.2h1.6v6.2c0 .8.1 1.4.3 1.9.2.5.4.9.8 1.2.3.3.7.5 1.2.6.5.1 1 .2 1.5.2.6 0 1.2-.1 1.6-.2.5-.1.9-.3 1.3-.5v-3c-.6.3-1.2.5-1.8.5-.8 0-1.2-.4-1.2-1.3V211h3.1v-3.2h-3.1v-3.3z"/></svg>