<svg version="1.1" id="Layer_1" xmlns="http://www.w3.org/2000/svg" x="0" y="0" viewBox="0 0 245.3 227.9" style="enable-background:new 0 0 245.3 227.9" xml:space="preserve"><style>.st0{enable-background:new}</style><g class="st0"><path d="M20.3 154.1h7.6l10.5 24.7 10.5-24.7h7.5v33.2h-6.6v-21.6l-8.9 21.6h-5L27 165.7v21.6h-6.7v-33.2zM82.2 159.4H69.6v8.3h11.2v5.3H69.6v8.8h12.6v5.4H63V154h19.2v5.4zM88.3 154.1h7.6l10.5 24.7 10.5-24.7h7.5v33.2h-6.7v-21.6l-8.9 21.6h-5l-8.9-21.6v21.6h-6.7v-33.2zM146.3 187.5c-9.4 0-17-7-17-17 0-9.9 7.6-17 17-17 9.5 0 17 7 17 17s-7.5 17-17 17zm0-5.9c6 0 10.1-4.3 10.1-11.1s-4.1-11-10.1-11-10.2 4.2-10.2 11 4.2 11.1 10.2 11.1zM180.7 154.1c8 0 12 4.6 12 10.2 0 4-2.2 8.1-7.6 9.5l7.9 13.4h-7.7l-7.3-12.9h-3.1v12.9h-6.7V154h12.5zm-.2 5.5h-5.6v9.7h5.6c3.7 0 5.4-1.9 5.4-4.9-.1-3-1.7-4.8-5.4-4.8zM195.9 154.1h7.5l7.1 15.2 7.1-15.2h7.4l-11.2 21.6v11.5h-6.7v-11.5l-11.2-21.6z"/></g><g class="st0"><path d="M68.8 139.6c-26.9 0-47.6-14.1-48-38.6h27.8c.7 10.4 7.6 17.2 19.7 17.2 12.2 0 19.5-6.5 19.5-15.8 0-28-66.7-11.1-66.6-58C21.2 21.1 40.1 7 66.8 7c26.5 0 44.7 13.5 46.3 36.9H84.6C84 35.4 77.2 28.7 66 28.5c-10.2-.4-17.8 4.6-17.8 15.2 0 26 66.4 11.5 66.4 57.1 0 20.4-16.3 38.8-45.8 38.8zM179.5 0c27.8 0 42.6 15.8 42.6 35.8 0 16.9-10.6 27.3-20.4 30.6v.7c13.7 4.3 22.8 15.4 22.8 33.7 0 22.1-15.6 38.4-43.9 38.4-26.7 0-46.9-13.3-48-41.7h25.2c.6 11.7 8.3 20 22.2 20 13 0 19.7-8.2 19.7-18.9 0-15.2-9.6-20.8-28.9-20.8h-5.4V56.5h5.4c15.2 0 26.3-4.3 26.3-17.6 0-10.6-6.5-16.9-18.4-16.9-12.6 0-18 8.2-18.9 16.7h-25.4c1.3-25 19.1-38.7 45.1-38.7z"/></g><g class="st0"><path d="m10.3 224-3.6-5.4h-3v5.4H0v-17h7.8c2 0 3.6.5 4.7 1.5s1.7 2.4 1.7 4.1c0 1.4-.3 2.5-1 3.4-.7.9-1.6 1.5-2.6 1.9l4.2 6.1h-4.5zm.1-11.2c0-.8-.3-1.4-.8-1.8-.5-.4-1.2-.6-2.2-.6H3.7v4.9h3.8c.9 0 1.6-.2 2.1-.7.6-.4.8-1 .8-1.8zM29.3 218.3v.5h-9.1c.2.8.5 1.5 1.1 1.9.6.4 1.3.6 2.1.6.6 0 1.2-.1 1.7-.3.5-.2 1-.5 1.5-1l2.1 1.9c-.6.8-1.4 1.4-2.2 1.8s-1.9.6-3.1.6c-1 0-1.9-.2-2.7-.5-.8-.3-1.6-.8-2.2-1.4s-1.1-1.3-1.4-2.1c-.3-.8-.5-1.7-.5-2.7 0-.9.2-1.8.5-2.6s.8-1.5 1.3-2.2c.6-.6 1.2-1.1 2-1.5.8-.4 1.7-.5 2.6-.5 1.1 0 2 .2 2.8.6s1.5.9 2 1.6c.5.7.9 1.4 1.2 2.3.3.9.4 1.7.4 2.7-.1.1-.1.2-.1.3zm-4.4-3.8c-.5-.5-1.1-.8-1.9-.8-.8 0-1.4.3-1.9.8s-.8 1.2-.9 2h5.6c-.2-.8-.5-1.5-.9-2zM41.2 222c-.3.5-.6 1-1.1 1.3s-1 .6-1.6.8-1.3.3-2 .3c-.9 0-1.9-.2-2.8-.5s-1.9-.8-2.8-1.5l1.6-2.4c.7.5 1.4.9 2.1 1.2.7.3 1.4.4 2 .4.5 0 .9-.1 1.2-.3.3-.2.4-.4.4-.7 0-.2-.1-.4-.2-.5-.1-.1-.3-.3-.6-.4-.3-.1-.5-.2-.9-.3-.3-.1-.7-.2-1-.3-.5-.1-.9-.3-1.4-.5-.5-.2-.9-.4-1.3-.7-.4-.3-.7-.7-.9-1.1-.2-.4-.4-1-.4-1.6 0-.7.1-1.2.4-1.8.3-.5.6-.9 1-1.3s.9-.6 1.5-.8c.6-.2 1.2-.3 1.9-.3.8 0 1.7.1 2.5.4s1.6.6 2.3 1.1l-1.4 2.6c-.6-.4-1.3-.7-1.9-.9s-1.2-.3-1.6-.3c-.5 0-.8.1-1 .3-.2.2-.3.4-.3.6 0 .2.1.3.2.5.1.1.3.3.6.4.2.1.5.2.8.4.3.1.7.2 1 .3.5.1.9.3 1.4.5.5.2.9.4 1.3.7.4.3.7.6.9 1.1.2.4.4.9.4 1.5.1.6 0 1.2-.3 1.8zM57.4 220.4c-.3.8-.8 1.5-1.3 2.1-.5.6-1.2 1-1.9 1.3-.7.3-1.5.4-2.2.4-1 0-1.8-.2-2.4-.6-.6-.4-1.2-.8-1.6-1.3v5.6h-3.7V211H48v1.9c.5-.6 1-1.1 1.6-1.5.6-.4 1.4-.6 2.4-.6.8 0 1.5.1 2.2.4.7.3 1.3.7 1.9 1.3.6.6 1 1.3 1.3 2.1.3.8.5 1.8.5 2.9 0 1.1-.1 2.1-.5 2.9zm-3.2-2.9c0-.5-.1-1-.3-1.5-.2-.4-.4-.8-.7-1.2-.3-.3-.6-.6-1-.7-.4-.2-.8-.3-1.2-.3s-.8.1-1.2.3c-.4.2-.7.4-1 .7-.3.3-.5.7-.7 1.2-.2.4-.3.9-.3 1.5 0 .5.1 1 .3 1.5.2.4.4.8.7 1.1.3.3.6.6 1 .7.4.2.8.3 1.2.3s.8-.1 1.2-.3.7-.4 1-.7c.3-.3.5-.7.7-1.1.3-.4.3-.9.3-1.5zM73.6 220.2c-.4.8-.9 1.5-1.5 2.2-.6.6-1.4 1.1-2.2 1.5s-1.8.5-2.8.5c-1 0-1.9-.2-2.8-.5s-1.6-.8-2.2-1.4c-.6-.6-1.1-1.3-1.5-2.1-.4-.8-.5-1.7-.5-2.6 0-.9.2-1.8.5-2.6.4-.8.9-1.5 1.5-2.2.6-.6 1.4-1.1 2.2-1.5.9-.4 1.8-.5 2.8-.5 1 0 1.9.2 2.8.5.9.3 1.6.8 2.2 1.4.6.6 1.1 1.3 1.5 2.1s.5 1.7.5 2.6c0 .9-.2 1.8-.5 2.6zm-3.1-2.7c0-.5-.1-.9-.2-1.4-.2-.4-.4-.8-.7-1.1-.3-.3-.7-.6-1.1-.8-.4-.2-.9-.3-1.4-.3-.5 0-1 .1-1.4.3-.4.2-.8.4-1.1.8-.3.3-.5.7-.7 1.1-.2.4-.2.9-.2 1.4 0 .5.1.9.2 1.4s.4.8.7 1.1.7.6 1.1.8c.4.2.9.3 1.4.3.5 0 1-.1 1.4-.3s.8-.4 1.1-.8c.3-.3.5-.7.7-1.1.1-.4.2-.8.2-1.4zM85 224v-7.2c0-.9-.2-1.5-.6-2s-.9-.7-1.7-.7-1.3.2-1.7.7-.6 1.1-.6 2v7.2h-3.7v-13h3.7v1.9c.2-.3.4-.5.7-.8.3-.3.5-.5.8-.7.3-.2.6-.4 1-.5.4-.1.8-.2 1.3-.2 1.4 0 2.5.4 3.3 1.3.8.9 1.2 2 1.2 3.5v8.4H85zM101.1 222c-.3.5-.6 1-1.1 1.3s-1 .6-1.6.8-1.3.3-2 .3c-.9 0-1.9-.2-2.8-.5s-1.9-.8-2.8-1.5l1.6-2.4c.7.5 1.4.9 2.1 1.2.7.3 1.4.4 2 .4.5 0 .9-.1 1.2-.3.3-.2.4-.4.4-.7 0-.2-.1-.4-.2-.5-.1-.1-.3-.3-.6-.4-.3-.1-.5-.2-.9-.3-.3-.1-.7-.2-1-.3-.5-.1-.9-.3-1.4-.5-.5-.2-.9-.4-1.3-.7-.4-.3-.7-.7-.9-1.1-.2-.4-.4-1-.4-1.6 0-.7.1-1.2.4-1.8.3-.5.6-.9 1-1.3s.9-.6 1.5-.8c.6-.2 1.2-.3 1.9-.3.8 0 1.7.1 2.5.4s1.6.6 2.3 1.1l-1.4 2.6c-.6-.4-1.3-.7-1.9-.9s-1.2-.3-1.6-.3c-.5 0-.8.1-1 .3-.2.2-.3.4-.3.6 0 .2.1.3.2.5.1.1.3.3.6.4.2.1.5.2.8.4.3.1.7.2 1 .3.5.1.9.3 1.4.5.5.2.9.4 1.3.7.4.3.7.6.9 1.1.2.4.4.9.4 1.5.1.6-.1 1.2-.3 1.8zM104.2 209.6v-3.3h3.9v3.3h-3.9zm.1 14.4v-13h3.7v13h-3.7zM118.8 224.1h-3.4l-5.1-13.1h3.9l2.9 8.7 2.9-8.7h3.8l-5 13.1zM138.2 218.3v.5h-9.1c.2.8.5 1.5 1.1 1.9.6.4 1.3.6 2.1.6.6 0 1.2-.1 1.7-.3.5-.2 1-.5 1.5-1l2.1 1.9c-.6.8-1.4 1.4-2.2 1.8s-1.9.6-3.1.6c-1 0-1.9-.2-2.7-.5-.8-.3-1.6-.8-2.2-1.4s-1.1-1.3-1.4-2.1c-.3-.8-.5-1.7-.5-2.7 0-.9.2-1.8.5-2.6s.8-1.5 1.3-2.2c.6-.6 1.2-1.1 2-1.5.8-.4 1.7-.5 2.6-.5 1.1 0 2 .2 2.8.6s1.5.9 2 1.6c.5.7.9 1.4 1.2 2.3.3.9.4 1.7.4 2.7-.1.1-.1.2-.1.3zm-4.5-3.8c-.5-.5-1.1-.8-1.9-.8-.8 0-1.4.3-1.9.8s-.8 1.2-.9 2h5.6c-.1-.8-.4-1.5-.9-2zM160.4 221.3c-.3.7-.7 1.2-1.3 1.7-.5.4-1.2.8-2 1s-1.6.4-2.5.4c-1.3 0-2.6-.2-3.8-.7s-2.4-1.1-3.4-2.1l2.2-2.6c.8.6 1.6 1.1 2.4 1.5.8.4 1.7.6 2.7.6.8 0 1.4-.1 1.8-.4.4-.3.6-.7.6-1.2 0-.2 0-.5-.1-.6-.1-.2-.3-.4-.5-.5-.3-.2-.6-.3-1-.5s-1-.3-1.7-.5c-.9-.2-1.6-.4-2.3-.7-.7-.3-1.3-.6-1.8-1s-.9-.9-1.1-1.4c-.3-.6-.4-1.3-.4-2.1s.1-1.5.4-2.1c.3-.6.7-1.2 1.2-1.6.5-.5 1.1-.8 1.9-1 .7-.2 1.5-.4 2.4-.4 1.2 0 2.4.2 3.4.6s2 .9 2.9 1.6l-1.9 2.8c-.8-.5-1.5-.9-2.2-1.2-.7-.3-1.5-.4-2.2-.4s-1.3.1-1.6.4-.5.6-.5 1.1c0 .3.1.5.2.7.1.2.3.4.6.5s.7.3 1.1.5c.5.1 1.1.3 1.8.5.9.2 1.6.5 2.3.8.7.3 1.2.6 1.7 1s.8.9 1 1.4.4 1.2.4 1.9c-.2.5-.4 1.3-.7 2zM171.9 224v-1.9c-.2.3-.4.5-.7.8-.3.3-.5.5-.8.7s-.6.3-1 .5c-.4.1-.8.2-1.3.2-1.4 0-2.5-.4-3.3-1.3-.8-.9-1.2-2-1.2-3.5V211h3.7v7.2c0 .9.2 1.5.6 2 .4.4.9.7 1.7.7.7 0 1.3-.2 1.7-.7.4-.4.6-1.1.6-2V211h3.7v13h-3.7zM192.1 220.4c-.3.8-.8 1.5-1.3 2.1-.5.6-1.2 1-1.9 1.3-.7.3-1.5.4-2.2.4-1 0-1.8-.2-2.4-.6-.6-.4-1.2-.8-1.6-1.3v5.6H179V211h3.7v1.9c.5-.6 1-1.1 1.6-1.5.6-.4 1.4-.6 2.4-.6.8 0 1.5.1 2.2.4.7.3 1.3.7 1.9 1.3.6.6 1 1.3 1.3 2.1.3.8.5 1.8.5 2.9 0 1.1-.2 2.1-.5 2.9zm-3.2-2.9c0-.5-.1-1-.3-1.5-.2-.4-.4-.8-.7-1.2-.3-.3-.6-.6-1-.7-.4-.2-.8-.3-1.2-.3s-.8.1-1.2.3c-.4.2-.7.4-1 .7-.3.3-.5.7-.7 1.2-.2.4-.3.9-.3 1.5 0 .5.1 1 .3 1.5.2.4.4.8.7 1.1.3.3.6.6 1 .7.4.2.8.3 1.2.3s.8-.1 1.2-.3.7-.4 1-.7c.3-.3.5-.7.7-1.1.2-.4.3-.9.3-1.5zM208.5 220.4c-.3.8-.8 1.5-1.3 2.1-.5.6-1.2 1-1.9 1.3-.7.3-1.5.4-2.2.4-1 0-1.8-.2-2.4-.6-.6-.4-1.2-.8-1.6-1.3v5.6h-3.7V211h3.7v1.9c.5-.6 1-1.1 1.6-1.5.6-.4 1.4-.6 2.4-.6.8 0 1.5.1 2.2.4.7.3 1.3.7 1.9 1.3.6.6 1 1.3 1.3 2.1.3.8.5 1.8.5 2.9 0 1.1-.2 2.1-.5 2.9zm-3.2-2.9c0-.5-.1-1-.3-1.5-.2-.4-.4-.8-.7-1.2-.3-.3-.6-.6-1-.7-.4-.2-.8-.3-1.2-.3s-.8.1-1.2.3c-.4.2-.7.4-1 .7-.3.3-.5.7-.7 1.2-.2.4-.3.9-.3 1.5 0 .5.1 1 .3 1.5.2.4.4.8.7 1.1.3.3.6.6 1 .7.4.2.8.3 1.2.3s.8-.1 1.2-.3.7-.4 1-.7c.3-.3.5-.7.7-1.1.2-.4.3-.9.3-1.5zM224.6 220.2c-.4.8-.8 1.5-1.5 2.2s-1.4 1.1-2.2 1.5-1.8.5-2.8.5c-1 0-1.9-.2-2.8-.5-.9-.3-1.6-.8-2.2-1.4-.6-.6-1.1-1.3-1.5-2.1-.4-.8-.5-1.7-.5-2.6 0-.9.2-1.8.5-2.6.4-.8.9-1.5 1.5-2.2s1.4-1.1 2.2-1.5c.9-.4 1.8-.5 2.8-.5 1 0 1.9.2 2.8.5.9.3 1.6.8 2.2 1.4.6.6 1.1 1.3 1.5 2.1s.5 1.7.5 2.6c.1.9-.1 1.8-.5 2.6zm-3.1-2.7c0-.5-.1-.9-.2-1.4-.2-.4-.4-.8-.7-1.1s-.7-.6-1.1-.8c-.4-.2-.9-.3-1.4-.3-.5 0-1 .1-1.4.3-.4.2-.8.4-1.1.8-.3.3-.5.7-.7 1.1-.2.4-.2.9-.2 1.4 0 .5.1.9.2 1.4s.4.8.7 1.1.7.6 1.1.8c.4.2.9.3 1.4.3.5 0 1-.1 1.4-.3s.8-.4 1.1-.8c.3-.3.5-.7.7-1.1.1-.4.2-.8.2-1.4zM235.5 214.6c-1.2 0-2.2.4-2.9 1.1-.7.7-1.1 1.9-1.1 3.5v4.8h-3.7v-13h3.7v2.6c.4-.9.9-1.6 1.5-2.1s1.5-.8 2.6-.7v3.9h-.1zM244 224c-.5.1-1 .2-1.6.2-.6 0-1.1-.1-1.5-.2-.5-.1-.9-.3-1.2-.6-.3-.3-.6-.7-.8-1.2-.2-.5-.3-1.1-.3-1.9v-6.2H237V211h1.6v-3.3h3.7v3.3h3.1v3.2h-3.1v5.6c0 .8.4 1.3 1.2 1.3.6 0 1.3-.2 1.8-.5v3c-.4.1-.8.3-1.3.4z"/></g></svg>