<svg version="1.1" id="Layer_1" xmlns="http://www.w3.org/2000/svg" x="0" y="0" viewBox="0 0 218.7 225.1" style="enable-background:new 0 0 218.7 225.1" xml:space="preserve"><style>.st0{enable-background:new}</style><g class="st0"><path d="M46.5 170.3H32.3v14.1h-6.7v-33.2h6.7v13.6h14.2v-13.6h6.7v33.2h-6.7v-14.1zM56.9 151.3h7.5l7.1 15.2 7.1-15.2H86l-11.2 21.6v11.5h-6.7v-11.5l-11.2-21.6zM104.2 184.4H89.9v-33.2h13.7c6.9 0 10.8 3.6 10.8 8.5 0 4-2.4 6.6-5.7 7.6 3.8.7 6.4 4.1 6.4 8 0 5.4-4 9.1-10.9 9.1zm-1.6-27.8h-6.1v8.3h6.1c3.1 0 4.9-1.4 4.9-4.1 0-2.6-1.8-4.2-4.9-4.2zm.5 13.5h-6.6v8.9h6.7c3.2 0 5.1-1.6 5.1-4.4 0-2.8-2-4.5-5.2-4.5zM132.9 151.3c8 0 12 4.6 12 10.2 0 4-2.2 8.1-7.6 9.5l7.9 13.4h-7.7l-7.3-12.9h-3.1v12.9h-6.7v-33.2h12.5zm-.3 5.5H127v9.7h5.6c3.7 0 5.4-1.9 5.4-4.9 0-3-1.7-4.8-5.4-4.8zM150.9 151.3h6.7v33.2h-6.7v-33.2zM193.1 167.9c0 10-6.9 16.5-17.5 16.5H164v-33.2h11.6c10.6.1 17.5 6.6 17.5 16.7zm-17.7 10.9c7 0 10.9-4 10.9-10.9s-3.9-11-10.9-11h-4.7v21.9h4.7z"/></g><g class="st0"><path d="M51 136.8c-26.9 0-47.6-14.1-48-38.6h27.8c.7 10.4 7.6 17.2 19.7 17.2 12.2 0 19.5-6.5 19.5-15.8 0-28-66.7-11.1-66.6-58C3.4 18.2 22.3 4.2 49 4.2c26.5 0 44.7 13.5 46.3 36.9H66.7c-.6-8.5-7.4-15.2-18.5-15.4C38 25.4 30.4 30.4 30.4 41c0 26 66.4 11.5 66.4 57.1 0 20.4-16.4 38.7-45.8 38.7zM207.1 0v22.8H147v31.7c5-6.1 15.2-10.9 26.5-10.9 31.5 0 42.3 23.7 42.3 44.7 0 27.6-15.9 47.3-46.7 47.3-29.1 0-45.8-16.1-48-38.2h25.2c2.2 9.5 9.8 16.3 22.4 16.3 15.2 0 22.1-10.8 22.1-25 0-15.2-7.6-23.5-22.2-23.5-10.8 0-17.6 5.9-20.4 14.3h-24.8V0h83.7z"/></g><g class="st0"><path d="m14.1 221.3-1.6-3.8H5.4l-1.6 3.8H0l7.3-17.1h3.4l7.3 17.1h-3.9zM9 208.6l-2.3 5.5h4.5L9 208.6zM29.7 221.3v-1.9c-.5.6-1 1.1-1.6 1.5-.6.4-1.4.6-2.4.6-.8 0-1.5-.1-2.2-.4-.7-.3-1.3-.7-1.9-1.3-.6-.6-1-1.3-1.3-2.1s-.5-1.8-.5-2.9c0-1.1.2-2 .5-2.9.3-.8.8-1.5 1.3-2.1.5-.6 1.2-1 1.9-1.3.7-.3 1.5-.4 2.2-.4 1 0 1.8.2 2.4.6s1.2.8 1.6 1.3v-6.4h3.7v17.7h-3.7zm0-6.6c0-.5-.1-1-.3-1.5-.2-.4-.4-.8-.7-1.2s-.6-.6-1-.7c-.4-.2-.8-.3-1.2-.3s-.8.1-1.2.3c-.4.2-.7.4-1 .7-.3.3-.5.7-.7 1.1-.2.4-.3.9-.3 1.5 0 .5.1 1 .3 1.5.2.4.4.8.7 1.1.3.3.6.6 1 .7.4.2.8.3 1.2.3s.8-.1 1.2-.3.7-.4 1-.7c.3-.3.5-.7.7-1.1.2-.3.3-.8.3-1.4zM44.3 221.3v-1.4c-.5.5-1 .9-1.6 1.2-.6.3-1.4.4-2.3.4-.6 0-1.2-.1-1.7-.3-.5-.2-1-.4-1.4-.8s-.7-.8-1-1.2c-.2-.5-.4-1.1-.4-1.7 0-.7.1-1.3.4-1.8.3-.5.6-.9 1.1-1.3s1-.6 1.7-.8c.6-.2 1.3-.3 2.1-.3.7 0 1.2 0 1.7.1s1 .2 1.4.4v-.2c0-.8-.2-1.4-.7-1.8-.5-.4-1.2-.6-2.1-.6-.7 0-1.3.1-1.9.2s-1.1.3-1.7.5l-.9-2.8c.7-.3 1.5-.6 2.2-.8.8-.2 1.7-.3 2.8-.3 2 0 3.5.5 4.4 1.5.9 1 1.4 2.4 1.4 4.1v7.6h-3.5zm.1-5.3c-.3-.1-.7-.3-1.1-.4-.4-.1-.8-.1-1.3-.1-.8 0-1.4.2-1.9.5s-.7.8-.7 1.3.2.9.6 1.2c.4.3.9.4 1.5.4.9 0 1.6-.2 2.1-.6.5-.4.8-1 .8-1.7v-.6zM64.2 217.6c-.3.8-.8 1.5-1.3 2.1-.5.6-1.2 1-1.9 1.3-.7.3-1.5.4-2.2.4-1 0-1.8-.2-2.4-.6-.6-.4-1.2-.8-1.6-1.3v5.6H51v-16.9h3.7v1.9c.5-.6 1-1.1 1.6-1.5.6-.4 1.4-.6 2.4-.6.8 0 1.5.1 2.2.4.7.3 1.3.7 1.9 1.3.6.6 1 1.3 1.3 2.1.3.8.5 1.8.5 2.9.1 1.2 0 2.1-.4 2.9zm-3.2-2.9c0-.5-.1-1-.3-1.5-.2-.4-.4-.8-.7-1.2-.3-.3-.6-.6-1-.7-.4-.2-.8-.3-1.2-.3-.4 0-.8.1-1.2.3-.4.2-.7.4-1 .7s-.5.7-.7 1.2c-.2.4-.3.9-.3 1.5 0 .5.1 1 .3 1.5.2.4.4.8.7 1.1.3.3.6.6 1 .7s.8.3 1.2.3c.4 0 .8-.1 1.2-.3.4-.2.7-.4 1-.7.3-.3.5-.7.7-1.1.2-.4.3-.9.3-1.5zM73.5 221.3c-.5.1-1 .2-1.6.2-.6 0-1.1-.1-1.5-.2-.5-.1-.9-.3-1.2-.6-.3-.3-.6-.7-.8-1.2-.2-.5-.3-1.1-.3-1.9v-6.2h-1.6v-3.2H68v-3.3h3.7v3.3h3.1v3.2h-3.1v5.6c0 .8.4 1.3 1.2 1.3.6 0 1.3-.2 1.8-.5v3c-.3.1-.8.3-1.2.5zM77.6 206.8v-3.3h3.9v3.3h-3.9zm.1 14.5v-13h3.7v13h-3.7zM92.2 221.3h-3.4l-5.1-13.1h3.9l2.9 8.7 2.9-8.7h3.8l-5 13.1zM111.6 215.6v.5h-9.1c.2.8.5 1.5 1.1 1.9.6.4 1.3.6 2.1.6.6 0 1.2-.1 1.7-.3.5-.2 1-.5 1.5-1l2.1 1.9c-.6.8-1.4 1.4-2.2 1.8s-1.9.6-3.1.6c-1 0-1.9-.2-2.7-.5-.8-.3-1.6-.8-2.2-1.4s-1.1-1.3-1.4-2.1c-.3-.8-.5-1.7-.5-2.7 0-.9.2-1.8.5-2.6s.8-1.5 1.3-2.2c.6-.6 1.2-1.1 2-1.5.8-.4 1.7-.5 2.6-.5 1.1 0 2 .2 2.8.6s1.5.9 2 1.6c.5.7.9 1.4 1.2 2.3.3.9.4 1.7.4 2.7-.1 0-.1.1-.1.3zm-4.5-3.9c-.5-.5-1.1-.8-1.9-.8-.8 0-1.4.3-1.9.8s-.8 1.2-.9 2h5.6c-.1-.8-.4-1.5-.9-2zM133.8 218.5c-.3.7-.7 1.2-1.3 1.7-.5.4-1.2.8-2 1s-1.6.4-2.5.4c-1.3 0-2.6-.2-3.8-.7s-2.4-1.1-3.4-2.1l2.2-2.6c.8.6 1.6 1.1 2.4 1.5.8.4 1.7.6 2.7.6.8 0 1.4-.1 1.8-.4.4-.3.6-.7.6-1.2 0-.2 0-.5-.1-.6-.1-.2-.3-.4-.5-.5-.3-.2-.6-.3-1-.5s-1-.3-1.7-.5c-.9-.2-1.6-.4-2.3-.7-.7-.3-1.3-.6-1.8-1s-.9-.9-1.1-1.4c-.3-.6-.4-1.3-.4-2.1s.1-1.5.4-2.1c.3-.6.7-1.2 1.2-1.6.5-.5 1.1-.8 1.9-1 .7-.2 1.5-.4 2.4-.4 1.2 0 2.4.2 3.4.6s2 .9 2.9 1.6l-1.9 2.8c-.8-.5-1.5-.9-2.2-1.2-.7-.3-1.5-.4-2.2-.4s-1.3.1-1.6.4-.5.6-.5 1.1c0 .3.1.5.2.7.1.2.3.4.6.5s.7.3 1.1.5c.5.1 1.1.3 1.8.5.9.2 1.6.5 2.3.8.7.3 1.2.6 1.7 1s.8.9 1 1.4.4 1.2.4 1.9c-.2.6-.4 1.3-.7 2zM145.3 221.3v-1.9c-.2.3-.4.5-.7.8-.3.3-.5.5-.8.7s-.6.3-1 .5c-.4.1-.8.2-1.3.2-1.4 0-2.5-.4-3.3-1.3-.8-.9-1.2-2-1.2-3.5v-8.4h3.7v7.2c0 .9.2 1.5.6 2 .4.4.9.7 1.7.7.7 0 1.3-.2 1.7-.7.4-.4.6-1.1.6-2v-7.2h3.7v13h-3.7zM165.5 217.6c-.3.8-.8 1.5-1.3 2.1-.5.6-1.2 1-1.9 1.3-.7.3-1.5.4-2.2.4-1 0-1.8-.2-2.4-.6-.6-.4-1.2-.8-1.6-1.3v5.6h-3.7v-16.9h3.7v1.9c.5-.6 1-1.1 1.6-1.5.6-.4 1.4-.6 2.4-.6.8 0 1.5.1 2.2.4.7.3 1.3.7 1.9 1.3.6.6 1 1.3 1.3 2.1.3.8.5 1.8.5 2.9 0 1.2-.2 2.1-.5 2.9zm-3.2-2.9c0-.5-.1-1-.3-1.5-.2-.4-.4-.8-.7-1.2-.3-.3-.6-.6-1-.7-.4-.2-.8-.3-1.2-.3s-.8.1-1.2.3c-.4.2-.7.4-1 .7-.3.3-.5.7-.7 1.2-.2.4-.3.9-.3 1.5 0 .5.1 1 .3 1.5.2.4.4.8.7 1.1.3.3.6.6 1 .7.4.2.8.3 1.2.3s.8-.1 1.2-.3.7-.4 1-.7c.3-.3.5-.7.7-1.1.2-.4.3-.9.3-1.5zM181.9 217.6c-.3.8-.8 1.5-1.3 2.1-.5.6-1.2 1-1.9 1.3-.7.3-1.5.4-2.2.4-1 0-1.8-.2-2.4-.6-.6-.4-1.2-.8-1.6-1.3v5.6h-3.7v-16.9h3.7v1.9c.5-.6 1-1.1 1.6-1.5.6-.4 1.4-.6 2.4-.6.8 0 1.5.1 2.2.4.7.3 1.3.7 1.9 1.3.6.6 1 1.3 1.3 2.1.3.8.5 1.8.5 2.9 0 1.2-.2 2.1-.5 2.9zm-3.2-2.9c0-.5-.1-1-.3-1.5-.2-.4-.4-.8-.7-1.2-.3-.3-.6-.6-1-.7-.4-.2-.8-.3-1.2-.3s-.8.1-1.2.3c-.4.2-.7.4-1 .7-.3.3-.5.7-.7 1.2-.2.4-.3.9-.3 1.5 0 .5.1 1 .3 1.5.2.4.4.8.7 1.1.3.3.6.6 1 .7.4.2.8.3 1.2.3s.8-.1 1.2-.3.7-.4 1-.7c.3-.3.5-.7.7-1.1.2-.4.3-.9.3-1.5zM198 217.4c-.4.8-.8 1.5-1.5 2.2s-1.4 1.1-2.2 1.5-1.8.5-2.8.5c-1 0-1.9-.2-2.8-.5-.9-.3-1.6-.8-2.2-1.4-.6-.6-1.1-1.3-1.5-2.1-.4-.8-.5-1.7-.5-2.6 0-.9.2-1.8.5-2.6.4-.8.9-1.5 1.5-2.2s1.4-1.1 2.2-1.5c.9-.4 1.8-.5 2.8-.5 1 0 1.9.2 2.8.5.9.3 1.6.8 2.2 1.4.6.6 1.1 1.3 1.5 2.1s.5 1.7.5 2.6c.1.9-.1 1.8-.5 2.6zm-3.1-2.6c0-.5-.1-.9-.2-1.4-.2-.4-.4-.8-.7-1.1s-.7-.6-1.1-.8c-.4-.2-.9-.3-1.4-.3-.5 0-1 .1-1.4.3-.4.2-.8.4-1.1.8-.3.3-.5.7-.7 1.1-.2.4-.2.9-.2 1.4 0 .5.1.9.2 1.4s.4.8.7 1.1.7.6 1.1.8c.4.2.9.3 1.4.3.5 0 1-.1 1.4-.3s.8-.4 1.1-.8c.3-.3.5-.7.7-1.1.1-.4.2-.9.2-1.4zM208.9 211.9c-1.2 0-2.2.4-2.9 1.1-.7.7-1.1 1.9-1.1 3.5v4.8h-3.7v-13h3.7v2.6c.4-.9.9-1.6 1.5-2.1s1.5-.8 2.6-.7v3.9h-.1zM217.4 221.3c-.5.1-1 .2-1.6.2-.6 0-1.1-.1-1.5-.2-.5-.1-.9-.3-1.2-.6-.3-.3-.6-.7-.8-1.2-.2-.5-.3-1.1-.3-1.9v-6.2h-1.6v-3.2h1.6v-3.3h3.7v3.3h3.1v3.2h-3.1v5.6c0 .8.4 1.3 1.2 1.3.6 0 1.3-.2 1.8-.5v3c-.4.1-.8.3-1.3.5z"/></g></svg>