<svg version="1.1" id="Layer_1" xmlns="http://www.w3.org/2000/svg" x="0" y="0" viewBox="0 0 209.8 224.4" style="enable-background:new 0 0 209.8 224.4" xml:space="preserve"><style>.st0{enable-background:new}</style><g class="st0"><path d="M3 150.5h24.3v5.4h-8.8v27.8h-6.7v-27.8H3v-5.4zM44.6 150.5c8 0 12 4.6 12 10.2 0 4-2.2 8.1-7.6 9.5l7.9 13.4h-7.7L42 170.8h-3.1v12.9h-6.7v-33.2h12.4zm-.2 5.5h-5.6v9.7h5.6c3.7 0 5.4-1.9 5.4-4.9 0-2.9-1.7-4.8-5.4-4.8zM62.6 150.5h6.7v33.2h-6.7v-33.2zM75.9 163.9H96v5.6H75.9v-5.6zM117.8 183.7h-14.3v-33.2h13.7c6.9 0 10.8 3.6 10.8 8.5 0 4-2.4 6.6-5.7 7.6 3.8.7 6.4 4.1 6.4 8 .1 5.4-4 9.1-10.9 9.1zm-1.5-27.8h-6.1v8.3h6.1c3.1 0 4.9-1.4 4.9-4.1 0-2.7-1.8-4.2-4.9-4.2zm.5 13.4h-6.6v8.9h6.7c3.2 0 5.1-1.6 5.1-4.4 0-2.7-2-4.5-5.2-4.5zM146.5 150.5c8 0 12 4.6 12 10.2 0 4-2.2 8.1-7.6 9.5l7.9 13.4h-7.7l-7.3-12.9h-3.1v12.9H134v-33.2h12.5zm-.2 5.5h-5.6v9.7h5.6c3.7 0 5.4-1.9 5.4-4.9 0-2.9-1.7-4.8-5.4-4.8zM164.5 150.5h6.7v33.2h-6.7v-33.2zM206.8 167.2c0 10-6.9 16.5-17.5 16.5h-11.6v-33.2h11.6c10.6 0 17.5 6.6 17.5 16.7zM189.1 178c7 0 10.9-4 10.9-10.9s-3.9-11-10.9-11h-4.7V178h4.7z"/></g><g class="st0"><path d="M53.3 136.1c-26.9 0-47.6-14.1-48-38.6h27.8c.7 10.4 7.6 17.2 19.7 17.2 12.2 0 19.5-6.5 19.5-15.8 0-28-66.7-11.1-66.6-58 0-23.4 18.9-37.4 45.6-37.4C77.8 3.5 96 17 97.6 40.4H69.1c-.6-8.5-7.4-15.2-18.5-15.4-10.2-.4-17.8 4.6-17.8 15.2 0 26 66.4 11.5 66.4 57.1-.1 20.4-16.4 38.8-45.9 38.8zM204.6 0v19.3l-49.3 115.5H129l49.7-112.5h-63.4V0h89.3z"/></g><g class="st0"><path d="M14.3 216.5c-.3 1-.8 1.8-1.5 2.4-.6.6-1.4 1.1-2.4 1.4-.9.3-2 .5-3.1.5-2.3 0-4.1-.6-5.4-1.9-1.3-1.3-2-3.2-2-5.7v-9.7h3.7v9.6c0 1.4.3 2.4 1 3.1.6.7 1.5 1.1 2.7 1.1 1.2 0 2-.3 2.7-1 .6-.7 1-1.7 1-3.1v-9.7h3.7v9.6c.1 1.3-.1 2.4-.4 3.4zM18.4 220.5v-17.7h3.7v17.7h-3.7zM31.6 220.5c-.5.1-1 .2-1.6.2-.6 0-1.1-.1-1.5-.2s-.9-.3-1.2-.6c-.3-.3-.6-.7-.8-1.2-.2-.5-.3-1.1-.3-1.9v-6.2h-1.6v-3.2h1.6v-3.3h3.7v3.3H33v3.2h-3.1v5.6c0 .8.4 1.3 1.2 1.3.6 0 1.3-.2 1.8-.5v3c-.4.2-.8.4-1.3.5zM35.7 206.1v-3.3h3.9v3.3h-3.9zm.1 14.4v-13h3.7v13h-3.7zM59.2 220.5v-7.2c0-.9-.2-1.5-.6-2-.4-.4-.9-.7-1.6-.7s-1.2.2-1.6.7-.6 1.1-.6 2v7.2h-3.7v-7.2c0-.9-.2-1.5-.6-2-.4-.4-.9-.7-1.6-.7s-1.2.2-1.6.7-.6 1.1-.6 2v7.2H43v-13h3.7v1.9c.2-.3.4-.5.7-.8.3-.3.5-.5.8-.7.3-.2.7-.4 1-.5.4-.1.8-.2 1.3-.2.9 0 1.6.2 2.2.5.6.4 1.1.9 1.4 1.5.6-.7 1.2-1.2 1.9-1.6.7-.3 1.5-.5 2.4-.5 1.4 0 2.5.4 3.2 1.2.8.8 1.2 2 1.2 3.6v8.5h-3.6zM73.7 220.5v-1.4c-.5.5-1 .9-1.6 1.2-.6.3-1.4.4-2.3.4-.6 0-1.2-.1-1.7-.3-.5-.2-1-.4-1.4-.8-.4-.3-.7-.8-1-1.2-.2-.5-.4-1.1-.4-1.7 0-.7.1-1.3.4-1.8.3-.5.6-.9 1.1-1.3.5-.3 1-.6 1.7-.8.6-.2 1.3-.3 2.1-.3.7 0 1.2 0 1.7.1s1 .2 1.4.4v-.2c0-.8-.2-1.4-.7-1.8-.5-.4-1.2-.6-2.1-.6-.7 0-1.3.1-1.9.2-.5.1-1.1.3-1.7.5l-.9-2.8c.7-.3 1.5-.6 2.2-.8.8-.2 1.7-.3 2.8-.3 2 0 3.5.5 4.4 1.5.9 1 1.4 2.4 1.4 4.1v7.6h-3.5zm.1-5.2c-.3-.1-.7-.3-1.1-.4-.4-.1-.8-.1-1.3-.1-.8 0-1.4.2-1.9.5s-.7.8-.7 1.3.2.9.6 1.2c.4.3.9.4 1.5.4.9 0 1.6-.2 2.1-.6.5-.4.8-1 .8-1.7v-.6zM86.5 220.5c-.5.1-1 .2-1.6.2-.6 0-1.1-.1-1.5-.2-.5-.1-.9-.3-1.2-.6-.3-.3-.6-.7-.8-1.2-.2-.5-.3-1.1-.3-1.9v-6.2h-1.6v-3.2h1.6v-3.3h3.7v3.3h3.1v3.2h-3.1v5.6c0 .8.4 1.3 1.2 1.3.6 0 1.3-.2 1.8-.5v3c-.4.2-.8.4-1.3.5zM102.7 214.8v.5h-9.1c.2.8.5 1.5 1.1 1.9.6.4 1.3.6 2.1.6.6 0 1.2-.1 1.7-.3.5-.2 1-.5 1.5-1l2.1 1.9c-.6.8-1.4 1.4-2.2 1.8-.9.4-1.9.6-3.1.6-1 0-1.9-.2-2.7-.5s-1.6-.8-2.2-1.4-1.1-1.3-1.4-2.1c-.3-.8-.5-1.7-.5-2.7 0-.9.2-1.8.5-2.6s.8-1.5 1.3-2.2c.6-.6 1.2-1.1 2-1.5.8-.4 1.7-.5 2.6-.5 1.1 0 2 .2 2.8.6.8.4 1.5.9 2 1.6.5.7.9 1.4 1.2 2.3.3.9.4 1.7.4 2.7-.1 0-.1.2-.1.3zm-4.5-3.8c-.5-.5-1.1-.8-1.9-.8s-1.4.3-1.9.8-.8 1.2-.9 2h5.6c-.1-.8-.4-1.5-.9-2zM124.9 217.7c-.3.7-.7 1.2-1.3 1.7-.5.4-1.2.8-2 1s-1.6.4-2.5.4c-1.3 0-2.6-.2-3.8-.7S113 219 112 218l2.2-2.6c.8.6 1.6 1.1 2.4 1.5.8.4 1.7.6 2.7.6.8 0 1.4-.1 1.8-.4.4-.3.6-.7.6-1.2 0-.2 0-.5-.1-.6-.1-.2-.3-.4-.5-.5-.3-.2-.6-.3-1-.5s-1-.3-1.7-.5c-.9-.2-1.6-.4-2.3-.7-.7-.3-1.3-.6-1.8-1s-.9-.9-1.1-1.4c-.3-.6-.4-1.3-.4-2.1s.1-1.5.4-2.1c.3-.6.7-1.2 1.2-1.6.5-.5 1.1-.8 1.9-1 .7-.2 1.5-.4 2.4-.4 1.2 0 2.4.2 3.4.6s2 .9 2.9 1.6l-1.9 2.8c-.8-.5-1.5-.9-2.2-1.2-.7-.3-1.5-.4-2.2-.4s-1.3.1-1.6.4-.5.6-.5 1.1c0 .3.1.5.2.7.1.2.3.4.6.5s.7.3 1.1.5c.5.1 1.1.3 1.8.5.9.2 1.6.5 2.3.8.7.3 1.2.6 1.7 1s.8.9 1 1.4.4 1.2.4 1.9c-.3.6-.4 1.4-.8 2zM136.4 220.5v-1.9c-.2.3-.4.5-.7.8-.3.3-.5.5-.8.7s-.6.3-1 .5c-.4.1-.8.2-1.3.2-1.4 0-2.5-.4-3.3-1.3-.8-.9-1.2-2-1.2-3.5v-8.4h3.7v7.2c0 .9.2 1.5.6 2 .4.4.9.7 1.7.7s1.3-.2 1.7-.7c.4-.4.6-1.1.6-2v-7.2h3.7v13h-3.7zM156.6 216.9c-.3.8-.8 1.5-1.3 2.1-.5.6-1.2 1-1.9 1.3-.7.3-1.5.4-2.2.4-1 0-1.8-.2-2.4-.6-.6-.4-1.2-.8-1.6-1.3v5.6h-3.7v-16.9h3.7v1.9c.5-.6 1-1.1 1.6-1.5.6-.4 1.4-.6 2.4-.6.8 0 1.5.1 2.2.4.7.3 1.3.7 1.9 1.3.6.6 1 1.3 1.3 2.1.3.8.5 1.8.5 2.9 0 1.1-.2 2.1-.5 2.9zm-3.2-2.9c0-.5-.1-1-.3-1.5-.2-.4-.4-.8-.7-1.2-.3-.3-.6-.6-1-.7-.4-.2-.8-.3-1.2-.3-.4 0-.8.1-1.2.3-.4.2-.7.4-1 .7s-.5.7-.7 1.2c-.2.4-.3.9-.3 1.5 0 .5.1 1 .3 1.5.2.4.4.8.7 1.1.3.3.6.6 1 .7s.8.3 1.2.3c.4 0 .8-.1 1.2-.3.4-.2.7-.4 1-.7.3-.3.5-.7.7-1.1.2-.4.3-.9.3-1.5zM173 216.9c-.3.8-.8 1.5-1.3 2.1-.5.6-1.2 1-1.9 1.3-.7.3-1.5.4-2.2.4-1 0-1.8-.2-2.4-.6-.6-.4-1.2-.8-1.6-1.3v5.6h-3.7v-16.9h3.7v1.9c.5-.6 1-1.1 1.6-1.5.6-.4 1.4-.6 2.4-.6.8 0 1.5.1 2.2.4.7.3 1.3.7 1.9 1.3.6.6 1 1.3 1.3 2.1.3.8.5 1.8.5 2.9 0 1.1-.2 2.1-.5 2.9zm-3.2-2.9c0-.5-.1-1-.3-1.5-.2-.4-.4-.8-.7-1.2-.3-.3-.6-.6-1-.7-.4-.2-.8-.3-1.2-.3s-.8.1-1.2.3c-.4.2-.7.4-1 .7-.3.3-.5.7-.7 1.2-.2.4-.3.9-.3 1.5 0 .5.1 1 .3 1.5.2.4.4.8.7 1.1.3.3.6.6 1 .7.4.2.8.3 1.2.3s.8-.1 1.2-.3.7-.4 1-.7c.3-.3.5-.7.7-1.1.2-.4.3-.9.3-1.5zM189.1 216.7c-.4.8-.9 1.5-1.5 2.2-.6.6-1.4 1.1-2.2 1.5s-1.8.5-2.8.5c-1 0-1.9-.2-2.8-.5s-1.6-.8-2.2-1.4c-.6-.6-1.1-1.3-1.5-2.1-.4-.8-.5-1.7-.5-2.6 0-.9.2-1.8.5-2.6.4-.8.9-1.5 1.5-2.2.6-.6 1.4-1.1 2.2-1.5.9-.4 1.8-.5 2.8-.5 1 0 1.9.2 2.8.5.9.3 1.6.8 2.2 1.4.6.6 1.1 1.3 1.5 2.1s.5 1.7.5 2.6c.1.9-.1 1.7-.5 2.6zM186 214c0-.5-.1-.9-.2-1.4-.2-.4-.4-.8-.7-1.1-.3-.3-.7-.6-1.1-.8-.4-.2-.9-.3-1.4-.3-.5 0-1 .1-1.4.3-.4.2-.8.4-1.1.8-.3.3-.5.7-.7 1.1-.2.4-.2.9-.2 1.4 0 .5.1.9.2 1.4s.4.8.7 1.1.7.6 1.1.8c.4.2.9.3 1.4.3.5 0 1-.1 1.4-.3s.8-.4 1.1-.8c.3-.3.5-.7.7-1.1.1-.4.2-.8.2-1.4zM200 211.1c-1.2 0-2.2.4-2.9 1.1-.7.7-1.1 1.9-1.1 3.5v4.8h-3.7v-13h3.7v2.6c.4-.9.9-1.6 1.5-2.1s1.5-.8 2.6-.7v3.9h-.1zM208.5 220.5c-.5.1-1 .2-1.6.2-.6 0-1.1-.1-1.5-.2s-.9-.3-1.2-.6c-.3-.3-.6-.7-.8-1.2-.2-.5-.3-1.1-.3-1.9v-6.2h-1.6v-3.2h1.6v-3.3h3.7v3.3h3.1v3.2h-3.1v5.6c0 .8.4 1.3 1.2 1.3.6 0 1.3-.2 1.8-.5v3c-.4.2-.8.4-1.3.5z"/></g></svg>