<?xml version="1.0" encoding="utf-8"?>
<!-- Generator: Adobe Illustrator 26.0.3, SVG Export Plug-In . SVG Version: 6.00 Build 0)  -->
<svg version="1.1" id="Layer_1" xmlns="http://www.w3.org/2000/svg" xmlns:xlink="http://www.w3.org/1999/xlink" x="0px" y="0px"
	 viewBox="0 0 32.4 28.9" style="enable-background:new 0 0 32.4 28.9;" xml:space="preserve">
<style type="text/css">
	.st0{fill:#FFFFFF;}
</style>
<path class="st0" d="M16.2,28.8c-0.3,0-0.5-0.1-0.8-0.2C4.2,22.6,1.1,15.6,0.2,11.9c-0.6-3,0.2-6,2-8.4c1.5-2.1,4-3.4,6.6-3.5
	c2.6-0.2,5.2,0.6,7.3,2.1c2.1-1.6,4.7-2.3,7.3-2.1c2.6,0.1,5,1.4,6.6,3.5c1.8,2.4,2.6,5.4,2,8.4c-0.9,3.7-4,10.7-15.2,16.8
	C16.7,28.8,16.4,28.8,16.2,28.8z M9.3,2H8.9C6.9,2.1,5,3.1,3.8,4.7c-1.5,1.9-2.1,4.3-1.7,6.7c0.8,3.3,3.7,9.7,14,15.4
	c10.4-5.6,13.2-12,14-15.4c0.4-2.4-0.2-4.8-1.7-6.7c-1.2-1.6-3-2.6-5-2.7c-3.8-0.1-5.7,1.3-6.6,2.2l-0.7,0.7l-0.7-0.7
	C13.8,2.6,11.6,1.9,9.3,2z"/>
</svg>
