<?xml version="1.0" encoding="utf-8"?>
<!-- Generator: Adobe Illustrator 26.0.3, SVG Export Plug-In . SVG Version: 6.00 Build 0)  -->
<svg version="1.1" id="Layer_1" xmlns="http://www.w3.org/2000/svg" xmlns:xlink="http://www.w3.org/1999/xlink" x="0px" y="0px"
	 viewBox="0 0 46 29.7" style="enable-background:new 0 0 46 29.7;" xml:space="preserve">
<style type="text/css">
	.st0{fill:#FFFFFF;}
</style>
<path class="st0" d="M37.5,29.7H8.6c-4.7,0-8.5-3.8-8.6-8.6c0-3.4,2.1-6.5,5.2-7.8C5.1,12.8,5,12.2,5,11.7C5,5.2,10.3,0,16.7,0
	c0,0,0,0,0,0c4.4,0,8.3,2.5,10.3,6.4C28.4,5.5,30.1,5,31.8,5c4.9,0,9.1,3.7,9.7,8.6c4.1,2.3,5.6,7.5,3.4,11.6
	C43.4,27.9,40.6,29.6,37.5,29.7L37.5,29.7z M16.7,2C11.4,2,7,6.3,7,11.7c0,0,0,0,0,0c0,0.7,0.1,1.4,0.3,2.1l0.2,0.9L6.6,15
	C3.9,15.8,2,18.3,2,21.1c0,3.6,2.9,6.5,6.6,6.6h28.9c3.6,0,6.5-2.9,6.6-6.5c0-2.6-1.5-5-3.9-6L39.6,15v-0.6C39.4,10.2,36,7,31.8,7
	c-1.7,0-3.3,0.6-4.6,1.7l-1,0.8l-0.5-1.2C24.3,4.5,20.7,2,16.7,2z"/>
</svg>
