<?xml version="1.0" encoding="utf-8"?>
<!-- Generator: Adobe Illustrator 26.0.3, SVG Export Plug-In . SVG Version: 6.00 Build 0)  -->
<svg version="1.1" id="Layer_1" xmlns="http://www.w3.org/2000/svg" xmlns:xlink="http://www.w3.org/1999/xlink" x="0px" y="0px"
	 viewBox="0 0 35.4 37.3" style="enable-background:new 0 0 35.4 37.3;" xml:space="preserve">
<style type="text/css">
	.st0{fill:#FFFFFF;}
</style>
<path class="st0" d="M35.4,1.1c0-0.3-0.2-0.5-0.5-0.6c-0.2,0-5.8-1.4-10,0.5l-0.1,0c-6.1,3.9-5.4,10.6-5.1,12.3l-1,0.8
	c-0.8,0.7-1.4,1.6-1.7,2.7c-0.6-0.8-1.5-1.4-2.5-1.8c-1-3.3-3.9-5.7-7.4-6H7.1c-3.4,0.1-6.7,2.6-6.8,2.7c-0.2,0.2-0.3,0.5-0.2,0.8
	c0.1,0.2,1.8,3.8,4.8,5.5h0.1c1,0.4,2.1,0.6,3.3,0.6c2.2-0.1,4.4-0.9,6-2.5c1.6,0.7,2.7,2.2,2.7,4v3C9.7,23.6,4.1,29.5,4.1,36.6
	c0,0.4,0.3,0.7,0.7,0.7h25.6c0.4,0,0.7-0.3,0.7-0.7c0-7.2-5.7-13.1-12.8-13.4V18c0-1.1,0.5-2.2,1.3-2.9l1-0.8
	c1.4,0.5,2.9,0.8,4.4,0.8c3.2,0,6.2-1.4,8.2-3.8l0.1-0.1C35.8,7.3,35.4,1.4,35.4,1.1z M5.4,16.9c-1.7-1.1-3-2.6-3.9-4.4
	C3.1,11.3,5,10.5,7,10.3c2.6,0.2,4.8,1.8,5.9,4.1l-5.6-1.5c-0.4-0.1-0.7,0.1-0.8,0.5c-0.1,0.4,0.1,0.7,0.5,0.8l5.8,1.6
	C10.7,17.5,7.9,17.9,5.4,16.9L5.4,16.9z M29.7,35.9H5.4c0.4-6.7,6.1-11.8,12.8-11.4C24.4,24.9,29.3,29.8,29.7,35.9z M32.1,10.5
	c-2.6,3-6.7,4.1-10.4,2.8l6.9-5.9c0.2-0.3,0.2-0.7-0.1-0.9c-0.2-0.2-0.5-0.2-0.8-0.1l-6.9,5.9c-0.5-4,1.3-7.9,4.6-10.1
	c3.1-1.4,7.2-0.8,8.6-0.5C34.1,3.2,34,7.5,32.1,10.5z"/>
</svg>
