<svg xmlns="http://www.w3.org/2000/svg" viewBox="0 0 219.3 219.2"><path d="M198 0H21.3C9.6 0 0 9.6 0 21.3v176.6c0 11.7 9.6 21.3 21.3 21.3h176.6c11.7 0 21.3-9.5 21.3-21.3V21.3C219.3 9.6 209.7 0 198 0zm16.3 197.9c0 9-7.3 16.3-16.3 16.3H21.3c-9 0-16.3-7.3-16.3-16.3V21.3C5 12.3 12.3 5 21.3 5H198c9 0 16.3 7.3 16.3 16.3v176.6z"/><path d="M65.9 145c.5-.1.9-.4 1.3-.6.5-.3 1-.7 1.4-1.2.4-.5.7-1 .9-1.6.2-.6.3-1.3.3-2.1 0-.9-.2-1.7-.5-2.4s-.8-1.3-1.4-1.9c-.6-.5-1.3-.9-2.2-1.2-.9-.3-1.8-.4-2.8-.4h-7.7c-.2 0-.4.2-.4.4v17.4c0 .2.1.4.4.4h3c.2 0 .4-.1.4-.4v-5.7h3.3l4.2 5.9c.1.1.2.1.3.1H70c.1 0 .2-.1.3-.2s0-.2 0-.4l-4.4-6.1zm-3.1-2.7h-4.1v-5.2h4.1c1.1 0 1.9.2 2.4.7.5.4.8 1 .8 1.9 0 .8-.3 1.4-.9 1.9-.5.4-1.3.7-2.3.7zm21.4 7.1c.2-.1.2-.4.1-.5l-1.8-1.6c-.1-.1-.4-.1-.5 0-.5.5-1 .9-1.5 1.1-.5.2-1.1.4-1.8.4-.9 0-1.6-.2-2.3-.8-.5-.4-.9-1.1-1.1-1.8h9.2c.2 0 .3-.1.4-.3v-.9c0-1-.1-1.9-.4-2.8-.3-.9-.7-1.7-1.2-2.4s-1.2-1.2-2.1-1.6c-.8-.4-1.8-.6-2.9-.6-1 0-1.9.2-2.7.6-.8.4-1.5.9-2.1 1.6s-1.1 1.4-1.4 2.3c-.3.9-.5 1.8-.5 2.8 0 1.1.2 2.1.6 2.9.4.9.9 1.6 1.5 2.3.6.6 1.4 1.1 2.3 1.5.9.4 1.8.5 2.8.5 1.3 0 2.4-.2 3.3-.7.7-.6 1.4-1.2 2.1-2zm-7.9-7.7c.5-.6 1.2-.9 2-.9.5 0 .9.1 1.2.2.4.2.6.4.9.6.2.3.5.6.6 1 .1.3.2.6.2.9h-5.9c.1-.7.5-1.3 1-1.8zm24.7 6.1c.4-.9.5-1.9.5-3.1 0-1.1-.2-2.2-.5-3.1-.4-.9-.9-1.7-1.5-2.3-.6-.6-1.3-1.1-2.1-1.4s-1.6-.5-2.4-.5c-1.1 0-2.1.2-2.8.8-.5.3-.9.6-1.2 1V133c0-.2-.1-.4-.4-.4h-3c-.2 0-.4.1-.4.4v18.1c0 .2.1.4.4.4h3c.1 0 .2 0 .2-.1.1-.1.1-.2.1-.2v-1.1c.4.4.7.7 1.2 1 .8.5 1.7.7 2.9.7.8 0 1.6-.1 2.4-.5.8-.3 1.5-.8 2.1-1.4.7-.4 1.2-1.2 1.5-2.1zm-3.4-1.3c-.2.5-.4.9-.7 1.2s-.7.6-1.1.7c-.8.4-1.8.4-2.6 0-.4-.2-.8-.4-1.1-.8-.3-.4-.6-.7-.7-1.2-.2-.5-.3-1-.3-1.6 0-.6.1-1.1.3-1.6s.5-.9.7-1.2c.3-.3.7-.6 1.1-.8.4-.2.8-.3 1.3-.3s.9.1 1.3.3c.4.2.8.4 1.1.8.3.3.6.7.7 1.2.2.5.3 1 .3 1.6-.1.6-.2 1.2-.3 1.7zm12.9 5.5c1 0 2-.2 2.9-.6.9-.4 1.7-.9 2.3-1.6.6-.6 1.2-1.4 1.5-2.3.4-.9.6-1.8.6-2.8s-.2-1.9-.6-2.8c-.4-.9-.9-1.6-1.5-2.3-.6-.6-1.4-1.2-2.3-1.5-1.8-.7-4.1-.7-5.9 0-.9.4-1.7.9-2.3 1.6-.6.6-1.2 1.4-1.6 2.3-.4.9-.6 1.8-.6 2.8 0 1 .2 1.9.6 2.8.4.9.9 1.6 1.5 2.3.6.6 1.4 1.2 2.3 1.5 1.1.4 2.1.6 3.1.6zm-3.5-7.2c0-.5.1-1 .2-1.5.2-.5.4-.9.7-1.2.3-.4.7-.6 1.1-.8s.9-.3 1.5-.3c.5 0 1 .1 1.5.3s.8.5 1.1.9.6.8.7 1.2.3 1 .3 1.5-.1 1.1-.2 1.5c-.2.5-.4.9-.7 1.2-.3.4-.7.6-1.1.8-.9.4-2.1.4-2.9 0-.5-.2-.8-.5-1.1-.8-.3-.4-.6-.8-.7-1.2-.3-.5-.4-1-.4-1.6zm20.8 6.4c.4-.3.7-.6 1-.9v1c0 .2.1.4.4.4h3c.2 0 .4-.1.4-.4v-13.1c0-.2-.1-.4-.4-.4h-3c-.2 0-.4.2-.4.4v7.4c0 .9-.2 1.7-.7 2.1-.5.5-1.1.7-1.9.7s-1.4-.2-1.8-.7c-.4-.5-.6-1.2-.6-2.1v-7.4c0-.2-.1-.4-.4-.4h-3c-.2 0-.4.2-.4.4v8.3c0 1.6.4 2.9 1.3 3.9s2.1 1.5 3.7 1.5c1.2.1 2.1-.2 2.8-.7zm17 .5h3c.2 0 .4-.1.4-.4V143c0-1.6-.4-2.9-1.3-3.9s-2.1-1.5-3.7-1.5c-.5 0-1.1.1-1.5.2s-.9.3-1.2.6c-.4.2-.7.5-1 .8l-.1.1v-1c0-.2-.1-.4-.4-.4h-3c-.2 0-.4.1-.4.4v13.1c0 .2.1.4.4.4h3c.2 0 .4-.1.4-.4V144c0-1 .2-1.6.7-2.1.5-.5 1.1-.7 1.9-.7.8 0 1.4.2 1.8.7.4.5.6 1.2.6 2.1v7.4c0 .2.2.3.4.3zm19.5-18.8h-3c-.2 0-.4.1-.4.4v6.1c-.4-.4-.8-.7-1.2-1-.8-.5-1.7-.7-2.9-.7-.8 0-1.6.2-2.4.5-.8.3-1.5.8-2.1 1.4-.6.6-1.1 1.4-1.4 2.3-.4.9-.5 1.9-.5 3.1 0 1.1.2 2.2.5 3.1.4.9.9 1.6 1.4 2.3.6.6 1.3 1.1 2.1 1.4s1.6.5 2.4.5c1.1 0 2.1-.2 2.9-.8.5-.3.9-.7 1.2-1.1v1.2c0 .2.1.4.4.4h3c.2 0 .4-.1.4-.4v-18.1c0-.5-.2-.6-.4-.6zm-3.6 13.5c-.2.5-.5.9-.7 1.2-.3.3-.7.6-1.1.8-.9.4-1.8.4-2.6 0-.4-.2-.8-.4-1.1-.8-.3-.3-.6-.7-.7-1.2-.2-.5-.3-1-.3-1.6s.1-1.2.3-1.6c.2-.5.4-.9.7-1.2.3-.3.7-.6 1.1-.7.4-.2.9-.2 1.3-.2s.9.1 1.3.3c.4.2.8.4 1.1.8s.6.7.7 1.2c.2.5.3 1 .3 1.6 0 .4-.1.9-.3 1.4zm-92.1 23.3c-.5-.7-1.2-1.2-2.1-1.6-.8-.4-1.8-.6-2.9-.6-1 0-1.9.2-2.7.6-.8.4-1.5.9-2.1 1.6-.6.6-1.1 1.4-1.4 2.3-.3.9-.5 1.8-.5 2.8 0 1.1.2 2.1.5 2.9s.9 1.6 1.5 2.3c.6.6 1.4 1.1 2.2 1.5.9.4 1.8.5 2.8.5 1.3 0 2.4-.2 3.3-.7.9-.5 1.7-1.1 2.3-1.9.1-.1.1-.4 0-.5l-1.8-1.6c-.1-.1-.4-.1-.5 0-.5.5-1 .9-1.5 1.1-.5.2-1.1.4-1.8.4-.9 0-1.6-.2-2.3-.8-.5-.5-.9-1.1-1.1-1.8h9.2c.2 0 .4-.2.4-.4v-.8c0-1-.1-1.9-.4-2.8-.2-1-.6-1.9-1.1-2.5zm-8 3.7c.1-.7.5-1.4 1-1.9.5-.6 1.2-.9 2.1-.9.5 0 .9.1 1.2.2.4.2.6.4.9.6.2.3.5.6.6 1 .1.3.2.6.2.9h-6zm19.2-1.7h-7.3c-.2 0-.4.1-.4.4v2.9c0 .2.1.4.4.4h7.3c.2 0 .4-.2.4-.4v-2.9c-.1-.2-.3-.4-.4-.4zm16.5-8.3H83.4c-.2 0-.4.2-.4.4v17.4c0 .2.1.4.4.4h3c.2 0 .4-.2.4-.4v-6.7h8.4c.2 0 .4-.1.4-.4v-2.8c0-.2-.1-.4-.4-.4h-8.4v-4.1h9.6c.2 0 .4-.1.4-.4v-2.8c-.1 0-.3-.2-.5-.2zm6.3 4.3h-3c-.2 0-.4.1-.4.4v13.1c0 .2.1.4.4.4h3c.2 0 .4-.1.4-.4v-13.1c-.1-.2-.3-.4-.4-.4zm.1-4.9h-3.3c-.2 0-.4.2-.4.4v2.9c0 .2.1.4.4.4h3.3c.2 0 .4-.1.4-.4v-2.9c-.1-.2-.3-.4-.4-.4zm15.7 6.5c-.6-.6-1.3-1.1-2.1-1.4-.8-.3-1.6-.5-2.4-.5-1.1 0-2.1.2-2.8.8-.5.3-.9.6-1.2 1V163c0-.2-.1-.4-.4-.4h-3c-.2 0-.4.1-.4.4v18.1c0 .2.1.4.4.4h3c.1 0 .2 0 .2-.1.1-.1.1-.1.1-.2v-1.1c.4.4.7.7 1.2 1 .8.5 1.7.7 2.9.7.8 0 1.6-.2 2.4-.5.8-.3 1.5-.8 2.1-1.4.6-.6 1.1-1.4 1.5-2.3.4-.9.5-1.9.5-3.1 0-1.1-.2-2.2-.5-3.1-.4-.7-.9-1.4-1.5-2.1zm-2 7c-.2.5-.4.9-.7 1.2-.3.3-.7.6-1.1.7-.8.4-1.8.4-2.6 0-.4-.2-.8-.4-1.1-.8-.3-.4-.6-.7-.7-1.2s-.3-1-.3-1.6c0-.6.1-1.1.3-1.6s.5-.9.7-1.2c.3-.3.7-.6 1.1-.8.4-.2.9-.3 1.3-.3.5 0 .9.1 1.3.3.4.2.8.4 1.1.8.3.3.5.7.7 1.2.2.5.3 1 .3 1.6 0 .7-.1 1.2-.3 1.7zm14.4-8.8c-1.2 0-2.3.2-3.1.9-.5.4-.9.8-1.2 1.3v-1.6c0-.2-.1-.4-.4-.4h-3c-.2 0-.4.2-.4.4v13.1c0 .2.1.4.4.4h3c.2 0 .4-.1.4-.4v-5c0-.8.1-1.6.3-2.2.2-.6.5-1.1.9-1.5.4-.4.8-.7 1.3-.9.5-.2 1.1-.3 1.7-.3h.2c.2 0 .4-.1.4-.4v-3.2c-.2-.1-.3-.2-.5-.2zm12.8 2.2c-.5-.7-1.2-1.2-2.1-1.6-.8-.4-1.8-.6-2.9-.6-1 0-1.9.2-2.7.6-.8.4-1.5.9-2.1 1.6-.6.6-1.1 1.4-1.4 2.3-.3.9-.5 1.8-.5 2.8 0 1.1.2 2.1.5 2.9s.9 1.6 1.5 2.3c.6.6 1.4 1.1 2.2 1.5.9.4 1.8.5 2.8.5 1.3 0 2.4-.2 3.3-.7.9-.5 1.7-1.1 2.3-1.9.1-.1.1-.4 0-.5l-1.8-1.6c-.1-.1-.4-.1-.5 0-.5.5-1 .9-1.5 1.1-.5.2-1.1.4-1.8.4-.9 0-1.6-.2-2.3-.8-.5-.5-.9-1.1-1.1-1.8h9.2c.2 0 .4-.2.4-.4v-.8c0-1-.1-1.9-.4-2.8-.1-1-.6-1.9-1.1-2.5zm-8 3.7c.1-.7.5-1.4 1-1.9.5-.6 1.2-.9 2.1-.9.5 0 .9.1 1.2.2.4.2.6.4.9.6.2.3.5.6.6 1 .1.3.2.6.2.9h-6zm26.6-10h-1.5c-.1 0-.2.1-.3.2l-2 3.2-2-3.2c-.1-.1-.2-.2-.3-.2h-1.6c-.2 0-.4.2-.4.4v7.7c0 .2.1.4.4.4h1.4c.2 0 .4-.1.4-.4v-4.2l1.7 2.7c.1.1.2.2.3.2h.1c.1 0 .2-.1.3-.2l1.7-2.7v4.2c0 .2.1.4.4.4h1.4c.2 0 .4-.1.4-.4v-7.7c0-.2-.2-.4-.4-.4zm-9.3 0h-6.2c-.2 0-.4.2-.4.4v1.3c0 .2.1.4.4.4h2v6c0 .2.1.4.4.4h1.5c.2 0 .4-.1.4-.4v-6h2c.2 0 .4-.1.4-.4v-1.3c-.2-.2-.3-.4-.5-.4zm-73.2-59.1c.2.4.7.6 1.1.6h13.4c.5 0 1-.3 1.2-.7.2-.5.2-1-.1-1.4l-16.4-23c1.7-.6 3.3-1.3 4.8-2.2 2-1.2 3.7-2.7 5.2-4.4s2.6-3.8 3.4-6c.8-2.3 1.2-4.9 1.2-7.7 0-3.3-.6-6.4-1.8-9.1-1.2-2.7-2.9-5.1-5.1-7-2.2-1.8-4.9-3.3-8-4.3-3.1-1-6.6-1.5-10.4-1.5H39.3c-.7 0-1.3.6-1.3 1.3v64.6c0 .7.6 1.3 1.3 1.3h11.3c.7 0 1.3-.6 1.3-1.3V82.3h12.2l15.6 22zM51.9 50.5h15.2c3.9 0 7 .8 9.1 2.4 2 1.6 3 3.9 3 7.1 0 2.9-1 5.2-3.1 7-2.1 1.8-5.1 2.7-8.9 2.7H51.9V50.5zm56.5 48c2.4 2.3 5.2 4.2 8.4 5.5 3.2 1.3 6.7 2 10.3 2 4.7 0 8.8-.9 12.2-2.6 3.4-1.7 6.3-4.1 8.8-7 .5-.6.4-1.4-.1-1.8l-6.6-5.8c-.5-.5-1.3-.5-1.8 0-1.8 1.8-3.8 3.2-5.6 4.1-1.8.9-4 1.3-6.6 1.3-3.3 0-6.1-1-8.4-2.9-1.9-1.6-3.3-3.9-4-6.8h34c.7 0 1.2-.5 1.3-1.2.1-.6.1-1.1.1-1.6v-1.6c0-3.6-.5-7.1-1.5-10.4-1-3.4-2.6-6.3-4.6-8.8-2.1-2.6-4.7-4.6-7.7-6.1-3.1-1.5-6.7-2.3-10.8-2.3-3.7 0-7.1.7-10.2 2.2-3 1.4-5.7 3.4-8 5.8-2.2 2.4-4 5.3-5.2 8.5-1.2 3.2-1.8 6.7-1.8 10.4 0 4 .7 7.6 2.1 10.9 1.5 3.1 3.3 5.9 5.7 8.2zm9.9-31.1c2-2.1 4.5-3.2 7.6-3.2 1.6 0 3.1.3 4.4.9 1.3.6 2.4 1.4 3.3 2.4.9 1 1.7 2.2 2.2 3.7.4 1 .7 2.1.9 3.2h-21.9c.6-2.9 1.7-5.2 3.5-7zm69.2-31.8c-1.3-.4-2.7-.7-4.1-1-1.5-.2-3.3-.4-5.3-.4-5.1 0-9.2 1.5-12.1 4.3-2.8 2.9-4.3 7.2-4.3 13v2.2h-4.9c-.7 0-1.3.6-1.3 1.3v9.3c0 .7.6 1.3 1.3 1.3h4.9v37.8c0 .7.6 1.3 1.3 1.3h11.3c.7 0 1.3-.6 1.3-1.3V65.7H187c.7 0 1.3-.6 1.3-1.3v-9.2c0-.7-.6-1.3-1.3-1.3h-11.6v-1.3c0-5.4 2.7-6.1 5.1-6.1 1.1 0 2.2.1 3.1.3 1 .2 2 .5 3 .9.4.1.9.1 1.2-.2s.6-.6.6-1.1V37c0-.7-.3-1.2-.9-1.4z"/></svg>