<svg id="Layer_1" data-name="Layer 1" xmlns="http://www.w3.org/2000/svg" viewBox="0 0 149.72 184"><defs/><path class="cls-1" d="M40.29 38.36a27.93 27.93 0 0 1-4.35 9.29 20.13 20.13 0 0 1-7.11 6A21.36 21.36 0 0 1 19 55.83a24.31 24.31 0 0 1-9.75-1.76 30.22 30.22 0 0 1-7.36-4.6l6-9A21.8 21.8 0 0 0 13.36 44a14.86 14.86 0 0 0 5.95 1.12 8.71 8.71 0 0 0 7.4-3.41 17.81 17.81 0 0 0 3.16-8.93 15 15 0 0 1-4.54 2.7 16.62 16.62 0 0 1-6 1 23.12 23.12 0 0 1-7.67-1.19 16.84 16.84 0 0 1-5.87-3.43A14.71 14.71 0 0 1 2 26.37 19.66 19.66 0 0 1 .71 19a19.36 19.36 0 0 1 1.45-7.56 18.11 18.11 0 0 1 4.05-6 18.29 18.29 0 0 1 6.29-4A22.14 22.14 0 0 1 20.57 0a29.62 29.62 0 0 1 4.73.35 19.51 19.51 0 0 1 3.9 1 15.27 15.27 0 0 1 3.35 1.85 22.41 22.41 0 0 1 3.05 2.66 18.4 18.4 0 0 1 2.53 3.32 21.25 21.25 0 0 1 1.93 4.31 32.37 32.37 0 0 1 1.27 5.63 51.33 51.33 0 0 1 .45 7.17 45.7 45.7 0 0 1-1.49 12.07ZM27.67 12.49a9.43 9.43 0 0 0-6.76-2.31 9 9 0 0 0-6.58 2.27 8 8 0 0 0-2.31 6 7.71 7.71 0 0 0 2.42 5.94 9.5 9.5 0 0 0 6.69 2.23 9.1 9.1 0 0 0 6.61-2.27 7.75 7.75 0 0 0 2.35-5.82 8 8 0 0 0-2.42-6.04ZM86.56 38.36a27.54 27.54 0 0 1-4.35 9.29 20.13 20.13 0 0 1-7.11 6 21.33 21.33 0 0 1-9.82 2.16 24.26 24.26 0 0 1-9.74-1.76 30.09 30.09 0 0 1-7.37-4.6l6-9A21.59 21.59 0 0 0 59.63 44a14.89 14.89 0 0 0 5.95 1.12A8.7 8.7 0 0 0 73 41.7a17.72 17.72 0 0 0 3.17-8.93 15.1 15.1 0 0 1-4.54 2.7 16.72 16.72 0 0 1-6 1 23 23 0 0 1-7.66-1.19A17 17 0 0 1 52 31.85a14.71 14.71 0 0 1-3.76-5.48A19.86 19.86 0 0 1 47 19a19.55 19.55 0 0 1 1.45-7.56 18 18 0 0 1 4.06-6 18.25 18.25 0 0 1 6.28-4A22.24 22.24 0 0 1 66.85 0a29.49 29.49 0 0 1 4.72.35 19.61 19.61 0 0 1 3.91 1 15.2 15.2 0 0 1 3.34 1.85 21.83 21.83 0 0 1 3.05 2.66 18 18 0 0 1 2.53 3.32 21.26 21.26 0 0 1 1.94 4.31 32.4 32.4 0 0 1 1.26 5.63 51.33 51.33 0 0 1 .45 7.17 45.7 45.7 0 0 1-1.49 12.07ZM73.94 12.49a9.41 9.41 0 0 0-6.76-2.31 9 9 0 0 0-6.57 2.27 8 8 0 0 0-2.32 6 7.68 7.68 0 0 0 2.43 5.94 9.49 9.49 0 0 0 6.68 2.21 9.13 9.13 0 0 0 6.6-2.27 7.78 7.78 0 0 0 2.35-5.82 7.93 7.93 0 0 0-2.41-6.02ZM116.8 19.47a13.74 13.74 0 0 1-2.6 4.4 12.07 12.07 0 0 1-9.19 4 11.93 11.93 0 0 1-5.13-1.08 12.21 12.21 0 0 1-4-2.93 12.79 12.79 0 0 1-2.57-4.35 16 16 0 0 1-.89-5.36 15.64 15.64 0 0 1 .93-5.4A13.75 13.75 0 0 1 96 4.36a12 12 0 0 1 9.16-4.05 11.93 11.93 0 0 1 5.13 1.08 12.21 12.21 0 0 1 4 2.93 12.73 12.73 0 0 1 2.57 4.35 15.78 15.78 0 0 1 .89 5.36 15.5 15.5 0 0 1-.95 5.44ZM106.5 54.9h-8.85l38-54h8.86Zm2.08-45.53a4.09 4.09 0 0 0-3.57-2 3.87 3.87 0 0 0-3.57 2 9.09 9.09 0 0 0-1.19 4.7 8.61 8.61 0 0 0 1.34 4.82 4.08 4.08 0 0 0 3.57 2 3.88 3.88 0 0 0 3.57-2 9 9 0 0 0 1.19-4.7 8.53 8.53 0 0 0-1.34-4.82Zm40.21 37.71a13.69 13.69 0 0 1-2.6 4.39 12 12 0 0 1-4 3 12.18 12.18 0 0 1-5.19 1.05 12 12 0 0 1-5.13-1.08 12.36 12.36 0 0 1-4-2.93 12.94 12.94 0 0 1-2.57-4.36 16 16 0 0 1-.89-5.36 15.54 15.54 0 0 1 .93-5.39A13.79 13.79 0 0 1 128 32a12 12 0 0 1 9.19-4.05 11.9 11.9 0 0 1 5.09 1.05 12.51 12.51 0 0 1 4 2.93 12.91 12.91 0 0 1 2.56 4.36 15.74 15.74 0 0 1 .89 5.36 15.54 15.54 0 0 1-.94 5.43ZM140.57 37a4.09 4.09 0 0 0-3.57-2 3.88 3.88 0 0 0-3.57 2 9 9 0 0 0-1.19 4.7 8.61 8.61 0 0 0 1.34 4.82 4.09 4.09 0 0 0 3.57 2 3.89 3.89 0 0 0 3.57-2 9.11 9.11 0 0 0 1.19-4.71 8.56 8.56 0 0 0-1.34-4.81ZM14.06 90.93l-4.71-7.29h-3.8v7.29H.71V68.15h10.05a8.77 8.77 0 0 1 6.11 2 7.13 7.13 0 0 1 2.18 5.54v.06a7.31 7.31 0 0 1-1.3 4.51 7.67 7.67 0 0 1-3.41 2.56l5.37 8.13Zm.09-15a3 3 0 0 0-1-2.45 4.36 4.36 0 0 0-2.8-.81h-4.8v6.54h4.9a3.92 3.92 0 0 0 2.74-.87 3 3 0 0 0 1-2.35ZM22.16 90.93V68.15h16.56v4.46H26.94v4.62H37.3v4.46H26.94v4.78h11.93v4.46ZM61.36 84A10.51 10.51 0 0 1 59 87.65a11.38 11.38 0 0 1-3.71 2.41 12.47 12.47 0 0 1-4.72.87H42V68.15h8.58a12.47 12.47 0 0 1 4.72.86A11 11 0 0 1 59 71.4a10.53 10.53 0 0 1 2.4 3.6 11.61 11.61 0 0 1 .85 4.48v.06a11.69 11.69 0 0 1-.89 4.46Zm-4.21-4.49a7.79 7.79 0 0 0-.48-2.77 6.8 6.8 0 0 0-1.35-2.18 5.94 5.94 0 0 0-2.09-1.41 7 7 0 0 0-2.7-.51h-3.74v13.77h3.74a7.17 7.17 0 0 0 2.7-.49 5.79 5.79 0 0 0 2.09-1.4 6.77 6.77 0 0 0 1.35-2.15 7.54 7.54 0 0 0 .48-2.76ZM83.4 85.53a8.72 8.72 0 0 1-1.93 3.21 8.09 8.09 0 0 1-3 1.92 11.93 11.93 0 0 1-4 .63 9.39 9.39 0 0 1-7-2.54q-2.55-2.53-2.55-7.58v-13h4.84V81A6.16 6.16 0 0 0 71 85.25a4.39 4.39 0 0 0 3.48 1.42A4.51 4.51 0 0 0 78 85.3a5.87 5.87 0 0 0 1.26-4.1v-13h4.83V81a13.66 13.66 0 0 1-.69 4.53ZM105.31 89a9.87 9.87 0 0 1-2 1.28 10.19 10.19 0 0 1-2.37.82 14.1 14.1 0 0 1-2.89.28 11 11 0 0 1-4.49-.92A10.77 10.77 0 0 1 90 87.92a11.35 11.35 0 0 1-2.36-3.72 12.55 12.55 0 0 1-.84-4.59v-.07a12.33 12.33 0 0 1 .82-4.54A11.81 11.81 0 0 1 90 71.22a11 11 0 0 1 3.61-2.54 11.36 11.36 0 0 1 4.65-.93 13.54 13.54 0 0 1 2.81.27 11.38 11.38 0 0 1 2.31.71 10.11 10.11 0 0 1 1.92 1.11 13 13 0 0 1 1.63 1.43l-3.1 3.73a11.9 11.9 0 0 0-2.62-1.89 6.56 6.56 0 0 0-3-.68 5.91 5.91 0 0 0-2.56.55 6.12 6.12 0 0 0-2 1.53 7.47 7.47 0 0 0-1.32 2.26 8.08 8.08 0 0 0-.47 2.76v.06a8.18 8.18 0 0 0 .47 2.77 7.31 7.31 0 0 0 1.31 2.28 6 6 0 0 0 2 1.54 5.85 5.85 0 0 0 2.59.57 6.63 6.63 0 0 0 3.17-.75 12.36 12.36 0 0 0 2.6-2l3.08 3.23a16.35 16.35 0 0 1-1.77 1.77ZM109.67 90.93V68.15h16.56v4.46h-11.78v4.62h10.36v4.46h-10.36v4.78h11.94v4.46ZM148.88 84a10.68 10.68 0 0 1-2.41 3.62 11.34 11.34 0 0 1-3.7 2.41 12.52 12.52 0 0 1-4.73.87h-8.58V68.15H138a12.52 12.52 0 0 1 4.73.86 11 11 0 0 1 3.7 2.39 10.7 10.7 0 0 1 2.41 3.6 11.79 11.79 0 0 1 .84 4.48v.06a11.88 11.88 0 0 1-.8 4.46Zm-4.21-4.49a7.79 7.79 0 0 0-.49-2.77 6.47 6.47 0 0 0-1.35-2.18 5.85 5.85 0 0 0-2.09-1.41 7 7 0 0 0-2.7-.51h-3.74v13.77h3.7a7.17 7.17 0 0 0 2.7-.49 5.7 5.7 0 0 0 2.09-1.4 6.43 6.43 0 0 0 1.35-2.15 7.54 7.54 0 0 0 .49-2.76ZM.71 140.39V100.7h8.42v31.81h19.09v7.88ZM60.88 140.39l-3.5-8.9H41.19l-3.5 8.9H29.1l16.41-40h7.77l16.41 40Zm-11.59-29.48-5.09 12.87h10.17ZM100.27 140.39l-18.54-25.23v25.23h-8.32V100.7h7.77l17.94 24.44V100.7h8.32v39.69ZM148.25 128.37a18.45 18.45 0 0 1-4.19 6.29 19.67 19.67 0 0 1-6.45 4.2 21.62 21.62 0 0 1-8.24 1.53h-14.93V100.7h14.93a22 22 0 0 1 8.24 1.5 19.6 19.6 0 0 1 6.45 4.17 18.66 18.66 0 0 1 4.19 6.27 20.42 20.42 0 0 1 1.47 7.79v.12a20.65 20.65 0 0 1-1.47 7.82Zm-7.33-7.82a13.45 13.45 0 0 0-.85-4.82 11.45 11.45 0 0 0-2.35-3.8 10.53 10.53 0 0 0-3.64-2.47 12.35 12.35 0 0 0-4.71-.88h-6.51v23.93h6.51a12.54 12.54 0 0 0 4.71-.85 10.19 10.19 0 0 0 3.64-2.44 11.59 11.59 0 0 0 2.35-3.74 13.18 13.18 0 0 0 .85-4.82ZM24.57 178a9 9 0 0 1-2.42 3.24 10.77 10.77 0 0 1-3.71 2 15.64 15.64 0 0 1-4.78.69 20.52 20.52 0 0 1-7.22-1.31 18.93 18.93 0 0 1-6.44-4l4.19-5.2a20.75 20.75 0 0 0 4.53 2.95 11.59 11.59 0 0 0 5.08 1.1 6.1 6.1 0 0 0 3.43-.83 2.67 2.67 0 0 0 1.22-2.32v-.09a2.92 2.92 0 0 0-.26-1.26 2.59 2.59 0 0 0-1-1 9.68 9.68 0 0 0-2-.95 33.72 33.72 0 0 0-3.3-1 40.86 40.86 0 0 1-4.43-1.39 12 12 0 0 1-3.36-1.88 7.59 7.59 0 0 1-2.1-2.87 10.09 10.09 0 0 1-.76-4.15v-.09a10.15 10.15 0 0 1 .82-4.13 9.43 9.43 0 0 1 2.31-3.17 10.28 10.28 0 0 1 3.55-2.05 14 14 0 0 1 4.55-.71 18.36 18.36 0 0 1 6.5 1.1 18.87 18.87 0 0 1 5.46 3.14l-3.68 5.53a24 24 0 0 0-4.24-2.41 10.63 10.63 0 0 0-4.14-.88 4.84 4.84 0 0 0-3.1.84 2.55 2.55 0 0 0-1 2.07v.1a3 3 0 0 0 .3 1.4 2.75 2.75 0 0 0 1.09 1.08 10 10 0 0 0 2.14.9c.91.29 2.05.62 3.44 1a34 34 0 0 1 4.36 1.5 12.33 12.33 0 0 1 3.23 2 7.73 7.73 0 0 1 2 2.74 9.68 9.68 0 0 1 .67 3.76v.1a10.65 10.65 0 0 1-.93 4.45ZM54.23 166.79a10.28 10.28 0 0 1-2.78 3.67 12 12 0 0 1-4.14 2.22 17 17 0 0 1-5.08.74h-5.39v10h-7.08v-33.36h13.16a14.88 14.88 0 0 1 5.17.83 10.94 10.94 0 0 1 3.91 2.36 10.3 10.3 0 0 1 2.43 3.65 12.43 12.43 0 0 1 .85 4.69v.1a12 12 0 0 1-1.05 5.1Zm-6.16-5a4.65 4.65 0 0 0-1.54-3.79 6.36 6.36 0 0 0-4.21-1.29h-5.48v10.2h5.62a5.66 5.66 0 0 0 4.14-1.45 4.86 4.86 0 0 0 1.47-3.6ZM82.61 183.43l-2.94-7.49H66.05l-2.94 7.49h-7.22l13.8-33.61h6.53L90 183.43Zm-9.75-24.79-4.28 10.82h8.56ZM118.86 180.52a15 15 0 0 1-2.92 1.88 14.65 14.65 0 0 1-3.47 1.2 21 21 0 0 1-4.24.4 16.17 16.17 0 0 1-11.82-5 16.7 16.7 0 0 1-3.41-5.44 18.11 18.11 0 0 1-1.24-6.72v-.1A18 18 0 0 1 93 160a17.34 17.34 0 0 1 3.45-5.48 16.12 16.12 0 0 1 5.29-3.72 16.83 16.83 0 0 1 6.81-1.36 20.93 20.93 0 0 1 4.12.38 17.41 17.41 0 0 1 3.38 1 15.15 15.15 0 0 1 2.8 1.62 20.05 20.05 0 0 1 2.4 2.1L116.7 160a17.15 17.15 0 0 0-3.84-2.77 9.63 9.63 0 0 0-4.4-1 8.67 8.67 0 0 0-3.74.81 9 9 0 0 0-3 2.24 10.53 10.53 0 0 0-1.93 3.32 11.61 11.61 0 0 0-.69 4v.09a11.8 11.8 0 0 0 .69 4 10.44 10.44 0 0 0 1.91 3.34 8.87 8.87 0 0 0 2.94 2.27 8.66 8.66 0 0 0 3.79.83 9.57 9.57 0 0 0 4.67-1 18 18 0 0 0 3.8-2.86l4.51 4.72a23.93 23.93 0 0 1-2.55 2.53ZM125.25 183.43v-33.37h24.24v6.53h-17.24v6.77h15.17v6.53h-15.17v7h17.47v6.53Z"/></svg>