<svg xmlns="http://www.w3.org/2000/svg" viewBox="0 0 52.2 59.1"><path d="M30.6 31.2c-2.2-2-4-4.9-5.1-8 .1-.3.1-.5.2-.8 0 0 1.2-7 .9-9.3 0-.3-.1-.4-.2-.7l-.1-.3c-.3-.8-1-1.6-2-1.5h-.6c-1.1 0-2.1.6-2.3 1.5-.7 2.7 0 6.9 1.4 12.2l-.4.9c-1 2.4-2.2 4.9-3.4 7l-.1.3c-1.2 2.3-2.2 4.2-3.2 5.8l-1 .5c-.1 0-1.8.9-2.2 1.2-3.4 2-5.6 4.3-6 6.1-.1.6 0 1.3.6 1.7l1 .5c.5.1.9.2 1.4.2 2.4 0 5.2-3 9-9.7 4.4-1.4 9.5-2.6 13.9-3.3 3.4 1.9 7.5 3.2 10.1 3.2.5 0 .9 0 1.2-.1.5-.1.9-.4 1.2-.8.5-.8.6-1.8.5-2.9 0-.3-.3-.7-.6-1-.8-.8-2.5-1.2-5.1-1.2-1.8 0-3.9.1-6.1.5-1.1-.6-2.1-1.2-3-2zM9 46.7c.4-1.2 2.2-3.6 4.7-5.6.2-.1.6-.5.9-.8-2.7 4.1-4.4 5.8-5.6 6.4zm15.1-34.9c.8 0 1.2 1.9 1.2 3.8 0 1.8-.4 3.1-.9 4-.4-1.4-.6-3.6-.6-5 0 0 0-2.8.3-2.8zm-4.5 24.9c.5-1 1.1-2 1.7-3 1.4-2.6 2.3-4.7 2.9-6.4 1.3 2.4 2.9 4.4 4.8 6 .2.2.5.4.8.6-3.9.7-7.3 1.6-10.2 2.8zm20-1.8c1.4 0 1.8 0 3.2.3 1.4.4 1.4 1.1 1.2 1.2-.2.1-.9.2-1.3.2-1.4 0-3.1-.6-5.6-1.7h2.5z"/><path d="M49 13.5c-1.3-1.7-3-3.7-4.9-5.7-1.9-1.9-3.9-3.7-5.7-4.9C35.5.7 34.1.5 33.3.5H5.1C2.6.5.6 2.5.6 5v49c0 2.5 2 4.5 4.5 4.5h41.7c2.5 0 4.5-2 4.5-4.5V18.7c.1-.9-.1-2.3-2.3-5.2zM36.9 6.3c1.3 1 2.9 2.4 4.6 4.1 1.7 1.7 3.1 3.3 4.1 4.6h-8.7V6.3zM47.8 54c0 .5-.4.9-.9.9H5.1c-.5 0-.9-.4-.9-.9V5c0-.5.4-.9.9-.9h28.1v12.7c0 1 .8 1.8 1.8 1.8h12.7l.1 35.4z"/></svg>