<svg id="Layer_1" xmlns="http://www.w3.org/2000/svg" viewBox="0 0 59.8 55.4"><path class="st0" d="M47.7 16.5c-.1 0-11.1-1.6-16.7-6.4-.6-.5-1.4-.5-1.9 0-5.6 4.8-16.6 6.4-16.7 6.4-.7.1-1.3.8-1.3 1.5 0 .2.6 24.3 18.7 28h.6C48.4 42.3 49 18.3 49 18c0-.7-.5-1.4-1.3-1.5zM30 44.6c-14.6-3.2-17.1-21.1-17.6-26.3 3.4-.6 11.9-2.6 17.6-6.7 5.7 4.2 14.1 6.1 17.6 6.7-.4 5.2-3 23.1-17.6 26.3z"/><path class="st0" d="M51.4.6h-43C4.1.6.7 4.1.7 8.4v38.7c0 4.3 3.5 7.8 7.7 7.8h43c4.3 0 7.8-3.5 7.8-7.8V8.3C59.1 4.1 55.6.6 51.4.6zm6.2 46.5c0 3.4-2.8 6.2-6.2 6.2h-43c-3.4 0-6.2-2.8-6.2-6.2V8.3c0-3.4 2.8-6.2 6.2-6.2h43c3.4 0 6.2 2.8 6.2 6.2v38.8z"/><path class="st0" d="M28.4 22.5v3.7h-3.7c-.8 0-1.5.7-1.5 1.5s.7 1.5 1.5 1.5h3.7v3.7c0 .8.7 1.5 1.5 1.5s1.5-.7 1.5-1.5v-3.7H35c.8 0 1.5-.7 1.5-1.5s-.7-1.5-1.5-1.5h-3.7v-3.7c0-.8-.7-1.5-1.5-1.5s-1.4.7-1.4 1.5z"/></svg>