<svg xmlns="http://www.w3.org/2000/svg" viewBox="0 0 700 700"><path d="M338.8 232.5h22.4v164h-22.4v-164z"/><path d="M379.7 68.6h-59.4c-10.4 0-20.4 4.1-27.7 11.5-7.4 7.4-11.5 17.3-11.5 27.7v14.8h-108c-6.2 0-11.2 5-11.2 11.2 0 6.2 5 11.2 11.2 11.2h29.7v279.2c0 17.8 7.1 34.9 19.7 47.5 12.6 12.6 29.7 19.7 47.5 19.7h159.8c17.8 0 34.9-7.1 47.5-19.7 12.6-12.6 19.7-29.7 19.7-47.5V145h29.7c6.2 0 11.2-5 11.2-11.2 0-6.2-5-11.2-11.2-11.2h-108v-14.8c0-10.4-4.1-20.4-11.5-27.7-7.2-7.4-17.1-11.5-27.5-11.5zm-76.2 39.2c0-4.5 1.8-8.7 4.9-11.9 3.2-3.2 7.4-4.9 11.9-4.9h59.4c4.5 0 8.7 1.8 11.9 4.9 3.2 3.1 4.9 7.4 4.9 11.9v14.8h-93v-14.8zM474.7 145v279.2c0 11.9-4.7 23.3-13.1 31.7S441.8 469 429.9 469H270.1c-11.9 0-23.3-4.7-31.7-13.1s-13.1-19.8-13.1-31.7V145h249.4z"/><path d="M271.6 232.5H294v164h-22.4v-164zm134.4 0h22.4v164H406v-164z"/></svg>