<svg xmlns="http://www.w3.org/2000/svg" viewBox="0 0 156.6 127.8" xml:space="preserve"><path d="M68.5 63.4c-.6-.7-1.3-1.3-2.2-1.7-.9-.4-2-.7-3-.6-1 0-1.9.2-2.8.6-.8.4-1.6.9-2.2 1.6-.6.7-1.1 1.5-1.5 2.4-.3.9-.5 1.9-.5 2.9s.2 2 .6 3c.4.9.9 1.7 1.6 2.4.7.7 1.5 1.2 2.3 1.5.9.4 1.9.6 2.9.6v.1c1.2 0 2.3-.2 3.4-.7.9-.5 1.8-1.2 2.5-2 .1-.1.1-.2 0-.2l-1.9-1.7c-.1-.1-.2-.1-.2 0-.5.5-1.1.9-1.7 1.2-.6.3-1.3.4-2 .4-.9 0-1.8-.3-2.5-.9-.7-.6-1.1-1.4-1.3-2.3h10.1c.1 0 .2-.1.2-.2V69c0-1-.1-2-.4-2.9-.4-1.1-.8-2-1.4-2.7zm-8.6 4c.1-.9.5-1.7 1.1-2.4.6-.7 1.4-1 2.3-1 .5 0 .9.1 1.4.3.4.2.7.4 1 .7.3.3.5.7.7 1.1.2.4.3.8.3 1.2l-6.8.1zM71 65.8h7.8V69H71zM81 75.5h3.3v-7.6h9.3V65h-9.3v-5.1h10.5v-3H81zM99.7 61.3h-3.2c-.1 0-.2.1-.2.2v14c0 .1.1.2.2.2h3.2c.1 0 .2-.1.2-.2v-14c0-.1-.1-.2-.2-.2zM99.8 56.2h-3.5c-.1 0-.2.1-.2.2v3c0 .1.1.2.2.2h3.5c.1 0 .2-.1.2-.2v-3c0-.1-.1-.2-.2-.2zM114.8 63c-.6-.6-1.3-1.1-2.2-1.5-.8-.3-1.6-.5-2.5-.5-1 0-2 .2-2.9.8-.6.4-1.2.9-1.6 1.5v-7.2c0-.1-.1-.2-.2-.2h-3.2c-.1 0-.2.1-.2.2v19.4c0 .1.1.2.2.2h3.2s.1 0 .1-.1v-1.8c.5.5 1 1 1.6 1.4.9.5 1.9.8 3 .8v-.1c.9 0 1.7-.2 2.5-.5s1.5-.8 2.2-1.5c.6-.7 1.2-1.5 1.5-2.3.7-2 .7-4.3 0-6.3-.4-.8-.9-1.6-1.5-2.3zm-1.9 7.2c-.2.5-.5 1-.8 1.4l-.2.2c-1.5 1.4-3.9 1.3-5.3-.2-.4-.4-.7-.9-.8-1.4-.2-.6-.3-1.2-.3-1.8 0-.6.1-1.2.3-1.8.2-.5.5-1 .8-1.4.3-.4.8-.7 1.2-.9.5-.2 1-.3 1.5-.3s1 .1 1.5.3c.5.2.9.5 1.2.9.4.4.6.9.8 1.4.5 1.2.5 2.5.1 3.6zM126.4 64.8c.1 0 .2-.1.2-.2v-3.4c0-.1-.1-.2-.2-.2h-.3c-1 0-2.1.3-2.9.9-.7.5-1.2 1.2-1.6 1.9v-2.4c0-.1-.1-.2-.2-.2h-3.2c-.1 0-.2.1-.2.2v14c0 .1.1.2.2.2h3.2c.1 0 .2-.1.2-.2v-5.3c0-.8.1-1.6.3-2.4.2-.6.5-1.2.9-1.7.4-.4.9-.8 1.5-1 .6-.2 1.2-.3 1.9-.3h.2zM138.2 63.3c-.6-.7-1.3-1.3-2.2-1.7-.9-.4-2-.6-3-.6s-1.9.2-2.8.6c-.8.4-1.6.9-2.2 1.6-.6.7-1.2 1.5-1.5 2.4-.3.9-.5 1.9-.5 2.9s.2 2 .6 3c.4.9.9 1.7 1.6 2.4.7.7 1.5 1.2 2.3 1.5.9.4 1.9.6 2.9.6 1.2 0 2.3-.2 3.4-.7.9-.5 1.8-1.2 2.5-2 .1-.1.1-.2 0-.2l-1.9-1.7c-.1-.1-.2-.1-.2 0-.5.5-1.1.9-1.7 1.2-.6.3-1.3.4-2 .4-.9 0-1.8-.3-2.5-.9-.7-.6-1.1-1.4-1.3-2.3h10.1c.1 0 .2-.1.2-.2v-.9c0-1-.1-2-.4-2.9-.4-.9-.9-1.7-1.4-2.5zm-8.6 4.1c.1-.9.5-1.7 1.1-2.4.6-.6 1.4-1 2.3-1 .5 0 1 .1 1.4.2.4.2.7.4 1 .7.3.3.5.7.7 1.1l.3 1.2-6.8.2zM156.5 56.8h-1.6c-.1 0-.1 0-.1.1l-2.3 3.6-2.3-3.6c0-.1-.1-.1-.2-.1h-1.7c-.1 0-.2.1-.2.2v8.2c0 .1.1.2.2.2h1.5c.1 0 .2-.1.2-.2V60l2.2 3.4c0 .1.1.1.1.1h.2c.1 0 .1 0 .1-.1l2.2-3.4v5.2c0 .1.1.2.2.2h1.5c.1 0 .2-.1.2-.2V57c0-.2-.1-.2-.2-.2zM146.5 56.8h-6.6c-.1 0-.2.1-.2.2v1.4c0 .1.1.2.2.2h2.3v6.5c0 .1.1.2.2.2h1.6c.1 0 .2-.1.2-.2v-6.5h2.3c.1 0 .2-.1.1-.2V57c.1-.2 0-.2-.1-.2zM17.7 111.2c-3.9-9.2 4-20.1 4-20.1l15.5-25.5 8 4.9L40 57.3l-5.3-13.2-14.2 1.5-14.2 1.2 5.6 3.4-7.8 13.9C-2.5 76.5.8 82.4.8 82.4l16.9 28.8z"/><path d="M22.1 106.7c-.4 11.9 13.8 13.8 13.8 13.8l17.5.3.6-29.5-25.5-.6c-7.7 10.5-6.4 16-6.4 16M85.7 46.5l14.1 2.2 5.9-13 5.9-13-5.7 3.1-8.1-13.7C90.4.2 83.7 0 83.7 0L50.3.1c9.9 1.3 15.3 13.6 15.3 13.6l14.2 26.2-8.2 4.5 14.1 2.1z"/><path d="M62.5 18.7C57.4 6.7 52 5.1 52 5.1 41.9-1.3 33.2 10 33.2 10l-9.1 15 25.1 15.3 13.3-21.6zM114.1 91.7h-3s1.2.1 3 0"/><path d="M111.1 91.7H81.2v-9.4l-8.6 11.4-8.6 11.4 8.6 11.4 8.6 11.4v-6.5l15.9-.6c14.1-.8 17.4-6.7 17.4-6.7l12-22.3H114c-1.7 0-2.9-.1-2.9-.1"/></svg>