<svg xmlns="http://www.w3.org/2000/svg" viewBox="0 0 214.9 214.9"><path d="M193.9 0H21C9.4 0 0 9.4 0 21v172.9c0 11.6 9.4 21 21 21h172.9c11.6 0 21-9.4 21-21V21c0-11.6-9.4-21-21-21zm16 193.9c0 8.8-7.2 16-16 16H21c-8.8 0-16-7.2-16-16V21c0-8.8 7.2-16 16-16h172.9c8.8 0 16 7.2 16 16v172.9z"/><path d="M32.4 139.3c-.5-.4-1.1-.7-1.7-1-.4-.2-.8-.3-1.3-.4l4.3-4.4c.1-.1.1-.2.1-.2v-2.2c0-.2-.1-.4-.3-.4H22.1c-.2 0-.3.2-.3.4v2.6c0 .2.2.3.3.3h6.6l-4 4.3c-.1.1-.1.2-.1.3l.5 1.9c0 .2.2.3.3.3h1.4c1.1 0 2 .2 2.7.6.6.4.9.9.9 1.7 0 .7-.2 1.2-.7 1.6s-1.1.6-1.9.6c-.9 0-1.7-.2-2.3-.5-.7-.4-1.3-.9-1.9-1.6-.1-.1-.1-.1-.2-.1s-.2 0-.3.1l-2.1 1.9c-.1.1-.1.3 0 .5.8.9 1.7 1.7 2.8 2.2 1.1.6 2.4.9 4 .9.9 0 1.8-.1 2.5-.4.8-.3 1.5-.7 2-1.2.6-.5 1-1.1 1.3-1.8.3-.7.5-1.5.5-2.3 0-.9-.1-1.6-.4-2.2-.4-.6-.8-1.1-1.3-1.5zm18.1-6c-.8-.8-1.8-1.4-3-1.9-1.2-.4-2.4-.7-3.8-.7h-6.3c-.2 0-.3.2-.3.4v17c0 .2.2.3.3.3h6.3c1.4 0 2.6-.2 3.8-.7 1.1-.5 2.1-1.1 3-1.9.8-.8 1.5-1.7 1.9-2.8.5-1.1.7-2.3.7-3.5s-.2-2.4-.7-3.5c-.4-1-1.1-1.9-1.9-2.7zm-1.7 8.4c-.3.7-.6 1.2-1.1 1.7s-1.1.8-1.7 1.1c-.7.3-1.5.4-2.3.4h-3v-10.8h3c.8 0 1.6.1 2.3.4.7.3 1.3.7 1.7 1.1.5.5.8 1.1 1.1 1.7.3.7.4 1.4.4 2.2 0 .8-.1 1.5-.4 2.2zm25.4 6.5c.8-.2 1.5-.5 2.1-1 .6-.4 1-1 1.4-1.6.4-.6.5-1.4.5-2.2 0-.6-.1-1.2-.3-1.7s-.4-.9-.8-1.3c-.3-.3-.7-.6-1.1-.9-.2-.1-.5-.3-.8-.4.1-.1.2-.2.3-.2.3-.3.6-.5.8-.9.2-.3.4-.7.6-1.2.1-.4.2-.9.2-1.5 0-1.5-.5-2.6-1.6-3.5-1.1-.8-2.5-1.2-4.3-1.2h-7.6c-.2 0-.3.2-.3.3v17c0 .2.2.3.3.3h7.9c1 .3 1.9.2 2.7 0zM67.1 134H71c.9 0 1.6.2 2 .5.4.3.6.8.6 1.3 0 .8-.3 1.3-.7 1.6-.5.3-1.2.5-2.1.5h-3.7V134zm-.1 7.2h4.4c1.1 0 1.9.2 2.4.5s.7.8.7 1.4c0 .7-.2 1.1-.7 1.5-.5.4-1.3.5-2.2.5H67v-3.9zm16.9-6.3h-3c-.2 0-.3.2-.3.3V148c0 .2.2.3.3.3h3c.2 0 .3-.2.3-.3v-4.9c0-.8.1-1.5.3-2.1.2-.6.5-1.1.8-1.5.4-.4.8-.7 1.3-.9.5-.2 1-.3 1.7-.3h.2c.2 0 .3-.2.3-.3v-3.1c0-.2-.1-.3-.3-.3-1.2-.1-2.2.2-3 .9-.4.3-.8.8-1.2 1.2v-1.4c-.1-.2-.2-.4-.4-.4zm17.9 11.4c.2-.2.2-.4.1-.5l-1.7-1.5c-.1-.1-.3-.1-.5 0-.5.5-1 .8-1.5 1.1-.5.2-1.1.4-1.7.4-.9 0-1.6-.2-2.2-.8-.5-.4-.9-1-1.1-1.8h9c.2 0 .3-.1.3-.3v-.8c0-1-.1-1.9-.4-2.8s-.7-1.7-1.2-2.3c-.5-.7-1.2-1.2-2-1.6-.8-.4-1.8-.6-2.8-.6s-1.9.2-2.7.6-1.5.9-2.1 1.5c-.6.6-1 1.4-1.4 2.2-.3.9-.5 1.8-.5 2.7 0 1 .2 2 .5 2.9.4.9.9 1.6 1.5 2.2.6.6 1.4 1.1 2.2 1.4.8.3 1.8.5 2.7.5 1.2 0 2.3-.2 3.2-.7.9-.5 1.7-1.1 2.3-1.8zm-7.8-7.7c.5-.6 1.2-.8 2-.8.4 0 .8.1 1.2.2l.9.6c.2.3.4.6.6 1 .1.3.2.6.2.9h-5.8c.2-.8.5-1.4.9-1.9zm18.7 8.8v.7c0 .2.2.3.3.3h2.9c.2 0 .3-.2.3-.3v-7.6c0-1.8-.5-3.2-1.5-4.2s-2.5-1.5-4.5-1.5c-1.1 0-2 .1-2.8.3s-1.5.5-2.2.8c-.2.1-.2.3-.2.4l.8 2.4c0 .1.1.2.2.2h.3c.6-.2 1.1-.4 1.7-.6.5-.1 1.2-.2 1.9-.2.9 0 1.6.2 2.1.6.4.4.7.9.7 1.6l-1.2-.3c-1.2-.2-2.9-.2-4.2.1-.7.2-1.3.5-1.8.8-.5.4-.9.9-1.2 1.4-.3.6-.4 1.2-.4 2 0 .7.1 1.3.4 1.9.3.5.6 1 1.1 1.4.4.4 1 .6 1.6.8.6.2 1.2.3 1.9.3 1 0 1.9-.2 2.6-.6.5-.2.9-.4 1.2-.7zm-3-1.6c-.6 0-1.1-.1-1.6-.4-.4-.3-.6-.6-.6-1.2s.2-1 .6-1.2c.5-.3 1.1-.5 2-.5.5 0 1.1 0 1.6.1.4.1.7.2 1 .3v.6c0 .3-.1.7-.2.9-.1.3-.4.5-.6.7-.3.2-.6.4-1 .5-.3.2-.7.2-1.2.2zm17 1.9v-2.4c0-.1-.1-.2-.2-.3-.1-.1-.2-.1-.3 0-.5.3-1.1.4-1.7.4-.4 0-.7-.1-.9-.3s-.3-.5-.3-1v-6h3.1c.2 0 .3-.2.3-.3v-2.5c0-.2-.2-.3-.3-.3h-3.1v-3.2c0-.2-.2-.3-.3-.3h-3c-.2 0-.3.2-.3.3v3.2h-1.4c-.2 0-.3.2-.3.3v2.5c0 .2.2.3.3.3h1.3v6.4c0 .7.1 1.4.3 1.9s.5 1 .9 1.3c.4.3.8.6 1.3.7.5.1 1 .2 1.6.2.6 0 1.1-.1 1.5-.2.4-.1.9-.3 1.3-.5.1 0 .2-.1.2-.2zm14.5.4v-8.2c0-1.6-.4-2.9-1.3-3.8-.9-1-2.1-1.5-3.6-1.5-.5 0-1 .1-1.4.2-.4.1-.8.3-1.2.5-.4.2-.7.5-.9.8l-.1.1v-5.9c0-.2-.2-.3-.3-.3h-3c-.2 0-.3.2-.3.3v17.8c0 .2.2.3.3.3h3c.2 0 .3-.2.3-.3v-7.2c0-.9.2-1.6.7-2.1s1.1-.7 1.8-.7c.8 0 1.3.2 1.8.7.4.5.6 1.2.6 2.1v7.3c0 .2.2.3.3.3h3c.2 0 .3-.2.3-.4zm8.3-13.4c-1.1 0-2 .1-2.8.3-.8.2-1.5.5-2.2.8-.2.1-.2.3-.2.4l.8 2.4c0 .1.1.2.2.2h.3c.6-.2 1.1-.4 1.7-.6.5-.1 1.2-.2 1.9-.2.9 0 1.6.2 2.1.6.4.4.7.9.7 1.6l-1.2-.3c-1.1-.2-2.9-.2-4.2.1-.7.2-1.3.5-1.8.8-.5.4-.9.8-1.2 1.4-.3.6-.4 1.2-.4 2 0 .7.1 1.3.4 1.9.3.5.6 1 1.1 1.4.4.4 1 .6 1.6.8.6.2 1.2.3 1.9.3 1 0 1.9-.2 2.6-.6.4-.2.8-.5 1.2-.8v.7c0 .2.2.3.3.3h2.9c.2 0 .3-.2.3-.3v-7.6c0-1.8-.5-3.2-1.5-4.2-.9-.8-2.5-1.4-4.5-1.4zm2.3 8.8c0 .3-.1.7-.2.9-.1.3-.3.5-.6.7-.3.2-.6.4-1 .5-.2.2-.6.2-1.1.2-.6 0-1.2-.1-1.6-.4-.4-.3-.6-.6-.6-1.2 0-.5.2-1 .6-1.2.5-.3 1.1-.5 2-.5.5 0 1.1 0 1.5.1.4.1.7.2 1 .3v.6zm18.6-7c-.6-.6-1.3-1.1-2-1.4s-1.5-.5-2.3-.5c-1.1 0-2 .3-2.8.8-.4.3-.9.6-1.2 1v-6.1c0-.2-.2-.3-.3-.3h-3c-.2 0-.3.2-.3.3v17.8c0 .2.2.3.3.3h3c.1 0 .2 0 .3-.1.1-.1.1-.2.1-.2V147c.3.3.7.7 1.2.9.8.5 1.7.7 2.8.7.8 0 1.6-.2 2.4-.5s1.5-.8 2-1.4c.6-.6 1.1-1.3 1.4-2.2.4-.9.5-1.9.5-3s-.2-2.1-.5-3c-.6-.6-1.1-1.4-1.6-2zm-2 6.8c-.2.5-.4.9-.7 1.2-.3.3-.7.6-1.1.7-.8.4-1.8.4-2.6 0-.4-.2-.8-.4-1.1-.8-.3-.3-.6-.7-.7-1.2-.2-.5-.3-1-.3-1.6 0-.6.1-1.1.3-1.6s.4-.9.7-1.2.7-.6 1.1-.8c.5 0 .9-.1 1.3-.1s.9.1 1.3.3c.4.2.8.4 1.1.7.3.3.5.7.7 1.2s.3 1 .3 1.6c0 .6-.1 1.1-.3 1.6zm9.7-13.3h-3c-.2 0-.3.2-.3.3v17.8c0 .2.2.4.3.4h3c.2 0 .3-.2.3-.4v-17.8c.1-.1-.1-.3-.3-.3zm14.3 6.9c-.5-.7-1.2-1.2-2-1.6s-1.8-.6-2.8-.6-1.9.2-2.7.6c-.8.4-1.5.9-2.1 1.5-.6.6-1 1.4-1.4 2.2-.3.9-.5 1.8-.5 2.7 0 1 .2 2 .5 2.9.4.9.9 1.6 1.5 2.2.6.6 1.4 1.1 2.2 1.4s1.8.5 2.7.5c1.2 0 2.3-.2 3.2-.7.9-.5 1.7-1.1 2.3-1.8.1-.1.1-.4 0-.5l-1.7-1.5c-.1-.1-.4-.1-.5 0-.5.5-1 .8-1.5 1.1-.5.2-1.1.4-1.7.4-.9 0-1.6-.2-2.2-.8-.5-.4-.9-1-1.1-1.8h9c.2 0 .3-.1.3-.3v-.8c0-1-.1-1.9-.4-2.8-.2-.9-.6-1.7-1.1-2.3zm-7.8 3.5c.2-.7.5-1.3.9-1.8.5-.6 1.2-.8 2-.8.4 0 .8.1 1.2.2l.9.6c.2.3.4.6.6 1 .1.3.2.5.2.8h-5.8zM81 169.7c-.3-.3-.7-.6-1.1-.9-.2-.1-.5-.3-.8-.4.1-.1.2-.2.3-.2.3-.2.6-.5.8-.9.2-.3.4-.7.6-1.2.1-.4.2-.9.2-1.5 0-1.5-.5-2.6-1.6-3.5-1.1-.8-2.5-1.2-4.3-1.2h-7.6c-.2 0-.3.2-.3.3v17c0 .2.2.3.3.3h7.9c1 0 1.9-.1 2.7-.3s1.5-.5 2.1-1c.6-.4 1.1-1 1.4-1.6.3-.6.5-1.4.5-2.2 0-.6-.1-1.2-.3-1.7-.2-.2-.5-.6-.8-1zm-10.1-6.4h3.9c.9 0 1.6.2 2 .5.4.3.6.8.6 1.3 0 .7-.2 1.2-.7 1.5s-1.2.5-2.1.5h-3.7v-3.8zm6.7 10.4c-.5.4-1.3.5-2.2.5h-4.6v-3.9h4.4c1.1 0 1.9.2 2.4.5s.7.8.7 1.4c0 .7-.2 1.1-.7 1.5zm18.4-7.8c-.6-.6-1.4-1.1-2.3-1.5-1.8-.7-4-.7-5.7 0-.9.4-1.6.9-2.3 1.5-.6.6-1.1 1.4-1.5 2.2-.4.9-.5 1.8-.5 2.8s.2 1.9.5 2.7c.4.8.9 1.6 1.5 2.2.6.6 1.4 1.1 2.3 1.5.9.4 1.8.5 2.9.5 1 0 2-.2 2.9-.6.9-.4 1.6-.9 2.3-1.5.6-.6 1.1-1.4 1.5-2.2.4-.9.6-1.8.6-2.7 0-1-.2-1.9-.5-2.7-.5-.8-1-1.5-1.7-2.2zm-1.9 6.5c-.2.5-.4.8-.7 1.2-.3.3-.7.6-1.1.8-.8.4-1.9.4-2.8 0-.4-.2-.8-.5-1.1-.8s-.6-.8-.7-1.2c-.2-.5-.3-1-.3-1.5s.1-1 .2-1.5c.2-.5.4-.8.7-1.2.3-.3.7-.6 1.1-.8.4-.2.9-.3 1.4-.3s1 .1 1.4.3c.4.2.8.5 1.1.8.3.4.6.8.7 1.2.2.5.3 1 .3 1.5s-.1 1-.2 1.5zm14.2-8.5c-1.2 0-2.2.2-3.1.9-.4.3-.8.8-1.2 1.2v-1.5c0-.2-.2-.3-.3-.3h-3c-.2 0-.3.2-.3.3v12.8c0 .2.2.3.3.3h3c.2 0 .3-.2.3-.3v-4.9c0-.8.1-1.5.3-2.1.2-.6.5-1.1.8-1.5.4-.4.8-.7 1.3-.9.5-.2 1-.3 1.6-.3h.2c.2 0 .3-.2.3-.3v-3.1c.1-.2-.1-.3-.2-.3zm14.7-4.7h-3c-.2 0-.3.2-.3.3v6c-.4-.3-.8-.7-1.2-1-.8-.5-1.7-.7-2.8-.7-.8 0-1.6.2-2.3.5-.8.3-1.4.8-2 1.4-.6.6-1 1.4-1.4 2.2-.3.9-.5 1.9-.5 3s.2 2.1.5 3c.4.9.8 1.6 1.4 2.2s1.3 1.1 2 1.4c.8.3 1.5.5 2.3.5 1.1 0 2-.3 2.8-.8.4-.3.9-.6 1.2-1v1.2c0 .2.2.3.3.3h3c.2 0 .3-.2.3-.3v-17.8c.1-.2-.1-.4-.3-.4zm-3.5 13.3c-.2.5-.4.9-.7 1.2-.3.3-.7.6-1.1.8-.8.4-1.8.3-2.5 0-.4-.2-.8-.4-1.1-.8-.3-.3-.6-.7-.7-1.2-.2-.5-.3-1-.3-1.6 0-.6.1-1.2.3-1.6.2-.5.4-.9.7-1.2s.7-.6 1.1-.7c.4-.2.8-.3 1.3-.3.4 0 .9.1 1.3.3.4.2.8.4 1.1.8.3.3.6.7.7 1.2.1.4.2.9.2 1.5s-.1 1.1-.3 1.6zm17.7-6.4c-.5-.7-1.2-1.2-2-1.6-.8-.4-1.8-.6-2.8-.6s-1.9.2-2.7.6c-.8.4-1.5.9-2.1 1.5-.6.6-1.1 1.4-1.4 2.2-.3.8-.5 1.8-.5 2.7 0 1 .2 2 .5 2.9.4.9.8 1.6 1.5 2.2.6.6 1.4 1.1 2.2 1.4s1.8.5 2.7.5c1.2 0 2.3-.2 3.2-.7.9-.5 1.7-1.1 2.3-1.8.1-.1.1-.4 0-.5l-1.7-1.5c-.1-.1-.3-.1-.5 0-.5.5-1 .8-1.5 1.1-.5.2-1.1.4-1.8.4-.9 0-1.6-.2-2.2-.8-.5-.4-.9-1-1.1-1.8h9c.2 0 .3-.2.4-.4v-.8c0-1-.1-1.9-.4-2.8-.2-.8-.6-1.6-1.1-2.2zm-7.9 3.5c.2-.7.5-1.4.9-1.9.5-.6 1.2-.8 2-.8.4 0 .8.1 1.2.2l.9.6c.2.3.4.6.6 1 .1.3.2.6.2.9h-5.8zm19.6-5.7c-1.2 0-2.2.2-3.1.9-.4.3-.8.8-1.2 1.2v-1.5c0-.2-.2-.3-.3-.3h-3c-.2 0-.3.2-.3.3v12.8c0 .2.2.3.3.3h3c.2 0 .3-.2.3-.3v-4.9c0-.8.1-1.5.3-2.1.2-.6.5-1.1.8-1.5.4-.4.8-.7 1.3-.9.5-.2 1-.3 1.7-.3h.2c.2 0 .3-.2.3-.3v-3.1c.1-.2-.1-.3-.3-.3zm-67.1-61.8c2.9-1 5.4-2.5 7.4-4.4 2-1.9 3.7-4.2 4.8-6.8 1.2-2.6 1.7-5.5 1.7-8.6 0-3.1-.6-5.9-1.7-8.2-1.1-2.3-2.6-4.2-4.5-5.7-1.8-1.5-4-2.7-6.4-3.6-1.5-.6-3.1-1-4.8-1.3l15.9-16.3c.2-.2.4-.6.4-.9V38c0-.7-.6-1.3-1.3-1.3H51.6c-.7 0-1.3.6-1.3 1.3v9.7c0 .7.6 1.3 1.3 1.3H76L61 65c-.3.3-.4.8-.3 1.2l1.8 7c.1.6.7 1 1.3 1h5.1c4.2 0 7.6.8 9.9 2.3 2.2 1.4 3.3 3.5 3.3 6.2 0 2.6-.9 4.5-2.7 6-1.9 1.6-4.1 2.3-7 2.3-3.3 0-6.2-.7-8.6-2-2.5-1.3-4.8-3.3-7-5.9-.2-.3-.6-.4-.9-.5-.4 0-.7.1-1 .3l-7.7 7.4c-.5.5-.6 1.3-.1 1.8 2.8 3.4 6.3 6.2 10.4 8.3 4.1 2.2 9.1 3.3 14.8 3.3 3.4 0 6.6-.6 9.5-1.6zm84.9-32.5c0-4.6-.9-9-2.5-13-1.7-4-4.1-7.5-7.2-10.5-3.1-2.9-6.8-5.3-11.1-6.9-4.3-1.6-9-2.5-14.1-2.5h-23.6c-.7 0-1.3.6-1.3 1.3v63.3c0 .7.6 1.3 1.3 1.3h23.6c5.1 0 9.8-.9 14.1-2.5 4.3-1.7 8-4 11.1-7 3.1-2.9 5.5-6.5 7.2-10.5 1.6-4.1 2.5-8.4 2.5-13zM151 77.9c-1 2.5-2.4 4.6-4.2 6.4-1.8 1.8-3.9 3.2-6.5 4.2s-5.4 1.5-8.6 1.5h-11.2V49.4h11.2c3.1 0 6 .5 8.6 1.5 2.5 1 4.7 2.4 6.5 4.2 1.8 1.8 3.2 4 4.2 6.4 1 2.5 1.5 5.2 1.5 8.2s-.5 5.7-1.5 8.2z"/></svg>