<svg xmlns="http://www.w3.org/2000/svg" viewBox="0 0 36.6 37.5"><path d="M25.5 37.5C16.5 37.5 0 21 0 12c0-2.3 1.3-6 4.3-8.6.6-.6 1.7-.6 2.3 0L12 8.8c.6.6.6 1.7 0 2.3-.6.6-1.2 1.1-1.8 1.5-.7.5-1.4 1-1.4 1.4 0 5.1 9.7 14.8 14.8 14.8.4 0 .9-.6 1.4-1.3.4-.6.9-1.2 1.6-1.8.6-.6 1.7-.6 2.3 0l5.3 5.3c.6.6.6 1.6 0 2.3-2.7 2.9-6.4 4.2-8.7 4.2zM5.4 3.9c-.2 0-.3.1-.4.2C2.4 6.4 1 9.8 1 12c0 8.5 16 24.5 24.5 24.5 2.2 0 5.6-1.4 7.9-4 .2-.3.2-.6 0-.9l-5.3-5.3c-.2-.2-.6-.2-.9 0-.6.5-1 1.1-1.4 1.7-.7.9-1.3 1.7-2.2 1.7-5.8 0-15.8-10-15.8-15.8 0-.9.8-1.5 1.8-2.2.5-.4 1.1-.8 1.7-1.4.2-.2.2-.6 0-.9L5.8 4.1c-.1-.1-.2-.2-.4-.2zm20 14.5c-.3 0-.5-.2-.5-.5 0-3.4-2.8-6.2-6.2-6.2-.3 0-.5-.2-.5-.5s.2-.5.5-.5c4 0 7.2 3.2 7.2 7.2 0 .3-.3.5-.5.5zm5.3-.7c-.3 0-.5-.2-.5-.5 0-6-4.9-10.8-10.8-10.8-.3 0-.5-.2-.5-.5s.2-.5.5-.5c6.5 0 11.8 5.3 11.8 11.8 0 .2-.2.5-.5.5z"/><path d="M36.1 16.8c-.3 0-.5-.2-.5-.5C35.6 7.9 28.7 1 20.3 1c-.3 0-.5-.2-.5-.5s.2-.5.5-.5c9 0 16.3 7.3 16.3 16.3 0 .3-.2.5-.5.5z"/></svg>