<svg xmlns="http://www.w3.org/2000/svg" viewBox="0 0 100 45.7"><path d="M55.1 19.1c1.2-.1 2.5-1.2 2.4-3-.1-1.6-1.3-2.8-2.7-2.7-1.5.1-2.4 1.3-2.3 3 0 1.6 1.1 2.8 2.6 2.7zm-1.3 10.2c-.1-.1-.2-.1-.2-.2-.1 0-.2-.1-.3-.1s-.2 0-.3.1c-.1 0-.2.1-.2.2-.1.1-.1.2-.2.3 0 .1-.1.2-.1.4 0 .1 0 .3.1.4 0 .1.1.2.2.3.1.1.2.1.2.2.2.1.4.1.6 0 .1 0 .2-.1.2-.2.1-.1.1-.2.2-.3 0-.1.1-.2.1-.4 0-.1 0-.3-.1-.4 0-.1-.1-.2-.2-.3zm5.3 0c-.1-.1-.1-.1-.2-.1s-.2-.1-.3-.1c-.2 0-.3.1-.5.2-.1.1-.2.3-.2.4h1.3c0-.1 0-.1-.1-.2.1-.1.1-.2 0-.2zm-10.1 0c-.1-.1-.2-.1-.2-.2-.1 0-.2-.1-.3-.1s-.2 0-.3.1c-.1 0-.2.1-.2.1l-.2.2c0 .1-.1.2-.1.3 0 .1 0 .2.1.3 0 .1.1.2.2.2l.2.2c.2.1.4.1.6 0 .1 0 .2-.1.2-.2l.2-.2c0-.1.1-.2.1-.3 0-.1 0-.2-.1-.3-.1 0-.1-.1-.2-.1zm-12.7 0c-.1-.1-.1-.1-.2-.1s-.2-.1-.3-.1c-.2 0-.3.1-.5.2-.1.1-.2.3-.2.4h1.3c0-.1 0-.1-.1-.2.1-.1.1-.2 0-.2zm-6.9-16.6c-1.3-.9-2.9-.5-3.8.9s-.6 3 .6 3.9c1.1.7 2.7.8 3.8-.8.9-1.4.7-3.1-.6-4zm9.4 17.4c-.2 0-.3 0-.4.1-.1.1-.1.2-.1.3 0 .1 0 .2.1.3.1.1.2.1.4.1h.3c.1 0 .2-.1.2-.1.1 0 .1-.1.1-.2s.1-.1.1-.2v-.1c-.1 0-.2 0-.2-.1-.3-.1-.4-.1-.5-.1zm2.8-15.8c-1.5-.2-2.6.9-2.8 2.6s.8 3 2.2 3.1c1.2.1 2.6-.7 2.8-2.6.2-1.6-.8-2.9-2.2-3.1zm31.2-1.1c-.9.1-1.6.8-1.8 1.8l4-.6c-.7-1.4-1.8-1.3-2.2-1.2zM61.6 30.1c-.2 0-.3 0-.4.1-.2.1-.2.2-.2.3 0 .1 0 .2.1.3.1.1.2.1.4.1h.3c.1 0 .2-.1.2-.1.1 0 .1-.1.1-.2s.1-.1.1-.2v-.1c-.1 0-.2 0-.2-.1-.2-.1-.3-.1-.4-.1z"/><path d="M100 20.5V0H0v18.6c0 6.8 4.7 8.6 4.7 8.6S24.9 37 38.1 42.7c13.3 5.7 24.3 0 24.3 0s26.5-12.1 32.3-15c5.9-2.9 5.3-7.2 5.3-7.2zM63.2 6.2c0-.4.4-.7.7-.6l2.6.2c.4 0 .7.4.7.7l-1 15.4c0 .4-.4.7-.7.6l-2.6-.2c-.4 0-.7-.4-.7-.7l1-15.4zM22 22.6c-.7.6-1.5.9-2.5 1.1-2.5.4-4.1-.7-4.6-3.2l-.9-5.1-.7.1c-.4.1-.7-.2-.8-.6l-.4-2.2c-.1-.4.2-.7.6-.8l.7-.1-.4-2.3c-.1-.4.2-.7.6-.8l2.4-.4c.4-.1.7.2.8.6l.4 2.3 2.3-.4c.4-.1.7.2.8.6l.4 2.2c.1.4-.2.7-.6.8l-2.3.4.9 4.7c.1.5.2.7.8.6.4-.1.8-.2 1.2-.5.1-.1.2-.1.3-.1h.4c.2.1.4.3.4.5l.4 2.1c.1.1 0 .3-.2.5zM32.1 31l-.2.2c-.1.1-.2.1-.3.2-.1 0-.2.1-.3.1h-.4c-.2 0-.4 0-.6-.1s-.4-.2-.5-.3c-.1-.1-.2-.3-.3-.5-.1-.2-.1-.4-.1-.6s0-.4.1-.6.2-.4.3-.5c.1-.1.3-.3.5-.3.2-.1.4-.1.6-.1h.4c.1 0 .2.1.3.1.1 0 .2.1.3.2.1.1.2.1.2.2l.1.1-.5.6-.1-.1c-.1-.1-.2-.2-.3-.2-.2-.1-.4-.1-.6 0-.1 0-.2.1-.2.2-.1.1-.1.2-.2.3 0 .1-.1.2-.1.3 0 .1 0 .2.1.3 0 .1.1.2.2.3l.2.2c.2.1.5.1.7 0 .1-.1.2-.1.3-.2l.1-.1.5.5-.2-.2zm-8-10.5c-3.1-2.1-3.9-6.1-1.9-9.1 2.1-3 6.1-3.8 9.2-1.7s3.9 6.1 1.9 9.1c-2.1 3.1-6.1 3.8-9.2 1.7zm10.2 8.7c-.2 0-.4 0-.5.1-.1 0-.2.1-.3.2s-.1.2-.2.3c0 .1-.1.3-.1.5v1.1h-.8v-3h.8v.5l.3-.3c.2-.1.4-.2.7-.2h.1v.8zm3 .9s0 .1 0 0v.2h-2.1c0 .2.1.3.2.4.1.1.3.2.5.2s.3 0 .4-.1c.1-.1.2-.1.3-.2l.5.4c-.1.2-.3.3-.5.4s-.4.2-.7.2c-.2 0-.4 0-.6-.1-.2-.1-.3-.2-.5-.3-.1-.1-.2-.3-.3-.5s-.1-.4-.1-.6 0-.4.1-.6.2-.4.3-.5.3-.3.5-.3c.2-.1.4-.1.6-.1.2 0 .4 0 .6.1.2.1.3.2.4.4.1.1.2.3.3.5 0 0 .1.2.1.5 0-.1 0 0 0 0zm2.8 1.3h-.8v-.3c-.1.1-.2.1-.3.2-.2.1-.4.1-.6.1-.1 0-.3 0-.4-.1-.1 0-.2-.1-.3-.2s-.2-.2-.2-.3c-.1-.1-.1-.3-.1-.4 0-.2 0-.3.1-.5.1-.1.1-.2.3-.3.1-.1.2-.1.4-.2.1 0 .3-.1.5-.1h.5c.1 0 .2 0 .3.1 0-.2-.1-.3-.2-.4-.1-.1-.3-.1-.5-.1h-.4c-.1 0-.3.1-.4.1h-.1l-.2-.6c.2-.1.3-.1.5-.2.2 0 .4-.1.6-.1.4 0 .8.1 1 .3.2.2.3.5.3.9v2.1zm2.2-2.3h-.8v1.3c0 .1 0 .2.1.2s.1.1.2.1.3 0 .4-.1h.1v.7c-.1 0-.2.1-.3.1h-.6c-.1 0-.2-.1-.3-.2s-.1-.2-.2-.3c0-.1-.1-.3-.1-.4v-1.4h-.4v-.7h.4v-.8h.8v.8h.8v.7h-.1zm1.1 2.3h-.8v-3h.8v3zm0-3.3h-.8v-.7h.8v.7zm-.2-5.1v-.1c-1 .6-2 .8-3.2.7-1.5-.2-2.9-.9-3.9-2.1-1.1-1.3-1.5-3-1.3-4.9s1-3.5 2.3-4.6c1.2-1 2.7-1.4 4.3-1.3 1.2.1 2.2.6 3 1.3l.5-4.3c0-.4.4-.7.8-.6l2.6.3c.4 0 .7.4.6.8l-1.6 15.4c0 .4-.4.7-.8.6l-2.6-.3c-.5-.2-.8-.5-.7-.9zm3.4 8.4h-.8v-1.7c0-.2 0-.4-.1-.5s-.2-.2-.4-.2-.3.1-.4.2c-.1.1-.2.3-.2.5v1.7h-.8v-3h.8v.3l.1-.1.2-.2c.1-.1.2-.1.3-.1h.3c.3 0 .6.1.8.3.2.2.3.5.3.8l-.1 2zm3.4-.6c0 .5-.1.9-.4 1.1-.1.1-.3.2-.5.3-.2.1-.4.1-.7.1-.5 0-.9-.1-1.3-.3l.3-.6h.1c.1.1.3.2.5.2.2.1.3.1.5.1.3 0 .5-.1.6-.2s.2-.3.2-.6v-.1l-.3.3c-.2.1-.4.2-.6.2-.2 0-.3 0-.5-.1s-.3-.2-.4-.3c-.1-.1-.2-.3-.3-.4-.1-.2-.1-.4-.1-.6s0-.4.1-.6.2-.3.3-.4.3-.2.4-.3c.2-.1.3-.1.5-.1.3 0 .5.1.6.2s.2.2.3.2v-.3h.7v2.2zm.5-9.6c-1.3-1.1-2-2.7-2.1-4.7-.1-1.9.4-3.6 1.5-4.9 1-1.2 2.4-1.9 4-2 1.2-.1 2.2.2 3.2.8l-.3-4.3c0-.4.3-.7.6-.7l2.6-.2c.4 0 .7.3.7.6l1 15.4c0 .4-.3.7-.6.7l-2.6.2c-.4 0-.7-.3-.7-.6v-.1c-.8.8-1.9 1.2-3 1.2-1.6.2-3.1-.3-4.3-1.4zm4.3 10.2H54V31l-.3.3c-.2.1-.4.2-.6.2-.2 0-.4 0-.5-.1-.2-.1-.3-.2-.4-.3-.1-.1-.2-.3-.3-.5s-.1-.4-.1-.7c0-.3 0-.5.1-.7s.2-.4.3-.5.3-.2.4-.3.3-.1.5-.1.5.1.6.2.2.2.3.2v-1.4h.8v4.1zm2.3-2.2c-.2 0-.4 0-.5.1-.1 0-.2.1-.3.2s-.1.2-.2.3c0 .1-.1.3-.1.5v1.1h-.8v-3h.8v.5l.3-.3c.2-.1.4-.2.7-.2h.1v.8zm3 .9s0 .1 0 0v.2H58c0 .2.1.3.2.4.1.1.3.2.5.2s.3 0 .4-.1c.1-.1.2-.1.3-.2l.5.4c-.1.2-.3.3-.5.4s-.4.2-.7.2c-.2 0-.4 0-.6-.1-.2-.1-.3-.2-.5-.3-.1-.1-.2-.3-.3-.5s-.1-.4-.1-.6 0-.4.1-.6.2-.4.3-.5.3-.3.5-.3c.2-.1.4-.1.6-.1.2 0 .4 0 .6.1.2.1.3.2.4.4.1.1.2.3.3.5 0 0 .1.2.1.5 0-.1 0 0 0 0zm2.8 1.3h-.8v-.3c-.1.1-.2.1-.3.2-.2.1-.4.1-.6.1-.1 0-.3 0-.4-.1-.1 0-.2-.1-.3-.2s-.2-.2-.2-.3c-.1-.1-.1-.3-.1-.4 0-.2 0-.3.1-.5.1-.1.1-.2.3-.3.1-.1.2-.1.4-.2.1 0 .3-.1.5-.1h.5c.1 0 .2 0 .3.1 0-.2-.1-.3-.2-.4-.1-.1-.3-.1-.5-.1h-.4c-.1 0-.3.1-.4.1h-.1l-.2-.6c.2-.1.3-.1.5-.2.2 0 .4-.1.6-.1.4 0 .8.1 1 .3.2.2.3.5.3.9v2.1zm5 0h-.8v-1.7c0-.2 0-.4-.1-.5s-.2-.2-.4-.2-.3.1-.4.2-.2.3-.2.5v1.7h-.8v-1.7c0-.2 0-.4-.1-.5s-.2-.2-.4-.2-.3.1-.4.2-.2.3-.2.5v1.7h-.8v-3h.8v.2l.2-.2c.1-.1.2-.1.3-.1h.3c.2 0 .4.1.6.1l.3.3c.1-.1.2-.2.4-.3.2-.1.4-.1.6-.1.3 0 .6.1.8.3.2.2.3.5.3.9v1.9zm2.5-.4c-.1.1-.1.2-.2.3-.1.1-.2.1-.4.2-.1 0-.3.1-.4.1-.2 0-.4 0-.6-.1l-.6-.3.4-.5h.1c.2.1.3.2.5.3.2.1.3.1.4.1s.2 0 .3-.1c.1 0 .1-.1.1-.2v-.1l-.1-.1c-.1 0-.1-.1-.2-.1s-.2 0-.2-.1c-.1 0-.2-.1-.3-.1-.1 0-.2-.1-.3-.2-.1-.1-.2-.2-.2-.3-.1-.1-.1-.2-.1-.4s0-.3.1-.4.1-.2.2-.3c.1-.1.2-.1.3-.2.3-.1.6-.1 1 0 .2.1.4.1.5.2l-.3.6h-.1c-.1-.1-.3-.1-.4-.2-.3-.1-.5-.1-.6 0-.1 0-.1.1-.1.2v.1l.1.1c.1 0 .1.1.2.1s.2.1.2.1c.1 0 .2.1.3.1.1 0 .2.1.3.2l.2.2c.1.1.1.2.1.4-.1.1-.1.2-.2.4zm3.7-11.9c1-.2 1.6-.6 2.3-1.5.1-.2.3-.2.5-.3.2 0 .3 0 .5.1l1.7 1.1c.3.2.4.6.2.9-1 1.7-2.6 2.8-4.7 3.1-1.8.3-3.5-.1-4.8-1.1-1.4-1-2.3-2.5-2.6-4.4-.3-1.7.1-3.4 1-4.8s2.4-2.3 4.1-2.6c1.9-.3 3.5.2 4.8 1.3 1.1 1 1.9 2.6 2.2 4.4 0 .2.1.5.1.7v.1c0 .4-.2.7-.6.7L71.6 18c.5.9 1.4 1.3 2.5 1.1zm14.3-4.8c0 .4-.4.7-.8.6h-.1c-2-.2-3.2 1-3.5 3.4l-.5 4.2c0 .4-.4.7-.8.6l-2.6-.3c-.4 0-.7-.4-.6-.8l1.3-11c0-.4.4-.7.8-.6l2.6.3c.4 0 .7.4.6.8v.3c.9-.7 2-1 3.2-.8h.2c.4.1.6.4.6.8l-.4 2.5z"/></svg>