<svg xmlns="http://www.w3.org/2000/svg" viewBox="0 0 46 47.9"><circle cx="18" cy="4.9" r="1.5"/><path d="M23.8 45.9H2.6c-.3 0-.6-.3-.6-.6V8.5c0-.3.3-.6.6-.6H9v1.2c0 1 .8 1.8 1.8 1.8h14.4c1 0 1.8-.8 1.8-1.8V7.9h6.4c.3 0 .6.3.6.6v13.4c0 .6.4 1 1 1s1-.4 1-1V8.5c0-1.4-1.2-2.6-2.6-2.6h-6.5c-.3-1.6-1.7-2.7-3.3-2.7h-.9C21.7.6 18.8-.7 16.2.3c-1.3.5-2.4 1.6-2.9 2.9h-.9c-1.6 0-3 1.1-3.3 2.7H2.6C1.2 6 0 7.1 0 8.5v36.8c0 1.4 1.2 2.6 2.6 2.6h21.2c.6 0 1-.4 1-1s-.4-1-1-1zM11 6.7c0-.8.6-1.4 1.4-1.5h2.5l.2-.8c.3-1.6 1.9-2.7 3.5-2.3 1.2.2 2.1 1.2 2.3 2.3l.2.8h2.5c.8 0 1.4.7 1.4 1.5V9H11V6.7z"/><path d="M12 16.9h16v2H12zm-4.5-1.5c-1.4 0-2.5 1.1-2.5 2.5s1.1 2.5 2.5 2.5 2.5-1.1 2.5-2.5-1.1-2.5-2.5-2.5zm0 4c-.8 0-1.5-.7-1.5-1.5s.7-1.5 1.5-1.5 1.5.7 1.5 1.5-.7 1.5-1.5 1.5zm4.5 7.5h10v2H12zm-4.5-1.5c-1.4 0-2.5 1.1-2.5 2.5s1.1 2.5 2.5 2.5 2.5-1.1 2.5-2.5-1.1-2.5-2.5-2.5zm0 4c-.8 0-1.5-.7-1.5-1.5s.7-1.5 1.5-1.5 1.5.7 1.5 1.5-.7 1.5-1.5 1.5zm4.5 7.5h8v2h-8zm-4.5-1.5c-1.4 0-2.5 1.1-2.5 2.5s1.1 2.5 2.5 2.5 2.5-1.1 2.5-2.5-1.1-2.5-2.5-2.5zm0 4c-.8 0-1.5-.7-1.5-1.5s.7-1.5 1.5-1.5 1.5.7 1.5 1.5-.7 1.5-1.5 1.5zM35 25.9c-6.1 0-11 4.9-11 11s4.9 11 11 11 11-4.9 11-11-4.9-11-11-11zm0 20c-5 0-9-4-9-9s4-9 9-9 9 4 9 9-4 9-9 9z"/><path d="m38.3 33.3-5 5.2-1.6-1.6c-.4-.4-1-.3-1.4.1-.3.4-.3.9 0 1.3l2.3 2.4c.4.4 1 .4 1.4 0l5.7-6c.4-.4.3-1.1-.1-1.4-.4-.4-1-.4-1.3 0z"/></svg>