<svg xmlns="http://www.w3.org/2000/svg" viewBox="0 0 82.8 63.6"><path d="M41.7 26.2c.8 0 1.5-.7 1.5-1.5s-.7-1.5-1.5-1.5-1.5.7-1.5 1.5c0 .9.7 1.5 1.5 1.5zm-4.2-13.7H56c.6 0 1-.5 1-1s-.5-1-1-1H37.5c-.6 0-1 .5-1 1s.4 1 1 1zm-6.6-4.4c-.4-.4-1.1-.4-1.5 0L24.5 13 23 11.4c-.4-.4-1.1-.4-1.5 0s-.4 1.1 0 1.5l2.3 2.3c.2.2.5.3.7.3s.5-.1.7-.3l5.6-5.6c.5-.5.5-1.1.1-1.5zm50.5 11.7H64.3V1.4c0-.6-.5-1-1-1H15.1c-.6 0-1 .5-1 1V32H1.6c-.6 0-1 .5-1 1v29.1c0 .6.5 1 1 1h79.7c.6 0 1-.5 1-1V20.8c.1-.5-.3-1-.9-1zM16.1 2.4h46.1v17.4H27.1c-.6 0-1 .5-1 1v11.1h-9.9l-.1-29.5zm20.1 58.7H2.7v-1.6l7.2-7.2 3.7 3.7c.4.4 1.1.4 1.5 0l11.7-11.7 9.4 9.4v7.4zm0-10.4L27.5 42c-.4-.4-1.1-.4-1.5 0L14.3 53.7 10.6 50c-.4-.4-1.1-.4-1.5 0l-6.5 6.5V34h33.6v16.7zm44.2 10.4H38.3V33c0-.6-.5-1-1-1h-9.1v-2h52.3l-.1 31.1zm0-33.1H28.1v-6.1h52.3V28zM12.5 46.9c2.5 0 4.6-2.1 4.6-4.6s-2.1-4.6-4.6-4.6-4.6 2.1-4.6 4.6 2 4.6 4.6 4.6zm0-7.1c1.4 0 2.5 1.1 2.5 2.5s-1.1 2.5-2.5 2.5-2.5-1.1-2.5-2.5c-.1-1.4 1.1-2.5 2.5-2.5zm37.7 12.7c.2.1.3.1.5.1s.4 0 .5-.1l9.3-5.5c.3-.2.5-.5.5-.9s-.2-.7-.5-.9l-9.3-5.5c-.3-.2-.7-.2-1 0s-.5.5-.5.9v11.1c0 .2.2.6.5.8zm1.5-10.2 6.2 3.7-6.2 3.8v-7.5zM36.6 26.2c.8 0 1.5-.7 1.5-1.5s-.7-1.5-1.5-1.5-1.5.7-1.5 1.5c0 .9.6 1.5 1.5 1.5zm-5.2 0c.8 0 1.5-.7 1.5-1.5s-.7-1.5-1.5-1.5-1.5.7-1.5 1.5c0 .9.7 1.5 1.5 1.5z"/></svg>