<svg id="Group_2" data-name="Group 2" xmlns="http://www.w3.org/2000/svg" xmlns:xlink="http://www.w3.org/1999/xlink" width="19.341" height="24.468" viewBox="0 0 19.341 24.468">
  <defs>
    <clipPath id="clip-path">
      <rect id="Rectangle_1" data-name="Rectangle 1" width="19.341" height="24.468" transform="translate(0 0)" fill="none"/>
    </clipPath>
  </defs>
  <g id="Group_1" data-name="Group 1" clip-path="url(#clip-path)">
    <path id="Path_1" data-name="Path 1" d="M19.227,9.337l-.013-.013L10.04.15C10.027.138,10.014.126,10,.115L9.994.109,9.962.086,9.947.077,9.919.06,9.9.052,9.873.039,9.858.033,9.826.022H9.813L9.778.01H9.767A.516.516,0,0,0,9.679,0H9.63L9.594.008H9.581l-.035.01H9.532L9.5.033l-.015,0L9.456.052,9.44.06,9.412.076,9.4.085,9.37.107,9.36.115c-.015.011-.029.023-.043.035L.143,9.325a.508.508,0,0,0,.011.718.5.5,0,0,0,.111.082l.042.021.041.015H.354l.039.01H.4l.034.006H.564l.036,0a.51.51,0,0,0,.258-.134l8.3-8.306V23.958a.51.51,0,0,0,.51.51H9.72a.509.509,0,0,0,.457-.494V1.74l8.3,8.306.031.028a.51.51,0,0,0,.7-.738"/>
  </g>
</svg>
