<svg xmlns="http://www.w3.org/2000/svg" viewBox="0 0 65.55 66"><path d="m61.23 26.9-.3-.7-.8.1c-3.2.6-6.3.8-7.9.9 0-5-1.3-8.9-3.8-11.6-3.2-3.4-7.5-3.6-8.7-3.6h-.4l-24.4 8.2c-1.9.8-3.5 1.6-4.8 2.6-4.6 3.1-6.7 7.6-6.7 14.1 0 9.6 8.3 17.1 18.9 17.1 7.9 0 10.1-.4 12.8-.9.8-.1 1.7-.3 2.8-.5h.2l23.9-15.9v-.5c.4-6.6-.7-9.2-.8-9.3zm-1.9 1.6-22.7 14.8c-2 .5-6.4 1-9.8 1.4.7-.2 1.3-.5 1.7-.6 8-3.7 21.4-13.7 22.9-14.9.7 0 4.1-.1 7.9-.7zM39.63 14c.7 0 4.6.1 7.4 3 2.3 2.4 3.4 6.2 3.2 11.2v.7c-3 2.3-14.9 10.9-22.1 14.3-.2.1-.6.2-1 .4.2-.2.3-.3.4-.5 3.9-5.1 3.9-10.9.1-15.7-2.4-3.1-6.5-5.4-10.8-5.7l22.8-7.7zm-4.8 37.1c-2.5.5-4.7.8-12.4.8-9.6.1-17-6.6-17-15 0-5.8 1.8-9.7 5.8-12.5.8-.5 1.7-1 2.6-1.5 5.1-1 10.2 1.5 13 5.1 3.5 4.4 3.4 9.8-.1 14.5-1.7 2.2-5.3 3.2-8.9 2.4-3.4-.7-8.2-4.3-6.9-10.9.4-2.1 1.7-4 3.5-5.1 1.1-.7 2.9-1.3 5.3-.5 3.4 1.1 5 4 4.2 7.6-.3 1.7-1.4 2.8-2.9 3-1.4.2-3-.3-3.6-1.4-.6-1-.4-2.2.7-3.5.2-.2.1-.5-.1-.7-.2-.2-.5-.1-.7.1-1.7 2.2-1.2 3.9-.7 4.7.8 1.4 2.8 2.2 4.6 1.9 1.9-.3 3.3-1.7 3.7-3.8 1-4.9-1.9-7.8-4.9-8.8-2.1-.7-4.2-.5-6.1.6-2 1.2-3.5 3.3-4 5.8-1.4 7.3 4 11.3 7.7 12.1.8.2 1.7.3 2.5.3.5 0 1 0 1.4-.1.1.1.2.1.3.1.4 0 10.4-.9 14.4-1.8l.8 6.3c-.8.1-1.5.2-2.2.3zm25.2-15.5-21.9 14.6-.7-6.2 22.4-14.6c.2 1.2.4 3.3.2 6.2z"/></svg>