<svg xmlns="http://www.w3.org/2000/svg" viewBox="0 0 422 416"><path d="M206.2 400H25.8c21-26.6 32.4-59.6 32.3-93.5V16h278.4v153.2c0 4.4 3.6 8 8 8s8-3.6 8-8V8c0-4.4-3.6-8-8-8H50.1c-4.4 0-8 3.6-8 8v298.5c.1 36-14.2 70.5-39.7 95.9-3.1 3.1-3.1 8.2 0 11.3 1.5 1.5 3.5 2.3 5.7 2.3h198.2c4.4 0 8-3.6 8-8s-3.6-8-8.1-8z"/><path d="M289 100.8H105.5c-4.4 0-8 3.6-8 8s3.6 8 8 8H289c4.4 0 8-3.6 8-8s-3.6-8-8-8zm8 62.2c0-4.4-3.6-8-8-8H105.5c-4.4 0-8 3.6-8 8s3.6 8 8 8H289c4.4 0 8-3.6 8-8zm-79.8 54.2c0-4.4-3.6-8-8-8H105.5c-4.4 0-8 3.6-8 8s3.6 8 8 8h103.8c4.4 0 7.9-3.6 7.9-8zm-111.7 46.2c-4.4 0-8 3.6-8 8s3.6 8 8 8h65.3c4.4 0 8-3.6 8-8s-3.6-8-8-8h-65.3zm286.2-23.9c-40.3-40.4-105.7-40.4-146.1-.1-15.1 15.1-25.2 34.5-28.8 55.5l-6.4-6.4c-3.1-3.1-8.2-3.1-11.3 0s-3.1 8.2 0 11.3l18.4 18.4c3.1 3.1 8.2 3.1 11.3 0l18.4-18.4c3.1-3.1 3.1-8.2 0-11.3s-8.2-3.1-11.3 0l-1.8 1.8c12.3-46.6 60.1-74.4 106.8-62.1S415.4 288.4 403 335s-60.1 74.4-106.8 62.1c-14.9-3.9-28.5-11.8-39.4-22.7-3.1-3.1-8.2-3.1-11.3 0s-3.1 8.2 0 11.3c40.4 40.4 105.9 40.3 146.2-.1 40.4-40.4 40.4-105.8 0-146.1z"/><path d="M318.6 243.3c-4.4 0-8 3.6-8 8v61.3c0 2.1.9 4.2 2.4 5.7l29 29c3.1 3.1 8.2 3.1 11.3-.1 3.1-3.1 3.1-8.1 0-11.2l-26.7-26.7v-58c0-4.4-3.6-8-8-8z"/></svg>