<svg xmlns="http://www.w3.org/2000/svg" viewBox="0 0 132.1 180"><path d="M65.7 179c-13.4 0-25.5-2.5-36-7.3-10.3-4.8-19.8-11.2-28.1-19.1-1-1-1.1-2.5-.2-3.6l18.4-21.6c.5-.5 1.1-.9 1.8-.9s1.4.2 1.9.7c6.6 6.1 13.4 11 20.4 14.5 6.8 3.4 14 5.2 21.5 5.2 9.5 0 17.1-2.5 22.8-7.4 5.6-4.9 8.3-11.2 8.3-19.5v-.5c0-8-2.9-14.1-8.8-18.6-6.1-4.7-14-7-23.8-7-5.9 0-11.4.7-16.3 2.1-5 1.4-9.7 3.1-13.9 5.2-.8.4-1.8.3-2.6-.2L13.3 89c-.8-.5-1.2-1.4-1.2-2.3L17 3.5C17 2.1 18.2 1 19.6 1h101.6c1.4 0 2.6 1.2 2.6 2.6V30c0 1.4-1.2 2.6-2.6 2.6H47.7L45.5 66c2.9-.9 5.9-1.7 8.8-2.3 4.3-.9 9.4-1.4 15.2-1.4 8.5 0 16.5 1.1 23.9 3.4 7.5 2.3 14.1 5.8 19.7 10.4 5.6 4.7 10 10.6 13.3 17.6 3.2 7 4.9 15.3 4.9 24.5v.5c0 9-1.6 17.4-4.7 24.7-3.2 7.4-7.7 13.7-13.5 19-5.8 5.2-12.8 9.3-20.9 12.2-8 2.9-16.9 4.4-26.5 4.4z"/></svg>