<svg data-name="Layer 1" xmlns="http://www.w3.org/2000/svg" viewBox="0 0 41.95 43.75"><path d="M41.79 15.11A3.5 3.5 0 0 0 40 13l-4.21-1.9-.57-4.54a3.47 3.47 0 0 0-3.82-3 .38.38 0 0 0-.24 0l-4.49.9-3.17-3.33a3.39 3.39 0 0 0-4.8-.25l-.06.06-.19.18-3.17 3.36-4.49-.9a3.44 3.44 0 0 0-4 2.71 2 2 0 0 1-.05.24l-.58 4.57L2 13a3.48 3.48 0 0 0-1.65 4.62 1.79 1.79 0 0 0 .09.19l2.23 4-2.23 4a3.42 3.42 0 0 0 1.29 4.69c.1 0 .15.09.24.09l4.16 2 .57 4.58a3.48 3.48 0 0 0 3.83 3 .37.37 0 0 0 .23 0l4.49-.85 3.12 3.35a3.48 3.48 0 0 0 4.87.19l.19-.19 3.16-3.35 4.49.9a3.45 3.45 0 0 0 4.06-2.71 2 2 0 0 1 0-.24l.57-4.58L40 30.71a3.42 3.42 0 0 0 1.67-4.54v-.05c0-.09-.09-.14-.09-.23l-2.27-4 2.22-4a3.26 3.26 0 0 0 .26-2.78zm-2.36 1.56-2.55 4.63a1.21 1.21 0 0 0 0 1.14L39.43 27a1.1 1.1 0 0 1-.43 1.49l-4.78 2.22a1.18 1.18 0 0 0-.66.95l-.61 5.2a1 1 0 0 1-1.11 1h-.17l-5.15-1a1.11 1.11 0 0 0-1.09.38L21.76 41a1.12 1.12 0 0 1-1.56 0l-3.59-3.83a1.2 1.2 0 0 0-.86-.38h-.23l-5.15 1a1.16 1.16 0 0 1-1.28-.86v-.09l-.66-5.2a1.18 1.18 0 0 0-.66-.95L3 28.48A1.13 1.13 0 0 1 2.52 27v-.05l2.55-4.59a1.19 1.19 0 0 0 0-1.13l-2.5-4.56A1.08 1.08 0 0 1 3 15.21v-.05l4.73-2.22a1.18 1.18 0 0 0 .7-.94l.66-5.2a1 1 0 0 1 1.11-1h.17l5.15 1a1.09 1.09 0 0 0 1.08-.38l3.6-3.82a1.09 1.09 0 0 1 1.55 0l3.6 3.82a1.34 1.34 0 0 0 1.08.38l5.15-1a1.14 1.14 0 0 1 1.28.85v.09l.61 5.2a1.17 1.17 0 0 0 .67.95l4.77 2.22a1.13 1.13 0 0 1 .52 1.46v.05zm-12.57-.57-9.92 13A1.217 1.217 0 0 1 15 27.63l10-12.94a1.19 1.19 0 0 1 1.65-.24 1.15 1.15 0 0 1 .28 1.6v.06zm-.8 5.9a3.74 3.74 0 0 0-3.73 3.73v.8a3.73 3.73 0 1 0 7.46 0v-.8A3.68 3.68 0 0 0 26.16 22zm1.42 4.54a1.37 1.37 0 0 1-2.74 0v-.8a1.37 1.37 0 0 1 2.74 0zM19.63 18v-.8a3.73 3.73 0 1 0-7.46 0v.8a3.73 3.73 0 0 0 7.46 0zm-5.15 0v-.8a1.37 1.37 0 0 1 2.74 0v.8a1.37 1.37 0 0 1-2.74 0z" fill="#2c2c2c"/></svg>