<svg xmlns="http://www.w3.org/2000/svg" viewBox="0 0 204.2 251.4" xml:space="preserve"><path d="M55 52.4c-1.2 4.6-3.2 8.9-6 12.7-2.5 3.5-5.9 6.3-9.7 8.2-4.2 2.1-8.8 3.1-13.4 3-4.5.1-9.1-.7-13.3-2.4-3.6-1.6-7-3.7-10-6.3l8.2-12.3c2.2 1.9 4.7 3.6 7.4 4.8 2.6 1.1 5.3 1.6 8.1 1.5 4.4 0 7.8-1.6 10.1-4.7s3.8-7.2 4.3-12.2c-1.8 1.6-3.9 2.8-6.2 3.7-2.6 1-5.4 1.4-8.2 1.4-3.6 0-7.1-.5-10.5-1.7-3-1-5.7-2.6-8-4.7s-4-4.6-5.1-7.5C1.5 32.8.9 29.4 1 25.9c0-3.5.7-7.1 2-10.3 1.3-3.1 3.1-5.9 5.5-8.2C10.9 5 13.9 3.2 17 2c3.5-1.3 7.2-2 11-2 2.2 0 4.3.1 6.4.5 1.8.3 3.6.8 5.3 1.4 1.6.6 3.2 1.5 4.6 2.5 1.5 1.1 2.9 2.3 4.2 3.6 1.3 1.4 2.5 2.9 3.4 4.5 1.1 1.9 2 3.8 2.6 5.9.8 2.5 1.4 5.1 1.7 7.7.4 3.2.6 6.5.6 9.8.3 5.6-.4 11.1-1.8 16.5zM37.7 17.1c-2.2-2.1-5.3-3.2-9.2-3.2-3.9 0-6.9 1-9 3.1-2.1 2.2-3.3 5.1-3.2 8.2-.1 3.1 1.1 6 3.3 8.1 2.2 2 5.3 3.1 9.1 3.1s6.9-1 9-3.1c2.2-2.1 3.3-5 3.2-8 .2-3.1-1-6.1-3.2-8.2zM118.1 52.4c-1.2 4.6-3.2 8.9-5.9 12.7-2.5 3.5-5.9 6.3-9.7 8.2-4.2 2.1-8.8 3.1-13.4 3-4.5.1-9.1-.7-13.3-2.4-3.6-1.6-7-3.7-10.1-6.3l8.2-12.3c2.2 1.9 4.7 3.6 7.4 4.8 2.6 1.1 5.3 1.6 8.1 1.5 4.4 0 7.8-1.6 10.1-4.7s3.8-7.2 4.3-12.2c-1.8 1.6-3.9 2.8-6.2 3.7-2.6 1-5.4 1.4-8.2 1.4-3.6 0-7.1-.5-10.5-1.7-3-1-5.7-2.6-8-4.7s-4-4.6-5.1-7.5c-1.2-3.2-1.8-6.7-1.8-10.1 0-3.5.7-7.1 2-10.3 1.3-3.1 3.1-5.9 5.5-8.2C74.1 5 77 3.2 80.2 2c3.5-1.3 7.2-2 11-2 2.2 0 4.3.1 6.4.5 1.8.3 3.6.8 5.4 1.4 1.6.6 3.2 1.5 4.6 2.5 1.5 1.1 2.9 2.3 4.1 3.6 1.3 1.4 2.5 2.9 3.4 4.5 1.1 1.9 2 3.8 2.6 5.9.8 2.5 1.4 5.1 1.7 7.7.4 3.2.6 6.5.6 9.8.2 5.6-.5 11.1-1.9 16.5zm-17.2-35.3c-2.2-2.1-5.3-3.2-9.2-3.2-3.9 0-6.9 1-9 3.1-2.1 2.2-3.3 5.1-3.2 8.2-.1 3.1 1.1 6 3.3 8.1 2.2 2 5.3 3.1 9.1 3.1s6.9-1 9-3.1c2.2-2.1 3.3-5 3.2-8 .1-3.1-1-6.1-3.2-8.2zM159.3 26.6c-.8 2.2-2 4.2-3.6 6-1.5 1.7-3.4 3.1-5.5 4-2.2 1-4.6 1.5-7.1 1.5-2.4 0-4.8-.5-7-1.5-2.1-1-3.9-2.3-5.4-4-1.5-1.7-2.7-3.8-3.5-6-.8-2.4-1.2-4.8-1.2-7.3s.4-5 1.3-7.3c.8-2.2 2-4.2 3.6-6 1.5-1.7 3.4-3.1 5.5-4.1 2.2-1 4.6-1.5 7.1-1.5 2.4 0 4.8.5 7 1.5 2.1 1 3.9 2.3 5.4 4 1.5 1.7 2.7 3.8 3.5 6 .8 2.4 1.2 4.8 1.2 7.3s-.4 5-1.3 7.4zm-14 48.4h-12.1l51.9-73.7h12.1L145.3 75zm2.8-62.2c-1-1.7-2.9-2.8-4.9-2.8-2-.1-3.9 1-4.9 2.7-1.1 2-1.7 4.2-1.6 6.4-.1 2.3.6 4.6 1.8 6.6 1 1.7 2.9 2.8 4.9 2.8 2 .1 3.9-1 4.9-2.7 1.1-2 1.7-4.2 1.6-6.4.1-2.4-.5-4.6-1.8-6.6zM203 64.3c-.8 2.2-2 4.2-3.6 6-3.2 3.6-7.7 5.6-12.5 5.5-2.4 0-4.8-.5-7-1.5-2.1-1-3.9-2.3-5.4-4-1.6-1.7-2.7-3.8-3.5-6-.8-2.4-1.2-4.8-1.2-7.3s.4-5 1.2-7.3c.8-2.2 2-4.2 3.6-6 5-5.4 12.8-7 19.5-4.1 2.1 1 3.9 2.3 5.4 4 1.6 1.7 2.7 3.8 3.5 6 .8 2.4 1.2 4.8 1.2 7.3.1 2.6-.4 5.1-1.2 7.4zm-11.2-13.8c-1-1.7-2.9-2.8-4.9-2.8-2-.1-3.9 1-4.9 2.7-1.1 2-1.7 4.2-1.6 6.4-.1 2.3.6 4.6 1.8 6.6 1 1.7 2.9 2.8 4.9 2.8 2 .1 4-1 4.9-2.7 1.1-1.9 1.7-4.2 1.6-6.4.1-2.3-.6-4.6-1.8-6.6zM19.2 124.2l-6.4-10H7.6v10H1V93.1h13.7c3.6 0 6.3.9 8.3 2.7 2.1 2 3.2 4.7 3 7.6v.1c.1 2.2-.5 4.4-1.8 6.2-1.2 1.6-2.8 2.8-4.6 3.5l7.3 11.1h-7.7zm.1-20.5c.1-1.3-.4-2.5-1.4-3.3-1.1-.8-2.4-1.2-3.8-1.1H7.6v8.9h6.7c1.4.1 2.7-.4 3.8-1.2.8-.8 1.3-2 1.2-3.3zM30.2 124.2V93.1h22.6v6.1H36.7v6.3h14.1v6.1H36.7v6.5H53v6.1H30.2zM83.7 114.8c-.7 1.8-1.9 3.5-3.3 4.9-1.5 1.4-3.2 2.5-5.1 3.3-2.1.8-4.2 1.2-6.4 1.2H57.2V93.1h11.7c2.2 0 4.4.4 6.4 1.2 1.9.7 3.6 1.9 5.1 3.3 1.4 1.4 2.5 3.1 3.3 4.9.8 1.9 1.2 4 1.2 6.1v.1c0 2.1-.4 4.2-1.2 6.1zm-5.7-6.1c0-1.3-.2-2.6-.7-3.8-.4-1.1-1-2.1-1.8-3-.8-.8-1.8-1.5-2.9-1.9-1.2-.5-2.4-.7-3.7-.7h-5.1v18.8h5.1c1.3 0 2.5-.2 3.7-.7 1.1-.4 2-1.1 2.8-1.9.8-.8 1.4-1.8 1.8-2.9.5-1.2.7-2.5.7-3.8l.1-.1zM113.8 116.8c-.5 1.6-1.4 3.1-2.6 4.4-1.2 1.2-2.6 2.1-4.2 2.6-1.8.6-3.6.9-5.4.9-4 0-7.2-1.2-9.5-3.5s-3.5-5.8-3.5-10.4V93.1h6.6v17.6c-.2 2.1.5 4.1 1.7 5.8 1.2 1.3 3 2 4.8 1.9 1.8.1 3.5-.6 4.8-1.9 1.1-1.2 1.7-3.1 1.7-5.6V93.1h6.6v17.6c-.1 2.1-.4 4.2-1 6.1zM143.6 121.5c-.8.7-1.7 1.3-2.7 1.8-1 .5-2.1.9-3.2 1.1-1.3.3-2.6.4-3.9.4-4.2 0-8.1-1.7-11-4.7-1.4-1.5-2.5-3.2-3.2-5.1-.8-2-1.2-4.1-1.2-6.3v-.1c0-2.1.4-4.3 1.2-6.2.7-1.9 1.8-3.6 3.2-5.1 1.4-1.5 3.1-2.7 4.9-3.5 2-.9 4.1-1.3 6.3-1.3 1.3 0 2.6.1 3.8.3 1.1.2 2.1.6 3.1 1 .9.4 1.8.9 2.6 1.5s1.5 1.3 2.2 2l-4.2 5c-1.1-1-2.3-1.9-3.6-2.6-1.3-.6-2.7-1-4.1-.9-2.4 0-4.7 1-6.2 2.8-.8.9-1.4 2-1.8 3.1-.4 1.2-.7 2.5-.6 3.8v.1c0 1.3.2 2.6.6 3.8.4 1.1 1 2.2 1.8 3.1.8.9 1.7 1.6 2.7 2.1 1.1.5 2.3.8 3.5.8 1.5 0 3-.3 4.4-1 1.3-.7 2.5-1.6 3.5-2.7l4.2 4.4c-.6.9-1.4 1.7-2.3 2.4zM149.6 124.2V93.1h22.6v6.1h-16.1v6.3h14.1v6.1h-14.1v6.5h16.3v6.1h-22.8zM203.1 114.8c-.7 1.9-1.9 3.5-3.3 4.9-1.5 1.4-3.2 2.5-5.1 3.3-2.1.8-4.2 1.2-6.4 1.2h-11.7V93.1h11.7c2.2 0 4.4.4 6.4 1.2 1.9.7 3.6 1.9 5.1 3.3 1.4 1.4 2.5 3.1 3.3 4.9.8 1.9 1.2 4 1.1 6.1v.1c0 2.1-.3 4.2-1.1 6.1zm-5.8-6.1c0-1.3-.2-2.6-.7-3.8-.4-1.1-1-2.1-1.8-3-.8-.8-1.8-1.5-2.8-1.9-1.2-.5-2.4-.7-3.7-.7h-5.1v18.8h5.1c1.3 0 2.5-.2 3.7-.7 1.1-.4 2-1.1 2.9-1.9.8-.8 1.4-1.8 1.8-2.9.5-1.2.7-2.5.7-3.8v-.1zM1 191.8v-54.2h11.5V181h26v10.8H1zM83.1 191.8l-4.8-12.2H56.2l-4.8 12.2H39.7l22.4-54.6h10.6l22.4 54.6h-12zm-15.9-40.3-6.9 17.6h13.9l-7-17.6zM136.8 191.8l-25.3-34.5v34.5h-11.3v-54.2h10.6l24.5 33.4v-33.4h11.3v54.2h-9.8zM202.2 175.4c-1.3 3.2-3.2 6.2-5.7 8.6-2.5 2.5-5.5 4.4-8.8 5.7a30.9 30.9 0 0 1-11.2 2.1h-20.4v-54.2h20.4c3.8-.1 7.7.6 11.2 2 3.3 1.3 6.3 3.2 8.8 5.7 2.5 2.4 4.4 5.3 5.7 8.6 1.4 3.4 2 7 2 10.6v.1c.1 3.7-.6 7.4-2 10.8zm-10-10.7c0-2.2-.4-4.5-1.2-6.6-.7-1.9-1.8-3.7-3.2-5.2-1.4-1.5-3.1-2.6-5-3.4-2-.8-4.2-1.2-6.4-1.2h-8.9V181h8.9c2.2 0 4.4-.4 6.4-1.2 1.9-.7 3.6-1.9 5-3.3 1.4-1.5 2.5-3.2 3.2-5.1.8-2.1 1.2-4.3 1.2-6.6v-.1zM33.5 243.1c-.7 1.7-1.9 3.2-3.3 4.4-1.5 1.2-3.2 2.2-5.1 2.7-2.1.7-4.3 1-6.5.9-3.4 0-6.7-.6-9.9-1.8-3.3-1.2-6.2-3.1-8.8-5.5l5.7-7.1c1.9 1.6 4 2.9 6.2 4 2.2 1 4.5 1.5 6.9 1.5 1.6.1 3.3-.3 4.7-1.1 1.1-.7 1.7-1.9 1.7-3.1 0-.6-.1-1.2-.4-1.7-.3-.6-.8-1.1-1.3-1.4-.8-.5-1.8-1-2.7-1.3-1.5-.5-3-1-4.5-1.4-2-.5-4-1.1-6-1.9-1.7-.6-3.2-1.5-4.6-2.6-1.3-1-2.3-2.3-2.9-3.8-.7-1.8-1.1-3.7-1-5.7v-.1c0-1.9.4-3.9 1.1-5.6.7-1.7 1.8-3.1 3.1-4.4 1.4-1.2 3.1-2.2 4.8-2.8 2-.7 4.1-1 6.2-1 3 0 6 .5 8.9 1.5 2.7 1 5.2 2.5 7.4 4.3l-5 7.6c-1.8-1.3-3.7-2.4-5.8-3.3-1.8-.8-3.7-1.2-5.6-1.2-1.5-.1-3 .3-4.2 1.1-.9.7-1.4 1.7-1.4 2.8v.1c0 .7.1 1.3.4 1.9.3.6.9 1.1 1.5 1.5.9.5 1.8 1 2.8 1.3 1.2.4 2.8.8 4.7 1.4 2 .5 4 1.2 5.9 2.1 1.6.7 3.1 1.6 4.4 2.7 1.2 1 2.1 2.3 2.7 3.7.7 1.6 1 3.4 1 5.2v.1c.1 2.1-.3 4.1-1.1 6zM74 227.9c-.9 1.9-2.2 3.6-3.8 5-1.7 1.4-3.6 2.4-5.7 3-2.2.7-4.6 1-6.9 1h-7.4v13.7h-9.7V205h17.9c2.4 0 4.8.3 7.1 1.1 2 .7 3.8 1.8 5.3 3.2 1.5 1.4 2.6 3.1 3.3 5 .8 2 1.2 4.2 1.2 6.4v.1c.1 2.5-.3 4.9-1.3 7.1zm-8.4-6.9c.1-1.9-.6-3.8-2.1-5.1-1.6-1.2-3.7-1.9-5.7-1.8h-7.5V228H58c2.1.1 4.1-.6 5.7-2 1.2-1.3 1.9-3.1 1.9-5zM112.7 250.6l-4-10.2H90.1l-4 10.2h-9.9L95 204.7h8.9l18.8 45.9h-10zm-13.3-33.9-5.8 14.8h11.7l-5.9-14.8zM162.1 246.6c-1.2 1-2.6 1.9-4 2.6-1.5.7-3.1 1.3-4.7 1.6-1.9.4-3.8.6-5.8.6-6.1.1-11.9-2.4-16.1-6.8-2-2.2-3.6-4.7-4.7-7.5-1.1-2.9-1.7-6-1.7-9.2v-.1c0-3.1.6-6.2 1.7-9.1 1.1-2.8 2.7-5.3 4.7-7.5s4.5-3.9 7.2-5.1c2.9-1.3 6.1-1.9 9.3-1.9 1.9 0 3.8.2 5.6.5 1.6.3 3.1.8 4.6 1.4 1.4.6 2.6 1.3 3.8 2.2 1.2.9 2.3 1.8 3.3 2.9l-6.1 7.4c-1.6-1.5-3.3-2.8-5.2-3.8-1.9-.9-3.9-1.4-6-1.4-1.8 0-3.5.4-5.1 1.1-1.5.7-2.9 1.8-4.1 3.1-1.1 1.3-2 2.9-2.6 4.5-.6 1.8-1 3.6-.9 5.5v.1c0 1.9.3 3.8.9 5.5.6 1.7 1.5 3.2 2.6 4.6 1.1 1.3 2.5 2.3 4 3.1 1.6.8 3.4 1.2 5.2 1.1 2.2.1 4.4-.4 6.4-1.4 1.9-1.1 3.6-2.4 5.2-3.9l6.1 6.4c-1.2 1.4-2.3 2.5-3.6 3.5zM170.9 250.6V205H204v8.9h-23.5v9.2h20.7v8.9h-20.7v9.6h23.8v8.9l-33.4.1z"/></svg>