<svg xmlns="http://www.w3.org/2000/svg" viewBox="0 0 478.28 57.37"><path d="M1.26 56.47h24.5c3.01 0 5.82-.33 8.33-.99 2.56-.67 4.79-1.68 6.62-3 1.87-1.35 3.34-3.04 4.36-5.02 1.02-1.99 1.54-4.29 1.54-6.85 0-1.95-.28-3.71-.83-5.23-.56-1.54-1.37-2.89-2.41-4.02-1.01-1.1-2.23-2.06-3.62-2.85-.66-.38-1.36-.73-2.09-1.07.27-.19.53-.38.8-.58 1.02-.78 1.92-1.7 2.66-2.73.75-1.03 1.36-2.26 1.83-3.64.47-1.39.7-2.98.7-4.73 0-4.59-1.74-8.27-5.18-10.94C35.13 2.23 30.6.91 24.99.91H1.26C.57.91 0 1.48 0 2.17V55.2c0 .7.57 1.27 1.26 1.27m10.51-44.78h12.1c2.73 0 4.79.52 6.15 1.53 1.26.95 1.88 2.28 1.88 4.06 0 2.05-.7 3.51-2.15 4.47-1.6 1.05-3.8 1.58-6.56 1.58H11.77V11.69zm0 21.97h13.47c3.39 0 5.9.56 7.47 1.66 1.44 1.02 2.15 2.42 2.15 4.27 0 2-.71 3.45-2.17 4.45-1.59 1.09-3.87 1.64-6.77 1.64H11.77V33.66zm40.4 22.81h39.62c.7 0 1.26-.56 1.26-1.26V46.8c0-.7-.57-1.26-1.26-1.26H62.68V33.89h25.33c.7 0 1.26-.57 1.26-1.26v-8.41c0-.7-.57-1.26-1.26-1.26H62.68V11.85h28.74c.7 0 1.26-.57 1.26-1.26V2.17c0-.7-.57-1.26-1.26-1.26H52.17c-.7 0-1.26.57-1.26 1.26V55.2c0 .7.56 1.27 1.26 1.27m46.97 0h9.24c.7 0 1.26-.56 1.26-1.26V21.17l26.92 34.8c.24.31.61.49 1 .49h7.79c.7 0 1.26-.56 1.26-1.26V2.17c0-.7-.57-1.26-1.26-1.26h-9.24c-.7 0-1.26.57-1.26 1.26v32.97L108.76 1.4c-.24-.31-.61-.49-1-.49h-8.62c-.7 0-1.26.57-1.26 1.26V55.2c0 .7.56 1.27 1.26 1.27m60.5-7.39c2.5 2.56 5.5 4.6 8.93 6.07 3.43 1.48 7.21 2.22 11.26 2.22 2.54 0 4.91-.23 7.04-.67 2.14-.45 4.13-1.12 5.94-1.99 1.78-.87 3.47-1.9 5.02-3.09 1.54-1.18 3.04-2.54 4.44-4.05.46-.49.45-1.27-.03-1.75l-5.99-6.06c-.48-.49-1.26-.5-1.76-.04-2.18 2.04-4.41 3.67-6.63 4.85-2.13 1.13-4.73 1.71-7.74 1.71-2.33 0-4.51-.46-6.48-1.36-1.98-.91-3.72-2.17-5.16-3.76-1.45-1.59-2.59-3.48-3.39-5.61-.8-2.14-1.21-4.48-1.21-6.94s.4-4.78 1.2-6.9c.8-2.11 1.94-3.97 3.38-5.54 1.45-1.56 3.18-2.82 5.17-3.73 1.97-.9 4.15-1.36 6.48-1.36 2.81 0 5.35.57 7.53 1.68 2.26 1.15 4.43 2.69 6.46 4.57.25.23.58.35.93.34.34-.02.66-.18.88-.43l5.99-6.89c.44-.51.41-1.27-.08-1.74-1.3-1.24-2.69-2.4-4.16-3.45a27.26 27.26 0 0 0-4.85-2.74c-1.74-.76-3.68-1.37-5.75-1.78C185 .21 182.69 0 180.2 0c-4.19 0-8.09.76-11.56 2.26-3.47 1.5-6.51 3.58-9.04 6.19-2.53 2.61-4.52 5.69-5.91 9.16-1.39 3.47-2.1 7.22-2.1 11.15 0 3.99.72 7.77 2.14 11.24 1.42 3.47 3.41 6.52 5.91 9.08m47.68 7.39h9.24c.7 0 1.26-.56 1.26-1.26V34.12h22.93V55.2c0 .7.57 1.26 1.26 1.26h9.24c.7 0 1.26-.56 1.26-1.26V2.17c0-.7-.57-1.26-1.26-1.26h-9.24c-.7 0-1.26.57-1.26 1.26v20.78h-22.93V2.17c0-.7-.57-1.26-1.26-1.26h-9.24c-.7 0-1.26.57-1.26 1.26V55.2c0 .7.56 1.27 1.26 1.27m53.79 0h9.24c.7 0 1.26-.56 1.26-1.26V21.49l14.28 21.38c.23.35.63.56 1.05.56h.3c.42 0 .81-.21 1.05-.56l14.43-21.55V55.2c0 .7.57 1.26 1.26 1.26h9.24c.7 0 1.26-.56 1.26-1.26V2.17c0-.7-.57-1.26-1.26-1.26h-9.92c-.43 0-.83.22-1.06.58l-15.08 23.43L272.1 1.49c-.23-.36-.63-.58-1.06-.58h-9.92c-.7 0-1.26.57-1.26 1.26V55.2c-.01.7.55 1.27 1.25 1.27m57.42 0h9.54c.51 0 .96-.3 1.16-.77l5.13-12.04h23.4l5.05 12.03c.2.47.65.77 1.17.77h9.85c.43 0 .82-.22 1.06-.57.23-.36.27-.81.1-1.2l-23.33-53.4c-.2-.46-.66-.76-1.16-.76h-8.64c-.5 0-.96.3-1.16.76L317.38 54.7c-.17.39-.13.84.1 1.2.23.35.63.57 1.05.57m27.51-40.35 7.24 16.76h-14.42l7.18-16.76zm33.1 40.35h9.24c.7 0 1.26-.57 1.26-1.26V37.98h9.79l12.69 17.95c.24.34.62.53 1.03.53h10.98c.47 0 .91-.26 1.12-.68.21-.42.18-.92-.09-1.31l-13.31-18.66c1.33-.47 2.58-1.06 3.73-1.76 1.65-1 3.1-2.24 4.3-3.68 1.2-1.44 2.15-3.13 2.83-5 .68-1.87 1.02-4.02 1.02-6.38 0-2.74-.49-5.27-1.47-7.51-.98-2.26-2.41-4.2-4.24-5.76-1.81-1.54-4.05-2.74-6.64-3.58-2.57-.82-5.46-1.23-8.6-1.23h-23.64c-.7 0-1.26.56-1.26 1.26V55.2c0 .7.56 1.27 1.26 1.27m10.51-44.62h12.34c3.19 0 5.67.67 7.36 1.98 1.61 1.26 2.4 3.11 2.4 5.66 0 2.36-.82 4.18-2.5 5.57-1.73 1.42-4.15 2.14-7.18 2.14h-12.42V11.85zm83.65 42.64c0 .12-.1.21-.21.21h-.46c-.12 0-.21-.09-.21-.21v-2.6l-1.09 1.6c-.04.06-.1.09-.17.09h-.02c-.07 0-.13-.03-.17-.09l-1.09-1.6v2.59c0 .12-.09.21-.21.21h-.45c-.12 0-.21-.09-.21-.21v-4.04c0-.12.09-.21.21-.21h.46c.07 0 .14.03.18.09l1.3 1.95 1.3-1.95c.04-.06.11-.09.18-.09h.46c.11 0 .21.1.21.21v4.05zm-4.45-3.63c0 .12-.1.21-.21.21h-1.15v3.41c0 .12-.09.21-.21.21h-.46c-.12 0-.21-.09-.21-.21v-3.41h-1.15c-.12 0-.21-.1-.21-.21v-.42c0-.12.1-.21.21-.21h3.17c.11 0 .21.1.21.21v.42zm9.17 3.58-22.37-29.36 21.29-22.02c.35-.36.45-.9.26-1.37-.2-.47-.66-.77-1.16-.77H464.6c-.35 0-.68.14-.92.4l-23.05 24.36V2.17c0-.7-.56-1.26-1.26-1.26h-9.24c-.7 0-1.26.57-1.26 1.26V55.2c0 .7.56 1.26 1.26 1.26h9.24c.7 0 1.26-.56 1.26-1.26V40.34l6.88-7.06 17.22 22.7c.24.31.61.5 1.01.5h11.29c.48 0 .92-.27 1.13-.7.2-.45.15-.96-.14-1.34"/></svg>