<svg xmlns="http://www.w3.org/2000/svg" viewBox="0 0 219.3 219.3"><path d="M198 0H21.3C9.6 0 0 9.6 0 21.3V198c0 11.7 9.6 21.3 21.3 21.3H198c11.8 0 21.3-9.6 21.3-21.3V21.3C219.3 9.6 209.7 0 198 0zm16.3 198c0 9-7.3 16.3-16.3 16.3H21.3C12.3 214.3 5 207 5 198V21.3C5 12.3 12.3 5 21.3 5H198c9 0 16.3 7.3 16.3 16.3V198z"/><path d="M75.1 151.8h3c.2 0 .4-.2.4-.4V134c0-.2-.2-.4-.4-.4h-3.3c-.1 0-.2.1-.3.2l-5 7.8-5-7.8c-.1-.1-.2-.2-.3-.2h-3.3c-.2 0-.4.2-.4.4v17.4c0 .2.2.4.4.4h3c.2 0 .4-.2.4-.4v-11.3l4.8 7.2c.1.1.2.2.3.2h.1c.1 0 .2-.1.3-.2l4.8-7.2v11.3c.2.2.3.4.5.4zm10.4-.3c.9.3 1.8.5 2.8.5 1.3 0 2.4-.2 3.3-.7.9-.5 1.7-1.1 2.4-1.9.1-.1.1-.4 0-.5l-1.8-1.6c-.1-.1-.4-.1-.5 0-.5.5-1 .9-1.5 1.1-.5.2-1.1.4-1.8.4-.9 0-1.6-.3-2.3-.8-.5-.4-.9-1.1-1.1-1.8h9.2c.2 0 .3-.2.4-.4v-.8c0-1-.1-1.9-.4-2.8-.3-.9-.7-1.7-1.2-2.4-.6-.7-1.3-1.2-2.1-1.6-.8-.4-1.8-.6-2.9-.6-1 0-1.9.2-2.7.6-.8.4-1.5.9-2.1 1.6-.6.7-1.1 1.4-1.4 2.3-.3.9-.5 1.8-.5 2.8 0 1.1.2 2.1.6 2.9.4.9.9 1.6 1.5 2.3.5.6 1.3 1.1 2.1 1.4zm.4-9.8c.5-.6 1.2-.8 2-.8.4 0 .8.1 1.2.2l.9.6c.2.3.5.6.6 1 .1.3.2.6.2.9H85c.1-.8.5-1.4.9-1.9zm23.3 9.7V144c0-1 .2-1.7.7-2.2.5-.5 1-.7 1.8-.7.7 0 1.3.2 1.7.7.4.5.6 1.2.6 2.2v7.4c0 .2.2.4.4.4h3c.2 0 .4-.2.4-.4V143c0-1.7-.4-3-1.3-4-.9-.9-2.1-1.4-3.6-1.4-1.1 0-2 .2-2.8.7-.6.4-1.2.8-1.6 1.4-.4-.5-.8-1-1.4-1.4-.7-.5-1.6-.7-2.6-.7-.5 0-1 .1-1.5.2-.4.1-.8.3-1.2.6-.4.2-.7.5-.9.8l-.1.1v-1c0-.2-.2-.4-.4-.4h-3c-.2 0-.4.2-.4.4v13.1c0 .2.2.4.4.4h3c.2 0 .4-.2.4-.4V144c0-.9.2-1.7.7-2.2.4-.5 1-.7 1.8-.7.7 0 1.3.2 1.7.7.4.5.6 1.2.6 2.1v7.5c0 .2.2.4.4.4h3s.2-.2.2-.4zm18 .7c1 0 2-.2 2.9-.6.9-.4 1.7-.9 2.3-1.6.6-.6 1.2-1.4 1.5-2.3.4-.9.6-1.8.6-2.8 0-1-.2-1.9-.6-2.8-.4-.9-.9-1.6-1.5-2.3-.7-.6-1.4-1.2-2.3-1.5-1.8-.7-4.1-.7-5.9 0-.9.4-1.7.9-2.3 1.6-.7.7-1.2 1.4-1.5 2.3-.4.9-.6 1.8-.6 2.8 0 1 .2 1.9.6 2.8.4.9.9 1.6 1.5 2.3.6.6 1.4 1.2 2.3 1.5.9.4 1.9.6 3 .6zm-3.6-7.3c0-.5.1-1 .2-1.5.2-.5.4-.9.7-1.2.3-.3.7-.6 1.1-.8.4-.2.9-.3 1.5-.3s1 .1 1.5.3c.4.2.8.5 1.1.8.3.4.6.8.8 1.2.2.5.3 1 .3 1.5s-.1 1-.3 1.5c-.2.5-.4.9-.7 1.2-.3.3-.7.6-1.1.8-.9.4-2 .4-2.9 0-.4-.2-.8-.5-1.2-.8-.3-.4-.6-.8-.8-1.2-.1-.4-.2-.9-.2-1.5zm16.7-6.9h-3c-.2 0-.4.2-.4.4v13.1c0 .2.2.4.4.4h3c.2 0 .4-.2.4-.4v-5c0-.8.1-1.5.3-2.2.2-.6.5-1.1.8-1.5.4-.4.8-.7 1.3-.9.5-.2 1.1-.3 1.7-.3h.2c.2 0 .4-.2.4-.4V138c0-.2-.1-.3-.3-.4-1.2 0-2.3.2-3.1.9-.5.4-.9.8-1.2 1.3v-1.6c-.2-.1-.3-.3-.5-.3zm14.6 14 5.2-13.5v-.3c-.1-.1-.2-.2-.3-.2h-3.1c-.2 0-.3.1-.3.2l-3.1 8.8-3.4-8.8c-.1-.1-.2-.2-.3-.2h-3.2c-.1 0-.2.1-.3.2-.1.1-.1.2 0 .3l5.4 13c-.2.5-.4.8-.6.9-.4.3-1.1.3-1.7.1-.3-.1-.6-.2-.8-.3h-.3c-.1 0-.2.1-.2.2l-1 2.3c-.1.2 0 .4.2.5.5.3 1 .5 1.5.6.5.1 1.1.2 1.8.2.6 0 1.1-.1 1.5-.2.5-.1.9-.4 1.3-.7.4-.3.7-.7 1-1.2.1-.6.4-1.2.7-1.9zm-86.3 17.8c-.5-.7-1.2-1.2-2.1-1.6-.8-.4-1.8-.6-2.9-.6-1 0-1.9.2-2.7.6-.8.4-1.5.9-2.1 1.6-.6.6-1.1 1.4-1.4 2.3-.3.9-.5 1.8-.5 2.8 0 1.1.2 2.1.6 2.9.4.9.9 1.6 1.5 2.3.6.6 1.4 1.1 2.3 1.5.9.3 1.8.5 2.8.5 1.3 0 2.4-.2 3.3-.7.9-.5 1.7-1.1 2.4-1.9.1-.1.1-.4 0-.5l-1.8-1.6c-.1-.1-.4-.1-.5 0-.5.5-1 .9-1.5 1.1-.5.2-1.1.4-1.8.4-.9 0-1.6-.3-2.3-.8-.5-.4-.9-1.1-1.1-1.8H70c.2 0 .3-.1.4-.3v-.8c0-1-.1-1.9-.4-2.8-.4-1.1-.8-1.9-1.4-2.6zm-8 3.7c.2-.8.5-1.4.9-1.9.5-.6 1.2-.8 2-.8.4 0 .8.1 1.2.2.3.2.6.4.9.7.3.3.5.6.6 1 .1.3.2.6.2.9h-5.8zm19.2-1.6h-7.4c-.2 0-.4.2-.4.4v3c0 .2.2.4.4.4h7.4c.2 0 .4-.2.4-.4v-3c0-.3-.2-.4-.4-.4zm16.6-8.3h-13c-.2 0-.4.2-.4.4v17.4c0 .2.2.4.4.4h3c.2 0 .4-.2.4-.4v-6.7h8.4c.2 0 .4-.2.4-.4v-2.8c0-.2-.2-.4-.4-.4h-8.4v-4.1h9.5c.2 0 .4-.2.4-.4v-2.8c0-.1-.2-.2-.3-.2zm6.3-.6h-3.3c-.2 0-.4.2-.4.4v2.9c0 .2.2.4.4.4h3.3c.2 0 .4-.2.4-.4v-2.9c-.1-.3-.2-.4-.4-.4zm-.1 4.8h-3c-.2 0-.4.2-.4.4v13.1c0 .2.2.4.4.4h3c.2 0 .4-.2.4-.4v-13.1c-.1-.2-.2-.4-.4-.4zm15.8 1.7c-.6-.6-1.3-1.1-2.1-1.4-.8-.3-1.6-.5-2.4-.5-1.1 0-2.1.3-2.8.8-.5.3-.9.6-1.2 1v-6.2c0-.2-.2-.4-.4-.4h-3c-.2 0-.4.2-.4.4v18.1c0 .2.2.4.4.4h3c.1 0 .2 0 .3-.1.1-.1.1-.2.1-.3v-1.1c.4.3.8.7 1.2 1 .8.5 1.7.8 2.9.8.8 0 1.6-.2 2.4-.5.8-.3 1.5-.8 2.1-1.4.6-.6 1.1-1.4 1.4-2.3.4-.9.5-1.9.5-3s-.2-2.2-.5-3c-.4-1-.9-1.7-1.5-2.3zm-2 6.9c-.2.5-.4.9-.7 1.2-.3.3-.7.6-1.1.8-.8.4-1.8.4-2.6 0-.4-.2-.8-.4-1.1-.8-.3-.3-.6-.7-.8-1.2-.2-.5-.3-1-.3-1.6 0-.6.1-1.1.3-1.6.2-.5.4-.9.8-1.2.3-.3.7-.6 1.1-.8.4-.2.9-.3 1.3-.3s.9.1 1.3.3c.4.2.8.4 1.1.8.3.3.6.7.7 1.2.2.5.3 1 .3 1.6 0 .6-.1 1.1-.3 1.6zm14.4-8.8c-1.3 0-2.3.2-3.1.9-.5.4-.8.8-1.2 1.3v-1.6c0-.2-.2-.4-.4-.4h-3c-.2 0-.4.2-.4.4v13.1c0 .2.2.4.4.4h3c.2 0 .4-.2.4-.4v-5c0-.8.1-1.6.3-2.2.2-.6.5-1.1.8-1.5.4-.4.8-.7 1.3-.9.5-.2 1.1-.3 1.7-.3h.2c.2 0 .4-.2.4-.4v-3.2s-.2-.2-.4-.2zm12.8 2.2c-.5-.7-1.2-1.2-2.1-1.6-.8-.4-1.8-.6-2.9-.6-1 0-1.9.2-2.7.6-.8.4-1.5.9-2.1 1.6-.6.6-1.1 1.4-1.4 2.3-.3.9-.5 1.8-.5 2.8 0 1.1.2 2.1.6 2.9.4.9.9 1.6 1.5 2.3.6.6 1.4 1.1 2.3 1.5.9.3 1.8.5 2.8.5 1.3 0 2.4-.2 3.3-.7.9-.5 1.7-1.1 2.4-1.9.1-.1.1-.4 0-.5l-1.8-1.6c-.1-.1-.4-.1-.5 0-.5.5-1 .9-1.5 1.1-.5.2-1.1.4-1.8.4-.9 0-1.6-.3-2.3-.8-.5-.4-.9-1.1-1.1-1.8h9.2c.2 0 .3-.1.4-.3v-.8c0-1-.1-1.9-.4-2.8-.4-1.1-.8-1.9-1.4-2.6zm-8 3.7c.2-.8.5-1.4.9-1.9.5-.6 1.2-.8 2-.8.4 0 .8.1 1.2.2.3.2.6.4.9.7.3.3.5.6.6 1 .1.3.2.6.2.9h-5.8zm17.3-9.9h-6.2c-.2 0-.4.2-.4.4v1.3c0 .2.2.4.4.4h2v6c0 .2.2.4.4.4h1.5c.2 0 .4-.2.4-.4v-6h2c.2 0 .4-.2.4-.4v-1.3c-.1-.3-.3-.4-.5-.4zm9.4 0h-1.5c-.1 0-.2.1-.3.2l-2 3.2-2-3.2c-.1-.1-.2-.2-.3-.2h-1.6c-.2 0-.4.2-.4.4v7.7c0 .2.2.4.4.4h1.4c.2 0 .4-.2.4-.4v-4.2l1.7 2.7c.1.1.2.2.3.2h.1c.1 0 .2-.1.3-.2l1.7-2.7v4.2c0 .2.2.4.4.4h1.4c.2 0 .4-.2.4-.4v-7.7c-.1-.3-.2-.4-.4-.4zM64.1 89h.4c.4 0 .9-.2 1.1-.6l18-26.8v42c0 .7.6 1.3 1.3 1.3h11.3c.7 0 1.3-.6 1.3-1.3V38.9c0-.7-.6-1.3-1.3-1.3H84.1c-.5 0-.9.2-1.1.6L64.4 67 45.9 38.2c-.2-.4-.7-.6-1.1-.6H32.6c-.7 0-1.3.6-1.3 1.3v64.6c0 .7.6 1.3 1.3 1.3h11.3c.7 0 1.3-.6 1.3-1.3V61.8L63 88.4c.3.4.7.6 1.1.6zm51 9.6c2.4 2.3 5.2 4.2 8.4 5.5 3.2 1.3 6.7 1.9 10.3 1.9 4.7 0 8.8-.9 12.2-2.6 3.4-1.7 6.3-4.1 8.8-7 .5-.6.4-1.4-.1-1.9l-6.6-5.8c-.5-.5-1.3-.4-1.8 0-1.9 1.8-3.8 3.2-5.7 4.1-1.8.9-4.1 1.3-6.6 1.3-3.3 0-6.1-.9-8.4-2.9-1.9-1.6-3.3-3.9-4-6.8h34.2c.7 0 1.2-.5 1.3-1.2.1-.6.1-1.1.1-1.6V80c0-3.6-.5-7.1-1.5-10.5-1-3.3-2.6-6.3-4.6-8.8-2.1-2.5-4.7-4.6-7.7-6.1-3.1-1.5-6.7-2.3-10.8-2.3-3.7 0-7.1.7-10.2 2.2-3 1.4-5.7 3.4-7.9 5.8s-4 5.3-5.2 8.5c-1.2 3.2-1.8 6.7-1.8 10.3 0 4 .7 7.6 2 10.9 1.4 3.4 3.3 6.2 5.6 8.6zm9.9-31.2c2-2.1 4.5-3.1 7.6-3.1 1.6 0 3.1.3 4.4.9 1.3.6 2.4 1.4 3.3 2.4.9 1 1.7 2.3 2.2 3.6.4 1 .7 2.1.9 3.2h-21.9c.5-2.8 1.7-5.2 3.5-7zm69.2-31.8c-1.3-.4-2.7-.7-4.1-1-1.5-.3-3.3-.4-5.3-.4-5.2 0-9.2 1.5-12.1 4.3-2.8 2.9-4.3 7.2-4.3 13v2.2h-4.9c-.7 0-1.3.6-1.3 1.3v9.3c0 .7.6 1.3 1.3 1.3h4.9v37.8c0 .7.6 1.3 1.3 1.3H181c.7 0 1.3-.6 1.3-1.3V65.7h11.4c.7 0 1.3-.6 1.3-1.3v-9.2c0-.7-.6-1.3-1.3-1.3h-11.6v-1.3c0-5.4 2.7-6.1 5.1-6.1 1.1 0 2.2.1 3.1.3 1 .2 2 .5 3 .8.4.1.9.1 1.2-.2.4-.2.6-.7.6-1.1v-9.4c.1-.6-.3-1.1-.9-1.3z"/></svg>