<svg xmlns="http://www.w3.org/2000/svg" viewBox="0 0 59.8 55.4"><path d="M57.6 25.6H20.3c-2.1.4-3.6 1.3-4.6 2.8-1.4 2.2-1.2 4.8-1.1 5.3.4 1.5 2.1 5.1 6.2 5.1.4 0 .8 0 1.2-.1 5.4-.9 5.4-6.5 5.4-6.6 0-.2-.2-.4-.4-.4h-3c-.2 0-.4.2-.4.4-.1 2.5-1.7 2.8-2.8 2.9h-.2c-.2 0-1.2-.2-1.9-.9-.5-.6-.8-1.3-.7-2.2.2-2.6 2.5-2.6 2.6-2.6h38.3v-3.7h-1.3zm1.5-2.1V8.3C59.1 4 55.6.5 51.3.5h-43C4 .5.6 4 .6 8.3V47c0 4.3 3.5 7.8 7.7 7.8h43c4.3 0 7.8-3.5 7.8-7.8V31.9H37.8c-2.1.4-3.6 1.3-4.6 2.8-1.4 2.2-1.2 4.8-1.1 5.3.4 1.5 2.1 5.1 6.2 5.1.4 0 .8 0 1.2-.1 5.4-.9 5.4-6.5 5.4-6.6 0-.2-.2-.4-.4-.4h-3c-.2 0-.4.2-.4.4-.1 2.5-1.7 2.8-2.8 2.9h-.2c-.2 0-1.2-.2-1.9-.9-.5-.6-.8-1.3-.7-2.2.2-2.6 2.5-2.6 2.6-2.6h19.3v11.5c0 3.4-2.8 6.2-6.2 6.2h-43c-3.4 0-6.2-2.8-6.2-6.2V8.3c0-3.4 2.8-6.2 6.2-6.2h43c3.4 0 6.2 2.8 6.2 6.2v11.5H31.8c-.1 0-2.4-.1-2.6-2.6-.1-.9.2-1.6.7-2.2.7-.7 1.6-.9 1.8-.9h.2c1.1.1 2.7.4 2.8 2.9 0 .2.2.4.4.4h3c.2 0 .4-.2.4-.4 0-.1 0-5.7-5.4-6.6-5-.8-7 3.3-7.4 5-.1.6-.3 3.2 1.1 5.3 1 1.5 2.5 2.4 4.7 2.8h27.6z"/></svg>