<svg xmlns="http://www.w3.org/2000/svg" viewBox="0 0 233.16 188.08"><path d="M9.38 142.9c.38-.11.7-.38.88-.74.19-.36.22-.78.11-1.16l-1.76-5.83h33.86c.81 0 1.48-.68 1.48-1.51V129c0-.84-.66-1.51-1.48-1.51H1.88c-.82 0-1.48.68-1.48 1.51v3.47c0 .17.03.34.08.49l3.4 10.1c.26.77 1.06 1.19 1.82.96l3.68-1.12zm12.88-26.86c-2.08 0-4.08-.28-5.96-.83-1.85-.54-3.48-1.31-4.86-2.29-1.33-.95-2.41-2.12-3.2-3.48-.77-1.33-1.14-2.78-1.14-4.45 0-1.66.38-3.11 1.17-4.44.81-1.37 1.91-2.55 3.27-3.52 1.39-1 3.04-1.78 4.89-2.32 1.87-.55 3.88-.83 5.95-.83 2.08 0 4.09.27 5.97.8 1.84.52 3.48 1.28 4.85 2.26 1.33.95 2.41 2.12 3.2 3.48.77 1.33 1.15 2.78 1.15 4.45 0 1.67-.38 3.14-1.15 4.49-.78 1.37-1.87 2.56-3.23 3.54-1.39 1-3.04 1.78-4.91 2.32-1.9.54-3.92.82-6 .82m15.68 2.86a18 18 0 0 0 4.89-5.98c1.2-2.35 1.81-5.01 1.81-7.93 0-2.88-.62-5.54-1.84-7.9-1.2-2.34-2.86-4.36-4.92-6.01-2.03-1.62-4.42-2.88-7.11-3.76-2.66-.87-5.52-1.31-8.51-1.31-2.98 0-5.83.43-8.47 1.28-2.67.86-5.06 2.11-7.09 3.73C4.65 92.66 3 94.67 1.81 97 .61 99.36 0 102 0 104.87c0 2.91.62 5.59 1.84 7.96 1.21 2.35 2.87 4.37 4.92 6 2.02 1.62 4.42 2.88 7.11 3.76 2.67.87 5.53 1.31 8.51 1.31 2.98 0 5.83-.43 8.48-1.28 2.66-.85 5.04-2.1 7.08-3.72M22.26 76.81c-2.08 0-4.08-.28-5.96-.83-1.85-.54-3.48-1.31-4.86-2.29-1.33-.95-2.41-2.12-3.2-3.48-.77-1.33-1.14-2.78-1.14-4.45 0-1.66.38-3.11 1.17-4.44.81-1.37 1.91-2.55 3.27-3.52 1.39-1 3.04-1.78 4.89-2.32 1.87-.55 3.88-.83 5.95-.83 2.08 0 4.09.27 5.97.8 1.84.52 3.48 1.29 4.85 2.26 1.33.95 2.41 2.12 3.2 3.48.77 1.33 1.15 2.78 1.15 4.45 0 1.67-.38 3.14-1.15 4.49-.78 1.37-1.87 2.56-3.23 3.54-1.39 1-3.05 1.78-4.91 2.32-1.9.54-3.92.82-6 .82m15.68 2.86a18 18 0 0 0 4.89-5.98c1.2-2.35 1.81-5.01 1.81-7.93 0-2.88-.62-5.54-1.84-7.9-1.2-2.34-2.86-4.36-4.92-6-2.03-1.62-4.42-2.88-7.11-3.76-2.66-.87-5.52-1.31-8.51-1.31-2.98 0-5.83.43-8.47 1.28-2.67.86-5.06 2.11-7.09 3.73-2.06 1.64-3.7 3.65-4.9 5.98-1.2 2.35-1.81 5-1.81 7.87 0 2.91.62 5.59 1.84 7.96 1.21 2.35 2.87 4.37 4.92 6 2.02 1.62 4.42 2.88 7.11 3.76 2.67.87 5.53 1.31 8.51 1.31 2.98 0 5.83-.43 8.48-1.28 2.67-.86 5.05-2.11 7.09-3.73M32.68 6.92c.85 0 1.64.11 2.34.32.68.21 1.28.5 1.77.87.46.35.83.75 1.08 1.21.45.81.49 1.97 0 2.86-.26.47-.64.91-1.13 1.3-.49.39-1.08.7-1.77.92-.73.23-1.51.34-2.41.34-.82 0-1.6-.11-2.32-.32-.69-.2-1.29-.49-1.78-.86-.46-.34-.82-.75-1.08-1.23-.24-.44-.36-.91-.36-1.44 0-.49.12-.94.36-1.38.27-.5.64-.93 1.13-1.32.5-.4 1.07-.7 1.77-.92.71-.23 1.52-.35 2.4-.35m-11.84 3.86c0 1.64.33 3.15.99 4.51.65 1.32 1.53 2.48 2.65 3.43 1.09.94 2.36 1.67 3.77 2.19 1.4.51 2.89.76 4.44.76 1.55 0 3.03-.26 4.42-.77 1.38-.51 2.63-1.24 3.7-2.15a10.58 10.58 0 0 0 2.62-3.4c.66-1.35.99-2.84.99-4.45 0-1.65-.33-3.17-.99-4.53-.65-1.35-1.54-2.51-2.66-3.45C39.66 1.99 38.4 1.27 37 .77 35.6.26 34.11 0 32.56 0c-1.54 0-3.01.25-4.39.73-1.4.5-2.65 1.21-3.72 2.13a10.48 10.48 0 0 0-2.62 3.41c-.66 1.35-.99 2.87-.99 4.51m22.3 30.84c.5-.26.81-.78.81-1.35v-4.25c0-.48-.22-.94-.6-1.22L3.04 4.54C2.59 4.2 2 4.16 1.5 4.41c-.5.26-.81.78-.81 1.35v4.19c0 .48.22.93.6 1.22l40.3 30.32c.45.34 1.05.39 1.55.13m-25.88-7.98c.48.88.49 1.99.01 2.84-.26.47-.64.91-1.13 1.3-.49.39-1.08.7-1.77.92-.73.23-1.52.35-2.42.35-.82 0-1.6-.11-2.32-.32-.7-.21-1.29-.49-1.79-.86-.47-.35-.82-.75-1.08-1.21-.24-.42-.35-.9-.35-1.46 0-.49.12-.94.36-1.38.27-.49.63-.91 1.09-1.27.52-.4 1.12-.71 1.83-.95s1.51-.37 2.38-.37c.85 0 1.64.11 2.34.32.68.21 1.28.5 1.77.87.46.33.82.74 1.08 1.22m2.93 9.47a10.58 10.58 0 0 0 2.62-3.4c.66-1.34.99-2.86.99-4.51s-.33-3.17-.99-4.51c-.65-1.33-1.54-2.48-2.64-3.43-1.09-.93-2.35-1.67-3.77-2.18-1.4-.51-2.9-.77-4.44-.77-1.54 0-3.03.26-4.41.77-1.39.52-2.64 1.24-3.7 2.15-1.09.94-1.98 2.08-2.63 3.41-.66 1.35-.99 2.85-.99 4.45 0 1.64.33 3.16.99 4.53.65 1.35 1.54 2.51 2.65 3.47 1.09.94 2.36 1.67 3.76 2.18 1.4.51 2.89.77 4.44.77 1.55 0 3.03-.26 4.41-.77 1.39-.51 2.63-1.24 3.71-2.16m10.5 116.94c-1.16 0-2.22.14-3.18.43-.95.28-1.82.68-2.59 1.18-.76.5-1.45 1.09-2.06 1.76-.2.22-.39.44-.57.67-.64-.92-1.44-1.73-2.37-2.42-1.46-1.07-3.31-1.62-5.49-1.62-1.14 0-2.16.15-3.04.44-.87.29-1.67.68-2.38 1.16-.47.32-.91.69-1.31 1.09v-1.06c0-.61-.48-1.1-1.08-1.1h-3.6c-.6 0-1.08.49-1.08 1.1v24.72c0 .61.48 1.1 1.08 1.1h3.6c.6 0 1.08-.49 1.08-1.1v-14.1c0-1.01.15-1.94.44-2.75.3-.81.71-1.52 1.22-2.12.51-.59 1.09-1.04 1.77-1.36a5.18 5.18 0 0 1 2.21-.47c1.62 0 2.84.51 3.75 1.56.92 1.08 1.39 2.66 1.39 4.7v14.53c0 .61.48 1.1 1.08 1.1h3.55c.6 0 1.08-.49 1.08-1.1v-14.25c0-1.07.16-2.03.47-2.85.31-.82.72-1.5 1.22-2.05.5-.54 1.09-.95 1.75-1.22.68-.28 1.41-.42 2.17-.42 1.65 0 2.89.51 3.79 1.56.92 1.08 1.39 2.69 1.39 4.79v14.44c0 .61.48 1.1 1.08 1.1h3.6c.6 0 1.08-.49 1.08-1.1v-15.3c0-3.36-.9-6.07-2.67-8.04-1.79-1.99-4.28-3-7.38-3m27.87 21.2c-.63.51-1.38.91-2.24 1.21-.86.29-1.81.44-2.8.44-.7 0-1.37-.1-2-.29-.6-.18-1.14-.45-1.59-.8-.44-.34-.78-.73-1.03-1.21-.24-.44-.35-.96-.35-1.57 0-1.25.44-2.17 1.38-2.89 1.01-.77 2.55-1.17 4.57-1.17 1.42 0 2.69.11 3.78.32.8.15 1.54.32 2.22.49v1.54c0 .81-.16 1.53-.5 2.19-.35.66-.83 1.25-1.44 1.74m-3.85-21.01c-1.86 0-3.54.2-4.99.59-1.43.38-2.86.91-4.25 1.57-.51.24-.75.84-.56 1.38l1.07 3.01c.1.29.32.53.6.64.28.12.6.11.87-.02 1.07-.51 2.17-.93 3.27-1.25 1.07-.31 2.28-.46 3.61-.46 1.99 0 3.54.48 4.59 1.42.92.83 1.42 2.02 1.51 3.65-.69-.16-1.39-.31-2.1-.42-1.2-.2-2.63-.3-4.24-.3-1.61 0-3.12.19-4.47.57-1.38.38-2.6.95-3.61 1.7a7.849 7.849 0 0 0-2.46 2.91c-.57 1.15-.86 2.49-.86 3.96 0 1.49.3 2.81.9 3.93a8.629 8.629 0 0 0 2.36 2.77c.96.73 2.05 1.28 3.24 1.63 1.17.35 2.38.52 3.6.52 2.33 0 4.32-.49 5.9-1.44.64-.39 1.22-.8 1.76-1.24v1.06c0 .61.48 1.1 1.08 1.1h3.46c.6 0 1.08-.49 1.08-1.1v-15.11c0-3.59-1.01-6.36-3.01-8.25-1.98-1.87-4.78-2.82-8.35-2.82m28.36.34h-6.59v-6.35c0-.61-.48-1.1-1.08-1.1h-3.6c-.6 0-1.08.49-1.08 1.1v6.35h-2.29c-.6 0-1.08.49-1.08 1.1v3.25c0 .61.48 1.1 1.08 1.1h2.29v13.81c0 1.38.2 2.59.59 3.61.4 1.05.98 1.92 1.71 2.59.73.67 1.6 1.16 2.59 1.46.94.28 1.95.43 3.02.43.95 0 1.83-.1 2.61-.29.79-.2 1.55-.5 2.25-.89.34-.19.56-.56.56-.97v-3.16c0-.38-.19-.74-.51-.94-.32-.2-.72-.22-1.05-.05-.54.28-1.05.47-1.51.58-.47.11-.97.16-1.51.16-.97 0-1.72-.22-2.27-.67-.47-.38-.71-1.17-.71-2.34v-13.33h6.59c.6 0 1.08-.49 1.08-1.1v-3.25c-.01-.61-.49-1.1-1.09-1.1m17.01 0H93.5v-6.35c0-.61-.48-1.1-1.08-1.1h-3.6c-.6 0-1.08.49-1.08 1.1v6.35h-2.29c-.6 0-1.08.49-1.08 1.1v3.25c0 .61.48 1.1 1.08 1.1h2.29v13.81c0 1.38.2 2.59.59 3.61.4 1.05.98 1.92 1.71 2.59.73.67 1.6 1.16 2.59 1.46.94.28 1.95.43 3.02.43.95 0 1.83-.1 2.62-.29.79-.2 1.55-.5 2.25-.89.34-.19.56-.56.56-.97v-3.16c0-.38-.19-.74-.51-.94-.32-.2-.72-.22-1.05-.05-.54.28-1.05.47-1.51.58-.47.11-.97.16-1.51.16-.97 0-1.72-.22-2.27-.67-.47-.38-.71-1.17-.71-2.34v-13.33h6.59c.6 0 1.08-.49 1.08-1.1v-3.25c-.03-.61-.51-1.1-1.11-1.1m19.03 4.64v-3.97c0-.6-.47-1.09-1.05-1.1-1.27-.04-2.47.13-3.57.48-1.1.35-2.14.88-3.07 1.57-.8.59-1.52 1.28-2.17 2.07v-2.58c0-.61-.48-1.1-1.08-1.1h-3.6c-.6 0-1.08.5-1.08 1.1v24.72c0 .61.48 1.1 1.08 1.1h3.6c.6 0 1.08-.49 1.08-1.1v-9.85c0-1.71.23-3.24.68-4.53.45-1.27 1.06-2.34 1.83-3.18.76-.83 1.66-1.46 2.67-1.88a8.8 8.8 0 0 1 3.32-.64h.28c.59-.01 1.08-.5 1.08-1.11m11.49.15c1.03 0 1.94.19 2.7.58.78.39 1.44.92 1.98 1.57.55.66.98 1.44 1.29 2.33.19.56.35 1.13.46 1.73h-12.97c.14-.64.32-1.24.56-1.8.38-.9.88-1.69 1.47-2.34.58-.64 1.27-1.16 2.04-1.52.76-.38 1.57-.55 2.47-.55m9.24-1.1a11.683 11.683 0 0 0-3.91-3.08c-1.54-.75-3.3-1.14-5.23-1.14-1.83 0-3.55.37-5.1 1.11-1.54.73-2.89 1.74-4.02 3.01-1.12 1.26-2 2.77-2.62 4.46-.62 1.69-.93 3.52-.93 5.43 0 2.05.35 3.96 1.05 5.68.7 1.72 1.66 3.22 2.85 4.44 1.19 1.23 2.6 2.2 4.19 2.87 1.59.68 3.3 1.02 5.09 1.02 2.47 0 4.59-.47 6.3-1.4 1.67-.9 3.17-2.12 4.46-3.61.39-.45.35-1.15-.09-1.55l-2.24-2.06c-.43-.4-1.09-.37-1.49.05-.91.96-1.93 1.74-3.02 2.32-1.04.55-2.33.83-3.83.83-.93 0-1.82-.16-2.66-.48a7.08 7.08 0 0 1-2.27-1.41 7.45 7.45 0 0 1-1.67-2.3c-.29-.59-.5-1.25-.65-1.97h17.86c.54 0 .99-.4 1.07-.95.04-.28.06-.54.06-.78v-.53c0-1.92-.27-3.75-.8-5.45-.55-1.7-1.35-3.22-2.4-4.51m21.29 9.42c-.82-.59-1.74-1.09-2.75-1.47-.94-.36-1.9-.69-2.84-.98-.8-.25-1.57-.5-2.31-.76-.69-.23-1.3-.5-1.82-.79-.45-.25-.8-.53-1.05-.85-.18-.23-.27-.49-.27-.81v-.1c0-.68.27-1.22.86-1.69.64-.52 1.56-.79 2.74-.79 1.06 0 2.16.2 3.27.58 1.14.4 2.25.95 3.3 1.63.24.16.54.21.83.15.28-.07.53-.25.68-.5l1.64-2.77c.3-.51.15-1.17-.34-1.5-1.32-.88-2.81-1.59-4.42-2.11-2.94-.95-5.99-1.06-8.48-.24-1.14.38-2.14.93-2.97 1.64-.85.72-1.52 1.61-1.99 2.62-.47 1.02-.71 2.15-.71 3.36v.1c0 1.36.3 2.53.9 3.47.56.89 1.3 1.65 2.18 2.24.83.56 1.78 1.02 2.81 1.39.96.34 1.93.66 2.89.95.76.22 1.5.45 2.21.7.66.23 1.25.5 1.74.79.43.26.77.55 1.01.88.19.26.27.55.27.92v.1c0 .86-.3 1.49-.96 1.98-.74.56-1.74.84-2.96.84-1.3 0-2.61-.25-3.9-.74-1.31-.5-2.59-1.24-3.81-2.19a1.05 1.05 0 0 0-.82-.21c-.29.04-.55.21-.72.45l-1.82 2.63c-.33.48-.24 1.14.21 1.5 1.46 1.18 3.15 2.14 5.03 2.83 1.89.69 3.79 1.05 5.64 1.05 1.32 0 2.57-.19 3.71-.55 1.17-.38 2.2-.93 3.07-1.66.88-.73 1.58-1.63 2.1-2.67.53-1.06.79-2.28.79-3.63v-.1c0-1.31-.28-2.46-.83-3.39-.54-.9-1.25-1.67-2.11-2.3m20.93 0c-.82-.59-1.74-1.09-2.75-1.47-.94-.36-1.9-.69-2.84-.98-.8-.25-1.57-.5-2.31-.76-.69-.23-1.3-.5-1.82-.79-.45-.25-.8-.53-1.05-.85-.18-.23-.27-.49-.27-.81v-.1c0-.68.27-1.22.86-1.69.64-.52 1.56-.79 2.74-.79 1.06 0 2.16.2 3.27.58 1.14.4 2.25.95 3.3 1.63.24.16.54.21.83.15.28-.07.53-.25.68-.5l1.64-2.77c.3-.51.15-1.17-.34-1.5-1.32-.88-2.81-1.59-4.42-2.11-2.94-.95-5.99-1.06-8.48-.24-1.14.38-2.14.93-2.97 1.64-.85.72-1.52 1.61-1.99 2.62-.47 1.02-.71 2.15-.71 3.36v.1c0 1.36.3 2.53.9 3.47.56.89 1.3 1.65 2.18 2.24.83.56 1.78 1.02 2.81 1.39.96.34 1.93.66 2.89.95.76.22 1.5.45 2.21.7.66.23 1.25.5 1.74.79.43.26.77.55 1.01.88.19.26.28.55.28.92v.1c0 .86-.31 1.49-.96 1.98-.74.56-1.74.84-2.96.84-1.3 0-2.61-.25-3.9-.74-1.31-.5-2.59-1.24-3.81-2.19a1.05 1.05 0 0 0-.82-.21c-.29.04-.55.21-.72.45l-1.82 2.63c-.33.48-.24 1.14.21 1.5 1.46 1.18 3.15 2.14 5.03 2.83 1.89.69 3.79 1.05 5.64 1.05 1.32 0 2.57-.19 3.71-.55 1.17-.38 2.2-.93 3.07-1.66.88-.73 1.58-1.63 2.1-2.67.53-1.06.79-2.28.79-3.63v-.1c0-1.31-.28-2.46-.83-3.39-.55-.9-1.25-1.67-2.12-2.3m16.67-8.32c1.03 0 1.95.19 2.71.58.78.39 1.44.92 1.98 1.57.55.66.98 1.44 1.29 2.33.19.56.35 1.13.46 1.73H192.2c.13-.64.32-1.24.56-1.8.38-.9.88-1.69 1.47-2.34.58-.64 1.27-1.15 2.04-1.52.74-.37 1.57-.55 2.46-.55m9.24-1.1a11.683 11.683 0 0 0-3.91-3.08c-1.54-.75-3.3-1.14-5.23-1.14-1.83 0-3.55.37-5.1 1.11-1.54.73-2.89 1.74-4.02 3.01-1.12 1.26-2 2.77-2.62 4.46-.62 1.69-.93 3.52-.93 5.43 0 2.05.36 3.96 1.05 5.68.7 1.72 1.66 3.21 2.85 4.44 1.19 1.23 2.6 2.2 4.2 2.87 1.59.68 3.3 1.02 5.09 1.02 2.47 0 4.59-.47 6.3-1.4 1.67-.9 3.17-2.12 4.46-3.61.39-.45.35-1.15-.09-1.55l-2.24-2.06c-.43-.4-1.09-.37-1.49.05-.91.96-1.93 1.74-3.02 2.32-1.04.55-2.32.83-3.82.83-.93 0-1.82-.16-2.66-.48a7.08 7.08 0 0 1-2.27-1.41 7.45 7.45 0 0 1-1.67-2.3c-.29-.59-.5-1.25-.65-1.97h17.86c.54 0 .99-.41 1.07-.95.04-.28.06-.53.06-.77v-.53c0-1.92-.27-3.76-.8-5.45-.57-1.71-1.37-3.23-2.42-4.52m21.29 9.42c-.82-.59-1.74-1.09-2.75-1.47-.94-.36-1.9-.69-2.84-.98-.8-.25-1.57-.5-2.31-.76-.69-.23-1.3-.5-1.82-.79-.45-.25-.8-.53-1.05-.85-.18-.23-.27-.49-.27-.81v-.1c0-.68.27-1.22.86-1.69.64-.52 1.56-.79 2.74-.79 1.06 0 2.16.2 3.27.58 1.14.4 2.25.95 3.3 1.63.24.16.54.21.83.15.28-.07.53-.25.68-.5l1.64-2.77c.3-.51.15-1.17-.34-1.5-1.32-.88-2.81-1.59-4.42-2.11-2.94-.95-5.99-1.06-8.48-.24-1.14.38-2.14.93-2.97 1.64a7.49 7.49 0 0 0-1.99 2.63c-.47 1.02-.71 2.15-.71 3.36v.1c0 1.36.3 2.53.9 3.47.56.89 1.3 1.65 2.18 2.24.83.56 1.78 1.02 2.81 1.39.97.34 1.93.66 2.89.95.76.22 1.5.45 2.21.7.66.23 1.25.5 1.74.79.43.26.77.55 1.01.88.19.26.28.55.28.92v.1c0 .86-.31 1.49-.96 1.98-.74.56-1.74.84-2.96.84-1.3 0-2.61-.25-3.9-.74-1.31-.5-2.6-1.24-3.81-2.19a1.05 1.05 0 0 0-.82-.21c-.29.04-.55.21-.72.45l-1.82 2.63c-.33.48-.24 1.14.21 1.5 1.46 1.18 3.15 2.14 5.03 2.83 1.89.69 3.79 1.04 5.65 1.04 1.32 0 2.57-.19 3.71-.55 1.17-.38 2.2-.93 3.07-1.66.88-.73 1.58-1.63 2.1-2.67.53-1.06.79-2.28.79-3.63v-.1c0-1.31-.28-2.45-.83-3.39-.56-.9-1.26-1.67-2.13-2.3M55.45 25.91h3.9v33.25c0 .89.72 1.62 1.62 1.62h5.98c.89 0 1.62-.72 1.62-1.62V25.91h11.04c.89 0 1.62-.72 1.62-1.62v-5.13c0-.89-.72-1.62-1.62-1.62H68.49V15.9c0-6.14 2.87-6.92 5.37-6.92.91 0 1.77.08 2.55.24.84.17 1.79.41 2.83.71.49.14 1.02.04 1.42-.26.41-.31.64-.78.64-1.29v-5.2c0-.68-.42-1.28-1.06-1.52A16.8 16.8 0 0 0 76.93.8c-1.1-.17-2.39-.25-3.86-.25-4.33 0-7.75 1.33-10.16 3.94-2.37 2.57-3.57 6.32-3.57 11.11v1.88h-3.9c-.89 0-1.62.72-1.62 1.62v5.2c.01.88.74 1.61 1.63 1.61m40.36 26.04c-1.61-.74-3.03-1.74-4.2-2.97-1.17-1.24-2.11-2.73-2.78-4.44-.67-1.7-1.01-3.56-1.01-5.52 0-1.96.33-3.81.98-5.5.65-1.69 1.56-3.2 2.69-4.46 1.11-1.24 2.47-2.23 4.07-2.93 1.6-.71 3.39-1.06 5.32-1.06 1.88 0 3.64.37 5.23 1.09 1.61.73 3.04 1.75 4.24 3.01 1.19 1.26 2.14 2.76 2.81 4.48.67 1.72 1.01 3.58 1.01 5.53 0 1.96-.33 3.81-.98 5.5-.65 1.68-1.56 3.16-2.7 4.4a12.458 12.458 0 0 1-4.13 2.91c-3.15 1.38-7.32 1.43-10.55-.04M78.45 39.2c0 3.05.56 5.97 1.67 8.69 1.11 2.72 2.69 5.13 4.7 7.17 2 2.03 4.39 3.66 7.1 4.85 2.73 1.2 5.75 1.8 8.96 1.8 3.21 0 6.25-.61 9.03-1.8 2.77-1.19 5.19-2.84 7.2-4.9 2-2.05 3.59-4.48 4.72-7.23 1.14-2.75 1.72-5.69 1.72-8.73 0-3.05-.56-5.97-1.68-8.69-1.11-2.72-2.69-5.13-4.7-7.16-2-2.03-4.4-3.66-7.14-4.85-5.56-2.41-12.6-2.37-18.07 0-2.75 1.19-5.15 2.84-7.15 4.9-2 2.06-3.58 4.49-4.69 7.24-1.11 2.74-1.67 5.67-1.67 8.71m60.19 13.98c-1.02-.3-1.92-.75-2.7-1.33-.75-.57-1.33-1.22-1.76-2.01-.41-.74-.61-1.61-.61-2.64 0-2.07.77-3.65 2.37-4.84 1.72-1.28 4.31-1.93 7.7-1.93 2.35 0 4.48.17 6.32.52 1.39.26 2.67.54 3.83.82v2.64c0 1.35-.28 2.53-.86 3.63a9.135 9.135 0 0 1-2.44 2.9c-1.05.83-2.32 1.5-3.77 1.99-2.48.82-5.54 1.01-8.08.25m-9.1 4.98c1.57 1.18 3.37 2.06 5.33 2.63 1.93.56 3.92.84 5.92.84 3.85 0 7.12-.78 9.72-2.32a24.99 24.99 0 0 0 3.19-2.23v2.09c0 .9.72 1.62 1.62 1.62h5.75c.89 0 1.62-.72 1.62-1.62V34.62c0-5.78-1.67-10.24-4.95-13.27-3.25-2.99-7.88-4.5-13.76-4.5-3.07 0-5.85.32-8.25.95-2.36.62-4.73 1.47-7.03 2.54-.76.35-1.12 1.23-.84 2.02l1.78 4.89c.15.43.48.77.9.94.43.17.9.16 1.31-.04 1.79-.84 3.62-1.53 5.45-2.04 1.79-.5 3.83-.75 6.05-.75 3.36 0 5.97.79 7.75 2.36 1.62 1.42 2.46 3.47 2.58 6.28-1.21-.29-2.45-.54-3.7-.74-3.98-.65-9.96-.79-14.39.42-2.27.62-4.27 1.53-5.95 2.73-1.74 1.24-3.09 2.8-4.04 4.66-.94 1.85-1.42 3.99-1.42 6.36 0 2.39.5 4.51 1.48 6.29.98 1.76 2.28 3.25 3.88 4.44m98.5-36.79c-2.95-3.2-7.03-4.83-12.14-4.83-1.9 0-3.66.23-5.23.69-1.56.46-3 1.1-4.26 1.9-1.26.8-2.4 1.76-3.39 2.83-.38.41-.74.83-1.09 1.26-1.07-1.56-2.43-2.93-4.03-4.08-2.4-1.72-5.43-2.59-9.02-2.59-1.86 0-3.54.23-5 .7-1.44.46-2.75 1.09-3.9 1.87-.89.6-1.71 1.29-2.45 2.04v-2.14c0-.9-.72-1.62-1.62-1.62h-5.98c-.9 0-1.62.72-1.62 1.62v40.15c0 .9.72 1.62 1.62 1.62h5.98c.89 0 1.62-.72 1.62-1.62V36.25c0-1.66.25-3.18.75-4.52.5-1.33 1.19-2.51 2.07-3.49a8.98 8.98 0 0 1 3-2.24c1.12-.52 2.38-.78 3.75-.78 2.75 0 4.82.85 6.36 2.59 1.56 1.79 2.35 4.39 2.35 7.75v23.61c0 .9.72 1.62 1.62 1.62h5.9c.89 0 1.62-.72 1.62-1.62V36.01c0-1.76.27-3.34.79-4.7.51-1.35 1.21-2.48 2.07-3.38a8.26 8.26 0 0 1 2.97-2.02c1.15-.46 2.38-.7 3.67-.7 2.8 0 4.9.85 6.43 2.6 1.56 1.78 2.36 4.44 2.36 7.9v23.45c0 .9.72 1.62 1.62 1.62h5.98c.9 0 1.62-.72 1.62-1.62V34.31c-.03-5.42-1.51-9.77-4.42-12.94M88.51 65.14c-1.43-.52-2.88-.9-4.32-1.12-1.43-.22-3.15-.33-5.09-.33-5.65 0-10.1 1.72-13.22 5.11-3.09 3.35-4.65 8.24-4.65 14.53v3.06h-5.77c-.9 0-1.62.73-1.62 1.63v6.97c0 .9.73 1.63 1.62 1.63h5.77v45.13c0 .9.73 1.63 1.62 1.63h8.02c.9 0 1.62-.73 1.62-1.63V96.61h15.34c.9 0 1.62-.73 1.62-1.63v-6.87c0-.9-.73-1.63-1.62-1.63H72.39v-2.75c0-8.81 4.42-9.83 7.75-9.83 1.26 0 2.45.11 3.53.33 1.14.23 2.42.55 3.84.95.49.15 1.02.04 1.43-.26.41-.31.64-.79.64-1.3v-6.97a1.65 1.65 0 0 0-1.07-1.51m35.94 30.48v-8.64c0-.88-.7-1.6-1.58-1.62-2.7-.05-5.32.27-7.71 1.01-2.38.74-4.6 1.86-6.61 3.31a26.292 26.292 0 0 0-5.33 5.16c-.25.33-.5.66-.74.99v-7.91c0-.9-.73-1.62-1.62-1.62h-8.01c-.9 0-1.63.73-1.63 1.62v53.83c0 .9.73 1.63 1.63 1.63h8.01c.9 0 1.62-.73 1.62-1.63V120.3c0-3.81.53-7.22 1.57-10.12 1.03-2.85 2.45-5.28 4.24-7.2 1.77-1.89 3.87-3.34 6.24-4.29 2.4-.96 4.99-1.44 7.68-1.44h.63a1.64 1.64 0 0 0 1.61-1.63m9.82 14.61c.31-1.79.81-3.47 1.48-5.02.89-2.04 2.04-3.83 3.43-5.32 1.37-1.47 2.98-2.65 4.78-3.49 3.83-1.8 8.83-1.57 12.21.09a14.5 14.5 0 0 1 4.65 3.6c1.28 1.5 2.29 3.29 3.02 5.32.55 1.54.95 3.15 1.2 4.81h-30.77zm35.51-16.18c-2.29-2.73-5.13-4.92-8.46-6.52-6.49-3.1-15.47-3.24-22.36-.06a26.749 26.749 0 0 0-8.7 6.38c-2.41 2.67-4.33 5.86-5.68 9.48-1.35 3.6-2.03 7.49-2.03 11.55 0 4.36.77 8.43 2.28 12.08 1.52 3.66 3.6 6.83 6.18 9.42 2.58 2.6 5.64 4.65 9.09 6.08 3.45 1.43 7.16 2.15 11.03 2.15 5.38 0 9.98-.99 13.68-2.95 3.62-1.92 6.9-4.51 9.72-7.7.59-.67.53-1.69-.13-2.28l-5-4.48c-.65-.58-1.65-.55-2.25.08-2.08 2.15-4.41 3.9-6.92 5.21-2.42 1.26-5.41 1.89-8.89 1.89-2.16 0-4.24-.37-6.2-1.09-1.95-.72-3.73-1.8-5.31-3.23-1.58-1.42-2.89-3.18-3.9-5.24-.79-1.6-1.35-3.42-1.69-5.41h40.73c.81 0 1.5-.6 1.61-1.41.08-.57.12-1.09.12-1.57v-1.14c0-4.09-.59-8.01-1.75-11.64-1.15-3.66-2.9-6.89-5.17-9.6m20.93 16.18c.31-1.79.81-3.47 1.48-5.02.89-2.04 2.04-3.83 3.43-5.32 1.37-1.47 2.98-2.65 4.78-3.49 3.83-1.8 8.84-1.57 12.21.09a14.5 14.5 0 0 1 4.65 3.6c1.28 1.5 2.29 3.29 3.02 5.32.55 1.54.95 3.15 1.2 4.81h-30.77zm35.51-16.18c-2.29-2.73-5.13-4.92-8.46-6.52-6.49-3.1-15.47-3.24-22.36-.06a26.749 26.749 0 0 0-8.7 6.38c-2.41 2.67-4.33 5.86-5.68 9.47-1.35 3.59-2.03 7.48-2.03 11.55 0 4.36.77 8.43 2.28 12.08 1.52 3.65 3.6 6.83 6.18 9.42 2.58 2.61 5.65 4.65 9.09 6.08 3.45 1.43 7.16 2.15 11.03 2.15 5.38 0 9.98-.99 13.68-2.95 3.62-1.92 6.9-4.51 9.72-7.7.59-.67.53-1.69-.13-2.28l-5-4.48c-.65-.58-1.65-.55-2.25.08-2.08 2.15-4.41 3.9-6.92 5.21-2.42 1.26-5.41 1.89-8.89 1.89-2.16 0-4.24-.37-6.2-1.09-1.94-.72-3.73-1.8-5.31-3.22-1.58-1.42-2.89-3.19-3.9-5.24-.79-1.6-1.35-3.42-1.69-5.41h40.73c.81 0 1.5-.6 1.61-1.41.08-.57.12-1.09.12-1.57v-1.14c0-4.09-.59-8.01-1.75-11.64-1.15-3.66-2.9-6.89-5.17-9.6"/></svg>