<svg xmlns="http://www.w3.org/2000/svg" viewBox="0 0 182.2 182.4"><path d="M91.1 4.4C43.3 4.4 4.4 43.3 4.4 91.2S43.3 178 91.1 178c47.8 0 86.7-38.9 86.7-86.8S138.9 4.4 91.1 4.4m0 178c-24.3 0-47.2-9.5-64.4-26.7C9.5 138.4 0 115.5 0 91.2c0-24.4 9.5-47.3 26.7-64.5C43.9 9.5 66.8 0 91.1 0c24.3 0 47.2 9.5 64.4 26.7 17.2 17.2 26.7 40.1 26.7 64.5s-9.5 47.3-26.7 64.5c-17.2 17.2-40.1 26.7-64.4 26.7M61.9 41.5l17.5 17.4v8.7L62.6 51c-.4-.4-1.1-.4-1.5 0L44.5 67.7V59l17.4-17.5zm0-11.7 17.5 17.4v8.7L62.6 39.2c-.2-.2-.5-.3-.7-.3-.3 0-.5.1-.7.3L44.4 56v-8.7l17.5-17.5zm101.3 37.8c2.4 7.4 3.7 15.3 3.7 23.6 0 41.9-33.9 75.9-75.8 75.9s-75.8-34-75.8-75.9c0-6.3.8-12.3 2.2-18.2.7-3 4.4-4.3 6.8-2.4 6.3 4.8 13 9 20.2 11.6V111c0 9.6 7.9 17.4 17.5 17.4s17.4-7.9 17.4-17.5V80.6c37.8-13.6 43-24.3 65.5-20.1 4.8.9 10.1 2.4 15.5 4.3 1.4.5 2.4 1.5 2.8 2.8M74.3 82.5c-10.9 3.7-20.8 3-29.9-.2V70.7l17.4-17.5 17.5 17.4v10.1c-1.5.6-3.2 1.2-5 1.8" fill="#010202"/></svg>