<svg xmlns="http://www.w3.org/2000/svg" viewBox="0 0 429.8 482.4"><path d="M205.6 482.3c-2.6-.3-5.3-.3-8.1-.3h-.7l-.6-.2c-1-.3-1.9-.5-2.9-.7-2.9-.7-5.8-1.4-8.8-2.7-18.6-7.9-29.5-27.3-26.5-47.3 2.9-19.6 18.8-35 38.7-37.5 1.7-.2 3.5-.3 5.3-.3 16.4 0 31.4 9.3 39.2 24.2 0 .1.1.1.1.2 30.7-5.3 56.7-16 79.4-32.6 20.9-15.5 37.9-35.3 51.7-60.4-28.7 0-52.7-20.7-57-49.1-.4-2.7-.7-5.6-.7-8.5v-52c.2-27.6 18.3-50.2 45-56.2 3.7-.9 7.6-1.3 11.5-1.3 4.2 0 8.4.5 12.9 1.5C366 98.5 302.9 36.9 216 36.4h-1.2C127 36.4 64.6 96.7 45.7 158.7c4.2-.9 8.3-1.4 12.4-1.4 18.3 0 35.7 9.1 46.5 24.3 6.7 9.3 10.2 19.6 10.3 30.6.2 18.7.4 38.1 0 57.3-.6 30.5-26.2 55.3-57 55.3-1.2 0-2.3 0-3.5-.1-30.1-2-53.3-26.2-54-56.4 0-2.5-.1-5-.2-7.5s-.2-5.1-.2-7.6v-32.3c0-.4.1-.8.1-1.2.1-.6.1-1.2.1-1.6v-.2c.1-2.7.3-5.3.4-8 .3-6.3.6-12.7 1.2-19.1 2.3-22.4 7.7-43.2 16.1-61.8C42.5 75.1 82.7 36.6 137.5 14.4 157 6.5 178.4 2 205.1.2c2.5-.2 5.1-.2 7.8-.2 7.3 0 14.7.6 21.5 1.1 31.9 2.6 61.1 11.9 86.9 27.4 68.7 41.3 105 103.1 108.1 183.7.6 16.9.4 34 .1 50.6l-.1 4.6c-.1 6.3-1.6 12.6-3 18-.6 2.5-1.6 4.9-2.5 7.1-.8 1.9-1.5 3.6-2 5.3-4.5 16.5-10.1 30.6-17 43.1-35.1 63.8-89.1 101.8-160.4 112.9-1.5.3-1.7.5-2.2 1.6-5.3 12.4-14.6 20.8-27.6 24.9-1.7.5-3.5.9-5.1 1.3l-2.4.6-.9.2-.7-.1zm166.3-288.7h-.8c-10.7.4-19.4 8.9-20.1 19.7-.4 4.6-.3 9.2-.2 14.1v13.7c0 9.3-.1 19 .3 28.4.4 9.7 9.3 18.4 19.5 19h1.2c11.7 0 21-9.1 21.2-20.6v-.1c.3-6.7.3-13.5.2-20.1V216c0-1.6 0-3-.2-4.1v-.1c-1.8-10.7-10.4-18.2-21.1-18.2zm-314.4 0c-11.6.1-20.8 9.3-21 21.1-.2 17.7-.2 35.6 0 53.3.2 11.1 9.7 20.6 20.9 20.6h.1c11.7-.1 21.1-9.5 21.2-21.4.1-6.5.1-13.1.1-19.5v-14.3c0-6.2.1-12.6-.1-18.9-.3-11.7-9.6-20.9-21-20.9h-.2z"/></svg>