<svg xmlns="http://www.w3.org/2000/svg" viewBox="0 0 56.7 56.7"><path d="M34.2 56.5c-.5 0-1-.2-1.4-.5l-8.7-8.7c-.4-.4-.6-.9-.6-1.4s.2-1 .6-1.4c.8-.8 2.1-.8 2.8-.1l8.7 8.7c.6.6.7 1.4.4 2.2-.3.6-1.1 1.2-1.8 1.2zm-11.7 0c-.5 0-1-.2-1.4-.5-.4-.4-.6-.9-.6-1.4 0-.5.2-1.1.6-1.4l1.9-1.9c.4-.4.9-.6 1.4-.6.5 0 1 .2 1.4.6.8.8.8 2.1.1 2.8L24 55.9c-.2.2-.4.4-.6.4-.3.1-.6.2-.9.2zm18.4-6.8c-.5 0-1-.2-1.4-.5l-1.9-1.9c-.8-.8-.8-2 0-2.8.8-.8 2.1-.8 2.8-.1l1.9 1.9c.6.6.7 1.4.4 2.2-.3.6-1 1.2-1.8 1.2zm-25.2 0c-.5 0-1-.2-1.4-.5-.4-.4-.6-.9-.6-1.4 0-.5.2-1.1.6-1.4l8.7-8.7c.4-.4.9-.6 1.4-.6.5 0 1 .2 1.4.6.8.8.8 2.1.1 2.8l-8.7 8.6c-.2.2-.4.4-.6.4-.3.1-.6.2-.9.2zm16.6-3c-.5 0-1-.2-1.4-.6l-.1-.1c-.8-.8-.8-2 0-2.8l5.7-5.7c.8-.8 2-.8 2.8 0 .8.8.8 2.1.1 2.8L33.7 46c-.4.5-.9.7-1.4.7zm15.4-3.8c-.5 0-1.1-.2-1.4-.6l-8.7-8.7c-.8-.8-.8-2 0-2.8.4-.4.9-.6 1.4-.6s1.1.2 1.4.5l8.7 8.7c.6.6.7 1.4.4 2.2-.3.8-1.1 1.3-1.8 1.3zM9 42.9c-.5 0-1-.2-1.4-.5-.3-.3-.6-.9-.6-1.4 0-.5.2-1.1.6-1.5l1.9-1.9c.4-.4.9-.6 1.4-.6.5 0 1.1.2 1.4.6.8.8.8 2.1.1 2.8l-1.9 1.9c-.2.2-.4.4-.6.4-.3.2-.6.2-.9.2zm22.2-3c-.5 0-1-.2-1.4-.5l-5.7-5.7c-.8-.8-.8-2 0-2.8.4-.4.9-.6 1.4-.6.5 0 1.1.2 1.4.5l5.7 5.7c.4.4.6.9.6 1.4s-.2 1-.6 1.4c-.4.4-.9.6-1.4.6zm-13.6 0c-.5 0-1-.2-1.4-.5l-5.7-5.7c-.4-.4-.6-.9-.6-1.4 0-.5.2-1 .6-1.4.8-.8 2.1-.8 2.8-.1l5.7 5.7c.4.4.6.9.6 1.4s-.2 1-.6 1.4c-.3.4-.8.6-1.4.6zm36.8-3.7c-.5 0-1.1-.2-1.4-.6l-1.9-1.9c-.4-.4-.6-.9-.6-1.4 0-.5.2-1 .6-1.4.8-.8 2.1-.8 2.8-.1l1.9 1.9c.6.6.7 1.4.4 2.2-.3.7-1 1.3-1.8 1.3zm-52.1 0c-.5 0-1-.2-1.4-.5-.4-.4-.6-.9-.6-1.4s.2-1.1.6-1.4l8.7-8.7c.4-.4.9-.6 1.4-.6.5 0 1 .2 1.4.6.8.8.8 2.1.1 2.8l-8.7 8.6c-.3.2-.5.4-.7.4-.3.2-.6.2-.8.2zm30-3c-.5 0-1-.2-1.4-.6l-.1-.1c-.4-.4-.6-.9-.6-1.4s.2-1 .6-1.4l5.7-5.7c.8-.8 2-.8 2.8 0 .4.4.6.9.6 1.4s-.2 1.1-.5 1.4l-5.7 5.7c-.4.5-.9.7-1.4.7zm-13.5 0c-.5 0-1-.2-1.4-.6l-.1-.1c-.4-.4-.6-.9-.6-1.4s.2-1 .6-1.4L23 24c.8-.8 2-.8 2.8 0 .4.4.6.9.6 1.4s-.2 1.1-.5 1.4l-5.7 5.7c-.4.5-.9.7-1.4.7zm27 0c-.5 0-1-.2-1.4-.6l-.1-.1c-.8-.8-.8-2 0-2.8L53 21c.8-.8 2-.8 2.8 0 .8.8.8 2 0 2.8l-8.6 8.7c-.4.5-.9.7-1.4.7zM4.2 26.4c-.5 0-1.1-.2-1.4-.6L.9 23.9c-.8-.8-.8-2 0-2.8.8-.8 2-.8 2.8 0L5.6 23c.4.4.6.9.6 1.4 0 .5-.2 1.1-.6 1.4-.4.4-.9.6-1.4.6zm13.4 0c-.5 0-1-.2-1.4-.6l-8.7-8.6c-.8-.8-.8-2 0-2.8s2-.8 2.8 0L19 23c.4.4.6.9.6 1.4 0 .5-.2 1-.6 1.4-.3.4-.8.6-1.4.6zm13.6 0c-.5 0-1-.2-1.4-.5l-5.7-5.7c-.4-.4-.6-.9-.6-1.4s.2-1 .6-1.4c.8-.8 2.1-.8 2.8-.1l5.7 5.7c.4.4.6.9.6 1.4 0 .5-.2 1-.6 1.4-.4.4-.9.6-1.4.6zm13.5 0c-.5 0-1.1-.2-1.4-.5l-5.7-5.7c-.8-.8-.8-2 0-2.8.4-.4.9-.6 1.4-.6.5 0 1.1.2 1.4.5l5.7 5.7c.8.8.8 2 0 2.8-.4.4-.9.6-1.4.6zm-25.9-6.7c-.5 0-1-.2-1.4-.6l-.1-.1c-.8-.8-.8-2 0-2.8l5.7-5.7c.4-.4.9-.6 1.4-.6.5 0 1 .2 1.4.6.8.8.8 2.1.1 2.8L20.2 19c-.4.5-.9.7-1.4.7zm13.5 0c-.5 0-1.1-.2-1.4-.6l-.1-.1c-.8-.8-.8-2 0-2.8l8.7-8.7c.8-.8 2-.8 2.8 0 .8.8.8 2 0 2.8L33.7 19c-.4.5-.9.7-1.4.7zm13.4 0c-.5 0-1-.2-1.4-.6-.4-.4-.6-.9-.6-1.4s.2-1 .6-1.4l1.9-1.9c.8-.8 2-.8 2.8 0 .8.8.8 2 0 2.8l-1.8 1.9c-.4.4-.9.6-1.5.6.1 0 0 0 0 0zM17.6 13c-.5 0-1-.2-1.4-.6l-1.9-1.9c-.8-.8-.8-2 0-2.8.8-.8 2-.8 2.8 0L19 9.6c.4.4.6.9.6 1.4s-.2 1.1-.6 1.4c-.3.3-.8.6-1.4.6zm13.6-.1c-.5 0-1-.2-1.4-.5l-8.7-8.7c-.8-.8-.8-2 0-2.8.8-.8 2-.8 2.8 0l8.7 8.6c.4.4.6.9.6 1.4 0 .5-.2 1-.6 1.4-.4.4-.9.6-1.4.6zm1.1-6.7c-.5 0-1-.2-1.4-.6-.4-.4-.6-.9-.6-1.4s.2-1 .6-1.4L32.8.9c.8-.8 2-.8 2.8 0s.8 2 0 2.8l-1.9 1.9c-.4.3-.9.6-1.4.6z"/></svg>