<svg xmlns="http://www.w3.org/2000/svg" viewBox="0 0 71.6 71.6"><path d="M46 22.5c-2.9-2.8-6.7-4.3-10.7-4.1-7.6.3-13.7 6.4-14.1 14-.3 5.4 2.4 10.5 6.9 13.4 1.5 1 2.6 2.4 3.1 4.1h9.4c.5-1.7 1.6-3.2 3.2-4.2 4.3-2.8 6.8-7.5 6.9-12.6-.2-3.9-1.8-7.8-4.7-10.6zM31.5 52.3v1.1h8.6v-1.7h-8.6v.6zm0 2.9h8.6v1.7h-8.6zm1.1 4.3H39l.5-.9h-7.4z"/><path d="M35.8.4C16.2.4.4 16.2.4 35.8c0 19.6 15.9 35.4 35.4 35.4s35.4-15.9 35.4-35.4C71.2 16.2 55.4.4 35.8.4zm-.9 9.9c0-.5.4-.9.9-.9s.9.4.9.9v3.5c0 .5-.4.9-.9.9s-.9-.4-.9-.9v-3.5zm-17 4.5c.3-.3.9-.3 1.2 0l2.6 2.6c.3.3.3.9 0 1.2-.3.3-.9.3-1.2 0L17.9 16c-.3-.3-.3-.8 0-1.2zm-2.8 18.8h-3.5c-.5 0-.9-.4-.9-.9s.4-.9.9-.9h3.5c.5 0 .9.4.9.9s-.5.9-.9.9zM21.7 48l-2.6 2.6c-.2.2-.4.3-.6.3-.2 0-.5-.1-.6-.3-.3-.3-.3-.9 0-1.2l2.6-2.6c.3-.3.9-.3 1.2 0 .4.3.4.9 0 1.2zm22.7-.7c-1.7 1.1-2.7 3-2.7 5v5.8c0 .1 0 .1-.1.2v.1L40.1 61c-.2.3-.4.4-.7.4H32c-.3 0-.6-.2-.7-.4l-1.5-2.6v-.1c0-.1 0-.1-.1-.2v-5.8c0-2-1-3.9-2.7-5-5.1-3.3-8-9-7.7-15 .2-9.1 7.8-16.2 16.8-16 9.1.2 16.2 7.8 16 16.8.1 5.8-2.9 11.1-7.7 14.2zm9.3 3.3c-.3.3-.9.3-1.2 0L49.8 48c-.3-.3-.3-.9 0-1.2.3-.3.9-.3 1.2 0l2.6 2.6c.4.3.4.8.1 1.2zm0-34.6-2.6 2.6c-.2.2-.4.3-.6.3-.2 0-.5-.1-.6-.3-.3-.3-.3-.9 0-1.2l2.6-2.6c.3-.3.9-.3 1.2 0 .3.4.3.9 0 1.2zM60 33.6h-3.5c-.5 0-.9-.4-.9-.9s.4-.9.9-.9H60c.5 0 .9.4.9.9s-.4.9-.9.9z"/></svg>