<svg id="Layer_1" xmlns="http://www.w3.org/2000/svg" viewBox="0 0 56.81 55.76"><path class="st0" d="M17.74 8.74 13.57 16l7.2 4.17 6.56-11.23c-3.79-4.17-8.14-2.79-9.59-.2z"/><path class="st0" d="M41.28 9.44c-.19-.38-.44-.76-.69-1.26C35.85.03 29.85-3.19 20.7 3.94c4.61-1.96 9.09 2.08 12.75 8.39.25.44.5.82.69 1.2-1.7.25-3.47.25-5.18.06 3.35 3.72 8.14 5.74 13.13 5.43 2.71-4.17 3.41-9.34 1.89-14.08-.74 1.59-1.63 3.11-2.7 4.5zm12.56 21.71-4.17-7.26-7.2 4.17 6.44 11.3c5.43-1.21 6.44-5.62 4.93-8.21z"/><path class="st0" d="M56.55 36.07c-.63 5.05-6.37 6.88-13.63 6.88h-1.39c.63-1.64 1.51-3.16 2.52-4.54-4.86 1.01-9.03 4.23-11.3 8.65 2.27 4.48 6.37 7.64 11.23 8.71a21.497 21.497 0 0 1-2.52-4.54h1.45c9.41-.07 15.22-3.67 13.64-15.16zM16.41 51.22h8.33v-8.27h-13c-1.64 5.24 1.64 8.27 4.67 8.27z"/><path class="st0" d="M5.24 30.52c-.19.38-.44.76-.69 1.26C-.18 39.92.13 46.74 10.8 51.09c-4.04-3.03-2.71-8.9.88-15.21.25-.44.5-.82.69-1.2 1.07 1.39 1.96 2.9 2.65 4.48 1.58-4.73.88-9.91-1.83-14.08-5.05-.37-9.84 1.65-13.19 5.37 1.77-.19 3.47-.19 5.24.07z"/></svg>