<svg xmlns="http://www.w3.org/2000/svg" viewBox="0 0 58 58"><path d="M24.852 43.988c1 .9 9.8 8.7 17.2-7.5 8.4-16.1-3.2-18.6-3.9-18.7-.2-.1-.4 0-.6.2 0 0-3.9 5.1-2.5 7.3.8 1.2 2.1 2 3.5 2.2l-2.8 5.6-2.9 5.5c-1-1-2.4-1.6-3.8-1.5-2.6.2-4.4 6.3-4.5 6.4 0 .1.1.4.3.5zm-10.6-3.7c.1.3.4.4.7.3.3-.1.4-.4.3-.7-4-10.7 1.4-22.8 12.1-26.9.6-.2 1.3-.5 2-.6.3-.1.5-.4.4-.7-.1-.3-.4-.4-.7-.4-6 1.6-11 5.7-13.8 11.2-2.8 5.6-3.2 12-1 17.8z"/><path d="M19.652 36.688c.1.3.4.4.7.3.3-.1.4-.4.3-.7-1.3-3.5-1.1-7.4.6-10.7.8-1.7 2-3.1 3.4-4.3 1.4-1.2 3.1-2 4.9-2.5.3-.1.5-.4.4-.7-.1-.3-.4-.5-.7-.4-7.6 2.1-12.1 10-10.1 17.7.2.4.3.9.5 1.3z"/><path d="M24.752 36.788c.1.3.4.4.7.3.3-.1.4-.4.3-.7-1.5-4.1-.3-8.7 3.1-11.5 1.1-.9 2.4-1.5 3.8-1.9.3-.1.5-.4.4-.7-.1-.3-.4-.4-.7-.4-4.7 1.3-8 5.4-8.3 10.2-.1 1.6.2 3.2.7 4.7z"/><path d="M29 0c16 0 29 13 29 29S45 58 29 58 0 45 0 29 13 0 29 0zm0 2.9c14.4 0 26 11.7 26 26.1 0 14.4-11.6 26-26 26S2.9 43.4 2.9 29 14.6 2.9 29 2.9z" fill-rule="evenodd" clip-rule="evenodd"/></svg>