<svg xmlns="http://www.w3.org/2000/svg" viewBox="0 0 371.1 173.5" xml:space="preserve"><path d="M174.3 61.8h48.3c1.5 0 2.6-1.2 2.6-2.6V47.8c0-1.5-1.2-2.6-2.6-2.6h-48.3c-1.5 0-2.6 1.2-2.6 2.6v11.3c0 1.5 1.1 2.7 2.6 2.7zM174.3 94.1h37.8c1.5 0 2.6-1.2 2.6-2.6V80.1c0-1.5-1.2-2.6-2.6-2.6h-37.8c-1.5 0-2.6 1.2-2.6 2.6v11.3c0 1.5 1.1 2.7 2.6 2.7zM86 114.8l-8-6.8c2.2-3.3 3.9-6.9 5.1-10.7 1.2-3.9 1.8-7.9 1.8-12.1V85c0-5.7-1.1-11.1-3.1-16-2.1-5-5-9.3-8.8-13s-8.3-6.6-13.4-8.8-10.9-3.3-17-3.3-11.9 1.1-17.1 3.3-9.7 5.2-13.5 8.9c-3.8 3.8-6.7 8.2-8.8 13.1-2.1 5-3.2 10.4-3.2 16v.2c0 5.7 1.1 11.1 3.1 16 2.1 5 5 9.3 8.8 13 3.7 3.7 8.3 6.6 13.4 8.8 5.2 2.2 10.9 3.3 17 3.3 4.5 0 8.7-.6 12.7-1.8 3.9-1.2 7.6-2.8 10.9-5l8.6 7.7.1.1c.1 0 .1 0 .2-.1L86 115.1s.1-.1 0-.3c.1 0 0 0 0 0zM66.2 85.4c0 3.9-.7 7.5-2 10.6L51.4 84.3s-.1-.1-.2-.1-.1 0-.1.1L39.9 96.8s-.1.1-.1.2 0 .1.1.1l12.7 10.8c-3.1 1.3-6.5 2-10.1 2-3.5 0-6.8-.7-9.6-2-2.9-1.3-5.4-3.1-7.5-5.3-2.1-2.2-3.8-4.9-5-7.9s-1.7-6.2-1.7-9.6v-.2c0-3.4.6-6.6 1.7-9.5 1.2-3 2.8-5.6 4.8-7.8s4.5-4 7.4-5.3 6.1-1.9 9.6-1.9c3.4 0 6.7.7 9.6 2 2.9 1.3 5.5 3.1 7.6 5.3s3.8 4.9 5 7.9c1.2 3 1.7 6.2 1.7 9.6l.1.2zM161.8 45.2h-17.5c-.1 0-.2.1-.2.2V91c0 6.3-1.5 11-4.5 14.2-3 3.1-7.2 4.7-12.5 4.7s-9.5-1.6-12.5-4.9c-3-3.2-4.5-8.1-4.5-14.6v-45c0-.1-.1-.2-.2-.2H92.5c-.1 0-.2.1-.2.2v45.4c0 11.7 3.1 20.7 9.3 26.6 6.1 5.9 14.7 8.9 25.4 8.9 5.3 0 10.2-.7 14.5-2.2 4.3-1.5 8.1-3.8 11.1-6.8s5.4-6.8 7-11.3 2.5-9.8 2.5-15.9V45.4c-.1-.1-.2-.2-.3-.2zM291.3 85.5c-2.2-1.9-4.9-3.5-8-4.8-3.2-1.3-6.8-2.5-10.8-3.6-3.4-.9-6.2-1.7-8.5-2.4-2.2-.7-4-1.4-5.3-2.1-1.2-.7-2.1-1.6-2.6-2.5s-.7-2-.7-3.3v-.2c0-1.9.8-3.5 2.5-4.8s4.2-1.9 7.5-1.9c3.4 0 6.8.7 10.1 2.1 3.4 1.4 6.9 3.3 10.4 5.7.1.1.2 0 .3-.1l9.1-13.2c.1-.1 0-.2 0-.3-4.1-3.3-8.6-5.8-13.5-7.5S271.5 44 265.7 44c-4.1 0-7.9.6-11.3 1.7-3.4 1.1-6.4 2.8-8.8 4.9-2.5 2.1-4.4 4.7-5.8 7.6-1.4 2.9-2 6.3-2 9.9v.2c0 3.9.6 7.3 1.9 10 1.3 2.7 3.1 4.9 5.4 6.7 2.3 1.8 5.1 3.3 8.4 4.5 3.3 1.2 7 2.3 11 3.3 3.3.8 6.1 1.6 8.1 2.4 2.1.7 3.7 1.5 4.9 2.3 1.1.7 1.9 1.5 2.3 2.4.4.8.6 1.8.6 2.9v.2c0 2.3-1 4.1-2.9 5.3-2 1.3-4.8 2-8.3 2-4.5 0-8.7-.9-12.5-2.6-3.8-1.7-7.5-4.1-11.1-7-.1-.1-.2-.1-.3 0L235 113.1c-.1.1-.1.2 0 .3 4.8 4.3 10.1 7.6 16 9.6 5.8 2.1 11.9 3.1 17.9 3.1 4.3 0 8.3-.6 11.9-1.7s6.7-2.7 9.2-4.8c2.6-2.1 4.6-4.7 6-7.8 1.4-3.1 2.2-6.6 2.2-10.6v-.2c0-3.5-.6-6.5-1.7-9.1-1.3-2.3-3-4.5-5.2-6.4zM370.9 45.2H305c-.1 0-.2.1-.2.2v16.1c0 .1.1.2.2.2h24v63.2c0 .1.1.2.2.2h17.5c.1 0 .2-.1.2-.2V61.7h24c.1 0 .2-.1.2-.2V45.4c0-.1-.1-.2-.2-.2zM223.1 109.3h-48.8c-1.5 0-2.6 1.2-2.6 2.6v11.3c0 1.5 1.2 2.6 2.6 2.6h48.8c1.5 0 2.6-1.2 2.6-2.6V112c0-1.5-1.2-2.7-2.6-2.7zm-9.4 6.4c0 .1-.1.2-.2.2H212v4.5c0 .1-.1.2-.2.2h-.8c-.1 0-.2-.1-.2-.2v-4.5h-1.5c-.1 0-.2-.1-.2-.2v-.7c0-.1.1-.2.2-.2h4.3c.1 0 .2.1.2.2v.7h-.1zm6.8 4.7c0 .1-.1.2-.2.2h-.8c-.1 0-.2-.1-.2-.2V117l-1.5 2.3c0 .1-.1.1-.2.1h-.1c-.1 0-.2 0-.2-.1l-1.5-2.3v3.4c0 .1-.1.2-.2.2h-.8c-.1 0-.2-.1-.2-.2V115c0-.1.1-.2.2-.2h.8c.1 0 .2 0 .2.1l1.7 2.7 1.7-2.7c0-.1.1-.1.2-.1h.8c.1 0 .2.1.2.2v5.4h.1zM125.2 1.3h-6.6c-.1 0-.2.1-.2.2v18.9c0 3.1-1.2 4.6-3.7 4.6-1.8 0-3.4-.9-5.2-2.8 0-.1-.1-.1-.2-.1s-.1 0-.2.1l-4.1 4.5c-.1.1-.1.2 0 .3 2.5 3 5.8 4.5 9.8 4.5 6.8 0 10.6-3.9 10.6-10.8V1.5c.1-.1-.1-.2-.2-.2zM140.5 7.7c-7 0-12.4 5.2-12.4 11.9v.1c0 6.6 5.4 11.8 12.4 11.8s12.4-5.2 12.4-11.9v-.1c0-6.6-5.4-11.8-12.4-11.8zm-5.6 11.9c0-3.5 2.3-5.9 5.6-5.9 3.2 0 5.7 2.6 5.7 5.9v.1c0 3.5-2.3 5.9-5.6 5.9s-5.7-2.6-5.7-6zM162.2 8.1h-6.4c-.1 0-.2.1-.2.2v22.4c0 .1.1.2.2.2h6.4c.1 0 .2-.1.2-.2V8.4c.1-.2 0-.3-.2-.3zM162.4 0h-6.7c-.1 0-.2.1-.2.2v5.7c0 .1.1.2.2.2h6.7c.1 0 .2-.1.2-.2V.2c0-.1-.1-.2-.2-.2zM179.5 7.7c-3.1 0-4.9 1.5-6.3 3.1V8.4c0-.1-.1-.2-.2-.2h-6.4c-.1 0-.2.1-.2.2v22.4c0 .1.1.2.2.2h6.4c.1 0 .2-.1.2-.2V18.3c0-2.8 1.3-4.3 3.7-4.3s3.6 1.5 3.6 4.3v12.5c0 .1.1.2.2.2h6.4c.1 0 .2-.1.2-.2V16.3c0-5.4-2.9-8.6-7.8-8.6zM212.9 7.7c-7 0-12.4 5.2-12.4 11.9v.1c0 6.6 5.4 11.8 12.4 11.8s12.4-5.2 12.4-11.9v-.1c0-6.6-5.4-11.8-12.4-11.8zm-5.6 11.9c0-3.5 2.3-5.9 5.6-5.9 3.2 0 5.7 2.6 5.7 5.9v.1c0 3.5-2.3 5.9-5.6 5.9s-5.7-2.6-5.7-6zM248.4 8.1H242c-.1 0-.2.1-.2.2v12.5c0 2.8-1.3 4.3-3.7 4.3s-3.6-1.5-3.6-4.3V8.4c0-.1-.1-.2-.2-.2h-6.4c-.1 0-.2.1-.2.2v14.5c0 5.4 2.9 8.6 7.9 8.6 3.1 0 4.9-1.5 6.3-3.1v2.5c0 .1.1.2.2.2h6.4c.1 0 .2-.1.2-.2V8.4c-.1-.2-.2-.3-.3-.3zM265.9 7.7c-3.1-.1-5.4 1.2-6.9 4.1V8.4c0-.1-.1-.2-.2-.2h-6.4c-.1 0-.2.1-.2.2v22.4c0 .1.1.2.2.2h6.4c.1 0 .2-.1.2-.2v-8.3c0-5 2.3-7.7 6.6-7.7h.3c.1 0 .2-.1.2-.2V8c.1-.2-.1-.3-.2-.3zM15.8 147.8h-5.4v-6c0-.1-.1-.2-.2-.2H3c-.1 0-.2.1-.2.2v6H.2c-.1 0-.2.1-.2.2v5.9c0 .1.1.2.2.2h2.6v11.3c0 5.2 2.4 7.6 7.4 7.6 2.2 0 3.9-.4 5.7-1.4.1 0 .1-.1.1-.2v-5.6c0-.1 0-.2-.1-.2h-.2c-1 .5-2.1.9-3.3.9-1.4 0-2-.7-2-2.1v-10.1h5.4c.1 0 .2-.1.2-.2v-5.9c0-.2-.1-.4-.2-.4zM30.5 147.4c-7.6 0-13.5 5.7-13.5 13v.1c0 7.2 5.9 12.8 13.5 12.8s13.5-5.7 13.5-13v-.1c-.1-7.2-6-12.8-13.5-12.8zm-6.2 12.9c0-3.8 2.5-6.4 6.1-6.4 3.5 0 6.2 2.8 6.2 6.4v.1c0 3.8-2.5 6.4-6.1 6.4s-6.2-2.8-6.2-6.5zM69.2 157.5l-.8-.2c-2.2-.8-4-1.3-4-2.4v-.1c0-.9.9-1.4 2.3-1.4 1.6 0 4 .9 6.4 2.3h.2c.1 0 .1-.1.2-.1l2.6-4.8c.1-.1 0-.3-.1-.3-2.7-1.9-6.1-2.8-9.3-2.8-5.6 0-9.3 3.3-9.3 8.1v.1c0 4.8 3.8 6.5 7.5 7.6.3.1.7.2 1 .3 2.2.7 3.9 1.2 3.9 2.3v.1c0 1.3-1.6 1.5-2.6 1.5-2.3 0-5-1.1-7.5-2.8-.1 0-.1-.1-.2 0s-.1.1-.2.1l-2.9 4.6c-.1.1 0 .3.1.3 3 2.4 6.9 3.7 10.7 3.7 6 0 9.6-3 9.6-8.2v-.1c.1-5.2-4.8-6.9-7.6-7.8zM89.8 147.6c-4.2 0-6.9.8-9.6 2-.1.1-.2.2-.1.3l1.7 5.3c0 .1.1.1.1.1h.2c2.3-.9 4-1.3 6.6-1.3 3.3 0 5 1.4 5 4.2-1.4-.4-3.2-.9-5.7-.9-6.4 0-10.1 2.9-10.1 8.1v.1c0 4.7 3.5 7.7 8.7 7.7 2.9 0 5.2-.9 7.1-2.7v2c0 .1.1.2.2.2h6.7c.1 0 .2-.1.2-.2v-14.2c.2-7-3.7-10.7-11-10.7zm4.1 15.3v1.1c0 2.4-2.1 4-5.1 4-2.2 0-3.5-1-3.5-2.7v-.1c0-2 1.6-3 4.5-3 1.4-.1 2.8.2 4.1.7zM127.6 148c0-.1-.1-.1-.2-.1h-7.2c-.1 0-.2.1-.2.2l-5.2 15.6-5.2-15.6c0-.1-.1-.2-.2-.2H102c-.1 0-.2 0-.2.1s-.1.2 0 .2l9.6 24.6c0 .1.1.2.2.2h6.3c.1 0 .2-.1.2-.2l9.6-24.6c-.1-.1-.1-.2-.1-.2zM139 147.4c-7.1 0-12.3 5.6-12.3 13v.1c0 7.5 5.4 12.8 13.1 12.8 4.2 0 7.7-1.5 10.2-4.7.1-.1.1-.3 0-.3l-3.9-3.5c-.1-.1-.2-.1-.3 0-1.9 1.7-3.5 2.4-5.8 2.4-2.9 0-4.9-1.5-5.7-4.2H151c.1 0 .2-.1.2-.2v-.3c0-.4.1-.9.1-1.4v-.1c-.1-6.3-3.3-13.6-12.3-13.6zm0 6.1c2.5 0 4.4 1.7 4.8 4.7H134c.7-3 2.5-4.7 5-4.7zM179.9 147.8h-5.4v-6c0-.1-.1-.2-.2-.2h-7c-.1 0-.2.1-.2.2v6h-2.6c-.1 0-.2.1-.2.2v5.9c0 .1.1.2.2.2h2.6v11.3c0 5.2 2.4 7.6 7.4 7.6 2.2 0 3.9-.4 5.7-1.4.1 0 .1-.1.1-.2v-5.6c0-.1 0-.2-.1-.2h-.2c-1 .5-2.1.9-3.3.9-1.4 0-2-.7-2-2.1v-10.1h5.4c.1 0 .2-.1.2-.2v-5.9c-.1-.2-.2-.4-.4-.4zM197.3 147.4c-3.4 0-5.3 1.6-6.9 3.4v-11.5c0-.1-.1-.2-.2-.2h-7c-.1 0-.2.1-.2.2v33.3c0 .1.1.2.2.2h7c.1 0 .2-.1.2-.2V159c0-3 1.4-4.7 4-4.7s3.9 1.6 3.9 4.7v13.6c0 .1.1.2.2.2h7c.1 0 .2-.1.2-.2v-15.8c.2-5.9-3-9.4-8.4-9.4zM220.7 147.4c-7.1 0-12.3 5.6-12.3 13v.1c0 7.5 5.4 12.8 13.1 12.8 4.2 0 7.7-1.5 10.2-4.7.1-.1.1-.3 0-.3l-3.9-3.5c-.1-.1-.2-.1-.3 0-1.9 1.7-3.5 2.4-5.8 2.4-2.9 0-4.9-1.5-5.7-4.2h16.7c.1 0 .2-.1.2-.2v-.3c0-.4.1-.9.1-1.4v-.1c-.2-6.3-3.3-13.6-12.3-13.6zm0 6.1c2.5 0 4.4 1.7 4.8 4.7h-9.8c.6-3 2.5-4.7 5-4.7zM272.8 166.1h-17.1v-6.2h14.8c.1 0 .2-.1.2-.2v-6.2c0-.1-.1-.2-.2-.2h-14.8v-5.9h16.9c.1 0 .2-.1.2-.2V141c0-.1-.1-.2-.2-.2h-24.1c-.1 0-.2.1-.2.2v31.9c0 .1.1.2.2.2h24.3c.1 0 .2-.1.2-.2v-6.2c0-.5-.1-.6-.2-.6zM286.6 147.6c-4.2 0-6.9.8-9.6 2-.1.1-.2.2-.1.3l1.7 5.3c0 .1.1.1.1.1h.2c2.3-.9 4-1.3 6.6-1.3 3.3 0 5 1.4 5 4.2-1.4-.4-3.2-.9-5.7-.9-6.4 0-10.1 2.9-10.1 8.1v.1c0 4.7 3.5 7.7 8.7 7.7 2.9 0 5.2-.9 7.1-2.7v2c0 .1.1.2.2.2h6.7c.1 0 .2-.1.2-.2v-14.2c.1-7-3.7-10.7-11-10.7zm4.1 15.3v1.1c0 2.4-2.1 4-5.1 4-2.2 0-3.5-1-3.5-2.7v-.1c0-2 1.6-3 4.5-3 1.3-.1 2.9.2 4.1.7zM316.3 147.4c-3.4-.2-5.9 1.3-7.5 4.5v-3.7c0-.1-.1-.2-.2-.2h-7c-.1 0-.2.1-.2.2v24.4c0 .1.1.2.2.2h7c.1 0 .2-.1.2-.2v-9c0-5.4 2.5-8.4 7.2-8.4h.3c.1 0 .2-.1.2-.2v-7.2c.1-.3 0-.4-.2-.4zM332.7 147.8h-5.4v-6c0-.1-.1-.2-.2-.2h-7c-.1 0-.2.1-.2.2v6h-2.6c-.1 0-.2.1-.2.2v5.9c0 .1.1.2.2.2h2.6v11.3c0 5.2 2.4 7.6 7.4 7.6 2.2 0 3.9-.4 5.7-1.4.1 0 .1-.1.1-.2v-5.6c0-.1 0-.2-.1-.2h-.2c-1 .5-2.1.9-3.3.9-1.4 0-2-.7-2-2.1v-10.1h5.4c.1 0 .2-.1.2-.2v-5.9c-.2-.2-.3-.4-.4-.4zM350 147.4c-3.4 0-5.3 1.6-6.9 3.4v-11.5c0-.1-.1-.2-.2-.2h-7c-.1 0-.2.1-.2.2v33.3c0 .1.1.2.2.2h7c.1 0 .2-.1.2-.2V159c0-3 1.4-4.7 4-4.7s3.9 1.6 3.9 4.7v13.6c0 .1.1.2.2.2h7c.1 0 .2-.1.2-.2v-15.8c.2-5.9-3-9.4-8.4-9.4zM370.4 165H363c-.1 0-.2.1-.2.2v7.3c0 .1.1.2.2.2h7.4c.1 0 .2-.1.2-.2v-7.3c.2-.1.1-.2-.2-.2zM370.9 140.4h-8.2c-.1 0-.2.1-.2.2v1l2.2 20.1c0 .1.1.2.2.2h3.8c.1 0 .2-.1.2-.2l2.2-20.1v-.9c0-.2-.1-.3-.2-.3z"/></svg>