<svg xmlns="http://www.w3.org/2000/svg" viewBox="0 0 66.6 66.6"><path d="M54.4.4H12.2C5.7.4.4 5.7.4 12.2v42.1c0 6.5 5.3 11.8 11.8 11.8h42.1c6.5 0 11.8-5.3 11.8-11.8V12.2C66.2 5.7 60.9.4 54.4.4zM36.6 45c-2.9 0-5.6-1.4-6.6-3.3 0 0-1.4 5.5-1.8 6.8-.7 2.5-2.4 5.6-3.5 7.6l-2-.7c-.3-2.2-.5-5.8.1-8.3.5-2.2 3.4-14.3 3.4-14.3s-.9-1.8-.9-4.3c0-4.1 2.4-7 5.3-7 2.5 0 3.7 1.8 3.7 4.1 0 2.5-1.6 6.2-2.4 9.6-.7 2.9 1.4 5.3 4.3 5.3 5.1 0 9.1-5.4 9.1-13.3 0-7-5-11.7-12.1-11.7-8.1 0-13 6.2-13 12.5 0 2.5.9 5.1 2.1 6.6.3.3.3.5.3.8-.3.9-.7 2.9-.8 3.3-.1.5-.4.7-.9.4-3.5-1.7-5.9-7-5.9-11.2 0-9.1 6.6-17.5 19-17.5 10 0 17.7 7.1 17.7 16.7C51.6 37 45.3 45 36.6 45z"/></svg>