<svg xmlns="http://www.w3.org/2000/svg" viewBox="0 0 66 47.4"><path d="M9.1 47.4h47.8c5 0 9.1-4.1 9.1-9.1V9.1c0-5-4.1-9.1-9.1-9.1H9.1C4.1 0 0 4.1 0 9.1v29.2c.1 5 4.1 9.1 9.1 9.1zM2.5 9.1c0-3.7 3-6.6 6.6-6.6h47.8c3.7 0 6.6 3 6.6 6.6v29.2c0 3.7-3 6.6-6.6 6.6H9.1c-3.7 0-6.6-3-6.6-6.6V9.1zm7.2 27.2L25 22.8 9.8 11c-.5-.4-.6-1.2-.2-1.7.4-.5 1.2-.6 1.7-.2L33.1 26 54.8 9c.5-.4 1.3-.3 1.7.2.4.5.3 1.3-.2 1.7l-15 11.8 15.2 13.6c.5.5.5 1.2.1 1.7-.2.3-.6.4-.9.4s-.6-.1-.8-.3L39.3 24.2l-5.5 4.3c-.2.2-.5.3-.7.3s-.5-.1-.7-.3l-5.3-4.1-15.8 13.7c-.2.2-.5.3-.8.3s-.7-.1-.9-.4c-.4-.5-.4-1.3.1-1.7z"/></svg>