<svg id="Layer_1" xmlns="http://www.w3.org/2000/svg" viewBox="0 0 119.3 108.4"><path class="st0" d="M92.8 96.8c-2.4-.2-4.8.1-7.1 1.1-.9.4-1.8 1-2.7 1.7.4.5.8 1 1.2 1.4 2 1.7 4.3 2.3 6.9 2 2.9-.3 5.5-1.4 7.9-3 .6-.4 1.1-.8 1.7-1.2l.1-.1c-.1 0-.1-.1-.2-.1-2.5-.9-5.1-1.6-7.8-1.8zm13-67.4c.2.2.4.3.7.1.8-.7 1.6-1.5 2-2.6 1-3.1.7-6-.7-8.8-.4-.9-1-1.8-1.5-2.7-.2-.2-.4-.4-.6-.7-.1.2-.3.4-.3.6-.6 1.8-1.1 3.6-1.4 5.4-.3 2.2-.2 4.3.5 6.4.2.8.6 1.6 1.3 2.3zm-7.4 55.9c2.7-3.4 5-7 6.8-10.9 4-9 5.6-18.4 4.3-28.2-.3-2.3-.5-4.7-1.2-7-.9-2.8-1.8-5.7-3-8.4-1.7-3.6-3.7-7-6-10.2-1.3-1.7-2.6-3.2-4-4.8-.1 0-.1.1-.2.1.5.7 1.1 1.4 1.7 2.1 2.1 2.6 4 5.2 5.6 8.1 5.2 9.3 7.2 19.2 6.5 29.8-.4 5.7-1.8 11.2-4.1 16.5-2.6 5.9-6.1 11.1-10.6 15.7-3.1 3.2-6.6 6-10.5 8.4-3.6 2.1-7.4 3.7-11.4 4.8-2 .6-4 1.1-5.9 1.6-.2.1-.5.2-.5.4-.2.8.2 1.2 1 1.1.1 0 .3 0 .4-.1 2.1-.6 4.3-1.1 6.4-1.7 6.2-1.9 11.8-5 16.8-9.1 2.8-2.5 5.5-5.2 7.9-8.2zm10.5 2.2c-2.5-.2-5-.3-7.4.1-3 .5-5.7 1.7-7.9 3.9-.5.5-.5 1 .1 1.5.4.3.7.5 1.1.7 2 .8 4 .8 6 .3 2.7-.7 4.8-2.3 6.9-4.1.5-.6 1-1.1 1.5-1.7.4-.5.3-.6-.3-.7zm5.7-12.1c-4.1.5-7.8 1.8-11.1 4.4-1.1.9-1.9 2-2.5 3.3-.1.3-.1.6.3.7.9.2 1.8.6 2.7.6 3 .2 5.5-1.1 7.6-3 1.5-1.5 3-3.4 3.7-5 .4-.9.3-1.1-.7-1zm-6.2-6.3c-.9 1.1-1.4 2.3-1.8 3.6-.2.6-.1.8.6 1 .4.1.7.2 1.1.2 1.9 0 3.5-.7 5-1.9 2.9-2.3 4.6-5.3 5.4-8.8.1-.3.1-.6.1-1-.4.1-.7.1-1 .2-3.6 1.5-6.8 3.6-9.4 6.7z"/><path class="st0" d="M112.7 54.4c-1.8 2.4-2.9 5.2-2.9 8.3 3-.1 5.3-1.6 6.9-4 1.8-2.8 2.5-6 2.5-9.3 0-.6-.2-.7-.7-.4-2.1 1.5-4.1 3.2-5.8 5.4zm-2-4.1c.1.8.2.8.9.6 2-.6 3.3-1.8 4.3-3.6 2-3.6 1.9-7.4 1.1-11.2l-.1-.2c-.3.3-.7.6-1 .9-1.4 1.4-2.5 3.1-3.5 4.9-1.6 2.7-2.3 5.5-1.7 8.6zM85 94.2c1.7-2.3 2.1-4.9 1.5-7.7-.2-1.2-.7-2.3-1-3.4-.1-.3-.3-.5-.4-.8-.2.2-.5.3-.7.6-1.7 2.1-2.8 4.4-3.4 7-.5 2.1-.4 4.2.3 6.2.2.6.3.7.8.4l2.4-1.5s0-.1-.1-.1l.3-.3c.1-.2.2-.3.3-.4zm23.6-56.6c.1.7.5 1.4.8 2 .2.3.5.4.8.1.4-.4.8-.7 1-1 1.6-1.1 2.2-2.6 2.6-4.3.5-2.5.3-4.9-.5-7.3-.2-.7-.5-1.3-.8-2-.3-.5-.5-.5-.8 0 0 .1-.1.1-.1.2-.6 1.2-1.3 2.3-1.8 3.5-1.4 2.9-1.7 5.8-1.2 8.8zM89.3 80.8c-.6 3-.5 5.9 1.2 8.6.4.7.6.8 1.2.2 1.7-1.5 2.8-3.3 2.9-5.7.2-3.3-1.2-5.9-3.2-8.4-.2.2-.4.4-.4.5-.9 1.5-1.4 3.1-1.7 4.8zm8.7.6c.2.3.5.5.8.1 1-1.2 1.9-2.6 1.9-4.3.1-3.2-1.1-5.9-3.2-8.4-.4-.3-.8-.7-1.3-1-.3-.2-.5-.2-.6.2-.9 3.4-1 6.7.2 10 .5 1.4 1.3 2.5 2.2 3.4zm7.7-27.6c-1.5-1.6-3.1-3-5.3-3.8-.3-.1-.5-.2-.9-.3v1c.6 3.5 1.7 6.8 4.3 9.4.9.9 2 1.6 3.2 2 1.2-2.5.9-6-1.3-8.3zm-5.6-33.4c.6.6 1 .6 1.5-.2 1-1.5 1.2-3.1 1-4.8-.4-3.4-2.1-6-4.4-8.4-.2-.2-.5-.3-.8-.6-.8 3.2-.6 6.2.2 9.2.4 1.8 1.2 3.5 2.5 4.8zm2.4 51c1.1 1 1.5.9 2.1-.4 1.1-2.5.7-4.9-.6-7.2-.8-1.5-2-2.7-3.3-3.7-.6-.5-1.2-.8-1.9-1.2-.1 0-.1.1-.2.1 0 .2-.1.4-.1.6 0 .7-.1 1.5-.1 2.2.4 3.8 1.3 7.1 4.1 9.6zM88.9 6.7c.7 2.4 1.9 4.5 4 6 1.1.8 1.4.7 1.8-.6.6-2 .3-3.9-.5-5.7-.8-1.7-2-3.2-3.4-4.4C90 1.2 89 .6 88 0c-.1 0-.1.1-.2.1 0 .5-.1.9 0 1.4.4 1.7.7 3.5 1.1 5.2zm19.4 43.7c.2-2.8-.8-5.2-3-7-1.6-1.4-3.5-2-5.5-2.4-.4-.1-.8-.1-1.3-.1 0 .2 0 .4.1.5 1.1 3.3 2.9 6.2 5.7 8.3.9.7 2 1.2 3.2 1.4.6 0 .8-.1.8-.7zm-3.4-15c-.6-.6-1.7-1.4-3-1.9-1.6-.7-3.2-.7-4.9-.8-1.1-.1-1.2.2-.7 1.2 0 0 0 .1.1.1.9 1.1 1.7 2.3 2.7 3.3 1.9 1.9 4.2 3.1 6.9 3.3.9.1 1-.1.9-.9 0-1.5-.6-2.8-2-4.3zm-3.1-8.3c-1.2-1-2.7-1.6-4.2-1.9-1.7-.3-3.4-.3-5.1 0-.6.1-.7.3-.3.7.5.6 1.1 1.3 1.7 1.8 2.8 2.5 5.9 4 9.8 3.2-.2-1.4-.7-2.8-1.9-3.8zm-20-18.6c1.7 1 3.5 1.5 5.4 1.4.9 0 1.1-.3.8-1.2-.4-1.2-1-2.3-2-3.1-1.8-1.6-4-2.4-6.4-2.7-1-.1-2.1-.1-3.2.3.2.3.3.6.5.8 1.4 1.8 2.9 3.3 4.9 4.5zm12.9 9.7c-2.6-.9-5.3-.9-7.8.4-.6.3-.6.4-.1.9 1.9 1.7 4 2.9 6.5 3.4 1.9.4 3.7.2 5.7-.5-.3-.6-.6-1.3-1-1.8-.8-1.2-2-1.9-3.3-2.4zm-6.3-1.8c1 0 1.9-.2 2.8-.7 1.4-.8 1.3-1.1.3-2.3-.2-.1-.4-.3-.6-.5-1.4-.9-2.9-1.2-4.5-1.3-2.2-.1-4.1.6-5.9 1.7-.9.5-.9.6 0 1.1 2.4 1.3 5 2 7.9 2zm-62 80.4c-2.7.2-5.3.9-7.8 1.7-.1 0-.2.1-.2.1l.1.1c.6.4 1.1.8 1.7 1.2 2.4 1.6 5 2.7 7.9 3 2.6.3 4.9-.3 6.9-2 .5-.4.8-.9 1.2-1.4-.9-.7-1.7-1.3-2.7-1.7-2.3-.9-4.6-1.2-7.1-1zM12.8 29.5c.3.2.4.1.7-.1.6-.7 1.1-1.5 1.4-2.4.7-2.1.8-4.2.5-6.4-.3-1.9-.7-3.7-1.4-5.4l-.3-.6c-.2.2-.4.4-.6.7L11.6 18c-1.4 2.8-1.7 5.8-.7 8.8.3 1.2 1.1 1.9 1.9 2.7zM53 102.9c-2-.5-4-1-5.9-1.6-4-1.1-7.8-2.7-11.4-4.8-3.9-2.3-7.4-5.1-10.5-8.4-4.5-4.6-8-9.8-10.6-15.7-2.3-5.3-3.7-10.8-4.1-16.5-.8-10.6 1.3-20.5 6.5-29.8 1.6-2.9 3.5-5.5 5.6-8.1.6-.7 1.1-1.4 1.7-2.1-.1 0-.1-.1-.2-.1-1.3 1.6-2.7 3.2-4 4.8-2.4 3.2-4.4 6.6-6 10.2-1.3 2.7-2.1 5.6-3 8.4-.8 2.3-.9 4.7-1.2 7C8.5 56 10 65.4 14 74.4c1.8 3.9 4.1 7.6 6.8 10.9 2.4 3 5.1 5.7 8.1 8.2 5 4.1 10.6 7.2 16.8 9.1 2.1.7 4.2 1.2 6.4 1.7.1 0 .3 0 .4.1.8.1 1.2-.3 1-1.1-.1-.1-.3-.3-.5-.4zm-28.6-9.2c.4-.2.8-.4 1.1-.7.6-.4.6-.9.1-1.5-2.2-2.2-4.9-3.4-7.9-3.9-2.5-.4-5-.3-7.4-.1-.6.1-.7.2-.3.7.5.6 1 1.1 1.5 1.7 2 1.8 4.2 3.3 6.9 4.1 2 .5 4 .5 6-.3zM18 83.8c.4-.1.4-.3.3-.7-.5-1.3-1.4-2.4-2.5-3.3-3.3-2.6-7-3.9-11.1-4.4-1-.1-1.1 0-.7.9.7 1.6 2.1 3.5 3.7 5 2.1 2 4.6 3.2 7.6 3 .8.1 1.7-.3 2.7-.5zM5.9 72.1c1.5 1.2 3.1 1.8 5 1.9.4 0 .8-.1 1.1-.2.6-.2.7-.4.6-1-.4-1.3-.9-2.5-1.8-3.6C8.3 66.1 5 64 1.3 62.6c-.3-.1-.6-.2-1-.2.1.4.1.7.1 1 .9 3.4 2.6 6.4 5.5 8.7z"/><path class="st0" d="M9.4 62.6c0-3.1-1-5.8-2.9-8.3-1.6-2.1-3.7-3.9-5.9-5.4-.4-.2-.6-.1-.6.4 0 3.3.7 6.5 2.5 9.3 1.6 2.5 3.8 4 6.9 4zM7.7 50.9c.8.2.8.2.9-.6.5-3.1-.2-5.9-1.6-8.5-1-1.8-2.1-3.4-3.5-4.9-.3-.3-.7-.6-1-.9-.1.1-.1.1-.1.2-1 3.8-1 7.5 1 11.1 1 1.8 2.3 3 4.3 3.6zm29.5 45.6c.5.3.6.2.8-.4.7-2.1.8-4.1.3-6.2-.6-2.6-1.7-5-3.4-7-.2-.2-.5-.4-.7-.6-.1.3-.3.5-.4.8-.4 1.1-.8 2.3-1 3.4-.6 2.8-.2 5.4 1.5 7.7l.3.3.3.3s0 .1-.1.1c.8.6 1.6 1.1 2.4 1.6zM8.1 38.8c.3.3.7.6 1 1 .3.2.6.2.8-.2.3-.7.7-1.3.8-2 .4-3 .1-6-1.2-8.7-.6-1.2-1.2-2.4-1.8-3.5 0-.1-.1-.1-.1-.2-.3-.5-.6-.5-.8 0-.3.6-.6 1.3-.8 2-.7 2.4-1 4.8-.5 7.3.4 1.6 1 3.2 2.6 4.3zM28 75.5c-2 2.5-3.4 5.2-3.2 8.4.1 2.4 1.1 4.2 2.9 5.7.6.5.8.5 1.2-.2 1.6-2.7 1.8-5.6 1.2-8.6-.3-1.7-.8-3.3-1.7-4.7-.2-.2-.3-.4-.4-.6zm-6.7 5.9c.9-1 1.7-2.1 2.1-3.3 1.2-3.3 1.1-6.7.2-10-.1-.4-.3-.4-.6-.2-.5.3-.9.7-1.3 1-2 2.5-3.3 5.2-3.2 8.4.1 1.7.9 3 1.9 4.3.4.3.7.1.9-.2zm-6-21.2c2.6-2.6 3.7-5.9 4.3-9.4.1-.3 0-.6 0-1-.4.1-.6.2-.9.3-2.1.7-3.8 2.1-5.3 3.8-2.2 2.3-2.5 5.8-1.4 8.3 1.4-.5 2.4-1.1 3.3-2zm3.9-39.8c1.4-1.3 2.1-2.9 2.6-4.7.8-3 .9-6 .2-9.2-.3.2-.6.4-.8.6-2.3 2.3-4.1 5-4.4 8.4-.2 1.7 0 3.4 1 4.8.4.6.7.7 1.4.1zm-2.5 51c2.8-2.6 3.8-5.9 4-9.5 0-.7 0-1.5-.1-2.2 0-.2-.1-.4-.1-.6-.1 0-.1-.1-.2-.1-.6.4-1.3.8-1.9 1.2-1.3 1-2.5 2.2-3.3 3.7-1.2 2.3-1.6 4.7-.6 7.2.8 1.3 1.2 1.3 2.2.3zm9.6-58.8c2.1-1.5 3.3-3.6 4-6 .5-1.7.8-3.4 1.1-5.2.1-.4 0-.9 0-1.4-.1 0-.1-.1-.2-.1-.9.6-1.9 1.2-2.8 1.9C27 3.2 25.8 4.6 25 6.4c-.8 1.8-1.1 3.7-.5 5.7.4 1.2.7 1.3 1.8.5zM10.9 50.4c0 .6.2.7.8.6 1.2-.1 2.2-.7 3.2-1.4 2.8-2.1 4.6-4.9 5.7-8.3 0-.1 0-.3.1-.5-.5 0-.9.1-1.3.1-2 .4-3.9 1.1-5.5 2.4-2.1 2-3.2 4.3-3 7.1zm1.4-10.8c-.1.9.1 1 .9.9 2.7-.3 5.1-1.4 6.9-3.3 1-1 1.8-2.2 2.7-3.3 0 0 0-.1.1-.1.5-1 .4-1.3-.7-1.2-1.6.1-3.3.1-4.9.8-1.3.6-2.4 1.3-3 1.9-1.4 1.6-1.9 2.9-2 4.3zm3.3-8.6c3.9.7 7.1-.7 9.8-3.2.6-.6 1.1-1.2 1.7-1.8.4-.5.3-.6-.3-.7-1.7-.4-3.4-.4-5.1 0-1.5.3-3 .8-4.2 1.9-1.2.9-1.8 2.3-1.9 3.8zM32.1 9.9c1.9.1 3.8-.4 5.4-1.4 1.9-1.1 3.5-2.7 4.9-4.4.2-.2.3-.5.5-.8-1.1-.3-2.1-.4-3.2-.3-2.4.3-4.6 1.1-6.4 2.7-1 .8-1.6 1.9-2 3.1-.3.8-.2 1.1.8 1.1zM21.3 20.6c-.4.5-.6 1.2-1 1.8 1.9.6 3.8.8 5.7.5 2.5-.5 4.6-1.7 6.5-3.4.5-.4.5-.6-.1-.9-2.5-1.2-5.2-1.3-7.8-.4-1.4.5-2.5 1.2-3.3 2.4zm17.6-7.4c-1.8-1.1-3.8-1.8-5.9-1.7-1.6.1-3.2.4-4.5 1.3-.3.2-.5.4-.6.5-1 1.2-1.1 1.5.3 2.3.8.5 1.8.6 2.8.7 2.8.1 5.5-.6 8-2 .8-.5.7-.6-.1-1.1zM61 101.9 59.6 98l-1.3 3.9-4.1.1 3.3 2.5-1.2 3.9 3.3-2.3 3.4 2.3-1.2-3.9 3.3-2.5zM37.3 30.7c-.1-.2-.3-.3-.4-.3h-1.2c-.2 0-.4.1-.4.3l-5 11.1c-.1.1-.1.3 0 .5.1.1.2.2.4.2H32c.2 0 .4-.1.4-.3l1.2-2.6H39l1.2 2.6c.1.2.3.3.4.3h1.3c.2 0 .3-.1.4-.2.1-.1.1-.3 0-.5l-5-11.1zm-2.8 6.7 1.8-3.9 1.8 3.9h-3.6zm7.6-6.9h-1.4c-.2 0-.3.1-.4.2-.1.1-.1.3-.1.4l3.9 11.1c.1.2.3.3.5.3h1c.2 0 .4-.1.5-.3l2.6-7.6 2.6 7.6c.1.2.3.3.5.3h1.1c.2 0 .4-.1.5-.3l3.9-11V31c0-.3-.2-.5-.5-.5h-1.3c-.2 0-.4.1-.5.3l-2.7 7.8-2.6-7.8c-.1-.2-.3-.3-.5-.3h-1c-.2 0-.4.1-.5.3l-2.6 7.8-2.7-7.8c.1-.2 0-.3-.3-.3zM55 42.2c.1.1.2.2.4.2h1.3c.2 0 .4-.1.4-.3l1.2-2.6h5.4l1.2 2.6c.1.2.3.3.4.3h1.3c.2 0 .3-.1.4-.2.1-.1.1-.3 0-.5l-5-11.1c-.1-.2-.3-.3-.4-.3h-1.2c-.2 0-.4.1-.4.3l-5 11.1c-.1.2-.1.4 0 .5zm6-8.7 1.8 3.9h-3.5l1.7-3.9zm7.4 8.9h1.2c.3 0 .5-.2.5-.5v-3.8h2.4l3 4.1c.1.1.2.2.4.2h1.5c.2 0 .4-.1.4-.3.1-.2.1-.4 0-.5L75 37.7c1.7-.5 2.6-1.8 2.6-3.5 0-1-.4-1.9-1-2.5-.8-.8-2-1.2-3.5-1.2h-4.7c-.3 0-.5.2-.5.5v11c0 .2.3.4.5.4zm1.7-9.8H73c2 0 2.3 1.1 2.3 1.7 0 .9-.6 1.8-2.3 1.8h-2.9v-3.5zm9-1.6v11c0 .3.2.5.5.5h3.8c1.8 0 3.4-.6 4.6-1.7 1.1-1.1 1.8-2.6 1.8-4.3 0-3.4-2.7-5.9-6.3-5.9h-3.8c-.4-.1-.6.1-.6.4zm2.2 1.6h2.1c2.4 0 4.1 1.6 4.1 3.9s-1.7 3.8-4.1 3.8h-2.1v-7.7zM35.1 56.2c.1.2.3.3.5.3h1.1c.2 0 .4-.1.5-.3l3.9-11V45c0-.3-.2-.5-.5-.5h-1.3c-.2 0-.4.1-.5.3l-2.7 7.8-2.6-7.8c-.1-.2-.3-.3-.5-.3h-1c-.2 0-.4.1-.5.3L29 52.6l-2.7-7.8c-.1-.2-.3-.3-.5-.3h-1.4c-.2 0-.3.1-.4.2-.1.1-.1.3-.1.4L28 56.2c.1.2.3.3.5.3h1c.2 0 .4-.1.5-.3l2.6-7.6 2.5 7.6zM42 45v11c0 .3.2.5.5.5h1.2c.3 0 .5-.2.5-.5V45c0-.3-.2-.5-.5-.5h-1.2c-.3 0-.5.2-.5.5zm5.4 11.5c.3 0 .5-.2.5-.5v-7.6l6.2 7.9c.1.1.2.2.4.2h1c.3 0 .5-.2.5-.5V45c0-.3-.2-.5-.5-.5h-1.2c-.3 0-.5.2-.5.5v7.4l-6.1-7.7c-.1-.1-.2-.2-.4-.2h-1.2c-.3 0-.5.2-.5.5v11c0 .3.2.5.5.5h1.3zM65.5 45v7.4l-6.1-7.7c-.1-.1-.2-.2-.4-.2h-1.2c-.3 0-.5.2-.5.5v11c0 .3.2.5.5.5H59c.3 0 .5-.2.5-.5v-7.6l6.2 7.9c.1.1.2.2.4.2h1c.3 0 .5-.2.5-.5V45c0-.3-.2-.5-.5-.5H66c-.2 0-.5.2-.5.5zm5.2 11.5c.3 0 .5-.2.5-.5V45c0-.3-.2-.5-.5-.5h-1.2c-.3 0-.5.2-.5.5v11c0 .3.2.5.5.5h1.2zm3.5-12H73c-.3 0-.5.2-.5.5v11c0 .3.2.5.5.5h1.2c.3 0 .5-.2.5-.5v-7.6l6.2 7.9c.1.1.2.2.4.2h1c.3 0 .5-.2.5-.5V45c0-.3-.2-.5-.5-.5h-1.2c-.3 0-.5.2-.5.5v7.4l-6.1-7.7c0-.1-.1-.2-.3-.2zm21 10v-4.4c0-.3-.2-.5-.5-.5h-4.5c-.3 0-.5.2-.5.5v1.1c0 .3.2.5.5.5H93v2c-.7.5-1.7.9-2.7.9-2.3 0-3.9-1.6-3.9-4.1 0-2.3 1.6-4 3.7-4 1.5 0 2.3.5 3 1.1.1.1.2.1.3.1.1 0 .2-.1.3-.2l.8-.9c.1-.1.1-.2.1-.4 0-.1-.1-.2-.2-.3-1.3-1.1-2.6-1.6-4.4-1.6-1.7 0-3.2.7-4.3 1.9-1.1 1.1-1.6 2.7-1.6 4.3 0 1.7.6 3.2 1.6 4.3 1.1 1.2 2.7 1.8 4.4 1.8 2.4 0 4-1.1 4.7-1.8.3 0 .4-.2.4-.3zm-10.9 7H60.7l-1.1-1-1 1H35v.5h23.6l1 1.1 1.1-1.1h23.6zM38.6 70l-1.2-3.4-1.2 3.4h-3.6l2.9 2.2-1.1 3.4 3-2 2.9 2-1-3.4 2.9-2.2zm11.1 0-1.2-3.4-1.2 3.4h-3.6l2.9 2.2-1 3.4 2.9-2 3 2-1.1-3.4 2.9-2.2zm11.1 0-1.2-3.4-1.1 3.4h-3.6l2.8 2.2-1 3.4 2.9-2 3 2-1.1-3.4 2.9-2.2zm11.1 0-1.1-3.4-1.2 3.4H66l2.8 2.2-1 3.4 3-2 2.9 2-1-3.4 2.8-2.2zM83 70l-1.1-3.4-1.2 3.4h-3.6l2.9 2.2-1.1 3.4 3-2 2.9 2-1-3.4 2.8-2.2z"/></svg>