<svg xmlns="http://www.w3.org/2000/svg" viewBox="0 0 86.7 86.7"><path d="M43.8 29.2v-9.5H29.6c-1.3 0-2.4 1.1-2.4 2.4v42.8c0 1.3 1.1 2.4 2.4 2.4h28.5c1.3 0 2.4-1.1 2.4-2.4V36.4H51c-4 0-7.2-3.3-7.2-7.2zm-7.1 16.7h7.1c1.3 0 2.4 1.1 2.4 2.4s-1.1 2.4-2.4 2.4h-7.1c-1.3 0-2.4-1.1-2.4-2.4s1.1-2.4 2.4-2.4zm16.6 11.8c0 1.3-1.1 2.4-2.4 2.4H36.7c-1.3 0-2.4-1.1-2.4-2.4 0-1.3 1.1-2.4 2.4-2.4H51c1.2.1 2.3 1.1 2.3 2.4z"/><path d="M50.9 31.6H57l-8.5-8.5v6.1c.1 1.3 1.1 2.4 2.4 2.4z"/><path d="M43.8 1.5c-23.2 0-42 18.8-42 42s18.8 42 42 42 42-18.8 42-42-18.8-42-42-42zm21.4 63.4c0 3.9-3.2 7.1-7.1 7.1H29.6c-3.9 0-7.1-3.2-7.1-7.1V22.1c0-3.9 3.2-7.1 7.1-7.1h16.6c.6 0 1.2.2 1.7.7l16.6 16.6c.5.5.7 1.1.7 1.7v30.9z"/></svg>