<svg xmlns="http://www.w3.org/2000/svg" viewBox="0 0 71.94 71.94"><path d="M35.97.55C16.41.55.56 16.41.56 35.96c0 19.56 15.86 35.41 35.41 35.41 19.55 0 35.41-15.86 35.41-35.41C71.38 16.41 55.53.55 35.97.55zm0 59.22c-1.83 0-3.34-1.51-3.34-3.34 0-1.83 1.51-3.34 3.34-3.34 1.83 0 3.34 1.51 3.34 3.34 0 1.84-1.51 3.34-3.34 3.34zm5.02-15.03c-1.51.5-2.5 1.83-2.5 3.34 0 1.34-1.17 2.5-2.5 2.5s-2.5-1.17-2.5-2.5c0-3.68 2.34-6.85 6.01-8.01 5.18-1.83 8.18-7.02 7.19-12.53-.84-4.18-4.18-7.69-8.52-8.51-7-1.4-13.19 4.13-13.19 10.69 0 1.34-1.17 2.5-2.5 2.5s-2.34-1.17-2.34-2.5c0-9.54 8.75-17.37 19.04-15.53 6.18 1.17 11.19 6.18 12.36 12.36 1.47 8-2.87 15.69-10.55 18.19z"/></svg>