<svg xmlns="http://www.w3.org/2000/svg" viewBox="0 0 129.58 249.9"><path d="M.64 167.25h2.18c.35 0 .64-.29.64-.64v-8.12h9.88v8.12c0 .35.28.64.64.64h2.18c.35 0 .64-.29.64-.64v-19.46c0-.35-.29-.64-.64-.64h-2.18c-.35 0-.64.29-.64.64v8.01H3.46v-8.01c0-.35-.29-.64-.64-.64H.64c-.35 0-.64.29-.64.64v19.46c0 .36.29.64.64.64m25.44-12.87c.61 0 1.15.11 1.6.34.46.23.85.53 1.17.91.32.38.58.84.76 1.36.11.32.2.66.27 1.01h-7.67c.08-.37.19-.72.33-1.05.23-.52.52-.98.87-1.36.35-.37.75-.67 1.2-.88.45-.22.94-.33 1.47-.33m-5.13 10.95c.7.72 1.54 1.28 2.48 1.67.94.39 1.95.59 3.01.59 1.46 0 2.71-.27 3.72-.81.99-.53 1.87-1.23 2.64-2.1.23-.26.21-.67-.05-.9l-1.33-1.19a.628.628 0 0 0-.88.03 7.1 7.1 0 0 1-1.78 1.35c-.61.32-1.37.48-2.26.48-.55 0-1.08-.09-1.57-.28a4.14 4.14 0 0 1-1.34-.82c-.4-.36-.73-.81-.99-1.34-.17-.34-.3-.73-.38-1.15h10.56c.32 0 .59-.24.63-.55.02-.16.03-.31.03-.45v-.31c0-1.12-.16-2.18-.47-3.17-.32-1-.8-1.89-1.42-2.64a6.883 6.883 0 0 0-2.31-1.79c-.91-.44-1.95-.66-3.09-.66-1.08 0-2.1.22-3.02.64-.91.42-1.71 1.01-2.37 1.75-.66.74-1.18 1.61-1.55 2.6-.37.99-.55 2.05-.55 3.16 0 1.19.21 2.3.62 3.3.4 1 .97 1.87 1.67 2.59m14.66 1.92h2.13c.35 0 .64-.29.64-.64v-20.3c0-.35-.28-.64-.64-.64h-2.13c-.35 0-.64.29-.64.64v20.3c0 .36.29.64.64.64m8.65-7.84c0-.74.13-1.42.38-2.02.25-.6.59-1.11 1.02-1.53.43-.42.92-.75 1.46-.99.53-.23 1.09-.35 1.67-.35.59 0 1.16.11 1.69.34.52.22.99.55 1.39.97.4.43.73.95.96 1.55.24.6.36 1.3.36 2.06 0 .78-.12 1.49-.36 2.1-.24.61-.55 1.12-.94 1.53-.39.4-.85.72-1.38.93a4.4 4.4 0 0 1-3.38-.02c-.54-.24-1.03-.57-1.46-.99a4.76 4.76 0 0 1-1.02-1.54c-.27-.61-.39-1.3-.39-2.04m-2.69 12.29h2.13c.35 0 .64-.29.64-.64v-5.45c.36.35.75.66 1.18.93.49.31 1.04.56 1.65.74.61.18 1.28.28 2.01.28.95 0 1.88-.19 2.77-.56.89-.37 1.7-.92 2.39-1.61.69-.7 1.25-1.55 1.67-2.55.42-1 .63-2.15.63-3.42s-.21-2.42-.63-3.42c-.42-1-.99-1.86-1.69-2.56a7.37 7.37 0 0 0-2.4-1.6c-.89-.36-1.81-.55-2.74-.55-.73 0-1.4.1-2 .3-.6.19-1.14.45-1.63.77-.43.28-.84.61-1.2.99v-1.1c0-.36-.29-.64-.64-.64h-2.13c-.35 0-.64.29-.64.64v18.82c0 .35.28.63.63.63m17.3-21.96h2.43c.35 0 .64-.29.64-.64v-2.36c0-.35-.28-.64-.64-.64h-2.43c-.35 0-.64.29-.64.64v2.36c0 .35.28.64.64.64m2.9 16.87v-14.38c0-.35-.29-.64-.64-.64H59c-.35 0-.64.29-.64.64v14.38c0 .35.29.64.64.64h2.13c.35.01.64-.28.64-.64m3.2.64h2.13c.35 0 .64-.29.64-.64v-8.23c0-.59.09-1.13.27-1.6.18-.47.43-.88.76-1.21.32-.33.71-.59 1.15-.77.45-.18.94-.27 1.46-.27 1.09 0 1.89.31 2.45.95.57.65.86 1.58.86 2.75v8.4c0 .35.29.64.64.64h2.13c.35 0 .64-.29.64-.64v-8.93c0-.92-.14-1.78-.41-2.55a5.79 5.79 0 0 0-1.21-2.04 5.317 5.317 0 0 0-1.94-1.34c-.75-.31-1.6-.47-2.55-.47-1.36 0-2.5.32-3.38.94-.31.22-.6.46-.87.72v-.71c0-.35-.29-.64-.64-.64h-2.13c-.35 0-.64.29-.64.64v14.38c0 .34.29.62.64.62m25.42-5.46c-.43.37-.92.66-1.47.87-1.09.4-2.34.42-3.4 0-.52-.2-.97-.49-1.36-.87-.39-.38-.7-.83-.94-1.35a4.32 4.32 0 0 1-.35-1.76c0-.65.11-1.24.33-1.76.22-.52.53-.97.92-1.33.39-.37.84-.65 1.36-.84.53-.2 1.1-.29 1.7-.29.6 0 1.19.1 1.74.31s1.05.5 1.47.87c.42.37.76.82 1.02 1.34.25.51.38 1.1.38 1.73 0 .64-.13 1.22-.38 1.73-.25.53-.59.98-1.02 1.35m4.08-10.19h-2.13c-.35 0-.64.29-.64.64v.93c-.38-.35-.81-.67-1.27-.93-.5-.28-1.06-.51-1.67-.69-.62-.17-1.29-.26-2.01-.26-.92 0-1.83.17-2.72.52-.88.34-1.68.84-2.36 1.48-.69.64-1.24 1.43-1.65 2.35-.41.92-.62 1.97-.62 3.11s.21 2.19.62 3.1c.41.91.97 1.69 1.65 2.33.68.64 1.47 1.13 2.35 1.47.87.33 1.79.5 2.73.5 1.43 0 2.66-.33 3.66-.99.47-.31.91-.65 1.31-1.02v.04c0 1.51-.39 2.61-1.2 3.35-.82.76-1.92 1.13-3.35 1.13-.96 0-1.86-.15-2.69-.44-.84-.29-1.66-.73-2.44-1.28a.64.64 0 0 0-.5-.1c-.18.04-.33.15-.42.3l-.97 1.67c-.17.29-.09.66.19.85 1.01.7 2.1 1.24 3.24 1.59 1.14.35 2.36.53 3.61.53 1.17 0 2.24-.16 3.2-.48.98-.32 1.82-.81 2.52-1.46a6.55 6.55 0 0 0 1.63-2.42c.37-.94.55-2.05.55-3.29v-11.87a.615.615 0 0 0-.62-.66m9.59 3.17h1.35v8.03c0 .8.12 1.51.35 2.1.24.61.58 1.12 1.01 1.51.43.39.94.67 1.53.85.56.16 1.15.25 1.78.25.56 0 1.08-.06 1.55-.17.47-.11.91-.29 1.33-.52.2-.11.33-.33.33-.56v-1.84a.65.65 0 0 0-.3-.55.624.624 0 0 0-.62-.03c-.32.16-.62.28-.89.34-.28.06-.58.1-.89.1-.58 0-1.01-.13-1.35-.39-.28-.22-.42-.68-.42-1.36v-7.76h3.89c.35 0 .64-.29.64-.64v-1.89c0-.35-.29-.64-.64-.64h-3.89v-3.7c0-.35-.29-.64-.64-.64h-2.13c-.35 0-.64.29-.64.64v3.7h-1.35c-.35 0-.64.29-.64.64v1.89c0 .35.28.64.64.64m17.4-.31c.66 0 1.28.13 1.83.39.57.26 1.07.62 1.49 1.07.42.45.75.98.99 1.58.24.61.36 1.27.36 1.96s-.12 1.35-.34 1.95c-.23.6-.55 1.12-.95 1.56-.4.43-.89.78-1.45 1.03-.56.25-1.19.38-1.87.38-.66 0-1.28-.13-1.83-.38-.57-.26-1.06-.61-1.47-1.05-.41-.44-.74-.97-.97-1.57-.24-.61-.36-1.26-.36-1.96 0-.69.12-1.35.35-1.95.23-.6.55-1.13.94-1.58.39-.44.87-.79 1.42-1.03.55-.27 1.18-.4 1.86-.4m-5.76 10.73c.72.73 1.57 1.32 2.55 1.75.98.43 2.06.65 3.21.65s2.24-.22 3.24-.65a7.91 7.91 0 0 0 2.58-1.77c.72-.74 1.29-1.62 1.69-2.61.41-.99.62-2.05.62-3.15s-.2-2.15-.6-3.14c-.4-.98-.96-1.85-1.68-2.58a8.2 8.2 0 0 0-2.56-1.75 8.02 8.02 0 0 0-3.22-.65c-1.17 0-2.26.22-3.25.65-.98.43-1.85 1.03-2.57 1.77-.72.74-1.28 1.62-1.68 2.61-.4.99-.6 2.05-.6 3.15s.2 2.15.6 3.13c.39.98.95 1.85 1.67 2.59M4.73 194.97c0-1.08.19-2.08.55-2.96.37-.88.87-1.64 1.5-2.25.63-.62 1.35-1.11 2.15-1.45.79-.34 1.61-.51 2.46-.51.87 0 1.71.17 2.49.5.77.33 1.46.81 2.05 1.43.59.63 1.07 1.39 1.41 2.28.35.88.52 1.9.52 3.01 0 1.14-.18 2.17-.52 3.07-.35.89-.81 1.65-1.39 2.25a5.85 5.85 0 0 1-2.04 1.38c-1.56.63-3.38.66-4.98-.03-.8-.35-1.52-.83-2.15-1.45-.63-.61-1.13-1.38-1.5-2.27-.36-.92-.55-1.92-.55-3m-.52-10.78h-3c-.35 0-.64.29-.64.64v26.6c0 .35.28.64.64.64h3.01c.35 0 .64-.29.64-.64v-8.35c.08.09.17.18.25.27a9.3 9.3 0 0 0 4.08 2.48c.84.25 1.77.38 2.76.38 1.3 0 2.58-.26 3.82-.78 1.23-.51 2.34-1.26 3.29-2.22.95-.96 1.73-2.15 2.3-3.53.58-1.38.87-2.97.87-4.73 0-1.76-.29-3.35-.87-4.73-.58-1.38-1.36-2.57-2.33-3.53a10.09 10.09 0 0 0-7.08-2.95c-1 0-1.93.14-2.75.4-.82.27-1.57.62-2.24 1.05-.67.43-1.28.95-1.82 1.54l-.28.31v-2.23a.65.65 0 0 0-.65-.62m32.59 4.19c.35 0 .64-.29.64-.64v-3.26c0-.35-.27-.63-.62-.64-1.03-.03-2.01.1-2.9.38-.89.28-1.73.7-2.48 1.25-.75.54-1.42 1.2-2 1.95-.08.1-.15.2-.23.3v-2.89c0-.35-.28-.64-.64-.64h-3c-.35 0-.64.29-.64.64v20.31c0 .35.28.64.64.64h3c.35 0 .64-.29.64-.64v-8.09c0-1.44.2-2.72.59-3.81.39-1.08.92-1.99 1.58-2.71.66-.71 1.44-1.25 2.33-1.61.9-.36 1.86-.54 2.87-.54h.22zm16.31 11.77c-.59.64-1.31 1.15-2.13 1.52-.83.37-1.75.55-2.75.55-.97 0-1.88-.19-2.7-.57-.83-.38-1.56-.9-2.16-1.54-.6-.64-1.09-1.42-1.43-2.3-.35-.89-.52-1.85-.52-2.86 0-1.01.17-1.97.5-2.85.33-.88.8-1.65 1.38-2.31.57-.65 1.28-1.16 2.1-1.52.83-.37 1.75-.55 2.75-.55.97 0 1.88.19 2.7.57.83.38 1.56.91 2.18 1.56.62.65 1.1 1.43 1.45 2.32.35.89.52 1.85.52 2.86 0 1.01-.17 1.97-.5 2.85-.32.86-.79 1.63-1.39 2.27m-.49 5.21c1.37-.59 2.57-1.41 3.56-2.44a11.25 11.25 0 0 0 2.34-3.6c.56-1.37.85-2.83.85-4.35 0-1.52-.28-2.97-.83-4.33s-1.33-2.56-2.32-3.57c-.99-1.01-2.18-1.82-3.54-2.42-1.36-.6-2.86-.9-4.45-.9-1.62 0-3.13.3-4.49.9-1.36.6-2.55 1.42-3.54 2.44-.99 1.03-1.77 2.24-2.32 3.6-.55 1.37-.83 2.83-.83 4.35 0 1.52.28 2.98.83 4.33a10.9 10.9 0 0 0 2.32 3.57c.99 1.01 2.17 1.82 3.52 2.42 1.35.6 2.84.9 4.43.9 1.59 0 3.1-.31 4.47-.9m7.58-20.53v2.67c0 .35.28.64.64.64h2.17v11.62c0 1.1.16 2.06.47 2.87.32.82.78 1.51 1.36 2.03.58.52 1.27.9 2.06 1.14.76.23 1.58.34 2.44.34.77 0 1.49-.08 2.12-.23.64-.16 1.25-.4 1.82-.71.2-.11.33-.33.33-.56v-2.59a.65.65 0 0 0-.3-.55.624.624 0 0 0-.62-.03c-.47.24-.92.41-1.32.5-.41.09-.85.14-1.32.14-.88 0-1.55-.2-2.06-.61-.46-.37-.69-1.08-.69-2.13v-11.22h5.76c.35 0 .64-.29.64-.64v-2.67c0-.35-.28-.64-.64-.64H67.3v-5.49c0-.35-.29-.64-.64-.64h-3.01c-.35 0-.64.29-.64.64v5.49h-2.17a.63.63 0 0 0-.64.63m18.59 8.39c.12-.66.3-1.28.55-1.85.33-.77.76-1.44 1.28-2 .51-.55 1.11-.99 1.78-1.31.66-.31 1.39-.47 2.17-.47.9 0 1.7.17 2.38.5.68.34 1.26.79 1.74 1.35.48.57.86 1.24 1.13 2 .2.57.35 1.16.44 1.77H78.79zm13.29-6.09a9.418 9.418 0 0 0-3.18-2.46c-1.25-.6-2.68-.91-4.26-.91-1.49 0-2.89.3-4.15.88-1.26.58-2.36 1.4-3.27 2.41-.91 1.01-1.63 2.22-2.13 3.58-.51 1.36-.76 2.83-.76 4.37 0 1.65.29 3.19.86 4.57s1.35 2.58 2.32 3.57c.97.99 2.12 1.76 3.42 2.3 1.3.54 2.69.82 4.15.82 2.02 0 3.75-.38 5.14-1.12 1.36-.73 2.59-1.71 3.65-2.91.23-.26.21-.67-.05-.9l-1.87-1.69a.628.628 0 0 0-.88.03c-.78.81-1.65 1.47-2.59 1.96-.9.47-2.02.71-3.32.71-.81 0-1.58-.14-2.32-.41a6.188 6.188 0 0 1-3.43-3.18c-.29-.59-.5-1.26-.63-2h15.24c.32 0 .59-.24.63-.55.03-.22.04-.42.04-.6v-.43c0-1.55-.22-3.03-.65-4.4-.44-1.39-1.1-2.61-1.96-3.64M99 202.94c.97 1.01 2.14 1.82 3.48 2.42 1.34.6 2.81.9 4.38.9 2 0 3.72-.4 5.1-1.2 1.34-.78 2.56-1.78 3.61-2.98a.64.64 0 0 0-.04-.89l-1.91-1.81a.634.634 0 0 0-.9.03c-.76.82-1.62 1.5-2.56 2.04-.9.52-1.96.78-3.14.78-.97 0-1.87-.19-2.69-.55-.81-.37-1.53-.88-2.14-1.54a7.173 7.173 0 0 1-1.43-2.33c-.35-.89-.52-1.85-.52-2.86 0-1.01.17-1.97.5-2.85.33-.87.8-1.65 1.4-2.31.59-.65 1.29-1.17 2.1-1.53a6.1 6.1 0 0 1 2.58-.55c1.25 0 2.31.27 3.15.8.9.57 1.75 1.27 2.52 2.07.12.13.3.2.46.19.17 0 .34-.07.46-.2l1.99-2.12c.23-.25.23-.64 0-.88-.48-.51-1.01-1.01-1.58-1.47-.58-.47-1.22-.89-1.91-1.23-.69-.35-1.46-.62-2.29-.82-.83-.19-1.75-.29-2.76-.29-1.56 0-3.04.3-4.38.9-1.33.6-2.5 1.42-3.48 2.44s-1.75 2.24-2.3 3.6c-.55 1.37-.83 2.83-.83 4.35s.28 2.97.83 4.33c.55 1.35 1.32 2.55 2.3 3.56m29.95-18.75h-5.76v-5.49c0-.35-.29-.64-.64-.64h-3.01c-.35 0-.64.29-.64.64v5.49h-2.17c-.35 0-.64.29-.64.64v2.67c0 .35.29.64.64.64h2.17v11.62c0 1.1.16 2.06.47 2.87.32.82.78 1.51 1.36 2.03.58.52 1.27.9 2.06 1.14.76.23 1.58.34 2.44.34.77 0 1.49-.08 2.12-.23.64-.15 1.25-.39 1.81-.71.2-.11.33-.33.33-.56v-2.59a.65.65 0 0 0-.3-.55.624.624 0 0 0-.62-.03c-.47.24-.92.4-1.32.5-.41.09-.85.14-1.32.14-.88 0-1.55-.2-2.06-.61-.46-.37-.69-1.08-.69-2.13v-11.22h5.76c.35 0 .64-.29.64-.64v-2.67c0-.37-.28-.65-.63-.65m-96.62 42.79h-3.25c-.28 0-.52.18-.61.44l-4.93 15.13-5.08-15.22a.643.643 0 0 0-.6-.44h-2.6c-.28 0-.52.18-.61.44l-5.04 15.21-4.91-15.12a.633.633 0 0 0-.6-.44H.76c-.21 0-.4.1-.52.27s-.15.39-.08.58l7.35 21.31c.09.26.33.43.6.43h2.76c.27 0 .51-.17.6-.43l5.08-14.91 5.05 14.91c.09.26.33.43.6.43h2.72c.27 0 .51-.17.6-.43l7.39-21.31a.63.63 0 0 0-.08-.58.57.57 0 0 0-.5-.27m6.99 0h-3.13c-.35 0-.64.29-.64.64v21.14c0 .35.28.64.64.64h3.13c.35 0 .64-.29.64-.64v-21.14c0-.36-.29-.64-.64-.64m.24-8.1h-3.58c-.35 0-.64.29-.64.64V223c0 .35.28.64.64.64h3.58c.35 0 .64-.29.64-.64v-3.48c0-.35-.29-.64-.64-.64m8.82-.61h-3.13c-.35 0-.64.29-.64.64v29.86c0 .36.28.64.64.64h3.13c.35 0 .64-.29.64-.64v-29.86c0-.36-.29-.64-.64-.64m21.99 19.9c0 1.13-.19 2.18-.58 3.11-.38.93-.91 1.73-1.56 2.37a7.27 7.27 0 0 1-2.25 1.52c-1.67.73-3.57.7-5.17.02-.81-.34-1.53-.85-2.14-1.5-.62-.66-1.11-1.46-1.47-2.38-.36-.92-.54-1.98-.54-3.14 0-1.19.18-2.27.55-3.21.36-.93.85-1.72 1.45-2.35.6-.62 1.31-1.11 2.12-1.44.81-.33 1.7-.5 2.64-.5.88 0 1.75.18 2.57.54.83.36 1.59.87 2.25 1.52a7.05 7.05 0 0 1 1.56 2.35c.38.92.57 1.96.57 3.09m3.65-19.9h-3.13c-.35 0-.64.29-.64.64v10.92c-.1-.11-.2-.22-.31-.33-.56-.58-1.19-1.09-1.89-1.53-.7-.44-1.49-.79-2.35-1.05-.87-.26-1.83-.4-2.86-.4-1.35 0-2.68.27-3.94.81-1.26.53-2.41 1.31-3.41 2.3-1 1-1.82 2.23-2.42 3.67-.6 1.44-.9 3.09-.9 4.91 0 1.82.3 3.47.9 4.91.6 1.44 1.41 2.67 2.42 3.66 1 .99 2.15 1.76 3.41 2.28 1.26.52 2.59.78 3.94.78 1.03 0 1.99-.13 2.85-.4a8.68 8.68 0 0 0 2.34-1.1c.69-.46 1.32-1 1.88-1.61.11-.12.23-.25.34-.38v2.39c0 .36.29.64.64.64h3.13c.35 0 .64-.29.64-.64v-29.86a.639.639 0 0 0-.64-.61m8.77 0h-3.13c-.35 0-.64.29-.64.64v29.86c0 .36.29.64.64.64h3.13c.35 0 .64-.29.64-.64v-29.86c0-.36-.29-.64-.64-.64m9.06 8.71h-3.13c-.35 0-.64.29-.64.64v21.14c0 .35.29.64.64.64h3.13c.35 0 .64-.29.64-.64v-21.14c0-.36-.29-.64-.64-.64m.24-8.1h-3.58c-.35 0-.64.29-.64.64V223c0 .35.29.64.64.64h3.58c.35 0 .64-.29.64-.64v-3.48c0-.35-.28-.64-.64-.64m16.97 11.52v-2.7c0-.35-.29-.64-.64-.64h-6.03v-1.08c0-3.46 1.72-3.86 3.02-3.86.5 0 .96.04 1.37.13.44.09.95.22 1.5.38.19.06.4.02.56-.1.16-.12.25-.31.25-.51v-2.74c0-.27-.17-.51-.42-.6-.55-.21-1.12-.35-1.69-.44-.56-.09-1.23-.13-1.99-.13-2.21 0-3.94.68-5.16 2.01-1.2 1.32-1.81 3.24-1.81 5.71v1.2h-2.25c-.35 0-.64.29-.64.64v2.74c0 .35.29.64.64.64h2.25v17.72c0 .35.29.64.64.64h3.13c.35 0 .64-.29.64-.64v-17.72h5.99c.36-.01.64-.3.64-.65m3.96 5.99c.12-.7.32-1.36.58-1.97.35-.8.79-1.5 1.34-2.09.53-.58 1.16-1.04 1.86-1.37.69-.33 1.46-.49 2.28-.49.94 0 1.78.18 2.48.53.71.35 1.32.83 1.82 1.41.5.59.89 1.29 1.18 2.09.21.6.37 1.23.47 1.88h-12.01zm13.85-6.36a9.89 9.89 0 0 0-3.3-2.56c-1.3-.63-2.79-.94-4.42-.94-1.55 0-3 .31-4.31.92-1.3.61-2.45 1.45-3.4 2.5-.94 1.05-1.69 2.3-2.22 3.72-.53 1.42-.79 2.94-.79 4.54 0 1.71.3 3.31.89 4.74.59 1.44 1.4 2.68 2.41 3.7a10.79 10.79 0 0 0 3.55 2.39c1.35.56 2.79.85 4.31.85 2.1 0 3.89-.39 5.34-1.16 1.42-.76 2.69-1.77 3.79-3.03.23-.26.21-.67-.05-.9l-1.95-1.76a.628.628 0 0 0-.88.03c-.81.85-1.72 1.53-2.7 2.04-.94.49-2.11.74-3.46.74-.84 0-1.66-.15-2.42-.43s-1.45-.71-2.07-1.26a6.77 6.77 0 0 1-1.52-2.06c-.31-.63-.53-1.34-.66-2.12h15.89c.32 0 .59-.24.63-.55.03-.22.05-.43.05-.62v-.45c0-1.61-.23-3.15-.68-4.57-.45-1.42-1.14-2.69-2.03-3.76M102.05 44.08c.12-5.43-.17-24.38-9.11-36.69C87.52-.08 83.5-.57 81.09.35c-4.01 1.49-5.94 7.74-5.48 17.15-3.91-4.72-7.01-6.94-8.91-8.31l-.68-.49c-2.11-1.57-5.28-2.73-7.84-1.28-3.03 1.72-4.04 6.42-3 13.95 1.98 14.47 20.19 29.98 23.4 32.62-1.3 2.32-1.94 4.66-2.24 6.55-2.94-1.95-8.89-4.1-20.81-4.1-18.08 0-36.3 8.73-41.55 27.9-.47-.05-.94-.08-1.42-.08C5.62 84.25 0 89.6 0 96.17c0 6.58 5.62 11.93 12.54 11.93.5 0 1-.04 1.5-.09 4.55 15.75 18.77 24.54 40.54 24.54 6.67 0 12.44-1.07 17.17-3.18h24.76c.5 0 1.02.02 1.61.04 2.66.08 5.68.18 7.64-1.71 1.14-1.1 1.72-2.69 1.72-4.74 0-5.18-4.19-7.11-6.03-7.7l8.1-24.05c18.07-.55 20.03-13.52 20.03-19.1 0-5.73-4.76-26.55-27.53-28.03zm4.75 44.99-9.05 26.88c-.16.46-.09.99.18 1.41.27.41.72.69 1.21.74.21.02 5.05.6 5.05 4.86 0 1.14-.23 1.92-.71 2.38-.96.92-3.12.85-5.28.79-.57-.02-1.14-.04-1.68-.04H77.25c5.51-4.33 8.53-10.66 8.53-17.96 0-13.06-11.98-17.9-12.1-17.95a1.64 1.64 0 0 0-2.1 2.19c.18.4.5.71.91.87.41.16 10 3.99 10 14.89 0 10.22-7.33 21.13-27.91 21.13-14.5 0-38.83-4.31-38.83-33.18 0-26.84 21.42-36.36 39.76-36.36 17.05 0 20.27 4.52 20.65 5.18.23.78 1.04 1.28 1.86 1.15.84-.15 1.43-.9 1.36-1.75-.02-.27-.4-6.69 4.05-11.49 3.41-3.68 8.8-5.54 16.01-5.54 22.29 0 26.84 19.59 26.84 24.84 0 7.22-3.11 15.83-17.92 15.83-.71 0-1.33.46-1.56 1.13zm-94.35 7.01c0 3.02.27 5.87.78 8.55-.23.02-.46.03-.7.03-4.94 0-8.96-3.81-8.96-8.48 0-4.68 4.02-8.48 8.96-8.48.22 0 .44.02.66.03-.47 2.61-.74 5.38-.74 8.35zM76.23 24c.08.55.43 1 .91 1.24 3.25 4.88 6.92 11.55 10.84 20.7-2.77 1.1-5.12 2.64-7 4.67-.18.2-.34.4-.51.6-3.55-2.98-20.22-17.57-21.96-30.29-1.17-8.49.73-10.28 1.34-10.63 1.05-.6 2.82.1 4.11 1.06l.72.53c2.27 1.63 6.33 4.54 11.53 12 .01.04.02.08.02.12zm22.36 20.01c-2.67.05-5.14.34-7.37.88-4.21-9.85-8.16-16.94-11.67-22.11-1.68-12.77.7-18.57 2.76-19.34 1.72-.64 4.72 1.6 7.8 5.85 8.28 11.41 8.57 29.66 8.48 34.72z"/><path d="M114.18 64.21c0-2.11-1.74-3.83-3.87-3.83s-3.87 1.72-3.87 3.83c0 2.11 1.74 3.83 3.87 3.83 2.14 0 3.87-1.72 3.87-3.83z"/></svg>