<svg xmlns="http://www.w3.org/2000/svg" viewBox="0 0 219.4 219.6"><path d="M198.1 0H21.3C9.6 0 0 9.6 0 21.3v176.9c0 11.8 9.6 21.3 21.3 21.3h176.8c11.8 0 21.3-9.6 21.3-21.3V21.3c0-11.7-9.6-21.3-21.3-21.3zm0 214.6H21.3c-9 0-16.3-7.3-16.3-16.3v-177C5 12.3 12.3 5 21.3 5h176.8c9 0 16.3 7.3 16.3 16.3v176.9c0 9-7.3 16.4-16.3 16.4z"/><path d="M66.8 140c-.6-.6-1.2-1.2-2.1-1.7-.8-.5-1.8-.6-2.9-.6s-2 .2-2.7.6c-.8.5-1.5.9-2.1 1.5-.6.6-1.1 1.4-1.4 2.3s-.6 1.9-.6 2.8c0 1.1.2 2.1.6 2.9.3.9.9 1.7 1.5 2.3.6.6 1.4 1.1 2.3 1.5.9.3 1.8.5 2.7.5 1.2 0 2.4-.3 3.4-.8.9-.5 1.7-1.1 2.3-1.8.2-.2.2-.3 0-.5l-1.8-1.5c-.2-.2-.3-.2-.5 0-.5.5-1.1.9-1.5 1.1-.5.3-1.1.3-1.8.3-.9 0-1.7-.3-2.3-.8-.5-.5-.9-1.1-1.1-1.8H68c.2 0 .3-.2.3-.3v-1c0-.9-.2-2-.5-2.7-.1-.7-.6-1.5-1-2.3zm-8.1 3.7c.2-.8.5-1.4.9-1.8.6-.6 1.2-.9 2-.9.5 0 .8.2 1.2.3.3.2.6.5.9.6.3.3.5.6.6.9.2.3.2.6.3.9h-5.9zm19.5 1.7v-2.9c0-.2-.2-.3-.3-.3h-7.3c-.2 0-.3.2-.3.3v2.9c0 .2.2.3.3.3h7.3c.2.1.3 0 .3-.3zm13.1-11.2c-.9-.3-1.8-.5-2.9-.5h-6.9c-.2 0-.3.2-.3.3v17.4c0 .2.2.3.3.3h3.1c.2 0 .3-.2.3-.3v-5.2H88c.9 0 2-.2 2.7-.5.9-.3 1.7-.6 2.3-1.2.6-.5 1.2-1.2 1.5-2 .5-.8.6-1.7.6-2.7 0-.9-.2-1.8-.5-2.6s-.8-1.4-1.4-2c-.3-.2-1.1-.6-1.9-1zm-.6 8c-.6.5-1.5.8-2.6.8h-3.2v-5.6h3.2c1.1 0 2 .3 2.6.8.6.5.9 1.1.9 2.1 0 .8-.3 1.4-.9 1.9zm20 5.6c.3-.9.6-1.8.6-2.7s-.2-2-.6-2.7c-.3-.9-.9-1.7-1.5-2.3-.6-.6-1.4-1.2-2.3-1.5-1.8-.8-4.1-.8-5.8 0-.9.5-1.7.9-2.3 1.5-.6.6-1.2 1.4-1.5 2.3-.3.9-.6 1.8-.6 2.7 0 1.1.2 2 .6 2.7.3.9.9 1.7 1.5 2.3.6.6 1.4 1.2 2.3 1.5.9.3 1.8.6 2.9.6s2-.2 2.9-.6c.9-.5 1.7-.9 2.3-1.5.7-.6 1.2-1.4 1.5-2.3zm-3.4-1.2c-.2.5-.5.9-.8 1.2-.3.3-.6.6-1.1.8-.9.5-2.1.5-3.1 0-.5-.2-.8-.5-1.2-.8-.3-.3-.6-.8-.8-1.2-.2-.5-.3-1.1-.3-1.5 0-.6.2-1.1.3-1.5.2-.5.5-.9.8-1.2.3-.3.8-.6 1.1-.8.5-.2.9-.3 1.5-.3s1.1.2 1.5.3c.5.2.8.5 1.2.8.3.3.6.8.8 1.2.2.5.3.9.3 1.5s0 1-.2 1.5zm7.7 3.5c.6.6 1.4 1.2 2.3 1.5.9.3 1.8.6 2.9.6 1.4 0 2.4-.3 3.4-.8s1.7-1.1 2.3-1.8c.2-.2.2-.3 0-.5l-1.8-1.8c-.2-.2-.3-.2-.5 0-.5.5-.9.8-1.5 1.1-.9.5-2.1.6-3.2.2-.5-.2-.8-.5-1.1-.8-.3-.3-.6-.8-.8-1.2-.2-.5-.3-1.1-.3-1.5s.2-1.1.3-1.5c.2-.5.5-.9.8-1.2.3-.3.6-.6 1.1-.8.5-.2.9-.3 1.4-.3.8 0 1.2.2 1.7.5s.9.6 1.4 1.1c0 0 .2.2.3.2s.2 0 .3-.2l1.8-2c.2-.2.2-.3 0-.5-.6-.8-1.4-1.2-2.3-1.7-.9-.5-2-.6-3.2-.6-1.1 0-2 .2-2.9.6-.9.5-1.7.9-2.3 1.5-.6.6-1.1 1.4-1.5 2.3-.3.9-.6 1.8-.6 2.7s.2 2 .6 2.7c.3.8.8 1.6 1.4 2.2zm16.3-17.1h-3.1c-.2 0-.3.2-.3.3v18.1c0 .2.2.3.3.3h3.1c.2 0 .3-.2.3-.3v-3.7l1.4-1.5 3.7 5.3c0 .2.2.2.3.2h3.5c.2 0 .3 0 .3-.2v-.3l-5.2-7.5 5-5.2c.2-.2.2-.3 0-.5 0-.2-.2-.2-.3-.2h-3.7c-.2 0-.2 0-.3.2l-4.9 5.2v-9.9c.2-.1 0-.3-.1-.3zm21.5 7c-.6-.6-1.2-1.2-2.1-1.7-.8-.5-1.8-.6-2.9-.6s-2 .2-2.7.6c-.8.3-1.5.9-2.1 1.5-.6.6-1.1 1.4-1.4 2.3-.3.9-.5 1.8-.5 2.7 0 1.1.2 2 .6 2.9.3.9.9 1.7 1.5 2.3.6.6 1.4 1.1 2.3 1.5.9.3 1.8.5 2.7.5 1.2 0 2.4-.3 3.4-.8.9-.5 1.7-1.1 2.3-1.8.2-.2.2-.3 0-.5l-1.8-1.5c-.2-.2-.3-.2-.5 0-.5.5-1.1.9-1.5 1.1-.5.3-1.1.3-1.8.3-.9 0-1.7-.3-2.3-.8-.5-.5-.9-1.1-1.1-1.8h9.2c.2 0 .3-.2.3-.3v-.8c0-.9-.2-2-.5-2.7-.2-.8-.7-1.6-1.1-2.4zm-8.1 3.7c.2-.8.5-1.4.9-1.8.6-.6 1.2-.9 2-.9.5 0 .8.2 1.2.3.3.2.6.3.9.6s.5.6.6.9c.2.3.2.6.3.9h-5.9zm19.5-5.6H161v-3.2c0-.2-.2-.3-.3-.3h-3.1c-.2 0-.3.2-.3.3v3.2H156c-.2 0-.3.2-.3.3v2.6c0 .2.2.3.3.3h1.4v6.6c0 .8.2 1.4.3 2 .2.6.5.9.9 1.4.3.3.8.6 1.4.8.5.2 1.1.2 1.7.2.6 0 1.1 0 1.5-.2.5-.2.9-.3 1.4-.5.2 0 .2-.2.2-.3v-2.4c0-.2 0-.3-.2-.3h-.3c-.6.3-1.1.5-1.7.5-.5 0-.8-.2-.9-.3s-.3-.5-.3-1.1v-6.1h3.2c.2 0 .3-.2.3-.3v-2.6c-.2-.5-.4-.6-.7-.6zm-77 38.2c-.2-.2-.3-.2-.5 0-.8.6-1.5 1.2-2.1 1.5-.8.3-1.5.6-2.6.6-.8 0-1.5-.2-2.1-.5s-1.2-.8-1.7-1.2c-.5-.5-.9-1.2-1.1-1.8-.3-.8-.5-1.5-.5-2.3s.2-1.5.5-2.3c.3-.8.6-1.4 1.1-1.8.5-.5 1.1-.9 1.7-1.2s1.4-.5 2.1-.5c.9 0 1.8.2 2.4.6.8.3 1.5.9 2.1 1.5 0 0 .2.2.3.2s.2 0 .3-.2l2-2.3c.2-.2.2-.3 0-.5-.5-.5-.9-.8-1.4-1.1-.5-.3-1.1-.6-1.5-.9-.6-.3-1.2-.5-1.8-.6-.6-.2-1.4-.2-2.3-.2-1.4 0-2.6.3-3.8.8-1.1.5-2.1 1.2-2.9 2-.8.9-1.5 1.8-2 3.1-.5 1.1-.6 2.3-.6 3.7 0 1.4.3 2.6.8 3.7s1.1 2.1 2 2.9c.8.8 1.8 1.5 2.9 2 1.1.5 2.3.8 3.7.8.8 0 1.7 0 2.3-.2.8-.2 1.4-.3 2-.6.6-.3 1.1-.6 1.7-1.1.5-.3.9-.8 1.5-1.4.2-.2.2-.3 0-.5l-2.5-2.2zm15.9-6.5c-.6-.6-1.4-1.2-2.3-1.5-1.8-.8-4.1-.8-5.8 0-.9.3-1.7.9-2.3 1.5-.6.6-1.2 1.4-1.5 2.3-.3.9-.6 1.8-.6 2.7s.2 2 .6 2.7c.3.9.9 1.7 1.5 2.3.6.6 1.4 1.2 2.3 1.5.9.3 1.8.6 2.9.6s2-.2 2.9-.6c.9-.5 1.7-.9 2.3-1.5.6-.6 1.2-1.4 1.5-2.3.3-.9.6-1.8.6-2.7s-.2-2-.6-2.7c-.3-.9-.9-1.7-1.5-2.3zm-1.9 6.7c-.2.5-.5.9-.8 1.2-.3.3-.6.6-1.1.8-.9.3-2.1.5-3.1 0-.5-.2-.8-.5-1.2-.8-.3-.3-.6-.8-.8-1.2-.2-.5-.3-1.1-.3-1.5 0-.6.2-1.1.3-1.5s.5-.9.8-1.2c.3-.3.8-.6 1.1-.8.5-.2.9-.3 1.5-.3.5 0 1.1.2 1.5.3.5.2.8.5 1.2.8.3.3.6.8.8 1.2s.3.9.3 1.5c.1.6 0 1-.2 1.5zm14.4-8.8c-1.2 0-2.3.3-3.1.9-.5.3-.9.8-1.2 1.2v-1.5c0-.2-.2-.3-.3-.3h-3.1c-.2 0-.3.2-.3.3v13.1c0 .2.2.3.3.3h3.1c.2 0 .3-.2.3-.3v-5c0-.8.2-1.5.3-2.1.2-.6.5-1.1.8-1.5.3-.5.8-.8 1.2-.9s1.1-.3 1.7-.3h.2c.2 0 .3-.2.3-.3V168c.1-.2-.1-.3-.2-.3zm12.8 2.2c-.6-.8-1.2-1.2-2.1-1.7-.8-.5-1.8-.6-2.9-.6-.9 0-2 .2-2.7.6-.8.3-1.5.9-2.1 1.5-.6.6-1.1 1.4-1.4 2.3-.3.9-.5 1.8-.5 2.7 0 1.1.2 2 .6 2.9.3.9.9 1.7 1.5 2.3.6.6 1.4 1.1 2.3 1.5.9.3 1.8.5 2.7.5 1.2 0 2.4-.3 3.4-.8s1.7-1.1 2.3-1.8c.2-.2.2-.3 0-.5l-1.8-1.5c-.2-.2-.3-.2-.5 0-.5.5-1.1.9-1.5 1.1-.5.3-1.1.3-1.8.3-.9 0-1.7-.3-2.3-.8-.5-.5-.9-1.1-1.1-1.8h9.2c.2 0 .3-.2.3-.3v-1c0-.9-.2-2-.5-2.7-.2-.8-.5-1.6-1.1-2.2zm-7.9 3.7c.2-.8.5-1.4.9-1.8.6-.6 1.2-.9 2-.9.5 0 .8.2 1.2.3.3.2.6.3.9.6s.5.6.6.9c.2.3.2.6.3.9h-5.9zm25-9.9c-.2 0-.3 0-.3.2l-2 3.2-2-3.2c0-.2-.2-.2-.3-.2h-1.5c-.2 0-.3.2-.3.3v7.6c0 .2.2.3.3.3h1.4c.2 0 .3-.2.3-.3v-4.3l1.7 2.6c0 .2.2.2.3.2h.2c.2 0 .3 0 .3-.2l1.7-2.6v4.3c0 .2.2.3.3.3h1.4c.2 0 .3-.2.3-.3V164c.3-.2.2-.3-.2-.3h-1.6zm-7.8 0h-6.3c-.2 0-.3.2-.3.3v1.4c0 .2.2.3.3.3h2v5.9c0 .2.2.3.3.3h1.5c.2 0 .3-.2.3-.3v-5.9h2c.2 0 .3-.2.3-.3V164c.2-.2 0-.3-.1-.3zm-45.2-60.3c3.4-1.7 6.3-4.1 8.7-7 .5-.6.5-1.4-.2-1.8l-6.6-5.8c-.5-.5-1.4-.5-1.8 0-1.8 1.8-3.8 3.2-5.6 4.1-1.8.9-4.1 1.4-6.6 1.4-3.4 0-6.1-.9-8.4-2.9-2-1.7-3.4-4-4-6.9h34.2c.6 0 1.2-.5 1.4-1.2 0-.6.2-1.1.2-1.7v-1.5c0-3.7-.5-7.2-1.5-10.5s-2.6-6.4-4.6-8.8c-2-2.6-4.7-4.6-7.8-6.1-3.1-1.5-6.7-2.3-10.8-2.3-3.7 0-7.2.8-10.2 2.1-3.1 1.4-5.6 3.4-7.9 5.8-2.3 2.4-4 5.3-5.2 8.5S54 75.5 54 79.2c0 4 .8 7.6 2 10.8 1.4 3.2 3.2 6.1 5.6 8.4 2.3 2.3 5.2 4.1 8.4 5.5 3.2 1.2 6.7 2 10.4 2 4.7.1 8.8-.6 12.1-2.5zm-21-36c2-2.1 4.4-3.2 7.6-3.2 1.7 0 3.1.3 4.4.9 1.2.6 2.4 1.4 3.4 2.4.9 1.1 1.7 2.3 2.3 3.7.5 1.1.8 2.1.9 3.2H68c.6-2.8 1.8-5.1 3.5-7zm88-23.4c-2.3-2-5-3.7-8.2-4.7s-6.7-1.5-10.7-1.5h-25.5c-.8 0-1.4.6-1.4 1.4v64.5c0 .8.6 1.4 1.4 1.4h11.3c.8 0 1.4-.6 1.4-1.4V84.2h11.6c3.7 0 7.2-.5 10.5-1.5 3.4-1.1 6.3-2.4 8.7-4.4 2.4-2 4.4-4.4 5.9-7.3 1.4-2.9 2.1-6.4 2.1-10.2 0-3.5-.6-6.7-1.8-9.5-1.3-2.9-3-5.4-5.3-7.3zm-10.4 24.4c-2.3 2-5.3 2.9-9.3 2.9h-11.9V50.5h11.7c4 0 7.2.9 9.5 2.6 2.1 1.7 3.4 4.3 3.4 7.8 0 3.2-1.1 5.6-3.4 7.5z"/></svg>