<?xml version="1.0" encoding="utf-8"?>
<!-- Generator: Adobe Illustrator 26.3.1, SVG Export Plug-In . SVG Version: 6.00 Build 0)  -->
<svg version="1.1" id="Layer_1" xmlns="http://www.w3.org/2000/svg" xmlns:xlink="http://www.w3.org/1999/xlink" x="0px" y="0px"
	 viewBox="0 0 431 521.7" style="enable-background:new 0 0 431 521.7;" xml:space="preserve">
<path d="M362,183.4V70c0-38.6-31.4-70-70-70H139c-38.6,0-70,31.4-70,70v113.4C30.3,187.2,0,220,0,259.6v185.4
	c0,42.3,34.4,76.7,76.7,76.7h277.7c42.3,0,76.7-34.4,76.7-76.7l0-185.4C431,220,400.7,187.2,362,183.4L362,183.4z M119.4,70
	c0-10.8,8.8-19.6,19.6-19.6H292c10.8,0,19.6,8.8,19.6,19.6v113H119.4L119.4,70z M380.6,445.1c0,14.5-11.8,26.3-26.3,26.3H76.6
	c-14.5,0-26.3-11.8-26.3-26.3l0-185.5c0-14.5,11.8-26.3,26.3-26.3h277.7c14.5,0,26.3,11.8,26.3,26.3L380.6,445.1z M215.5,307.7
	c-27.9,0-50.5,22.6-50.5,50.5s22.6,50.5,50.5,50.5S266,386,266,358.1S243.4,307.7,215.5,307.7z"/>
</svg>
