<svg xmlns="http://www.w3.org/2000/svg" viewBox="0 0 57.6 57.6"><path d="M28.8 0C12.9 0 0 12.9 0 28.8s12.9 28.8 28.8 28.8 28.8-12.9 28.8-28.8S44.7 0 28.8 0zm12.3 22.5v.8c0 8.4-6.4 18.1-18.1 18.1-3.5 0-6.9-1-9.8-2.9.5.1 1 .1 1.5.1 2.9 0 5.6-.9 7.9-2.7-2.7-.1-5.1-1.8-5.9-4.4.4.1.8.1 1.2.1.5 0 .9-.1 1.4-.2-3-.6-5.2-3.2-5.3-6.2v-.1c1 .5 2 .8 3.1.8-1.7-1.2-2.8-3.2-2.7-5.3 0-1.1.3-2.2.9-3.2 3.2 4 8 6.4 13.1 6.6-.1-.5-.1-1-.1-1.5 0-3.5 2.9-6.4 6.4-6.4 1.7 0 3.4.7 4.6 2 1.4-.3 2.8-.8 4-1.5-.5 1.5-1.5 2.7-2.8 3.5 1.3-.2 2.5-.5 3.7-1-.7 1.4-1.8 2.5-3.1 3.4z"/></svg>