<svg xmlns="http://www.w3.org/2000/svg" viewBox="0 0 94.2 77.6"><path d="M35.6 9.3c-.3-.3-.3-.9.1-1.2C41.6 2.9 49.3 0 57.2 0c18 0 32.7 14.7 32.7 32.7 0 6.4-1.8 12.6-5.3 17.9-.2.2-.4.4-.7.4-.2 0-.3 0-.4-.1-.4-.3-.5-.8-.2-1.1 3.3-5.1 5.1-10.9 5.1-17 0-17.1-13.9-31.1-31.1-31.1-7.5 0-14.8 2.7-20.5 7.7-.4.2-.9.2-1.2-.1zm18.7 51.9c-.2-.4-.7-.5-1.1-.3 0 0-1.3.7-4.7.6-1.5 0-3.4-.4-5.4-.9-3-.7-6.5-1.4-9.9-1.2-2 .1-3.8.6-5.5 1.1-3 .8-5.8 1.6-9.8.3-.4-.1-.8.1-1 .5-.1.4.1.9.5 1 4.4 1.4 7.6.6 10.6-.3 1.6-.5 3.3-.9 5.2-1 3.1-.2 6.5.5 9.5 1.2 2.1.5 4.1.9 5.7.9h.4c3.5 0 4.9-.7 5.1-.8.4-.2.6-.7.4-1.1zm20.9 9.9s-.8.4-2.9.4c-.9 0-2.2-.3-3.5-.6-2-.5-4.3-1-6.5-.9-1.4.1-2.6.4-3.7.8-2 .6-3.7 1.1-6.2.2-.4-.1-.8.1-1 .5-.1.4.1.9.5 1 3 1 5.1.4 7.1-.2 1.1-.3 2.2-.6 3.4-.7 2-.1 4.2.4 6.1.8 1.4.3 2.7.6 3.8.7h.3c2.4 0 3.4-.6 3.5-.6.4-.2.5-.7.3-1.1-.3-.4-.8-.6-1.2-.3zm-32.9 5.3s-.5.3-1.7.2c-.6 0-1.3-.2-2.1-.4-1.2-.3-2.5-.6-3.9-.5-.8.1-1.5.3-2.2.5-1.2.4-2.2.7-3.7.1-.2-.1-.5.1-.6.3-.1.3 0 .5.3.6 1.7.6 3 .2 4.2-.1.7-.2 1.3-.4 2-.4 1.2-.1 2.5.2 3.6.5.8.2 1.6.4 2.2.4h.2c1.4 0 2-.3 2-.4.2-.1.3-.4.2-.7 0-.1-.2-.2-.5-.1zm18.6-50.8h.6s.1 0 .1-.1l.1-.1v-.1l.1-.1v-.1c1.3-3 3-3.7 3.8-3.9.8-.2 1.5 0 2 .5.4.3.9.3 1.2-.1.3-.4.3-1-.1-1.3-.9-.9-2.2-1.2-3.5-.9-.8.2-2.1.7-3.3 2.1-.3-2-1.1-3.1-1.6-3.7-.9-1-2.2-1.5-3.4-1.3-.5.1-.8.5-.7 1.1.1.5.5.9 1 .8.6-.1 1.4.2 1.9.8.6.6 1.6 2.2 1.1 5.5v.8s0 .1.1.1l.1.1.1.1c.3-.2.3-.2.4-.2zm10-7.7v.4s0 .1.1.1h.7c.8-1.8 1.8-2.3 2.3-2.4.5-.1.9 0 1.2.3.2.2.6.2.8 0 .2-.2.2-.6 0-.8-.6-.5-1.4-.8-2.2-.6-.5.1-1.3.4-2.1 1.3-.2-1.2-.7-1.9-1-2.3-.6-.6-1.4-.9-2.1-.8-.3 0-.5.3-.5.7 0 .3.3.5.6.5.4-.1.8.1 1.2.5.7.1 1.3 1 1 3.1zm-40.9.6h7.9c1.1 0 1.9-1 1.7-2.1-.1-.7-.6-1.3-1.3-1.5-.2-.1-.4-.1-.6-.1-.2 0-.5-.2-.4-.4 0-.4 0-.9-.2-1.3-.5-1.3-1.6-2.2-3-2.1-1.5 0-2.7 1.2-3 2.8 0 .2-.2.3-.4.2-.4-.2-1-.3-1.5-.1-.8.2-1.4.9-1.5 1.8-.2 1.5.9 2.8 2.3 2.8zm63.4 35.3c-3 .7-5.9 1-8.9 1-5.7 0-12-1.2-20.9-3.1l-1.3-.3c-12.2-2.7-18.9-4.1-34.3.3C11.7 56.3 1.1 53.5.7 53.4c-.5-.1-.8-.7-.7-1.2.1-.5.7-.8 1.2-.7.1 0 10.6 2.8 26.3-1.7 14.6-4.2 21.6-3.2 32.3-.9-4.2-4.4-13.1-13.8-15.2-16.6-1.5-2-2.7-3.7-4.4-3.9-1.3-.1-2.9.6-5 2.3l-.7.6c-5.9 4.9-10.2 8.4-13.9 6.9-3.5-1.4-10.3-6.1-12-7.5l-.3-.3c-1.8-1.4-2.8-2.1-4.6-.6-.4.4-1 .3-1.4-.1-.3-.4-.3-1 .1-1.4 3.1-2.7 5.4-.8 7.1.5l.3.3c.4.3 1 .8 1.9 1.4 1.4-2.3 5.1-7.9 9.9-7.9 4.8 0 8.6 6 10 8.5.6-.5 1.1-.9 1.7-1.4l.7-.6c2.5-2.1 4.6-3 6.5-2.7 2.5.3 4 2.4 5.7 4.7 2.5 3.3 15.3 16.7 17 18.5l.8.2c13.3 2.9 20.5 4 28.9 2.1.5-.1 1 .2 1.2.7.2.6-.1 1.1-.7 1.2zM30.1 32.4c-1.4-2.7-4.8-7.8-8.4-7.8-3.5 0-6.9 4.6-8.3 7.1 2.6 1.8 6 3.9 8 4.7 2 .8 5-1.1 8.7-4z"/></svg>