<svg xmlns="http://www.w3.org/2000/svg" viewBox="0 0 219.5 219.3"><path d="M198.1 0H21.4C9.6 0 0 9.6 0 21.4V198c0 11.8 9.6 21.4 21.4 21.4h176.7c11.8 0 21.2-9.3 21.4-21.2V21.4c0-11.8-9.6-21.4-21.4-21.4zm16.4 198.1c-.2 9-7.4 16.2-16.4 16.2H21.4C12.4 214.3 5 207 5 198V21.4C5 12.4 12.4 5 21.4 5h176.7c9 0 16.4 7.4 16.4 16.4v176.7z"/><path d="M74.6 151.7v-.3l-7.7-17.6c0-.2-.2-.2-.3-.2h-2.9c-.2 0-.3.2-.3.2l-7.7 17.6v.3c0 .2.2.2.3.2h3.2c.2 0 .3-.2.3-.2l1.7-4.1H69l1.7 3.9c0 .2.2.2.3.2h3.2c.2.2.4 0 .4 0zm-11.9-7.5 2.4-5.7 2.6 5.7h-5zm23.2 6v1.2c0 .2.2.3.3.3h3c.2 0 .3-.2.3-.3v-18c0-.2-.2-.3-.3-.3h-3c-.2 0-.3.2-.3.3v6.2c-.3-.3-.8-.8-1.2-1.1-.8-.5-1.8-.8-2.9-.8-.8 0-1.7.2-2.4.5-.8.3-1.5.8-2.1 1.4-.6.6-1.1 1.4-1.4 2.3-.3.9-.6 2-.6 3 0 1.2.2 2.1.6 3 .3.9.9 1.7 1.5 2.3.6.6 1.4 1.1 2.1 1.4.8.3 1.5.5 2.4.5 1.2 0 2.1-.3 2.9-.8l1.1-1.1zm-4.7-1.6c-.5-.2-.8-.5-1.1-.8-.3-.3-.6-.8-.8-1.2-.2-.5-.3-1.1-.3-1.7 0-.6.2-1.2.3-1.7.2-.5.5-.9.8-1.2.3-.3.8-.6 1.1-.8.5-.2.9-.3 1.4-.3.5 0 .9.2 1.4.3.5.2.8.5 1.1.8.3.3.6.8.8 1.2.2.5.2 1.1.2 1.7 0 .6-.2 1.2-.3 1.7-.2.5-.5.9-.8 1.2-.3.3-.6.6-1.1.8-1.1.3-2 .3-2.7 0zm19.2 3.1 5.4-13.2v-.3c-.5-.2-.6-.2-.6-.2H102c-.2 0-.3.2-.3.3l-3.2 8.7-3.2-8.7c0-.2-.2-.3-.3-.3h-3c-.2 0-.3 0-.3.2s-.2.2 0 .3l5.4 13.2c0 .2.2.2.3.2h2.7c.2 0 .3-.2.3-.2zm7.1-.7c.5.3 1.1.6 1.7.9.6.2 1.2.3 2 .3 1.1 0 2-.2 2.7-.6.5-.3.9-.5 1.2-.8v.8c0 .2.2.3.3.3h3c.2 0 .3-.2.3-.3v-7.8c0-1.8-.5-3.3-1.5-4.4-1.1-1.1-2.6-1.5-4.7-1.5-1.1 0-2.1.2-2.9.3-.8.2-1.5.5-2.3.8-.2 0-.3.3-.2.5l.8 2.4c0 .2.2.2.2.2h.3c.6-.3 1.2-.5 1.7-.6.6-.2 1.2-.2 2-.2.9 0 1.7.2 2.1.6.5.5.8.9.8 1.7-.5-.2-.8-.2-1.2-.3-1.2-.2-3-.3-4.4.2-.8.2-1.4.5-1.8.9-.5.5-.9.9-1.2 1.5-.3.6-.5 1.2-.5 2.1 0 .8.2 1.4.5 2 .2.2.5.7 1.1 1zm2.5-4.7c.5-.3 1.2-.5 2-.5.6 0 1.1 0 1.7.2.5 0 .8.2 1.1.3v.6c0 .3 0 .8-.2.9-.2.3-.3.6-.6.8s-.6.5-1.1.5c-.3 0-.8.2-1.2.2-.6 0-1.2-.2-1.7-.5s-.6-.6-.6-1.2.2-1 .6-1.3zm15.1 5.1V144c0-.9.3-1.7.8-2.1s1.1-.8 1.8-.8 1.4.3 1.8.8c.5.5.6 1.2.6 2.1v7.4c0 .2.2.3.3.3h3c.2 0 .3-.2.3-.3V143c0-1.7-.5-3-1.4-3.9-.9-1.1-2.1-1.5-3.8-1.5-.6 0-1.1 0-1.5.2-.5.2-.9.3-1.2.6-.3.3-.8.5-.9.8l-.2.2v-1.1c0-.2-.2-.3-.3-.3h-3c-.2 0-.3.2-.3.3v13.1c0 .2.2.3.3.3h3c.5.2.7 0 .7-.3zm23.6-1.9-1.8-1.8c-.2-.2-.3-.2-.5 0-.5.5-.9.9-1.5 1.1-.9.5-2.3.6-3.2.2-.5-.2-.8-.5-1.2-.9-.3-.3-.6-.8-.8-1.2s-.3-1.1-.3-1.5c0-.6.2-1.1.3-1.5.5-.8.6-1.2.9-1.5.3-.3.6-.6 1.1-.8.5-.2.9-.3 1.4-.3.8 0 1.4.2 1.8.5.5.3.9.6 1.4 1.1 0 0 .2.2.3.2s.2 0 .3-.2l1.8-2c.2-.2.2-.3 0-.5-.6-.8-1.4-1.4-2.3-1.7-.9-.5-2-.6-3.3-.6-1.1 0-2 .2-2.9.6-.9.5-1.7.9-2.3 1.5-.6.6-1.2 1.5-1.5 2.3-.3.9-.6 1.8-.6 2.9s.2 2 .6 2.9c.3.9.9 1.7 1.5 2.3.6.6 1.4 1.2 2.3 1.5.9.3 1.8.6 2.9.6 1.4 0 2.4-.3 3.3-.8s1.7-1.1 2.3-1.8c.1-.3.1-.5 0-.6zm12.9-9.5c-.6-.8-1.2-1.2-2.1-1.7-.9-.5-1.8-.6-2.9-.6-1.1 0-2 .2-2.7.6s-1.5.9-2.1 1.5c-.6.6-1.1 1.4-1.4 2.3-.3.9-.5 1.8-.5 2.9s.2 2.1.6 2.9c.3.9.9 1.7 1.5 2.3.6.6 1.4 1.1 2.3 1.5.9.3 1.8.5 2.7.5 1.2 0 2.4-.3 3.3-.8.9-.5 1.7-1.1 2.4-1.8.2-.2.2-.3 0-.5l-1.8-1.5c-.2-.2-.3-.2-.5 0-.5.5-1.1.9-1.5 1.1-.5.3-1.1.3-1.8.3-.9 0-1.7-.3-2.3-.8-.6-.5-.9-1.1-1.1-1.8h9.2c.2 0 .3-.2.3-.3v-1c0-1.1-.2-2-.5-2.9-.1-.7-.5-1.6-1.1-2.2zm-8 3.6c.2-.8.5-1.4.9-2 .6-.6 1.2-.9 2.1-.9.5 0 .9.2 1.2.3.3.2.6.5.9.6.3.3.5.6.6 1.1.2.3.2.6.3.9h-6zm-84.9 26.2c-.6-.8-1.2-1.2-2.1-1.7-.9-.5-1.8-.6-2.9-.6s-2 .2-2.7.6c-.8.5-1.5.9-2.1 1.5-.6.6-1.1 1.4-1.4 2.3-.3.9-.5 1.8-.5 2.9 0 1.1.2 2.1.6 2.9.3.9.9 1.7 1.5 2.3.6.6 1.4 1.1 2.3 1.5.9.3 1.8.5 2.7.5 1.2 0 2.4-.3 3.3-.8.9-.5 1.7-1.1 2.4-1.8.2-.2.2-.3 0-.5l-1.8-1.5c-.2-.2-.3-.2-.5 0-.5.5-1.1.9-1.5 1.1-.5.3-1.1.3-1.8.3-.9 0-1.7-.3-2.3-.8-.6-.5-.9-1.1-1.1-1.8h8.9c.2 0 .3-.2.3-.3v-1c0-.9-.2-2-.5-2.9.1-.7-.2-1.5-.8-2.2zm-7.9 3.7c.2-.8.5-1.4.9-2 .6-.6 1.2-.9 2.1-.9.5 0 .9.2 1.2.3.3.2.6.5.9.6.3.3.5.6.6 1.1.2.3.2.6.3.9h-6zm19-1.6h-7.4c-.2 0-.3.2-.3.3v3c0 .2.2.3.3.3h7.4c.2 0 .3-.2.3-.3v-3c.2-.2 0-.3-.3-.3zm16.7-8.3H83.6c-.2 0-.3.2-.3.3v17.4c0 .2.2.3.3.3h3c.2 0 .3-.2.3-.3v-6.8h8.4c.2 0 .3-.2.3-.3v-2.7c0-.2-.2-.3-.3-.3h-8.4v-4.1h9.5c.2 0 .3-.2.3-.3v-2.7c.1-.3 0-.5-.2-.5zm6.2 4.2h-3c-.2 0-.3.2-.3.3v13.1c0 .2.2.3.3.3h3c.2 0 .3-.2.3-.3v-13.1c0-.1-.2-.3-.3-.3zm.1-4.8h-3.3c-.2 0-.3.2-.3.3v2.9c0 .2.2.3.3.3h3.3c.2 0 .3-.2.3-.3v-2.9c0-.1-.1-.3-.3-.3zm15.7 6.5c-.6-.6-1.4-1.1-2.1-1.4-.8-.3-1.5-.5-2.4-.5-1.1 0-2.1.3-2.9.8-.5.3-.9.6-1.2 1.1v-6.2c0-.2-.2-.3-.3-.3h-3c-.2 0-.3.2-.3.3v18.2c0 .2.2.3.3.3h3c.2 0 .2 0 .3-.2 0 0 .2-.2.2-.3v-1.1c.3.3.8.6 1.2.9.8.5 1.8.8 2.9.8.9 0 1.7-.2 2.4-.5s1.5-.8 2.1-1.4c.6-.6 1.1-1.4 1.5-2.3.3-.9.6-2 .6-3 0-1.2-.2-2.1-.6-3-.5-.9-1.1-1.6-1.7-2.2zm-2 7c-.2.5-.5.9-.8 1.2-.3.3-.6.6-1.1.8-.8.3-1.8.3-2.7 0-.5-.2-.8-.5-1.1-.8-.3-.3-.6-.8-.8-1.2s-.3-1.1-.3-1.7.2-1.2.3-1.7c.2-.5.5-.9.8-1.2.3-.3.8-.6 1.1-.8.5-.3.9-.3 1.4-.3.5 0 .9.2 1.4.3.5.2.8.5 1.1.8.3.3.6.8.8 1.2s.3 1.1.3 1.7-.2 1.3-.4 1.7zm14.4-8.8c-1.2 0-2.3.3-3.2.9-.5.3-.9.8-1.2 1.2v-1.5c0-.2-.2-.3-.3-.3h-3c-.2 0-.3.2-.3.3v13.1c0 .2.2.3.3.3h3c.2 0 .3-.2.3-.3v-5c0-.8.2-1.5.3-2.1s.5-1.1.9-1.5c.3-.5.8-.8 1.4-.9.5-.2 1.1-.3 1.7-.3h.2c.2 0 .3-.2.3-.3v-3.2c-.1-.3-.2-.4-.4-.4zm12.8 2.1c-.6-.8-1.2-1.2-2.1-1.7-.9-.5-1.8-.6-2.9-.6s-2 .2-2.7.6c-.8.5-1.5.9-2.1 1.5-.6.6-1.1 1.4-1.4 2.3-.3.9-.5 1.8-.5 2.9 0 1.1.2 2.1.6 2.9.3.9.9 1.7 1.5 2.3s1.4 1.1 2.3 1.5c.9.3 1.8.5 2.7.5 1.2 0 2.4-.3 3.3-.8.9-.5 1.7-1.1 2.4-1.8.2-.2.2-.3 0-.5l-1.8-1.5c-.2-.2-.3-.2-.5 0-.5.5-1.1.9-1.5 1.1-.5.3-1.1.3-1.8.3-.9 0-1.7-.3-2.3-.8-.6-.5-.9-1.1-1.1-1.8h9c.2 0 .3-.2.3-.3v-1c0-.9-.2-2-.5-2.9.2-.7-.3-1.5-.9-2.2zm-8 3.7c.2-.8.5-1.4.9-2 .6-.6 1.2-.9 2.1-.9.5 0 .9.2 1.2.3.3.2.6.5.9.6.3.3.5.6.6 1.1.2.3.2.6.3.9h-6zm25.1-9.9c-.2 0-.3 0-.3.2l-2 3.2-2-3.2c0-.2-.2-.2-.3-.2h-1.5c-.2 0-.3.2-.3.3v7.7c0 .2.2.3.3.3h1.4c.2 0 .3-.2.3-.3v-4.2l1.7 2.7c0 .2.2.2.3.2h.2c.2 0 .3 0 .3-.2l1.7-2.7v4.2c0 .2.2.3.3.3h1.4c.2 0 .3-.2.3-.3v-7.7c.3-.2.2-.3-.2-.3h-1.6zm-7.8 0h-6.2c-.2 0-.3.2-.3.3v1.4c0 .2.2.3.3.3h2v6c0 .2.2.3.3.3h1.5c.2 0 .3-.2.3-.3v-6h2c.2 0 .3-.2.3-.3v-1.4c.1-.1 0-.3-.2-.3zm-68.1-59.5c.2.5.8.8 1.2.8h12c.5 0 .9-.3 1.1-.6.3-.5.3-.9.2-1.2L71 38c-.2-.5-.8-.8-1.2-.8H59.3c-.6 0-1.1.3-1.2.8l-28.4 65.1c-.2.5-.2.9.2 1.2.3.3.6.6 1.1.6h11.6c.6 0 1.1-.3 1.2-.8l6.3-14.7H79l5.9 14.7zM55.3 76.6l9-21.2 9.2 21.2H55.3zm56.4 22.1c2.4 2.3 5.1 4.2 8.4 5.4 3.2 1.4 6.6 2 10.4 2 4.7 0 8.7-.9 12.2-2.7 3.3-1.8 6.3-4.1 8.7-6.9.5-.6.5-1.4-.2-1.8l-6.6-5.9c-.5-.5-1.4-.5-1.8 0-1.8 1.8-3.8 3.2-5.7 4.1-1.8.9-4.1 1.4-6.6 1.4-3.3 0-6-.9-8.4-2.9-2-1.7-3.3-3.9-4.1-6.8h34.1c.6 0 1.2-.5 1.4-1.2 0-.6.2-1.1.2-1.7v-1.5c0-3.6-.5-7.2-1.5-10.5s-2.6-6.3-4.7-8.9c-2.1-2.6-4.7-4.7-7.8-6-3.2-1.5-6.8-2.3-10.8-2.3-3.8 0-7.1.8-10.2 2.1-3 1.4-5.7 3.3-8 5.9-2.3 2.4-4.1 5.3-5.3 8.6-1.2 3.2-1.8 6.8-1.8 10.4 0 3.9.8 7.7 2.1 11 1.6 3.1 3.6 5.8 6 8.2zm9.8-31.3c2-2.1 4.5-3.2 7.5-3.2 1.7 0 3.2.3 4.4.9 1.4.6 2.4 1.4 3.3 2.4s1.7 2.3 2.3 3.6c.5 1.1.8 2.1.9 3.2h-21.7c.5-2.7 1.6-5.1 3.3-6.9zm69.2-31.7c-1.2-.5-2.7-.8-4.1-.9-1.5-.3-3.3-.5-5.3-.5-5.1 0-9.2 1.5-12 4.4-2.9 2.9-4.4 7.2-4.4 12.9v2.3h-5c-.8 0-1.4.6-1.4 1.4v9.2c0 .8.6 1.4 1.4 1.4h4.8v37.9c0 .8.6 1.4 1.4 1.4h11.3c.8 0 1.4-.6 1.4-1.4v-38h11.4c.8 0 1.4-.6 1.4-1.4v-9.2c0-.8-.6-1.4-1.4-1.4h-11.6v-1.4c0-5.4 2.7-6 5.1-6 1.2 0 2.1.2 3.2.3.9.2 2 .5 3 .9.5.2.9 0 1.2-.2.3-.3.6-.6.6-1.1v-9.5c-.1-.5-.4-.9-1-1.1z"/></svg>