<svg xmlns="http://www.w3.org/2000/svg" viewBox="0 0 525 487"><path d="M452.8 2.3H72.2C33.7 2.3 2.5 33.6 2.5 72v343c0 38.5 31.3 69.7 69.7 69.7h380.6c38.5 0 69.8-31.3 69.8-69.7V72c0-38.4-31.3-69.7-69.8-69.7zM490.6 178h-73.5l73.5-59.8V178zm-90.3 6h90.3v20H303.2V34.3h19v96.9l118.7-96.9h12c2.3 0 4.6.2 6.8.6L323.2 147v38h10.6L488.1 58.5c1.6 4.2 2.5 8.8 2.5 13.5v38.4L400.3 184zM293.2 286.3v166.4h-62.3V276.3H34.5V214h196.4V34.3h62.3V214h197.4v62.3H293.2v10zm138.2-252-103.2 84.3V34.3h103.2zm-234.5 0V128L82.8 34.3h114.1zm-124.7 0h1.2l129.5 106.4V34.3h17.9V204H34.5v-19h77.7l-77.7-63.9V105l97.7 80h55.9L36.7 59.3c5.2-14.6 19.2-25 35.5-25zm-37.7 94.6 61 50.1h-61v-50.1zm0 182.4H108l-73.5 59.8v-59.8zm37.7 141.4c-1.5 0-3-.1-4.4-.3l134.1-110.2v-38h-10.6l-153.6 126c-2.1-4.7-3.2-9.8-3.2-15.3v-36.1l90.4-73.5H34.5v-19h186.4v166.4H203v-94.6L87.1 452.7H72.2zm24.4 0 100.3-82v82H96.6zm231.6 0v-89.3l108.7 89.3H328.2zm124.6 0h-6.6l-124.1-102v102h-19V286.3h187.4v20.1h-77.7l77.7 63.9v16.1l-97.7-80h-55.9L487 431c-6 12.8-19.1 21.7-34.2 21.7zm37.8-90.2-60.9-50.1h60.9v50.1z"/></svg>