<svg xmlns="http://www.w3.org/2000/svg" viewBox="0 0 173 173.3"><path d="m163.7 55.6-4.3-4.3c-.4-.4-.4-1.1 0-1.5l6.3-6.3c1.3-1.3 3.5-1.3 4.8 0l1.1 1.1c1.3 1.3 1.3 3.4 0 4.7l-6.3 6.3c-.2.2-.5.3-.8.3-.3 0-.6-.1-.8-.3zm-60.2 51.1c-.4-.4-1.1-.4-1.5 0l-6 6c-.6.6-1 1.5-1 2.4 0 .9.4 1.7 1 2.4l1.1 1.1c.6.6 1.5.9 2.4.9.9 0 1.8-.3 2.4-.9l6-6c.2-.2.3-.5.3-.8 0-.3-.1-.6-.3-.8l-4.4-4.3zM143.3 77c.3 0 .6-.1.8-.3l6.7-6.6c.4-.4.4-1.1 0-1.5l-4.3-4.3c-.4-.4-1.1-.4-1.5 0l-6.7 6.6c-.4.4-.4 1.1 0 1.5l4.3 4.3c.1.1.4.3.7.3zm-19.7 8.2-7.1 7.1c-.2.2-.3.5-.3.8 0 .3.1.6.3.8l4.3 4.3c.2.2.5.3.8.3.3 0 .6-.1.8-.3l7.1-7.1c.2-.2.3-.5.3-.8 0-.3-.1-.6-.3-.8l-4.3-4.3c-.5-.4-1.1-.4-1.6 0zm-24-51.1c.2.2.5.3.8.3.3 0 .6-.1.8-.3l6.7-6.6c.4-.4.4-1.1 0-1.5l-4.3-4.3c-.4-.4-1.1-.4-1.5 0l-6.7 6.6c-.2.2-.3.5-.3.8 0 .3.1.6.3.8l4.2 4.2zM86.6 47l-4.3-4.3c-.4-.4-1.1-.4-1.5 0l-7.1 7.1c-.2.2-.3.5-.3.8 0 .3.1.6.3.8l4.3 4.3c.2.2.5.3.8.3.3 0 .6-.1.8-.3l7.1-7.1c.2-.2.3-.5.3-.8-.1-.3-.2-.6-.4-.8zm34.2-33.9c.2.2.5.3.8.3.3 0 .6-.1.8-.3l6-6c.6-.6 1-1.5 1-2.4s-.4-1.7-1-2.4l-1.1-1.1c-1.3-1.3-3.5-1.3-4.8 0l-6 6c-.2.2-.3.5-.3.8 0 .3.1.6.3.8l4.3 4.3zM54 76.2c.6.6 1.5 1 2.4 1 .9 0 1.7-.3 2.4-1l6.2-6.1c.4-.4.4-1.1 0-1.5l-4.3-4.3c-.4-.4-1.1-.4-1.5 0L53 70.4a3.32 3.32 0 0 0 0 4.7l1 1.1zm-.7-69.3 5.6 5.5c.2.2.5.3.8.3.3 0 .6-.1.8-.3l4.3-4.3c.4-.4.4-1.1 0-1.5l-5.6-5.5c-1.3-1.3-3.5-1.3-4.8 0l-1.1 1.1a3.32 3.32 0 0 0 0 4.7zm113.1 100.5c-.4-.4-1.1-.4-1.5 0l-4.3 4.3c-.4.4-.4 1.1 0 1.5l5.5 5.5c.6.6 1.5 1 2.4 1 .9 0 1.7-.3 2.4-1l1.1-1.1c.6-.6 1-1.5 1-2.4 0-.9-.4-1.7-1-2.4l-5.6-5.4zm-19.7-8.3c.3 0 .6-.1.8-.3l4.3-4.3c.2-.2.3-.5.3-.8 0-.3-.1-.6-.3-.8l-29-28.8c-.4-.4-1.1-.4-1.5 0l-4.3 4.3c-.2.2-.3.5-.3.8 0 .3.1.6.3.8l29 28.8c.2.2.5.3.7.3zm-43.5-43.2c.3 0 .6-.1.8-.3l4.3-4.3c.4-.4.4-1.1 0-1.5L79.3 21c-.4-.4-1.1-.4-1.5 0l-4.3 4.3c-.2.2-.3.5-.3.8 0 .3.1.6.3.8l29 28.8c.1.1.4.2.7.2zm20.4-21.3c.2.2.5.3.8.3.3 0 .6-.1.8-.3l4.3-4.3c.2-.2.3-.5.3-.8 0-.3-.1-.6-.3-.8L101.8 1.4C100.5.2 98.3.2 97 1.4l-1 1.1c-.6.6-1 1.5-1 2.4 0 .9.4 1.7 1 2.4l27.6 27.3zm44.5 42.7c.9 0 1.7-.3 2.4-.9l1.1-1.1c1.3-1.3 1.3-3.4 0-4.7L144 43.2c-.4-.4-1.1-.4-1.5 0l-4.3 4.3c-.4.4-.4 1.1 0 1.5l27.6 27.3c.6.7 1.5 1 2.3 1zM140.2 6.8l5.8 5.7c.2.2.5.3.8.3s.6-.1.8-.3l4.3-4.3c.4-.4.4-1.1 0-1.5L146.1 1c-1.3-1.2-3.5-1.3-4.8 0l-1.1 1c-1.3 1.3-1.3 3.5 0 4.8zM172 26.7l-5.6-5.6c-.4-.4-1.1-.4-1.5 0l-4.3 4.3c-.4.4-.4 1.1 0 1.5l5.6 5.6c.6.6 1.5.9 2.4.9.9 0 1.8-.3 2.4-.9l1.1-1.1c.6-.6 1-1.5 1-2.4-.1-.9-.4-1.7-1.1-2.3zM58.8 98.8c.2.2.5.3.8.3.3 0 .6-.1.8-.3l4.3-4.3c.4-.4.4-1.1 0-1.5l-5.6-5.6c-1.3-1.3-3.5-1.3-4.8 0l-1.1 1.1a3.32 3.32 0 0 0 0 4.7l5.6 5.6zm20.5 8.6c-.2-.2-.5-.3-.8-.3-.3 0-.6.1-.8.3l-4.3 4.3c-.2.2-.3.5-.3.8 0 .3.1.6.3.8l5.8 5.7c.6.6 1.5 1 2.4 1 .9 0 1.8-.3 2.4-.9l1.1-1.1c.6-.6 1-1.5 1-2.4 0-.9-.3-1.7-1-2.4l-5.8-5.8zm21.8-21.7c-.4-.4-1.1-.4-1.5 0L95.3 90c-.2.2-.3.5-.3.8 0 .3.1.6.3.8L123 119c.6.6 1.5.9 2.4.9.9 0 1.7-.3 2.4-.9l1.1-1.1c1.3-1.3 1.3-3.4 0-4.7l-27.8-27.5zM54.5 44.2l-1.1 1.1c-.6.6-1 1.5-1 2.4 0 .9.4 1.7 1 2.4l27.4 27.1c.2.2.5.3.8.3.3 0 .6-.1.8-.3l4.3-4.3c.4-.4.4-1.1 0-1.5L59.2 44.2c-1.2-1.3-3.5-1.3-4.7 0zm116.4 43.2-.8.8.8-.8c-1.3-1.3-3.5-1.3-4.8 0l-25.9 25.7c-.6.6-1 1.5-1 2.4 0 .9.3 1.7 1 2.4l1.1 1.1c.6.6 1.5 1 2.4 1 .9 0 1.7-.3 2.4-1L172 93.2c1.3-1.3 1.3-3.4 0-4.7l-1.1-1.1zm1-80.4c1.3-1.3 1.3-3.4 0-4.7l-1.1-1.1c-1.3-1.3-3.5-1.3-4.8 0L53.2 113a3.32 3.32 0 0 0 0 4.7l1.1 1.1c.6.6 1.5 1 2.4 1 .9 0 1.7-.3 2.4-1L171.9 7zM54 32.7c.6.6 1.5 1 2.4 1 .9 0 1.8-.3 2.4-.9L84.7 7c1.3-1.3 1.3-3.4 0-4.7l-1.1-1.1c-1.3-1.3-3.5-1.3-4.8 0L52.9 26.9c-.6.6-1 1.5-1 2.4 0 .9.4 1.7 1 2.4l1.1 1zm82.7 88.7c-.2-.2-.4-.5-.6-.7-8 28.4-34.1 49.2-65 49.2-37.3 0-67.6-30.4-67.6-67.7C3.5 71.5 24 45.6 52 37.3c-.5-.3-1-.7-1.4-1.1l-1.1-1.1-.5-.5C38.4 38.1 28.8 44 20.8 52 7.4 65.4 0 83.3 0 102.3c0 19 7.4 36.8 20.8 50.3C34.2 165.9 52 173.3 71 173.3s36.8-7.4 50.2-20.8c8.3-8.3 14.3-18.3 17.6-29.2-.4-.3-.7-.6-1.1-.9l-1-1zm31.4-31.2 2-2-2 2z"/></svg>