<svg xmlns="http://www.w3.org/2000/svg" viewBox="0 0 100 100.7"><path d="M7.5 47.5C7.5 30.6 20.2 16.6 37 15c.4-.1.9.3.9.7 0 .5-.3.9-.7.9-16 1.5-28.1 14.7-28.1 30.8 0 15.5 11.6 28.7 27 30.7.4.1.8.5.7.9-.1.4-.4.7-.8.7h-.1C19.7 77.8 7.5 63.9 7.5 47.5zm63.6 0c0 6.1-1.7 11.9-5.1 17-.2.4-.1.9.2 1.1.1.1.3.1.5.1.3 0 .5-.1.7-.4 3.5-5.3 5.3-11.5 5.3-17.9 0-6.8-2.1-13.3-6-18.8-.3-.4-.8-.5-1.1-.2-.4.3-.5.8-.2 1.1 3.7 5.4 5.7 11.6 5.7 18zm-33.3-5.9c2.2 3.6 6.3 5.5 12.3 5.5 6.6 0 11-2.2 13.2-6.4 3.4-6.6.1-16.5-1.8-19.1-.2-.3-.7-.4-1.1-.2-.3.2-.4.7-.2 1.1 1.5 2.1 4.9 11.4 1.7 17.5C60 43.7 56 45.5 50 45.5c-5.4 0-9.1-1.6-10.9-4.7-3.9-6.5.7-18.1 2.7-22.1 4.8-9 8.9-17.5 8.9-17.6.2-.4 0-.8-.4-1-.4-.2-.8 0-1 .4 0 .1-4.1 8.6-8.9 17.5-2.7 5.1-6.8 16.7-2.6 23.6zm5.2-5.2c-.2-.4-.7-.5-1.1-.3-.4.2-.5.7-.3 1 .1.2 2.4 4.2 7.3 4.2 3.5 0 7.8-.4 9.5-3.9.2-.4 0-.8-.3-1-.4-.2-.9 0-1 .3-1.1 2.1-3.5 3-8.1 3-4.1.1-6-3.2-6-3.3zm3.1 37.7c-.8 2.1 1.2 4.1 1.3 4.2.2.1.3.2.5.2s.4-.1.6-.2c.3-.3.3-.8 0-1.1 0 0-1.3-1.4-.9-2.5.3-.7 1.8-2.4 9.9-2.4.4 0 .8-.4.8-.8s-.3-.8-.8-.8c-6.8 0-10.5 1.1-11.4 3.4zm-4.3-7.8c.1-.1.1-.5-.1-.9-3.6-.3-5.1-3.1-5.4-4.6-.1-.3.1-.6.3-.8.3-.2.6-.2.9 0 1.2.9 2.8-.2 3.3-.6 1.4-3.8 4.3-3.8 7-3.8h.6c3.4 0 5.8 3.4 5.8 6.6 0 1.8-.9 3.7-1.6 4.9 4.2-.2 7.9-4 7.9-4 .2-.2.4-.3.6-.2.2 0 .4.1.6.3 2.9 3.5 4.2 7 3.9 10.4-.4 4.2-3.4 6.8-4 7.3-1.8 1.5-7.2 1.5-14 1.5h-1c-6.4 0-7.7-3.6-8.7-6.5-.2-.5-.4-1.1-.6-1.5-1.7-3.6 3.8-7.6 4.5-8.1zm-.4-3.4c-.3 0-.6-.3-.8-.6-.2-.3-.2-.6-.2-.9-.6.3-1.2.5-2 .5.5.8 1.4 1.6 3 1.9.1-.5.1-.8 0-.9zm1.4 4.6s-.1 0 0 0c-1.4 1-5 4.1-4.1 6.1.2.5.4 1.1.6 1.7 1 2.8 2 5.4 7.2 5.4h.5c6.3 0 12.1 0 13.6-1.2.5-.4 3-2.6 3.4-6.2.3-2.7-.7-5.6-3-8.6-1.5 1.4-5.5 4.5-9.9 3.8-.3 0-.5-.2-.6-.5-.1-.3-.1-.5.1-.8 0 0 2.1-2.8 2.1-5.1 0-2.1-1.5-5-4.2-5h-.6c-2.8 0-4.6 0-5.6 2.9 0 .1-.1.2-.2.3-.1.5-.2 1-.1 1.2.3 0 .6.3.8.6.3.6.3 1.5.1 2.1v.1c.2.2 1.2 2.2-.1 3.2zm1.1-7c0-.9.7-1.6 1.6-1.6.9 0 1.6.7 1.6 1.6 0 .9-.7 1.6-1.6 1.6-.8.1-1.6-.7-1.6-1.6zm1 0c0 .4.3.6.6.6s.6-.3.6-.6-.3-.6-.6-.6-.6.3-.6.6zM20.4 80.6c-.2-.3-.7-.5-1.1-.2-.4.2-.5.7-.2 1.1.2.3 4.6 6.9 30.9 6.9 26.2 0 31.6-6.6 31.8-6.8.3-.3.2-.8-.1-1.1-.3-.3-.8-.2-1.1.1 0 .1-5.4 6.2-30.6 6.2-25 0-29.5-6-29.6-6.2zm79.3 8.2c-.3-.3-.8-.2-1.1.1-.1.1-8.4 10.2-49.4 10.2C8.6 99.1 1.5 89.2 1.4 89c-.2-.4-.7-.5-1.1-.2-.3.2-.4.7-.2 1.1.3.4 7.3 10.8 49.1 10.8 41.8 0 50.3-10.3 50.6-10.8.3-.3.2-.8-.1-1.1z"/></svg>