<svg xmlns="http://www.w3.org/2000/svg" viewBox="0 0 58.6 55.2"><path d="M34.4 10.4v-.2h24.2V5.7H34.4v-.2c0-3-2.5-5.5-5.5-5.5s-5.5 2.5-5.5 5.5v.2H0v4.5h23.4v.2c0 3 2.5 5.5 5.5 5.5s5.5-2.4 5.5-5.5zm-9 0V5.5C25.4 3.6 27 2 28.9 2s3.5 1.6 3.5 3.5v4.9c0 1.9-1.6 3.5-3.5 3.5s-3.5-1.6-3.5-3.5zm-5.3 19.7v-.2h38.5v-4.5H20.1v-.2c0-3-2.5-5.5-5.5-5.5s-5.5 2.5-5.5 5.5v.2h-9v4.5h9v.2c0 3 2.5 5.5 5.5 5.5s5.5-2.5 5.5-5.5zm-9 0v-4.9c0-1.9 1.6-3.5 3.5-3.5s3.5 1.6 3.5 3.5v4.9c0 1.9-1.6 3.5-3.5 3.5-2 0-3.5-1.6-3.5-3.5zM50 49.7v-.2h8.6V45H50v-.2c0-3-2.5-5.5-5.5-5.5S39 41.8 39 44.8v.2H.1v4.5h38.8v.2c0 3 2.5 5.5 5.5 5.5 3.1.1 5.6-2.4 5.6-5.5zm-9 0v-4.9c0-1.9 1.6-3.5 3.5-3.5s3.5 1.6 3.5 3.5v4.9c0 1.9-1.6 3.5-3.5 3.5-2 0-3.5-1.5-3.5-3.5z"/></svg>