<svg xmlns="http://www.w3.org/2000/svg" viewBox="0 0 72.3 72.3"><path d="M36.1.6C16.5.6.6 16.5.6 36.1s15.9 35.6 35.6 35.6c19.7 0 35.6-15.9 35.6-35.6S55.8.6 36.1.6zm20.1 54.3c-5.1 5.1-13.3 5.1-18.3 0L15 32c-3.7-3.7-3.7-9.8 0-13.5s9.8-3.7 13.5 0l22.4 22.4c2.4 2.4 2.4 6.3 0 8.6-2.4 2.4-6.3 2.4-8.6 0l-9.7-9.7c-.6-.6-.6-1.6 0-2.2.6-.6 1.6-.6 2.2 0l9.7 9.7c1.2 1.2 3.1 1.2 4.3 0 1.2-1.2 1.2-3.1 0-4.3L26.3 20.6c-2.6-2.6-6.6-2.6-9.2 0-2.6 2.6-2.6 6.6 0 9.2L40 52.7c3.9 3.9 10.1 3.9 14 0 3.9-3.9 3.9-10.1 0-14L33.6 18.2c-.6-.6-.6-1.6 0-2.2.6-.6 1.6-.6 2.2 0l20.5 20.5c5 5.1 5 13.3-.1 18.4z"/></svg>