<svg xmlns="http://www.w3.org/2000/svg" viewBox="0 0 139.9 54.8"><path d="m136.6 31.1-.5-.7h-.4v.7h-.5v-2.3h1c.3 0 .5.1.7.2.1.1.2.3.2.5 0 .4-.2.6-.5.7l.6.8-.6.1zm-.5-2.9c-1 0-1.8.8-1.8 1.8s.8 1.8 1.8 1.8 1.8-.8 1.8-1.8-.8-1.8-1.8-1.8"/><path d="M136.2 29.3h-.5v.7h.5c.3 0 .4-.1.4-.3 0-.3-.1-.4-.4-.4M.6 27.9l2.9-2.7c.7-.6 1.7-.7 2.4 0 1.1 1 2.2 1.6 3.6 1.6 2.1 0 3.4-1.4 3.4-4.2V1.8c0-1.1.9-1.9 2-1.7l4.8.6c.9.1 1.6.9 1.6 1.7v20.2c0 3.8-.9 6.5-3 8.5-2 2-4.8 3.1-8.3 3.1-4.4 0-7.4-1.5-9.5-3.7-.7-.9-.6-2 .1-2.6zm80.9-13.8h-7c-.4 0-.8.2-1.1.6L70.8 19c-.5.8.1 1.8 1.1 1.8h9.6c.7 0 1.2-.5 1.2-1.2v-4.3c0-.7-.5-1.2-1.2-1.2m44.4-5.5h12.6c.6 0 1.1-.5 1.1-1.1v-5c0-.6-.4-1.1-1-1.1-6.1-.7-14-1.2-19.7-1.2-1.3 0-2.3 1-2.3 2.3v5.1c0 .5.4 1 1 1h8.3z"/><path d="M138.7 26.2h-21c-.5 0-1 .4-1 1v5.3c0 .6.5 1.1 1.1 1.1h20.9c.6 0 1.1-.5 1.1-1.1v-5.1c.1-.7-.4-1.2-1.1-1.2m-2 6.1c-1.8.4-3.4-1.1-3-3 .2-.8.9-1.5 1.7-1.7 1.8-.4 3.4 1.1 2.9 2.9 0 .9-.7 1.6-1.6 1.8m-3.9-11.4c.6 0 1.1-.5 1.1-1.1v-4.5c0-.6-.5-1.1-1.1-1.1h-15.1c-.5 0-1 .4-1 1v4.7c0 .5.4 1 1 1h15.1zm-27.2 2.9c0 2-1.6 3.1-4.4 3.1h-6.6c-.3 0-.6-.3-.6-.6v-5c0-.3.3-.6.6-.6h6.5c3 0 4.5 1.2 4.5 3.1zM94 8.3c0-.3.3-.6.6-.6h5.5c2.7 0 4.2 1.5 4.2 3.3v.1c0 2-1.6 2.9-4.4 2.9h-5.3c-.3 0-.6-.3-.6-.6V8.3zm20.8 16.2c0-4.6-2.6-6.9-6.6-8.3 3-1.3 5.2-3.6 5.2-7.5 0-2.3-.8-4.1-2.2-5.4-1.7-1.6-4.1-2.6-7.4-2.9-.1 0-6-.7-16.7.6-1.2.2-2.2 1.1-2.2 2.4v29.3c0 .6.5 1.1 1.1 1.1h16.1c8.1-.1 12.7-3.6 12.7-9.3m-74.1-3.3h-5.4c-.4 0-.7-.4-.5-.8l2.7-6.8c.2-.5.9-.5 1.1 0l2.7 6.8c.1.4-.2.8-.6.8m.4-18.6c-1 0-1.9-.1-2.9-.2-.6 0-1.8-.1-2.8-.2-1-.1-1.9.5-2.3 1.4L21.1 32c-.3.8.2 1.6 1.1 1.6h6.6c.5 0 .9-.3 1.1-.7l1.7-4.4c.1-.3.5-.6.8-.6h10.9c.4 0 .7.2.8.6l1.7 4.4c.2.4.6.7 1.1.7h6.8c.8 0 1.4-.8 1.1-1.6L43.1 4c-.3-.8-1.1-1.4-2-1.4M76 1.9c-.2 0-5 .5-7.1.6-.4 0-.7.2-.9.6-1 1.8-4.4 7.6-5.7 9.8-.2.4-.8.4-1 0l-5.4-9.3c-.2-.4-.5-.6-.9-.6-2.3 0-4.6 0-7-.1-.9 0-1.5 1-1 1.7l10 16.6c.3.5.4 1 .4 1.5v9.8c0 .6.5 1.1 1.1 1.1H65c.6 0 1.1-.5 1.1-1.1v-9.9c0-.5.1-1.1.4-1.5L77.1 3.6c.5-.8-.2-1.8-1.1-1.7M54.3 48.7c.2-.9.9-1.5 1.7-1.5 1 0 1.5.7 1.7 1.5h-3.4zm5 1v-.3c0-2.2-1.3-3.7-3.3-3.7-1.9 0-3.4 1.6-3.4 3.6 0 2.1 1.5 3.6 3.5 3.6 1.1 0 2.1-.4 2.8-1.3.1-.1.1-.1.1-.2s0-.2-.1-.2l-.6-.5c-.1-.1-.3-.1-.4 0-.5.6-1.1.8-1.8.8-.8 0-1.6-.5-1.9-1.5H59c.2 0 .3-.1.3-.3m-11.9-1c.2-.9.9-1.5 1.7-1.5 1 0 1.5.7 1.7 1.5h-3.4zm5 1v-.3c0-2.2-1.3-3.7-3.3-3.7-1.9 0-3.4 1.6-3.4 3.6 0 2.1 1.5 3.6 3.5 3.6 1.2 0 2.1-.4 2.8-1.3.1-.1.1-.1.1-.2s0-.2-.1-.2l-.6-.5c-.1-.1-.3-.1-.4 0-.5.6-1.1.8-1.8.8-.8 0-1.6-.5-1.9-1.5H52c.2 0 .3-.1.4-.3M44 43.2c-.2 0-.3.1-.3.3v9c0 .2.1.3.3.3h1c.2 0 .3-.1.3-.3v-9c0-.2-.1-.3-.3-.3h-1zm-4 8.2c-1.1 0-1.8-.3-2.7-1.1-.1-.1-.1-.1-.2-.1s-.2 0-.2.1l-.7.7c-.1.1-.1.3 0 .4 1.1 1 2.3 1.5 3.7 1.5 1.9 0 3.2-1.1 3.2-2.8 0-1.8-1.6-2.4-3-2.7-1.9-.4-2.1-.8-2.1-1.4 0-.6.6-1.1 1.5-1.1.8 0 1.6.3 2.3.9.1.1.1.1.2.1s.2-.1.2-.1l.6-.7c.1-.1.1-.3-.1-.4-1-.8-2-1.1-3.2-1.1-1.8 0-3.1 1.1-3.1 2.7 0 1.9 1.5 2.4 3.1 2.8 1.8.4 2 .8 2 1.3.1.6-.5 1-1.5 1m46.5 1.4h.9c.2 0 .3-.1.3-.3v-3.9c0-1.7-1-2.9-2.7-2.9-.9 0-1.6.3-2.2 1-.5-.7-1.2-1-2.1-1-.8 0-1.3.3-1.7.7v-.2c0-.2-.1-.3-.3-.3h-.9c-.2 0-.3.1-.3.3v6.3c0 .2.1.3.3.3h.9c.2 0 .3-.1.3-.3v-3.6c0-1 .6-1.7 1.5-1.7.8 0 1.3.6 1.3 1.6v3.7c0 .2.1.3.3.3h.9c.2 0 .3-.1.3-.3v-3.7c0-1 .6-1.7 1.4-1.7 1.1 0 1.3.9 1.3 1.6v3.7c.2.3.3.4.5.4m-12.7-1.4c-1.1 0-1.8-.3-2.7-1.1-.1-.1-.1-.1-.2-.1s-.2 0-.2.1l-.7.7c-.1.1-.1.3 0 .4 1.1 1 2.3 1.5 3.7 1.5 1.9 0 3.2-1.1 3.2-2.8 0-1.8-1.6-2.4-3-2.7-1.9-.4-2.1-.8-2.1-1.4 0-.6.6-1.1 1.5-1.1.8 0 1.6.3 2.3.9.1.1.2.1.2.1.1 0 .2-.1.2-.1l.6-.7c.1-.1.1-.3-.1-.4-1-.8-2-1.1-3.2-1.1-1.8 0-3.1 1.1-3.1 2.7 0 1.9 1.5 2.4 3.1 2.8 1.8.4 2 .8 2 1.3.1.6-.5 1-1.5 1m-10.5-4.2c1 0 1.9.7 1.9 2.2 0 1.3-.8 2.1-1.9 2.1-1 0-2-.8-2-2.2 0-1.3 1-2.1 2-2.1M61 45.8h-.9c-.2 0-.3.1-.3.3v8.3c0 .2.1.3.3.3h.9c.2 0 .3-.1.3-.3v-2.3c.6.5 1.3.8 2.1.8 1.6 0 3.3-1.3 3.3-3.6s-1.7-3.6-3.3-3.6c-.8 0-1.5.3-2.1.9v-.4c0-.2-.1-.4-.3-.4m31.8 4v.4c0 .8-.8 1.4-1.8 1.4-.6 0-1.3-.3-1.3-1 0-.9 1.1-1 1.5-1 .6 0 1.1.1 1.6.2m-4.7.8c0 1.5 1.3 2.3 2.7 2.3.9 0 1.5-.3 2-.7v.2c0 .2.1.3.3.3h.9c.2 0 .3-.1.3-.3v-3.9c0-1.8-1.1-2.9-3-2.9-1.1 0-1.8.3-2.4.6-.1.1-.2.2-.2.4l.3.8c0 .1.1.1.2.2h.2c.5-.2 1.1-.4 1.8-.4 1 0 1.5.4 1.6 1.2-.4-.1-1-.2-1.6-.2-1.9.1-3.1 1-3.1 2.4m15.3-4.8h-1.7v-1.6c0-.2-.1-.3-.3-.3h-.9c-.2 0-.3.1-.3.3v1.6h-.6c-.2 0-.3.1-.3.3v.9c0 .2.1.3.3.3h.6v3.5c0 1.3.8 2.1 2.1 2.1.5 0 .9-.1 1.3-.3.1-.1.2-.2.2-.3v-.8c0-.1-.1-.2-.1-.3-.1-.1-.2-.1-.3 0-.3.1-.5.2-.8.2-.5 0-.8-.2-.8-.7v-3.4h1.7c.2 0 .3-.1.3-.3v-.8c0-.2-.2-.4-.4-.4m-7.3 0h-.9c-.2 0-.3.1-.3.3v6.3c0 .2.1.3.3.3h.9c.2 0 .3-.1.3-.3V50c0-1.6.8-2.6 2.2-2.6h.1c.2 0 .3-.1.3-.3v-1c0-.2-.1-.3-.3-.3-.9 0-1.7.3-2.3 1v-.6c0-.2-.2-.4-.3-.4"/></svg>