<svg xmlns="http://www.w3.org/2000/svg" viewBox="0 0 344.8 51.6"><path d="m112 36.3-1.4-4.5-10.3 7.5 11.7-3zm72.5 0-1.4-4.5-10.3 7.5 11.7-3zm72.5 0-1.4-4.5-10.3 7.5 11.7-3z" fill="#005128"/><path d="M54.2 19.7H33.5L27.1 0l-6.4 19.7H0l16.8 12.2-6.4 19.7 16.8-12.2L44 51.6l-6.4-19.7 16.6-12.2zm77.1 0h-20.7L104.2 0l-6.4 19.7H77.1l16.8 12.2-6.4 19.7 16.8-12.2 16.8 12.2-6.4-19.7 16.6-12.2zm71.2 0h-20.7L175.4 0 169 19.7h-20.7L165 31.9l-6.4 19.7 16.8-12.2 16.8 12.2-6.4-19.7 16.7-12.2zm71.1 0h-20.7L246.5 0l-6.4 19.7h-20.7l16.8 12.2-6.4 19.7 16.8-12.2 16.8 12.2-6.4-19.7 16.6-12.2zm71.2 0h-20.7L317.7 0l-6.4 19.7h-20.7l16.8 12.2-6.4 19.7 16.8-12.2 16.8 12.2-6.6-19.7 16.8-12.2z"/></svg>