<svg xmlns="http://www.w3.org/2000/svg" viewBox="0 0 100 46.3"><path d="M61.6 30.1c-.2 0-.3 0-.5.1-.1.1-.1.2-.1.3 0 .1 0 .2.1.3.1.1.2.1.4.1h.3c.1 0 .2-.1.2-.1.1 0 .1-.1.1-.2s.1-.1.1-.2v-.1c-.1 0-.2 0-.2-.1-.2-.1-.3-.1-.4-.1zm-7.8-.8c-.1-.1-.2-.1-.2-.2-.1 0-.2-.1-.3-.1s-.2 0-.3.1c-.1 0-.2.1-.2.2-.1.1-.1.2-.2.3 0 .1-.1.2-.1.4 0 .1 0 .3.1.4 0 .1.1.2.2.3.1.1.2.1.2.2.2.1.4.1.6 0 .1 0 .2-.1.2-.2.1-.1.1-.2.2-.3 0-.1.1-.2.1-.4 0-.1 0-.3-.1-.4 0-.1-.1-.2-.2-.3zM39.6 18.7c1.2 0 2.1-1 2.1-2.4s-.9-2.4-2.1-2.4c-1.2 0-2.1 1-2.1 2.4 0 1.3.9 2.4 2.1 2.4zM49 29.3c-.1-.1-.2-.1-.2-.2-.1 0-.2-.1-.3-.1s-.2 0-.3.1c-.1 0-.2.1-.2.1l-.2.2c0 .1-.1.2-.1.3 0 .1 0 .2.1.3 0 .1.1.2.2.2l.2.2c.2.1.4.1.6 0 .1 0 .2-.1.2-.2l.2-.2c0-.1.1-.2.1-.3 0-.1 0-.2-.1-.3-.1 0-.1-.1-.2-.1zm10.1 0c-.1-.1-.1-.1-.2-.1s-.2-.1-.3-.1c-.2 0-.3.1-.5.2-.1.1-.2.3-.2.4h1.3c0-.1 0-.1-.1-.2.1-.1.1-.2 0-.2zm-20.3.8c-.2 0-.3 0-.5.1-.1.1-.1.2-.1.3 0 .1 0 .2.1.3.1.1.2.1.4.1h.3c.1 0 .2-.1.2-.1.1 0 .1-.1.1-.2s.1-.1.1-.2v-.1c-.1 0-.2 0-.2-.1-.2-.1-.3-.1-.4-.1zm-2.5-.8c-.1-.1-.1-.1-.2-.1s-.2-.1-.3-.1c-.2 0-.3.1-.5.2-.1.1-.2.3-.2.4h1.3c0-.1 0-.1-.1-.2.1-.1.1-.2 0-.2zm42.4-15.4c-1.2 0-2.1 1-2.1 2.4s.9 2.4 2.1 2.4c1 0 2.1-.8 2.1-2.4s-1.1-2.4-2.1-2.4z"/><path d="M100 20.5V0H0v18.6c0 6.8 4.7 8.6 4.7 8.6S24.9 37 38.1 42.7c13.3 5.7 24.3 0 24.3 0s26.5-12.1 32.3-15c5.9-2.9 5.3-7.2 5.3-7.2zM45.3 8.4c0-.3.2-.5.5-.5h2c.3 0 .5.2.5.5v12.3c0 .3-.2.5-.5.5h-2c-.3 0-.5-.2-.5-.5V8.4zM15 18.1c0 2-1.5 3.3-3.8 3.3-1.4 0-2.9-.5-4.1-1.4-.2-.2-.2-.4-.1-.6l.9-1.4c.1-.1.2-.2.3-.2h.1c.1 0 .2 0 .3.1.9.6 1.8 1 2.6 1 .3 0 .9 0 .9-.5 0-.3-.8-.5-1.4-.7l-.2-.1c-1.1-.3-3.1-.9-3.1-3.1 0-1.9 1.5-3.2 3.7-3.2 1.2 0 2.5.4 3.5 1.1.2.1.3.4.2.6l-.8 1.5c-.1.1-.2.2-.3.2h-.1c-.1 0-.2 0-.2-.1-.8-.5-1.6-.8-2.3-.8-.4 0-.8.1-.8.4 0 .3.9.6 1.5.8l.2.1c.9.2 3 .9 3 3zm3.6 2.6c0 .3-.2.5-.5.5h-2c-.3 0-.5-.2-.5-.5v-8.9c0-.3.2-.5.5-.5h2c.3 0 .5.2.5.5v8.9zm-1.5-10c-.9 0-1.6-.7-1.6-1.6 0-.9.7-1.6 1.6-1.6s1.6.7 1.6 1.6-.7 1.6-1.6 1.6zm11 5v5c0 .3-.2.5-.5.5h-2c-.3 0-.5-.2-.5-.5v-5.1c0-.8-.2-1.7-1.3-1.7-.9 0-1.4.7-1.4 1.7v5c0 .3-.2.5-.5.5h-2c-.3 0-.5-.2-.5-.5v-8.9c0-.3.2-.5.5-.5h2c.3 0 .5.2.5.5v.1c.5-.4 1.3-.8 2.2-.8 1.1 0 2.1.4 2.7 1.2.8-.8 1.8-1.2 3-1.2 2.2 0 3.6 1.5 3.6 3.9v5.7c0 .3-.2.5-.5.5h-2c-.3 0-.5-.2-.5-.5v-5.1c0-.4 0-1.7-1.3-1.7-1 .2-1.5.8-1.5 1.9zm4 15.3-.2.2s-.2.1-.3.2c-.1 0-.2.1-.3.1h-.4c-.2 0-.4 0-.6-.1s-.4-.2-.5-.3c-.1-.1-.2-.3-.3-.5-.1-.2-.1-.4-.1-.6s0-.4.1-.6.2-.4.3-.5c.1-.1.3-.3.5-.3.2-.1.4-.1.6-.1h.4c.1 0 .2.1.3.1.1 0 .2.1.3.2.1.1.2.1.2.2l.1.1-.5.6-.1-.1c-.1-.1-.2-.2-.3-.2-.2-.1-.4-.1-.6 0-.1 0-.2.1-.2.2-.1.1-.1.2-.2.3 0 .1-.1.2-.1.3 0 .1 0 .2.1.3 0 .1.1.2.2.3l.2.2c.2.1.5.1.7 0 .1-.1.2-.1.3-.2l.1-.1.5.5-.2-.2zm2.2-1.8c-.2 0-.4 0-.5.1-.1 0-.2.1-.3.2s-.1.2-.2.3c0 .1-.1.3-.1.5v1.1h-.8v-3h.8v.5l.3-.3c.2-.1.4-.2.7-.2h.1v.8zm3 .9s0 .1 0 0v.2h-2.1c0 .2.1.3.2.4.1.1.3.2.5.2s.3 0 .4-.1c.1-.1.2-.1.3-.2l.5.4c-.1.2-.3.3-.5.4s-.4.2-.7.2c-.2 0-.4 0-.6-.1-.2-.1-.3-.2-.5-.3-.1-.1-.2-.3-.3-.5s-.1-.4-.1-.6 0-.4.1-.6.2-.4.3-.5.3-.3.5-.3c.2-.1.4-.1.6-.1.2 0 .4 0 .6.1.2.1.3.2.4.4.1.1.2.3.3.5 0 0 .1.2.1.5 0-.1 0 0 0 0zm-.2-6.2h-2c-.3 0-.5-.2-.5-.5V11.8c0-.3.2-.5.5-.5h2c.3 0 .5.2.5.5v.3c.7-.6 1.6-.9 2.6-.9 1.2 0 2.4.5 3.2 1.3.9.9 1.4 2.2 1.4 3.8 0 1.5-.5 2.8-1.4 3.8-.9.9-2 1.3-3.2 1.3-1 0-1.8-.3-2.6-.9v2.9c-.1.3-.3.5-.5.5zm3 7.5h-.8v-.3c-.1.1-.2.1-.3.2-.2.1-.4.1-.6.1-.1 0-.3 0-.4-.1-.1 0-.2-.1-.3-.2s-.2-.2-.2-.3c-.1-.1-.1-.3-.1-.4 0-.2 0-.3.1-.5.1-.1.1-.2.3-.3.1-.1.2-.1.4-.2.1 0 .3-.1.5-.1h.5c.1 0 .2 0 .3.1 0-.2-.1-.3-.2-.4-.1-.1-.3-.1-.5-.1h-.4c-.1 0-.3.1-.4.1h-.1l-.2-.6c.2-.1.3-.1.5-.2.2 0 .4-.1.6-.1.4 0 .8.1 1 .3.2.2.3.5.3.9v2.1zm2.2-2.3h-.8v1.3c0 .1 0 .2.1.2s.1.1.2.1.3 0 .4-.1h.1v.7c-.1 0-.2.1-.3.1h-.6c-.1 0-.2-.1-.3-.2s-.1-.2-.2-.3c0-.1-.1-.3-.1-.4v-1.4h-.4v-.7h.4v-.8h.8v.8h.8v.7h-.1zm1.1 2.3h-.8v-3h.8v3zm0-3.3h-.8v-.7h.8v.7zm3.2 3.3h-.8v-1.7c0-.2 0-.4-.1-.5s-.2-.2-.4-.2-.3.1-.4.2c-.1.1-.2.3-.2.5v1.7h-.8v-3h.8v.3l.1-.1.2-.2c.1-.1.2-.1.3-.1h.3c.3 0 .6.1.8.3.2.2.3.5.3.8l-.1 2zm3.4-.6c0 .5-.1.9-.4 1.1-.1.1-.3.2-.5.3s-.4.1-.7.1c-.5 0-.9-.1-1.3-.3l.3-.6h.1c.1.1.3.2.5.2.2.1.3.1.5.1.3 0 .5-.1.6-.2s.2-.3.2-.6v-.1l-.3.3c-.2.1-.4.2-.6.2-.2 0-.3 0-.5-.1s-.3-.2-.4-.3c-.1-.1-.2-.3-.3-.4-.1-.2-.1-.4-.1-.6s0-.4.1-.6.2-.3.3-.4.3-.2.4-.3c.2-.1.3-.1.5-.1.3 0 .5.1.6.2s.2.2.3.2v-.3h.7v2.2zm4.8.6H54V31l-.3.3c-.2.1-.4.2-.6.2-.2 0-.4 0-.5-.1-.2-.1-.3-.2-.4-.3-.1-.1-.2-.3-.3-.5s-.1-.4-.1-.7c0-.3 0-.5.1-.7s.2-.4.3-.5.3-.2.4-.3c.2-.1.3-.1.5-.1s.5.1.6.2.2.2.3.2v-1.4h.8v4.1zm-3-7.4c-.9 0-1.6-.2-2.3-.6-.2-.1-.3-.4-.2-.6l.7-1.5.3-.3h.2c.1 0 .2 0 .2.1.3.2.7.3 1 .3s.5 0 .7-.5L48.7 12c-.1-.1 0-.3 0-.4.1-.1.2-.2.4-.2h2.2c.2 0 .4.1.4.3l2.1 5.4 1.9-5.4c.1-.2.2-.3.5-.3h2.1c.2 0 .3.1.4.2.1.1.1.3.1.4l-3.6 9.2c-.8 2-1.7 2.8-3.4 2.8zm5.3 5.2c-.2 0-.4 0-.5.1-.1 0-.2.1-.3.2s-.1.2-.2.3c0 .1-.1.3-.1.5v1.1h-.8v-3h.8v.5l.3-.3c.2-.1.4-.2.7-.2h.1v.8zm3 .9s0 .1 0 0v.2H58c0 .2.1.3.2.4.1.1.3.2.5.2s.3 0 .4-.1c.1-.1.2-.1.3-.2l.5.4c-.1.2-.3.3-.5.4s-.4.2-.7.2c-.2 0-.4 0-.6-.1-.2-.1-.3-.2-.5-.3-.1-.1-.2-.3-.3-.5s-.1-.4-.1-.6 0-.4.1-.6.2-.4.3-.5.3-.3.5-.3c.2-.1.4-.1.6-.1.2 0 .4 0 .6.1.2.1.3.2.4.4.1.1.2.3.3.5 0 0 .1.2.1.5 0-.1 0 0 0 0zm2.8 1.3h-.8v-.3c-.1.1-.2.1-.3.2-.2.1-.4.1-.6.1-.1 0-.3 0-.4-.1-.1 0-.2-.1-.3-.2s-.2-.2-.2-.3c-.1-.1-.1-.3-.1-.4 0-.2 0-.3.1-.5.1-.1.1-.2.3-.3.1-.1.2-.1.4-.2.1 0 .3-.1.5-.1h.5c.1 0 .2 0 .3.1 0-.2-.1-.3-.2-.4-.1-.1-.3-.1-.5-.1h-.4c-.1 0-.3.1-.4.1h-.1l-.2-.6c.2-.1.3-.1.5-.2.2 0 .4-.1.6-.1.4 0 .8.1 1 .3.2.2.3.5.3.9v2.1zm.3-10.7c0 .3-.2.5-.5.5h-2c-.3 0-.5-.2-.5-.5V8.4c0-.3.2-.5.5-.5h2c.3 0 .5.2.5.5v6.2l2.9-3.1c.1-.1.2-.2.3-.2h2.5c.3 0 .5.2.5.5 0 .1-.1.3-.1.3L66 15.5l3.4 5c.1.1.1.3 0 .5s-.2.3-.4.3h-2.4c-.2 0-.3-.1-.4-.2L64 17.6l-.7.8v2.3h-.1zm4.7 10.7h-.8v-1.7c0-.2 0-.4-.1-.5s-.2-.2-.4-.2-.3.1-.4.2-.2.3-.2.5v1.7h-.8v-1.7c0-.2 0-.4-.1-.5s-.2-.2-.4-.2-.3.1-.4.2-.2.3-.2.5v1.7h-.8v-3h.8v.2l.2-.2c.1-.1.2-.1.3-.1h.3c.2 0 .4.1.6.1l.3.3c.1-.1.2-.2.4-.3.2-.1.4-.1.6-.1.3 0 .6.1.8.3.2.2.3.5.3.9v1.9zm2.5-.4c-.1.1-.1.2-.2.3-.1.1-.2.1-.4.2-.1 0-.3.1-.4.1-.2 0-.4 0-.6-.1l-.6-.3.4-.5h.1c.2.1.3.2.5.3.2.1.3.1.4.1s.2 0 .3-.1c.1 0 .1-.1.1-.2v-.1l-.1-.1c-.1 0-.1-.1-.2-.1s-.2-.1-.2-.1c-.1 0-.2-.1-.3-.1-.1 0-.2-.1-.3-.2-.1-.1-.2-.2-.2-.3-.1-.1-.1-.2-.1-.4s0-.3.1-.4.1-.2.2-.3c.1-.1.2-.1.3-.2.3-.1.6-.1 1 0 .2.1.4.1.5.2l-.3.6h-.1c-.1-.1-.3-.1-.4-.2-.3-.1-.5-.1-.6 0-.1 0-.1.1-.1.2v.1l.1.1c.1 0 .1.1.2.1s.2.1.2.1c.1 0 .2.1.3.1.1 0 .2.1.3.2l.2.2c.1.1.1.2.1.4-.1.1-.1.2-.2.4zm2.7-10.3c0 .3-.2.5-.5.5h-2c-.3 0-.5-.2-.5-.5v-8.9c0-.3.2-.5.5-.5h2c.3 0 .5.2.5.5v8.9zm-1.5-10c-.9 0-1.6-.7-1.6-1.6 0-.9.7-1.6 1.6-1.6s1.6.7 1.6 1.6-.7 1.6-1.6 1.6zm12.2 10c0 .3-.2.5-.5.5h-2c-.3 0-.5-.2-.5-.5v-.3c-.7.6-1.6.9-2.6.9-1.2 0-2.4-.5-3.2-1.3-.9-.9-1.4-2.2-1.4-3.8 0-1.5.5-2.8 1.4-3.8.9-.9 2-1.3 3.2-1.3 1 0 1.8.3 2.6.9V8.4c0-.3.2-.5.5-.5h2c.3 0 .5.2.5.5v12.3zm8.5-2.6c0 2-1.5 3.3-3.8 3.3-1.4 0-2.9-.5-4.1-1.4-.2-.2-.2-.4-.1-.6l.9-1.4c.1-.1.2-.2.3-.2h.1c.1 0 .2 0 .3.1.9.6 1.8 1 2.6 1 .3 0 .9 0 .9-.5 0-.3-.8-.5-1.4-.7l-.2-.1c-1.1-.3-3.1-.9-3.1-3.1 0-1.9 1.5-3.2 3.7-3.2 1.2 0 2.5.4 3.5 1.1.2.1.3.4.2.6l-.8 1.5c-.1.1-.2.2-.3.2h-.1c-.1 0-.2 0-.2-.1-.8-.5-1.6-.8-2.3-.8-.4 0-.8.1-.8.4 0 .3.9.6 1.5.8l.2.1c.9.2 3 .9 3 3z"/></svg>