<svg xmlns="http://www.w3.org/2000/svg" viewBox="0 0 219.2 219.2"><path d="M197.9 0H21.3C9.6 0 0 9.6 0 21.3v176.6c0 11.7 9.6 21.3 21.3 21.3h176.6c11.7 0 21.3-9.6 21.3-21.3V21.3c0-11.7-9.5-21.3-21.3-21.3zm16.3 197.9c0 9-7.3 16.3-16.3 16.3H21.3c-9 0-16.3-7.3-16.3-16.3V21.3C5 12.3 12.3 5 21.3 5h176.6c9 0 16.3 7.3 16.3 16.3v176.6z"/><path d="M26.5 133.6h-3.2c-.1 0-.2.1-.3.2l-5 7.8-5-7.8c-.1-.1-.2-.2-.3-.2H9.4c-.2 0-.4.1-.4.4v17.4c0 .2.1.4.4.4h3c.2 0 .4-.1.4-.4v-11.3l4.8 7.2c.1.1.2.1.3.1h.1c.1 0 .2-.1.3-.1l4.8-7.2v11.3c0 .2.1.4.4.4h3c.2 0 .4-.1.4-.4V134c0-.2-.2-.4-.4-.4zm7.4 4.3h-3c-.2 0-.4.1-.4.4v13.1c0 .2.1.4.4.4h3c.2 0 .4-.1.4-.4v-13.1c-.1-.3-.2-.4-.4-.4zm.1-4.9h-3.3c-.2 0-.4.1-.4.4v2.9c0 .2.1.4.4.4H34c.2 0 .4-.2.4-.4v-2.9c-.1-.2-.3-.4-.4-.4zm13.7 14.2c-.1-.1-.4-.1-.5 0-.5.5-1 .9-1.5 1.1-.9.5-2.2.6-3.2.1-.4-.2-.8-.5-1.1-.8-.3-.4-.6-.8-.7-1.2-.2-.5-.2-1-.2-1.5s.1-1 .2-1.5c.2-.5.4-.9.7-1.2.3-.3.7-.6 1.1-.8.4-.2.9-.3 1.3-.3.7 0 1.3.1 1.7.4.5.3 1 .7 1.4 1.1.1.1.2.1.2.1.1 0 .2 0 .2-.1l1.9-2c.1-.1.1-.4 0-.5-.6-.7-1.4-1.3-2.2-1.7-.9-.4-2-.7-3.3-.7-1 0-2 .2-2.9.6-.9.4-1.6.9-2.3 1.6s-1.1 1.4-1.5 2.3c-.4.9-.5 1.8-.5 2.8 0 1 .2 1.9.5 2.8.4.9.9 1.6 1.5 2.3.6.6 1.4 1.2 2.3 1.5.9.4 1.8.6 2.8.6 1.3 0 2.4-.2 3.3-.7.9-.5 1.6-1.1 2.3-1.8.1-.1.1-.4 0-.5l-1.5-2zm11.9-9.5c-1.2 0-2.3.2-3.1.9-.5.4-.9.8-1.2 1.3v-1.6c0-.2-.1-.4-.4-.4h-3c-.2 0-.4.1-.4.4v13.1c0 .2.1.4.4.4h3c.2 0 .4-.1.4-.4v-5c0-.8.1-1.6.3-2.2.2-.6.5-1.1.9-1.5.4-.4.8-.7 1.3-.9.5-.2 1.1-.3 1.7-.3h.2c.2 0 .4-.2.4-.4V138c-.1-.2-.2-.3-.5-.3zm8.5 14.3c1 0 2-.2 2.9-.6.9-.4 1.7-.9 2.3-1.6.6-.7 1.2-1.4 1.5-2.3.4-.9.6-1.8.6-2.8 0-1-.2-1.9-.5-2.8-.4-.9-.9-1.6-1.5-2.3-.6-.6-1.4-1.2-2.3-1.5-1.8-.7-4.1-.7-5.9 0-.9.4-1.7.9-2.3 1.6-.6.6-1.2 1.4-1.5 2.3-.4.9-.6 1.8-.6 2.8s.2 1.9.6 2.8c.4.9.9 1.6 1.5 2.3s1.4 1.2 2.3 1.5c.8.4 1.8.6 2.9.6zm-3.7-7.2c0-.5.1-1 .2-1.5.2-.5.4-.9.7-1.2.3-.4.7-.6 1.1-.8.5-.2 1-.4 1.5-.4s1 .1 1.5.3c.5.2.8.5 1.1.9.3.4.6.8.7 1.2.2.5.3 1 .3 1.5s-.1 1-.2 1.5c-.2.5-.4.9-.7 1.2-.3.4-.7.6-1.1.8-.9.4-2 .4-2.9 0-.5-.2-.8-.5-1.1-.8-.3-.4-.6-.8-.7-1.2-.3-.4-.4-.9-.4-1.5zm22-5.1c-.6.7-1.1 1.4-1.4 2.3-.3.9-.5 1.8-.5 2.8 0 1.1.2 2.1.5 2.9.4.9.9 1.6 1.5 2.3.6.6 1.4 1.1 2.2 1.5.9.4 1.8.5 2.8.5 1.3 0 2.4-.2 3.3-.7.9-.5 1.7-1.1 2.3-1.9.1-.1.1-.4 0-.5l-1.8-1.6c-.1-.1-.4-.1-.5 0-.5.5-1 .9-1.5 1.1s-1.1.4-1.8.4c-.9 0-1.6-.2-2.3-.8-.5-.5-.9-1.1-1.1-1.8h9.2c.2 0 .4-.2.4-.4v-.8c0-1-.1-1.9-.4-2.8-.3-.9-.7-1.7-1.2-2.4-.6-.7-1.2-1.2-2.1-1.6-.8-.4-1.8-.6-2.9-.6-1 0-1.9.2-2.7.6-.7.4-1.4.9-2 1.5zm4.9 1.1c.4 0 .8.1 1.2.2s.6.4.9.6c.2.3.5.6.6 1 .1.3.2.6.2.9h-5.9c.1-.7.5-1.4 1-1.9.4-.5 1.1-.8 2-.8zm8.8 4.8h7.3c.2 0 .4-.1.4-.4v-2.9c0-.2-.1-.4-.4-.4h-7.3c-.2 0-.4.2-.4.4v2.9c0 .2.2.4.4.4zm22.8-10.3c-.6-.6-1.3-1-2.2-1.3-.9-.3-1.8-.4-2.8-.4H111c-.2 0-.4.2-.4.4v17.4c0 .2.1.4.4.4h3c.2 0 .4-.2.4-.4v-5.2h3.1c1 0 2-.1 2.8-.4.9-.3 1.7-.7 2.3-1.2.7-.5 1.2-1.2 1.6-2 .4-.8.6-1.7.6-2.7 0-.9-.1-1.8-.5-2.6-.3-.7-.8-1.4-1.4-2zm-2.7 6.6c-.6.5-1.5.8-2.5.8h-3.2v-5.6h3.2c1.1 0 1.9.2 2.5.7.6.5.9 1.1.9 2.1 0 .8-.3 1.4-.9 2zm16.2 9.6c.9-.4 1.7-.9 2.3-1.6.6-.6 1.2-1.4 1.5-2.3.4-.9.6-1.8.6-2.8 0-1-.2-1.9-.5-2.8-.4-.9-.9-1.6-1.5-2.3-.6-.6-1.4-1.2-2.3-1.5-1.8-.7-4.1-.7-5.9 0-.9.4-1.7.9-2.3 1.6-.6.6-1.2 1.4-1.5 2.3-.4.9-.6 1.8-.6 2.8s.2 1.9.5 2.8.9 1.6 1.5 2.3c.6.6 1.4 1.2 2.3 1.6.9.4 1.9.6 2.9.6 1.1-.2 2.1-.4 3-.7zm-5.5-3.9c-.3-.4-.6-.8-.7-1.2-.2-.5-.3-1-.3-1.5s.1-1 .2-1.5c.2-.5.4-.9.7-1.2.3-.4.7-.6 1.1-.8.5-.2 1-.4 1.5-.4s1 .1 1.5.3.8.5 1.1.9c.3.4.6.8.7 1.2.2.5.3 1 .3 1.5s-.1 1-.2 1.5-.4.9-.7 1.2c-.3.4-.7.6-1.1.8-.9.4-2 .4-2.9 0-.6-.2-.9-.5-1.2-.8zm22.5-.4c-.1-.1-.4-.1-.5 0-.5.5-.9.8-1.5 1.1-.9.5-2.2.6-3.1.1-.4-.2-.8-.5-1.1-.8-.3-.4-.6-.7-.7-1.2-.2-.5-.2-1-.2-1.5s.1-1 .2-1.5c.2-.5.4-.9.7-1.2.3-.4.7-.6 1.1-.8.4-.2.9-.3 1.3-.3.7 0 1.3.1 1.7.4.5.3 1 .7 1.4 1.1.1.1.1.1.2.1s.2 0 .2-.1l1.8-2c.1-.1.1-.4 0-.5-.6-.7-1.4-1.3-2.2-1.7-.9-.4-2-.7-3.3-.7-1 0-2 .2-2.9.6-.9.4-1.6.9-2.3 1.6-.6.7-1.1 1.4-1.5 2.3-.4.9-.5 1.8-.5 2.8s.2 1.9.5 2.8c.4.9.9 1.6 1.5 2.3.6.6 1.4 1.2 2.3 1.5.9.4 1.8.6 2.8.6 1.3 0 2.4-.2 3.3-.7.9-.5 1.6-1.1 2.3-1.8.1-.1.1-.4 0-.5l-1.5-2zm11.7-3.6 5-5.1c.1-.1.1-.2.1-.4-.1-.1-.2-.2-.3-.2h-3.7c-.1 0-.2 0-.2.1l-4.8 5.1v-9.9c0-.2-.1-.4-.4-.4h-3c-.2 0-.4.1-.4.4v18.1c0 .2.1.4.4.4h3c.2 0 .4-.1.4-.4v-3.6l1.4-1.5 3.7 5.3c.1.1.2.1.3.1h3.5c.1 0 .2-.1.3-.2.1-.1.1-.2 0-.4l-5.3-7.4zm17.1-3.7c-.6-.7-1.2-1.2-2.1-1.6-.8-.4-1.8-.6-2.9-.6-1 0-1.9.2-2.7.6-.8.4-1.5.9-2.1 1.6-.6.6-1.1 1.4-1.4 2.3-.3.9-.5 1.8-.5 2.8 0 1.1.2 2.1.5 2.9s.9 1.6 1.5 2.3c.6.6 1.4 1.1 2.2 1.5.9.3 1.8.5 2.8.5 1.3 0 2.4-.2 3.3-.7.9-.5 1.7-1.1 2.3-1.9.1-.1.1-.4 0-.5l-1.8-1.6c-.1-.1-.4-.1-.5 0-.5.5-1 .9-1.5 1.1s-1.1.4-1.8.4c-.9 0-1.6-.2-2.3-.8-.5-.5-.9-1.1-1.1-1.8h9.2c.2 0 .3-.1.4-.3v-.8c0-1-.1-1.9-.4-2.8-.1-1.2-.5-2-1.1-2.6zm-8 3.6c.1-.8.5-1.4 1-1.9.5-.6 1.2-.9 2.1-.9.5 0 .8.1 1.2.2s.6.4.9.6c.2.3.5.6.6 1 .1.3.2.6.2.9h-6zm19.5-5.6h-3.2v-3.3c0-.2-.1-.4-.4-.4h-3c-.2 0-.4.1-.4.4v3.3h-1.3c-.2 0-.4.1-.4.4v2.6c0 .2.1.4.4.4h1.3v6.6c0 .8.1 1.4.3 2 .2.5.5 1 .9 1.3.4.3.8.6 1.3.7.5.1 1.1.2 1.6.2.6 0 1.1-.1 1.6-.2s.9-.3 1.3-.5c.1-.1.2-.2.2-.3v-2.4c0-.1-.1-.2-.2-.3-.1-.1-.2-.1-.4 0-.5.3-1.1.4-1.7.4-.4 0-.7-.1-1-.3-.2-.2-.3-.5-.3-1v-6.1h3.2c.2 0 .4-.1.4-.4v-2.6c.2-.4 0-.5-.2-.5zm15.5-4.1-2 3.2-2-3.2c-.1-.1-.2-.2-.3-.2h-1.6c-.2 0-.4.2-.4.4v7.7c0 .2.1.4.4.4h1.4c.2 0 .4-.2.4-.4v-4.2l1.7 2.7c.1.1.2.2.3.2h.1c.1 0 .2-.1.3-.2l1.7-2.7v4.2c0 .2.1.4.4.4h1.4c.2 0 .4-.2.4-.4V134c0-.2-.1-.4-.4-.4h-1.5c-.1 0-.3.1-.3.2zm-7.5-.2h-6.2c-.2 0-.4.1-.4.4v1.3c0 .2.1.4.4.4h2v6c0 .2.1.4.4.4h1.5c.2 0 .4-.2.4-.4v-6h2c.2 0 .4-.2.4-.4V134c-.2-.2-.3-.4-.5-.4zm-124 39c-.5-.4-1.1-.8-1.8-1.1-.7-.3-1.6-.5-2.5-.8-.9-.2-1.5-.4-2-.6-.5-.2-.9-.4-1.2-.6-.2-.2-.4-.4-.5-.6s-.1-.5-.1-.7c0-.5.2-.9.6-1.2s1.1-.5 1.8-.5 1.5.1 2.2.4c.7.3 1.5.7 2.3 1.3.1.1.2.1.2.1.1 0 .2-.1.2-.1l1.6-2.3c.1-.1.1-.4-.1-.5-.9-.7-1.9-1.3-3-1.7-1-.4-2.2-.6-3.6-.6-.9 0-1.7.1-2.5.4-.8.2-1.4.6-2 1.1-.6.5-1 1.1-1.3 1.7-.3.7-.5 1.4-.5 2.2 0 .9.1 1.6.4 2.2.3.6.7 1.1 1.2 1.6.5.4 1.2.8 1.9 1 .7.3 1.6.5 2.5.7.8.2 1.5.4 2 .6.5.2.9.4 1.1.5l.5.5c.1.2.1.4.1.7 0 .6-.2 1-.7 1.3-.5.4-1.2.5-2.1.5-1 0-2-.2-2.8-.6-.8-.4-1.7-.9-2.5-1.6-.1-.1-.1-.1-.2-.1s-.2.1-.2.1l-1.8 2.2c-.1.1-.1.4 0 .5 1.1 1 2.3 1.7 3.5 2.2 1.3.5 2.6.7 4 .7.9 0 1.8-.1 2.6-.4.8-.2 1.5-.6 2.1-1.1.6-.5 1-1.1 1.4-1.8.3-.7.5-1.5.5-2.4 0-.8-.1-1.5-.4-2.1 0-.1-.4-.6-.9-1.1zm16.3-4.9h-3.1c-.1 0-.3.1-.4.2l-3.1 8.8-3.4-8.8c-.1-.1-.2-.2-.3-.2h-3.2c-.1 0-.2.1-.3.1-.1.1-.1.2 0 .3l5.4 13c-.2.5-.4.7-.6.9-.4.3-1.1.3-1.7.1-.3-.1-.6-.2-.8-.4h-.3c-.1 0-.2.1-.2.2l-1 2.2c-.1.2 0 .4.1.5.5.3 1 .5 1.5.6.5.1 1.1.2 1.8.2.6 0 1.1-.1 1.5-.2.5-.1.9-.4 1.3-.7.4-.3.7-.7 1-1.2.3-.5.6-1 .9-1.8l5.2-13.5v-.3c0 .1-.2 0-.3 0zm10.3 6.7c-.4-.3-.9-.6-1.4-.8-.5-.2-1-.4-1.5-.5-.4-.1-.7-.2-1.1-.4-.4-.1-.7-.2-.9-.4-.2-.1-.4-.2-.6-.4-.1-.1-.1-.2-.1-.4 0-.3.1-.5.4-.7.5-.4 1.6-.4 2.8 0 .6.2 1.2.5 1.8.9.1.1.2.1.3 0s.2-.1.2-.2l1.2-2.1c.1-.2 0-.4-.1-.5-.7-.5-1.5-.9-2.4-1.1-1.6-.5-3.2-.6-4.5-.1-.6.2-1.1.5-1.6.9s-.8.9-1.1 1.4c-.2.5-.4 1.2-.4 1.9s.1 1.3.4 1.7c.3.5.6.9 1.1 1.2s.9.6 1.4.7c.5.2 1 .4 1.5.5l1.1.3c.3.1.6.2.9.4.2.1.4.2.5.4.1.1.1.2.1.5s-.1.6-.4.7c-.6.5-2 .4-3.3-.1-.7-.3-1.4-.6-2.1-1.2-.1-.1-.2-.1-.3-.1-.1 0-.2.1-.2.1l-1.3 2c-.1.1-.1.4.1.5.9.7 1.8 1.2 2.8 1.5s2 .5 3 .5c.7 0 1.4-.1 2-.3.6-.2 1.2-.5 1.7-.8.5-.4.9-.9 1.1-1.4.3-.6.4-1.2.4-2 0-.7-.1-1.2-.4-1.7-.3-.2-.6-.6-1.1-.9zm11.2-6.7h-3.2v-3.3c0-.2-.1-.4-.4-.4h-3c-.2 0-.4.2-.4.4v3.3h-1.3c-.2 0-.4.2-.4.4v2.6c0 .2.1.4.4.4h1.3v6.6c0 .8.1 1.4.3 2 .2.5.5 1 .9 1.3.4.4.9.6 1.3.7s1.1.2 1.6.2c.6 0 1.1-.1 1.6-.2s.9-.3 1.3-.5c.1-.1.2-.2.2-.3v-2.4c0-.1-.1-.2-.2-.3-.1-.1-.2-.1-.4 0-.5.3-1.1.4-1.7.4-.4 0-.7-.1-1-.3-.2-.2-.3-.5-.3-1V171h3.2c.2 0 .4-.1.4-.4V168c.1-.1 0-.3-.2-.3zm13.3 2c-.5-.7-1.2-1.2-2.1-1.6-.8-.4-1.8-.6-2.9-.6-1 0-1.9.2-2.7.6-.8.4-1.5.9-2.1 1.6-.6.6-1.1 1.4-1.4 2.3-.3.9-.5 1.8-.5 2.8 0 1.1.2 2.1.5 2.9.4.9.9 1.6 1.5 2.3.6.6 1.4 1.1 2.3 1.5.9.4 1.8.5 2.8.5 1.3 0 2.4-.2 3.3-.7.9-.5 1.7-1.1 2.3-1.9.1-.1.1-.4 0-.5l-1.8-1.6c-.1-.1-.4-.1-.5 0-.5.5-1 .9-1.5 1.1-.5.2-1.1.4-1.8.4-.9 0-1.6-.2-2.3-.8-.5-.5-.9-1.1-1.1-1.8h9.2c.2 0 .3-.1.4-.3v-.9c0-1-.1-1.9-.4-2.8-.2-1-.7-1.9-1.2-2.5zm-8 3.7c.1-.8.5-1.4 1-1.9.5-.6 1.2-.9 2-.9.5 0 .9.1 1.2.2.4.2.6.4.9.6.2.3.5.6.6 1 .1.3.2.6.2.9h-5.9zm27.7-6c-1.1 0-2 .2-2.8.7-.6.4-1.2.8-1.6 1.4-.4-.5-.8-1-1.3-1.3-.7-.5-1.6-.7-2.6-.7-.5 0-1 .1-1.5.2-.4.1-.9.3-1.2.6-.4.2-.6.5-.9.8l-.1.1v-1c0-.2-.1-.4-.4-.4h-3c-.2 0-.4.1-.4.4v13.1c0 .2.1.4.4.4h3c.2 0 .4-.2.4-.4V174c0-.9.2-1.7.7-2.2.5-.5 1-.7 1.8-.7.7 0 1.3.2 1.7.7.4.5.6 1.2.6 2.1v7.5c0 .2.1.4.4.4h3c.2 0 .4-.2.4-.4V174c0-1 .2-1.7.7-2.2.5-.5 1-.7 1.7-.7s1.3.2 1.7.7c.4.5.6 1.2.6 2.2v7.4c0 .2.1.4.4.4h3c.2 0 .4-.2.4-.4V173c0-1.7-.5-3-1.3-3.9-1.1-1.2-2.3-1.7-3.8-1.7zM55.3 88.9h.4c.5 0 .9-.2 1.1-.6l18-26.8v42c0 .7.6 1.3 1.3 1.3h11.3c.7 0 1.3-.6 1.3-1.3V38.9c0-.7-.6-1.3-1.3-1.3H75.3c-.5 0-.9.2-1.1.6L55.6 67 37.1 38.1c-.2-.4-.7-.6-1.1-.6H23.9c-.7 0-1.3.6-1.3 1.3v64.6c0 .7.6 1.3 1.3 1.3h11.3c.7 0 1.3-.6 1.3-1.3V61.7l17.8 26.6c.2.4.6.6 1 .6zm47.4 30.7H114c.4 0 .7-.1 1-.4.2-.2.4-.6.4-1l-.1-18.8c1.3 1.3 2.8 2.5 4.5 3.6 2.8 1.8 6.5 2.8 10.7 2.8 3.1 0 6.1-.6 8.9-1.8 2.9-1.2 5.5-2.9 7.7-5.3 2.2-2.3 4-5.1 5.4-8.4 1.3-3.3 2-7.1 2-11.3 0-4.2-.7-8-2-11.3-1.3-3.3-3.2-6.1-5.4-8.4-2.2-2.3-4.8-4.1-7.7-5.3-2.8-1.2-5.9-1.8-8.9-1.8-4.2 0-7.7 1-10.6 2.8-1.7 1.1-3.2 2.4-4.5 3.9v-4.4c0-.7-.6-1.3-1.3-1.3h-11.3c-.7 0-1.3.6-1.3 1.3V118c-.1 1 .4 1.6 1.2 1.6zm13.4-46.5c.7-1.7 1.7-3.3 2.8-4.5 1.2-1.2 2.5-2.2 4.1-2.9 1.6-.7 3.2-1 4.9-1 1.7 0 3.3.3 4.9 1 1.5.7 2.9 1.6 4 2.8 1.1 1.2 2.1 2.7 2.7 4.5s1 3.8 1 6-.4 4.3-1 6-1.6 3.3-2.7 4.5c-1.1 1.2-2.5 2.2-4 2.8-3 1.3-6.7 1.3-9.8 0-1.5-.7-2.9-1.6-4.1-2.9-1.2-1.2-2.1-2.8-2.8-4.5-.7-1.8-1.1-3.8-1.1-6 0-2 .3-4 1.1-5.8zm83 23.3c1-2.1 1.5-4.5 1.5-7.5 0-2.4-.5-4.6-1.6-6.3-1-1.7-2.3-3.1-3.9-4.3-1.5-1.1-3.3-2.1-5.1-2.9-1.8-.7-3.7-1.4-5.5-2-1.4-.4-2.8-.9-4-1.3-1.3-.4-2.4-.9-3.3-1.4-.9-.5-1.6-1-2.1-1.5-.4-.4-.6-.8-.6-1.5 0-1 .4-1.8 1.3-2.4 1.9-1.5 6-1.5 10.4.1 2.3.8 4.6 1.9 6.9 3.3.3.2.7.2 1 .1.4-.1.6-.3.8-.6l4.4-8c.4-.6.1-1.4-.4-1.7-2.7-1.8-5.7-3.2-8.9-4.2-5.8-1.8-11.8-2.1-16.9-.5-2.3.7-4.3 1.8-6 3.2-1.7 1.4-3.1 3.2-4 5.1-1 2-1.5 4.3-1.5 7 0 2.6.5 4.8 1.6 6.5 1 1.7 2.3 3.2 3.9 4.4 1.5 1.1 3.3 2.1 5.2 2.8 1.8.7 3.7 1.3 5.5 1.9l4.1 1.2c1.2.4 2.3.8 3.3 1.3.9.4 1.5 1 2 1.5.4.4.5.9.5 1.7 0 1.2-.5 2.1-1.4 2.7-2.3 1.7-7.3 1.6-12.2-.2-2.6-1-5.2-2.4-7.7-4.3-.3-.2-.6-.3-1-.2-.4.1-.7.3-.9.6l-5 7.6c-.4.6-.2 1.3.3 1.8 3.2 2.5 6.7 4.4 10.4 5.6 3.7 1.3 7.5 1.9 11.1 1.9 2.6 0 5.1-.4 7.5-1 2.4-.7 4.4-1.7 6.2-3.1 1.7-1.5 3.1-3.3 4.1-5.4z"/></svg>