<svg xmlns="http://www.w3.org/2000/svg" viewBox="0 0 38.7 26.9"><path d="M37.711 12.344c-1-1.2-1.9-2.6-2.6-4.1-.8-1.7-1.6-3.3-2.4-4.9-.3-.6-.9-1-1.6-1h-4.8v-.7c.1-.8-.4-1.5-1.2-1.6h-20.4c-.8.1-1.3.7-1.2 1.5 0 .1 0 .2.1.3.2.6.8 1 1.5.9h18.6v8c-.1.8.4 1.5 1.2 1.6h9.1c.2 0 .4.1.5.3.4.6.9 1.1 1.3 1.6.1.2.2.4.2.6v5.7h-1.6c-.2 0-.4-.1-.5-.3-.9-2.6-3.8-4-6.4-3.1-1.4.5-2.6 1.6-3.1 3.1-.1.2-.2.3-.4.3h-6.2c-.2 0-.4-.1-.4-.3-.9-2.6-3.7-4-6.3-3.1-1.5.5-2.6 1.6-3.1 3.1 0 .2-.2.3-.4.3h-2.5c-.8-.1-1.4.5-1.5 1.3-.1.8.5 1.4 1.3 1.5h2.7c.2 0 .4.1.5.3 1 2.6 3.8 3.9 6.4 2.9 1.4-.5 2.5-1.6 3-3 0-.2.2-.3.4-.3h6.3c.2 0 .4.1.4.3.9 2.6 3.8 3.9 6.4 3 1.4-.5 2.5-1.6 3-3 0-.2.2-.3.4-.3h2.8c.8.1 1.5-.4 1.6-1.2v-6.9c-.1-1.8.1-1.3-1.1-2.8zm-5.1-2.7h-6.3v-4.4h3.8c.2 0 .3.1.4.2.7 1.4 1.4 2.8 2.1 4.1v.1zm-20 14.5c-1.2 0-2.3-1-2.3-2.2 0-1.2 1-2.3 2.2-2.3 1.2 0 2.3 1 2.3 2.2.1 1.3-.9 2.3-2.2 2.3zm16.5 0c-1.2 0-2.2-1-2.3-2.2 0-1.2 1-2.2 2.2-2.3 1.2 0 2.2 1 2.3 2.2.1 1.3-.9 2.3-2.2 2.3z"/><path d="M3.311 7.744h10.4c.1 0 .3 0 .4-.1.7-.2 1.1-1 .9-1.7-.2-.6-.7-1-1.3-1h-10.2c-.2 0-.5 0-.7.1-.6.2-.9.9-.8 1.5.1.7.7 1.2 1.3 1.2zm4.5 4.7h3.9c.8 0 1.4-.6 1.4-1.3 0-.8-.6-1.4-1.3-1.4h-10.3c-.3 0-.7.1-1 .3-.5.3-.6.9-.4 1.5.2.6.7.9 1.3.9h6.4zm-1.7 4.8h2.7c.8.1 1.4-.5 1.5-1.3.1-.8-.5-1.4-1.3-1.5h-5.6c-.8 0-1.4.5-1.4 1.3s.5 1.4 1.3 1.4h.2c.8.1 1.7.1 2.6.1z"/></svg>