<svg xmlns="http://www.w3.org/2000/svg" viewBox="0 0 59.8 55.4"><path d="M51.4.6h-43C4.1.6.6 4.1.6 8.4v38.7c0 4.3 3.5 7.8 7.8 7.8h43c4.3 0 7.8-3.5 7.8-7.8V8.3C59.1 4.1 55.6.6 51.4.6zm6.2 7.7V26C56.9 13.9 47.1 4 34.4 2.1h17c3.4 0 6.2 2.8 6.2 6.2zM17.2 42c-1.9 0-3.4 1.5-3.4 3.4 0 .5.1.9.3 1.3C7.8 42.3 3.7 35.3 3.7 27.5c0-3 .6-5.9 1.7-8.6 1.1.3 3.7 1 7.4 1.3-.3.2-.4.5-.4.9 0 .7.5 1.2 1.2 1.2s1.2-.5 1.2-1.2c0-.3-.1-.6-.3-.8.9 0 1.8.1 2.8.1 3.7 0 8.1-.4 12.9-1.7 4.8-1.3 9.3-1.6 13-1.6-.9.6-1.4 1.6-1.4 2.8 0 1.9 1.5 3.4 3.4 3.4s3.4-1.5 3.4-3.4c0-1-.5-1.9-1.2-2.5 4 .4 6.5 1.2 7 1.3 1.2 2.7 1.8 5.7 1.8 8.8 0 13.3-11.8 24.2-26.2 24.2-4.5 0-8.7-1-12.4-2.9 1.7-.2 3.1-1.6 3.1-3.3-.1-2-1.7-3.5-3.5-3.5zM6 17.5C10.2 9.1 19.3 3.3 29.9 3.3c10.3 0 19.3 5.5 23.6 13.5-3.5-.8-12.6-2.5-23.8.4-11.7 3.1-21.2 1-23.7.3zM8.4 2.1h17C12.7 4.1 2.9 13.9 2.2 26V8.3c0-3.4 2.8-6.2 6.2-6.2zm43 51.2h-43c-3.4 0-6.2-2.8-6.2-6.2V28.9C3 42.4 15.1 53.1 29.9 53.1s26.9-10.7 27.7-24.2v18.2c0 3.4-2.8 6.2-6.2 6.2z"/><path d="M39.8 13.9c1.1 0 1.9-.9 1.9-1.9s-.9-1.9-1.9-1.9-1.9.9-1.9 1.9.8 1.9 1.9 1.9zM23 43.1c.9 0 1.7-.8 1.7-1.7s-.8-1.7-1.7-1.7-1.7.8-1.7 1.7.7 1.7 1.7 1.7z"/><circle cx="41.2" cy="26.2" r="1.2"/><path d="M22.9 18.2c.5 0 .9-.4.9-.9s-.4-.9-.9-.9-.9.4-.9.9.4.9.9.9zm14.7 4c.5 0 .9-.4.9-.9s-.4-.9-.9-.9-.9.4-.9.9.4.9.9.9z"/></svg>