<svg xmlns="http://www.w3.org/2000/svg" viewBox="0 0 168.3 178.2"><path d="m162.4 9.4-8.8-6.5-.1-.1h-.1C150.3.6 146.5-.4 142.7.2c-3.8.6-7.2 2.6-9.5 5.7l-2.3 3.2c-3 4-2.1 9.8 1.9 12.8l1.7 1.2c-4.1-2-8.7-2.7-13.3-2-5.4.8-10.4 3.6-14 7.9l-.5.5c0 .1-.1.1-.1.2l-.1.1-.4.4-2 2.7c-1.1 1.5-1.6 3.2-1.4 5-1.8.4-3.3 1.4-4.4 2.8-1.1 1.5-1.6 3.2-1.4 5-1.8.4-3.3 1.4-4.4 2.8-1.1 1.5-1.6 3.2-1.4 5-1.7.4-3.3 1.3-4.4 2.8-1.1 1.5-1.6 3.2-1.4 5-1.8.4-3.3 1.4-4.4 2.8L56.6 97.4c-1.4 1.9-2 4.2-1.6 6.5.3 2.3 1.6 4.3 3.4 5.7l29.9 22.1c1.5 1.1 3.3 1.7 5.2 1.7.5 0 .9 0 1.3-.1 2.3-.4 4.3-1.6 5.7-3.5l21.6-29.3c0-.1.1-.1.1-.2l2.9-3.9c1.1-1.5 1.6-3.2 1.4-5 1.8-.4 3.3-1.4 4.4-2.8 1.1-1.5 1.6-3.2 1.4-5 1.8-.4 3.3-1.4 4.4-2.8 1.1-1.4 1.6-3.2 1.4-5 1.7-.4 3.3-1.3 4.4-2.8 1.1-1.5 1.6-3.2 1.4-5 1.7-.4 3.3-1.3 4.4-2.8l2-2.7c.1-.1.2-.3.2-.4l.3-.3c.2-.3.3-.5.4-.8 5.5-8.9 4.3-20.3-2.5-27.7l1.7 1.3.1.1c1.6 1.2 3.4 1.8 5.4 1.8.4 0 .9 0 1.4-.1 2.4-.4 4.5-1.6 6-3.6l2.3-3.2c4.6-6.3 3.2-15.4-3.2-20.2zM116 99.6l-19.9 27c-.5.7-1.2 1.1-2 1.2h-.4c-.7 0-1.3-.2-1.8-.6L62 105.1c-.7-.5-1.1-1.2-1.2-2-.1-.8.1-1.6.6-2.3l19.9-27L116 99.6zM143.7 62c-.5.7-1.6.9-2.3.3-.6-.4-1.4-.6-2.1-.5l-.5.1c-.7.1-1.4.5-1.9 1.1-.4.6-.6 1.4-.5 2.1l.1.5c.1.7.5 1.4 1.1 1.8.7.5.9 1.6.3 2.3-.5.7-1.6.9-2.3.3-.6-.4-1.4-.6-2.1-.5l-.6.1c-.7.1-1.4.5-1.9 1.1-1 1.4-.7 3.4.6 4.4l.1.1.1.1c.3.3.5.6.6 1 .1.4 0 .9-.3 1.2-.3.4-.6.6-1.1.6-.4.1-.9 0-1.2-.3-.7-.5-1.5-.7-2.4-.6-.9.1-1.6.6-2.1 1.3-1 1.4-.7 3.4.7 4.5.7.5.9 1.6.4 2.3-.3.4-.6.6-1.1.6-.4.1-.8 0-1.2-.3h-.2l-.2-.2c-1.4-.8-3.2-.4-4.1.9-.5.6-.7 1.4-.5 2.2l.1.5c.1.7.5 1.4 1.1 1.8.7.5.9 1.6.3 2.3l-1.3 1.7-34.9-25.6 1.3-1.7c.3-.3.6-.6 1.1-.6.4-.1.9 0 1.2.3.5.4 1.3.6 1.9.6.9 0 1.8-.4 2.4-1.1l.3-.4c.9-1.2.7-2.9-.4-3.8-.8-.7-.9-1.1-1-1.5-.1-.4 0-.9.3-1.2.3-.4.6-.6 1.1-.7.4-.1.9 0 1.2.3.7.5 1.5.7 2.4.6.7-.1 1.6-.7 2.1-1.3 1-1.4.7-3.4-.7-4.5-.7-.5-.9-1.6-.4-2.3.3-.4.6-.6 1.1-.7.3 0 .5 0 .7.1v.5h.8c.6.3 1.3.5 2.1.3.7-.1 1.6-.7 2.1-1.2.5-.7.7-1.5.6-2.4-.1-.9-.6-1.6-1.3-2.1-.4-.3-.6-.6-.7-1.1-.1-.4 0-.9.3-1.2.3-.4.6-.6 1.1-.6.5-.1.9 0 1.2.3.7.5 1.6.7 2.4.6.7-.1 1.7-.7 2.1-1.3 1-1.4.7-3.4-.6-4.4l-.3-.3c-.2-.2-.3-.5-.4-.8-.1-.4 0-.9.3-1.2l.8-1.1L144.4 61l-.7 1zm3.7-5.9-34.1-25.3c2.5-2.2 5.5-3.7 8.8-4.1 4.6-.7 9.1.4 12.8 3.2l7 5.2.3.3h.1c6.3 4.8 8.4 13.5 5.1 20.7zM161 26.4l-2.3 3.2c-.6.8-1.4 1.3-2.3 1.4h-.5c-.7 0-1.4-.2-2-.6l-17.6-13.1c-1.6-1.2-1.9-3.4-.7-5l2.3-3.2c1.4-1.9 3.5-3.2 5.8-3.5 2.3-.3 4.6.2 6.5 1.6l9 6.6c3.8 3 4.7 8.6 1.8 12.6zm-24 60.9c.6-.4 1.2-.8 1.8-1.3 2.1 6.8 3.2 13.9 3.2 21.1 0 19-7.4 36.8-20.8 50.3-13.4 13.4-31.2 20.8-50.2 20.8s-36.8-7.4-50.2-20.8C7.4 144 0 126.1 0 107.1c0-19 7.4-36.8 20.8-50.3C34.2 43.4 52 36.1 71 36.1c7.7 0 15.2 1.2 22.2 3.6-.4.8-.7 1.7-.9 2.6-.3.2-.5.3-.7.5-6.5-2.1-13.4-3.2-20.6-3.2-37.3 0-67.6 30.4-67.6 67.7C3.4 144.6 33.7 175 71 175s67.6-30.4 67.6-67.7c0-6.1-.8-12-2.3-17.6.3-.9.6-1.6.7-2.4z"/></svg>