<svg xmlns="http://www.w3.org/2000/svg" viewBox="0 0 32 32"><path d="m17 14.1 5-3.8c.4-.3 1.1-.3 1.5.1.4.4.4 1.1.1 1.5l-3.8 5c.1.2.1.5.1.8 4.3.5 8.1 1.6 9.5 2.1.3-1.2.5-2.5.5-3.8 0-7.7-6.3-14-14-14S2 8.3 2 16c0 1.3.2 2.6.5 3.8 1.4-.4 5.1-1.6 9.5-2.1.1-2.1 1.9-3.7 4-3.7.4 0 .7 0 1 .1zm2.9 4.6C19.6 20.6 18 22 16 22s-3.6-1.4-3.9-3.3c-4.1.5-7.7 1.5-9.2 2C4.8 26.1 9.9 30 16 30s11.2-3.9 13.2-9.3c-1.6-.5-5.2-1.5-9.3-2zM16 32C7.2 32 0 24.8 0 16S7.2 0 16 0s16 7.2 16 16-7.2 16-16 16zm0-11c1.7 0 3-1.3 3-3s-1.3-3-3-3-3 1.3-3 3 1.3 3 3 3zm-.5-17.5c0-.3.2-.5.5-.5s.5.2.5.5v1c0 .3-.2.5-.5.5s-.5-.2-.5-.5v-1zM5 15c.3 0 .5.2.5.5s-.2.5-.5.5H4c-.3 0-.5-.2-.5-.5s.2-.5.5-.5h1zm23 0c.3 0 .5.2.5.5s-.2.5-.5.5h-1c-.3 0-.5-.2-.5-.5s.2-.5.5-.5h1zm-3.9-8.3c.2-.2.5-.2.7 0 .2.2.2.5 0 .7l-.7.7c-.2.2-.5.2-.7 0-.2-.2-.2-.5 0-.7l.7-.7zm-15.5.7c.2.2.2.5 0 .7-.2.2-.5.2-.7 0l-.7-.7c-.2-.2-.2-.5 0-.7.2-.2.5-.2.7 0l.7.7zm11.6-3.1c.1-.3.4-.4.6-.3.3.1.4.4.3.7l-.4.9c-.1.3-.4.4-.7.3-.3-.1-.4-.4-.3-.7l.5-.9zM6.1 10.9c.3.1.4.4.3.7-.1.3-.4.4-.7.3l-.9-.4c-.3-.1-.4-.4-.3-.7.1-.3.4-.4.7-.3l.9.4zm20.8-.4c.3-.1.6 0 .7.3.1.3 0 .5-.3.7l-.9.4c-.3.1-.6 0-.7-.3-.1-.3 0-.5.3-.7l.9-.4zM12.3 5.2c.1.3 0 .6-.3.7-.3.1-.5 0-.7-.3l-.3-.9c-.1-.3 0-.6.3-.7.3-.1.5 0 .7.3l.3.9z" fill-rule="evenodd" clip-rule="evenodd"/></svg>