<?xml version="1.0" encoding="utf-8"?>
<!-- Generator: Adobe Illustrator 26.3.1, SVG Export Plug-In . SVG Version: 6.00 Build 0)  -->
<svg version="1.1" id="Group_410" xmlns="http://www.w3.org/2000/svg" xmlns:xlink="http://www.w3.org/1999/xlink" x="0px" y="0px"
	 viewBox="0 0 28 28" style="enable-background:new 0 0 28 28;" xml:space="preserve">
<style type="text/css">
	.st0{fill:#FFFFFF;}
</style>
<g>
	<path class="st0" d="M28,14c0-7.7-6.3-14-14-14C21.7,0,28,6.3,28,14z"/>
	<path class="st0" d="M14,28c7.7,0,14-6.3,14-14C28,21.7,21.7,28,14,28z"/>
	<path class="st0" d="M0,14c0,7.7,6.3,14,14,14C6.3,28,0,21.7,0,14z"/>
	<path class="st0" d="M14,0C6.3,0,0,6.3,0,14C0,6.3,6.3,0,14,0z"/>
	<path d="M28,14c0-7.7-6.3-14-14-14S0,6.3,0,14s6.3,14,14,14S28,21.7,28,14z M14,25C7.9,25,3,20.1,3,14S7.9,3,14,3s11,4.9,11,11
		S20.1,25,14,25z"/>
	<path d="M12.2,16.1l-3.8-3.8l-2,2l4.7,4.7c0.5,0.5,1.4,0.5,2,0l8.5-8.5l-2-2L12.2,16.1z"/>
</g>
</svg>
