<svg xmlns="http://www.w3.org/2000/svg" viewBox="0 0 171.9 186.2"><path d="M138.2 52c0-7.8-.8-28.8-10.6-42.8C121-.3 115.9-.8 112.8.5c-4.7 1.8-7.1 8.4-7 18.6-3.7-4.1-6.6-6.3-8.5-7.7l-.8-.6c-2.7-2.1-6.9-3.6-10.4-1.6-4 2.3-5.3 8.1-4 17.6 2.1 15.9 19.7 32.5 26.1 38-1.1 2.1-1.8 4.2-2.3 6.1-4.1-2.2-11.3-4.3-24.2-4.3h-.6C59 67 37 77.9 30.6 101.4c-8.1 0-14.7 6.6-14.7 14.7s6.6 14.7 14.7 14.7h.2c5.7 19.3 23.1 30.1 49.8 30.1 8.1 0 15.1-1.3 20.9-3.8h31.4c3.3.1 7.3.2 10-2.4 1.6-1.6 2.4-3.7 2.4-6.5 0-6.1-4.3-8.8-7-10l9.1-27.2c22.6-1.1 24.4-18.7 24.4-24.1.1-7.2-5.8-32.7-33.6-34.9zm4.1 54.9-10.9 32.4c-.3.9-.2 1.9.3 2.7.5.8 1.3 1.3 2.3 1.4.5.1 5.1.7 5.1 4.7 0 1-.2 1.7-.5 2.1-.8.8-3.4.7-5.5.6h-22.3c5.4-5.3 8.4-12.4 8.4-20.5 0-16.3-14.6-22.4-15.3-22.7-.8-.3-1.6-.3-2.4 0-.8.3-1.4.9-1.7 1.7-.6 1.6.2 3.4 1.8 4 .5.2 11.3 4.5 11.3 16.9 0 11.8-8.5 24.3-32.4 24.3-17 0-45.6-5-45.6-38.9C35 84.2 60.1 73 81.6 73c7.6 0 12.8.7 16.3 1.7 6.1 1.6 7.4 3.7 7.4 3.7.4 1.5 2 2.5 3.5 2.2 1.6-.3 2.7-1.7 2.6-3.3 0-.3-.4-7.6 4.6-13 3.9-4.2 10.1-6.3 18.4-6.3 25.9 0 31.2 22.7 31.2 28.8 0 11.9-6.9 18-20.4 18-1.3 0-2.5.8-2.9 2.1zM29.4 124.3c-4-.6-7.3-4.1-7.3-8.3 0-4.2 3.2-7.7 7.2-8.3-.4 2.6-.6 5.2-.6 8 0 3 .3 5.9.7 8.6zm58.8-98.2c-1.3-10 1-11.4 1-11.4.6-.3 2.2.2 3.5 1.2l.8.6c4.2 3.1 13.9 10.3 25.9 38.1-3 1.3-5.6 3.1-7.7 5.3-5.9-5.4-21.7-20.5-23.5-33.8zm26.9-19.8c.9-.3 3.7 1.1 7.5 6.5 8.6 12.4 9.4 31.8 9.4 39.1-2.3.1-4.5.4-6.5.8-4.6-10.7-8.9-18.7-12.7-24.5-2-14.9.7-21.3 2.3-21.9zm38 70.4c0 2.6-2.1 4.7-4.7 4.7s-4.7-2.1-4.7-4.7 2.1-4.7 4.7-4.7c2.5 0 4.7 2.1 4.7 4.7zM119.7 162h4.7c-1 1.2-2.1 2.3-3.2 3.4-13.4 13.4-31.2 20.8-50.2 20.8s-36.8-7.4-50.2-20.8C7.4 152 0 134.1 0 115.1s7.4-36.8 20.8-50.3C34.2 51.4 52 44 71 44c4.5 0 8.8.4 13.1 1.2.9 1.4 1.8 2.8 2.8 4.1-5.1-1.2-10.4-1.9-15.9-1.9-37.3 0-67.6 30.4-67.6 67.7 0 37.3 30.3 67.7 67.6 67.7 19.1 0 36.4-8 48.7-20.8z"/></svg>