<svg xmlns="http://www.w3.org/2000/svg" viewBox="0 0 149.2 149.3"><path d="M95.4 53.5c-11.8-11.3-18.1-27.2-19-47.1l17.2 17.4v13.9c0 1 .8 1.8 1.8 1.8s1.8-.8 1.8-1.8V27.5L112 42.4v14.1c0 1 .8 1.8 1.8 1.8s1.8-.8 1.8-1.8V46.1l11.5 11.6c.7.7 1.9.7 2.6 0 .7-.7.7-1.9 0-2.6l-11.4-11.5h10.1c1 0 1.8-.8 1.8-1.8s-.8-1.8-1.8-1.8h-13.7L99.9 24.9h10.2c1 0 1.8-.8 1.8-1.8s-.8-1.8-1.8-1.8H96.2L79.1 3.8c36.4 2.3 65.5 32.2 66.4 69-7-.2-32.3-2-50.1-19.3m-41.7 56.3c-1 0-1.8.8-1.8 1.8v10.2l-14.7-14.9v-14c0-1-.8-1.8-1.8-1.8s-1.8.8-1.8 1.8v10.3L22 91.6c-.7-.7-1.9-.7-2.6 0-.7.7-.7 1.9 0 2.6l11.4 11.5H20.7c-1 0-1.8.8-1.8 1.8s.8 1.8 1.8 1.8h13.7l14.9 15.1H39c-1 0-1.8.8-1.8 1.8S38 128 39 128h13.9l17.2 17.4c-36.4-2.3-65.5-32.2-66.4-69 6.9.2 32.2 2 50.1 19.3 11.7 11.3 18.1 27.2 18.9 47.1l-17.2-17.4v-13.9c0-.9-.8-1.7-1.8-1.7m73.6-87.9C113.2 7.8 94.4 0 74.5 0 57.4 0 41.3 5.6 27.9 16.3 15 26.7 5.7 41.2 1.9 57.2c-.2 1 .4 2 1.4 2.2.7.2 1.4-.1 1.8-.6 0-.1 4.5-5.1 11.8-9.3 9.6-5.6 19.4-7.3 29-5.1 9.6 2.2 17.1 7.9 22.3 16.9 3.9 6.8 5 13.1 5 13.1 0 .3 1.2 6.9 5.4 14.3 5.6 9.8 14.2 16.3 24.7 18.8 3.1.7 6.2 1.1 9.2 1.1 7.5 0 15-2.1 22.1-6.2 2.9-1.6 5.3-3.4 7.2-4.9-9.5 28-35.4 47.3-65.4 48-.4-22.2-7.1-39.9-20.1-52.5-11.5-11.1-25.7-16-35.6-18.2C10 72.4 2 72.7 1.7 72.7c-1 0-1.8.8-1.8 1.8 0 19.9 7.8 38.7 21.9 52.8 14.1 14.1 32.8 21.9 52.8 21.9 17.1 0 33.2-5.6 46.6-16.3 13-10.4 22.2-24.9 26-40.9.2-1-.4-2-1.4-2.2-.8-.2-1.6.2-2 .8-1.6 1.8-17.7 18.5-39.8 13.3-9.6-2.2-17.1-7.9-22.3-16.9-3.9-6.8-5-13.1-5-13.1 0-.3-1.2-6.9-5.4-14.3-5.6-9.8-14.2-16.3-24.7-18.8-10.5-2.4-21.5-.5-31.8 5.5-3 1.8-5.6 3.7-7.6 5.3 9.5-28 35.4-47.3 65.4-48 .4 22.2 7.1 39.9 20.1 52.5 11.5 11.1 25.7 16 35.6 18.2 10.7 2.4 18.7 2.1 19 2.1 1 0 1.8-.8 1.8-1.8.1-19.9-7.7-38.6-21.8-52.7" fill="#010202"/></svg>