<svg xmlns="http://www.w3.org/2000/svg" viewBox="0 0 90.9 83.4"><path d="M68.4 79.9c-.1-.1-.2-.2-.4-.3s-.3-.1-.5-.1-.4 0-.5.1c-.2.1-.3.2-.4.3-.1.1-.2.3-.3.4s-.1.3-.1.5 0 .4.1.5c.1.2.2.3.3.4.1.1.2.2.4.3s.3.1.5.1.4 0 .5-.1c.2-.1.3-.2.4-.3.1-.1.2-.3.3-.4.1-.2.1-.3.1-.5s0-.4-.1-.5c-.1-.1-.2-.3-.3-.4zm-9-4 .3.3c.1.1.3.1.4.1.1 0 .3 0 .4-.1l.3-.3c.1-.1.1-.3.2-.4 0-.2.1-.3.1-.5s0-.4-.1-.5c0-.2-.1-.3-.2-.4l-.3-.3c-.1-.1-.3-.1-.4-.1-.1 0-.3 0-.4.1l-.3.3c-.1.1-.1.3-.2.4 0 .2-.1.3-.1.5s0 .4.1.5c.1.2.1.3.2.4zm-17.5.4c.2 0 .4 0 .5-.1.2-.1.3-.2.4-.3.1-.1.2-.3.3-.4.1-.2.1-.3.1-.5s0-.4-.1-.5c-.1-.2-.2-.3-.3-.4-.1-.1-.2-.2-.4-.3-.2-.1-.3-.1-.5-.1s-.4 0-.5.1c-.2.1-.3.2-.4.3-.1.1-.2.3-.3.4s-.1.3-.1.5 0 .4.1.5c.1.2.2.3.3.4.1.1.2.2.4.3.1.1.3.1.5.1zm16 4.9h1.3l-.7-1.5zM33.9 32c4.9 0 8.5-5.1 8.5-12.2v-.1c0-7.1-3.6-12.3-8.6-12.3s-8.5 5-8.5 12.2v.1c0 7.2 3.6 12.3 8.6 12.3zM42 52.7h4.3l-2.2-5zm20.5-6.6h-3.9v4.8h3.9c1.9 0 3-.9 3-2.4 0-2-1.6-2.4-3-2.4zM35.8 79.6H35V81h.8c.3 0 .5-.1.6-.2.1-.1.2-.3.2-.5s-.1-.4-.2-.5c-.2-.2-.4-.2-.6-.2zm15.6.3c-.1-.1-.2-.2-.4-.3-.2-.1-.3-.1-.5-.1s-.4 0-.5.1c-.2.1-.3.2-.4.3-.1.1-.2.3-.3.4s-.1.3-.1.5 0 .4.1.5c.1.2.2.3.3.4.1.1.2.2.4.3.2.1.3.1.5.1s.4 0 .5-.1c.2-.1.3-.2.4-.3.1-.1.2-.3.3-.4.1-.2.1-.3.1-.5s0-.4-.1-.5c-.1-.1-.2-.3-.3-.4zm1.9-6.2h-1V75h1c.2 0 .4-.1.6-.2.1-.1.2-.3.2-.5s-.1-.4-.2-.5c-.2-.1-.4-.1-.6-.1zM67.7 32c4.9 0 8.5-5.1 8.5-12.2v-.1c0-7.1-3.6-12.3-8.6-12.3s-8.5 5-8.5 12.2v.1c0 7.2 3.7 12.3 8.6 12.3zm-3.2 42-.3-.3c-.1-.1-.3-.1-.4-.1-.1 0-.3 0-.4.1l-.3.3c-.1.1-.1.3-.2.4 0 .2-.1.3-.1.5s0 .4.1.5c0 .2.1.3.2.4l.3.3c.1.1.3.1.4.1s.3 0 .4-.1l.3-.3c.1-.1.1-.3.2-.4 0-.2.1-.3.1-.5s0-.4-.1-.5c0-.1-.1-.3-.2-.4zm-47.6 1.7c0-.2-.1-.3-.2-.4-.1-.1-.3-.1-.6-.1h-1v1h1.1c.2 0 .4 0 .5-.1.2 0 .2-.2.2-.4zm3.6-1.4c0-.2-.1-.4-.2-.5-.1-.1-.3-.2-.6-.2h-1V75h1c.2 0 .4-.1.6-.2.2-.1.2-.3.2-.5zm60.4 0c0-.2-.1-.4-.2-.5-.1-.1-.3-.2-.6-.2h-1V75h1c.2 0 .4-.1.6-.2.2-.1.2-.3.2-.5zm-64.4.3c.1-.1.2-.2.2-.4s-.1-.3-.2-.4c-.1-.1-.3-.1-.5-.1h-1v1h1c.2 0 .4-.1.5-.1zm-1.7 5.3c-.1-.1-.2-.2-.4-.3-.2-.1-.3-.1-.5-.1s-.4 0-.5.1c-.2.1-.3.2-.4.3-.1.1-.2.3-.3.4s-.1.3-.1.5 0 .4.1.5c.1.2.2.3.3.4.1.1.2.2.4.3.2.1.3.1.5.1s.4 0 .5-.1c.2-.1.3-.2.4-.3.1-.1.2-.3.3-.4.1-.2.1-.3.1-.5s0-.4-.1-.5c-.1-.1-.2-.3-.3-.4zm60.7-4.5h1.3l-.7-1.5zm-52.7 0h1.3l-.7-1.5z" fill="none"/><path class="st1" d="M2.3 9.9c0 .1.1.3.2.3s.2.1.3.1h.1l5.8-1.6v28.9c0 .3.2.5.5.5h6.2c.3 0 .5-.2.5-.5v-36c0-.3-.2-.5-.5-.5h-4.5L1.3 4.2c-.2.1-.4.4-.3.6l1.3 5.1zm31.5 28.8c9.3 0 16.1-8 16.1-19v-.1C49.9 8.7 43.2.7 33.9.7s-16.1 8-16.1 19v.1c0 11 6.7 18.9 16 18.9zm-8.5-19.1c0-7.2 3.5-12.2 8.5-12.2s8.6 5.2 8.6 12.3v.1c0 7.1-3.6 12.2-8.5 12.2-5 0-8.6-5.2-8.6-12.3v-.1zM9 60.6h3.1c.3 0 .5-.2.5-.5v-6.7l6.7-10.2c.1-.1.1-.2.1-.3 0-.3-.2-.5-.5-.5h-3.5c-.2 0-.3.1-.4.2l-4.4 6.9-4.4-6.9c-.1-.1-.3-.2-.4-.2H2.2c-.2 0-.4.1-.5.3-.1.2-.1.4 0 .5l6.8 10.3v6.6c0 .3.2.5.5.5zm24.2-14.5c.3 0 .5-.2.5-.5v-2.7c0-.3-.2-.5-.5-.5H20.5c-.3 0-.5.2-.5.5v17.2c0 .3.2.5.5.5h12.9c.3 0 .5-.2.5-.5v-2.7c0-.3-.2-.5-.5-.5H24v-3.6h8.1c.3 0 .5-.2.5-.5v-2.7c0-.3-.2-.5-.5-.5H24v-3.5h9.2zm12.4-3.9h-2.8c-.2 0-.4.1-.5.3l-7.6 17.4c-.1.2-.1.3 0 .5.1.1.3.2.4.2h3.1c.2 0 .4-.1.5-.3l1.6-3.8h7.5l1.6 3.8c.1.2.3.3.5.3h3.2c.2 0 .3-.1.4-.2.1-.1.1-.3 0-.5l-7.6-17.4c.1-.2-.1-.3-.3-.3zM42 52.7l2.2-5.1 2.2 5.1H42zm27.6-4.3c0-1.7-.5-3.1-1.6-4.1-1.3-1.2-3.1-1.9-5.3-1.9H55c-.3 0-.5.2-.5.5v17.2c0 .3.2.5.5.5h3c.3 0 .5-.2.5-.5v-5.5h3l4.1 5.8c.1.1.3.2.4.2h3.6c.2 0 .4-.1.5-.3.1-.2.1-.4 0-.5l-4.3-6c2.5-.9 3.8-2.9 3.8-5.4zm-4.1.1c0 1.5-1.2 2.4-3 2.4h-3.9v-4.8h3.9c1.4 0 3 .4 3 2.4z"/><path class="st1" d="M77.1 45.8c1.4 0 2.9.5 4.4 1.7.1.1.2.1.3.1h.1c.1 0 .3-.1.3-.2l1.6-2.3c.2-.2.1-.5-.1-.7-1.9-1.5-4.1-2.3-6.6-2.3-3.7 0-6.4 2.3-6.4 5.5 0 3.5 2.2 4.7 6.1 5.6 3.3.8 3.5 1.3 3.5 2.1 0 1-1 1.7-2.5 1.7-1.8 0-3.4-.7-5.1-2.1-.1-.1-.2-.1-.3-.1-.1 0-.3.1-.4.2l-1.8 2.2c-.2.3-.2.6 0 .8 2.1 1.9 4.7 2.9 7.5 2.9 4.1 0 6.7-2.2 6.7-5.7 0-3.6-2.8-4.8-5.9-5.6-3.4-.8-3.7-1.3-3.7-2.2 0-1 .9-1.6 2.3-1.6zM42.8 66.5l-.9.9H.7v.4h41.2l.9.9.9-.9h41.2v-.4H43.7zm24.8-27.8c9.3 0 16.1-8 16.1-19v-.1c0-1.4-.1-2.7-.3-4h-1.3c-1.1 0-2-.9-2-2v-2.8h-2.8c-1.1 0-2-.9-2-2v-3c0-1 .7-1.8 1.6-2-2.5-2-5.7-3.1-9.1-3.1-9.3 0-16.1 8-16.1 19v.1c-.1 11 6.7 18.9 15.9 18.9zm-8.5-19.1c0-7.2 3.5-12.2 8.5-12.2s8.6 5.2 8.6 12.3v.1c0 7.1-3.6 12.2-8.5 12.2-5 0-8.6-5.2-8.6-12.3v-.1z"/><path class="st1" d="M89.9 5.5h-4c-.2 0-.4-.2-.4-.4V1c0-.2-.2-.4-.4-.4h-2.6c-.2 0-.4.2-.4.4v4c0 .2-.2.4-.4.4h-4c-.2 0-.4.2-.4.4v2.6c-.3.4-.1.6.1.6h4c.2 0 .4.2.4.4v4c0 .2.2.4.4.4H85c.2 0 .4-.2.4-.4v-4c0-.2.2-.4.4-.4h4c.2 0 .4-.2.4-.4V5.9c.1-.3-.1-.4-.3-.4z"/><path d="M3.1 76.2c-.2.1-.4.1-.6.1-.2 0-.3 0-.5-.1s-.3-.2-.4-.3c-.1-.1-.2-.3-.3-.4-.1-.2-.1-.3-.1-.5s0-.4.1-.5c.1-.2.1-.3.3-.4.1-.1.2-.2.4-.3.2-.1.3-.1.5-.1s.4 0 .6.1c.2.1.3.2.5.3l.4-.5c-.1-.1-.2-.2-.3-.2-.1-.1-.2-.1-.3-.2-.1-.1-.2-.1-.4-.1h-.5c-.3 0-.5.1-.8.2-.2.1-.4.2-.6.4-.1.1-.3.3-.4.5-.1.2-.1.5-.1.8 0 .3 0 .5.1.8.1.2.3.4.5.6s.4.3.6.4c.2.1.5.2.8.2h.5c.1 0 .3-.1.4-.1s.2-.1.3-.2l.3-.3-.4-.4c-.2 0-.4.1-.6.2zm2.1-.9h1.9v-.6H5.2v-1h2.1v-.6H4.5v3.8h2.9v-.6H5.2zm3.4-2.2h-.7v3.8h2.7v-.6h-2zm5.2.6v-.6h-2.7v3.8h2.8v-.6h-2.2v-1h1.9v-.6h-1.9v-1zm3.4 2.9.3-.3c.1-.1.1-.3.1-.4 0-.1 0-.2-.1-.3 0-.1-.1-.2-.2-.3l-.2-.2c-.1-.1-.2-.1-.3-.1.1 0 .1-.1.2-.1l.2-.2c0-.1.1-.1.1-.2v-.3c0-.2-.1-.5-.3-.6-.2-.2-.6-.3-1-.3h-1.7v3.8H16c.2 0 .4 0 .6-.1.3-.2.5-.3.6-.4zm-2.1-2.9h1c.2 0 .4 0 .5.1.1.1.2.2.2.4s-.1.3-.2.4c-.1.1-.3.1-.5.1h-.9v-1zm1.1 2.6h-1.1v-1h1c.3 0 .5 0 .6.1.1.1.2.2.2.4s-.1.3-.2.4c-.1 0-.3.1-.5.1zm4.1-.9c.1 0 .3-.1.4-.2.1-.1.2-.1.3-.2.1-.1.1-.2.2-.3 0-.1.1-.3.1-.4 0-.2 0-.3-.1-.5-.1-.1-.1-.3-.2-.4-.1-.1-.3-.2-.5-.3-.2-.1-.4-.1-.6-.1h-1.7v3.8h.7v-1.3h.8l.9 1.3h.8l-1.1-1.4zm-1.5-.4v-1.3h1c.2 0 .4.1.6.2.1.1.2.3.2.5s-.1.3-.2.5c-.2 0-.4.1-.6.1h-1zm6.6 1.9-1.7-3.8h-.6l-1.7 3.8h.7l.4-.9h1.8l.4.9h.7zm-2.6-1.5.6-1.5.7 1.5h-1.3zm5.8-2.3h-3v.6h1.2v3.2h.6v-3.2h1.2zm.6 0h.7v3.8h-.7zm4 2.6-2-2.6h-.6v3.8h.7v-2.7l2.1 2.7h.5v-3.8h-.7zm3.2-.4h1v.7c-.1.1-.2.2-.4.2-.2.1-.3.1-.5.1s-.4 0-.5-.1c-.2-.1-.3-.2-.4-.3-.1-.1-.2-.3-.3-.4-.1-.2-.1-.3-.1-.5s0-.4.1-.5c.1-.2.1-.3.3-.4.1-.1.2-.2.4-.3.1-.1.3-.1.5-.1h.3c.1 0 .2 0 .3.1.1 0 .2.1.2.1l.2.2.4-.5c-.1-.1-.2-.2-.3-.2-.1-.1-.2-.1-.3-.2-.1 0-.2-.1-.4-.1h-.5c-.3 0-.5.1-.8.2-.2.1-.4.2-.6.4-.2.2-.3.4-.4.6-.1.2-.1.5-.1.7 0 .3 0 .5.1.8.1.2.2.4.4.6.2.2.4.3.6.4.2.1.5.1.8.1h.5c.2 0 .3-.1.4-.1.1-.1.3-.1.4-.2.1-.1.2-.1.3-.2v-1.6h-1.6v.5zm5.5 1.6c.3 0 .6-.1.8-.2.2-.1.4-.2.6-.4.2-.2.3-.4.4-.6.1-.2.1-.5.1-.8 0-.3 0-.5-.1-.8-.1-.2-.2-.4-.4-.6-.2-.2-.4-.3-.6-.4-.2-.1-.5-.2-.8-.2-.3 0-.6.1-.8.2-.2.1-.4.2-.6.4-.2.2-.3.4-.4.6-.1.2-.1.5-.1.8 0 .3 0 .5.1.8.1.2.2.4.4.6.2.2.4.3.6.4.2.2.5.2.8.2zm-1.2-1.4c-.1-.2-.1-.3-.1-.5s0-.4.1-.5.1-.3.3-.4c.1-.1.2-.2.4-.3.2-.1.3-.1.5-.1s.4 0 .5.1c.2.1.3.2.4.3.1.1.2.3.3.4.1.2.1.3.1.5s0 .4-.1.5c-.1.2-.1.3-.3.4-.1.1-.2.2-.4.3-.2.1-.3.1-.5.1s-.4 0-.5-.1c-.2-.1-.3-.2-.4-.3-.2-.1-.2-.2-.3-.4zm5.6 1.4 1.5-3.8h-.7L46 76l-1.2-2.9h-.7l1.6 3.8zm4.8-3.2v-.6h-2.8v3.8h2.8v-.6h-2.2v-1h1.9v-.6h-1.9v-1zm3.4 1.3c.1-.1.1-.2.2-.3 0-.1.1-.3.1-.4 0-.2 0-.3-.1-.5-.1-.1-.1-.3-.2-.4-.1-.1-.3-.2-.5-.3-.2-.1-.4-.1-.6-.1h-1.7v3.8h.7v-1.3h.8l.9 1.3h.8l-1-1.4c.1 0 .3-.1.4-.2l.2-.2zm-.4-.7c0 .2-.1.3-.2.5-.1.1-.3.2-.6.2h-1v-1.3h1c.2 0 .4.1.6.2.1.1.2.2.2.4zm3.1 2.6h.7v-3.8h-.5l-1 .3.1.5.7-.2zm2.2-.1c.2.1.4.2.7.2s.5-.1.7-.2.4-.2.5-.4c.1-.2.3-.4.3-.6.1-.2.1-.5.1-.8 0-.3 0-.5-.1-.8l-.3-.6c-.1-.2-.3-.3-.5-.4-.2-.1-.4-.2-.7-.2-.2 0-.5.1-.7.2s-.4.2-.5.4c-.1.2-.3.4-.3.6-.1.2-.1.5-.1.8 0 .3 0 .5.1.8l.3.6c.2.1.3.3.5.4zm-.2-1.8c0-.2 0-.4.1-.5 0-.2.1-.3.2-.4l.3-.3c.1-.1.2-.1.4-.1.1 0 .3 0 .4.1l.3.3c.1.1.1.3.2.4 0 .2.1.3.1.5s0 .4-.1.5c0 .2-.1.3-.2.4l-.3.3c-.1.1-.2.1-.4.1-.1 0-.3 0-.4-.1l-.3-.3c-.1-.1-.1-.3-.2-.4-.1-.2-.1-.3-.1-.5zm5.8-1.4c-.1-.2-.3-.3-.5-.4-.2-.1-.4-.2-.7-.2-.2 0-.5.1-.7.2s-.4.2-.5.4c-.1.2-.3.4-.3.6-.1.2-.1.5-.1.8 0 .3 0 .5.1.8l.3.6c.1.2.3.3.5.4.2.1.4.2.7.2.2 0 .5-.1.7-.2.2-.1.4-.2.5-.4.1-.2.3-.4.3-.6.1-.2.1-.5.1-.8 0-.3 0-.5-.1-.8 0-.2-.2-.4-.3-.6zm-.2 1.4c0 .2 0 .4-.1.5 0 .2-.1.3-.2.4l-.3.3c-.1.1-.2.1-.4.1s-.3 0-.4-.1l-.3-.3c-.1-.1-.1-.3-.2-.4 0-.2-.1-.3-.1-.5s0-.4.1-.5c0-.2.1-.3.2-.4l.3-.3c.1-.1.2-.1.4-.1.1 0 .3 0 .4.1l.3.3c.1.1.1.3.2.4 0 .1.1.3.1.5zm4.4 1.9v-1.5l1.5-2.3H70l-1.1 1.7-1.1-1.7H67l1.5 2.3v1.5zm2.5-1.6h1.9v-.6h-1.9v-1h2.2v-.6h-2.8v3.8h2.8v-.6h-2.2zm4.1-2.2-1.7 3.8h.7l.4-.9H77l.4.9h.7l-1.7-3.8h-.6zm-.3 2.3.6-1.5.7 1.5h-1.3zm5.6-.1c.1-.1.2-.1.3-.2.1-.1.1-.2.2-.3 0-.1.1-.3.1-.4 0-.2 0-.3-.1-.5-.1-.1-.1-.3-.2-.4-.1-.1-.3-.2-.5-.3-.2-.1-.4-.1-.6-.1h-1.7v3.8h.7v-1.3h.7l.9 1.3h.8l-1-1.4c.1-.1.3-.2.4-.2zm-1.9-.3v-1.3h1c.2 0 .4.1.6.2.1.1.2.3.2.5s-.1.3-.2.5c-.1.1-.3.2-.6.2h-1zm5.4.1c-.1-.1-.2-.2-.4-.2-.2-.1-.3-.1-.5-.2-.2 0-.3-.1-.4-.1-.1 0-.2-.1-.3-.1s-.1-.1-.1-.2v-.2c0-.1.1-.2.2-.3.1-.1.3-.1.5-.1s.3 0 .5.1.3.2.5.3l.4-.5c-.2-.2-.4-.3-.6-.4-.2-.1-.5-.1-.7-.1-.2 0-.4 0-.5.1-.2.1-.3.1-.4.2l-.3.3c-.1.1-.1.3-.1.4 0 .2 0 .3.1.4.1.1.1.2.2.3.1.1.2.2.4.2.2.1.3.1.5.2.2 0 .3.1.4.1.1 0 .2.1.3.1.1 0 .1.1.1.1v.2c0 .1-.1.3-.2.3-.1.1-.3.1-.5.1s-.4 0-.6-.1c-.2-.1-.4-.2-.6-.4l-.4.5c.2.2.5.4.7.5.3.1.5.1.8.1.2 0 .4 0 .5-.1.2-.1.3-.1.4-.2.1-.1.2-.2.3-.4.1-.1.1-.3.1-.5s0-.3-.1-.4c-.1.2-.1.1-.2 0zm-69.3 4.4c-.2-.2-.4-.3-.6-.4-.2-.1-.5-.2-.8-.2-.3 0-.6.1-.8.2-.2.1-.4.2-.6.4-.2.2-.3.4-.4.6-.1.2-.1.5-.1.8 0 .3 0 .5.1.8.1.2.2.4.4.6.2.2.4.3.6.4.2.1.5.2.8.2s.6-.1.8-.2c.2-.1.4-.2.6-.4.2-.2.3-.4.4-.6.1-.2.1-.5.1-.8 0-.3 0-.5-.1-.8-.1-.2-.2-.4-.4-.6zm-.1 1.4c0 .2 0 .4-.1.5-.1.2-.1.3-.3.4-.1.1-.2.2-.4.3-.2.1-.3.1-.5.1s-.4 0-.5-.1c-.2-.1-.3-.2-.4-.3-.1-.1-.2-.3-.3-.4-.1-.2-.1-.3-.1-.5s0-.4.1-.5.1-.3.3-.4c.1-.1.2-.2.4-.3.2-.1.3-.1.5-.1s.4 0 .5.1c.2.1.3.2.4.3.1.1.2.3.3.4 0 .1.1.3.1.5zm1.3 1.8h.6v-1.5H19v-.6h-1.9v-1h2.2V79h-2.8zm7-1.8c-.1-.1-.2-.2-.4-.2-.2-.1-.3-.1-.5-.2-.2 0-.3-.1-.4-.1-.1 0-.2-.1-.3-.1s-.1-.1-.1-.2v-.2c0-.1.1-.2.2-.3.1-.1.3-.1.5-.1s.3 0 .5.1.3.2.5.3l.4-.5c-.2-.2-.4-.3-.6-.4-.2-.1-.5-.1-.7-.1-.2 0-.4 0-.5.1-.2.1-.3.1-.4.2l-.3.3c-.1.1-.1.3-.1.4 0 .2 0 .3.1.4.1.1.1.2.2.3.1.1.2.2.4.2.2.1.3.1.5.2.2 0 .3.1.4.1.1 0 .2.1.3.1.1 0 .1.1.1.1v.2c0 .1-.1.3-.2.3-.1.1-.3.1-.5.1s-.4 0-.6-.1c-.2-.1-.4-.2-.6-.4l-.4.5c.2.2.5.4.7.5.3.1.5.1.8.1.2 0 .4 0 .5-.1.2-.1.3-.1.4-.2.1-.1.2-.2.3-.4.1-.1.1-.3.1-.5s0-.3-.1-.4c0 .2-.1.1-.2 0zm1.6-1.9h-.7v3.7h2.7v-.6h-2zm3.1 2.1h1.9v-.6h-1.9v-.9h2.1V79h-2.8v3.7h2.9v-.6h-2.2zm3.4 0h1.9v-.6h-1.9v-.9h2.1V79h-2.8v3.7h2.9v-.6h-2.2zm5.3-1.8c-.1-.1-.3-.2-.5-.3h-2.1v3.8h.7v-1.2h.8c.2 0 .4 0 .6-.1.2-.1.3-.1.5-.2.1-.1.2-.2.3-.4.1-.2.1-.3.1-.6 0-.2 0-.4-.1-.5-.1-.2-.2-.4-.3-.5zm-.3 1c0 .2-.1.4-.2.5-.1.1-.3.2-.6.2H35v-1.4h.8c.2 0 .4.1.6.2.1.1.2.2.2.5zm2.6-1.3h.7v3.8h-.7zm4 2.6-2-2.6h-.6v3.7h.7v-2.6l2 2.6h.6V79h-.7zm4.1 0-2-2.6h-.6v3.7h.6v-2.6l2.1 2.6h.5V79h-.6zm4.6-2.1c-.2-.2-.4-.3-.6-.4-.2-.1-.5-.2-.8-.2-.3 0-.6.1-.8.2-.2.1-.4.2-.6.4-.2.2-.3.4-.4.6-.1.2-.1.5-.1.8 0 .3 0 .5.1.8.1.2.2.4.4.6.2.2.4.3.6.4.2.1.5.2.8.2s.6-.1.8-.2c.2-.1.4-.2.6-.4.2-.2.3-.4.4-.6.1-.2.1-.5.1-.8 0-.3 0-.5-.1-.8-.1-.2-.2-.4-.4-.6zm-.1 1.4c0 .2 0 .4-.1.5-.1.2-.1.3-.3.4-.1.1-.2.2-.4.3-.2.1-.3.1-.5.1s-.4 0-.5-.1c-.2-.1-.3-.2-.4-.3-.1-.1-.2-.3-.3-.4-.1-.2-.1-.3-.1-.5s0-.4.1-.5.1-.3.3-.4c.1-.1.2-.2.4-.3.2-.1.3-.1.5-.1s.4 0 .5.1c.2.1.3.2.4.3.1.1.2.3.3.4 0 .1.1.3.1.5zm2.8 1L53.5 79h-.8l1.6 3.8h.6l1.6-3.8h-.8zm3.6-3-1.7 3.8h.7l.4-.9h1.8l.4.9h.7l-1.7-3.8h-.6zm-.3 2.3.6-1.5.7 1.5h-1.3zm2.8-1.6h1.2v3.1h.6v-3.1h1.2V79h-3zm3.5-.6h.7v3.8h-.7zm4.7.5c-.2-.2-.4-.3-.6-.4-.2-.1-.5-.2-.8-.2-.3 0-.6.1-.8.2-.2.1-.4.2-.6.4-.2.2-.3.4-.4.6-.1.2-.1.5-.1.8 0 .3 0 .5.1.8.1.2.2.4.4.6.2.2.4.3.6.4.2.1.5.2.8.2.3 0 .6-.1.8-.2.2-.1.4-.2.6-.4.2-.2.3-.4.4-.6.1-.2.1-.5.1-.8 0-.3 0-.5-.1-.8-.1-.2-.2-.4-.4-.6zm-.1 1.4c0 .2 0 .4-.1.5-.1.2-.1.3-.3.4-.1.1-.2.2-.4.3-.2.1-.3.1-.5.1s-.4 0-.5-.1-.3-.2-.4-.3c-.1-.1-.2-.3-.3-.4-.1-.2-.1-.3-.1-.5s0-.4.1-.5.1-.3.3-.4c.1-.1.2-.2.4-.3.2-.1.3-.1.5-.1s.4 0 .5.1.3.2.4.3c.1.1.2.3.3.4 0 .1.1.3.1.5zm3.9.7-2-2.6h-.6v3.7h.6v-2.6l2.1 2.6h.6V79h-.7z"/></svg>