<svg xmlns="http://www.w3.org/2000/svg" viewBox="0 0 487.08 114.6"><path d="M220.04 73.85c-4.37 0-7.9-3.74-7.9-8.35v-4.1c0-1.17.9-2.12 2.01-2.12h51.19c1.11 0 2.01.95 2.01 2.12v10.33c0 1.17-.9 2.12-2.01 2.12h-45.3m0-72.43c-4.37 0-7.9 3.74-7.9 8.36v4.1c0 1.17.9 2.12 2.01 2.12h51.19c1.11 0 2.01-.95 2.01-2.12V3.54c0-1.17-.9-2.12-2.01-2.12h-45.3m-7.9 41.07c0 1.13.94 2.05 2.1 2.05l51.02.01c1.16 0 2.09-.91 2.09-2.03V31.99c0-1.12-.94-2.03-2.09-2.03h-51.03c-1.16 0-2.09.91-2.09 2.03v10.5zM59.36 66.07zm-22.43 8.97c3.33 0 6.42-.29 9.2-.88 2.79-.58 5.4-1.46 7.77-2.61 2.33-1.13 4.55-2.49 6.57-4.04 2.02-1.54 3.97-3.32 5.8-5.29.66-.71.65-1.82-.04-2.51l-7.79-7.89c-.69-.7-1.81-.72-2.53-.05-2.83 2.64-5.72 4.75-8.59 6.28-2.74 1.46-6.1 2.2-9.99 2.2-3.01 0-5.82-.59-8.36-1.76-2.56-1.17-4.8-2.81-6.67-4.85-1.87-2.05-3.34-4.49-4.37-7.25-1.04-2.77-1.56-5.79-1.56-8.98 0-3.18.52-6.19 1.56-8.93 1.03-2.72 2.5-5.13 4.37-7.15 1.86-2.02 4.11-3.63 6.67-4.81 2.54-1.17 5.36-1.76 8.36-1.76 3.64 0 6.91.73 9.73 2.17 2.93 1.49 5.74 3.49 8.37 5.93a1.813 1.813 0 0 0 2.6-.14l7.79-8.97c.63-.73.58-1.83-.11-2.5a49.955 49.955 0 0 0-5.43-4.51 35.606 35.606 0 0 0-6.34-3.59c-2.28-1-4.81-1.78-7.52-2.33-2.72-.54-5.74-.82-9-.82-5.49 0-10.57 1-15.12 2.96-4.54 1.96-8.52 4.68-11.83 8.1-3.31 3.41-5.91 7.44-7.73 11.98C.92 27.57 0 32.48 0 37.62c0 5.21.94 10.15 2.8 14.69 1.86 4.54 4.46 8.53 7.73 11.87 3.27 3.35 7.2 6.02 11.67 7.94 4.49 1.94 9.44 2.92 14.73 2.92M103 14.78c3.14 0 6.07.61 8.72 1.81 2.66 1.21 4.97 2.86 6.87 4.91 1.9 2.06 3.41 4.5 4.47 7.26 1.06 2.77 1.6 5.75 1.6 8.87 0 3.11-.54 6.09-1.6 8.86-1.06 2.76-2.55 5.19-4.42 7.21-1.86 2.01-4.13 3.63-6.76 4.8-2.61 1.17-5.53 1.76-8.68 1.76-3.14 0-6.08-.61-8.72-1.81-2.66-1.21-4.97-2.86-6.87-4.91-1.9-2.06-3.41-4.5-4.47-7.26-1.06-2.77-1.6-5.75-1.6-8.86 0-3.11.54-6.1 1.6-8.86s2.55-5.19 4.42-7.21c1.86-2.01 4.13-3.63 6.76-4.8 2.62-1.18 5.54-1.77 8.68-1.77m0 60.26c5.55 0 10.7-1.01 15.32-3.01 4.6-1.99 8.64-4.72 12.01-8.13 3.38-3.41 6.03-7.44 7.88-11.98 1.86-4.54 2.8-9.42 2.8-14.5s-.94-9.96-2.8-14.5c-1.85-4.54-4.47-8.55-7.78-11.93-3.31-3.38-7.32-6.08-11.93-8.04C113.9 1 108.75 0 103.2 0c-5.55 0-10.7 1.01-15.32 3.01-4.6 1.99-8.64 4.73-12.01 8.13-3.38 3.41-6.03 7.44-7.89 11.98-1.86 4.54-2.8 9.42-2.8 14.5s.94 9.96 2.8 14.49c1.86 4.54 4.48 8.55 7.78 11.92 3.31 3.38 7.32 6.08 11.93 8.04 4.62 1.97 9.77 2.97 15.31 2.97m59.12-59.28h15.89c4.12 0 7.3.86 9.47 2.54 2.06 1.6 3.06 3.97 3.06 7.23 0 3.02-1.04 5.35-3.2 7.12-2.22 1.83-5.33 2.75-9.23 2.75h-15.99V15.76zm44.73 58.09c.68 0 1.3-.38 1.61-.99.31-.6.26-1.33-.14-1.89l-17.19-24.1c1.66-.61 3.22-1.36 4.67-2.23 2.17-1.32 4.06-2.94 5.63-4.83 1.57-1.89 2.82-4.1 3.71-6.56.89-2.46 1.34-5.27 1.34-8.36 0-3.59-.65-6.9-1.93-9.85-1.29-2.97-3.16-5.52-5.57-7.57-2.38-2.02-5.3-3.6-8.71-4.69-3.35-1.07-7.14-1.61-11.25-1.61h-30.77c-1 0-1.82.81-1.82 1.82v69.04c0 1 .81 1.82 1.82 1.82h12.03c1 0 1.82-.81 1.82-1.82V49.79h12.48l16.47 23.3c.34.48.89.77 1.48.77h14.32m128.61-.01a1.822 1.822 0 0 0 1.45-2.92l-29.04-38.11 27.61-28.56a1.816 1.816 0 0 0-1.3-3.08h-14.89c-.5 0-.98.2-1.32.57l-29.71 31.4V3c0-1-.81-1.82-1.82-1.82h-12.03c-1 0-1.82.81-1.82 1.82v69.04c0 1 .81 1.82 1.82 1.82h12.03c1 0 1.82-.81 1.82-1.82V52.75l8.76-9 22.3 29.38c.34.45.88.72 1.45.72h14.69m17.55 0c1 0 1.82-.81 1.82-1.82V3c0-1-.81-1.82-1.82-1.82h-12.03c-1 0-1.82.81-1.82 1.82v69.04c0 1 .81 1.82 1.82 1.82h12.03m26.77-58.1h11.83c3.37 0 6.47.56 9.21 1.65 2.72 1.09 5.06 2.62 6.95 4.54 1.9 1.93 3.4 4.25 4.45 6.88 1.06 2.64 1.6 5.6 1.6 8.78 0 3.18-.54 6.14-1.6 8.78-1.06 2.63-2.55 4.93-4.45 6.82-1.89 1.89-4.22 3.38-6.94 4.44-2.74 1.07-5.85 1.61-9.23 1.61h-11.83v-43.5zm45.91 35.32zm-34.02 22.77c5.59 0 10.81-.94 15.51-2.79 4.7-1.85 8.82-4.44 12.22-7.67 3.42-3.25 6.11-7.16 7.97-11.61 1.86-4.44 2.8-9.28 2.8-14.36 0-5.09-.94-9.9-2.81-14.32s-4.55-8.31-7.97-11.56c-3.41-3.24-7.53-5.81-12.23-7.63-4.7-1.82-9.91-2.74-15.5-2.74h-25.74c-1 0-1.82.81-1.82 1.82v69.04c0 1 .81 1.82 1.82 1.82h25.75m69.04.99c3.78 0 7.3-.49 10.48-1.46 3.23-.99 6.05-2.46 8.38-4.38 2.35-1.94 4.21-4.34 5.52-7.14 1.32-2.8 1.98-6.01 1.98-9.55 0-3.13-.54-5.92-1.59-8.29-1.06-2.37-2.63-4.47-4.67-6.25-1.99-1.74-4.51-3.22-7.49-4.41-2.86-1.14-6.18-2.19-9.89-3.14-3.24-.77-5.93-1.52-8-2.22-1.97-.66-3.51-1.38-4.58-2.13-.95-.66-1.59-1.35-1.92-2.04-.35-.74-.52-1.67-.52-2.78 0-1.74.75-3.2 2.29-4.46 1.63-1.33 4.03-2.01 7.14-2.01 2.91 0 5.84.57 8.7 1.7 2.93 1.15 5.95 2.86 8.96 5.05.39.29.88.41 1.36.33.48-.08.91-.35 1.19-.74l6.51-9.17c.56-.79.4-1.87-.35-2.47-3.69-2.94-7.69-5.21-11.9-6.75C468.08.98 463.28.2 458.03.2c-3.59 0-6.97.51-10.03 1.52-3.1 1.02-5.8 2.52-8.03 4.44a21.04 21.04 0 0 0-5.29 6.96c-1.29 2.7-1.94 5.73-1.94 9.01 0 3.47.57 6.48 1.7 8.94 1.13 2.48 2.8 4.63 4.96 6.38 2.09 1.7 4.7 3.13 7.74 4.24 2.93 1.08 6.31 2.06 10.03 2.92 3.15.77 5.73 1.51 7.68 2.21 1.85.67 3.3 1.37 4.31 2.09.88.63 1.47 1.29 1.76 1.96.33.75.49 1.64.49 2.63 0 2.12-.81 3.69-2.55 4.93-1.88 1.34-4.53 2.03-7.87 2.03-4.06 0-7.73-.73-10.89-2.16-3.24-1.47-6.51-3.61-9.72-6.38-.37-.32-.85-.47-1.33-.44-.49.04-.93.27-1.25.64l-7.3 8.68c-.63.75-.55 1.86.17 2.52 4.3 3.89 9.04 6.81 14.1 8.69 5.06 1.88 10.42 2.83 15.94 2.83M136.34 88.8h-2.75c-.29 0-.52.23-.52.52v24.34c0 .29.23.52.52.52h2.75c.29 0 .52-.23.52-.52V89.32c0-.29-.23-.52-.52-.52m27.68 24.55c.12.16.14.37.05.54-.09.18-.27.29-.46.29h-3.37a.54.54 0 0 1-.42-.21l-6.9-9.25h-6.18v8.94c0 .29-.23.52-.52.52h-2.75c-.29 0-.52-.23-.52-.52V89.32c0-.29.23-.52.52-.52h10.47c1.39 0 2.67.18 3.79.55 1.14.37 2.13.9 2.94 1.57.82.68 1.46 1.52 1.91 2.47.45.96.68 2.03.68 3.19 0 1.08-.18 2.07-.52 2.93-.35.86-.85 1.62-1.49 2.26-.63.63-1.38 1.16-2.24 1.58-.61.3-1.27.54-1.96.71l6.97 9.29zm-4.96-14.74c.28-.55.42-1.19.42-1.9 0-1.38-.47-2.42-1.44-3.17-.99-.77-2.43-1.16-4.28-1.16h-7.01v8.87h6.98c.85 0 1.65-.11 2.36-.33.7-.21 1.32-.52 1.82-.91.48-.38.87-.85 1.15-1.4m18.04 2.68h-9.67c-.29 0-.52.23-.52.52v2.82c0 .29.23.52.52.52h9.67c.29 0 .52-.23.52-.52v-2.82c0-.29-.23-.52-.52-.52m23.48 9.35h-14.5v-7.48h12.77c.29 0 .52-.23.52-.52v-2.5c0-.29-.23-.52-.52-.52h-12.77v-7.27h14.33c.29 0 .52-.23.52-.52v-2.5c0-.29-.23-.52-.52-.52h-17.6c-.29 0-.52.23-.52.52v24.34c0 .29.23.52.52.52h17.77c.29 0 .52-.23.52-.52v-2.5c0-.3-.24-.53-.52-.53m26.11-21.84h-2.68c-.29 0-.52.23-.52.52v18.01L209.09 89c-.1-.13-.25-.2-.41-.2h-2.57c-.29 0-.52.23-.52.52v24.34c0 .29.23.52.52.52h2.68c.29 0 .52-.23.52-.52V95.2l14.79 18.78c.1.13.25.2.41.2h2.19c.29 0 .52-.23.52-.52V89.32a.531.531 0 0 0-.53-.52m24.66 21.84h-14.51v-7.48h12.77c.29 0 .52-.23.52-.52v-2.5c0-.29-.23-.52-.52-.52h-12.77v-7.27h14.33c.29 0 .52-.23.52-.52v-2.5c0-.29-.23-.52-.52-.52h-17.6c-.29 0-.52.23-.52.52v24.34c0 .29.23.52.52.52h17.77c.29 0 .52-.23.52-.52v-2.5c.01-.3-.22-.53-.51-.53m26.08 2.71c.12.16.14.37.05.54-.09.18-.27.29-.46.29h-3.37a.54.54 0 0 1-.42-.21l-6.9-9.25h-6.18v8.94c0 .29-.23.52-.52.52h-2.75c-.29 0-.52-.23-.52-.52V89.32c0-.29.23-.52.52-.52h10.47c1.39 0 2.67.18 3.79.55 1.14.37 2.13.9 2.94 1.57.82.68 1.46 1.52 1.91 2.47.45.96.67 2.03.67 3.19 0 1.08-.18 2.07-.52 2.93-.35.86-.85 1.62-1.49 2.26-.63.63-1.38 1.16-2.24 1.58-.62.3-1.27.54-1.96.71l6.98 9.29zm-4.96-14.74c.28-.55.42-1.19.42-1.9 0-1.38-.47-2.42-1.44-3.17-.99-.77-2.44-1.16-4.28-1.16h-7.01v8.87h6.98c.85 0 1.64-.11 2.36-.33.7-.21 1.32-.52 1.82-.91.48-.38.87-.85 1.15-1.4m30.63 1.56h-10.05c-.29 0-.52.23-.52.52v2.43c0 .29.23.52.52.52h6.89v5.31c-.76.57-1.68 1.08-2.76 1.5-1.16.45-2.42.68-3.74.68-1.41 0-2.68-.24-3.79-.72a8.297 8.297 0 0 1-2.85-2c-.78-.85-1.4-1.88-1.83-3.05-.43-1.18-.65-2.49-.65-3.88 0-1.3.22-2.55.66-3.7a9.714 9.714 0 0 1 1.82-3.03c.76-.85 1.69-1.53 2.76-2.04 1.06-.5 2.24-.75 3.5-.75.82 0 1.57.07 2.25.2.67.13 1.3.31 1.85.54.55.23 1.08.5 1.56.82.49.32.96.69 1.4 1.08a.52.52 0 0 0 .74-.05l1.77-2.09a.521.521 0 0 0-.06-.73c-.62-.52-1.27-1-1.92-1.41-.67-.42-1.39-.79-2.15-1.07-.76-.29-1.59-.51-2.46-.65-.87-.14-1.84-.22-2.88-.22-1.9 0-3.65.36-5.21 1.07-1.55.71-2.9 1.68-4.01 2.89-1.11 1.2-1.98 2.61-2.59 4.2-.61 1.58-.92 3.26-.92 4.99 0 1.79.3 3.5.88 5.08.59 1.59 1.46 2.99 2.58 4.18 1.12 1.18 2.49 2.13 4.07 2.8 1.58.67 3.38 1.02 5.37 1.02 2.13 0 4.07-.38 5.79-1.14 1.7-.75 3.16-1.66 4.33-2.71.11-.1.17-.24.17-.39v-9.68c0-.29-.23-.52-.52-.52m26.09-11.09a.527.527 0 0 0-.46-.28h-3.2a.51.51 0 0 0-.43.23l-7.83 11.54-7.76-11.54a.536.536 0 0 0-.43-.23h-3.34c-.19 0-.37.11-.46.28-.09.17-.08.38.03.53l10.03 14.58v9.47c0 .29.23.52.52.52h2.75c.29 0 .52-.23.52-.52v-9.51l10.03-14.54c.11-.16.12-.36.03-.53"/></svg>