<svg xmlns="http://www.w3.org/2000/svg" viewBox="0 0 210.2 250.6" xml:space="preserve"><path d="M54 51.7c-1.2 4.5-3.2 8.8-5.9 12.5-2.5 3.4-5.9 6.2-9.7 8.1-4.2 2-8.7 3-13.4 2.9-4.5.1-9.1-.7-13.3-2.4-3.6-1.6-7-3.7-10-6.2l8.1-12.1c2.2 1.9 4.7 3.5 7.4 4.7 2.6 1 5.3 1.5 8.1 1.5 4.4 0 7.8-1.5 10.1-4.6 2.5-3.5 4-7.7 4.3-12-1.8 1.6-3.9 2.8-6.2 3.6-2.6 1-5.4 1.4-8.2 1.4-3.5 0-7.1-.5-10.4-1.6-3-1-5.7-2.6-8-4.6-2.2-2-4-4.6-5.1-7.4C.6 32.4-.1 29 0 25.6c0-3.5.7-7 2-10.2 1.3-3 3.1-5.8 5.5-8.1C10 5 12.9 3.1 16.1 2c3.5-1.3 7.3-2 11-1.9 2.2 0 4.3.1 6.4.5 1.8.3 3.6.8 5.3 1.4 1.6.6 3.2 1.4 4.6 2.4 1.5 1.1 2.9 2.3 4.2 3.6 1.3 1.4 2.5 2.8 3.5 4.5 1.1 1.8 2 3.8 2.6 5.8.8 2.5 1.4 5 1.7 7.6.4 3.2.6 6.4.6 9.7.1 5.3-.6 10.8-2 16.1zM36.8 16.8c-2.2-2.1-5.3-3.1-9.2-3.1-3.9 0-6.9 1-9 3.1-2.1 2.1-3.3 5-3.1 8-.1 3 1.1 6 3.3 8 2.2 2 5.2 3 9.1 3s6.9-1 9-3.1c2.1-2 3.3-4.9 3.2-7.8.1-3.1-1.1-6-3.3-8.1zM123.8 52.4c-1.4 4.3-3.6 8.4-6.4 11.9-2.7 3.4-6.1 6.1-10 8-4 2-8.5 3-12.9 2.9-8.9.1-17.3-3.8-22.9-10.8-2.8-3.5-5-7.6-6.3-11.9-1.5-4.8-2.3-9.8-2.2-14.8 0-5 .7-10 2.3-14.8 1.4-4.4 3.6-8.4 6.4-12 2.7-3.4 6.1-6.1 10-8 4-2 8.5-3 12.9-2.9 8.9-.1 17.3 3.9 22.9 10.8 2.8 3.6 5 7.6 6.3 11.9 1.5 4.8 2.2 9.8 2.2 14.8 0 5.1-.8 10.1-2.3 14.9zm-14.9-23.9c-.6-2.6-1.7-5.1-3.2-7.4-1.2-2-2.9-3.6-4.9-4.9-3.9-2.3-8.9-2.4-12.8 0-2 1.2-3.6 2.8-4.9 4.8-1.5 2.2-2.5 4.7-3.1 7.3-.7 3-1 6.1-1 9.2 0 3.1.3 6.2 1.1 9.2.6 2.6 1.7 5.1 3.1 7.4 1.2 2 2.9 3.6 4.9 4.9 4 2.3 8.9 2.3 12.8 0 2-1.2 3.6-2.9 4.9-4.8 1.4-2.3 2.5-4.7 3.1-7.3.7-3 1.1-6 1.1-9.1 0-3.2-.3-6.3-1.1-9.3zM165.3 26.2c-.8 2.2-2 4.2-3.6 5.9-1.5 1.7-3.4 3.1-5.5 4-2.2 1-4.6 1.5-7 1.5-2.4 0-4.8-.5-7-1.5-2.1-.9-3.9-2.3-5.4-4-1.6-1.7-2.7-3.7-3.5-5.9-.9-2.3-1.3-4.8-1.3-7.2 0-2.5.4-4.9 1.3-7.3.8-2.2 2-4.2 3.6-6 1.5-1.7 3.4-3.1 5.5-4 2.2-1 4.6-1.5 7-1.5 2.4 0 4.8.5 7 1.5 2.1 1 3.9 2.3 5.4 4 1.6 1.7 2.7 3.7 3.5 5.9.8 2.3 1.2 4.8 1.2 7.2 0 2.6-.4 5.1-1.2 7.4zM151.2 74h-12.1L191 1.2h12.1L151.2 74zm2.9-61.4c-1-1.7-2.9-2.8-4.9-2.8-2-.1-3.9 1-4.9 2.7-1.1 1.9-1.7 4.1-1.6 6.3-.1 2.3.6 4.6 1.8 6.5 1 1.7 2.9 2.8 4.9 2.8 2 .1 3.9-1 4.9-2.7 1.1-1.9 1.7-4.1 1.6-6.3 0-2.3-.6-4.5-1.8-6.5zm54.8 50.8c-.8 2.2-2 4.2-3.6 5.9-1.5 1.7-3.4 3.1-5.5 4-2.2 1-4.6 1.5-7.1 1.5-2.4 0-4.8-.5-7-1.5-2.1-.9-3.9-2.3-5.4-3.9-1.5-1.7-2.7-3.7-3.5-5.9-.8-2.3-1.2-4.8-1.2-7.2 0-2.5.4-5 1.2-7.3.8-2.2 2-4.2 3.6-6 1.5-1.7 3.4-3.1 5.5-4 2.2-1 4.6-1.4 7-1.4 2.4 0 4.8.5 7 1.5 2.1 1 3.9 2.3 5.4 4 1.5 1.7 2.7 3.7 3.5 5.9.8 2.3 1.2 4.8 1.2 7.2.2 2.4-.2 4.9-1.1 7.2zm-11.2-13.6c-1-1.7-2.9-2.8-4.9-2.8-2-.1-3.9 1-4.9 2.7-1.1 1.9-1.7 4.1-1.6 6.3-.1 2.3.6 4.6 1.8 6.5 1 1.7 2.9 2.8 4.8 2.8 2 .1 3.9-1 4.9-2.7 1.1-1.9 1.7-4.1 1.6-6.3.2-2.3-.5-4.5-1.7-6.5zM19.5 122.5l-6.4-9.8H7.9v9.8H1.3V91.8H15c3.6 0 6.3.9 8.3 2.7 2.1 1.9 3.2 4.7 3 7.5.1 2.2-.5 4.3-1.8 6.1-1.2 1.6-2.8 2.8-4.6 3.4l7.3 11h-7.7zm.2-20.2c.1-1.3-.4-2.5-1.4-3.3-1.1-.8-2.5-1.2-3.8-1.1H7.9v8.8h6.7c1.4.1 2.7-.3 3.7-1.2.9-.8 1.4-1.9 1.4-3.2zM30.6 122.5V91.8h22.6v6H37.1v6.2h14.1v6H37.1v6.4h16.3v6l-22.8.1zM84.1 113.2c-.7 1.8-1.9 3.5-3.3 4.9-1.5 1.4-3.2 2.5-5.1 3.2-2 .8-4.2 1.2-6.4 1.2H57.6V91.8h11.7c2.2 0 4.4.4 6.4 1.2 1.9.7 3.6 1.8 5.1 3.2 1.4 1.4 2.5 3 3.3 4.8.8 1.9 1.2 3.9 1.2 6v.1c0 2.1-.4 4.2-1.2 6.1zm-5.8-6c0-1.3-.2-2.5-.7-3.7-.4-1.1-1-2.1-1.8-2.9-.8-.8-1.8-1.5-2.8-2-1.2-.5-2.4-.7-3.7-.7h-5.1v18.5h5.1c1.3 0 2.5-.2 3.7-.7 1.1-.4 2-1.1 2.8-1.9.8-.8 1.4-1.8 1.8-2.9.5-1.1.8-2.4.7-3.7zM114.1 115.2c-.6 1.6-1.5 3.1-2.6 4.3-1.2 1.2-2.6 2.1-4.2 2.6-1.8.6-3.6.9-5.4.8-4 0-7.2-1.1-9.5-3.4s-3.5-5.7-3.5-10.2V91.8h6.6v17.4c-.2 2 .5 4.1 1.7 5.7 1.2 1.3 3 2 4.8 1.9 1.8.1 3.5-.6 4.8-1.8 1.2-1.2 1.7-3.1 1.7-5.5V91.8h6.6v17.3c0 2.1-.3 4.2-1 6.1zM144 119.8c-.8.7-1.7 1.3-2.7 1.7-1 .5-2.1.9-3.2 1.1-1.3.3-2.6.4-3.9.4-4.1 0-8.1-1.6-11-4.6-1.4-1.4-2.5-3.1-3.2-5-.8-2-1.2-4.1-1.2-6.2v-.1c0-2.1.4-4.2 1.2-6.2.7-1.9 1.8-3.5 3.2-5 1.4-1.5 3-2.6 4.9-3.4 2-.9 4.2-1.3 6.3-1.2 1.3 0 2.6.1 3.8.3 1.1.2 2.1.6 3.1 1 .9.4 1.8.9 2.7 1.4.8.6 1.5 1.2 2.2 1.9l-4.2 5c-1.1-1-2.3-1.9-3.6-2.5-1.3-.6-2.7-.9-4.1-.9-1.2 0-2.4.2-3.5.7-1.1.5-2 1.2-2.8 2.1-.8.9-1.4 1.9-1.8 3-.4 1.2-.7 2.4-.6 3.7v.1c0 1.3.2 2.5.6 3.7.4 1.1 1 2.2 1.8 3.1.8.9 1.7 1.6 2.7 2.1 1.1.5 2.3.8 3.5.8 1.5 0 3-.3 4.4-1 1.3-.7 2.5-1.6 3.5-2.6l4.2 4.3c-.6.8-1.4 1.6-2.3 2.3zM150 122.5V91.8h22.6v6h-16.1v6.2h14.1v6h-14.1v6.4h16.3v6l-22.8.1zM203.4 113.2c-.7 1.8-1.9 3.5-3.3 4.9-1.4 1.4-3.1 2.5-5 3.2-2.1.8-4.2 1.2-6.4 1.2H177V91.8h11.7c2.2 0 4.4.4 6.4 1.2 1.9.7 3.6 1.8 5 3.2 1.4 1.4 2.5 3 3.3 4.8.8 1.9 1.2 3.9 1.2 6v.1c0 2.1-.4 4.2-1.2 6.1zm-5.7-6c0-1.3-.2-2.5-.7-3.7-.4-1.1-1-2.1-1.9-2.9-.8-.8-1.8-1.5-2.9-1.9-1.2-.5-2.4-.7-3.7-.7h-5.1v18.5h5.1c1.3 0 2.5-.2 3.7-.7 1.1-.4 2.1-1 2.9-1.9.8-.8 1.4-1.8 1.9-2.9.5-1.1.7-2.4.7-3.8zM60.3 202.5c-4.1 3.3-8.9 5.6-14 6.7-3.1.6-6.2.9-9.3.9-5 0-9.9-.9-14.4-2.9-4.3-1.8-8.2-4.5-11.5-7.9-3.3-3.4-5.8-7.4-7.6-11.8C1.7 182.9.8 177.9.8 173v-.2c0-5 .9-9.9 2.7-14.5 1.7-4.4 4.3-8.4 7.6-11.9 3.3-3.4 7.2-6.2 11.6-8.1 4.7-2 9.8-3 14.9-2.9 3 0 6 .2 9 .8 2.5.5 5 1.3 7.4 2.3 2.2.9 4.2 2.1 6.1 3.5 1.9 1.4 3.6 2.9 5.2 4.5l-9.9 11.7c-2.5-2.4-5.3-4.4-8.4-6-3-1.5-6.3-2.2-9.6-2.1-2.8 0-5.6.6-8.2 1.8-2.5 1.1-4.7 2.8-6.5 4.9-1.8 2.1-3.3 4.5-4.2 7.2-1 2.8-1.5 5.7-1.5 8.7v.2c0 3 .5 6 1.5 8.8.9 2.6 2.4 5.1 4.2 7.2 1.8 2.1 4 3.7 6.5 4.9 2.6 1.2 5.4 1.8 8.3 1.8 3.5.1 7.1-.7 10.2-2.3 3-1.7 5.8-3.8 8.3-6.2l9.9 10.2c-1.7 1.7-3.6 3.5-5.6 5.2zM143.3 187.1c-1.8 4.4-4.5 8.4-7.8 11.9-3.4 3.4-7.4 6.1-11.9 8-4.8 2-9.9 3-15.1 3-5.1.1-10.3-.9-15-2.9-4.4-1.9-8.4-4.6-11.8-7.9-3.3-3.4-6-7.4-7.7-11.8-1.9-4.6-2.8-9.5-2.8-14.5v-.2c-.1-9.8 3.7-19.3 10.6-26.4 3.4-3.5 7.4-6.2 11.9-8.1 9.6-3.9 20.4-3.9 30.1 0 4.4 1.9 8.4 4.6 11.8 7.9 3.3 3.4 6 7.4 7.8 11.8 1.9 4.6 2.8 9.5 2.8 14.5v.2c0 5.1-1 10-2.9 14.5zm-13.4-14.4c0-3-.5-6-1.6-8.8-1-2.7-2.5-5.1-4.4-7.2-1.9-2.1-4.2-3.7-6.8-4.9-2.7-1.2-5.6-1.8-8.6-1.8s-5.9.6-8.6 1.8c-2.5 1.1-4.8 2.8-6.7 4.9-1.9 2.1-3.3 4.5-4.3 7.2-1.1 2.8-1.6 5.7-1.6 8.7v.2c0 3 .5 6 1.6 8.8 1 2.7 2.5 5.1 4.4 7.2 1.9 2.1 4.2 3.7 6.8 4.9 2.7 1.2 5.6 1.8 8.6 1.8 2.9 0 5.9-.6 8.6-1.8 2.6-1.1 4.8-2.8 6.7-4.9 1.9-2.1 3.3-4.5 4.3-7.2 1.1-2.8 1.6-5.7 1.6-8.7v-.2zM171.3 152.2c-2.7 2.1-5 4.6-7.1 7.3l-10.9-9c1.6-2.3 3.4-4.4 5.3-6.4 1.7-1.8 3.6-3.4 5.7-4.7 2.1-1.3 4.4-2.3 6.8-2.9 2.8-.7 5.6-1 8.5-1 3.4-.1 6.9.5 10.1 1.6 2.8 1 5.4 2.5 7.7 4.5 2.1 2 3.8 4.4 4.8 7.1 1.1 2.9 1.7 6 1.7 9.2 0 2.7-.3 5.5-1.2 8.1-.8 2.4-1.9 4.7-3.4 6.8-1.7 2.3-3.6 4.5-5.8 6.4-2.4 2.1-5.1 4.4-8.2 6.9l-11.5 9.1h30.7v13.7h-52.2v-12.5l23.5-19.7c2.2-1.9 4.1-3.5 5.6-5 1.4-1.3 2.6-2.7 3.8-4.2.9-1.2 1.6-2.5 2.1-3.9.4-1.3.7-2.8.6-4.2 0-3.1-.9-5.4-2.6-7-1.9-1.6-4.3-2.5-6.9-2.4-2.4-.2-5 .6-7.1 2.2zM1.3 250.1v-27.4h20.1v5.4H7.2v5.6h12.6v5.3H7.2v5.8h14.5v5.4l-20.4-.1zM46.4 250.1v-17.9L38.8 244h-.1l-7.5-11.6v17.8h-5.8v-27.4h6.4l7 11.6 7-11.6h6.4v27.4l-5.8-.1zM57.4 250.1v-27.4h5.9v27.4h-5.9zM87 245.6c-.5 1-1.1 1.9-2 2.7-.9.8-1.9 1.3-3.1 1.7-1.3.4-2.6.6-4 .6-2 0-4.1-.4-6-1.1-2-.7-3.8-1.9-5.3-3.3l3.5-4.3c1.1 1 2.4 1.8 3.8 2.4 1.3.6 2.8.9 4.2.9 1 .1 2-.2 2.8-.7.6-.4 1-1.1 1-1.9v-.1c0-.3-.1-.7-.2-1-.2-.3-.5-.6-.8-.8-.5-.3-1.1-.6-1.7-.8-.7-.3-1.6-.5-2.7-.8-1.2-.3-2.5-.7-3.7-1.1-1-.4-2-.9-2.8-1.6-.8-.6-1.4-1.4-1.8-2.3-.5-1.1-.7-2.2-.6-3.4v-.1c0-1.2.2-2.3.7-3.4.4-1 1.1-1.9 1.9-2.6.9-.8 1.9-1.3 2.9-1.7 1.2-.4 2.5-.6 3.8-.6 1.8 0 3.7.3 5.4.9 1.6.6 3.2 1.5 4.5 2.6l-3 4.5c-1.1-.8-2.3-1.5-3.5-2-1.1-.5-2.3-.7-3.4-.7-.9-.1-1.8.2-2.6.7-.5.4-.9 1-.9 1.7v.1c0 .4.1.8.2 1.1.2.4.5.7.9.9.6.3 1.2.6 1.8.8.8.2 1.7.5 2.8.8 1.2.3 2.4.7 3.6 1.2 1 .4 1.9 1 2.7 1.6.7.6 1.3 1.4 1.7 2.2.4 1 .6 2 .6 3.1.1 1.5-.2 2.7-.7 3.8zM110 245.6c-.5 1-1.1 1.9-2 2.7-.9.7-2 1.3-3.1 1.6-1.3.4-2.6.6-4 .6-2 0-4.1-.4-6-1.1-2-.7-3.8-1.9-5.4-3.3l3.4-4.3c1.1 1 2.4 1.8 3.8 2.4 1.3.6 2.8.9 4.2.9 1 .1 2-.2 2.8-.7.6-.4 1-1.1 1-1.9v-.1c0-.3-.1-.7-.2-1-.2-.3-.5-.6-.8-.8-.5-.3-1.1-.6-1.7-.8-.7-.3-1.6-.5-2.7-.8-1.2-.3-2.5-.7-3.7-1.1-1-.4-2-.9-2.8-1.6-.8-.6-1.4-1.4-1.8-2.3-.5-1.1-.7-2.2-.6-3.4v-.1c0-1.2.2-2.3.7-3.4.4-1 1.1-1.9 1.9-2.6.9-.8 1.9-1.3 3-1.7 1.2-.4 2.5-.6 3.8-.6 3.6-.1 7.1 1.2 9.9 3.5l-3.1 4.5c-1.1-.8-2.3-1.5-3.5-2-1.1-.5-2.3-.7-3.4-.7-.9-.1-1.8.2-2.6.7-.5.4-.9 1-.9 1.7v.1c0 .4.1.8.2 1.1.2.4.5.7.9.9.6.3 1.2.6 1.8.8.8.2 1.7.5 2.9.8 1.2.3 2.4.7 3.6 1.2 1 .4 1.9 1 2.7 1.6.7.6 1.3 1.4 1.7 2.2.4 1 .6 2 .6 3.1.1 1.6-.1 2.8-.6 3.9zM114.6 250.1v-27.4h5.9v27.4h-5.9zM151.8 241.9c-.7 1.7-1.7 3.2-3 4.5-1.3 1.3-2.8 2.3-4.5 3.1-3.7 1.5-7.8 1.5-11.4 0-1.7-.7-3.2-1.7-4.5-3-1.3-1.3-2.3-2.8-2.9-4.5-.7-1.8-1-3.6-1-5.5v-.1c0-3.7 1.4-7.3 4-10 1.3-1.3 2.8-2.3 4.5-3.1 3.7-1.5 7.8-1.5 11.4 0 1.7.7 3.2 1.7 4.5 3 1.3 1.3 2.3 2.8 2.9 4.5.7 1.7 1.1 3.6 1.1 5.5v.1c0 1.9-.4 3.8-1.1 5.5zm-5.1-5.5c0-1.1-.2-2.3-.6-3.3-.4-1-.9-1.9-1.7-2.7-.7-.8-1.6-1.4-2.6-1.9s-2.1-.7-3.2-.7-2.2.2-3.3.7c-1 .4-1.8 1.1-2.5 1.8-.7.8-1.3 1.7-1.6 2.7a9.6 9.6 0 0 0-.6 3.3v.1c0 1.1.2 2.3.6 3.3.4 1 1 1.9 1.7 2.7.7.8 1.6 1.4 2.6 1.9s2.1.7 3.3.7c1.1 0 2.2-.2 3.2-.7 1-.4 1.8-1.1 2.5-1.8.7-.8 1.3-1.7 1.6-2.7.4-1 .6-2.2.6-3.4zM175.4 250.1l-13-17.4v17.4h-5.8v-27.4h5.4l12.5 16.9v-16.9h5.8v27.4h-4.9zM203.9 245.6c-.5 1-1.1 1.9-2 2.7-.9.7-2 1.3-3.1 1.6-1.3.4-2.6.6-4 .6-2 0-4.1-.4-6-1.1-2-.7-3.8-1.9-5.4-3.3l3.5-4.3c1.1 1 2.4 1.8 3.8 2.4 1.3.6 2.8.9 4.2.9 1 .1 2-.2 2.9-.7.6-.4 1-1.1 1-1.9v-.1c0-.3-.1-.7-.2-1-.2-.3-.5-.6-.8-.8-.5-.3-1.1-.6-1.6-.8-.7-.3-1.6-.5-2.7-.8-1.2-.3-2.5-.7-3.7-1.1-1-.4-2-.9-2.8-1.6-.8-.6-1.4-1.4-1.8-2.3-.5-1.1-.7-2.2-.6-3.4v-.1c0-1.2.2-2.3.7-3.4.4-1 1.1-1.9 1.9-2.6.9-.8 1.9-1.3 3-1.7 1.2-.4 2.5-.6 3.8-.6 3.6-.1 7.1 1.2 9.9 3.5l-3.1 4.5c-1.1-.8-2.3-1.5-3.5-2-1.1-.5-2.3-.7-3.4-.7-.9-.1-1.8.2-2.6.7-.5.4-.9 1-.9 1.7v.1c0 .4.1.8.2 1.1.2.4.5.7.9.9.6.3 1.2.6 1.8.8.8.2 1.7.5 2.9.8 1.2.3 2.4.7 3.6 1.2 1 .4 1.9 1 2.7 1.6.7.6 1.3 1.4 1.6 2.2.4 1 .6 2 .6 3.1-.1 1.6-.3 2.8-.8 3.9z"/></svg>