<svg xmlns="http://www.w3.org/2000/svg" viewBox="0 0 167.8 178.4"><path d="M146.6 33.4c28.3 31.8 28.3 79.7 0 111.6-11.3 12.7-26 21.6-42.5 25.6-15.3 3.7-31.1 3.2-45.9-1.6l.5 7.8c.1 1.4-1.7 2.1-2.6 1.1l-16.7-19c-.9-1-.1-2.6 1.2-2.5l25.2 1.9c1.4.1 1.9 1.9.7 2.7l-6.5 4.3c30 9.4 62.4.6 83.5-23 27-30.3 27-75.9 0-106.1-.8-.9-.7-2.2.2-2.9.8-.8 2.1-.7 2.9.1M24.3 142.2c-27-30.2-26.9-75.8 0-106.1 21.1-23.6 53.5-32.5 83.5-23l-6.5 4.3c-1.2.8-.7 2.6.7 2.7l25.2 1.9c1.3.1 2.1-1.5 1.2-2.5L111.7.5c-.9-1.1-2.7-.3-2.6 1.1l.5 7.8C94.9 4.6 79.1 4 63.8 7.7c-16.5 4.1-31.2 12.9-42.5 25.6-28.4 31.8-28.4 79.8 0 111.6l.2.2c.8.7 2 .7 2.7 0 .8-.7.9-2 .1-2.9m59.4-4.7c4.2 0 8.2-1.6 11.2-4.5 3.2-3.1 5-7.2 5-11.6 0-.9-.8-1.7-1.7-1.7-.9 0-1.7.8-1.7 1.7 0 3.5-1.4 6.8-3.9 9.2-2.5 2.4-5.8 3.7-9.4 3.6-6.6-.3-12-5.6-12.3-12.3-.2-6.5 4.4-12.2 10.9-13.1 2-.3 3.6-2.1 3.6-4.2V41.8c0-.9-.8-1.7-1.7-1.7-.9 0-1.7.8-1.7 1.7v62.8c0 .4-.3.8-.7.8-8.2 1.2-14.1 8.3-13.8 16.6.3 8.4 7.1 15.2 15.5 15.5h.7m0-108.5c4.2 0 7.6 3.4 7.6 7.6V96c0 1.9 1.1 3.6 2.8 4.5 8 4 13 12 13 20.9 0 6.4-2.5 12.4-7.2 16.8-4.6 4.4-10.7 6.8-17.1 6.5-12.4-.5-22.5-11-22.4-23.4 0-8.9 5-16.8 12.9-20.8 1.7-.9 2.8-2.6 2.8-4.5V36.6c0-4.2 3.4-7.6 7.6-7.6m0 119.1c7 0 13.5-2.6 18.5-7.5 5.3-5.1 8.2-11.9 8.2-19.3 0-10.2-5.7-19.4-14.8-23.9-.5-.3-.9-.8-.9-1.5V36.6c0-6.1-4.9-11-11-11s-11 4.9-11 11V96c0 .6-.4 1.2-.9 1.5-9.1 4.5-14.7 13.7-14.8 23.8 0 6.9 2.6 13.5 7.4 18.6 4.8 5.1 11.3 8 18.3 8.2h1m23-103.2c.9 0 1.7-.8 1.7-1.7 0-.9-.8-1.7-1.7-1.7h-3.5c-.9 0-1.7.8-1.7 1.7 0 .9.8 1.7 1.7 1.7h3.5m0 7.6c.9 0 1.7-.8 1.7-1.7 0-.9-.8-1.7-1.7-1.7h-3.5c-.9 0-1.7.8-1.7 1.7 0 .9.8 1.7 1.7 1.7h3.5m0 7.5c.9 0 1.7-.8 1.7-1.7 0-.9-.8-1.7-1.7-1.7h-3.5c-.9 0-1.7.8-1.7 1.7 0 .9.8 1.7 1.7 1.7h3.5" fill="#010202"/></svg>