<svg xmlns="http://www.w3.org/2000/svg" viewBox="0 0 59.8 55.4"><path d="M51.4.6h-43C4.1.6.6 4.1.6 8.4v38.7c0 4.3 3.5 7.8 7.8 7.8h43c4.3 0 7.8-3.5 7.8-7.8V8.3C59.1 4.1 55.6.6 51.4.6zm-43 1.5H49c-1.2 2.5-4.4 8.8-5 9.9-.6 1.2-.9 1.2-1.4 1.3-.1 0-.2 0-.3.1-.2.1-2.1.3-4.2.6-2.8.4-6.3.8-9.2 1.2-2.1.3-4.1.9-6.1 1.7l-12.6 5.4-.1.1c-1.9.8-3.1 1.4-3.1 3.5 0 2.2 2 2.6 2.1 2.7h14.3c.1 0 .2-.1.2-.1v-.3c-1.7-2.2-.9-4.4.4-5.6 1.1-1.1 3.1-1 3.1-1h10.3s.3 0 .5.2c.1.1.1.2.1.4s0 .3-.1.4c-.2.2-.4.2-.6.2h-9.6c-.1 0-2.1-.1-3.3.9-.5.5-.8 1.1-.8 1.9 0 3.1 3 3.1 3 3.1h16.6c5 0 7.1-3.8 7.1-3.8l7.3-12.3v17.3H2.2V8.3c0-3.4 2.8-6.2 6.2-6.2zm43 51.2h-43c-3.4 0-6.2-2.8-6.2-6.2V31.3h55.4V47c0 3.5-2.8 6.3-6.2 6.3z"/></svg>