<svg xmlns="http://www.w3.org/2000/svg" viewBox="0 0 935.7 935.8"><path d="M802.3 727.3c.1-.1.1-.2.2-.3.9-1.2 3.4-5-.2.3zM303.8 858.2c.1 0 .1.1.2.1-.6-.3-1.1-.4-1.4-.6.1 0 .1 0 .2.1.3.1.7.2 1 .4zm105.6 29c.3 0 .6.1.9.1 2.1.2 5 .4-.9-.1zM78.5 301.7l-.9 2.1c.8-1.8 1-2.3.9-2.1zM727 802.5c-3.1 2.2-3.2 2.3-2.5 1.9.7-.6 1.6-1.3 2.5-1.9-.1 0-.1 0 0 0zm-202.7 84.8c.1 0 .3 0 .4-.1 1.6-.2 3.2-.5-.4.1z"/><path d="M895.5 278.2c-4.7-10.8-21.4-14.1-30.8-8.1-11.3 7.5-13.2 19.5-8.1 31.1.1.3.4.9.7 1.6l1.5 3.6 3.6 9c2.3 6 4.5 12.1 6.5 18.3 3.9 11.8 7.4 23.8 10.3 35.9 2.9 12.2 5.4 24.6 7.3 37 .3 1.6.5 3.3.7 4.9 0 .3 0 .6.1.8.4 3 .7 6 1 9 .7 7 1.3 14 1.7 21 1.2 21.7.9 43.5-1 65.1-.4 4.8-.9 9.6-1.5 14.5-.1 1.1-.3 2.3-.4 3.4 0 .4-.1.6-.1.8-.3 2.3-.7 4.5-1 6.8-1.5 9.4-3.3 18.8-5.4 28.1-4.3 18.8-9.7 37.3-16.4 55.4-1.5 4.2-3.1 8.3-4.8 12.4-.7 1.6-3.9 8.6-.8 2-1.1 2.4-2.1 4.9-3.2 7.3-3.8 8.5-7.8 16.8-12.1 25-8.8 16.7-18.6 32.9-29.4 48.4-2.5 3.6-5.1 7.1-7.7 10.7-1.3 1.7-2.7 3.4-4 5.2 0 0 0-.1.1-.1-.7.9-1.5 1.9-2.2 2.8-6 7.5-12.2 14.8-18.7 21.9-12.4 13.6-25.5 26.4-39.5 38.3-3.5 3-7 5.9-10.6 8.8-1.5 1.1-2.9 2.3-4.4 3.4h.1l-.1.1c-.4.3-.9.7-1.3 1-.4.3-.9.6-1.2.9-.5.4-1.1.8-1.6 1.2-7.4 5.5-14.9 10.8-22.6 15.8-15.6 10.2-31.9 19.5-48.7 27.7-4.2 2-8.4 4-12.6 5.9-2 .9-4 1.8-6.1 2.7-.2.1-.6.2-1.1.5 0 0 .1 0 .1-.1 3.8-1.6-1.6.6-2.2.9-8.7 3.5-17.4 6.8-26.3 9.7-18.4 6.2-37.1 11.1-56.1 14.8-4.5.9-9 1.7-13.4 2.4-2.3.4-4.5.7-6.8 1-.8.1-1.6.2-2.3.3-.3.1-.6.1-.9.1.2 0 .3-.1.5-.1-.2 0-.5.1-.7.1h-.1c-9.9 1.2-19.8 2.1-29.7 2.7-19.8 1.1-39.8 1-59.6-.5-4.6-.3-9.2-.8-13.8-1.2l-7.5-.9c-.8-.1-1.6-.2-2.5-.3-.4 0-.8-.1-1-.1-9.7-1.4-19.3-3.1-28.9-5.2-18.7-4-37.1-9.2-55.1-15.5-4.4-1.6-8.8-3.2-13.1-4.9-2.1-.8-4.1-1.6-6.2-2.5-.6-.2-1.3-.5-2-.8.3.1.7.3 1.2.5-.5-.2-.9-.4-1.4-.6-.1 0-.2-.1-.3-.1-1.4-.6-1.7-.7-.9-.4-8.4-3.7-16.8-7.6-25-11.7-16.8-8.6-33.1-18.2-48.8-28.9-3.6-2.5-7.2-5-10.8-7.6-1.8-1.3-3.5-2.6-5.3-3.9-.6-.5-1.3-.9-1.9-1.4.3.2.3.2-.8-.7-7.4-5.8-14.6-11.8-21.7-18-13.9-12.3-27-25.5-39.3-39.4-2.9-3.3-5.7-6.6-8.5-10-1.5-1.9-3.1-3.7-4.6-5.6-.7-.9-1.4-1.7-2-2.6-.1-.1-.3-.4-.6-.7.5.6-1.3-1.7-1.5-2.1-.7-.9-1.3-1.7-2-2.6-1.4-1.9-2.9-3.9-4.3-5.8-2.8-3.9-5.6-7.9-8.3-11.9-10.3-15.3-19.7-31.3-28-47.8-4.4-8.7-8.2-17.6-12.3-26.5 3.1 6.5-.2-.4-.8-2-.8-2.1-1.6-4.1-2.4-6.2-1.8-4.6-3.5-9.2-5.1-13.8-6.4-18.3-11.5-36.9-15.4-55.9-1.8-9-3.4-18-4.7-27.1 0-.2 0-.4-.1-.7l-.3-2.7c-.3-2.3-.5-4.6-.8-6.9-.5-5.1-1-10.1-1.3-15.2-1.4-20.1-1.5-40.2-.3-60.3.6-9.7 1.6-19.3 2.7-29 0-.4.1-.7.1-.9.1-.7.2-1.4.3-2 .4-2.5.8-5 1.2-7.4.8-4.9 1.7-9.9 2.7-14.8 3.7-18.5 8.6-36.8 14.7-54.7 2.9-8.8 6.2-17.5 9.7-26.1.2-.3.3-.6.4-1-.1.3-.3.6-.4.9.2-.4.4-.9.5-1.3.2-.6.6-1.5.8-1.7.1-.1.1-.2.1-.3.9-2 1.8-4.1 2.7-6.1 2-4.4 4.1-8.8 6.2-13.2 8.4-17 17.8-33.4 28.3-49.1 5.1-7.7 10.4-15.2 16-22.5.2-.3 1.1-1.4 1.5-1.9 1.3-1.6 2.6-3.3 3.9-4.9 3-3.7 6.1-7.4 9.3-11.1 12.3-14.2 25.5-27.7 39.4-40.2 6.8-6.1 13.8-12.1 21-17.8 1-.8 2.1-1.6 3.1-2.4 2.9-2.3-1.1.9-1.4 1.1 2-1.3 3.8-2.9 5.8-4.3 4-3 8.1-5.9 12.3-8.8 15.2-10.5 31-20 47.4-28.5 8.6-4.5 17.4-8.7 26.3-12.6 1.7-.7 8.7-3.3 2-.9 2.1-.7 4.1-1.7 6.2-2.5 4.5-1.8 9.1-3.6 13.7-5.2 18.1-6.6 36.7-12 55.6-16.1 9.3-2.1 18.7-3.8 28.2-5.2 2.3-.3 4.5-.6 6.8-1-7.4 1.3.4 0 2.2-.2 5-.6 10.1-1.1 15.1-1.5 22.4-1.9 45-2.1 67.4-.6 6.1.4 12.2.9 18.2 1.6 2.8.3 5.6.6 8.3 1 .1 0 .7.1 1.9.3 1.8.3 3.6.5 5.4.8 12.7 2 25.4 4.5 37.9 7.6 11.8 2.9 23.4 6.3 34.9 10.2 5.6 1.9 11.1 3.9 16.6 6 2.7 1 5.5 2.1 8.2 3.2 1.5.7 3.1 1.2 4.6 1.9.6.3 1.2.5 1.4.6 5.8 2.5 11 4 17.3 2.3 5.2-1.4 10.9-5.5 13.4-10.3 5.1-9.7 3.5-25.8-8.1-30.8C606.6 18.1 553 4.7 497.5 1c-44-2.9-88.6.8-131.7 10.2-78.6 17.3-152 55.9-211.7 109.6-59.5 53.5-104.4 122.6-130 198.3-26.8 79.1-31 165.3-13.9 246.9 16.6 78.8 54.6 152.5 107.9 212.8 53 59.9 121.7 105.3 197.1 131.6 78.8 27.5 165 32.4 246.7 16 79.1-15.9 153-53.3 213.8-106.1 60.4-52.5 106.3-120.7 133.2-196 31-86.5 35-182.5 12.6-271.4-6.5-25.7-15.4-50.5-26-74.7zm-763.7-67.8c-.6.7-.4.5 0 0z"/><path d="M504.6 189.7c1.6.3.9.1 0 0zM246.1 295.6c-1.1 1.5-2.9 4.2 0 0z"/><path d="M554.9 178.2c2.6-11.4-3.4-25-15.7-27.7-59.4-13-122.5-10.1-179.9 10.5-49.4 17.7-94.5 46.8-130.3 85.4-35.8 38.6-62.2 85.8-75.9 136.6-14.3 53.2-14.8 110-1.7 163.5 12.6 51.5 38.5 99.3 73.7 138.8 35 39.3 79.5 69 128.6 87.7 51.4 19.5 107.1 24.4 161.4 16.9 51.1-7.1 101-27.4 142.6-57.9 42.2-30.9 77.4-71.1 100.7-118.1 24.9-50.1 37-106.3 34.1-162.2-1-18.6-3.6-37.3-7.5-55.5-2.5-11.5-16.5-19.3-27.7-15.7-11.9 4.1-18.2 15.5-15.5 27.8.9 4 1.7 7.9 2.4 11.9.4 2.2.8 4.3 1.1 6.5.1.9.3 1.9.4 2.8.1.7.1 4.4.2 1.7.2-2.9.1.9.2 1.7.1.9.2 1.9.3 2.8l.6 5.7c.4 4.4.7 8.9.9 13.4.6 14.1.3 28.1-1 42.2-.3 3-.6 6-1 8.9 0 .4-.1.6-.1.8-.2 1.4-.4 2.7-.6 4.1-1 6.1-2.1 12.1-3.5 18.1-2.7 12-6.1 23.9-10.3 35.5l-3 8.1c-.5 1.2-1 2.5-1.5 3.7-.2.4-.4.9-.6 1.4-2.4 5.2-4.7 10.5-7.3 15.6-5.4 10.8-11.5 21.3-18.2 31.3-3.2 4.8-6.5 9.5-10 14.1-1 1.1-1.9 2.4-2.9 3.6-1.9 2.4-3.9 4.7-5.9 7.1-7.7 9-15.9 17.5-24.5 25.5-4.5 4.2-9.1 8.2-13.8 12.1-1 .8-2 1.7-3.1 2.5l-.3.3c-2.4 1.7-4.7 3.6-7.2 5.3-9.6 6.9-19.6 13.3-30 19-5.4 3-10.9 5.8-16.5 8.5-2.4 1.1-4.8 2.3-7.2 3.3-.4.2-2.7 1.2-3.3 1.4-.8.3-1.5.6-1.7.8-11.2 4.5-22.7 8.3-34.3 11.4-11.7 3.1-23.4 5.2-35.3 7.2-.3 0-.6.1-.9.1-1.6.2-3.2.4-4.8.5-3.2.3-6.4.6-9.7.8-6.3.4-12.6.7-18.9.8-12.6.1-25.2-.5-37.7-2-.3 0-1.1-.1-1.8-.2-.8-.1-2.1-.3-2.5-.4-3.4-.5-6.8-1.1-10.1-1.7-6-1.1-12-2.4-17.9-3.9-11.7-2.9-23.3-6.5-34.6-10.8-2.4-.9-4.9-1.9-7.3-2.9-.2-.1-.5-.2-.9-.4-1.4-.6-2.8-1.3-4.2-1.9-5.6-2.6-11.2-5.3-16.6-8.2-10.5-5.6-20.6-11.8-30.4-18.5-2.3-1.6-4.7-3.3-6.9-5-.9-.7-1.9-1.4-2.8-2.1-.2-.2-.5-.4-1-.8-4.6-3.7-9.1-7.5-13.6-11.4-9-8-17.5-16.5-25.4-25.5-3.9-4.4-7.7-9-11.4-13.6-.1-.2-.3-.3-.4-.4-.7-1-1.4-1.9-2.1-2.9-1.8-2.5-3.6-5-5.3-7.5-6.9-9.9-13.1-20.3-18.8-31-2.8-5.3-5.4-10.6-7.9-16.1-.5-1.2-1.1-2.4-1.6-3.6-.3-.7-.5-1.1-.6-1.3-1-2.5-2-5-2.9-7.5-4.3-11.3-7.9-22.9-10.8-34.6-1.5-6.2-2.8-12.4-4-18.6-.5-2.9-1-5.8-1.4-8.8-.1-.5-.3-1.9-.4-2.7-.1-.9-.2-1.9-.3-2.3-1.4-12.5-2-25.1-1.9-37.7.1-6.5.4-13.1.8-19.6.2-3 .5-6 .8-9 .1-1.4.3-2.7.5-4.1l.3-2.1v-.2c3.6-23.8 9.9-47.1 18.9-69.5.3-.8 2.1-5.1.7-1.6-1.4 3.4.6-1.2 1-2.2l3.9-8.4c2.6-5.4 5.3-10.6 8.2-15.8 5.8-10.3 12.2-20.4 19.1-30 1.7-2.3 3.5-4.5 5.1-6.8-.1.1-.2.3-.3.4.1-.2.3-.4.4-.5 1.1-1.4 2.2-2.7 3.3-4.1 3.8-4.5 7.6-9 11.7-13.3 8-8.6 16.6-16.8 25.5-24.5 2.2-1.8 4.4-3.7 6.6-5.4 1.2-.9 2.5-1.8 3.6-2.9l-.2.2c.3-.2.5-.4.8-.7 4.7-3.5 9.6-6.9 14.5-10.2 9.9-6.5 20.2-12.5 30.8-17.8 5.3-2.6 11.1-4.6 16.2-7.6-.3.2-5.2 2.1-1.7.7.6-.3 1.2-.5 1.8-.8 1.2-.5 2.5-1 3.7-1.5 3.1-1.2 6.2-2.4 9.4-3.5 11.4-4 23.1-7.4 35-10 6-1.3 12-2.5 18.1-3.4 1-.2 2-.3 3-.5 0 0 .3 0 1.2-.1 3.2-.4 6.4-.7 9.6-1 14.1-1.3 28.3-1.6 42.4-.9 4.1.2 8.3.5 12.4.8l5.7.6c1.3.1 2.5.3 3.8.4.1 0 .6.1 1 .1h-.2c-2.7-.5 2.7.4 3.5.5 2.2.3 4.3.7 6.5 1.1 4.3.8 8.6 1.6 12.8 2.6 11.5 2.5 24.9-3.4 27.7-15.7zm-51.3 568.5h-.1c-.1.1-.1.1.1 0zm-72.1-.1c.4.1.3.1 0 0zm-1.2-.1h.2c-1.4-.2-2.5-.3-.2 0z"/><path d="M487.8 344.1c7.9 1.4 15.6 3.5 23.2 6.2 8.5 3 18.8-1.2 24.3-8.5 3-3.8 4.8-8.5 4.6-13.6-.5-11.4-8.8-21.2-20.2-22.4-59.5-19.3-126.4-3.3-171.4 40-42.8 41.3-60.4 103.1-47.6 161 12.6 56.9 55.4 103.1 109.7 123 56.5 20.6 120 7.6 166.2-29.8 47.9-38.8 69-102 58.9-162.1-1.3-7.6-3.2-15.1-5.6-22.5-1.8-10.8-10.6-19.4-22.2-19.4-9.3 0-18.2 6.4-21.3 15.1-1.6 4.2-2 8.8-.4 13.4 2.6 7.6 4.7 15.3 6.2 23.2l.6 3.6c.5 2.4 0-.7-.2-1.4.5 1.5.4 3.7.6 5.3.4 4.3.6 8.6.6 12.9 0 3.3-.1 6.6-.3 9.8l-.3 4.2c-.1.6-.1 1.3-.2 1.9-1 5.7-2 11.3-3.5 17-.8 2.8-1.6 5.6-2.5 8.4-.9 2.7-2.7 5.8-3.2 8.6 0 .1-.1.2-.1.3-.5 1.2-1.1 2.4-1.7 3.6-1.4 2.8-2.8 5.5-4.3 8.2-3.1 5.3-6.5 10.2-10 15.2-.9 1.1-1.8 2.3-2.7 3.3-2 2.3-4 4.6-6.2 6.8-4.1 4.2-8.4 8.2-13 12-.1 0-.1.1-.2.1h.1s-.1 0-.1.1c-.4.3-.9.7-1.3 1-.5.4-.8.6-1.1.6-.2.2-.5.4-.7.6-2.5 1.8-5.1 3.5-7.7 5.1-5.2 3.3-10.7 6.2-16.3 8.8-.9.4-1.9.8-2.8 1.2-.3.1-.7.3-1 .4-2.9 1.1-5.9 2.1-8.9 3.1-5.8 1.8-11.8 3.2-17.8 4.3-1.2.2-2.5.4-3.8.6-.2 0-.3 0-.5.1-3.2.3-6.5.6-9.7.7-6.3.3-12.6.1-18.9-.4-1.6-.1-3.2-.3-4.8-.5-3.2-.5-6.3-1.1-9.4-1.8-5.9-1.3-11.7-3-17.4-5.1-1.3-.5-2.5-.9-3.7-1.4-.5-.2-.9-.3-1.1-.4-2.5-1.2-5-2.3-7.5-3.6-5.3-2.7-10.4-5.8-15.3-9.1-1.3-.9-2.5-1.7-3.8-2.6-.1-.1-.2-.2-.4-.3-2-1.8-4.4-3.4-6.4-5.3-4.6-4.1-8.9-8.4-13-13-1.9-2.1-3.5-4.3-5.4-6.4-.9-1.3-1.9-2.6-2.8-4-3.3-4.9-6.4-10-9.1-15.3-1.3-2.6-2.5-5.2-3.7-7.8-.1-.3-.3-.5-.3-.7-.5-1.3-.9-2.5-1.5-3.8-2.1-5.9-3.9-12-5.2-18.1-.6-2.9-1.2-5.8-1.7-8.7 0-.2-.1-.5-.1-.7-.1-1.4-.3-2.8-.5-4.2-.5-6.3-.7-12.6-.4-18.9.1-3 .3-6 .7-9 .1-.6.2-1.3.2-1.9.2-1 .3-2 .5-3 1.1-6 2.5-11.9 4.3-17.8.9-2.8 1.8-5.5 2.8-8.2.2-.5 1.3-3.3 1.4-3.5.3-.7.6-1.3.7-1.6 2.5-5.4 5.3-10.6 8.5-15.7 1.5-2.4 3.1-4.8 4.7-7.1.7-1 1.8-2.2 2.5-3.3.1-.1.2-.3.3-.4 3.7-4.6 7.7-8.9 12-13 2-2 4.1-3.9 6.3-5.7 1.2-1 2.3-2 3.5-2.9.3-.2.5-.4.8-.6 4.7-3.4 9.6-6.6 14.7-9.6 2.5-1.4 5-2.8 7.6-4 1.2-.6 2.4-1.2 3.6-1.7.3-.2.7-.3 1-.5 2.6-.5 5.3-2.2 7.8-2.9 3-1 6-1.9 9-2.7 5.2-1.4 10.4-2.3 15.7-3.3.8-.1 1.9-.3 2.5-.3 1.6-.2 3.2-.3 4.8-.4 3.3-.2 6.5-.3 9.8-.3 4 0 8 .2 12 .5 1.8.1 3.6.4 5.5.5 2.7.3-1.4-.2-1.5-.2 1.1-.2 3.3.5 4.5.7zm81.3 199.5c0 .1-.1.1-.1.2.1-.2.1-.3.1-.2zm-116.2 50h-.3c.2-.1.3 0 .3 0zm-60.5-24.1c0-.1 0-.1 0 0zm-49.8-83.1v-.5.5zm75.2-133.9c.4-.2.9-.4 1.3-.6 2.5-1.2-.1.1-1.3.6zm31.7-8.8c-.5.1-.4.1 0 0z"/><path d="M545.6 567.5c-2.6 1.3-2.9 1.9-2.4 1.7.8-.6 1.6-1.3 2.4-1.7zm60.5-379.1c-8.8 9.6-6.8 22.2-6.8 34.1l.6 81.7-44.9 44.9-82.8 82.8-18.9 18.9c-8.3 8.3-9 23.6 0 31.8 9 8.3 22.9 8.9 31.8 0l51.7-51.7 82.8-82.8 12.3-12.3c23.4.2 46.9.4 70.4.5 9.5.1 19.2.5 28.7.2 11.2-.4 17.1-7.7 24.1-14.8l57.6-57.6 73.7-73.7c13.7-13.7 27.7-27.1 41.1-41.1 5.1-4.2 8.5-10.5 8.2-17.2-.1-1.9-.4-3.8-.9-5.6-.9-3.9-2.8-7.6-5.9-10.4-.2-.2-.4-.4-.7-.6-3.9-3.6-9.1-5.9-15-5.9l-86.4-.6c-.2-24.3-.4-48.5-.5-72.8 0-4.5-.1-9-.1-13.6-.1-19.4-24.6-29.8-38.4-15.9L753 41.5l-72 72-62.2 62.2c-4.2 4.2-8.6 8.3-12.7 12.7zm93.3-29.7 82.2-82.2.3 41.2c0 4.5.1 9 .1 13.6.1 12.2 10.2 22.4 22.5 22.5 18.3.1 36.5.3 54.8.4l-23.7 23.7-97.6 97.6-15.9 15.9-77.1-.6c-.2-24.3-.4-48.5-.5-72.8v-4.4l54.9-54.9z"/></svg>