<svg xmlns="http://www.w3.org/2000/svg" viewBox="0 0 59.8 55.4"><path d="M51.4 2.1h-43C5 2.1 2.2 4.9 2.2 8.3V47c0 3.4 2.8 6.2 6.2 6.2h43c3.4 0 6.2-2.8 6.2-6.2V8.3c0-3.4-2.8-6.2-6.2-6.2zm-3.2 4.8c.6-.6 1.6-.6 2.2 0l.4.4c.6.6.6 1.6 0 2.2l-2.4 2.4-2.6-2.6 2.4-2.4zm-15.1 0c.6-.6 1.6-.6 2.2 0l.4.4c.6.6.6 1.6 0 2.2l-2.6 2.6-2.6-2.6 2.6-2.6zm-9.2.4.4-.4c.6-.6 1.6-.6 2.2 0L36.6 17 34 19.6 23.9 9.5c-.6-.6-.6-1.6 0-2.2zm26.8 23.8c.6.6.6 1.6 0 2.2l-.4.4c-.6.6-1.6.6-2.2 0L38 23.6l2.6-2.6 10.1 10.1zm-5.3-6.7 2.7-2.7c.6-.6 1.6-.6 2.2 0l.4.4c.6.6.6 1.6 0 2.2L47.9 27l-2.5-2.6zm-23.7 7.5-2.6 2.6-10-10c-.6-.6-.6-1.6 0-2.2l.4-.4c.6-.6 1.6-.6 2.2 0l10 10zm-6.1-7.5 3.5-3.5 2.6 2.6-3.5 3.5-2.6-2.6zm11.1 4 2.6 2.6-11.2 11.1-2.6-2.6 11.2-11.1zM15.5 15.8l2.6-2.6 26.2 26.2-2.6 2.6-26.2-26.2zm22.5 16 3.4-3.4L44 31l-3.4 3.4-2.6-2.6zM33.2 27l-2.6-2.6 11.1-11.1 2.6 2.6L33.2 27zm-6.7-13.5 2.6 2.6-3.4 3.4-2.6-2.6 3.4-3.4zM9.1 7.2l.4-.4c.6-.6 1.6-.6 2.2 0l2.5 2.5-2.6 2.6-2.5-2.5c-.6-.6-.6-1.6 0-2.2zM9 15.9l9-9c.6-.6 1.6-.6 2.2 0l.4.4c.6.6.6 1.6 0 2.2l-9 9c-.6.6-1.6.6-2.2 0l-.4-.4c-.6-.6-.6-1.6 0-2.2zm0 15.2 2.7-2.7 2.6 2.6-2.7 2.7c-.6.6-1.6.6-2.2 0l-.4-.5c-.6-.6-.6-1.5 0-2.1zm2.6 17.5c-.6.6-1.6.6-2.2 0l-.4-.4c-.6-.6-.6-1.6 0-2.2l2.5-2.5 2.6 2.6-2.5 2.5zm9-.4-.4.4c-.6.6-1.6.6-2.2 0l-9-9c-.6-.6-.6-1.6 0-2.2l.4-.4c.6-.6 1.6-.6 2.2 0l9 9c.6.6.6 1.6 0 2.2zm5.9.3c-.6.6-1.6.6-2.2 0l-.4-.4c-.6-.6-.6-1.6 0-2.2l2.6-2.6 2.6 2.6-2.6 2.6zm9.3-.3-.4.4c-.6.6-1.6.6-2.2 0L23.1 38.5l2.6-2.6L35.8 46c.6.7.6 1.6 0 2.2zm-2.7-6.3-2.6-2.6 3.5-3.5 2.6 2.6-3.5 3.5zm17.7 6.2-.4.4c-.6.6-1.6.6-2.2 0l-2.4-2.4 2.6-2.6 2.4 2.4c.6.6.6 1.6 0 2.2zm0-8.5-9 9c-.6.6-1.6.6-2.2 0l-.4-.4c-.6-.6-.6-1.6 0-2.2l9-9c.6-.6 1.6-.6 2.2 0l.4.4c.6.6.6 1.6 0 2.2zm0-21.6-.4.4c-.6.6-1.6.6-2.2 0l-9-9c-.6-.6-.6-1.6 0-2.2l.4-.4c.6-.6 1.6-.6 2.2 0l9 9c.6.6.6 1.6 0 2.2z" fill="none"/><path d="M51.4.6h-43C4.1.6.6 4.1.6 8.4v38.7c0 4.3 3.5 7.8 7.8 7.8h43c4.3 0 7.8-3.5 7.8-7.8V8.3C59.1 4.1 55.6.6 51.4.6zm6.2 46.5c0 3.4-2.8 6.2-6.2 6.2h-43c-3.4 0-6.2-2.8-6.2-6.2V8.3c0-3.4 2.8-6.2 6.2-6.2h43c3.4 0 6.2 2.8 6.2 6.2v38.8z"/><path d="M35.7 9.5c.6-.6.6-1.6 0-2.2l-.4-.4c-.6-.6-1.6-.6-2.2 0l-2.6 2.6 2.6 2.6 2.6-2.6zm-12.56 7.426 3.393-3.394 2.546 2.545-3.394 3.395zM9.3 33.6c.6.6 1.6.6 2.2 0l2.7-2.7-2.6-2.6L9 31.1c-.6.6-.6 1.6 0 2.2l.3.3zm6.33-9.22 3.536-3.535 2.546 2.546-3.536 3.535zM50.4 37c-.6-.6-1.6-.6-2.2 0l-9 9c-.6.6-.6 1.6 0 2.2l.4.4c.6.6 1.6.6 2.2 0l9-9c.6-.6.6-1.6 0-2.2l-.4-.4zm-2.1 6.5-2.6 2.6 2.4 2.4c.6.6 1.6.6 2.2 0l.4-.4c.6-.6.6-1.6 0-2.2l-2.4-2.4zM41.8 6.8c-.6-.6-1.6-.6-2.2 0l-.4.4c-.6.6-.6 1.6 0 2.2l9 9c.6.6 1.6.6 2.2 0l.4-.4c.6-.6.6-1.6 0-2.2l-9-9zM11.7 37.1c-.6-.6-1.6-.6-2.2 0l-.4.4c-.6.6-.6 1.6 0 2.2l9 9c.6.6 1.6.6 2.2 0l.4-.4c.6-.6.6-1.6 0-2.2l-9-9zM9.5 21.9l-.4.4c-.6.6-.6 1.6 0 2.2l10 10 2.6-2.6-10-10c-.6-.6-1.6-.6-2.2 0zm16.2 14-2.6 2.6 10.1 10.1c.6.6 1.6.6 2.2 0l.4-.4c.6-.6.6-1.6 0-2.2L25.7 35.9zm-1.8 10c-.6.6-.6 1.6 0 2.2l.4.4c.6.6 1.6.6 2.2 0l2.6-2.6-2.6-2.6-2.6 2.6zm6.57-6.573 3.535-3.535 2.546 2.545-3.536 3.536zM34 19.6l2.6-2.6L26.5 6.9c-.6-.6-1.6-.6-2.2 0l-.4.4c-.6.6-.6 1.6 0 2.2L34 19.6zm4 4 10.1 10.1c.6.6 1.6.6 2.2 0l.4-.4c.6-.6.6-1.6 0-2.2L40.6 21 38 23.6zm.049 8.2 3.394-3.394 2.546 2.546-3.395 3.394zM50.7 22.1l-.4-.4c-.6-.6-1.6-.6-2.2 0l-2.7 2.7L48 27l2.7-2.7c.6-.6.6-1.6 0-2.2zM9.4 18.4c.6.6 1.6.6 2.2 0l9-9c.6-.6.6-1.6 0-2.2l-.4-.4c-.6-.6-1.6-.6-2.2 0l-9 9c-.6.6-.6 1.6 0 2.2l.4.4zm2.2-6.5 2.6-2.6-2.5-2.5c-.6-.6-1.6-.6-2.2 0l-.4.4c-.6.6-.6 1.6 0 2.2l2.5 2.5zm3.9 3.946 2.546-2.545 26.233 26.233-2.546 2.546zM50.7 9.5c.6-.6.6-1.6 0-2.2l-.4-.4c-.6-.6-1.6-.6-2.2 0l-2.4 2.4 2.6 2.6 2.4-2.4zM9.1 46c-.6.6-.6 1.6 0 2.2l.4.4c.6.6 1.6.6 2.2 0l2.5-2.5-2.6-2.6L9.1 46zm21.515-21.576 11.102-11.101 2.546 2.545L33.16 26.97zM15.507 39.52 26.61 28.417l2.546 2.545-11.102 11.102z"/></svg>