<svg xmlns="http://www.w3.org/2000/svg" viewBox="0 0 66.6 66.6"><path d="M54.4.4H12.2C5.7.4.4 5.7.4 12.2v42.1c0 6.5 5.3 11.8 11.8 11.8h42.1c6.5 0 11.8-5.3 11.8-11.8V12.2C66.2 5.7 60.9.4 54.4.4zM56 19.7c-1.2 1.8-2.7 3.4-4.5 4.7v1.2c0 11.9-9.1 25.6-25.6 25.6-5.1 0-9.8-1.5-13.8-4 .7.1 1.4.1 2.1.1 4.2 0 8.1-1.5 11.2-3.9-3.9-.1-7.2-2.7-8.4-6.3.6.1 1.1.2 1.7.2.8 0 1.4-.1 2.2-.3-4.1-.8-7.4-4.5-7.4-8.8V28c1.4.6 2.8 1.1 4.3 1.1-2.4-1.6-3.9-4.4-3.9-7.5 0-1.6.5-3.2 1.2-4.5 4.5 5.5 11.1 9 18.6 9.4-.2-.6-.2-1.4-.2-2.1 0-5 4-9 9-9 2.6 0 4.9 1.1 6.6 2.8 2.1-.4 4-1.2 5.7-2.2-.7 2.1-2.1 3.9-4 5 1.8-.1 3.5-.6 5.2-1.3z"/></svg>