<svg xmlns="http://www.w3.org/2000/svg" viewBox="0 0 90.7 103.5"><path d="M88.6 48.6c0-8.1-6.5-12.2-6.5-12.2 3.8-9.7-2.3-19.1-10.3-21.7C68.8 4.7 59.9.8 53 .8 31.6.8 24.1 32.6 17 58.2c-2.5-2.5-10.4-9.9-10.4-9.9-1.6-1.5-3.4-1-4.5 0-1.1 1.1-1.3 3 0 4.2.2.1 10.7 10.2 14.3 13.6 1 .9 2.5 1.5 3.9.7 1.5-.9 1.7-2.5 1.8-2.5C34.5 10.8 45.7 6.8 52.9 6.8 59 6.8 66 11.1 66 19.7c9.1 0 14.8 11.4 7.5 18.5 6.1 2.8 8.8 6.3 8.8 10.6 0 4.4-3.8 8.8-9.4 8.8-5.5 0-8.3-3.4-12.7-3.4-1.9 0-3.1 1.5-3.1 3V68H49V57.3c0-1.7-1.3-3-2.9-3h-.7l-10.9 1.3c-1.3.2-2.5 1.5-2.5 3 0 1.7 1.4 3 3.3 3h.5l6.9-.9v10.7c0 1.4 1.6 2.7 3 2.7h14.5c1.7 0 3.1-1.4 3.1-3v-9.7c3 1.8 7.2 2.5 9.4 2.5 8.1-.2 15.9-6.3 15.9-15.3zM56.1 90.2l-2.1-1c-3.1-1.4-5-2.3-5-3.8s2-2.5 4.8-2.5c3.7 0 4.7 2 5.1 3.7l.1.3h.3c.8 0 1.3-.1 1.6-.4.2-.2.2-.4.2-.7l-.3-2.9c-.1-.9-.8-1.1-1.9-1.3-1.2-.2-2.7-.5-4.9-.5-6.4 0-10.2 1.8-10.2 4.8 0 2.5 2.9 4 7.8 6.2 3.8 1.7 6 3.5 6 5 0 2.4-2.7 3.2-5.1 3.2-3.8 0-6.1-1.5-7.4-4.8l-.1-.3h-.3c-.7 0-1.2 0-1.5.4-.3.3-.2.8-.1 1.2l.8 3.4c.2.8.5 1 1.9 1.2.6.1 3.7.6 6.3.6 7.3 0 10.6-2.9 10.6-5.7.1-1.9-2-3.9-6.6-6.1zm30.2 8.6-.4.1c-.7.3-2.7 1.2-6.4 1.2-4.6 0-9.5-2.8-9.5-9.1 0-6 5.3-8.1 9.9-8.1 3.3 0 5 1.1 5.3 3.4v.4h.4c.4 0 1.4 0 1.4-.7v-3.5c0-.9-1-1-1.5-1h-.4c-1-.1-2-.3-4.7-.3-9 0-15.5 4.5-15.5 10.7 0 5.1 4.6 10.2 13.4 10.2 4.5 0 7-1 8.8-1.9l.5-.3-.8-.8c0-.3-.2-.3-.5-.3zM38.7 81.9c-.2-.5-.8-.5-1.9-.5h-5.1l-7.9.1-5.3-.1h-.8c-.5 0-.8.3-.8.8 0 .2 0 .9.9.9 3.2 0 3.3.3 3.4 1.4v10.6c0 1.1 0 2.9-.1 4.3 0 .4 0 .8-2.9.8-.8 0-1.3.2-1.3.9 0 .2 0 .8.8.8h12.1c.6 0 1.2-.1 1.2-.8 0-.8-.7-.9-1.9-.9-2.8 0-2.9-.4-2.9-.8-.1-1.3-.1-3.1-.1-4.3v-2.4h2.4c3.6 0 4.1.1 4.6 2.8.1.6.6.7 1 .7.9 0 1-.4 1-.7l-.1-1c-.1-.6-.1-1.3-.1-2.3v-4.1c0-.6-.8-.6-1.2-.6-.7 0-.8.4-1.3 2.4-.2.7-1.7 1.2-4.1 1.2h-2.1V85c0-1.7.3-1.7.7-1.7 1.4-.1 4.8-.2 5.8-.2s1.8.2 2.4.6c1.8 1.1 2.7 1.8 3.3 2.2.5.4.9.7 1.3.7.3 0 1 0 1-.6 0-.2-.1-.3-.3-.8-.6-.7-1.1-1.8-1.7-3.3zm41.2-69.6c1.2 0 2.3-.4 3.2-1.3.9-.9 1.3-1.9 1.3-3.2 0-1.2-.4-2.3-1.3-3.2s-2-1.3-3.2-1.3-2.3.5-3.2 1.3c-.9.9-1.3 1.9-1.3 3.2 0 1.2.4 2.3 1.3 3.2s2 1.3 3.2 1.3zm0-1.1c-.8 0-1.5-.3-2.1-.8H79v-2h.2c.2 0 .4.1.5.2.1.1.3.4 1.1 1.7l.1.1h1.2c-.7.5-1.4.8-2.2.8zm-1-3.7V6.3h.7c.4 0 .7 0 .8.2.1.1.2.2.2.4s-.1.3-.2.4-.4.2-.7.2h-.8zm-1.4-2.1c.7-.6 1.5-1 2.4-1s1.7.3 2.4 1c.7.6 1 1.4 1 2.4 0 .9-.3 1.7-1 2.4l-.1.1-.7-1.1c-.3-.4-.5-.7-.7-.9.3-.2.5-.3.6-.5.3-.3.4-.6.4-1 0-.3-.1-.6-.3-.8-.2-.3-.4-.4-.8-.5-.3-.1-.7-.1-1.2-.1h-1.8v5c-.1-.1-.2-.1-.3-.2-.7-.7-1-1.4-1-2.4.2-.9.5-1.7 1.1-2.4z"/></svg>