<svg xmlns="http://www.w3.org/2000/svg" viewBox="0 0 59.8 55.4"><path d="M51.4.6h-43C4.1.6.7 4.1.7 8.4v38.7c0 4.3 3.5 7.8 7.7 7.8h43c4.3 0 7.8-3.5 7.8-7.8V8.3C59.1 4.1 55.6.6 51.4.6zm6.1 46.5c0 3.4-2.8 6.1-6.2 6.1h-43c-3.4 0-6.2-2.8-6.2-6.1V8.3C2.2 5 5 2.2 8.4 2.2h43c3.4 0 6.2 2.8 6.2 6.1v38.8z"/><path d="M14.8 11.4h-2.5l-4.8 1.4c-.1 0-.2.1-.1.3l.7 2.8c0 .1.1.2.3.2l2.6-.6c.1 0 .3.1.3.2V29c0 .1.1.2.2.2h3.4c.1 0 .2-.1.2-.2V11.7c-.1-.2-.2-.3-.3-.3zm4.4 15.5c.7.8 1.5 1.5 2.5 1.9s2 .7 3.2.7 2.2-.2 3.2-.7c1-.5 1.8-1.1 2.5-1.9.7-.8 1.2-1.8 1.6-2.9.4-1.1.6-2.3.6-3.6v-.1c0-1.3-.2-2.5-.6-3.6-.4-1.1-.9-2.1-1.6-2.9-.7-.8-1.5-1.5-2.5-1.9-1-.5-2-.7-3.2-.7-1.2 0-2.2.2-3.2.7-1 .5-1.8 1.1-2.5 1.9-.7.8-1.2 1.8-1.6 2.9-.4 1.1-.6 2.3-.6 3.6v.1c0 1.3.2 2.5.6 3.6.4 1.1.9 2.1 1.6 2.9zm1.8-6.6c0-.8.1-1.5.3-2.2s.4-1.3.8-1.8c.3-.5.7-.9 1.2-1.2s1-.4 1.6-.4c.6 0 1.1.1 1.6.4.5.3.9.7 1.2 1.2s.6 1.1.8 1.8.3 1.4.3 2.2v.1c0 .8-.1 1.5-.3 2.2-.2.7-.4 1.3-.8 1.8-.3.5-.7.9-1.2 1.2-.5.3-1 .4-1.6.4-.6 0-1.1-.1-1.6-.4s-.9-.7-1.2-1.2c-.3-.5-.6-1.1-.8-1.8-.2-.7-.3-1.4-.3-2.3zm17.1 8.3v-2.8c0-.3-.3-.6-.6-.6h-2.8c-.3 0-.6.3-.6.6v2.8c0 .3.3.6.6.6h2.8c.3 0 .6-.3.6-.6zm12.5-9.5c-.6-.5-1.2-.8-2-1s-1.6-.3-2.4-.3c-.5 0-.9 0-1.3.1s-.7.1-1 .1l.2-2.9c0-.1.1-.2.2-.2h7.1c.1 0 .2-.1.2-.2v-3c0-.1-.1-.2-.2-.2H41c-.1 0-.2.1-.2.2l-.5 8.4c0 .1 0 .1.1.2l2 1.4h.2c.4-.2.8-.3 1.3-.4.5-.1 1-.2 1.6-.2.9 0 1.7.2 2.3.6.6.4.9 1 .9 1.8v.1c0 .8-.3 1.4-.8 1.8-.5.4-1.2.6-2.2.6-.8 0-1.5-.2-2.2-.5-.6-.3-1.2-.7-1.9-1.3-.1-.1-.2-.1-.3 0l-2.1 2.5c-.1.1-.1.2 0 .3.8.7 1.7 1.3 2.7 1.8 1.1.5 2.3.7 3.7.7 1 0 1.9-.1 2.8-.4.8-.3 1.5-.7 2.1-1.2.6-.5 1-1.2 1.4-1.9.3-.7.5-1.6.5-2.5v-.1c0-1-.2-1.8-.5-2.5-.3-.8-.7-1.4-1.3-1.8zM25.3 32.9h-8.5c-.1 0-.2.1-.2.2v1.8c0 .1.1.2.2.2h2.8c.1 0 .2.1.2.2v8.1c0 .1.1.2.2.2h2c.1 0 .2-.1.2-.2v-8.1c0-.1.1-.2.2-.2h2.8c.1 0 .2-.1.2-.2v-1.8c.1-.1 0-.2-.1-.2zm8 3.6c-.4-.4-.9-.7-1.4-.9-.5-.2-1.1-.3-1.8-.3-.6 0-1.2.1-1.8.3-.5.2-1 .5-1.4.9-.4.4-.7.8-.9 1.4-.2.5-.3 1.1-.3 1.7 0 .6.1 1.1.3 1.7.2.5.5 1 .9 1.3.4.4.9.7 1.4.9s1.1.3 1.8.3c.6 0 1.2-.1 1.8-.3.5-.2 1-.5 1.4-.9.4-.4.7-.8.9-1.4s.3-1.1.3-1.7c0-.6-.1-1.1-.3-1.7s-.5-.9-.9-1.3zm-1.1 3.1c0 .3 0 .6-.1.9-.1.3-.2.5-.4.7s-.4.4-.7.5c-.3.1-.6.2-.9.2-.3 0-.6-.1-.9-.2-.3-.1-.5-.3-.7-.5-.2-.2-.3-.4-.4-.7-.1-.3-.2-.6-.2-.9 0-.3 0-.6.1-.9s.2-.5.4-.7.4-.4.7-.5.6-.2.9-.2c.3 0 .6.1.9.2s.5.3.7.5c.2.2.3.4.4.7.2.3.2.6.2.9zm11.1-4.1h-2.1v1.1c-.3-.3-.7-.6-1.1-.9-.4-.2-.9-.4-1.6-.4-.5 0-.9.1-1.4.3s-.8.4-1.1.7c-.3.3-.6.7-.8 1.2s-.3 1-.3 1.6c0 .6.1 1.2.3 1.6.2.5.5.9.8 1.2.3.3.7.6 1.2.7.4.2.9.3 1.4.3.6 0 1.1-.1 1.5-.4s.8-.6 1.1-1v.4c0 .7-.2 1.3-.6 1.7s-1 .6-1.8.6c-.6 0-1-.1-1.5-.2-.4-.1-.7-.3-1.1-.4-.1-.1-.2 0-.3.1l-.6 1.4c0 .1 0 .2.1.3.5.2 1 .4 1.5.5.6.1 1.3.2 1.9.2.8 0 1.5-.1 2.1-.3s1.1-.5 1.5-.8c.7-.7 1-1.8 1-3.2v-6.1c.1-.1 0-.2-.1-.2zm-2.1 3.7c0 .3-.1.5-.2.8-.1.2-.2.4-.4.6-.2.2-.4.3-.6.4-.2.1-.5.1-.8.1-.6 0-1-.2-1.4-.5-.4-.3-.6-.8-.6-1.4 0-.3.1-.5.2-.8.1-.2.2-.4.4-.6.2-.2.4-.3.6-.4.2-.1.5-.1.8-.1.3 0 .6 0 .8.1.2.1.5.2.6.4s.3.4.4.6c.1.2.2.5.2.8z"/></svg>