<svg id="Layer_1" data-name="Layer 1" xmlns="http://www.w3.org/2000/svg" viewBox="0 0 149.02 184.29"><defs/><path class="cls-1" d="M39.58 37a26.23 26.23 0 0 1-4.35 9 20 20 0 0 1-7.11 5.8 22 22 0 0 1-9.82 2.08 25 25 0 0 1-9.74-1.69 30.13 30.13 0 0 1-7.37-4.44l6-8.67a21.65 21.65 0 0 0 5.43 3.38 15.4 15.4 0 0 0 6 1.08A8.81 8.81 0 0 0 26 40.23a16.74 16.74 0 0 0 3.16-8.61 15 15 0 0 1-4.53 2.6 17.18 17.18 0 0 1-6 1A23.84 23.84 0 0 1 10.94 34a17 17 0 0 1-5.88-3.31 14.17 14.17 0 0 1-3.76-5.25A18.37 18.37 0 0 1 0 18.3 18.08 18.08 0 0 1 1.45 11a17.32 17.32 0 0 1 4.06-5.8 18.25 18.25 0 0 1 6.28-3.83A22.87 22.87 0 0 1 19.86 0a29.68 29.68 0 0 1 4.73.34 19.51 19.51 0 0 1 3.9 1 15.48 15.48 0 0 1 3.35 1.75 22.15 22.15 0 0 1 3.05 2.56 18.2 18.2 0 0 1 2.53 3.2A20.17 20.17 0 0 1 39.36 13a31.06 31.06 0 0 1 1.26 5.43 47.85 47.85 0 0 1 .45 6.92A42.59 42.59 0 0 1 39.58 37ZM27 12.05a9.6 9.6 0 0 0-6.8-2.23A9.18 9.18 0 0 0 13.62 12a7.57 7.57 0 0 0-2.31 5.76 7.29 7.29 0 0 0 2.43 5.73 9.67 9.67 0 0 0 6.68 2.16A9.29 9.29 0 0 0 27 23.47a7.32 7.32 0 0 0 2.36-5.61A7.52 7.52 0 0 0 27 12.05ZM85.85 37a26.23 26.23 0 0 1-4.35 9 20 20 0 0 1-7.1 5.8 22 22 0 0 1-9.82 2.08 25.08 25.08 0 0 1-9.75-1.69 30.32 30.32 0 0 1-7.37-4.44l6-8.67a22 22 0 0 0 5.43 3.38 15.44 15.44 0 0 0 6 1.08 8.82 8.82 0 0 0 7.41-3.29 16.82 16.82 0 0 0 3.16-8.61 15 15 0 0 1-4.54 2.6 17.18 17.18 0 0 1-6 1A23.88 23.88 0 0 1 57.21 34a17.06 17.06 0 0 1-5.88-3.31 14.15 14.15 0 0 1-3.75-5.29 18.37 18.37 0 0 1-1.31-7.14A18.08 18.08 0 0 1 47.73 11a17.15 17.15 0 0 1 4.05-5.8 18.29 18.29 0 0 1 6.29-3.83A22.79 22.79 0 0 1 66.14 0a29.55 29.55 0 0 1 4.72.34 19.44 19.44 0 0 1 3.91 1 15.48 15.48 0 0 1 3.35 1.75 22.76 22.76 0 0 1 3 2.56 18.67 18.67 0 0 1 2.53 3.2A20.69 20.69 0 0 1 85.63 13a30.15 30.15 0 0 1 1.27 5.43 49.42 49.42 0 0 1 .44 6.92A42.21 42.21 0 0 1 85.85 37ZM73.23 12a9.59 9.59 0 0 0-6.76-2.23A9.14 9.14 0 0 0 59.9 12a7.54 7.54 0 0 0-2.32 5.76A7.29 7.29 0 0 0 60 23.51a9.72 9.72 0 0 0 6.69 2.16 9.29 9.29 0 0 0 6.61-2.2 7.32 7.32 0 0 0 2.35-5.61 7.52 7.52 0 0 0-2.42-5.81ZM116.1 18.79a13.41 13.41 0 0 1-2.61 4.21 11.88 11.88 0 0 1-4 2.86 12.47 12.47 0 0 1-5.17 1 12.22 12.22 0 0 1-11.68-8.07 14.9 14.9 0 0 1-.89-5.17 14.58 14.58 0 0 1 .93-5.21 13.24 13.24 0 0 1 2.6-4.28 12.08 12.08 0 0 1 4-2.86 12.67 12.67 0 0 1 5.17-1 12.19 12.19 0 0 1 9.12 3.87 12.29 12.29 0 0 1 2.56 4.2 14.71 14.71 0 0 1 .9 5.17 14.53 14.53 0 0 1-.93 5.28ZM105.79 53h-8.85L135 .89h8.85Zm2.08-44a4.13 4.13 0 0 0-3.57-2 3.93 3.93 0 0 0-3.57 2 8.54 8.54 0 0 0-1.19 4.54 8.08 8.08 0 0 0 1.34 4.65 4.1 4.1 0 0 0 3.57 2 3.91 3.91 0 0 0 3.55-1.96 8.42 8.42 0 0 0 1.19-4.54A8 8 0 0 0 107.87 9Zm40.22 36.38a13.12 13.12 0 0 1-2.61 4.24 11.8 11.8 0 0 1-4 2.86 12.55 12.55 0 0 1-5.18 1 12.2 12.2 0 0 1-11.68-8.08 14.9 14.9 0 0 1-.89-5.17 14.53 14.53 0 0 1 .93-5.2 13 13 0 0 1 2.61-4.28 12 12 0 0 1 4-2.87 12.7 12.7 0 0 1 5.17-1 12.42 12.42 0 0 1 5.14 1 12.6 12.6 0 0 1 4 2.83 12.29 12.29 0 0 1 2.56 4.2 14.75 14.75 0 0 1 .9 5.17 14.49 14.49 0 0 1-.95 5.34Zm-8.22-9.75a4.15 4.15 0 0 0-3.58-2 3.94 3.94 0 0 0-3.57 1.94 8.5 8.5 0 0 0-1.19 4.53 8.08 8.08 0 0 0 1.34 4.65 4.14 4.14 0 0 0 3.57 2 3.91 3.91 0 0 0 3.56-1.89 8.42 8.42 0 0 0 1.19-4.54 8.12 8.12 0 0 0-1.32-4.65ZM.33 111V66h9.89v36h22.42v9ZM37.52 111V66h33.85v8.8H47.28v9.12h21.2v8.8h-21.2v9.44h24.41V111ZM109.27 103.62a12.34 12.34 0 0 1-3.38 4.37 15.44 15.44 0 0 1-5.18 2.69 22.54 22.54 0 0 1-6.67.94A29.65 29.65 0 0 1 84 109.85a26.78 26.78 0 0 1-9-5.43l5.85-7a29 29 0 0 0 6.32 4 16.88 16.88 0 0 0 7.1 1.48 8.66 8.66 0 0 0 4.73-1.14 3.55 3.55 0 0 0 1.7-3.12v-.13a3.83 3.83 0 0 0-.36-1.7A3.52 3.52 0 0 0 99 95.43a13.52 13.52 0 0 0-2.77-1.28 46.89 46.89 0 0 0-4.6-1.35 55.11 55.11 0 0 1-6.18-1.87 17.27 17.27 0 0 1-4.7-2.53 10.3 10.3 0 0 1-3-3.76 13 13 0 0 1-1.06-5.59v-.13a13 13 0 0 1 1.15-5.55 12.59 12.59 0 0 1 3.22-4.27 14.37 14.37 0 0 1 5-2.76 19.72 19.72 0 0 1 6.35-1 27 27 0 0 1 9.09 1.48 26.25 26.25 0 0 1 7.61 4.24l-5.14 7.45A32.94 32.94 0 0 0 98 75.29a15.13 15.13 0 0 0-5.78-1.18 7 7 0 0 0-4.33 1.12A3.4 3.4 0 0 0 86.46 78v.13a4.06 4.06 0 0 0 .42 1.9 3.76 3.76 0 0 0 1.51 1.44 13.87 13.87 0 0 0 3 1.22q1.89.58 4.79 1.35a45.67 45.67 0 0 1 6.09 2 16.84 16.84 0 0 1 4.51 2.69 10.39 10.39 0 0 1 2.77 3.7 12.54 12.54 0 0 1 .93 5.07v.13a13.92 13.92 0 0 1-1.21 5.99ZM147.8 103.62a12.12 12.12 0 0 1-3.38 4.37 15.25 15.25 0 0 1-5.18 2.69 22.44 22.44 0 0 1-6.67.94 29.73 29.73 0 0 1-10.08-1.77 26.73 26.73 0 0 1-9-5.43l5.84-7a29.34 29.34 0 0 0 6.33 4 16.84 16.84 0 0 0 7.1 1.48 8.62 8.62 0 0 0 4.78-1.12 3.53 3.53 0 0 0 1.7-3.12v-.13a3.83 3.83 0 0 0-.35-1.7 3.66 3.66 0 0 0-1.35-1.38 13.78 13.78 0 0 0-2.77-1.28 47.2 47.2 0 0 0-4.61-1.35 56.42 56.42 0 0 1-6.16-1.89 17.42 17.42 0 0 1-4.7-2.53 10.18 10.18 0 0 1-3-3.76 13 13 0 0 1-1.07-5.59v-.13a13.12 13.12 0 0 1 1.15-5.55 12.72 12.72 0 0 1 3.22-4.27 14.51 14.51 0 0 1 5-2.76 19.66 19.66 0 0 1 6.34-1 27 27 0 0 1 9.06 1.51 26.25 26.25 0 0 1 7.61 4.24l-5.13 7.45a33.63 33.63 0 0 0-5.91-3.25 15.16 15.16 0 0 0-5.78-1.18 7 7 0 0 0-4.34 1.12A3.42 3.42 0 0 0 125 78v.13a4.19 4.19 0 0 0 .41 1.9 3.8 3.8 0 0 0 1.52 1.44 14 14 0 0 0 3 1.22q1.91.58 4.8 1.35a46.16 46.16 0 0 1 6.09 2 16.62 16.62 0 0 1 4.5 2.69 10.16 10.16 0 0 1 2.77 3.7 12.54 12.54 0 0 1 .94 5.07v.13a13.92 13.92 0 0 1-1.23 5.99ZM32.89 149.58h-5.36l-6.31-18.3-6.31 18.3H9.55L0 121.41h6.59l5.8 18.94 6.27-19h5.28l6.27 19L36 121.41h6.43ZM66.22 149.38l-2.56-6.27H51.83l-2.56 6.27H43l12-28.17h5.67l12 28.17Zm-8.48-20.78L54 137.67h7.43ZM88 127.08v22.3h-6.12v-22.3h-8.51v-5.67h23.18v5.67ZM99.66 149.38v-28h21.06v5.47h-15v5.68h13.19V138h-13.17v5.88h15.18v5.47ZM141.82 149.38l-6-8.95H131v8.95h-6.15v-28h12.79q5 0 7.77 2.44a8.56 8.56 0 0 1 2.78 6.79v.08a8.79 8.79 0 0 1-1.66 5.53 9.55 9.55 0 0 1-4.34 3.14l6.84 10Zm.12-18.42a3.56 3.56 0 0 0-1.28-3 5.66 5.66 0 0 0-3.55-1H131v8h6.24a5.08 5.08 0 0 0 3.49-1.08 3.63 3.63 0 0 0 1.22-2.88ZM18.33 184.29 5.8 167.84v16.45H.18v-25.87h5.25l12.13 15.93v-15.93h5.61v25.87ZM27.9 184.29v-25.87h19.48v5.06H33.52v5.25h12.2v5.06h-12.2v5.44h14v5.06ZM51.19 184.29v-25.87h19.47v5.06H56.81v5.25H69v5.06H56.81v5.44h14v5.06ZM97.31 176.45a12 12 0 0 1-2.83 4.11 13.39 13.39 0 0 1-4.36 2.73 14.91 14.91 0 0 1-5.56 1H74.47v-25.87h10.09a15.11 15.11 0 0 1 5.56 1 13.18 13.18 0 0 1 4.36 2.71 12 12 0 0 1 2.83 4.09 12.76 12.76 0 0 1 1 5.08v.07a12.85 12.85 0 0 1-1 5.08Zm-5-5.1a8.47 8.47 0 0 0-.57-3.14 7.61 7.61 0 0 0-1.59-2.47 7.06 7.06 0 0 0-2.46-1.61 8.57 8.57 0 0 0-3.18-.57h-4.4v15.59h4.4a8.77 8.77 0 0 0 3.18-.55 6.87 6.87 0 0 0 2.51-1.6 7.69 7.69 0 0 0 1.59-2.44 8.28 8.28 0 0 0 .57-3.14ZM101.89 184.29v-25.87h19.48v5.06h-13.86v5.25h12.2v5.06h-12.2v5.44h14v5.06ZM148 176.45a12.14 12.14 0 0 1-2.83 4.11 13.39 13.39 0 0 1-4.36 2.73 14.94 14.94 0 0 1-5.56 1h-10.07v-25.87h10.09a15.14 15.14 0 0 1 5.56 1 13.18 13.18 0 0 1 4.36 2.71 12.16 12.16 0 0 1 2.81 4.07 12.93 12.93 0 0 1 1 5.08v.07a13 13 0 0 1-1 5.1Zm-5-5.1a8.47 8.47 0 0 0-.58-3.14 7.29 7.29 0 0 0-1.59-2.47 6.92 6.92 0 0 0-2.45-1.61 8.57 8.57 0 0 0-3.18-.57h-4.4v15.59h4.4a8.77 8.77 0 0 0 3.18-.55 6.75 6.75 0 0 0 2.52-1.6 7.36 7.36 0 0 0 1.59-2.44 8.28 8.28 0 0 0 .58-3.14Z"/></svg>