<svg id="Layer_1" data-name="Layer 1" xmlns="http://www.w3.org/2000/svg" viewBox="0 0 154.08 184"><defs/><path class="cls-1" d="M39.58 38a27.24 27.24 0 0 1-4.35 9.2 20.14 20.14 0 0 1-7.11 6 21.58 21.58 0 0 1-9.82 2.13 24.41 24.41 0 0 1-9.74-1.74A30.17 30.17 0 0 1 1.19 49l6-8.9a21.62 21.62 0 0 0 5.43 3.47 15 15 0 0 0 6 1.11A8.74 8.74 0 0 0 26 41.25a17.38 17.38 0 0 0 3.16-8.83 15 15 0 0 1-4.53 2.67 16.94 16.94 0 0 1-6 1 23.28 23.28 0 0 1-7.66-1.18 17 17 0 0 1-5.88-3.39 14.56 14.56 0 0 1-3.79-5.43A19.31 19.31 0 0 1 0 18.77a19 19 0 0 1 1.45-7.48 17.83 17.83 0 0 1 4.06-5.95 18.31 18.31 0 0 1 6.28-3.93A22.43 22.43 0 0 1 19.86 0a29.68 29.68 0 0 1 4.73.34 20.2 20.2 0 0 1 3.9 1 15.24 15.24 0 0 1 3.35 1.8 21.46 21.46 0 0 1 3.05 2.66 18.09 18.09 0 0 1 2.53 3.28 20.87 20.87 0 0 1 1.94 4.27 32.37 32.37 0 0 1 1.26 5.57 50.24 50.24 0 0 1 .45 7.08 44.75 44.75 0 0 1-1.49 12ZM27 12.36a9.45 9.45 0 0 0-6.76-2.29 9.07 9.07 0 0 0-6.58 2.25 7.88 7.88 0 0 0-2.31 5.91 7.58 7.58 0 0 0 2.43 5.88 9.55 9.55 0 0 0 6.68 2.21A9.18 9.18 0 0 0 27 24.07a7.62 7.62 0 0 0 2.36-5.76A7.79 7.79 0 0 0 27 12.36ZM90.73 38.45A27.28 27.28 0 0 1 86 47.22a22.12 22.12 0 0 1-7.33 5.88 21 21 0 0 1-9.48 2.13 21 21 0 0 1-16.78-7.93 27.18 27.18 0 0 1-4.65-8.74 34.74 34.74 0 0 1-1.63-10.87 34.38 34.38 0 0 1 1.67-10.87A27.45 27.45 0 0 1 52.52 8a22.16 22.16 0 0 1 7.33-5.87A20.88 20.88 0 0 1 69.34 0a21 21 0 0 1 16.77 7.93 27.28 27.28 0 0 1 4.65 8.78 34.85 34.85 0 0 1 1.64 10.83 34.55 34.55 0 0 1-1.67 10.91ZM79.83 20.9a18.55 18.55 0 0 0-2.31-5.41 11.34 11.34 0 0 0-3.61-3.59 9.29 9.29 0 0 0-9.41 0 11.26 11.26 0 0 0-3.57 3.51 17.35 17.35 0 0 0-2.27 5.38 28.05 28.05 0 0 0-.78 6.79 26.55 26.55 0 0 0 .82 6.79 18.09 18.09 0 0 0 2.3 5.38 11.38 11.38 0 0 0 3.6 3.58 9.29 9.29 0 0 0 9.41 0 11.22 11.22 0 0 0 3.58-3.55 17.76 17.76 0 0 0 2.26-5.38 27.06 27.06 0 0 0 .79-6.75 27.06 27.06 0 0 0-.81-6.75ZM121.16 19.26a13.6 13.6 0 0 1-2.61 4.35 11.82 11.82 0 0 1-4 2.94 12.33 12.33 0 0 1-5.17 1.07 12.11 12.11 0 0 1-5.13-1.07 12.38 12.38 0 0 1-4-2.9 12.71 12.71 0 0 1-2.57-4.31 15.64 15.64 0 0 1-.89-5.3 15.3 15.3 0 0 1 .93-5.34 13.66 13.66 0 0 1 2.6-4.39 12.15 12.15 0 0 1 4-2.94 12.35 12.35 0 0 1 5.19-1.06 12.12 12.12 0 0 1 5.14 1.06 12.35 12.35 0 0 1 6.54 7.21 15.44 15.44 0 0 1 .9 5.3 15.39 15.39 0 0 1-.93 5.38Zm-10.31 35.06H102l38-53.4h8.85Zm2.08-45a4.09 4.09 0 0 0-3.57-2 3.9 3.9 0 0 0-3.57 2 8.91 8.91 0 0 0-1.19 4.65 8.42 8.42 0 0 0 1.34 4.77 4.09 4.09 0 0 0 3.57 2 3.89 3.89 0 0 0 3.57-2 8.79 8.79 0 0 0 1.19-4.74 8.39 8.39 0 0 0-1.34-4.73Zm40.22 37.3a13.42 13.42 0 0 1-2.61 4.35 11.82 11.82 0 0 1-4 2.94 12.33 12.33 0 0 1-5.17 1.07 12.11 12.11 0 0 1-5.13-1.07 12.38 12.38 0 0 1-4-2.9 12.71 12.71 0 0 1-2.57-4.31 15.64 15.64 0 0 1-.89-5.3 15.3 15.3 0 0 1 .93-5.34 13.66 13.66 0 0 1 2.6-4.39 12 12 0 0 1 9.19-4 12.12 12.12 0 0 1 5.14 1.06 12.35 12.35 0 0 1 6.54 7.21 15.46 15.46 0 0 1 .9 5.31 15.15 15.15 0 0 1-.93 5.32Zm-8.22-10a4.12 4.12 0 0 0-3.58-2 3.91 3.91 0 0 0-3.57 2 9 9 0 0 0-1.19 4.66 8.41 8.41 0 0 0 1.34 4.72 4.11 4.11 0 0 0 3.57 2 3.9 3.9 0 0 0 3.57-2 8.79 8.79 0 0 0 1.19-4.65 8.46 8.46 0 0 0-1.33-4.77ZM14.33 90l-4.71-7.25h-3.8V90H1V67.42h10a8.8 8.8 0 0 1 6.11 2 7 7 0 0 1 2.19 5.48v.06a7.21 7.21 0 0 1-1.3 4.43 7.56 7.56 0 0 1-3.4 2.52L20 90Zm.1-14.85a2.92 2.92 0 0 0-1-2.42 4.39 4.39 0 0 0-2.79-.8H5.82v6.47h4.9a4 4 0 0 0 2.75-.87 3 3 0 0 0 1-2.32ZM22.44 90V67.42H39v4.41H27.21v4.58h10.37v4.41H27.21v4.73h11.94V90ZM61.64 83.14a10.7 10.7 0 0 1-2.4 3.57 11.44 11.44 0 0 1-3.71 2.39 12.52 12.52 0 0 1-4.73.9h-8.57V67.42h8.57a12.71 12.71 0 0 1 4.73.85 11.23 11.23 0 0 1 3.71 2.37 10.76 10.76 0 0 1 2.4 3.56 11.54 11.54 0 0 1 .85 4.43v.06a11.71 11.71 0 0 1-.85 4.45Zm-4.21-4.45a7.45 7.45 0 0 0-.49-2.69 6.34 6.34 0 0 0-1.35-2.15 5.87 5.87 0 0 0-2.09-1.4 6.91 6.91 0 0 0-2.7-.5h-3.74v13.54h3.74a7.29 7.29 0 0 0 2.7-.49 5.85 5.85 0 0 0 2.09-1.39 6.4 6.4 0 0 0 1.35-2.12 7.27 7.27 0 0 0 .49-2.74ZM83.67 84.62a8.42 8.42 0 0 1-1.93 3.17 7.85 7.85 0 0 1-3 1.9 11.91 11.91 0 0 1-4 .63 9.52 9.52 0 0 1-7-2.51q-2.53-2.52-2.54-7.51V67.42H70v12.75a6.09 6.09 0 0 0 1.26 4.18 5.09 5.09 0 0 0 7 0 5.75 5.75 0 0 0 1.26-4V67.42h4.84v12.72a13.4 13.4 0 0 1-.69 4.48ZM105.58 88a10.22 10.22 0 0 1-4.36 2.08 14.2 14.2 0 0 1-2.89.27 11 11 0 0 1-10.43-7 12.06 12.06 0 0 1-.85-4.54v-.07a11.88 11.88 0 0 1 .85-4.52 11.71 11.71 0 0 1 2.35-3.71A10.93 10.93 0 0 1 93.87 68a11.52 11.52 0 0 1 4.65-1 14.36 14.36 0 0 1 2.81.26 11.79 11.79 0 0 1 2.31.71 10.51 10.51 0 0 1 1.91 1.09 13.06 13.06 0 0 1 1.63 1.42l-3.07 3.64a11.82 11.82 0 0 0-2.63-1.87 6.55 6.55 0 0 0-3-.67 5.93 5.93 0 0 0-4.58 2.06 6.88 6.88 0 0 0-1.32 2.24 7.62 7.62 0 0 0-.47 2.72v.06a7.77 7.77 0 0 0 .47 2.74 7.3 7.3 0 0 0 1.3 2.26 6.32 6.32 0 0 0 2 1.53 6 6 0 0 0 2.59.56 6.63 6.63 0 0 0 3.19-.71 12.51 12.51 0 0 0 2.59-1.93l3.08 3.19a15.26 15.26 0 0 1-1.75 1.7ZM110 90V67.42h16.5v4.41h-11.78v4.58h10.37v4.41h-10.37v4.73h11.94V90ZM149.15 83.14a10.55 10.55 0 0 1-2.4 3.57A11.33 11.33 0 0 1 143 89.1a12.48 12.48 0 0 1-4.73.87h-8.57V67.42h8.57a12.68 12.68 0 0 1 4.73.85 11.13 11.13 0 0 1 3.71 2.37 10.61 10.61 0 0 1 2.4 3.56 11.35 11.35 0 0 1 .85 4.43v.06a11.53 11.53 0 0 1-.81 4.45Zm-4.21-4.45a7.45 7.45 0 0 0-.49-2.74 6.34 6.34 0 0 0-1.35-2.15 5.87 5.87 0 0 0-2.1-1.4 6.91 6.91 0 0 0-2.7-.5h-3.73v13.59h3.73A7.29 7.29 0 0 0 141 85a5.85 5.85 0 0 0 2.09-1.39 6.4 6.4 0 0 0 1.35-2.12 7.27 7.27 0 0 0 .49-2.74ZM44.21 148.66a24.48 24.48 0 0 1-4.69 3 24.11 24.11 0 0 1-5.58 1.89 32.75 32.75 0 0 1-6.8.64A25.92 25.92 0 0 1 2.62 137.6a28.53 28.53 0 0 1-2-10.68v-.15a28.25 28.25 0 0 1 2-10.64 27.31 27.31 0 0 1 5.54-8.71 25.61 25.61 0 0 1 8.49-5.91 27.08 27.08 0 0 1 10.94-2.16 33.75 33.75 0 0 1 6.61.6 27.45 27.45 0 0 1 5.43 1.67 23.39 23.39 0 0 1 4.5 2.58 31.4 31.4 0 0 1 3.87 3.33l-7.24 8.56a27.37 27.37 0 0 0-6.17-4.39 15.43 15.43 0 0 0-7.06-1.59 14.08 14.08 0 0 0-6 1.28 14.31 14.31 0 0 0-4.8 3.61 16.73 16.73 0 0 0-3.11 5.27 18.47 18.47 0 0 0-1.1 6.4v.15a18.82 18.82 0 0 0 1.1 6.44 16.83 16.83 0 0 0 3.07 5.3 14.14 14.14 0 0 0 4.73 3.6 13.83 13.83 0 0 0 6.09 1.33 15.51 15.51 0 0 0 7.5-1.67 29.19 29.19 0 0 0 6.1-4.54l7.24 7.49a37.14 37.14 0 0 1-4.14 3.89ZM105.08 137.41a27.49 27.49 0 0 1-5.72 8.72 26.51 26.51 0 0 1-8.72 5.9 29.22 29.22 0 0 1-22 0 27.05 27.05 0 0 1-8.68-5.83 26.11 26.11 0 0 1-5.69-8.63 27.74 27.74 0 0 1-2-10.65v-.15A27.5 27.5 0 0 1 60 107.42a26.59 26.59 0 0 1 8.72-5.91 29.22 29.22 0 0 1 22 0 27.33 27.33 0 0 1 8.68 5.83 26.2 26.2 0 0 1 5.69 8.64 27.84 27.84 0 0 1 2 10.64v.15a27.31 27.31 0 0 1-2.01 10.64Zm-9.82-10.64a18.15 18.15 0 0 0-1.15-6.44 16 16 0 0 0-3.25-5.3 15.52 15.52 0 0 0-5-3.6 14.87 14.87 0 0 0-6.27-1.32 15.09 15.09 0 0 0-6.32 1.28A14.58 14.58 0 0 0 68.4 115a16.88 16.88 0 0 0-3.17 5.27 17.6 17.6 0 0 0-1.15 6.4v.15a17.94 17.94 0 0 0 1.15 6.44 15.85 15.85 0 0 0 3.25 5.3 15.54 15.54 0 0 0 5 3.6 14.65 14.65 0 0 0 6.31 1.33 15.17 15.17 0 0 0 6.21-1.34 14.54 14.54 0 0 0 4.92-3.56 16.88 16.88 0 0 0 3.17-5.27 17.78 17.78 0 0 0 1.15-6.4ZM125.58 111.77a30.67 30.67 0 0 0-5.21 5.38l-8-6.59a46.31 46.31 0 0 1 3.87-4.73 21.75 21.75 0 0 1 4.22-3.47 17.92 17.92 0 0 1 5-2.13 24 24 0 0 1 6.21-.73 22 22 0 0 1 7.42 1.17 16.24 16.24 0 0 1 5.62 3.34 14.2 14.2 0 0 1 3.54 5.19 17.74 17.74 0 0 1 1.22 6.74 19.06 19.06 0 0 1-.85 5.94 18.17 18.17 0 0 1-2.51 5 28.14 28.14 0 0 1-4.25 4.66c-1.72 1.54-3.72 3.22-6 5l-8.42 6.67H150v10.07h-38.27v-9.22l17.21-14.44q2.44-2.06 4.14-3.67a24 24 0 0 0 2.77-3.1 11.18 11.18 0 0 0 1.55-2.85 9.35 9.35 0 0 0 .48-3.06 6.58 6.58 0 0 0-1.92-5.14 7.18 7.18 0 0 0-5-1.74 8.71 8.71 0 0 0-5.38 1.71ZM1 183.66v-20.13h14.76v3.94H5.24v4.08h9.25v3.94H5.24v4.23H15.9v3.94ZM34 183.66v-13.14l-5.52 8.59h-.11l-5.47-8.5v13h-4.26v-20.08h4.66l5.15 8.47 5.16-8.51h4.65v20.13ZM42.05 183.66v-20.13h4.32v20.13ZM63.8 180.36a5.42 5.42 0 0 1-1.47 2 6.62 6.62 0 0 1-2.26 1.21 9.89 9.89 0 0 1-2.91.41 12.61 12.61 0 0 1-4.4-.79 11.41 11.41 0 0 1-3.93-2.43l2.55-3.13a12.78 12.78 0 0 0 2.76 1.78 7.27 7.27 0 0 0 3.1.66 3.65 3.65 0 0 0 2.09-.5 1.57 1.57 0 0 0 .74-1.39v-.06a1.81 1.81 0 0 0-.15-.76 1.56 1.56 0 0 0-.59-.62 6.9 6.9 0 0 0-1.21-.58q-.78-.28-2-.6a26.39 26.39 0 0 1-2.7-.83 7.7 7.7 0 0 1-2-1.14 4.61 4.61 0 0 1-1.31-1.68 5.94 5.94 0 0 1-.46-2.5v-.06a6 6 0 0 1 .5-2.48 5.56 5.56 0 0 1 1.41-1.92 6.35 6.35 0 0 1 2.16-1.23 8.43 8.43 0 0 1 2.77-.43 11.52 11.52 0 0 1 4 .66 11.35 11.35 0 0 1 3.32 1.9l-2.25 3.33a13.73 13.73 0 0 0-2.57-1.45 6.42 6.42 0 0 0-2.53-.53 3 3 0 0 0-1.89.5 1.53 1.53 0 0 0-.63 1.25v.05a1.83 1.83 0 0 0 .18.84 1.65 1.65 0 0 0 .66.65A6.21 6.21 0 0 0 56 171c.55.17 1.25.37 2.09.6a19.15 19.15 0 0 1 2.66.91 7.29 7.29 0 0 1 2 1.2 4.71 4.71 0 0 1 1.21 1.66 5.76 5.76 0 0 1 .4 2.27v.06a6.21 6.21 0 0 1-.56 2.66ZM80.62 180.36a5.42 5.42 0 0 1-1.47 2 6.62 6.62 0 0 1-2.26 1.21 9.89 9.89 0 0 1-2.91.41 12.57 12.57 0 0 1-4.4-.79 11.41 11.41 0 0 1-3.93-2.43l2.55-3.13a12.78 12.78 0 0 0 2.8 1.74 7.27 7.27 0 0 0 3.1.66 3.67 3.67 0 0 0 2.09-.5 1.59 1.59 0 0 0 .74-1.39v-.06a1.81 1.81 0 0 0-.15-.76 1.63 1.63 0 0 0-.59-.62 6.9 6.9 0 0 0-1.21-.58q-.78-.28-2-.6a26.39 26.39 0 0 1-2.7-.83 7.55 7.55 0 0 1-2-1.14 4.61 4.61 0 0 1-1.31-1.68 5.94 5.94 0 0 1-.46-2.5v-.06a6 6 0 0 1 .5-2.48 5.56 5.56 0 0 1 1.41-1.92 6.35 6.35 0 0 1 2.16-1.23 8.43 8.43 0 0 1 2.77-.43 11.43 11.43 0 0 1 4 .66 11.27 11.27 0 0 1 3.33 1.9l-2.25 3.33a13.49 13.49 0 0 0-2.58-1.45 6.34 6.34 0 0 0-2.52-.53 3 3 0 0 0-1.89.5 1.53 1.53 0 0 0-.63 1.25v.09a1.83 1.83 0 0 0 .18.84 1.65 1.65 0 0 0 .66.65 6.21 6.21 0 0 0 1.31.55c.55.17 1.25.37 2.09.6a19.15 19.15 0 0 1 2.66.91 7.29 7.29 0 0 1 2 1.2 4.71 4.71 0 0 1 1.21 1.66 5.76 5.76 0 0 1 .4 2.27v.06a6.21 6.21 0 0 1-.7 2.62ZM84 183.66v-20.13h4.3v20.13ZM111.29 177.63a10.47 10.47 0 0 1-2.18 3.31 10 10 0 0 1-3.3 2.24 10.51 10.51 0 0 1-4.19.82 10.4 10.4 0 0 1-7.47-3 9.76 9.76 0 0 1-2.15-3.31 10.42 10.42 0 0 1-.77-4v-.06a10.43 10.43 0 0 1 3-7.34 10 10 0 0 1 3.25-2.29 10.51 10.51 0 0 1 4.19-.82 10.39 10.39 0 0 1 4.18.82 10.19 10.19 0 0 1 3.29 2.21 9.76 9.76 0 0 1 2.16 3.28 10.42 10.42 0 0 1 .77 4v.05a10.42 10.42 0 0 1-.78 4.09Zm-3.73-4a6.85 6.85 0 0 0-.44-2.44 6.15 6.15 0 0 0-1.23-2 5.89 5.89 0 0 0-1.89-1.37 6 6 0 0 0-4.78 0 5.56 5.56 0 0 0-1.85 1.35 6.52 6.52 0 0 0-1.21 2 6.72 6.72 0 0 0-.43 2.43v.05a6.86 6.86 0 0 0 .43 2.45 6.07 6.07 0 0 0 3.12 3.38 5.62 5.62 0 0 0 2.39.5 5.61 5.61 0 0 0 4.25-1.84 6.5 6.5 0 0 0 1.2-2 6.76 6.76 0 0 0 .44-2.43ZM128.55 183.66l-9.5-12.8v12.8h-4.26v-20.13h4l9.2 12.39v-12.39h4.26v20.13ZM149.47 180.36a5.44 5.44 0 0 1-1.48 2 6.53 6.53 0 0 1-2.26 1.21 9.79 9.79 0 0 1-2.91.41 12.66 12.66 0 0 1-4.4-.79 11.28 11.28 0 0 1-3.92-2.43l2.55-3.13a12.78 12.78 0 0 0 2.76 1.78 7.24 7.24 0 0 0 3.1.66 3.69 3.69 0 0 0 2.09-.5 1.59 1.59 0 0 0 .74-1.39v-.06a1.67 1.67 0 0 0-.16-.76 1.56 1.56 0 0 0-.59-.62 6.56 6.56 0 0 0-1.21-.58 20 20 0 0 0-2-.6 25.42 25.42 0 0 1-2.69-.83 7.77 7.77 0 0 1-2.06-1.14 4.59 4.59 0 0 1-1.3-1.68 5.93 5.93 0 0 1-.47-2.5v-.06a5.82 5.82 0 0 1 .51-2.48 5.66 5.66 0 0 1 1.4-1.92 6.54 6.54 0 0 1 2.16-1.23 8.43 8.43 0 0 1 2.77-.43 11.52 11.52 0 0 1 4 .66 11.22 11.22 0 0 1 3.32 1.9l-2.24 3.33a14.12 14.12 0 0 0-2.58-1.45 6.34 6.34 0 0 0-2.52-.53 3 3 0 0 0-1.89.5 1.54 1.54 0 0 0-.64 1.25v.05a1.83 1.83 0 0 0 .19.84 1.65 1.65 0 0 0 .66.65 6.1 6.1 0 0 0 1.3.55q.84.26 2.1.6a19.61 19.61 0 0 1 2.66.91 7.23 7.23 0 0 1 2 1.2 4.48 4.48 0 0 1 1.21 1.66 5.75 5.75 0 0 1 .41 2.27v.06a6.36 6.36 0 0 1-.61 2.62Z"/></svg>