<svg xmlns="http://www.w3.org/2000/svg" viewBox="0 0 71.9 71.9"><path d="M35.9.4C16.3.4.4 16.3.4 35.9S16.3 71.5 36 71.5c19.7 0 35.6-15.9 35.6-35.6S55.6.4 35.9.4zm21.3 54.3c.4.3.5.7.3 1.1-.1.4-.5.6-.9.6h-.1c-.4 0-8.5-.8-13.8-6.7-2.8.8-5.7 1.3-8.7 1.3-13 0-23.6-8-23.6-17.8S21 15.4 34 15.4c13 0 23.6 8 23.6 17.8 0 3.8-1.6 7.4-4.5 10.5-.4 7.6 3.9 10.9 4.1 11z"/><path d="m50.1 42.5.8-.8c2.4-2.5 3.7-5.4 3.7-8.4 0-8.2-9.3-14.8-20.6-14.8S13.3 25 13.3 33.2 22.6 48 33.9 48c2.7 0 5.4-.4 7.9-1.1l1.8-.5 1.3 1.4c2 2.2 4.5 3.6 6.7 4.4-1-2.1-1.8-5-1.6-8.6l.1-1.1zm-26.2-6.1c-1.9 0-3.5-1.6-3.5-3.5s1.6-3.5 3.5-3.5 3.5 1.6 3.5 3.5-1.6 3.5-3.5 3.5zm9.6 0c-1.9 0-3.5-1.6-3.5-3.5s1.6-3.5 3.5-3.5S37 31 37 32.9s-1.6 3.5-3.5 3.5zm9.7 0c-1.9 0-3.5-1.6-3.5-3.5s1.6-3.5 3.5-3.5 3.5 1.6 3.5 3.5c-.1 1.9-1.6 3.5-3.5 3.5z"/></svg>