<svg xmlns="http://www.w3.org/2000/svg" viewBox="0 0 182.2 182.4"><path d="M91.1 177.8c-34.6 0-64.5-20.5-78.3-49.9l33.5-46c1.1-1.5 2.7-2.3 4.5-2.3s3.4.8 4.5 2.3l28.1 38.5c1.9 2.6 4.8 4.1 8 4.1s6.1-1.5 8-4.1l28.1-38.5c1.1-1.5 2.7-2.3 4.5-2.3s3.4.8 4.5 2.3l33.2 45.5c-13.7 29.7-43.8 50.4-78.6 50.4m0-173.2c47.7 0 86.5 38.8 86.5 86.6 0 11.1-2.1 21.7-5.9 31.4L140 79.3c-1.9-2.6-4.8-4.1-8-4.1s-6.1 1.5-8 4.1l-28 38.5c-1.1 1.5-2.7 2.3-4.5 2.3s-3.4-.8-4.5-2.3L58.8 79.3c-1.9-2.6-4.8-4.1-8-4.1s-6.1 1.5-8 4.1l-32 43.9c-3.9-9.9-6.1-20.7-6.1-32C4.6 43.5 43.4 4.6 91.1 4.6M182 91.2c0-24.3-9.5-47.1-26.6-64.3C138.2 9.7 115.4.3 91.2.3S44 9.7 26.8 26.9C9.7 44.1.2 66.9.2 91.2s9.5 47.1 26.6 64.3c17.2 17.2 40 26.6 64.2 26.6s47.1-9.5 64.2-26.6c7.6-7.6 13.7-16.4 18.2-25.9.1-.1.3-.1.4-.2.8-.6 1.1-1.6.8-2.4 4.8-11.2 7.4-23.3 7.4-35.8" fill="#010202"/></svg>