<svg xmlns="http://www.w3.org/2000/svg" viewBox="0 0 28 28"><path d="M14.9 23c-.2 0-.4.2-.4.4s.2.4.4.4.4-.2.4-.4-.1-.4-.4-.4zm-.5-14.8h-.8c-1.2 0-2.1 1-2.1 2.1v4.2c0 .2.2.4.4.4h4.2c.2 0 .4-.2.4-.4v-4.2c.1-1.1-.9-2.1-2.1-2.1zm-.8.9h.8c.7 0 1.3.6 1.3 1.3v.4h-3.4v-.4c0-.8.6-1.3 1.3-1.3zm-1.3 5v-2.5h3.4v2.5h-3.4zm-5-5.9h-.9c-1.2 0-2.1 1-2.1 2.1v4.2c0 .2.2.4.4.4H9c.2 0 .4-.2.4-.4v-4.2c0-1.1-.9-2.1-2.1-2.1zm-.9.9h.9c.7 0 1.3.6 1.3 1.3v.4H5.2v-.4c0-.7.5-1.3 1.2-1.3zm-1.2 5v-2.5h3.4v2.5H5.2zm16.4-5.9h-.9c-1.2 0-2.1 1-2.1 2.1v4.2c0 .2.2.4.4.4h4.2c.2 0 .4-.2.4-.4v-4.2c.1-1.1-.8-2-2-2.1zm-.9.9h.9c.7 0 1.3.6 1.3 1.3v.4h-3.4v-.4c0-.7.5-1.3 1.2-1.3zm-1.2 5v-2.5h3.4v2.5h-3.4zm2.1 3h-.9c-1.2 0-2.1 1-2.1 2.1v4.2c0 .2.2.4.4.4h4.2c.2 0 .4-.2.4-.4v-4.2c.1-1.2-.8-2.1-2-2.1zm-.9.8h.9c.7 0 1.3.6 1.3 1.3v.8h-3.4v-.8c0-.7.5-1.3 1.2-1.3zM19.5 23v-2.2h3.4V23h-3.4zM7.3 17.1h-.9c-1.2 0-2.1 1-2.1 2.1v4.2c0 .2.2.4.4.4H9c.2 0 .4-.2.4-.4v-4.2c0-1.2-.9-2.1-2.1-2.1zm-.9.8h.9c.7 0 1.3.6 1.3 1.2v.9H5.2v-.8c0-.7.5-1.3 1.2-1.3zM5.2 23v-2.2h3.4V23H5.2z"/><path d="M27.6 27.1h-1.3V6.4h1.3c.2 0 .3-.1.4-.3.1-.2 0-.4-.2-.5L19.7.1c0-.1-.1-.1-.2-.1h-11c-.1 0-.1 0-.2.1L.2 5.6c-.2.1-.2.3-.2.5.1.2.2.3.4.3h1.3v20.8H.4c-.2 0-.4.2-.4.4s.2.4.4.4h27.1c.2 0 .4-.2.4-.4s-.1-.5-.3-.5zM26.2 5.5H21L17.6.8h1.8l6.8 4.7zm-6.2 0h-5.6V.9h2.1L20 5.5zM13.6.9v4.7H8.1L11.5.9h2.1zm-5 0h1.8L7 5.5H1.8L8.6.9zm3.7 26.2v-7.9c0-.7.6-1.3 1.3-1.3h.8c.7 0 1.3.6 1.3 1.3v7.9h-3.4zm4.3 0v-7.9c0-1.2-.9-2.1-2.1-2.1h-.8c-1.2 0-2.1 1-2.1 2.1v7.9h-9V6.4h22.9v20.8h-8.9z"/></svg>