<svg xmlns="http://www.w3.org/2000/svg" viewBox="0 0 320 315"><path d="M159.5 8C76.5 8 9 75.5 9 158.5S76.5 309 159.5 309 310 241.5 310 158.5 242.5 8 159.5 8zm0 285C85.3 293 25 232.7 25 158.5S85.3 24 159.5 24 294 84.3 294 158.5 233.7 293 159.5 293z"/><path d="M154.3 249.9S140 238.5 136.8 236c0 0-5 3.8-7.7 6.5 0 0 23 24.2 30.2 31.7 0 0 11.3-29.4 42.5-59.8l-1.9-4.6c0 .1-20.9 11.5-45.6 40.1zM89.9 174c0-1.8-.6-3.2-1.7-4.3-1.2-1.1-3-1.7-5.5-1.7h-8.9v20.5h3.7V180h5.2l3.2 8.4h3.9l-3.6-9.1c2.4-.9 3.7-2.7 3.7-5.3zm-4.9 2.2c-.7.6-1.6.8-3 .8h-4.6v-6.2h4.9c1.2 0 2.1.3 2.7.8.6.6 1 1.3 1 2.2 0 1.1-.3 1.9-1 2.4zm12.8 3.3h7.6v-2.9h-7.6V171h9.5v-3.1H94.1v20.6h13.3v-3.2h-9.6v-5.8zm21.3 1.5h4.2c0 1.4-.4 2.6-1.2 3.5-.8.9-1.9 1.3-3.1 1.3-3.3 0-4.9-2.6-4.9-7.8 0-2.5.5-4.3 1.4-5.5s2.1-1.8 3.6-1.8c2.3 0 3.7 1.3 4.3 3.8l3.2-.6c-.4-1.8-1.2-3.3-2.5-4.5s-3-1.8-5.1-1.8c-2.8 0-4.9 1-6.5 3.1-1.5 2.1-2.3 4.6-2.3 7.5 0 2.8.7 5.3 2.1 7.4 1.4 2.1 3.5 3.2 6.3 3.2 2.5 0 4.4-1 5.6-3.1l1.1 2.8h1.6V178h-7.7l-.1 3zm12.4-13.1h3.7v20.5h-3.7v-20.5zm18.3 17.1c-.7.5-1.7.8-3 .8-2.9 0-4.5-1-5-3.1l-3.6.8c.5 1.8 1.5 3.1 3 4s3.3 1.3 5.4 1.3c2.4 0 4.4-.6 5.9-1.7s2.3-2.7 2.3-4.8c0-1.3-.4-2.4-1.1-3.4-.7-1-2.1-1.8-4.3-2.4l-3.5-.9c-1.9-.5-2.9-1.3-2.9-2.5 0-.7.3-1.4.9-1.8.6-.5 1.5-.7 2.6-.7 2 0 3.3.8 3.8 2.3l3.5-.9c-.4-1.4-1.3-2.5-2.7-3.3s-3-1.2-4.7-1.2c-2.1 0-3.9.6-5.2 1.7-1.4 1.1-2 2.6-2 4.4 0 .9.2 1.8.6 2.6.4.8.9 1.4 1.5 1.9.6.4 1.6.8 3 1.2l3.9 1c1.1.3 1.7.6 2.1 1.1.3.5.5 1 .5 1.6 0 .9-.3 1.5-1 2zm15.9 3.5v-17.4h5.4v-3.2h-14.9v3.2h5.5v17.4h4zm21.5-17.5v-3.1h-13.3v20.6h13.4v-3.2h-9.6v-5.8h7.6v-2.9h-7.6V171h9.5zm20 3c0-1.8-.6-3.2-1.7-4.3-1.2-1.1-3-1.7-5.5-1.7h-9v20.5h3.7V180h5.2l3.2 8.4h3.9l-3.6-9.1c2.5-.9 3.8-2.7 3.8-5.3zm-4.9 2.2c-.7.6-1.6.8-3 .8h-4.6v-6.2h4.9c1.2 0 2.1.3 2.7.8.6.6 1 1.3 1 2.2 0 1.1-.3 1.9-1 2.4zm12.8 3.3h7.7v-2.9h-7.7V171h9.5v-3.1h-13.2v20.6h13.4v-3.2h-9.7v-5.8zm20.9-11.6h-7.6v20.5h6.7c3.3 0 5.8-1 7.5-2.9 1.7-2 2.6-4.4 2.6-7.3 0-2.9-.8-5.4-2.5-7.3-1.7-2-3.9-3-6.7-3zm3.5 15.7c-1.2 1.2-2.6 1.9-4.2 1.9h-3.1v-14.6h3.5c1.7 0 3 .7 4 2.1 1 1.4 1.5 3.1 1.5 5.1.1 2.4-.5 4.2-1.7 5.5zM62.6 114.2h6v33.4h-6v-33.4zM92.3 142c-1.2.8-2.8 1.3-4.9 1.3-4.7 0-7.4-1.7-8.1-5l-5.8 1.2c.8 2.9 2.5 5.1 5 6.5s5.4 2.1 8.7 2.1c3.9 0 7.1-.9 9.6-2.8s3.7-4.5 3.7-7.7c0-2-.6-3.9-1.8-5.6-1.2-1.7-3.5-3-6.9-3.8l-5.7-1.4c-3.1-.8-4.7-2.1-4.7-4 0-1.2.5-2.2 1.5-3s2.4-1.2 4.3-1.2c3.2 0 5.3 1.3 6.2 3.8l5.7-1.4c-.6-2.3-2.1-4.1-4.3-5.3-2.3-1.3-4.8-1.9-7.7-1.9-3.5 0-6.3.9-8.5 2.7-2.2 1.8-3.3 4.2-3.3 7.2 0 1.5.3 2.9.9 4.2.6 1.3 1.5 2.3 2.5 3.1 1 .7 2.7 1.4 4.8 1.9l6.4 1.7c1.7.4 2.8 1 3.4 1.8s.8 1.6.8 2.5c-.1 1.2-.7 2.2-1.8 3.1zm40.8-11.2c0-4.9-1.3-9-3.8-12.3s-6-4.9-10.3-4.9-7.8 1.6-10.4 4.9-3.9 7.3-3.9 12.2c0 4.9 1.2 9 3.7 12.3s5.9 5 10.4 5c4.3 0 7.8-1.6 10.4-4.8 2.6-3 3.9-7.2 3.9-12.4zm-8.8 9.7c-1.5 1.8-3.3 2.7-5.5 2.7-2.4 0-4.3-1-5.6-3.1-1.3-2.1-2-5.1-2-9.2 0-8.3 2.6-12.5 7.7-12.5 2.6 0 4.5 1.1 5.8 3.3 1.2 2.2 1.9 5.2 1.9 9 0 4.8-.8 8.1-2.3 9.8zm30.1-23.7c-2.2 2.1-3.3 4.8-3.3 8s1.1 5.8 3.2 7.8 4.7 2.9 7.8 2.9c1.6 0 3.2-.3 4.7-1 1.5-.6 2.9-2.1 4.1-4.3 0 4.2-.7 7.4-2.1 9.8-1.4 2.3-3.3 3.5-5.8 3.5s-4.3-1.2-5.6-3.5l-5 1.4c.6 1.8 1.8 3.3 3.6 4.6s4.1 2 6.9 2c4.4 0 7.8-1.7 10.2-5.1s3.6-7.7 3.6-13.1c0-5.2-1.3-9.3-3.8-12.1-2.5-2.8-5.8-4.2-9.9-4.2-3.5.1-6.4 1.2-8.6 3.3zm13.7 3.2c1.2 1.2 1.7 2.6 1.7 4.1 0 2.2-.7 3.8-2 4.9-1.3 1.1-2.9 1.7-4.6 1.7-2 0-3.6-.6-4.7-1.9-1.1-1.3-1.7-2.7-1.7-4.3 0-1.8.6-3.3 1.8-4.5s2.8-1.8 4.7-1.8c2.1 0 3.7.6 4.8 1.8zm33.4-4.1c-2-1.5-4.3-2.3-7.2-2.3-3.9 0-7 1.6-9.4 4.8-2.3 3.2-3.5 7.5-3.5 12.8 0 4.9 1.1 8.9 3.3 12.1s5.4 4.8 9.5 4.8c3 0 5.4-.8 7.4-2.4 2-1.6 3.4-3.7 4.3-6.2.9-2.5 1.3-5.7 1.3-9.7 0-2.3-.5-4.9-1.4-7.6s-2.3-4.8-4.3-6.3zm-1 21.5c-.4 1.9-1.1 3.3-2.1 4.4-1 1-2.4 1.6-4.1 1.6-2.5 0-4.3-1.2-5.2-3.5s-1.4-5.4-1.4-9.2c0-8.4 2.3-12.6 6.8-12.6 2.6 0 4.4 1.2 5.3 3.7.9 2.5 1.4 5.1 1.4 7.8-.1 3.3-.3 5.9-.7 7.8zm14.6 5.9c2.2 3.2 5.4 4.8 9.5 4.8 3 0 5.4-.8 7.4-2.4 2-1.6 3.4-3.7 4.3-6.2.9-2.5 1.3-5.7 1.3-9.7 0-2.3-.5-4.9-1.4-7.6-1-2.7-2.4-4.8-4.4-6.3s-4.3-2.3-7.2-2.3c-3.9 0-7 1.6-9.4 4.8-2.3 3.2-3.5 7.5-3.5 12.8.1 4.9 1.2 9 3.4 12.1zm9.6-25.2c2.6 0 4.4 1.2 5.3 3.7.9 2.5 1.4 5.1 1.4 7.8 0 3.3-.2 5.9-.6 7.8-.4 1.9-1.1 3.3-2.1 4.4-1 1-2.4 1.6-4.1 1.6-2.5 0-4.3-1.2-5.2-3.5-1-2.3-1.4-5.4-1.4-9.2-.1-8.4 2.2-12.6 6.7-12.6zm33.9 24.6v-29.2h-4c-.6 1-1.5 2.1-2.9 3.3-1.4 1.2-2.4 2-3.1 2.5-.7.4-2.4 1.2-5.2 2.3v6c2.7-1.1 5.8-3.1 9.1-6v21.1h-10.1v4.9H268v-4.9h-9.4zM145.3 63.5l8.7 27.3h2.9l8.7-27.3v27.3h5.7V59.6h-8.9L156 79.7l-6.5-20.1h-8.8v31.2h4.6V63.5zm47.3 22.1c-1.1.8-2.6 1.2-4.6 1.2-4.4 0-6.9-1.5-7.6-4.6l-5.5 1.2c.8 2.7 2.3 4.8 4.6 6.1 2.3 1.3 5 1.9 8.1 1.9 3.7 0 6.7-.9 9-2.6 2.3-1.8 3.5-4.2 3.5-7.2 0-1.9-.5-3.7-1.6-5.2-1.1-1.6-3.3-2.8-6.5-3.6l-5.3-1.3c-2.9-.7-4.3-2-4.3-3.8 0-1.1.5-2.1 1.4-2.8.9-.7 2.3-1.1 4-1.1 3 0 4.9 1.2 5.8 3.5L199 66c-.6-2.2-1.9-3.8-4-5s-4.5-1.8-7.2-1.8c-3.2 0-5.9.8-8 2.5s-3.1 3.9-3.1 6.7c0 1.4.3 2.7.9 4 .6 1.2 1.4 2.2 2.3 2.9 1 .7 2.5 1.3 4.5 1.8l6 1.6c1.6.4 2.6 1 3.1 1.7s.7 1.5.7 2.4c0 1-.6 2-1.6 2.8zM214 58.3c0-3.6-2.9-6.5-6.5-6.5s-6.5 2.9-6.5 6.5 2.9 6.5 6.5 6.5 6.5-2.9 6.5-6.5zm-6.6 3.9c-.8-.8-3.4-3.5-3.4-3.5.3-.3.9-.7.9-.7.4.3 1.9 1.5 1.9 1.5 2.7-3.2 5.1-4.4 5.1-4.4l.2.5c-3.5 3.4-4.7 6.6-4.7 6.6zm-85.9 28.6c3.2 0 6.2-.9 8.7-2.5l2.2 2.5h7.2l-5.3-6.1c2.3-2.8 3.7-6.4 3.7-10.4 0-9.1-7.4-16.5-16.5-16.5S105 65.2 105 74.3s7.4 16.5 16.5 16.5zm0-26c5.2 0 9.5 4.3 9.5 9.5 0 1.8-.5 3.5-1.4 5l-2.8-3.2-4.2 3.8 2.8 3.1c-1.2.5-2.5.8-3.9.8-5.2 0-9.5-4.3-9.5-9.5s4.3-9.5 9.5-9.5z"/></svg>