<svg version="1.1" id="Layer_1" xmlns="http://www.w3.org/2000/svg" x="0" y="0" viewBox="0 0 220.81 122.47" xml:space="preserve"><path class="st0" d="M1.6 48.7h35.9c.8 0 1.5-.7 1.5-1.5v-4.6c0-.8-.7-1.5-1.5-1.5h-26L38.6 6c.2-.3.3-.6.3-.9V1.6c0-.8-.7-1.5-1.5-1.5H2.5c-.8 0-1.4.7-1.4 1.5v4.6c0 .8.7 1.5 1.5 1.5h25L.4 42.8c-.2.3-.3.6-.3.9v3.5c0 .9.7 1.5 1.5 1.5zm43.2-4.5c1.6 1.7 3.6 3 5.7 3.9 2.2.9 4.5 1.4 7 1.4 3.4 0 6.3-.6 8.6-1.9 2.3-1.2 4.3-2.9 6.1-4.9.5-.6.5-1.6-.1-2.1L69 37.8c-.6-.5-1.5-.5-2.1.1-1.3 1.3-2.6 2.4-4.1 3.2-1.4.8-3.2 1.1-5.2 1.1-1.3 0-2.5-.2-3.6-.7-1.1-.4-2.2-1.1-3.1-1.9-.9-.8-1.7-1.9-2.3-3.1-.4-.8-.7-1.7-.9-2.7h24.4c.7 0 1.4-.6 1.5-1.3.1-.4.1-.7.1-1.1v-.7c0-2.6-.4-5.1-1.1-7.4-.7-2.4-1.8-4.4-3.3-6.2-1.4-1.8-3.3-3.2-5.4-4.2s-4.5-1.6-7.2-1.6c-2.5 0-4.9.5-7 1.5-2.1 1-4 2.4-5.5 4.1s-2.7 3.8-3.6 6.1c-.8 2.3-1.3 4.8-1.3 7.4 0 2.8.5 5.4 1.4 7.8.9 2.4 2.4 4.3 4.1 6zm3.7-19.6c.5-1.2 1.2-2.3 2-3.2.8-.9 1.7-1.6 2.8-2.1 1-.5 2.2-.7 3.4-.7 1.4 0 2.7.3 3.7.8 1.1.5 2 1.3 2.7 2.1.8.9 1.3 2 1.8 3.2.3.8.5 1.5.6 2.4H47.7c.2-1 .4-1.8.8-2.5zm29.8 24.1h4.9c.8 0 1.5-.7 1.5-1.5V33.8c0-2.3.3-4.4.9-6.2.6-1.7 1.4-3.2 2.5-4.3 1-1.1 2.3-2 3.7-2.6 1.4-.6 2.9-.9 4.5-.9h.4c.8 0 1.5-.7 1.5-1.5v-5.4c0-.8-.6-1.5-1.4-1.5-1.7-.1-3.4.2-4.9.7s-2.9 1.2-4.2 2.1c-1.1.8-2.1 1.7-3 2.8v-3.5c0-.8-.7-1.5-1.5-1.5h-4.9c-.8 0-1.5.7-1.5 1.5v33.7c0 .9.6 1.5 1.5 1.5zm18.4-18.2c0 2.6.5 5.1 1.4 7.4.9 2.3 2.2 4.3 3.9 6.1 1.7 1.7 3.6 3.1 5.9 4.1s4.8 1.5 7.4 1.5c2.7 0 5.2-.5 7.5-1.5s4.3-2.4 6-4.2c1.7-1.7 3-3.8 3.9-6.1.9-2.3 1.4-4.8 1.4-7.4 0-2.6-.5-5-1.4-7.4-.9-2.4-2.2-4.3-3.9-6.1-1.7-1.7-3.7-3.1-5.9-4.1-2.3-1-4.8-1.5-7.5-1.5s-5.2.5-7.5 1.5-4.3 2.4-5.9 4.1c-1.7 1.7-3 3.8-3.9 6.1-1 2.4-1.4 4.9-1.4 7.5zm8.8-4.7c.5-1.4 1.3-2.6 2.2-3.7.9-1 2-1.8 3.3-2.4 1.3-.6 2.8-.9 4.3-.9s2.9.3 4.2.9c1.3.6 2.5 1.5 3.4 2.5s1.7 2.3 2.3 3.7c.6 1.4.8 3 .8 4.6 0 1.6-.3 3.2-.8 4.6s-1.3 2.6-2.2 3.6c-.9 1-2.1 1.8-3.3 2.4-1.3.6-2.8.9-4.3.9s-2.9-.3-4.2-.9-2.5-1.4-3.4-2.5c-.9-1-1.7-2.3-2.3-3.7-.6-1.4-.8-3-.8-4.6 0-1.6.2-3.1.8-4.5zm-93.8 41c.3 0 .5-.2.5-.5v-2.2c0-.3-.2-.5-.5-.5H6.9V59c0-.3-.3-.5-.5-.5H3.9c-.3 0-.5.2-.5.5v4.6H1.6c-.3 0-.5.2-.5.5v2.2c0 .3.2.5.5.5h1.8v9.7c0 .9.1 1.7.4 2.4.3.7.6 1.3 1.1 1.7s1 .8 1.7.9c.6.3 1.3.3 2 .3.6 0 1.2-.1 1.7-.2s1-.3 1.5-.6c.2-.1.3-.3.3-.4v-2.2c0-.2-.1-.3-.2-.4-.1-.1-.3-.1-.5 0-.4.2-.8.3-1.1.4-.3.1-.7.1-1.1.1-.7 0-1.3-.2-1.7-.5-.4-.3-.6-.9-.6-1.8v-9.4h4.8zm18.6 2.3c-.4-1.2-1-2.2-1.9-3.1-.8-.8-1.8-1.5-2.9-2-1.1-.5-2.4-.8-3.6-.8-1.3 0-2.6.3-3.7.8s-2.1 1.2-2.9 2c-.8.8-1.4 1.9-1.9 3-.4 1.1-.7 2.3-.7 3.6s.2 2.5.7 3.6c.4 1.1 1.1 2.1 1.9 3 .8.9 1.8 1.5 2.9 2 1.1.5 2.3.8 3.6.8 1.3 0 2.5-.3 3.7-.7 1.2-.4 2.1-1.2 2.9-2s1.5-1.8 1.9-3c.4-1.2.7-2.3.7-3.6 0-1.3-.2-2.5-.7-3.6zM27.1 75c-.3.7-.7 1.4-1.1 1.9-.5.5-1.1 1-1.8 1.3-.7.3-1.5.5-2.3.5s-1.5-.2-2.2-.5c-.7-.3-1.3-.8-1.8-1.3s-.9-1.2-1.2-1.9c-.3-.7-.4-1.6-.4-2.4s.1-1.7.4-2.4c.3-.7.7-1.4 1.1-1.9.5-.5 1.1-1 1.7-1.3.6-.3 1.5-.5 2.3-.5.8 0 1.5.2 2.2.5.7.3 1.3.8 1.8 1.3.5.6.9 1.2 1.2 1.9.3.7.4 1.6.4 2.4.1.9 0 1.7-.3 2.4zm18.2 6.1V57.2c0-.3-.2-.5-.5-.5h-2.5c-.3 0-.5.2-.5.5v23.9c0 .3.2.5.5.5h2.5c.2 0 .5-.3.5-.5zm17.7 0V70.7c0-2.4-.7-4.2-2-5.5-1.3-1.2-3.2-1.8-5.6-1.8-1.3 0-2.4.1-3.4.4s-1.9.6-2.9 1.1c-.2.1-.3.4-.3.6l.7 2.1c0 .1.2.2.3.3.1.1.3.1.4 0 .7-.4 1.5-.7 2.3-.9.8-.2 1.6-.3 2.5-.3 1.4 0 2.5.3 3.3 1 .8.7 1.1 1.7 1.1 3-.6-.2-1.2-.3-1.7-.4-.6-.1-1.5-.2-2.6-.2s-2.1.1-3 .4c-.9.3-1.7.6-2.4 1.1s-1.3 1.2-1.7 1.9c-.4.8-.6 1.6-.6 2.6s.2 1.8.6 2.6c.4.7.9 1.3 1.5 1.8s1.4.8 2.2 1.1c.8.2 1.6.3 2.4.3 1.6 0 2.9-.3 3.9-.9.6-.4 1.1-.8 1.6-1.2v1.3c0 .3.2.5.5.5h2.4c.3 0 .5-.2.5-.5zm-3.3-6.3c0 .6-.1 1.1-.4 1.6-.3.5-.6.9-1 1.3-.5.4-1 .7-1.6.9-.6.2-1.3.3-2 .3-.5 0-1-.1-1.4-.2-.4-.1-.8-.3-1.2-.6-.3-.3-.6-.6-.8-.9-.2-.3-.3-.7-.3-1.2 0-.9.3-1.7 1-2.2.7-.6 1.8-.8 3.3-.8 1 0 1.9.1 2.7.2.6.1 1.2.3 1.7.4v1.2zm9.8-9.2v-1.4c0-.3-.2-.5-.5-.5h-2.5c-.3 0-.5.2-.5.5v16.9c0 .3.2.5.5.5H69c.3 0 .5-.2.5-.5v-9.7c0-.7.1-1.4.3-2 .2-.6.5-1.1.9-1.5.4-.4.9-.7 1.4-1 .6-.2 1.2-.3 1.8-.3 1.3 0 2.3.4 3 1.2s1.1 2 1.1 3.4v9.9c0 .3.2.5.5.5H81c.3 0 .5-.2.5-.5V70.5c0-1.1-.2-2-.5-2.9-.3-.9-.8-1.7-1.4-2.3-.6-.7-1.3-1.2-2.2-1.5-.8-.3-1.8-.5-2.9-.5-1.5 0-2.8.4-3.8 1.1-.3.3-.8.7-1.2 1.2zm28.7 15.8h2.5c.3 0 .5-.2.5-.5V57.2c.1-.3-.1-.5-.4-.5h-2.5c-.3 0-.5.2-.5.5V66l-.3-.3c-.4-.5-.9-.9-1.5-1.2-.6-.3-1.2-.6-1.9-.8-.7-.2-1.4-.3-2.3-.3-1.1 0-2.1.2-3.1.6-1 .4-1.9 1.1-2.7 1.8-.8.8-1.4 1.8-1.9 2.9-.5 1.2-.7 2.5-.7 3.9s.2 2.8.7 3.9c.5 1.1 1.1 2.1 1.9 2.9.8.8 1.7 1.4 2.7 1.8 1 .4 2 .6 3.1.6.8 0 1.6-.1 2.3-.3s1.3-.5 1.8-.9 1-.8 1.5-1.3l.3-.3v1.9c0 .3.2.5.5.5zm-.7-6.3c-.3.8-.7 1.4-1.2 1.9s-1.1.9-1.8 1.2c-1.3.6-2.8.6-4.1 0-.6-.3-1.2-.7-1.7-1.2s-.9-1.2-1.2-1.9c-.3-.7-.4-1.6-.4-2.5s.2-1.8.4-2.6.7-1.4 1.2-1.9 1-.9 1.7-1.2c.6-.3 1.3-.4 2.1-.4.7 0 1.4.2 2 .4.7.3 1.3.7 1.8 1.2s.9 1.2 1.2 1.9c.3.7.5 1.6.5 2.5 0 1-.2 1.8-.5 2.6zm16.7-8.7v-2.2c0-.3-.2-.5-.5-.5h-4.8v-.9c0-2.8 1.4-3.1 2.4-3.1.4 0 .8 0 1.1.1.3.1.8.2 1.2.3.2 0 .3 0 .4-.1.1-.1.2-.2.2-.4v-2.2c0-.2-.1-.3-.3-.4-.4-.2-.9-.3-1.3-.3s-1-.1-1.6-.1c-1.7 0-3.1.5-4.1 1.6-.9 1-1.4 2.6-1.4 4.6v1h-1.8c-.3 0-.5.2-.5.5v2.2c0 .3.2.5.5.5h1.8v14.2c0 .3.2.5.5.5h2.5c.3 0 .5-.2.5-.5V66.9h4.7c.3 0 .5-.2.5-.5zm1.5-5.5h2.8c.2 0 .5-.2.5-.5v-2.8c0-.3-.2-.5-.5-.5h-2.8c-.3 0-.5.2-.5.5v2.8c0 .3.2.5.5.5zm.1 20.6h2.5c.3 0 .5-.2.5-.5V64.1c0-.3-.2-.5-.5-.5h-2.5c-.3 0-.5.2-.5.5V81c0 .3.2.5.5.5zm10.1-.4V57.2c0-.3-.2-.5-.5-.5H123c-.3 0-.5.2-.5.5v23.9c0 .3.2.5.5.5h2.5c.2 0 .4-.3.4-.5zm4.2-24.4c-.3 0-.5.2-.5.5v23.9c0 .2.3.5.5.5h2.5c.3 0 .5-.2.5-.5V57.2c0-.3-.2-.5-.5-.5h-2.5zm44.3-9.7c-12.4-5-20.2-8.9-22.1-10.7.6 1.6 1.7 6.6 1.2 18-.4 10.9 2.4 20.4 9.3 24.4 3.8 2.7 9.1 3.4 12.6 3.6-.1-.7-.1-1.5-.2-2.2-.4-2.9-1.2-6-2.2-9.1-2-6.2-5.1-12.3-7.5-16.7-2.4-4.4-4.4-7.2-4.4-7.2s2.4 2.4 5.7 6.3c3.3 3.9 7.5 9.3 10.9 15.4 1.7 3.1 3.3 6.3 4.4 9.6 0 .1 0 .1.1.2 1.9-2.6 4-6.3 4.7-10.8 1.9-9.3-1.6-16.4-12.5-20.8z"/><path class="st0" d="M219.7 29.5C216.8 11.2 217.5 3 218.3.2c-2.7 3.1-20.2 9.2-39 22.4-7.6 5.3-10.3 12.1-11 17 3.1 1.5 14.3 4.2 19.7 12.6 3.5-6.8 6.9-17.1 10.1-21.9 4.6-6.9 8.1-11.2 8.1-11.2s-2.6 4.9-5.7 12.5c-3.2 7.6-6.9 17.9-9.1 28.3-1.1 5.2-1.8 10.4-1.9 15.1 0 1.3 0 2.5.1 3.7 5.6-.9 14-2.9 19.7-8.1 10.3-7.7 13.2-23.5 10.4-41.1zm-82.2 51.3 1.7-1.2-.3 2h1.2l-.2-2 1.7 1.2.6-1-2-.9 2-.8-.6-1.1-1.7 1.3.2-2.1h-1.2l.3 2.1-1.7-1.3-.6 1.1 1.9.8-1.9.9zM4.5 94.69l-1.58 1.15.22-1.93H2.03l.22 1.93-1.58-1.15-.57.96 1.81.79-1.81.79.57.97 1.58-1.16-.22 1.94h1.11l-.22-1.94L4.5 98.2l.57-.97-1.8-.79 1.8-.79zm6.97 10.41 2.72-7.96 2.73 7.96h1.68l3.86-11.16h-2.04l-2.65 8.22-2.72-8.25H13.4l-2.72 8.25-2.65-8.22h-2.1l3.86 11.16zm16.92-.31a4.65 4.65 0 0 0 1.43-1.14l-1.12-1c-.34.33-.68.57-1.03.74-.35.17-.76.25-1.24.25-.62 0-1.15-.18-1.58-.55-.43-.36-.71-.89-.82-1.58h6.14c.01-.09.02-.18.02-.27.01-.08.01-.17.01-.25 0-.6-.08-1.18-.25-1.73a4.29 4.29 0 0 0-.75-1.44c-.33-.41-.75-.74-1.25-.98s-1.08-.36-1.75-.36c-.6 0-1.15.12-1.65.35-.5.23-.93.55-1.29.94-.36.4-.65.86-.85 1.39-.2.53-.3 1.09-.3 1.69 0 .65.11 1.25.33 1.78.22.53.53.99.91 1.37.39.38.84.68 1.36.89.52.21 1.08.32 1.69.32.77 0 1.43-.14 1.99-.42zm-3.67-6.12c.39-.41.87-.61 1.46-.61.32 0 .6.06.85.17.25.12.46.27.64.47.18.2.32.43.43.7.11.27.17.56.21.86h-4.29c.08-.66.31-1.19.7-1.59zm14.24-2.13c-.69 0-1.27.06-1.76.19s-.96.3-1.42.51l.52 1.54c.38-.16.75-.28 1.12-.38.37-.09.79-.14 1.27-.14.66 0 1.17.15 1.53.46.35.31.53.75.53 1.33v.21c-.33-.11-.67-.19-1.02-.25s-.78-.09-1.29-.09c-.49 0-.94.06-1.35.17-.42.11-.78.28-1.08.5-.3.22-.54.5-.7.84-.17.34-.25.73-.25 1.19v.03c0 .42.08.8.25 1.12s.38.59.65.81c.27.22.58.38.94.49.36.11.74.17 1.14.17.63 0 1.17-.12 1.62-.35.44-.23.81-.52 1.09-.86v1.03h1.9v-4.96c0-1.12-.3-1.99-.9-2.61-.62-.64-1.55-.95-2.79-.95zm1.82 5.46a1.553 1.553 0 0 1-.64 1.27c-.2.15-.44.27-.7.36-.27.08-.56.13-.88.13-.45 0-.84-.11-1.15-.32-.31-.21-.47-.52-.47-.92v-.03c0-.43.17-.77.51-1 .34-.23.81-.35 1.41-.35.37 0 .72.03 1.05.1.33.06.62.14.86.24v.52zm5.43-.16c0-.55.07-1.03.21-1.45.14-.42.33-.76.59-1.04s.55-.48.9-.62.73-.21 1.16-.21h.11v-2.03c-.74-.03-1.35.14-1.84.52s-.86.89-1.12 1.52v-1.88h-1.93v8.36h1.93v-3.17zm5.84 3.06c.52.21 1.08.32 1.69.32.77 0 1.43-.14 1.99-.43a4.65 4.65 0 0 0 1.43-1.14l-1.12-1c-.34.33-.68.57-1.03.74-.35.17-.76.25-1.24.25-.62 0-1.15-.18-1.58-.55-.43-.36-.71-.89-.82-1.58h6.14c.01-.09.02-.18.02-.27.01-.08.01-.17.01-.25 0-.6-.08-1.18-.25-1.73a4.29 4.29 0 0 0-.75-1.44c-.33-.41-.75-.74-1.25-.98s-1.08-.36-1.75-.36c-.6 0-1.15.12-1.65.35-.5.23-.93.55-1.29.94-.36.4-.65.86-.85 1.39-.2.53-.3 1.09-.3 1.69 0 .65.11 1.25.33 1.78.22.53.53.99.91 1.37.38.39.83.69 1.36.9zm0-6.23c.39-.41.87-.61 1.46-.61.32 0 .6.06.85.17.25.12.46.27.64.47s.32.43.43.7c.1.27.17.56.21.86h-4.29c.08-.66.31-1.19.7-1.59zm18.2 4.98-1.16-1.14c-.31.31-.63.56-.97.75-.34.2-.74.29-1.2.29a2.37 2.37 0 0 1-1.8-.79 2.55 2.55 0 0 1-.51-.86c-.12-.33-.18-.68-.18-1.06 0-.37.06-.72.18-1.04.12-.32.29-.6.5-.85.21-.24.46-.44.76-.58.3-.14.62-.21.97-.21.49 0 .89.1 1.23.29.33.19.65.45.94.75l1.19-1.28c-.39-.43-.85-.78-1.37-1.05s-1.18-.4-1.97-.4a4.305 4.305 0 0 0-3.11 1.3c-.39.4-.69.87-.91 1.39-.22.53-.33 1.09-.33 1.69a4.352 4.352 0 0 0 1.24 3.07c.39.4.85.71 1.37.93.53.23 1.1.34 1.73.34.81 0 1.48-.14 2.01-.43.51-.27.98-.65 1.39-1.11zm8.98-1.11c.23-.53.34-1.09.34-1.69a4.316 4.316 0 0 0-1.26-3.08c-.4-.4-.87-.71-1.41-.93s-1.14-.34-1.78-.34c-.64 0-1.24.12-1.78.35-.54.23-1.01.55-1.41.94-.4.4-.71.86-.93 1.39-.23.53-.34 1.1-.34 1.7 0 .6.11 1.16.33 1.69.22.52.53.98.93 1.38.4.4.87.71 1.41.93s1.13.34 1.77.34c.64 0 1.24-.12 1.79-.35s1.02-.55 1.42-.94c.39-.4.7-.86.92-1.39zm-1.76-.63c-.12.32-.28.6-.5.85-.22.24-.49.44-.8.58-.31.14-.66.21-1.05.21-.37 0-.71-.07-1.02-.21-.31-.14-.58-.34-.8-.58-.23-.24-.4-.53-.53-.86-.13-.33-.19-.68-.19-1.05s.06-.72.17-1.04c.12-.32.28-.6.5-.85.22-.24.49-.44.8-.58.31-.14.65-.21 1.03-.21s.72.07 1.03.21c.31.14.58.34.8.59.23.25.4.54.53.86.13.33.19.68.19 1.05.01.37-.05.71-.16 1.03zm8.82-1.64v4.76h1.93v-4.71c0-.67.17-1.19.5-1.54.33-.35.76-.53 1.28-.53.54 0 .95.17 1.25.52.29.35.44.85.44 1.52v4.74h1.93v-5.34c0-1.02-.26-1.81-.78-2.37-.52-.55-1.24-.83-2.15-.83-.63 0-1.18.14-1.64.41s-.86.63-1.2 1.08c-.22-.45-.54-.81-.96-1.08-.42-.27-.93-.41-1.53-.41-.32 0-.6.04-.86.12s-.49.19-.7.33c-.21.14-.39.29-.55.46-.16.17-.31.35-.44.54v-1.28h-1.93v8.36h1.93v-4.69c0-.65.16-1.16.49-1.53.33-.37.76-.55 1.29-.55.54 0 .95.17 1.25.52.3.35.45.85.45 1.5zm18.81-3.78c-.63 0-1.18.14-1.64.41s-.86.63-1.2 1.08c-.22-.45-.54-.81-.96-1.08-.42-.27-.93-.41-1.53-.41-.32 0-.6.04-.86.12s-.49.19-.7.33c-.21.14-.39.29-.55.46-.16.17-.31.35-.44.54v-1.28H95.3v8.36h1.93v-4.69c0-.65.16-1.16.49-1.53.33-.37.76-.55 1.29-.55.54 0 .95.17 1.25.52.29.35.44.85.44 1.5v4.76h1.93v-4.71c0-.67.17-1.19.5-1.54.33-.35.76-.53 1.28-.53.54 0 .95.17 1.25.52.29.35.44.85.44 1.52v4.74h1.93v-5.34c0-1.02-.26-1.81-.78-2.37-.51-.55-1.23-.83-2.15-.83zm4.72.17h1.93v8.36h-1.93zm-.08-3.1h2.07v1.82h-2.07zm8.41 11.18v-1.57c-.38.19-.78.28-1.19.28-.33 0-.58-.08-.76-.25-.18-.16-.27-.43-.27-.8v-4.1h2.25v-1.63h-2.25v-2.3H114v2.3h-1.06v1.63H114v4.41c0 .47.06.85.18 1.17.12.31.28.56.5.75.22.19.48.33.77.41.3.09.62.13.97.13.36 0 .68-.04.95-.11.28-.08.53-.18.78-.32zm5.89-6.44v-1.63h-2.25v-2.3h-1.93v2.3h-1.06v1.63h1.06v4.41c0 .47.06.85.18 1.17.12.31.28.56.5.75.22.19.48.33.77.41.3.09.62.13.97.13.36 0 .68-.04.95-.11.27-.07.53-.18.78-.32v-1.57c-.38.19-.78.28-1.19.28-.33 0-.58-.08-.76-.25-.18-.16-.27-.43-.27-.8v-4.1h2.25zm7.17 4.35c-.34.33-.68.57-1.03.74-.35.17-.76.25-1.23.25-.62 0-1.15-.18-1.58-.55s-.71-.89-.82-1.58h6.14c.01-.09.02-.18.02-.27.01-.08.01-.17.01-.25 0-.6-.08-1.18-.25-1.73a4.29 4.29 0 0 0-.75-1.44c-.33-.41-.75-.74-1.25-.98s-1.08-.36-1.75-.36c-.6 0-1.15.12-1.65.35-.5.23-.93.55-1.29.94-.36.4-.65.86-.85 1.39-.2.53-.3 1.09-.3 1.69 0 .65.11 1.25.33 1.78.22.53.53.99.91 1.37.39.38.84.68 1.36.89.52.21 1.08.32 1.69.32.77 0 1.43-.14 1.99-.43s1.03-.66 1.43-1.14l-1.13-.99zm-3.98-3.98c.39-.41.87-.61 1.46-.61.32 0 .6.06.85.17.25.12.46.27.64.47.18.2.32.43.43.7.11.27.17.56.21.86h-4.29c.08-.66.31-1.19.7-1.59zm13.07 6.36h1.93V93.47h-1.93v4.5a4.73 4.73 0 0 0-1.14-1.03c-.45-.3-1.02-.44-1.71-.44-.49 0-.98.09-1.44.28-.47.19-.88.47-1.24.85-.36.37-.64.83-.86 1.37-.22.54-.32 1.16-.32 1.85s.11 1.31.33 1.85c.22.54.51.99.87 1.37.36.37.77.66 1.23.85.46.19.94.28 1.44.28.67 0 1.24-.15 1.7-.46.46-.31.84-.68 1.15-1.11v1.4zm-.17-3.08c-.13.33-.31.61-.53.85-.22.24-.48.42-.77.55-.3.13-.6.19-.91.19-.33 0-.63-.06-.92-.19-.29-.13-.55-.31-.77-.54-.22-.23-.39-.52-.52-.85s-.19-.7-.19-1.12c0-.42.06-.8.19-1.13s.3-.61.52-.85c.22-.23.48-.41.77-.53.29-.12.6-.18.92-.18.32 0 .62.06.91.19.3.13.55.31.77.55.22.24.4.52.53.85.13.33.2.7.2 1.11 0 .41-.07.78-.2 1.1zm10.79 3.22c.36 0 .68-.04.95-.11.27-.07.53-.18.78-.32v-1.57c-.38.19-.78.28-1.19.28-.33 0-.58-.08-.76-.25-.18-.16-.27-.43-.27-.8v-4.1h2.25v-1.63h-2.25v-2.3h-1.93v2.3h-1.06v1.63h1.06v4.41c0 .47.06.85.18 1.17.12.31.28.56.5.75.22.19.48.33.77.41.3.09.63.13.97.13zm9.99-1.25c.4-.4.71-.86.93-1.39.23-.53.34-1.09.34-1.69a4.316 4.316 0 0 0-1.26-3.08c-.4-.4-.87-.71-1.41-.93-.54-.23-1.14-.34-1.78-.34-.64 0-1.24.12-1.78.35-.54.23-1.01.55-1.41.94-.4.4-.71.86-.93 1.39-.23.53-.34 1.1-.34 1.7 0 .6.11 1.16.33 1.69.22.52.53.98.93 1.38.4.4.86.71 1.41.93.54.23 1.13.34 1.77.34.64 0 1.24-.12 1.79-.35s1.01-.54 1.41-.94zm-3.18-.37c-.37 0-.71-.07-1.02-.21-.31-.14-.58-.34-.8-.58-.23-.24-.4-.53-.53-.86-.13-.33-.19-.68-.19-1.05s.06-.72.17-1.04c.12-.32.28-.6.5-.85.22-.24.48-.44.8-.58.31-.14.65-.21 1.03-.21s.72.07 1.03.21c.31.14.58.34.8.59.23.25.4.54.53.86.13.33.19.68.19 1.05s-.06.72-.17 1.04c-.11.32-.28.6-.5.85-.22.24-.49.44-.8.58-.3.13-.65.2-1.04.2zm12.92 1.21c.45.3 1.02.44 1.71.44.5 0 .98-.1 1.45-.28.47-.19.89-.47 1.25-.85s.65-.83.87-1.37c.22-.54.32-1.16.32-1.85s-.11-1.31-.33-1.85c-.22-.54-.51-.99-.88-1.37-.36-.37-.78-.66-1.24-.85-.46-.19-.94-.28-1.44-.28-.67 0-1.24.15-1.69.45-.45.3-.83.67-1.14 1.12v-4.59h-1.93v11.56h1.93l-.02-1.3c.32.38.69.72 1.14 1.02zm-1.15-3.92c0-.41.07-.78.2-1.11.13-.33.31-.61.53-.85.22-.24.48-.42.78-.55.3-.13.61-.19.93-.19a2.277 2.277 0 0 1 1.69.73c.22.23.39.52.51.85.13.33.19.7.19 1.12 0 .41-.06.78-.19 1.12-.13.33-.3.62-.51.85-.22.23-.47.41-.76.54-.29.13-.6.19-.93.19s-.64-.06-.93-.19c-.3-.13-.55-.31-.78-.55-.22-.24-.4-.52-.53-.85-.14-.32-.2-.69-.2-1.11zm13.91 3.95a4.65 4.65 0 0 0 1.43-1.14l-1.12-1c-.34.33-.68.57-1.03.74-.35.17-.76.25-1.24.25-.62 0-1.15-.18-1.58-.55-.43-.36-.71-.89-.82-1.58h6.14c.01-.09.02-.18.02-.27.01-.08.01-.17.01-.25 0-.6-.09-1.18-.25-1.73a4.29 4.29 0 0 0-.75-1.44c-.33-.41-.75-.74-1.25-.98s-1.09-.36-1.75-.36c-.6 0-1.15.12-1.65.35-.5.23-.93.55-1.29.94-.36.4-.65.86-.85 1.39-.2.53-.3 1.09-.3 1.69 0 .65.11 1.25.33 1.78a4.056 4.056 0 0 0 2.27 2.26c.52.21 1.09.32 1.69.32.77 0 1.44-.14 1.99-.42zm-3.67-6.12c.39-.41.87-.61 1.47-.61.32 0 .6.06.85.17.25.12.46.27.64.47.18.2.32.43.43.7.1.27.17.56.2.86h-4.29c.08-.66.31-1.19.7-1.59zm6.89-2.01h1.93v8.36h-1.93zm-.08-3.1h2.07v1.82h-2.07zm9.44 11.47h1.93V99.7c0-.98-.26-1.76-.77-2.34-.52-.58-1.25-.87-2.19-.87-.33 0-.62.04-.88.12a2.976 2.976 0 0 0-1.28.8c-.16.18-.31.36-.45.57v-1.31h-1.93v8.36h1.93v-4.71c0-.65.17-1.16.52-1.52s.8-.55 1.35-.55c.56 0 1 .18 1.31.53.31.35.46.86.46 1.51v4.74zm9.25.36c-.45.44-1.11.65-1.96.65-.57 0-1.1-.08-1.58-.24s-.95-.38-1.39-.65l-.71 1.44c1.1.66 2.34 1 3.74 1 1.44 0 2.54-.34 3.32-1.03.78-.69 1.17-1.77 1.17-3.25v-6.65h-1.92v1.26c-.33-.39-.72-.73-1.18-1.01-.46-.28-1.04-.42-1.75-.42-.48 0-.96.09-1.42.27-.46.18-.87.44-1.22.78s-.64.75-.85 1.23c-.21.49-.32 1.04-.32 1.66 0 .62.11 1.18.32 1.66s.49.9.85 1.23c.35.34.76.59 1.21.77.45.17.93.26 1.42.26.69 0 1.26-.14 1.73-.43.46-.29.87-.66 1.22-1.12v.65c0 .86-.23 1.5-.68 1.94zm.5-4.02c-.13.28-.31.52-.53.72-.22.2-.48.36-.78.47-.3.11-.61.16-.94.16s-.64-.05-.93-.16a2.22 2.22 0 0 1-.75-.47c-.21-.2-.38-.45-.51-.73-.13-.28-.19-.6-.19-.94 0-.35.06-.66.18-.94.12-.28.29-.52.51-.72.22-.2.47-.35.75-.46.28-.11.6-.17.93-.17.33 0 .64.06.94.17.3.11.56.26.78.46.22.2.4.44.53.73s.2.61.2.95c0 .34-.06.65-.19.93zm14.06-3.91c-.6-.62-1.53-.93-2.77-.93-.69 0-1.27.06-1.76.19s-.96.3-1.43.51l.52 1.54c.38-.16.75-.28 1.12-.38.37-.09.79-.14 1.27-.14.66 0 1.17.15 1.53.46.35.31.53.75.53 1.33v.21c-.33-.11-.67-.19-1.02-.25s-.78-.09-1.29-.09c-.48 0-.94.06-1.35.17-.42.11-.78.28-1.08.5-.3.22-.54.5-.7.84-.17.34-.25.73-.25 1.19v.03c0 .42.08.8.24 1.12.16.32.38.59.65.81.27.22.58.38.94.49.36.11.74.17 1.14.17.63 0 1.17-.12 1.61-.35.44-.23.81-.52 1.09-.86v1.03h1.9v-4.96c.02-1.14-.28-2.01-.89-2.63zm-.95 4.54a1.553 1.553 0 0 1-.64 1.27c-.2.15-.44.27-.7.36-.27.08-.56.13-.88.13-.45 0-.84-.11-1.15-.32-.31-.21-.47-.52-.47-.92v-.03c0-.43.17-.77.51-1 .34-.23.81-.35 1.41-.35.37 0 .72.03 1.05.1s.62.14.86.24v.52zM8.18 115.39h4.66l-4.83 5.48v1.31h7.27v-1.57h-4.83l4.83-5.48v-1.31h-7.1zm14.83-.4c-.33-.41-.75-.74-1.25-.98s-1.08-.36-1.75-.36c-.6 0-1.15.12-1.65.35-.5.23-.93.55-1.29.94-.36.4-.65.86-.85 1.39-.2.53-.3 1.09-.3 1.69 0 .65.11 1.25.33 1.78.22.53.53.99.91 1.37.39.38.84.68 1.36.89.52.21 1.08.32 1.69.32.77 0 1.43-.14 1.99-.43a4.65 4.65 0 0 0 1.43-1.14l-1.12-1c-.34.33-.68.57-1.03.74-.35.17-.76.25-1.24.25-.62 0-1.15-.18-1.58-.55-.43-.36-.71-.89-.82-1.58h6.14c.01-.09.02-.18.02-.27.01-.08.01-.17.01-.25 0-.6-.08-1.18-.25-1.73-.16-.54-.41-1.02-.75-1.43zm-5.18 2.42c.08-.65.32-1.18.7-1.59.39-.41.87-.61 1.46-.61.32 0 .6.06.85.17.25.12.46.27.64.47.18.2.32.43.43.7.1.27.17.56.21.86h-4.29zm9.42-1.71v-1.88h-1.93v8.36h1.93V119c0-.55.07-1.03.21-1.45.14-.42.33-.76.59-1.04s.55-.48.9-.62.73-.21 1.16-.21h.11v-2.03c-.74-.03-1.35.14-1.84.52-.49.39-.87.9-1.13 1.53zm10.88-.78c-.4-.4-.87-.71-1.41-.93s-1.14-.34-1.78-.34c-.64 0-1.24.12-1.78.35-.54.23-1.01.55-1.41.94-.4.4-.71.86-.93 1.39-.23.53-.34 1.1-.34 1.7 0 .6.11 1.16.33 1.69.22.52.53.98.93 1.38.4.4.87.71 1.41.93.54.23 1.13.34 1.77.34.64 0 1.24-.12 1.79-.35.55-.23 1.02-.55 1.42-.94s.71-.86.93-1.39c.23-.53.34-1.09.34-1.69s-.11-1.17-.33-1.69c-.23-.53-.54-1-.94-1.39zm-.84 4.15c-.12.32-.28.6-.5.85-.22.24-.49.44-.8.58-.31.14-.66.21-1.05.21-.37 0-.71-.07-1.02-.21-.31-.14-.58-.34-.8-.58-.23-.24-.4-.53-.53-.86-.13-.33-.19-.68-.19-1.05s.06-.72.17-1.04c.12-.32.28-.6.5-.85.22-.24.49-.44.8-.58.31-.14.65-.21 1.03-.21s.72.07 1.03.21c.31.14.58.34.8.59.23.25.4.54.53.86.13.33.19.68.19 1.05.01.36-.05.71-.16 1.03zm9.86-7.55h-1.93v2.3h-1.06v1.63h1.06v4.41c0 .47.06.85.18 1.17.12.31.28.56.5.75.22.19.48.33.77.41.3.09.62.13.97.13.36 0 .68-.04.95-.11.27-.07.53-.18.78-.32v-1.57c-.38.19-.78.28-1.19.28-.33 0-.58-.08-.76-.25-.18-.16-.27-.43-.27-.8v-4.11h2.25v-1.63h-2.25v-2.29zm10.49 3.4c-.4-.4-.87-.71-1.41-.93s-1.14-.34-1.78-.34c-.64 0-1.24.12-1.78.35-.54.23-1.01.55-1.41.94-.4.4-.71.86-.93 1.39-.23.53-.34 1.1-.34 1.7 0 .6.11 1.16.33 1.69.22.52.53.98.93 1.38.4.4.87.71 1.41.93s1.13.34 1.77.34c.64 0 1.24-.12 1.79-.35a4.51 4.51 0 0 0 1.42-.94c.4-.4.71-.86.93-1.39.23-.53.34-1.09.34-1.69s-.11-1.17-.33-1.69c-.23-.53-.54-1-.94-1.39zm-.84 4.15c-.12.32-.28.6-.5.85-.22.24-.49.44-.8.58-.31.14-.66.21-1.05.21-.37 0-.71-.07-1.02-.21-.31-.14-.58-.34-.8-.58-.23-.24-.4-.53-.53-.86-.13-.33-.19-.68-.19-1.05s.06-.72.17-1.04c.12-.32.28-.6.5-.85.22-.24.49-.44.8-.58.31-.14.65-.21 1.03-.21s.72.07 1.03.21c.31.14.58.34.8.59.23.25.4.54.53.86.13.33.19.68.19 1.05.01.36-.05.71-.16 1.03zm7.64-8.45h1.93v11.56h-1.93zm7.13 3.07c-.69 0-1.27.06-1.76.19s-.96.3-1.42.51l.52 1.54c.38-.16.75-.28 1.12-.38.37-.09.79-.14 1.27-.14.66 0 1.17.15 1.53.46.35.31.53.75.53 1.33v.21c-.33-.11-.67-.19-1.02-.25s-.78-.09-1.29-.09c-.49 0-.94.06-1.35.17s-.78.28-1.08.5c-.3.22-.54.5-.7.84-.17.34-.25.73-.25 1.19v.03c0 .42.08.8.25 1.12.16.32.38.59.65.81.27.22.58.38.94.49s.74.17 1.14.17c.63 0 1.17-.12 1.62-.35.44-.23.81-.52 1.09-.86v1.03h1.9v-4.96c0-1.12-.3-1.99-.9-2.61-.62-.64-1.55-.95-2.79-.95zm1.82 5.46a1.553 1.553 0 0 1-.64 1.27c-.2.15-.44.27-.7.36-.27.08-.56.13-.88.13-.45 0-.84-.11-1.15-.32-.31-.21-.47-.52-.47-.92v-.03c0-.43.17-.77.51-1 .34-.23.81-.35 1.41-.35.37 0 .72.03 1.05.1.33.06.62.14.86.24v.52zm8.04-5.51c-.33 0-.62.04-.88.12a2.976 2.976 0 0 0-1.28.8c-.16.18-.31.36-.45.57v-1.31h-1.93v8.36h1.93v-4.71c0-.65.17-1.16.52-1.52s.8-.55 1.35-.55c.57 0 1 .18 1.31.53.31.35.46.86.46 1.51v4.74h1.93v-5.32c0-.98-.26-1.76-.77-2.34-.51-.59-1.25-.88-2.19-.88zm10.93 1.48c-.31-.39-.68-.73-1.14-1.03s-1.02-.44-1.71-.44c-.49 0-.98.09-1.45.28-.47.19-.88.47-1.24.85s-.65.83-.86 1.37c-.22.54-.32 1.16-.32 1.85s.11 1.31.33 1.85c.22.54.51.99.87 1.37.36.37.77.66 1.23.85.46.19.94.28 1.44.28.67 0 1.24-.15 1.7-.46.46-.31.84-.68 1.14-1.11v1.39h1.93v-11.56h-1.93v4.51zm-.17 3.99c-.13.33-.31.61-.53.85-.22.24-.48.42-.77.55-.3.13-.6.19-.92.19-.33 0-.63-.06-.92-.19-.29-.13-.55-.31-.77-.54-.22-.23-.39-.52-.52-.85s-.19-.7-.19-1.12c0-.42.06-.8.19-1.13.13-.33.3-.61.52-.85.22-.23.48-.41.77-.53a2.395 2.395 0 0 1 1.84.01c.29.13.55.31.77.55.22.24.4.52.53.85.13.33.2.7.2 1.11 0 .4-.06.77-.2 1.1zm6.87-8.59c-.83 0-1.46.22-1.91.67-.45.45-.67 1.14-.67 2.07v.6h-1.06v1.6h1.06v6.71h1.93v-6.71h2.18v-1.58h-2.22v-.46c0-.85.37-1.27 1.11-1.27.21 0 .4.02.58.06.17.04.36.09.55.15v-1.61c-.21-.06-.44-.12-.68-.16-.24-.04-.53-.07-.87-.07zm2.42 3.3h1.93v8.36h-1.93zm-.08-3.11h2.07v1.82h-2.07zm3.98-.09h1.93v11.56h-1.93zm3.89 0h1.93v11.56h-1.93zm17.7 3.02c-.63 0-1.18.14-1.64.41-.46.27-.86.63-1.2 1.08-.22-.45-.54-.81-.96-1.08-.42-.27-.93-.41-1.53-.41-.32 0-.6.04-.86.12s-.49.19-.7.33c-.21.14-.39.29-.55.46-.16.17-.31.35-.44.54v-1.28h-1.93v8.36h1.93v-4.69c0-.65.16-1.16.49-1.53.33-.37.76-.55 1.29-.55.54 0 .95.17 1.25.52.29.35.44.85.44 1.5v4.76h1.93v-4.71c0-.67.17-1.19.5-1.54.33-.35.76-.53 1.28-.53.54 0 .95.17 1.24.52.29.35.44.85.44 1.52v4.74h1.93v-5.34c0-1.02-.26-1.81-.78-2.37-.49-.55-1.21-.83-2.13-.83zm7.95.05c-.69 0-1.27.06-1.76.19s-.96.3-1.43.51l.52 1.54c.38-.16.75-.28 1.12-.38.37-.09.79-.14 1.27-.14.66 0 1.17.15 1.53.46.35.31.53.75.53 1.33v.21c-.33-.11-.67-.19-1.02-.25s-.78-.09-1.29-.09c-.48 0-.94.06-1.35.17-.42.11-.78.28-1.08.5-.3.22-.54.5-.7.84-.17.34-.25.73-.25 1.19v.03c0 .42.08.8.24 1.12.16.32.38.59.65.81.27.22.58.38.94.49.36.11.74.17 1.14.17.63 0 1.17-.12 1.61-.35.44-.23.81-.52 1.09-.86v1.03h1.9v-4.96c0-1.12-.3-1.99-.9-2.61-.59-.64-1.51-.95-2.76-.95zm1.82 5.46a1.553 1.553 0 0 1-.64 1.27c-.2.15-.44.27-.7.36-.27.08-.56.13-.88.13-.45 0-.84-.11-1.15-.32-.31-.21-.47-.52-.47-.92v-.03c0-.43.17-.77.51-1 .34-.23.81-.35 1.41-.35.37 0 .72.03 1.05.1.33.06.62.14.86.24v.52zm8.04-5.51c-.33 0-.62.04-.88.12-.26.08-.49.19-.71.33-.22.14-.4.3-.57.47-.16.18-.31.36-.45.57v-1.31h-1.93v8.36h1.93v-4.71c0-.65.17-1.16.52-1.52s.8-.55 1.35-.55c.57 0 1 .18 1.31.53.31.35.46.86.46 1.51v4.74h1.93v-5.32c0-.98-.26-1.76-.77-2.34-.51-.59-1.24-.88-2.19-.88zm10.13 4.89c0 .65-.17 1.16-.52 1.52-.35.36-.8.55-1.35.55-.57 0-1-.18-1.31-.53-.31-.35-.46-.86-.46-1.51v-4.74h-1.93v5.32c0 .98.26 1.76.77 2.34.52.58 1.25.87 2.2.87.64 0 1.17-.15 1.58-.44.41-.29.75-.64 1.03-1.05v1.31h1.93v-8.36h-1.93v4.72zm8.25-4.65h-2.22v-.46c0-.85.37-1.27 1.11-1.27.21 0 .4.02.58.06.17.04.36.09.55.15v-1.61c-.21-.06-.44-.12-.68-.16a5.39 5.39 0 0 0-.87-.06c-.83 0-1.46.22-1.91.67-.45.45-.67 1.14-.67 2.07v.6h-1.06v1.6h1.06v6.71h1.93v-6.71h2.18v-1.59zm3.88-.19c-.69 0-1.27.06-1.76.19s-.96.3-1.43.51l.52 1.54c.38-.16.75-.28 1.12-.38.37-.09.79-.14 1.27-.14.66 0 1.17.15 1.53.46.35.31.53.75.53 1.33v.21c-.33-.11-.67-.19-1.02-.25s-.78-.09-1.29-.09c-.48 0-.94.06-1.35.17-.42.11-.78.28-1.08.5-.3.22-.54.5-.7.84-.17.34-.25.73-.25 1.19v.03c0 .42.08.8.24 1.12.16.32.38.59.65.81.27.22.58.38.94.49.36.11.74.17 1.14.17.63 0 1.17-.12 1.61-.35.44-.23.81-.52 1.09-.86v1.03h1.9v-4.96c0-1.12-.3-1.99-.9-2.61-.6-.64-1.52-.95-2.76-.95zm1.82 5.46a1.553 1.553 0 0 1-.64 1.27c-.2.15-.44.27-.7.36-.27.08-.56.13-.88.13-.45 0-.84-.11-1.15-.32-.31-.21-.47-.52-.47-.92v-.03c0-.43.17-.77.51-1 .34-.23.81-.35 1.41-.35.37 0 .72.03 1.05.1.33.06.62.14.86.24v.52zm8.67 1.26c-.34.2-.74.29-1.2.29a2.37 2.37 0 0 1-1.8-.79c-.22-.24-.39-.53-.52-.86s-.18-.68-.18-1.06c0-.37.06-.72.18-1.04s.29-.6.5-.85c.21-.24.47-.44.76-.58.3-.14.62-.21.97-.21.48 0 .89.1 1.23.29.33.19.65.45.94.75l1.19-1.28c-.39-.43-.85-.78-1.37-1.05-.52-.26-1.18-.4-1.97-.4a4.305 4.305 0 0 0-3.11 1.3c-.39.4-.69.87-.91 1.39-.22.53-.33 1.09-.33 1.69a4.352 4.352 0 0 0 1.24 3.07c.39.4.85.71 1.38.93.53.23 1.1.34 1.73.34.81 0 1.48-.14 2.01-.43.53-.29 1-.67 1.41-1.13l-1.16-1.14c-.33.33-.65.58-.99.77zm5.56-8.89h-1.93v2.3h-1.06v1.63h1.06v4.41c0 .47.06.85.18 1.17.12.31.28.56.5.75.22.19.48.33.77.41.3.09.62.13.97.13.36 0 .68-.04.95-.11.27-.07.53-.18.78-.32v-1.57c-.38.19-.78.28-1.19.28-.33 0-.58-.08-.76-.25-.18-.16-.27-.43-.27-.8v-4.11h2.25v-1.63h-2.25v-2.29zm9.01 7.01c0 .65-.17 1.16-.52 1.52-.35.36-.8.55-1.35.55-.57 0-1-.18-1.31-.53-.31-.35-.46-.86-.46-1.51v-4.74h-1.93v5.32c0 .98.26 1.76.77 2.34.52.58 1.25.87 2.2.87.64 0 1.17-.15 1.58-.44.41-.29.75-.64 1.03-1.05v1.31h1.93v-8.36h-1.93v4.72zm5.64-2.83v-1.88h-1.93v8.36h1.93V119c0-.55.07-1.03.21-1.45.14-.42.33-.76.59-1.04.25-.27.55-.48.9-.62s.73-.21 1.16-.21h.11v-2.03c-.74-.03-1.35.14-1.84.52-.49.39-.87.9-1.13 1.53zm10.32-.71c-.33-.41-.75-.74-1.25-.98s-1.09-.36-1.75-.36c-.6 0-1.15.12-1.65.35-.5.23-.93.55-1.29.94-.36.4-.65.86-.85 1.39-.2.53-.3 1.09-.3 1.69 0 .65.11 1.25.33 1.78a4.056 4.056 0 0 0 2.27 2.26c.52.21 1.09.32 1.69.32.77 0 1.43-.14 1.99-.43a4.65 4.65 0 0 0 1.43-1.14l-1.12-1c-.34.33-.68.57-1.03.74-.35.17-.76.25-1.24.25-.62 0-1.15-.18-1.58-.55-.43-.36-.71-.89-.82-1.58h6.14c.01-.09.02-.18.02-.27.01-.08.01-.17.01-.25 0-.6-.09-1.18-.25-1.73-.17-.54-.42-1.02-.75-1.43zm-5.19 2.42c.09-.65.32-1.18.7-1.59.39-.41.87-.61 1.47-.61.32 0 .6.06.85.17.25.12.46.27.64.47.18.2.32.43.43.7.1.27.17.56.2.86h-4.29zm12.38-1.72v-2.03c-.74-.03-1.35.14-1.84.52s-.86.89-1.13 1.52v-1.88h-1.93v8.36h1.93V119c0-.55.07-1.03.21-1.45.14-.42.33-.76.59-1.04.25-.27.55-.48.9-.62s.73-.21 1.16-.21h.11zm-.54 4.32h2.11v2.17h-2.11z"/></svg>