<svg xmlns="http://www.w3.org/2000/svg" viewBox="0 0 202.8 142.2"><path d="M75.1 16.4H46.8c-6.4 0-11.5 5.2-11.5 11.5v28.3c0 6.4 5.2 11.5 11.5 11.5h28.3c6.4 0 11.5-5.2 11.5-11.5V27.9c0-6.3-5.2-11.5-11.5-11.5zm8 39.8c0 4.4-3.6 8-8 8H46.8c-4.4 0-8-3.6-8-8V27.9c0-4.4 3.6-8 8-8h28.3c4.4 0 8 3.6 8 8v28.3zM44.5 42.1l24.8-12.8h-24c-1 0-1.7-.8-1.7-1.7 0-1 .8-1.7 1.7-1.7h31.2c.8 0 1.5.6 1.7 1.3.2.8-.2 1.6-.9 2l-31.2 16c-.3.1-.5.2-.8.2-.6 0-1.2-.3-1.5-.9-.5-.9-.1-1.9.7-2.4zm33.8 14.5c0 1-.8 1.7-1.7 1.7H45.3c-.8 0-1.5-.6-1.7-1.3-.2-.8.2-1.6.9-2l31.2-16c.9-.4 1.9-.1 2.3.7.4.9.1 1.9-.7 2.3L52.5 54.9h24c1 0 1.8.8 1.8 1.7zm54.5-40.2h-28.3c-6.4 0-11.5 5.2-11.5 11.5v28.3c0 6.4 5.2 11.5 11.5 11.5h28.3c6.4 0 11.5-5.2 11.5-11.5V27.9c0-6.3-5.2-11.5-11.5-11.5zm8 39.8c0 4.4-3.6 8-8 8h-28.3c-4.4 0-8-3.6-8-8V27.9c0-4.4 3.6-8 8-8h28.3c4.4 0 8 3.6 8 8v28.3zm-38.6-14.1L127 29.3h-24c-1 0-1.7-.8-1.7-1.7 0-1 .8-1.7 1.7-1.7h31.2c.8 0 1.5.6 1.7 1.3.2.8-.2 1.6-.9 2l-31.2 16.1c-.3.1-.5.2-.8.2-.6 0-1.2-.3-1.5-.9-.4-1-.1-2 .7-2.5zM136 56.6c0 1-.8 1.7-1.7 1.7H103c-.8 0-1.5-.6-1.7-1.3-.2-.8.2-1.6.9-2l31.2-16c.9-.4 1.9-.1 2.3.7.4.9.1 1.9-.7 2.3l-24.8 12.8h24c1 .1 1.8.9 1.8 1.8zm55.3-40.2H163c-6.4 0-11.5 5.2-11.5 11.5v28.3c0 6.4 5.2 11.5 11.5 11.5h28.3c6.4 0 11.5-5.2 11.5-11.5V27.9c0-6.3-5.1-11.5-11.5-11.5zm8 39.8c0 4.4-3.6 8-8 8H163c-4.4 0-8-3.6-8-8V27.9c0-4.4 3.6-8 8-8h28.3c4.4 0 8 3.6 8 8v28.3zm-38.5-14.1 24.8-12.8h-24c-1 0-1.7-.8-1.7-1.7 0-1 .8-1.7 1.7-1.7h31.2c.8 0 1.5.6 1.7 1.3.2.8-.2 1.6-.9 2l-31.2 16.1c-.3.1-.5.2-.8.2-.6 0-1.2-.3-1.5-.9-.5-1-.2-2 .7-2.5zm33.7 14.5c0 1-.8 1.7-1.7 1.7h-31.2c-.8 0-1.5-.6-1.7-1.3-.2-.8.2-1.6.9-2L192 39c.9-.4 1.9-.1 2.3.7.4.9.1 1.9-.7 2.3l-24.8 12.8h24c.9.1 1.7.9 1.7 1.8zm-52.6 17.1c-1.4 38-32.6 68.4-70.9 68.4-39.2 0-71-31.8-71-71.1S31.8 0 71 0c14.4 0 27.7 4.3 38.9 11.6H103c-9.5-5.2-20.5-8.1-32-8.1-37.2 0-67.5 30.3-67.5 67.6s30.3 67.6 67.5 67.6c36.3 0 66-28.9 67.4-64.9h3.5z"/></svg>