<svg xmlns="http://www.w3.org/2000/svg" viewBox="0 0 215.5 112.1" xml:space="preserve"><path d="M215 73.9c-.6-.9-16.8-20-72.2-17.7-46.4 1.9-61.6 18-65.6 23.9-1.6-1.3-3.2-2.5-4.7-3.8C63.6 69 55.1 62.2 45 57.7 13.9 43.8.3 70.8.2 71c-.5 1-.1 2.2.9 2.7s2.2.1 2.7-.9 12-23.7 39.5-11.4c9.5 4.2 17.8 10.9 26.6 18 18.2 14.7 38.8 31.3 78 32.7 1.1 0 2-.9 2-2s-.9-2-2-2c-32.3-1.2-51.6-13.2-67.7-25.5C83.6 78 97.7 62.1 143 60.2c53-2.2 68.7 16 68.9 16.2.7.9 2 1 2.8.3s1-2 .3-2.8z"/><path d="M53.2 39.3c.1 0 9.9 2.5 13.3 10.3.7 1.6 1.5 3.3 3.1 3.3h.4c1.8-.3 2-2 2.4-4.5.5-4.2 1.3-12.1 7.5-14 1.1-.3 1.7-1.5 1.3-2.5-.3-1.1-1.5-1.7-2.5-1.3-7.2 2.2-9.2 9.4-10 14.5-4.9-7.4-14-9.6-14.5-9.7-1.1-.3-2.2.4-2.5 1.5-.2 1.1.4 2.2 1.5 2.4zM119.9 35.5l1.4-1.5c.1-.1 9.5-10.2 17.8-10.8 1.1-.1 1.9-1 1.9-2.1-.1-1.1-1-1.9-2.1-1.9-7.8.6-15.8 7.4-19 10.6l-6.3-6.2c-.8-.8-2.1-.8-2.8 0-.8.8-.8 2.1 0 2.9l9.1 9zM71.7 7c.1 0 11.4 3.3 15.9 9.4.8 1 1.9 2.6 3.5 2.6h.4c1.7-.3 2.1-1.9 2.6-3.6.9-3.2 2.4-8.5 9.9-11.5 1-.4 1.6-1.6 1.2-2.6-.4-1-1.6-1.6-2.6-1.2-6 2.1-10.6 7.2-12.1 13.4C85 6.6 73.3 3.3 72.8 3.1c-1.1-.3-2.2.3-2.5 1.4-.3 1.1.3 2.2 1.4 2.5z"/></svg>