<svg xmlns="http://www.w3.org/2000/svg" viewBox="0 0 156.8 166.7"><path d="M136.9 31.2c26.5 29.7 26.5 74.5 0 104.3-10.6 11.9-24.3 20.2-39.7 24-14.3 3.5-29 3-42.9-1.5l.5 7.3c.1 1.3-1.6 2-2.4 1l-15.6-17.7c-.8-.9-.1-2.4 1.1-2.3l23.6 1.8c1.3.1 1.8 1.8.7 2.5l-6 4c28 8.8 58.3.5 78-21.5 25.2-28.3 25.2-70.9 0-99.1-.7-.8-.6-2 .2-2.7.6-.9 1.8-.9 2.5-.1M22.7 132.9c-25.2-28.2-25.2-70.8 0-99.1 19.7-22.1 50-30.4 78-21.5l-6.1 4c-1.1.7-.7 2.4.7 2.5l23.6 1.7c1.2.1 2-1.4 1.1-2.3L104.5.5c-.9-1-2.5-.3-2.4 1l.5 7.3c-13.9-4.5-28.7-5-42.9-1.5-15.4 3.8-29.2 12.1-39.7 24C-6.5 61-6.5 105.9 20 135.6c0 .1.1.1.2.2.7.6 1.8.7 2.6 0 .6-.9.7-2.1-.1-2.9M55 57.7c1.5 0 2.7-1.3 2.7-2.8 0-1.5-1.2-2.7-2.7-2.7h-.1c-6.4.1-11.4 3.2-14.4 8.9-2.1 4.1-2.5 8.1-2.5 8.3-.1 1.5 1 2.8 2.5 2.9h.2c1.4 0 2.6-1.1 2.7-2.5 0 0 .3-3.1 1.9-6.2 2.1-3.8 5.2-5.8 9.7-5.9m66.6-8.9c10.5 10.5 10.5 27.6 0 38.2l-5.1 5.1-35.6 35.6-.6.6c-.4.3-1.1.7-2 .7-.9 0-1.5-.4-2-.7L40.2 92.1l-5-5.1c-10.5-10.5-10.5-27.6 0-38.2 10.5-10.5 27.6-10.5 38.2 0l3.8 3.8c.7.7 1.8.7 2.5 0l3.8-3.8c10.5-10.5 27.6-10.5 38.1 0" fill="#010202"/></svg>