<svg xmlns="http://www.w3.org/2000/svg" viewBox="0 0 47.3 57.7"><path d="M6.7 21.1c-3.5 1-6 4.2-6 7.9v19.5c0 4.6 3.7 8.3 8.2 8.3h29.5c4.5 0 8.2-3.7 8.2-8.2V29c.1-3.7-2.4-6.9-5.9-7.9v-4.8c0-8.5-7.6-15.5-17-15.5s-17 7-17 15.5h4c0-6.3 5.8-11.5 13-11.5s13 5.2 13 11.5v4.5h-26m27.8 32H8.9c-2.3 0-4.2-1.9-4.2-4.2V29c0-2.3 1.9-4.2 4.2-4.2h29.5c2.3 0 4.2 1.9 4.2 4.2l.1 19.6c0 2.3-1.9 4.2-4.2 4.2z"/><path d="M23.7 30c-2.8 0-5 2.3-5 5v6c0 2.8 2.3 5 5 5 2.8 0 5-2.3 5-5v-6c0-2.7-2.2-5-5-5zm2 11c0 1.1-.9 2-2 2s-2-.9-2-2v-6c0-1.1.9-2 2-2s2 .9 2 2v6z"/></svg>