<svg xmlns="http://www.w3.org/2000/svg" viewBox="0 0 203.3 251.4" xml:space="preserve"><path d="M6.9 41.9c2.3 2 5.1 3.6 8 4.5 3.4 1.1 6.9 1.6 10.5 1.6 2.8.1 5.6-.4 8.2-1.3 2.3-.8 4.3-2 6.2-3.5-.3 4.2-1.8 8.3-4.3 11.8-2.3 3-5.7 4.5-10.1 4.5-2.8 0-5.5-.5-8.1-1.5-2.7-1.2-5.2-2.7-7.4-4.6L1.6 65.1c3 2.5 6.4 4.5 10.1 6 4.2 1.7 8.8 2.5 13.3 2.4 4.6.1 9.2-.9 13.4-2.8 3.8-1.8 7.1-4.6 9.7-7.9 2.7-3.7 4.7-7.8 5.9-12.2 1.4-5.2 2.1-10.5 2-15.9 0-3.2-.2-6.3-.6-9.4-.3-2.5-.9-5-1.7-7.4-.7-2-1.5-3.9-2.6-5.7-1-1.6-2.1-3-3.4-4.4-1.3-1.3-2.7-2.5-4.2-3.5-1.4-1-3-1.8-4.6-2.4-1.7-.6-3.5-1.1-5.3-1.4-2.2-.4-4.3-.5-6.5-.5-3.7 0-7.5.6-11 1.9C12.9 3 10 4.8 7.5 7.1 5.2 9.3 3.3 12 2 15c-1.4 3.2-2 6.6-2 10-.1 3.3.5 6.6 1.8 9.7 1.1 2.8 2.9 5.2 5.1 7.2zm11.7-25.5c2.1-2 5.1-3 9-3s7 1 9.2 3c2.2 2 3.4 4.9 3.3 7.9.1 2.9-1.1 5.7-3.2 7.7s-5.1 3-9 3c-3.9 0-6.9-1-9.1-2.9-2.2-2-3.4-4.8-3.3-7.8-.2-3 1-5.9 3.1-7.9zM70 41.9c2.3 2 5.1 3.6 8 4.5 3.4 1.1 6.9 1.6 10.5 1.6 2.8.1 5.6-.4 8.2-1.3 2.3-.8 4.3-2 6.2-3.5-.3 4.2-1.8 8.3-4.3 11.8-2.3 3-5.7 4.5-10.1 4.5-2.8 0-5.5-.5-8.1-1.5-2.7-1.2-5.2-2.7-7.4-4.6l-8.2 11.8c3 2.5 6.4 4.5 10 6 4.2 1.6 8.8 2.4 13.3 2.3 4.6.1 9.2-.9 13.4-2.8 3.8-1.8 7.1-4.6 9.7-7.9 2.7-3.7 4.8-7.8 5.9-12.2 1.4-5.2 2.1-10.5 2-15.9 0-3.2-.2-6.3-.6-9.4-.3-2.5-.9-5-1.7-7.4-.7-2-1.6-3.9-2.6-5.7-1-1.6-2.1-3-3.4-4.4-1.3-1.3-2.7-2.5-4.2-3.5-1.4-1-2.9-1.7-4.5-2.3-1.7-.6-3.5-1.1-5.3-1.4-2.3-.5-4.4-.6-6.6-.6-3.7 0-7.5.6-11 1.9C76 3 73.1 4.8 70.6 7.1c-2.4 2.2-4.2 4.9-5.5 7.9-1.4 3.2-2 6.6-2 10-.1 3.3.5 6.6 1.8 9.7 1.1 2.8 2.9 5.2 5.1 7.2zm11.7-25.5c2.1-2 5.1-3 9-3 3.9 0 7 1 9.2 3 2.2 2 3.4 4.9 3.3 7.9.1 2.9-1.1 5.7-3.2 7.7s-5.1 3-9 3-6.9-1-9.1-2.9c-2.2-2-3.4-4.8-3.3-7.8-.2-3 1-5.9 3.1-7.9zM144.3 72.3l51.9-71.1h-12.1l-51.9 71.1zM129.9 31.5c3.2 3.4 7.7 5.4 12.4 5.3 2.4 0 4.8-.5 7.1-1.4 2.1-.9 3.9-2.2 5.5-3.9 1.5-1.7 2.7-3.7 3.6-5.8.9-2.3 1.3-4.7 1.3-7.1 0-2.4-.4-4.8-1.2-7-2.4-6.7-8.8-11.1-15.9-11-2.4 0-4.8.5-7 1.4-2.1.9-3.9 2.2-5.5 3.8-1.6 1.7-2.8 3.7-3.6 5.8-.9 2.3-1.3 4.7-1.3 7.1 0 2.4.4 4.8 1.2 7.1.6 2.1 1.8 4 3.4 5.7zm7.5-19.2c1-1.7 2.9-2.7 4.9-2.6 2 0 3.8 1 4.9 2.7 1.3 1.9 1.9 4.1 1.9 6.3.1 2.2-.5 4.3-1.6 6.2-1 1.7-2.9 2.7-4.9 2.6-2 0-3.8-1-4.9-2.7-1.2-1.9-1.9-4.1-1.8-6.3-.2-2.2.4-4.3 1.5-6.2zM186.1 36.7c-2.4 0-4.8.5-7.1 1.4-2.1.9-3.9 2.2-5.5 3.9-1.6 1.7-2.8 3.7-3.6 5.8-.9 2.3-1.3 4.7-1.3 7.1 0 2.4.4 4.8 1.3 7.1.8 2.1 2 4.1 3.5 5.7 3.2 3.4 7.7 5.4 12.4 5.3 2.4 0 4.8-.5 7.1-1.4 2.1-.9 3.9-2.2 5.5-3.9 1.5-1.7 2.7-3.6 3.5-5.7.9-2.3 1.3-4.7 1.3-7.2 0-2.4-.4-4.8-1.2-7-2.4-6.7-8.8-11.1-15.9-11.1zm4.9 24.5c-1 1.7-2.9 2.7-4.9 2.6-2 0-3.8-1-4.9-2.7-1.2-1.9-1.9-4.1-1.8-6.3-.1-2.2.5-4.3 1.6-6.2 1-1.7 2.9-2.7 4.9-2.6 2 0 3.8 1 4.9 2.7 1.2 1.9 1.9 4.1 1.8 6.3.1 2.2-.5 4.3-1.6 6.2zM.5 90.1v61.3h44v-12.2H13.9V90.1zM97.3 102.1v-12H51.2v61.3h46.6v-12H64.5v-12.9h28.9v-12H64.5v-12.4zM135.1 138.8c-2 1.1-4.2 1.7-6.5 1.5-3.3 0-6.6-.6-9.7-2-3.1-1.4-6-3.3-8.6-5.4l-8 9.6c3.6 3.3 7.7 5.8 12.3 7.4 4.4 1.6 9.1 2.4 13.8 2.4 3.1 0 6.1-.4 9.1-1.3 2.6-.8 5-2 7.1-3.7 2-1.6 3.6-3.7 4.6-6 1.1-2.5 1.7-5.3 1.6-8.1v-.2c.1-2.4-.4-4.7-1.3-6.9-.9-1.9-2.2-3.6-3.8-5-1.8-1.5-3.9-2.8-6.1-3.7-2.7-1.1-5.5-2-8.3-2.8-2.6-.7-4.8-1.3-6.5-1.8-1.4-.4-2.8-1-4.1-1.7-.9-.5-1.6-1.2-2.1-2-.4-.8-.6-1.7-.6-2.6v-.2c0-1.5.7-2.9 2-3.8 1.3-1 3.3-1.5 5.9-1.5 2.7 0 5.4.6 7.9 1.6 2.8 1.2 5.5 2.7 8.1 4.4l7-10.2c-3.1-2.5-6.6-4.4-10.4-5.8-4-1.4-8.2-2.1-12.4-2-2.9 0-5.9.4-8.7 1.3-2.5.8-4.8 2.1-6.8 3.8-1.9 1.6-3.4 3.6-4.4 5.8-1.1 2.4-1.6 5-1.6 7.6v.2c-.1 2.6.4 5.2 1.4 7.6.9 2 2.3 3.8 4.1 5.1 1.9 1.5 4.1 2.6 6.4 3.5 2.8 1 5.6 1.9 8.4 2.5 2.6.6 4.7 1.3 6.3 1.8 1.3.5 2.6 1 3.8 1.8.8.4 1.4 1.1 1.8 1.9.3.7.5 1.5.5 2.3v.2c.1 1.9-.8 3.5-2.2 4.4zM198.2 121.1c-1.8-1.5-3.9-2.8-6.1-3.7-2.7-1.1-5.5-2-8.3-2.8-2.6-.7-4.8-1.3-6.6-1.8-1.4-.4-2.8-1-4.1-1.7-.9-.5-1.6-1.1-2.1-2-.4-.8-.6-1.7-.6-2.6v-.2c0-1.5.8-2.9 2-3.8 1.3-1 3.3-1.5 5.9-1.5 2.7 0 5.4.6 7.9 1.6 2.8 1.2 5.5 2.7 8.1 4.4l7-10.2c-3.1-2.5-6.6-4.4-10.4-5.8-4-1.4-8.2-2.1-12.4-2-2.9 0-5.9.4-8.7 1.3-2.5.8-4.8 2.1-6.8 3.8-1.9 1.6-3.4 3.6-4.4 5.8-1.1 2.4-1.6 5-1.6 7.6v.2c-.1 2.6.4 5.2 1.4 7.6.9 2 2.3 3.8 4.1 5.1 1.9 1.5 4.1 2.6 6.4 3.5 2.8 1 5.6 1.9 8.4 2.5 2.6.6 4.7 1.3 6.3 1.8 1.3.4 2.6 1 3.8 1.8.8.4 1.4 1.1 1.9 1.9.3.7.5 1.5.5 2.3v.2c0 1.7-.8 3.4-2.3 4.2-2 1.1-4.3 1.7-6.5 1.5-3.3 0-6.6-.6-9.7-2-3.1-1.4-6-3.3-8.6-5.4l-8 9.6c3.6 3.3 7.7 5.8 12.3 7.4 4.4 1.6 9.1 2.4 13.8 2.4 3.1 0 6.1-.4 9.1-1.3 2.6-.8 5-2 7-3.7 2-1.6 3.6-3.7 4.6-6 1.1-2.5 1.7-5.3 1.7-8.1.1-2.4-.4-4.7-1.3-6.9-.8-1.9-2.1-3.6-3.7-5zM57.9 165.6h-8.8l-7.9 25.8-8.5-25.9h-7.2l-8.6 25.9L9 165.6H0L13 204h7.3l8.7-24.9 8.6 24.9h7.3zM75 165.3l-16.3 38.4h8.6l3.5-8.6h16.1l3.5 8.6h8.8l-16.3-38.4H75zm-1.3 22.5 5.1-12.4 5.1 12.4H73.7zM111.7 203.8h8.4v-30.4h11.6v-7.8h-31.6v7.8h11.6zM164.9 196.3h-20.7v-8h18v-7.5h-18v-7.7h20.5v-7.5h-28.8v38.2h29zM199.9 185.9c1.6-2.2 2.4-4.9 2.3-7.6v-.1c0-4-1.3-7.1-3.8-9.3-2.5-2.2-6.1-3.3-10.6-3.3h-17.4v38.2h8.4v-12.2h6.6l8.2 12.2h9.8l-9.3-13.6c2.2-.9 4.2-2.4 5.8-4.3zm-6.3-7.1c.1 1.5-.6 2.9-1.7 3.9-1.4 1.1-3.1 1.6-4.8 1.5h-8.5v-10.9h8.3c1.7-.1 3.4.4 4.9 1.4 1.2 1 1.9 2.5 1.7 4.1h.1zM24 237.8 7.4 216.1H.2v35.3h7.7v-22.5L25 251.4h6.6v-35.3H24zM45.7 237.1h16.7v-6.9H45.7V223h18.9v-6.9H38.1v35.3h26.8v-6.9H45.7zM77.5 237.1h16.6v-6.9H77.5V223h18.9v-6.9H69.8v35.3h26.8v-6.9H77.5zM128.9 221.1c-1.7-1.6-3.7-2.9-5.9-3.7-2.4-.9-5-1.4-7.6-1.3h-13.8v35.3h13.8c2.6 0 5.2-.4 7.6-1.4 2.2-.8 4.2-2.1 5.9-3.7 1.7-1.6 3-3.5 3.9-5.6.9-2.2 1.4-4.6 1.4-6.9v-.1c0-2.4-.4-4.7-1.4-6.9-.9-2.2-2.3-4.1-3.9-5.7zm-2.9 12.7c0 1.5-.2 2.9-.8 4.3-.5 1.2-1.2 2.4-2.2 3.3-.9 1-2.1 1.7-3.3 2.2-1.4.5-2.9.8-4.3.8h-6v-21.3h6c1.5 0 2.9.2 4.3.8 1.3.5 2.4 1.2 3.3 2.2.9 1 1.7 2.1 2.2 3.4.6 1.3.8 2.8.8 4.3zM146.6 237.1h16.7v-6.9h-16.7V223h19v-6.9H139v35.3h26.8v-6.9h-19.2zM198.1 221.1c-1.7-1.6-3.8-2.9-6-3.7-2.4-.9-5-1.4-7.6-1.3h-13.7v35.3h13.8c2.6 0 5.2-.4 7.6-1.4 2.2-.8 4.3-2.1 6-3.7 1.7-1.6 3-3.5 3.9-5.6.9-2.2 1.4-4.6 1.4-6.9v-.1c0-2.4-.4-4.7-1.4-6.9-1-2.2-2.4-4.1-4-5.7zm-2.9 12.7c0 1.5-.2 2.9-.8 4.3-.5 1.2-1.2 2.4-2.2 3.3-.9 1-2.1 1.7-3.4 2.2-1.4.5-2.9.8-4.3.8h-6v-21.3h6c1.5 0 3 .2 4.3.8 1.3.5 2.4 1.2 3.4 2.2.9 1 1.7 2.1 2.2 3.4.5 1.4.8 2.8.8 4.3z"/></svg>