<svg id="Layer_1" xmlns="http://www.w3.org/2000/svg" viewBox="0 0 71.6 71.6"><path class="st0" d="M37.7 18.3c-3.2 3.2-4.1 7.8-2.6 11.8.2.4.1.9-.3 1.2L17.4 48.7l-.6 5.6 7.6-1.3.3-3.7c.1-.6.5-1 1.1-1.1l3.6-.3.3-3.6c.1-.6.5-1 1.1-1.1l4.2-.4 5.6-5.6c.3-.3.8-.4 1.2-.3 4 1.4 8.6.6 11.8-2.6 4.4-4.4 4.4-11.5 0-16s-11.5-4.4-15.9 0zM52 26.7c-1.8 1.8-4.9 1.8-6.7 0-1.8-1.8-1.8-4.9 0-6.7 1.8-1.8 4.9-1.8 6.7 0 1.8 1.9 1.8 4.9 0 6.7z"/><path class="st0" d="M46.9 21.7c-.9.9-.9 2.4 0 3.4.9.9 2.4.9 3.4 0s.9-2.4 0-3.4c-.9-.9-2.4-.9-3.4 0z"/><path class="st0" d="M35.8.4C16.3.4.4 16.3.4 35.8c0 19.6 15.9 35.4 35.4 35.4 19.6 0 35.4-15.9 35.4-35.4S55.4.4 35.8.4zM55.3 36c-3.6 3.6-8.8 4.7-13.4 3.4l-5.5 5.5c-.2.2-.5.3-.7.3l-3.6.3-.3 3.6c-.1.6-.5 1-1.1 1.1l-3.7.3-.3 3.6c0 .5-.5 1-1 1.1l-10 1.7h-.3c-.7-.1-1.1-.7-1.1-1.3l.8-7.6c0-.3.2-.5.3-.7l17.2-17.2c-1.3-4.6-.3-9.8 3.4-13.4 5.3-5.3 14-5.3 19.3 0s5.4 14 0 19.3z"/></svg>