<svg xmlns="http://www.w3.org/2000/svg" viewBox="0 0 110.5 83.9"><path d="M110.5 51.3c0 18-14.6 32.6-32.6 32.6-7.1 0-13.9-2.3-19.6-6.5-.4-.3-.4-.8-.2-1.2.3-.4.8-.4 1.2-.2 5.4 4.1 11.8 6.2 18.6 6.2 17.1 0 30.9-13.9 30.9-30.9 0-10.9-5.6-20.8-14.9-26.5-.4-.2-.5-.7-.3-1.1.2-.4.7-.5 1.1-.3 9.9 6 15.8 16.4 15.8 27.9zm-51 22.6c-4.9 0-9.4-2-12.8-5.4-3.2 3.8-7.9 6.1-12.9 6.1-9 0-16.4-7.1-16.7-16.1C7.2 56.6 0 47.9 0 37.9c0-9 5.6-16.8 14-19.8C16.3 7.6 25.6 0 36.5 0c5.2 0 10.2 1.8 14.2 5C54 2 58.2.3 62.7.3c9.4 0 17.1 7.2 17.7 16.5 9.5 2.6 16 11.2 16 21.1 0 5.1-1.8 10.1-5.1 14 .1.8.2 1.5.2 2.3 0 7.3-5.9 13.2-13.2 13.2-1.6 0-3.1-.3-4.5-.8-3.4 4.6-8.7 7.3-14.3 7.3zm0-2.2c5.2 0 10.1-2.6 13-7l.5-.7.8.4c1.4.6 2.9 1 4.5 1 6.1 0 11.1-5 11.1-11.1 0-.8-.1-1.6-.3-2.4l-.1-.6.4-.4c3.2-3.6 4.9-8.2 4.9-13 0-9.2-6.2-17.1-15.2-19.2l-.8-.2v-.8c-.2-8.4-7.2-15.2-15.6-15.2-4.2 0-8.2 1.7-11.1 4.7l-.7.7-.8-.7c-3.8-3.2-8.6-5-13.6-5-10 0-18.6 7.1-20.5 17l-.1.6-.6.2C7.4 22.5 2.2 29.7 2.2 37.9c0 9.3 6.9 17.3 16.1 18.6l.9.1v1c0 8.2 6.5 14.8 14.6 14.8 4.7 0 9.2-2.3 12-6.2l.8-1.2.9 1.1c2.9 3.5 7.3 5.6 12 5.6zM37.1 42.5c-.3-.3-.8-.3-1.1 0-1 .9-2 1.7-3 2.2-1 .5-2.1.7-3.5.7-1.1 0-2.1-.2-3-.6-.9-.4-1.7-1-2.4-1.7s-1.2-1.6-1.6-2.6c-.4-1-.6-2.1-.6-3.2 0-1.2.2-2.2.6-3.2.4-1 .9-1.8 1.6-2.6.7-.7 1.5-1.3 2.4-1.7.9-.4 1.9-.6 3-.6 1.3 0 2.5.2 3.4.7 1 .5 1.9 1.2 2.8 2 .2.1.4.2.6.2.2 0 .4-.1.5-.2l1.7-1.8c.3-.3.3-.8 0-1.1-.6-.5-1.1-1-1.7-1.5-.6-.5-1.3-.8-2-1.2-.7-.3-1.5-.6-2.4-.7-.8-.2-1.8-.3-2.8-.3-1.7 0-3.3.3-4.7.9-1.4.6-2.7 1.5-3.7 2.6s-1.8 2.4-2.4 3.8c-.6 1.4-.9 3-.9 4.6 0 1.7.3 3.2.9 4.7.6 1.4 1.4 2.7 2.4 3.8 1 1.1 2.3 1.9 3.7 2.5 1.4.6 3 .9 4.6.9 1 0 2-.1 2.9-.3.9-.2 1.7-.5 2.4-.8.7-.3 1.4-.8 2.1-1.3.6-.5 1.2-1 1.8-1.6.3-.3.3-.8 0-1.1l-1.6-1.5zm23.8-.7c-.6 1.4-1.4 2.7-2.4 3.8-1 1.1-2.3 2-3.7 2.6-1.5.6-3.1 1-4.8 1-1.7 0-3.4-.3-4.8-1-1.4-.6-2.7-1.5-3.7-2.6s-1.8-2.4-2.4-3.8c-.6-1.4-.8-3-.8-4.6 0-1.6.3-3.1.9-4.6.6-1.4 1.4-2.7 2.4-3.8 1-1.1 2.3-2 3.7-2.6 1.5-.6 3.1-1 4.8-1 1.7 0 3.4.3 4.8 1 1.4.6 2.7 1.5 3.7 2.6s1.8 2.4 2.4 3.8c.6 1.4.8 3 .8 4.6s-.3 3.2-.9 4.6zm-3.3-4.5c0-1.1-.2-2.2-.6-3.2-.4-1-.9-1.9-1.6-2.6-.7-.7-1.5-1.3-2.4-1.7-.9-.4-2-.6-3.1-.6s-2.2.2-3.1.6c-.9.4-1.7 1-2.4 1.7s-1.2 1.6-1.6 2.6c-.4 1-.6 2.1-.6 3.2s.2 2.2.6 3.2c.4 1 .9 1.9 1.6 2.6.7.7 1.5 1.3 2.5 1.7.9.4 2 .6 3.1.6s2.2-.2 3.1-.6c.9-.4 1.7-1 2.4-1.7s1.2-1.6 1.6-2.6c.4-1 .5-2.1.5-3.2zm5.1 11.5h15.1c.4 0 .8-.4.8-.8v-2.2c0-.4-.4-.8-.8-.8h-9.4l4.2-3.7c1-.8 1.8-1.6 2.5-2.3.7-.7 1.3-1.4 1.8-2.1.5-.7.9-1.4 1.1-2.2.2-.7.4-1.6.4-2.4 0-1-.2-1.9-.6-2.8-.4-.8-.9-1.6-1.6-2.2-.7-.6-1.5-1.1-2.4-1.4-.9-.3-1.9-.5-3-.5-1 0-1.9.1-2.7.3-.8.2-1.6.6-2.2 1-.7.4-1.3 1-1.8 1.6-.5.6-1.1 1.3-1.6 2-.2.4-.2.8.2 1.1l1.8 1.3c.2.1.4.2.6.1.2 0 .4-.1.5-.3.8-1.1 1.6-2 2.4-2.6.8-.5 1.6-.8 2.7-.8.5 0 .9.1 1.4.2.4.2.8.4 1.1.7.3.3.6.6.8 1.1.2.4.3.9.3 1.4 0 .5-.1.9-.2 1.3s-.4.9-.7 1.3c-.3.5-.8 1-1.3 1.6l-2 2-7.8 6.9c-.2.1-.3.4-.3.6V48c-.1.5.2.8.7.8z" fill="#010202"/></svg>