<svg xmlns="http://www.w3.org/2000/svg" viewBox="0 0 72.9 72.9"><path d="M55.9 22.7c-4-4.2-10.2-4.2-14.2 0l-3.9 4-.1.1c-.8.8-2 .7-2.8-.1L31 22.6c-2-2.1-4.5-3.1-7.1-3.1s-5.1 1-7.1 3.1c-4 4.2-4 11 0 15.2l19.5 20.5 19.5-20.4c4.1-4.2 4.1-11 .1-15.2z"/><path d="M36.5 1C16.9 1 1 16.9 1 36.4 1 56 16.9 71.9 36.5 71.9S71.9 56 71.9 36.4C71.9 16.9 56 1 36.5 1zm22.3 39.6c-7 7.3-13.9 14.6-20.9 21.9l-.1.1c-.8.8-2 .7-2.8-.1l-20.9-22c-5.4-5.7-5.4-14.9 0-20.6 2.7-2.9 6.3-4.3 9.9-4.3s7.2 1.4 9.9 4.3l2.4 2.6 2.4-2.5c5.4-5.7 14.5-5.7 19.9 0 5.6 5.7 5.6 14.9.2 20.6z"/></svg>