<svg version="1.1" id="Layer_1" xmlns="http://www.w3.org/2000/svg" x="0" y="0" viewBox="0 0 152.27 80.01" xml:space="preserve"><path class="st0" d="M4.5 1.96c.67 0 1.2.14 1.55.42.34.26.5.63.5 1.11 0 .25-.05.48-.15.67-.09.2-.23.36-.4.5-.18.14-.4.25-.66.33-.26.07-.55.11-.86.11H1.95V1.96H4.5zM.61 10.21h1.04a.3.3 0 0 0 .3-.3V6.63h2.17l2.58 3.46c.06.08.15.12.24.12h1.28c.12 0 .22-.06.27-.17.05-.1.04-.23-.03-.32L5.92 6.34c.21-.06.42-.14.61-.24.34-.16.63-.37.88-.62.25-.24.44-.54.58-.88.14-.34.21-.73.21-1.15 0-.46-.09-.88-.26-1.25-.18-.38-.44-.71-.76-.98-.32-.26-.7-.47-1.15-.61C5.6.47 5.1.4 4.57.4H.61a.3.3 0 0 0-.3.3v9.21c-.01.16.13.3.3.3m11.78-6.05c.31 0 .61.06.87.18a2.228 2.228 0 0 1 1.18 1.25c.11.29.17.6.17.93 0 .33-.06.64-.16.92-.11.28-.26.53-.45.74-.19.2-.42.37-.69.49-.27.12-.57.18-.89.18-.31 0-.61-.06-.87-.18-.27-.12-.51-.29-.7-.5s-.35-.46-.46-.74c-.11-.29-.17-.6-.17-.93 0-.33.06-.64.16-.92.11-.28.26-.53.45-.75.19-.21.41-.37.68-.49.26-.12.56-.18.88-.18M9.65 9.23c.34.35.75.63 1.21.83.47.21.98.31 1.53.31s1.06-.1 1.54-.31c.47-.2.89-.49 1.23-.84.34-.35.61-.76.81-1.23a3.954 3.954 0 0 0 0-2.97 3.745 3.745 0 0 0-2.02-2.05c-.47-.2-.99-.31-1.53-.31-.56 0-1.08.1-1.55.31-.47.2-.88.48-1.22.83a3.954 3.954 0 0 0-.8 4.21c.19.46.46.87.8 1.22m7.7.98h1.01a.3.3 0 0 0 .3-.3V.3a.3.3 0 0 0-.3-.3h-1.01a.3.3 0 0 0-.3.3v9.6c0 .17.14.31.3.31m2.94 0h1.01a.3.3 0 0 0 .3-.3V.3a.3.3 0 0 0-.3-.3h-1.01a.3.3 0 0 0-.3.3v9.6c-.01.17.13.31.3.31m5.65-6.09c.29 0 .55.05.76.16.22.11.41.25.56.43.15.18.28.4.36.64.05.15.1.31.13.48H24.1c.04-.18.09-.34.16-.5.11-.25.25-.47.41-.64.17-.18.36-.32.57-.42.22-.1.45-.15.7-.15M23.5 9.3a3.652 3.652 0 0 0 2.61 1.07c.69 0 1.29-.13 1.77-.38.47-.25.89-.58 1.26-1 .11-.13.1-.32-.03-.43L28.49 8a.308.308 0 0 0-.42.01c-.26.26-.54.48-.85.64-.29.15-.65.23-1.08.23-.26 0-.51-.04-.75-.13-.23-.09-.45-.22-.64-.39a2.142 2.142 0 0 1-.65-1.17h5.03c.15 0 .28-.11.3-.26.01-.08.02-.15.02-.21v-.15c0-.53-.08-1.03-.23-1.5-.15-.47-.38-.89-.67-1.25-.3-.36-.67-.64-1.1-.85-.43-.21-.93-.31-1.47-.31-.52 0-1 .1-1.44.3-.43.2-.82.48-1.13.83-.31.35-.56.76-.74 1.23-.17.47-.26.97-.26 1.49 0 .56.1 1.09.3 1.56.19.48.46.89.79 1.23m7.84-2.8c0-.37.06-.71.17-1 .11-.29.26-.53.45-.72.18-.19.4-.34.65-.44.25-.1.53-.15.82-.15.27 0 .54.06.79.17.26.11.49.27.7.47.2.2.37.44.49.72.12.28.18.61.18.96s-.06.68-.18.96c-.13.28-.29.53-.49.72-.2.2-.44.36-.7.47-.52.22-1.1.21-1.6 0-.25-.1-.47-.26-.66-.46-.19-.2-.35-.45-.46-.73-.11-.28-.16-.61-.16-.97m-.55 2.84c.33.33.72.58 1.14.76a3.477 3.477 0 0 0 2.26.13c.29-.09.55-.21.78-.37.21-.14.4-.3.57-.47v.52c0 .17.14.3.3.3h1.01a.3.3 0 0 0 .3-.3V.3a.3.3 0 0 0-.3-.3h-1.01a.3.3 0 0 0-.3.3v3.27a3.252 3.252 0 0 0-1.34-.79c-.29-.09-.61-.13-.96-.13-.45 0-.89.09-1.31.27-.42.18-.8.43-1.13.76-.33.33-.6.74-.8 1.21-.2.47-.3 1.02-.3 1.62s.1 1.14.3 1.62c.19.47.46.88.79 1.21m12.54.57V6.03c0-.28.04-.53.13-.75.08-.22.2-.42.34-.58.14-.16.31-.29.5-.37.19-.09.4-.13.62-.13.46 0 .8.14 1.05.43.26.3.39.73.39 1.29v4c0 .17.14.3.3.3h1a.3.3 0 0 0 .3-.3V5.99c0-.29.04-.56.13-.79.08-.22.2-.41.34-.56.14-.15.31-.26.49-.33.19-.08.4-.12.61-.12.47 0 .81.14 1.07.43.26.3.39.74.39 1.32v3.97c0 .17.14.3.3.3h1.01a.3.3 0 0 0 .3-.3V5.7c0-.93-.25-1.67-.75-2.21-.51-.55-1.21-.83-2.08-.83-.32 0-.63.04-.89.12-.27.08-.51.19-.73.32-.22.14-.41.3-.58.48-.06.06-.11.12-.16.19-.18-.25-.4-.48-.67-.67-.41-.3-.93-.45-1.55-.45-.32 0-.61.04-.85.12-.21.09-.44.19-.64.33-.13.09-.25.19-.37.3v-.29a.3.3 0 0 0-.3-.3h-1.01a.3.3 0 0 0-.3.3v6.8c0 .17.14.3.3.3h1.01a.3.3 0 0 0 .3-.3m14.32-1.42c-.18.14-.39.25-.63.33-.24.08-.51.12-.79.12-.2 0-.39-.03-.56-.08-.17-.05-.32-.13-.45-.22-.12-.09-.22-.2-.29-.33a.83.83 0 0 1-.1-.43c0-.35.12-.6.39-.8.29-.21.72-.32 1.29-.32.4 0 .76.03 1.06.09.23.04.44.09.62.13v.42c0 .22-.05.42-.14.6-.09.19-.23.36-.4.49M54.1 9.76c.27.2.58.35.91.45.33.1.67.14 1.01.14.66 0 1.22-.13 1.66-.4.18-.11.35-.22.49-.34v.29c0 .17.14.3.3.3h.97a.3.3 0 0 0 .3-.3V5.75c0-.99-.28-1.75-.85-2.27-.56-.51-1.35-.77-2.35-.77-.52 0-1 .05-1.41.16-.4.11-.8.25-1.19.43-.14.07-.21.23-.16.38l.3.83c.03.08.09.15.17.18.08.03.17.03.24-.01.3-.14.61-.26.92-.34.3-.08.64-.13 1.02-.13.56 0 1 .13 1.29.39.26.23.4.56.43 1-.19-.05-.39-.08-.59-.12-.34-.06-.74-.08-1.19-.08-.45 0-.88.05-1.26.16-.39.11-.73.26-1.02.47-.3.21-.53.48-.69.8-.16.32-.24.69-.24 1.09 0 .41.09.77.26 1.08.19.3.41.56.68.76m6.33-5.46h.64v3.8c0 .38.06.71.17.99.11.29.28.53.48.71.2.18.45.32.73.4.26.08.55.12.85.12.27 0 .51-.03.74-.08.22-.05.43-.14.63-.25.1-.05.16-.15.16-.27v-.85c0-.1-.06-.2-.14-.26a.293.293 0 0 0-.3-.01c-.15.08-.3.13-.42.16-.13.03-.27.04-.43.04-.27 0-.48-.06-.64-.18-.13-.11-.2-.32-.2-.64V4.3h1.85a.3.3 0 0 0 .3-.3v-.9a.3.3 0 0 0-.3-.3H62.7V1.05a.3.3 0 0 0-.3-.3h-1.01a.3.3 0 0 0-.3.3V2.8h-.64a.3.3 0 0 0-.3.3V4c-.02.17.12.3.28.3m4.79 0h.64v3.8c0 .38.06.71.17.99.11.29.28.53.48.71.2.18.45.32.73.4.26.08.55.12.85.12.27 0 .51-.03.74-.08.22-.05.43-.14.63-.25.1-.05.16-.15.16-.27v-.85c0-.1-.06-.2-.14-.26a.293.293 0 0 0-.3-.01c-.15.08-.3.13-.42.16-.13.03-.28.04-.43.04-.28 0-.48-.06-.64-.18-.13-.11-.2-.32-.2-.64V4.3h1.85a.3.3 0 0 0 .3-.3v-.9a.3.3 0 0 0-.3-.3h-1.85V1.05a.3.3 0 0 0-.3-.3h-1.01a.3.3 0 0 0-.3.3V2.8h-.64a.3.3 0 0 0-.3.3V4c-.02.17.11.3.28.3m9.48-.22V2.99c0-.17-.13-.3-.3-.3-.36-.01-.69.04-1.01.13-.31.1-.6.24-.86.43-.22.16-.43.35-.61.57V3.1a.3.3 0 0 0-.3-.3H70.6a.3.3 0 0 0-.3.3v6.8c0 .17.14.3.3.3h1.01a.3.3 0 0 0 .3-.3V7.2c0-.47.06-.89.19-1.25.13-.35.3-.64.51-.88.21-.23.47-.4.75-.52.29-.12.61-.18.93-.18h.08c.19.01.33-.12.33-.29m3.23.04c.29 0 .55.05.76.16.22.11.41.25.56.43.15.18.28.4.36.64.05.15.1.31.13.48h-3.65c.04-.18.09-.34.16-.5.11-.25.25-.47.41-.64.17-.18.36-.32.57-.42.22-.1.45-.15.7-.15M75.49 9.3a3.652 3.652 0 0 0 2.61 1.07c.69 0 1.29-.13 1.77-.38.47-.25.89-.58 1.26-1 .11-.13.1-.32-.03-.43L80.47 8a.308.308 0 0 0-.42.01c-.26.26-.54.48-.85.64-.29.15-.65.23-1.08.23-.26 0-.51-.04-.75-.13a2.002 2.002 0 0 1-1.11-1.02c-.08-.16-.14-.34-.18-.54h5.03c.15 0 .28-.11.3-.26.01-.08.02-.15.02-.21v-.15c0-.53-.08-1.03-.22-1.5-.15-.47-.38-.89-.67-1.25-.3-.36-.67-.64-1.1-.85-.43-.21-.93-.31-1.47-.31-.52 0-1 .1-1.44.3-.43.2-.82.48-1.13.83-.31.35-.56.76-.74 1.23-.17.47-.26.97-.26 1.49 0 .56.1 1.09.3 1.56.18.48.45.89.79 1.23m7.55.75c.53.19 1.07.29 1.59.29.37 0 .72-.05 1.04-.15.33-.1.62-.26.86-.46.25-.2.44-.45.59-.74.15-.29.22-.63.22-1v-.02c0-.36-.08-.67-.23-.93-.15-.24-.35-.46-.59-.63-.23-.16-.49-.3-.77-.4-.26-.1-.53-.19-.8-.27-.23-.07-.44-.14-.65-.21-.19-.06-.37-.14-.51-.22-.13-.07-.23-.15-.3-.23a.33.33 0 0 1-.08-.22v-.03c0-.19.08-.33.24-.47.18-.14.44-.22.77-.22.3 0 .61.06.92.16.32.11.63.26.93.45.07.04.15.06.23.04.08-.02.15-.07.19-.14l.46-.76c.08-.14.04-.32-.09-.41-.37-.24-.79-.44-1.25-.58-.83-.26-1.69-.29-2.39-.06-.32.1-.6.25-.84.45s-.43.44-.56.72c-.13.28-.2.59-.2.93v.03c0 .37.08.69.25.95.16.25.37.45.62.62.23.15.5.28.79.38.27.09.54.18.81.26.21.06.42.13.62.19.19.06.35.14.49.22.12.07.22.15.29.24.05.07.08.15.08.25v.02c0 .24-.09.41-.27.54-.21.15-.49.23-.83.23-.37 0-.74-.07-1.1-.2-.37-.14-.73-.34-1.07-.6a.286.286 0 0 0-.22-.06c-.08.01-.15.06-.2.13l-.51.72a.3.3 0 0 0 .06.41c.4.33.88.59 1.41.78m5.89 0c.53.19 1.07.29 1.59.29.37 0 .72-.05 1.04-.15.33-.1.62-.26.86-.46.25-.2.44-.45.59-.74.15-.29.22-.63.22-1v-.02c0-.36-.08-.68-.23-.93-.15-.25-.35-.46-.59-.63-.23-.16-.49-.3-.77-.4-.26-.1-.54-.19-.8-.27-.22-.07-.44-.14-.65-.21-.19-.07-.36-.14-.51-.22-.13-.07-.23-.15-.3-.23a.33.33 0 0 1-.08-.22v-.03c0-.19.08-.34.24-.47.18-.14.44-.22.77-.22.3 0 .61.05.92.16.32.11.63.26.93.45.07.04.15.06.23.04.08-.02.15-.07.19-.14l.46-.76c.08-.14.04-.32-.1-.41a5.04 5.04 0 0 0-1.24-.58c-.83-.26-1.69-.29-2.39-.06-.32.1-.6.25-.84.45s-.43.44-.56.72c-.13.28-.2.59-.2.93v.03c0 .37.08.69.25.95.16.25.37.45.62.62.23.15.5.28.79.38.29.08.56.17.83.25.21.06.42.13.62.19.19.06.35.14.49.22.12.07.22.15.29.24.05.07.08.15.08.25v.03c0 .24-.09.41-.27.54-.21.15-.49.23-.83.23-.37 0-.74-.07-1.1-.2-.37-.14-.73-.34-1.07-.6-.07-.05-.16-.07-.24-.05-.08.01-.15.06-.2.12l-.51.72a.3.3 0 0 0 .06.41c.41.33.88.59 1.41.78m8.18-5.93c.29 0 .55.05.76.16.22.11.41.25.56.43.15.18.28.4.36.64.06.15.1.31.13.48h-3.65c.04-.18.09-.34.16-.5.11-.25.25-.46.42-.64.16-.18.36-.32.57-.42.21-.1.44-.15.69-.15m2.6-.3c-.3-.36-.67-.64-1.1-.85-.43-.21-.93-.31-1.47-.31-.52 0-1 .1-1.44.3-.43.2-.82.48-1.13.83-.31.35-.56.76-.74 1.23-.17.47-.26.97-.26 1.5 0 .56.1 1.09.3 1.56s.47.89.8 1.22c.33.34.73.6 1.18.79.45.18.93.28 1.43.28.7 0 1.29-.13 1.77-.38.47-.25.89-.58 1.26-.99.11-.13.1-.32-.03-.43L99.65 8a.308.308 0 0 0-.42.01c-.26.26-.54.48-.85.64-.29.15-.65.23-1.08.23-.26 0-.51-.04-.75-.13-.23-.09-.45-.22-.64-.39a2 2 0 0 1-.47-.63c-.08-.16-.14-.35-.18-.54h5.03c.15 0 .28-.11.3-.26.01-.07.02-.15.02-.21v-.16c0-.53-.08-1.03-.22-1.5-.16-.47-.38-.89-.68-1.24m4.1 6.52c.37 0 .72-.05 1.04-.15.33-.1.62-.26.86-.46.25-.2.44-.45.59-.74.15-.29.22-.63.22-1v-.02c0-.36-.08-.68-.23-.93-.15-.25-.35-.46-.59-.63-.23-.16-.49-.3-.77-.4-.27-.1-.54-.19-.8-.27-.23-.07-.44-.14-.65-.21-.19-.07-.36-.14-.51-.22-.13-.07-.23-.15-.3-.23a.33.33 0 0 1-.08-.22v-.03c0-.19.08-.34.24-.47.18-.14.44-.22.77-.22.3 0 .61.05.92.16.32.11.63.26.93.45.07.04.15.06.23.04.08-.02.15-.07.19-.14l.46-.76c.08-.14.04-.32-.1-.41a5.04 5.04 0 0 0-1.24-.58c-.83-.26-1.69-.29-2.39-.07-.32.1-.6.25-.84.45s-.43.44-.56.72c-.13.28-.2.59-.2.93v.03c0 .37.08.69.25.95.16.24.36.45.61.61.23.15.5.28.79.38.27.09.54.18.81.26.21.06.42.12.62.19.19.06.35.14.49.22.12.07.22.15.28.24.05.07.08.15.08.25v.04c0 .24-.09.41-.27.54-.21.15-.49.23-.83.23-.37 0-.74-.07-1.1-.21-.37-.14-.73-.34-1.07-.6a.322.322 0 0 0-.23-.06c-.08.01-.15.06-.2.13l-.51.72a.3.3 0 0 0 .06.41c.41.33.89.59 1.42.78.55.2 1.08.3 1.61.3m7.19-.13h1.01a.3.3 0 0 0 .3-.3v-3.9c0-.28.04-.53.13-.76.08-.22.21-.42.36-.57.15-.16.34-.28.55-.36.21-.08.45-.13.7-.13.52 0 .9.15 1.17.45.27.31.41.75.41 1.3v3.97c0 .17.14.3.3.3h1.01a.3.3 0 0 0 .3-.3V5.68c0-.44-.07-.84-.2-1.21s-.32-.7-.58-.97c-.25-.27-.56-.49-.92-.63-.35-.15-.76-.22-1.21-.22-.65 0-1.19.15-1.61.44-.15.1-.29.22-.42.34V.3c0-.17-.13-.3-.3-.3h-1a.3.3 0 0 0-.3.3v9.6c0 .17.13.31.3.31m10.39-6.09c.29 0 .55.05.76.16.22.11.41.25.56.43.15.18.28.4.36.64.05.15.1.31.13.48h-3.65c.04-.18.09-.34.16-.5.11-.25.25-.46.41-.64.17-.18.36-.32.57-.42.22-.1.45-.15.7-.15m-2.44 5.18a3.652 3.652 0 0 0 2.61 1.07c.69 0 1.29-.13 1.77-.38.47-.25.89-.58 1.26-1 .11-.13.1-.32-.03-.43l-.62-.56a.308.308 0 0 0-.42.01c-.26.26-.54.48-.85.64-.29.15-.65.23-1.08.23-.26 0-.51-.04-.75-.13a2.002 2.002 0 0 1-1.11-1.02c-.08-.16-.14-.34-.18-.54h5.03c.15 0 .28-.11.3-.26.01-.08.02-.15.02-.21v-.15c0-.53-.08-1.03-.22-1.5-.15-.47-.38-.89-.67-1.25-.3-.36-.67-.64-1.1-.85-.43-.21-.93-.31-1.47-.31-.52 0-1 .1-1.44.3-.43.2-.82.48-1.13.83-.31.35-.56.76-.74 1.23-.17.47-.26.97-.26 1.49 0 .57.1 1.09.3 1.56.18.48.45.89.78 1.23m6.98.91h1.01a.3.3 0 0 0 .3-.3V.3a.3.3 0 0 0-.3-.3h-1.01a.3.3 0 0 0-.3.3v9.6c0 .17.13.31.3.31m4.12-3.71c0-.35.06-.67.18-.96.12-.28.28-.53.49-.72.2-.2.44-.36.7-.47.25-.11.52-.17.79-.17.28 0 .55.05.8.16.25.1.47.26.66.46.19.2.35.45.46.73.11.29.17.61.17.98s-.06.7-.17 1c-.11.29-.26.53-.45.72-.18.19-.4.34-.66.44-.5.2-1.09.21-1.61-.01-.26-.11-.49-.27-.7-.47-.2-.2-.36-.44-.48-.73s-.18-.61-.18-.96m-1.28 5.82h1.01a.3.3 0 0 0 .3-.3V9.44c.17.16.36.31.56.44.23.14.5.26.78.35.29.09.61.13.96.13.45 0 .89-.09 1.32-.27.43-.18.81-.43 1.14-.76.33-.33.6-.74.79-1.21.2-.47.3-1.02.3-1.62 0-.6-.1-1.14-.3-1.62-.2-.47-.47-.88-.8-1.21-.33-.33-.72-.58-1.14-.76-.43-.17-.86-.26-1.3-.26-.35 0-.67.05-.96.14-.28.09-.54.21-.78.36-.21.13-.4.29-.57.47v-.51c0-.17-.13-.3-.3-.3h-1.01a.3.3 0 0 0-.3.3v8.91c0 .16.14.3.3.3m11.04-8.02h.64v3.8c0 .38.05.71.16.99.11.29.28.53.48.71.2.18.45.32.73.4.26.08.55.12.85.12.27 0 .51-.03.74-.08.22-.05.43-.14.63-.25.1-.05.16-.15.16-.27v-.85c0-.1-.05-.2-.14-.26a.293.293 0 0 0-.3-.01c-.15.08-.3.13-.42.16-.13.03-.27.04-.43.04-.27 0-.48-.06-.64-.18-.13-.11-.2-.32-.2-.64V4.3h1.85a.3.3 0 0 0 .3-.3v-.9a.3.3 0 0 0-.3-.3h-1.85V1.05a.3.3 0 0 0-.3-.3h-1.01a.3.3 0 0 0-.3.3V2.8h-.64a.3.3 0 0 0-.3.3V4c-.01.17.12.3.29.3"/><path class="st0" d="M148.1 4.16c.31 0 .61.06.87.18a2.228 2.228 0 0 1 1.18 1.25c.11.29.17.6.17.93a2.407 2.407 0 0 1-.61 1.66c-.19.21-.42.37-.69.49-.27.12-.57.18-.89.18-.31 0-.61-.06-.87-.18-.27-.12-.51-.29-.7-.5-.2-.21-.35-.46-.46-.74-.11-.29-.17-.6-.17-.93 0-.33.06-.64.16-.92s.26-.54.45-.75c.18-.21.41-.37.68-.49.25-.12.55-.18.88-.18m-2.74 5.07c.34.35.75.63 1.21.83.47.21.98.31 1.53.31s1.07-.1 1.54-.31c.47-.2.89-.49 1.23-.84.34-.35.61-.76.81-1.23.19-.47.29-.97.29-1.49s-.1-1.02-.28-1.48a3.745 3.745 0 0 0-2.02-2.05c-.47-.2-.99-.31-1.54-.31-.56 0-1.08.1-1.55.31-.47.2-.88.49-1.22.84a3.954 3.954 0 0 0-.8 4.21c.18.45.45.86.8 1.21M4.4 51.63c.33 0 .61-.27.61-.61V40.88c0-1.83.25-3.46.75-4.84.49-1.38 1.18-2.54 2.04-3.46.85-.91 1.86-1.61 3.01-2.07 1.15-.46 2.4-.7 3.69-.7h.3c.34 0 .61-.27.61-.61v-4.09c0-.33-.26-.6-.59-.61-1.28-.03-2.49.13-3.6.47-1.11.35-2.14.87-3.08 1.54-.93.67-1.77 1.48-2.49 2.41-.22.29-.44.58-.64.89v-4.26c0-.34-.27-.61-.61-.61H.61c-.34.02-.61.29-.61.62v25.46c0 .33.27.61.61.61H4.4zm16.1-15.35c.15-.93.4-1.8.75-2.6.43-.98.98-1.84 1.65-2.56.66-.71 1.44-1.28 2.31-1.69.86-.4 1.81-.61 2.83-.61 1.17 0 2.21.22 3.08.65.88.44 1.64 1.02 2.25 1.74.62.73 1.11 1.59 1.46 2.57.28.79.48 1.63.6 2.49H20.5zm14.56 14.56c1.7-.9 3.23-2.11 4.55-3.61.22-.25.2-.63-.05-.85l-2.36-2.12a.608.608 0 0 0-.84.03c-1 1.03-2.12 1.87-3.32 2.49-1.17.61-2.61.92-4.27.92-1.04 0-2.04-.18-2.99-.53-.94-.35-1.8-.87-2.56-1.56-.76-.68-1.39-1.53-1.88-2.52-.41-.82-.69-1.76-.84-2.79h19.45c.3 0 .56-.22.6-.52.04-.26.06-.5.06-.72v-.54c0-1.92-.27-3.76-.82-5.45-.55-1.71-1.36-3.22-2.43-4.49s-2.4-2.3-3.95-3.04c-1.55-.74-3.33-1.12-5.28-1.12-1.85 0-3.59.37-5.15 1.09-1.56.72-2.93 1.72-4.06 2.97-1.13 1.25-2.02 2.74-2.65 4.43-.63 1.69-.95 3.51-.95 5.41 0 2.04.36 3.94 1.07 5.65.71 1.71 1.68 3.19 2.89 4.4 1.21 1.22 2.64 2.17 4.25 2.84 1.61.67 3.34 1.01 5.16 1.01 2.5 0 4.65-.46 6.37-1.38m29.59-12.57c0 1.38-.24 2.66-.72 3.81-.48 1.14-1.13 2.12-1.93 2.91-.81.79-1.74 1.42-2.77 1.86-1.02.44-2.09.66-3.18.66a8.07 8.07 0 0 1-3.21-.64 7.81 7.81 0 0 1-2.65-1.84 8.82 8.82 0 0 1-1.82-2.92c-.45-1.13-.67-2.42-.67-3.84 0-1.45.23-2.77.67-3.92.44-1.14 1.05-2.11 1.79-2.88s1.62-1.36 2.62-1.77c1.01-.41 2.1-.62 3.27-.62 1.09 0 2.16.22 3.18.66 1.03.44 1.96 1.07 2.77 1.86s1.46 1.76 1.93 2.89c.48 1.13.72 2.4.72 3.78m4.85-23.19c0-.33-.27-.61-.61-.61H65.1c-.34 0-.61.27-.61.61v13.58c-.21-.24-.43-.48-.66-.71-.67-.69-1.43-1.3-2.25-1.81-.83-.52-1.77-.94-2.81-1.25-1.04-.31-2.19-.47-3.42-.47-1.62 0-3.2.32-4.72.96-1.51.64-2.88 1.56-4.08 2.74-1.2 1.18-2.17 2.65-2.89 4.36-.72 1.71-1.08 3.68-1.08 5.85 0 2.17.36 4.14 1.08 5.85.72 1.71 1.69 3.17 2.89 4.36 1.2 1.18 2.57 2.1 4.08 2.71 1.51.62 3.1.93 4.71.93 1.23 0 2.38-.16 3.4-.47 1.02-.31 1.96-.75 2.79-1.31.82-.55 1.58-1.19 2.25-1.91.24-.26.47-.52.7-.79v3.33c0 .34.27.61.61.61h3.79c.33 0 .61-.27.61-.61V15.08zm7.64 34.06c.89.96 1.99 1.72 3.27 2.24 1.27.52 2.73.78 4.34.78 2.32 0 4.24-.53 5.72-1.56.9-.63 1.7-1.36 2.39-2.16v2.58c0 .33.27.61.61.61h3.74c.33 0 .61-.27.61-.61V25.56c0-.33-.27-.61-.61-.61h-3.74c-.33 0-.61.27-.61.61v14.57c0 1.1-.18 2.12-.55 3.02-.36.91-.86 1.69-1.47 2.34-.61.64-1.35 1.14-2.2 1.48-.86.35-1.8.52-2.8.52-2.1 0-3.66-.61-4.76-1.86-1.11-1.26-1.67-3.01-1.67-5.21V25.56c0-.33-.27-.61-.61-.61H75c-.34 0-.61.27-.61.61v15.81c0 1.57.24 3.03.7 4.34.47 1.32 1.16 2.47 2.05 3.43m38.09 3.08c2.49 0 4.62-.5 6.33-1.48 1.68-.96 3.19-2.21 4.51-3.7.22-.25.2-.62-.04-.84l-2.41-2.26a.604.604 0 0 0-.86.03c-.97 1.03-2.08 1.91-3.28 2.6-1.17.67-2.53 1-4.06 1-1.25 0-2.42-.24-3.47-.71a8.454 8.454 0 0 1-2.76-1.97 9.43 9.43 0 0 1-1.85-2.98c-.45-1.14-.67-2.37-.67-3.66 0-1.3.22-2.52.65-3.64a9.39 9.39 0 0 1 1.8-2.95c.76-.84 1.67-1.5 2.71-1.97 1.03-.47 2.16-.71 3.34-.71 1.61 0 2.99.35 4.08 1.04 1.15.73 2.24 1.61 3.21 2.62.11.12.28.18.44.19.17 0 .32-.07.44-.19l2.51-2.66c.22-.23.22-.6 0-.83-.6-.64-1.27-1.25-1.98-1.83a12.87 12.87 0 0 0-5.22-2.53c-1.03-.24-2.18-.36-3.44-.36-1.95 0-3.78.37-5.44 1.11-1.66.74-3.11 1.75-4.33 3.01a13.986 13.986 0 0 0-2.86 4.45c-.68 1.69-1.03 3.49-1.03 5.37s.35 3.68 1.03 5.35c.68 1.67 1.64 3.15 2.86 4.4 1.21 1.25 2.67 2.25 4.33 2.99 1.68.73 3.51 1.11 5.46 1.11m24.47-23.39c1.17 0 2.21.22 3.08.65a7.19 7.19 0 0 1 2.25 1.74c.62.73 1.11 1.59 1.46 2.57.28.79.49 1.63.6 2.49h-14.93c.15-.92.4-1.8.75-2.6.43-.98.98-1.84 1.65-2.56.66-.71 1.44-1.28 2.31-1.69.86-.39 1.81-.6 2.83-.6m11.75 4.23c-.55-1.71-1.36-3.22-2.43-4.49-1.07-1.28-2.4-2.3-3.95-3.04-1.55-.74-3.33-1.12-5.28-1.12-1.85 0-3.59.37-5.15 1.09-1.56.72-2.93 1.72-4.06 2.97-1.13 1.25-2.02 2.74-2.65 4.43-.63 1.68-.95 3.5-.95 5.41 0 2.04.36 3.94 1.07 5.65.71 1.71 1.68 3.19 2.89 4.4 1.21 1.22 2.64 2.17 4.25 2.84 1.61.67 3.34 1.01 5.16 1.01 2.52 0 4.67-.46 6.39-1.38 1.7-.9 3.23-2.11 4.55-3.6.22-.25.2-.63-.05-.85l-2.36-2.12a.598.598 0 0 0-.84.03c-1 1.03-2.12 1.87-3.32 2.49-1.17.61-2.61.92-4.27.92-1.04 0-2.04-.18-2.99-.53-.94-.35-1.8-.87-2.56-1.56-.76-.68-1.39-1.53-1.88-2.53-.41-.82-.69-1.76-.84-2.79h19.45c.3 0 .56-.22.6-.52.04-.26.05-.51.05-.72v-.54c-.01-1.92-.29-3.76-.83-5.45M29.87 69.66c.08-.56.23-1.08.44-1.56a5.3 5.3 0 0 1 .96-1.49c.39-.41.84-.74 1.34-.98.5-.23 1.06-.35 1.65-.35.68 0 1.29.13 1.8.38.52.26.96.6 1.31 1.02.36.42.64.93.85 1.5.17.47.29.98.36 1.49h-8.71zm9.73-4.46a6.714 6.714 0 0 0-2.26-1.74c-.89-.42-1.91-.64-3.02-.64-1.06 0-2.05.21-2.95.62-.89.41-1.68.99-2.33 1.7-.65.72-1.16 1.57-1.52 2.54-.36.97-.54 2.01-.54 3.1 0 1.17.21 2.26.61 3.24.41.98.96 1.83 1.65 2.52.69.7 1.51 1.25 2.43 1.63.92.38 1.92.58 2.95.58 1.44 0 2.67-.26 3.66-.79.97-.51 1.85-1.21 2.61-2.07.11-.13.1-.32-.03-.43l-1.36-1.22a.308.308 0 0 0-.42.01c-.58.6-1.23 1.08-1.92 1.45-.68.35-1.52.53-2.48.53-.6 0-1.19-.1-1.74-.31-.55-.2-1.05-.51-1.49-.91-.44-.4-.81-.89-1.09-1.47a5.69 5.69 0 0 1-.5-1.68h11.26c.15 0 .28-.11.3-.26.02-.15.03-.29.03-.41v-.29c0-1.1-.16-2.16-.47-3.13-.3-.97-.77-1.84-1.38-2.57m21.05-2.38c-.67 0-1.28.08-1.83.24a5.695 5.695 0 0 0-2.66 1.65c-.23.24-.44.5-.63.76-.4-.68-.95-1.27-1.62-1.76-.83-.59-1.88-.89-3.13-.89-.65 0-1.24.08-1.74.24a5.276 5.276 0 0 0-2.42 1.6c-.09.11-.19.22-.27.33v-1.55a.3.3 0 0 0-.3-.3h-2.19a.3.3 0 0 0-.3.3v14.67c0 .17.14.3.3.3h2.19a.3.3 0 0 0 .3-.3v-8.37c0-.64.1-1.23.29-1.75.19-.52.47-.98.81-1.37.34-.38.74-.68 1.19-.89.45-.21.95-.31 1.49-.31 1.09 0 1.92.34 2.54 1.04.62.71.93 1.72.93 3.02v8.63c0 .17.14.3.3.3h2.16a.3.3 0 0 0 .3-.3v-8.46c0-.68.1-1.29.31-1.82.2-.53.48-.98.82-1.33.34-.36.74-.63 1.19-.81a3.9 3.9 0 0 1 1.45-.28c1.11 0 1.95.34 2.57 1.04.62.71.93 1.74.93 3.08v8.57c0 .17.14.3.3.3h2.18a.3.3 0 0 0 .3-.3v-9.08c0-1.9-.51-3.43-1.53-4.53-1.03-1.1-2.45-1.67-4.23-1.67m11.6-5.3h-2.5a.3.3 0 0 0-.3.3v2.41c0 .17.14.3.3.3h2.5a.3.3 0 0 0 .3-.3v-2.41c.01-.16-.13-.3-.3-.3m-.17 5.62H69.9a.3.3 0 0 0-.3.3v14.67c0 .17.14.3.3.3h2.18a.3.3 0 0 0 .3-.3V63.44c.01-.17-.13-.3-.3-.3m12.69 7.71a7.25 7.25 0 0 0-1.59-.83c-.56-.21-1.14-.4-1.71-.57-.49-.15-.97-.3-1.41-.45-.43-.15-.82-.31-1.16-.49a2.69 2.69 0 0 1-.75-.59c-.16-.2-.24-.43-.24-.7v-.06c0-.51.21-.93.65-1.28.45-.36 1.09-.54 1.88-.54.68 0 1.39.12 2.1.37.72.25 1.42.58 2.08 1.01.07.04.15.06.23.04.08-.02.15-.07.19-.14l.99-1.65c.08-.14.04-.32-.09-.41-.78-.5-1.65-.91-2.6-1.21-.95-.3-1.91-.45-2.84-.45-.75 0-1.45.1-2.09.31-.65.21-1.22.51-1.69.91-.48.4-.85.88-1.12 1.44-.26.56-.4 1.18-.4 1.85v.06c0 .74.17 1.37.49 1.87.31.49.73.9 1.22 1.22.48.31 1.03.58 1.63.79.58.2 1.17.39 1.73.56.47.13.93.27 1.36.42.42.14.8.31 1.12.5.3.18.55.38.72.62.16.21.24.46.24.75v.06c0 .62-.24 1.1-.73 1.46-.51.38-1.19.57-2.01.57-.83 0-1.67-.16-2.49-.46-.83-.31-1.64-.76-2.4-1.35a.322.322 0 0 0-.23-.06c-.08.01-.15.06-.2.13l-1.11 1.56a.3.3 0 0 0 .06.41c.85.68 1.85 1.22 2.95 1.62 1.11.4 2.22.6 3.31.6.76 0 1.49-.1 2.15-.31.67-.21 1.25-.52 1.75-.92.49-.4.89-.9 1.19-1.47.29-.58.44-1.25.44-1.99v-.06c0-.71-.15-1.33-.46-1.83-.28-.54-.68-.96-1.16-1.31m12.71 0a7.25 7.25 0 0 0-1.59-.83c-.56-.21-1.14-.4-1.71-.57-.5-.15-.97-.31-1.41-.45-.44-.15-.83-.31-1.16-.49a2.69 2.69 0 0 1-.75-.59c-.16-.2-.24-.43-.24-.7v-.06c0-.51.21-.93.65-1.28.45-.36 1.09-.54 1.88-.54.68 0 1.39.12 2.1.37.72.25 1.42.58 2.08 1.01.07.04.15.06.23.04.08-.02.15-.07.19-.14l.99-1.65c.08-.14.04-.32-.09-.41-.78-.5-1.65-.91-2.6-1.21-.95-.3-1.91-.45-2.84-.45-.75 0-1.45.1-2.09.31-.65.21-1.22.51-1.69.91-.48.4-.85.88-1.12 1.44-.26.56-.4 1.18-.4 1.85v.06c0 .74.16 1.36.49 1.87.31.49.73.9 1.22 1.22.48.32 1.03.58 1.63.79.58.2 1.16.39 1.73.56.47.13.92.27 1.36.42.42.15.8.31 1.12.5.3.18.55.38.72.62.16.21.24.46.24.75v.06c0 .62-.24 1.1-.73 1.46-.51.38-1.19.57-2.01.57-.83 0-1.67-.16-2.49-.46-.83-.31-1.64-.76-2.4-1.35a.322.322 0 0 0-.23-.06c-.08.01-.15.06-.2.13l-1.11 1.56a.3.3 0 0 0 .06.41c.85.68 1.85 1.22 2.95 1.62 1.11.4 2.22.6 3.31.6.76 0 1.49-.1 2.15-.31.67-.21 1.25-.52 1.75-.92.49-.4.89-.9 1.18-1.47.29-.58.44-1.25.44-1.99v-.06c0-.72-.15-1.33-.46-1.83-.27-.54-.66-.96-1.15-1.31m6.63-7.71h-2.19a.3.3 0 0 0-.3.3v14.67c0 .17.14.3.3.3h2.19a.3.3 0 0 0 .3-.3V63.44c.01-.17-.13-.3-.3-.3m.17-5.62h-2.5a.3.3 0 0 0-.3.3v2.41c0 .17.14.3.3.3h2.5a.3.3 0 0 0 .3-.3v-2.41c.01-.16-.13-.3-.3-.3m15.61 13.28c0 .75-.13 1.46-.38 2.11s-.6 1.22-1.04 1.7c-.44.48-.98.86-1.6 1.13-.62.27-1.31.41-2.06.41-.73 0-1.41-.14-2.03-.43a5.08 5.08 0 0 1-1.62-1.15c-.45-.48-.81-1.06-1.07-1.71-.26-.66-.39-1.38-.39-2.13s.13-1.46.38-2.11c.25-.65.6-1.23 1.03-1.72.43-.48.97-.87 1.58-1.14.62-.27 1.31-.41 2.06-.41.73 0 1.41.14 2.03.43.62.28 1.17.68 1.64 1.16.46.49.83 1.07 1.09 1.73.25.67.38 1.38.38 2.13m.61-5.63a8.081 8.081 0 0 0-2.52-1.71c-.97-.42-2.04-.63-3.17-.63-1.15 0-2.23.21-3.2.63-.97.42-1.82 1-2.52 1.73-.71.73-1.26 1.59-1.65 2.55-.39.97-.59 2-.59 3.08s.2 2.11.59 3.06c.39.96.95 1.81 1.65 2.53.7.71 1.55 1.29 2.51 1.71.96.42 2.02.64 3.16.64 1.13 0 2.2-.21 3.18-.64.98-.42 1.83-1 2.54-1.73a8.23 8.23 0 0 0 1.67-2.55c.4-.97.6-2.01.6-3.08 0-1.08-.2-2.11-.59-3.07-.4-.96-.96-1.8-1.66-2.52m16.31-.62a5.24 5.24 0 0 0-1.87-1.28c-.72-.3-1.56-.45-2.49-.45-1.32 0-2.42.3-3.27.89-.55.39-1.04.83-1.45 1.33v-1.61a.3.3 0 0 0-.3-.3h-2.18a.3.3 0 0 0-.3.3V78.1c0 .17.14.3.3.3h2.18a.3.3 0 0 0 .3-.3v-8.4c0-.64.1-1.23.31-1.76.2-.53.49-.98.86-1.36.37-.38.8-.67 1.3-.87.5-.2 1.05-.3 1.63-.3 1.23 0 2.13.36 2.78 1.09.65.74.98 1.75.98 3.03v8.57c0 .17.14.3.3.3h2.19a.3.3 0 0 0 .3-.3V69c0-.9-.13-1.74-.4-2.49-.27-.75-.67-1.41-1.17-1.96m13.52 6.3a7.25 7.25 0 0 0-1.59-.83c-.56-.21-1.14-.4-1.71-.57-.49-.15-.97-.3-1.41-.45-.43-.15-.82-.31-1.16-.49a2.5 2.5 0 0 1-.74-.59c-.16-.2-.24-.43-.24-.7v-.06c0-.51.21-.93.65-1.28.45-.36 1.09-.54 1.88-.54.68 0 1.39.12 2.1.37.72.25 1.42.58 2.08 1.01.07.04.15.06.23.04.08-.02.15-.07.19-.14l.99-1.65c.09-.14.04-.32-.09-.41a10.7 10.7 0 0 0-2.6-1.21c-.95-.3-1.91-.45-2.84-.45-.75 0-1.45.1-2.09.31-.65.21-1.22.51-1.69.91-.48.4-.85.88-1.12 1.44-.26.56-.4 1.18-.4 1.85v.06c0 .74.17 1.37.49 1.87.31.49.73.9 1.22 1.22.48.32 1.03.58 1.63.79.58.2 1.16.39 1.73.56.47.13.93.27 1.36.42.42.14.8.31 1.12.5.3.18.55.38.72.62.16.21.24.46.24.75v.06c0 .62-.24 1.1-.73 1.46-.51.38-1.19.57-2.01.57-.83 0-1.67-.16-2.49-.46-.83-.31-1.64-.76-2.4-1.35a.322.322 0 0 0-.23-.06c-.08.01-.15.06-.2.13l-1.11 1.56a.3.3 0 0 0 .06.41c.85.68 1.85 1.22 2.95 1.62 1.11.4 2.22.6 3.31.6.76 0 1.49-.1 2.15-.31.67-.21 1.25-.52 1.75-.92.49-.4.89-.9 1.18-1.47.29-.58.44-1.25.44-1.99v-.06c0-.71-.15-1.33-.46-1.83-.27-.54-.67-.96-1.16-1.31M21.37 74.42c-.02.03-.03.06-.03.1l.03.13c.04.17.06.35.06.53a2.475 2.475 0 0 1-3.47 2.26l-.19-.09c-.05-.02-.1 0-.13.04l-.12.18a3.53 3.53 0 0 1-5.66.3l-.21-.25c-.02-.03-.05-.04-.09-.04a.12.12 0 0 0-.09.05l-.19.27a3.287 3.287 0 0 1-5.02.43c-.62-.63-.96-1.47-.96-2.36v-.22c0-.06-.04-.1-.09-.11l-.22-.03a4.28 4.28 0 0 1-3.65-4.22c0-1.87 1.2-3.5 2.98-4.06l.14-.05c.04-.01.07-.04.07-.08l.03-.15a4.747 4.747 0 0 1 4.66-3.87c1.14 0 2.23.41 3.1 1.15l.18.15c.04.04.11.03.15-.01l.16-.17c.67-.68 1.56-1.06 2.52-1.06 1.89 0 3.47 1.54 3.52 3.43v.19c0 .05.04.09.08.1l.19.04c2.03.48 3.45 2.28 3.45 4.37 0 1.09-.4 2.14-1.11 2.96l-.09.09zm-1.82-8.06c-.19-2.21-1.99-3.86-4.23-3.86-1.03 0-2.02.37-2.8 1.05a5.505 5.505 0 0 0-3.31-1.12c-2.54 0-4.77 1.78-5.33 4.25a4.989 4.989 0 0 0 .68 9.57 4.002 4.002 0 0 0 4.01 3.76c1.16 0 2.25-.49 3.01-1.36.8.78 1.85 1.21 2.97 1.21 1.32 0 2.57-.62 3.37-1.66.33.11.67.17 1.02.17a3.192 3.192 0 0 0 3.15-3.69c.76-.93 1.18-2.1 1.18-3.3a5.193 5.193 0 0 0-3.72-5.02"/><path class="st0" d="M9.35 72.44a.175.175 0 0 0-.25 0c-.23.22-.46.39-.69.5-.22.11-.49.17-.81.17-.25 0-.48-.05-.7-.15-.21-.1-.4-.23-.56-.4-.16-.17-.28-.37-.37-.6a2.082 2.082 0 0 1 0-1.5c.09-.23.21-.43.37-.6.16-.17.34-.3.56-.4.21-.09.45-.14.7-.14.31 0 .58.06.8.17.23.12.45.28.65.47.04.03.08.05.13.05s.09-.02.13-.06l.39-.42c.07-.07.07-.19-.01-.26-.13-.12-.27-.24-.41-.34-.14-.11-.3-.2-.47-.27a2.95 2.95 0 0 0-1.21-.23c-.39 0-.76.07-1.09.22-.33.15-.62.35-.86.6s-.43.55-.57.89c-.13.34-.2.7-.2 1.08 0 .39.07.75.2 1.09.14.34.33.63.57.88.24.25.53.45.85.59.34.14.7.22 1.09.22a2.813 2.813 0 0 0 1.23-.26c.17-.08.34-.18.49-.3.15-.11.29-.24.43-.38.07-.07.07-.19 0-.26l-.39-.36z"/><path class="st0" d="M14.01 71.97c-.09.23-.21.43-.37.6-.15.17-.34.3-.56.4-.22.1-.46.14-.72.14-.26 0-.5-.05-.72-.15-.22-.1-.41-.24-.57-.4-.16-.17-.28-.37-.37-.6a2.042 2.042 0 0 1 0-1.49c.09-.23.21-.43.37-.6.15-.17.34-.3.56-.4.22-.1.46-.14.72-.14.26 0 .5.05.72.15.22.1.41.24.57.4.16.17.28.37.38.6.09.23.13.48.13.74s-.05.52-.14.75m.33-2.7c-.24-.25-.53-.46-.87-.6-.34-.15-.71-.22-1.12-.22-.4 0-.78.08-1.12.23-.34.15-.63.36-.87.61-.24.26-.43.55-.56.89-.13.33-.2.69-.2 1.06 0 .37.06.73.19 1.06.13.33.32.63.56.89.24.25.53.46.86.6.33.15.71.22 1.12.22a2.727 2.727 0 0 0 1.99-.84c.24-.26.43-.55.56-.89.13-.33.2-.69.2-1.06 0-.37-.07-.73-.19-1.06a2.47 2.47 0 0 0-.55-.89m3.42 5.6h-1.14l.51-.45c.12-.1.22-.19.3-.28.08-.09.16-.17.22-.26s.1-.17.13-.26.04-.19.04-.29c0-.12-.02-.23-.07-.33s-.11-.19-.19-.27a.925.925 0 0 0-.29-.17c-.11-.04-.23-.06-.36-.06-.12 0-.24.01-.33.04-.1.03-.19.07-.27.12-.08.05-.15.11-.22.19-.07.07-.13.15-.19.24-.03.04-.02.1.02.13l.22.16c.02.01.05.02.07.02.03 0 .05-.02.06-.04.1-.14.2-.24.29-.31.09-.07.2-.1.33-.1.06 0 .11.01.17.03.05.02.1.05.14.08a.38.38 0 0 1 .12.3c0 .06-.01.11-.02.16-.02.05-.04.11-.08.16-.04.06-.1.12-.16.19-.07.07-.15.15-.25.24l-.95.84a.09.09 0 0 0-.03.07v.23c0 .05.04.1.09.1h1.83c.05 0 .09-.04.09-.1v-.27c.02-.07-.02-.11-.08-.11"/></svg>