<svg id="Group_1058" data-name="Group 1058" xmlns="http://www.w3.org/2000/svg" xmlns:xlink="http://www.w3.org/1999/xlink" width="45" height="45" viewBox="0 0 45 45">
  <defs>
    <clipPath id="clip-path">
      <rect id="Rectangle_624" data-name="Rectangle 624" width="45" height="45"/>
    </clipPath>
  </defs>
  <g id="Group_1057" data-name="Group 1057" clip-path="url(#clip-path)">
    <path id="Path_933" data-name="Path 933" d="M22.5,0A22.5,22.5,0,1,1,0,22.5,22.5,22.5,0,0,1,22.5,0M34.823,17.466a5.387,5.387,0,0,0-1-2.5A3.611,3.611,0,0,0,31.3,13.9c-3.523-.256-8.8-.256-8.8-.256h-.013s-5.291,0-8.8.256a3.611,3.611,0,0,0-2.524,1.066,5.387,5.387,0,0,0-1,2.5,37.42,37.42,0,0,0-.256,4.076v1.9a37.42,37.42,0,0,0,.256,4.076,5.387,5.387,0,0,0,1,2.5,4.314,4.314,0,0,0,2.78,1.08c2.011.189,8.557.256,8.557.256s5.291-.013,8.814-.256a3.611,3.611,0,0,0,2.524-1.066,5.387,5.387,0,0,0,1-2.5,37.42,37.42,0,0,0,.256-4.076v-1.9a37.42,37.42,0,0,0-.256-4.076Zm-14.942,8.3V18.694l6.8,3.55Z" fill-rule="evenodd"/>
  </g>
</svg>
