<svg xmlns="http://www.w3.org/2000/svg" viewBox="0 0 64 64"><path d="M19.6 30.1h.1c.1.2.2.1.3 0 .1.3-.6.4-.4 0zm4.3 3.9c0 .1 0 .1-.2.1v-.2c.1.1.2.1.2.1zm-1.8-2.1h-.3c.1-.1.3-.4.3 0zm-.3.1c-.2 0-.5.1-.3-.3.2 0 .3.1.3.3zm-.4-1.4c-.2 0-.7-.2-.9-.4.2 0 .5.1.6-.1.6.1.7.5 1.2.5.1.2.6.5.1.6-.4 0-.8-.2-1-.6zm2.1 1.2c-.1.2-.7.1-.8 0 .2 0 .4.1.7 0 0-.1-.1-.2-.2-.4.3 0 .6.2.9.2 0-.2-.1 0 0-.2.1 0 .5.4.5.5-.5-.1-.5-.1-1.1-.1zm1.8-.1c.1 0 .2 0 .2.1-.1 0-.2.2-.2-.1zM37 14h-2c-.6 0-1-.4-1-1s.4-1 1-1h2c.6 0 1 .4 1 1s-.4 1-1 1zm3.9 5.1c0 .1-.2.2-.3 0 0 0 .1 0 0 0h.3zm.2-3.1c.4 0 0 .3 0 .3.1 0 0 .3 0 .3.4 0 .4-.2.6-.3-.1.3-.4.4-.1.7.2.1.4.3.3.5.5 0 .5.4.4 1 .3 0 .2 0 .2-.2.2.1.2.3 0 .3-.2.4-.7.4-1.2.4 0-.3-.1-.4-.4-.3-.4.1-.1-.3-.1-.6 0 0 1 0 .4-.1 0-.5-.1-.7-.6-.7 0-.4-.1-.3-.2-.7 0-.6.5.1.7-.6zm-1.8 2c-.5-.1.5-.3.5-.4-.2 0-.3-.2-.2-.3.1-.2.2.2.4.1.2 0 .6-.3.4.3-.2.6-.4 1-1.1 1-.3-.3 0-.4 0-.7zm5.2 4.3c.2.1.3.1.3-.1.3.1 0 .3-.1.5-.2-.2-.2-.2-.2-.4zm.2.5c.2 0 .3.9-.3.7 0-.2-.1-.6.1-.6.1.4.2.2.2-.1zm1 1.5c.1-.3.2-.1.4 0 .4.1.2 0 .5-.1 0 .7-.4.1-.9.1zM56.1 35c.1 0 .5 0 .5-.1.4 0 1-.1 1.4-.2 0 .6-.5 1-.4 1.6-.3 0-.2.4-.2.5-.2.1-.3.4-.5.5 0 .3-.6.7-.8 1-.2.3-.8.7-.9 1.1 0-.1-1.1 1.2-.9 1.2 0 .2-.3 2.2.1 2.2 0 .2.4 1.8.1 1.8 0 .5-.3.8-.3 1.2-.2.1-.4.2-.5.3-.3 0-.4.6-.6.6 0 .7-.2 1.2-.2 1.9.1 0-.4 1.1-.4 1.1-.4.2-1.3 1.1-1.3 1.5 0 0-.6.9-.7 1-.2 0-1.6.3-1.6.4-.3 0-1.1.2-1.3 0 0-.3-.2-.7-.2-1.1-.1 0-.2-.6-.3-.6 0-.1-.9-2-.8-2 0-.2-.2-.8-.2-.8 0-.7-.5-1.2-.5-1.8-.1 0-.4-1.3-.3-1.3 0-.7.2-1.2.3-1.9.1-.9-.1-1.4-.2-2-.1 0-.4-.5-.4-.6-.4-.3-.5-.8-.5-1.2.3-.3.4-1.4.3-1.7-.5-.2-.7-.1-1.2-.1-.3-.6-2.4-.2-3-.2 0 .3-1.5-.1-1.6-.3-.4 0-1.1-.8-1.1-1.1-.4-.3-1-1.5-1-2-.3-.2-.2-.8 0-.8 0-.2-.1-.7-.2-1-.1-.2.2-.4.2-.7 0-.7 0-1 .4-1.7.1-.2.3-.4.4-.7.2-.5.3 0 .5-.5.3-.1.4-.6.7-.8.1-.2.1-.2 0-.3.1 0 .3-.7.3-.9.4-.5.1-.3.5-.2.1-.1.4-.5.6-.5.1-.2.3-.3.5-.3 0 .3.8-.1.9-.1.1-.3 1-.6 1.2-.6 0-.3 1.7.1 2 0v-.1c.4.1 1 1.5 1 1.9h.7c0 .3.6.4.8.4.4 0 1.5 0 1.5-.5.3 0 .5.2.5.5.3 0 2.3.1 2.1.5.3 0 .4.5.6.5-.1.3.3 1.2.6 1.2 0 .3.2.8.4 1 .1.4.6 1.3 1 1.5-.2.3.3.6.4 1 0 0 .1.5.2.6 0 .3.7 1.7 1.1 1.7.2-.1-.2 0 .3 0zM59 22h-1.1c-.1 0-.3-.5-.2-.6h.2c-.1-.2-.2-.4-.3-.7-.2.1-.4.3-.7.4 0 .1-.4.9 0 .9-.5 0-.9.5-.9 1 0 .6.4 1 1 1h.4c0 .2.1.3.5.4.1.5.9.6 1.1.1-.3 0-.2-.3-.2-.6h.2c.5 0 1-.4 1-1s-.5-.9-1-.9zm-4.1 10.9c0-.2-.1-.3-.2-.4.3 0-.9-2.1-.9-2.4-.2-.1-.4-.7-.4-.9-.2-.2-.5-.7-.6-1-.2-.2-.8-.9-.8-1.2.3 0 .9.1.9-.3-.2 0-.3-.3 0-.3-.1-.3.2-.5.2-.7.1-.3.2-.7.2-1-.3 0-.4.1-.7.1 0 .2-.6 0-.7 0-.1-.3-1 .3-1.3-.2-.4-.4-.3-.7-.4-1.2-.2-.3-.6-.4-.8-.4-.6-.1-.2.7-.2.9.4 0-.2.5-.2.7-.6-.1-.4-.9-.8-1.1-.1-.2 0-.3-.3-.3 0-.3.1-.7-.1-.8 0-.1-.5-.2-.6-.3-.3 0-1.1-1.3-1.4-.9-.2.3.1.3.2.6.5-.1.5.8 1.1.7v.4c.5-.1.4.3.6.3-.2.2-.7-.3-.5.1.1.3 0 .5-.3.8 0-.3 0-1.1-.3-1.1-.2-.4-.8-.3-1.1-.7-.2 0-.3-.7-.7-.7-.1.1-.3.2-.4.2-.2.4-1.3 0-1.3.1 0 0-.6 1.5-.7 1.7-.1.4-.4.4-.5.8-.1.2-1.3.1-1.3.3-.5-.2-1-.6-1-1.2 0 0 .1-1.5.2-1.7.1 0 .1.1.2.2.3-.1 1.1.1 1.1-.3.3 0 .4.1.3.4.3.1.8.1.8-.3-.2 0-.2 0-.2-.2.6-.6-.4-1.1-.4-1.4-.2-.1-.6-.5-.3-.3.3.1 1.2.4.8-.2.1.1.5.5.5.1.1 0 .6-.3.2-.3V19c.6.3.3-.2.6-.4 0 .4.3-.2.5-.2.2-.4.8-.1.9-.5-.3-.1-.2-.8-.2-1.1.4.1.7-.5.8-.1 0 .1 0 .5.1.6.5.3.4-.2.4-.4-.2 0-.4-.6-.4-.9-.1 0-.4.1-.4.2-.5 0-.9-.2-1.3-.2 0-.1-.5-.6-.5-.6-.3-.5.3-.4.4-.4 0-.5 2-.4 2.1-1.2-.7 0 .7-1.1.7-1.1.4-.4.7-.7 1.2-.7.2 0 2.8-.7 2.8-.4h.8C46 6.9 39.4 4 32 4c-7.1 0-13.6 2.7-18.6 7.1 0 .1.1.2.1.3.3 0 .6-.2.7.1h-.4c.1.7-.3.3-.7.3 0 0-.2-.1-.3-.1l-.3.3v.1c.1 0 .1.2.4.3l1.2.3c.3.1.5-.1.8-.1 0 0 .7-.3.2-.3.1-.3-.1-.3-.3-.3 0-.3.7-.1 1-.1.2-.3 0-.3.2-.6.2-.4.5-.1.6-.4.2.1.4.2.5.5.2.1 1.1 1.4 1.1.5.3.1.5.7.5 1 .6-.1.6-.5.6-1 .1 0 0-.2 0-.3.2-.1.5.2.5-.1.1 0 .1.1.1.2.3.1.5 0 .7 0 .1 0 .1.7 0 .9-.1.3-.6.3-.6.4-.6.5.7.7 1 1-.1 0-.6-.1-.6-.1-.3 0-1.1.3-1.3.1.4 0 .5-.5.6-.9-.4-.1-.8.1-.9.4-.2.6-.6 0-.8.4-.1 0-.8.3-.8.2-.8.1-.6.8-.6 1.5.3.2.9.7.9 1 .7.1 1 .2 1.6.3.1.1.3.2.4.2 0 .4.4.3.7.3 0-.5.6.4.7.6-.1 0 .1.5.2.7-.1 0-.1 0-.1.1.3.1.8.1.9-.2-.3 0-.2-.3-.2-.5-.3-.2-.3-.6 0-.7 0 .3 1-.2.4-.4.1-.3.2-.8 0-1-.1-.2-.3 0-.4-.3.4-.1.1-.8.1-1.2.1 0 .4.1.4 0 .4 0 1 .5 1.2-.1.6.3.1.5.8.3 0 .2.7.9.8.9 0 0 0 .2.1.2 0 .2-.1-.1-.1.2.1 0 .6.1.6-.1.3 0 .5-.4.5-.7.2-.1.5 1.1.8 1.1.2.3.7.7.7.9.1.1.2.1.2.4.1 0 .4-.6.4 0 .1 0 .5.3.6.5-.3 0 0 .3-.2.3 0 .3-.7.1-.9 0-.2 1-1.6.3-2.5.6-.4.1-1.3 1.1-1.3 1.6.5 0 .8-.5 1.3-.6.4 0 .5-.2.8-.3 0 .1.1 0 .1.1-.7 0-.3.4-.1.8.1.2.3.3.4.4-.1.1-.1.2-.2.4-.1 0-.4.1-.4.2-.8.1-.4 0-.3-.2 0 .1.3 0 .3 0 0-.2-.1-.2 0-.3-.4 0-.6.2-1 .2-.1.1-.4.4-.5.4-.1.3-.3.8-.6 1 0-.1-.7.4-.6.4-.2.2-.3.2-.4.6 0 0-.2.7-.2.8-.3.2-.4 1-.9 1-.3.6-.9.5-.9 1.3.2.2.3 1 .3 1.3.1.3.2.7-.3.7l-.3-.5c0-.2-.2-.8-.4-1-.2-.3-.5 0-.8-.1-.2-.1-1-.2-1.3-.2 0 .2.2.2.2.4-.2.1-.4.2-.6.2-.4-.1-.4-.4-.8-.3-.7.1-1.2.7-1.2 1.4-.1 0-.1 1.4 0 1.4 0 .4.3.7.3 1 .3 0 .7.7 1 .7 0 .3-.2.3.4.3 0 0 .3-.2.3-.4-.4-.1 0-.6.2-.7 0 .3.5-.1.5-.1.1 0 .5-.2.5-.2 0-.4.4 0 .1.2-.3 0-.2.4-.4.4l-.3.9c-.1.4.2.4.1.8.4.1.8 0 1.2 0v-.2c.6 0 0 1.1.4 1.1 0 .4.2.7.2 1 .3.2.4.4.3.7.3 0 1 .1 1-.3.5 0 .5.3.5.7 1 0 .4-1 .8-1 0-.2.1-.2.2-.1.2.1.3-.2.5-.3 0 0 .2-.1.3-.1l.2.2c.3 0 .5-.2.8-.3.3 0 .2.8.9.8.3 0 .9.1 1.1-.1.1 0 .3.1.3.2.2 0 .2.2.3.2 0 0 .1.1.1 0 0 .1.2.1.3.3 0 .2.4.2.4.4.3.2-.1.2.4.3.3.1.5.2.8.2.1-.3.4 0 .5 0 .1.2.1 0 .2.2.4.4.2.2.3.6.2.1.3.6.3.9-.2 0 0 .7 0 .7-.2 0 .5.4.5-.1.3 0 .5.4.7.4-.1.3.3.5.3.1.5 0 .3.7.3 1 .3 0 .4-.2.7-.2.3-.2.7-.3 1.1-.3 1.1 0 2 .9 2 2 0 1-.7 1.8-1.7 1.9-.1.1-.2.3-.3.3v1.1c0 .2-.1 1.2-.3 1.2 0 .5-.4.6-.5 1.2-.3.2-1.1.6-1.2.8-.2 0-.4.2-.6.2 0 .1-.5.5-.4.5 0 .3 0 1.1-.2 1.4-.1.1-.3.1-.2.4-.3 0 0 .2-.4.2-.3 0-.7.4-.8.7 0 .4-.1.7-.5.9 0 .1-.6.2-.6.5.1 0 0 .7 0 .7-.2 0-.6.2-.7.3-.6 0-.6.1-1 .3 0 .1-.1.4-.1.4 0 .5-.3 0-.6.3.1 0 .3.5.2.5 0 .4-.3.5-.5.8-.1.1-.2.4-.3.4 0 .3-.1.5-.1.8.1 0 0 .1 0 .2.1 0 .1-.2.2-.2 0-.2.4.1.1.1-.2.3-.4.3-.5.7-.1 0-.2.1-.3.3 2.4.6 4.8 1 7.4 1 9.8 0 18.5-5.1 23.5-12.8 0-.7.1-1.4.2-1.6.2.1.3.4.5 0-.3-.1-.3-.2-.1-.5.1.1.4.2.6.2.1-.1.1-.3.2-.4-.2-.2.1-.5.2-.4 0-.1.1-.2.1-.3 0-.2 0-.2.1-.2C59 40.4 60 36.3 60 32v-.4c-.1.2-.2.4-.3.5 0 .1-1.4.7-1.3 1-.3 0-1.1.3-1.3.6-.2 0-.9.3-1 .4-.9-.1-.7-1.2-1.2-1.2zm-.1-10.2c0-.9-.7-.7-1-1.2-.2 0-.3-.2-.7-.2-.2-.1-.4 0-.5.2-.5.2-.2-.3-.6-.3 0-.5-.2-.6-.7-.6-.3.7-.8 1.1-.7 1.9.2.1.2.1.1.3.3 0 2.2-.1 2.2-.3.1 0 .4.7.4.1.3 0 .4.6 1 .4.1.3 1.1-.3.5-.3zm-1.7-9.1c.1.1.1.3.1.3.1 0 .1 0 .2-.1-.1 0-.2-.1-.3-.2zm-.6-.6zM12 29c0-.3-.7-.8-.9-.8 0-.1-.3-.7-.4-.7 0-.2-.7-1.1-.8-.7-.1.3.6.6.6.9.1 0 .6.9.7 1.1 1.1 1.8-.8.6-.8-.2-.2-.1-.6-1-.6-1.3-.1-.1-.6-1-.5-1 0-.6-.3-.9-1-.9 0-.1-.6-.8-.6-.8 0-.2-.4-1-.7-1.1 0-.5-.3-1.1-.1-1.6 0-.5 0-1.2-.2-1.7C5 23.8 4 27.8 4 32c0 12.1 7.7 22.3 18.4 26.3 0-1 .1-2.2.3-2.2 0-.1.1-.8.2-.8V54c-.1-.3.2-.7.3-1.1.6-.3.2-3.1.6-3.1 0-1.4.3-2.2.1-3.5.1 0-.6-.8-.6-.8-.7 0-1.2-1.1-1.2-1.6-.1-.2-.2-.5-.2-.8.2 0-1-1.7-1-1.7-.6-.3 0-.8.1-1.4-.5-.2 0-1.6.2-1.6 0-.2.1-.3.3-.4.1.5.7-.2.2-.2v-1.1c0-.5-.4-1.4-.8-.4-.4-.2-1.3-.1-1.3-.7.1-.3-.5-.9-.7-1 .2-.5-1-1.2-1.4-1.2 0-.1-.2-.1-.3-.2-.4 0-.5-.6-1-.6-.6 0-1.1-.4-1.6-.4-.2-.3-1-.2-1.2-.6-.4 0-.6-.8-.6-1.1 0-.2-.3-1.5-.8-1.5zm45.9.3c.1 0 .1-.1.1-.1 0 .2.1.4.3.6.2.1.4.2.6.2.4 0 .7-.2.8-.5v-.1c.1-.1.1-.3.1-.5 0-.6-.5-1-1-1-.4 0-.6.2-.8.5 0-.1 0-.3-.2-.5v1c.2.2.2.3.1.4zM32 64C14.3 64 0 49.7 0 32S14.3 0 32 0s32 14.3 32 32-14.3 32-32 32z"/></svg>