<svg id="Layer_1" xmlns="http://www.w3.org/2000/svg" viewBox="0 0 464.7 500"><path class="st0" d="M261.3 171.8c13.4 0 23.1-10.2 23.1-24.1v-.3c0-14-10-24.6-23.4-24.6-13.3 0-22.9 10.2-22.9 24.3v.3c0 13.6 10.2 24.4 23.2 24.4zm29.5 190.9h-5.4V382h5.4c5.9 0 9.8-3.9 9.8-9.6.1-5.7-4-9.7-9.8-9.7zM222.5 375h9l-4.5-10.4zm-54.9-.2h-7.8v7.3h8.2c2 0 5.3-.5 5.3-3.7 0-3-3.1-3.6-5.7-3.6zm-43.8-63c-5.4 0-9.6 4.3-9.6 10.1s4.1 10.1 9.6 10.1c5.4 0 9.6-4.3 9.6-10.1 0-5.7-4.1-10.1-9.6-10.1zm57.8.5h-5.4v19.3h5.4c5.9 0 9.8-3.9 9.8-9.6.1-5.8-4-9.7-9.8-9.7z"/><path class="st0" d="M462.3 383.5V2.5H2.3V375c0 31.5 21.5 39.5 21.5 39.5s93 45 154 71.3 111.8 0 111.8 0 122-55.7 148.7-69c26.7-13.3 24-33.3 24-33.3zM324.1 118.4l39.3-12.5c.2-.1.5-.1.7-.1h17.7c1.3 0 2.3 1 2.3 2.3v146.6c0 1.3-1 2.3-2.3 2.3h-25.4c-1.3 0-2.3-1-2.3-2.3V137.1l-23.3 6.5c-.6.2-1.2.1-1.8-.2-.5-.3-.9-.8-1.1-1.4l-5.4-20.8c-.2-1.2.5-2.5 1.6-2.8zm-108.6 28.9c0-25.1 20.1-44.8 45.8-44.8 25.6 0 45.6 19.6 45.6 44.5v.3c0 25.1-20.2 44.7-45.9 44.7-25.5 0-45.5-19.5-45.5-44.4v-.3zm81.8 65.5v6c0 2.8-2.2 5-5 5h-62.1c-2.8 0-5-2.2-5-5v-6c0-2.8 2.2-5 5-5h62.1c2.7 0 5 2.2 5 5zm-110.4-123 2.1-2.5c.1-.1.2-.1.3-.1.1 0 .2 0 .3.1 2 1.7 3.8 2.5 5.9 2.5 1.9 0 3.1-.8 3.1-2.1 0-1-.3-1.8-4.1-2.7-4.3-1-6.8-2.4-6.8-6.2 0-3.6 2.9-6.1 7.1-6.1 2.8 0 5.2.8 7.3 2.5.2.1.2.3.1.5l-1.8 2.6-.2.2c-.1 0-.2 0-.3-.1-1.8-1.3-3.4-1.9-5.1-1.9-1.7 0-2.8.8-2.8 2s.4 1.8 4.4 2.7c3.4.8 6.6 2.2 6.6 6.1 0 3.8-2.9 6.3-7.4 6.3-3.1 0-6.1-1.1-8.4-3.2-.4-.2-.5-.5-.3-.6zm-7.4-10.3.2-.2c1.7-.3 2.1-1.2 2.1-1.9h-1.1c-.2 0-.4-.2-.4-.4v-3.8c0-.2.2-.4.4-.4h3.7c.2 0 .4.2.4.4v3.3c0 3.2-1.5 4.8-4.7 5-.2 0-.3-.1-.4-.3l-.4-1.5c.1 0 .1-.1.2-.2zm-18.7-6.2c0-.2.2-.4.4-.4h3.4c.2 0 .4.2.4.4v8.9l8.7-9.2c.1-.1.2-.1.3-.1h4.2c.2 0 .3.1.3.2s0 .3-.1.4l-7.9 8.2 8.3 10.9c.1.1.1.3 0 .4-.1.1-.2.2-.3.2h-4.2c-.1 0-.2-.1-.3-.1l-6.4-8.5-2.6 2.7v5.5c0 .2-.2.4-.4.4h-3.4c-.2 0-.4-.2-.4-.4V73.3zm-21.2 0c0-.2.2-.4.4-.4h3.4c.2 0 .4.2.4.4v11.1c0 3.4 1.6 5.2 4.6 5.2 2.9 0 4.6-1.8 4.6-5.1V73.3c0-.2.2-.4.4-.4h3.4c.2 0 .4.2.4.4v11.1c0 5.8-3.2 9.2-8.8 9.2-5.5 0-8.7-3.3-8.7-9V73.3zm-26.3 0c0-.2.2-.4.4-.4h14.5c.2 0 .4.2.4.4v3.1c0 .2-.2.4-.4.4h-10.7v4.3h9.5c.2 0 .4.2.4.4v3.1c0 .2-.2.4-.4.4h-9.5v4.5h10.9c.2 0 .4.2.4.4V93c0 .2-.2.4-.4.4h-14.7c-.2 0-.4-.2-.4-.4V73.3zm-21 0c0-.2.2-.4.4-.4h3.4c.2 0 .4.2.4.4V81h8.6v-7.8c0-.2.2-.4.4-.4h3.4c.2 0 .4.2.4.4v19.6c0 .2-.2.4-.4.4h-3.4c-.2 0-.4-.2-.4-.4V85h-8.6v7.9c0 .2-.2.4-.4.4h-3.4c-.2 0-.4-.2-.4-.4V73.3zm-19.2 0c0-.2.2-.4.4-.4h15.9c.2 0 .4.2.4.4v3.2c0 .2-.2.4-.4.4h-5.8v16c0 .2-.2.4-.4.4h-3.5c-.2 0-.4-.2-.4-.4v-16h-5.8c-.2 0-.4-.2-.4-.4v-3.2zm-.8 35.8c0-1.3 1-2.3 2.3-2.3h23.7c.7 0 1.4.3 1.8.9L174 203v-93.9c0-1.3 1-2.3 2.3-2.3h25.2c1.3 0 2.3 1 2.3 2.3v145.6c0 1.3-1 2.3-2.3 2.3h-21.4c-.7 0-1.4-.3-1.8-.9l-76.1-98.2v96.8c0 1.3-1 2.3-2.3 2.3H74.6c-1.3 0-2.3-1-2.3-2.3V109.1zm32.8 202.8c0 .2-.2.4-.4.4H88.3v7.3h14.5c.2 0 .4.2.4.4v4.7c0 .2-.2.4-.4.4H88.3v11.6c0 .2-.2.4-.4.4h-5.2c-.2 0-.4-.2-.4-.4v-29.4c0-.2.2-.4.4-.4h21.9c.2 0 .4.2.4.4v4.6zm18.7 25.6c-9 0-15.7-6.7-15.7-15.6 0-8.9 6.8-15.6 15.8-15.6s15.7 6.7 15.7 15.6c0 8.9-6.8 15.6-15.8 15.6zm20.9-.9v-29.4c0-.2.2-.4.4-.4h5.2c.2 0 .4.2.4.4v24.4h15.1c.2 0 .4.2.4.4v4.7c0 .2-.2.4-.4.4h-20.7c-.3-.1-.4-.3-.4-.5zm23.2 50.9h-13.6c-.2 0-.4-.2-.4-.4v-29.4c0-.2.2-.4.4-.4h13.2c6.1 0 10.1 3.1 10.1 7.9 0 2.9-1.2 5-3.7 6.5 3.6 1.4 5.3 3.8 5.3 7.3 0 5.3-4.2 8.5-11.3 8.5zm2.8-50.5c-.2 0-.4-.2-.4-.4v-29.4c0-.2.2-.4.4-.4h11c9.3 0 16 6.3 16 15.1s-6.7 15.1-16 15.1h-11zm38.9 50.3c-.1.1-.2.2-.3.2h-6.1c-.1 0-.2-.1-.3-.2l-7.1-10.1h-5.9v9.9c0 .2-.2.4-.4.4h-5.2c-.2 0-.4-.2-.4-.4v-29.4c0-.2.2-.4.4-.4h13.1c7 0 11.3 3.7 11.3 9.7 0 4.5-2.5 7.8-6.8 9.2l7.6 10.7c.1.1.1.2.1.4zm-6.5-50.7v-29.4c0-.2.2-.4.4-.4h5.2c.2 0 .4.2.4.4v29.4c0 .2-.2.4-.4.4h-5.2c-.3 0-.4-.2-.4-.4zm39.6 50.7c-.1.1-.2.2-.3.2h-5.5c-.2 0-.3-.1-.3-.2l-2.9-6.9h-13.4l-2.9 6.9c-.1.1-.2.2-.3.2h-5.3c-.1 0-.2-.1-.3-.2-.1-.1-.1-.2 0-.4l13-29.7c.1-.1.2-.2.3-.2h4.8c.1 0 .3.1.3.2l13 29.7c-.1.2-.1.3-.2.4zm-27-50.7v-29.4c0-.2.2-.4.4-.4h4.8c.1 0 .2.1.3.1l15.1 19.5v-19.3c0-.2.2-.4.4-.4h5.1c.2 0 .4.2.4.4v29.4c0 .2-.2.4-.4.4h-4.3c-.1 0-.2-.1-.3-.1l-15.6-20.1v19.9c0 .2-.2.4-.4.4h-5.1c-.2 0-.4-.2-.4-.4zm57.4 50.5c0 .2-.2.4-.4.4h-4.3c-.1 0-.2-.1-.3-.1l-15.6-20.1v19.9c0 .2-.2.4-.4.4H247c-.2 0-.4-.2-.4-.4v-29.4c0-.2.2-.4.4-.4h4.8c.1 0 .2.1.3.1l15.1 19.5v-19.3c0-.2.2-.4.4-.4h5.1c.2 0 .4.2.4.4v29.4zm2.4-54.6c0 .1 0 .2-.1.3-2.5 2.1-6.7 4.7-12.5 4.7-9.2 0-15.6-6.4-15.6-15.6 0-8.8 6.8-15.6 15.6-15.6 4.8 0 8.1 1.2 11.6 4.1.2.1.2.4 0 .5l-3.3 3.9c-.1.1-.2.1-.3.1-.1 0-.2 0-.3-.1-2.2-1.9-4.3-3.1-8-3.1-5.1 0-9.2 4.4-9.2 10.1 0 6 4 10.2 9.6 10.2 2.5 0 4.9-.7 6.7-2v-5h-7.2c-.2 0-.4-.2-.4-.4v-4.5c0-.2.2-.4.4-.4H275c.2 0 .4.2.4.4v12.4zm15.3 55h-11c-.2 0-.4-.2-.4-.4v-29.4c0-.2.2-.4.4-.4h11c9.3 0 16 6.3 16 15.1.1 8.7-6.7 15.1-16 15.1zm16.5-50.5h-13.6c-.2 0-.4-.2-.4-.4v-29.4c0-.2.2-.4.4-.4h13.2c6.1 0 10.1 3.1 10.1 7.9 0 2.9-1.2 5-3.7 6.5 3.6 1.4 5.3 3.8 5.3 7.3-.1 5.3-4.3 8.5-11.3 8.5zm38.7-.4c0 .2-.2.4-.4.4h-22c-.2 0-.4-.2-.4-.4v-29.4c0-.2.2-.4.4-.4h21.8c.2 0 .4.2.4.4v4.6c0 .2-.2.4-.4.4h-16.3v6.9h14.4c.2 0 .4.2.4.4v4.6c0 .2-.2.4-.4.4h-14.4v7.2h16.5c.2 0 .4.2.4.4v4.5zm16.3.4h-11c-.2 0-.4-.2-.4-.4v-29.4c0-.2.2-.4.4-.4h11c9.3 0 16 6.3 16 15.1 0 8.7-6.7 15.1-16 15.1zm28.2-56.4H238.4l-7.6 7.6-7.6-7.6H71v-1.1h152.1l7.6-7.6 7.6 7.6h152.1v1.1z"/><path class="st0" d="M362.3 312.3h-5.4v19.3h5.4c5.9 0 9.8-3.9 9.8-9.6.1-5.8-4-9.7-9.8-9.7zm-165.4 50.4h-7.2v9.1h7.2c3.5 0 5.7-1.8 5.7-4.6.1-2.9-2-4.5-5.7-4.5zM311 315.5c0-3-3-3.4-4.8-3.4h-7.1v7.1h6.7c1.9 0 5.2-.5 5.2-3.7zm-4.1 8.8h-7.8v7.3h8.2c2 0 5.3-.5 5.3-3.7 0-2.9-3.1-3.6-5.7-3.6zM171.6 366c0-3-3-3.4-4.8-3.4h-7.1v7.1h6.7c2 0 5.2-.5 5.2-3.7z"/><path d="M104.7 306.8H82.8c-.2 0-.4.2-.4.4v29.4c0 .2.2.4.4.4H88c.2 0 .4-.2.4-.4V325h14.5c.2 0 .4-.2.4-.4v-4.7c0-.2-.2-.4-.4-.4H88.3v-7.3h16.4c.2 0 .4-.2.4-.4v-4.7c0-.1-.2-.3-.4-.3zm19.2-.5c-9 0-15.8 6.7-15.8 15.6 0 8.9 6.8 15.6 15.7 15.6 9 0 15.8-6.7 15.8-15.6 0-8.9-6.8-15.6-15.7-15.6zm0 25.7c-5.5 0-9.6-4.4-9.6-10.1 0-5.7 4.1-10.1 9.6-10.1s9.6 4.4 9.6 10.1c-.1 5.8-4.2 10.1-9.6 10.1zm42.2 4.6v-4.7c0-.2-.2-.4-.4-.4h-15.1v-24.4c0-.2-.2-.4-.4-.4H145c-.2 0-.4.2-.4.4v29.4c0 .2.2.4.4.4h20.7c.2.1.4-.1.4-.3zm31.6-14.8c0-8.7-6.7-15.1-16-15.1h-11c-.2 0-.4.2-.4.4v29.4c0 .2.2.4.4.4h11c9.2.1 16-6.3 16-15.1zm-16.1 9.7h-5.4v-19.3h5.4c5.8 0 9.8 4 9.8 9.7.1 5.8-3.9 9.6-9.8 9.6zm27 5.5c.2 0 .4-.2.4-.4v-29.4c0-.2-.2-.4-.4-.4h-5.2c-.2 0-.4.2-.4.4v29.4c0 .2.2.4.4.4h5.2zm12.5 0c.2 0 .4-.2.4-.4v-19.9l15.6 20.1c.1.1.2.1.3.1h4.3c.2 0 .4-.2.4-.4v-29.4c0-.2-.2-.4-.4-.4h-5.1c-.2 0-.4.2-.4.4v19.3l-15.1-19.5c-.1-.1-.2-.1-.3-.1H216c-.2 0-.4.2-.4.4v29.4c0 .2.2.4.4.4h5.1zm54-17.2h-12.5c-.2 0-.4.2-.4.4v4.5c0 .2.2.4.4.4h7.2v4.9c-1.8 1.3-4.3 2-6.7 2-5.7 0-9.6-4.2-9.6-10.2 0-5.6 4-10.1 9.2-10.1 3.7 0 5.8 1.2 8 3.1.1.1.2.1.3.1.1 0 .2-.1.3-.1l3.3-3.9c.1-.2.1-.4 0-.5-3.4-2.9-6.8-4.1-11.6-4.1-8.7 0-15.6 6.9-15.6 15.6 0 9.2 6.4 15.6 15.6 15.6 5.8 0 10-2.5 12.5-4.7.1-.1.1-.2.1-.3v-12.4c-.1-.1-.3-.3-.5-.3zm38.1 1.4c2.5-1.5 3.7-3.7 3.7-6.5 0-4.8-3.9-7.9-10.1-7.9h-13.2c-.2 0-.4.2-.4.4v29.4c0 .2.2.4.4.4h13.6c7.1 0 11.3-3.2 11.3-8.5 0-3.5-1.7-5.8-5.3-7.3zm-14.1-9.1h7.1c1.8 0 4.8.4 4.8 3.4 0 3.2-3.2 3.7-5.2 3.7h-6.7v-7.1zm8.2 19.6h-8.2v-7.3h7.8c2.6 0 5.7.6 5.7 3.6 0 3.2-3.3 3.7-5.3 3.7zm38.3-.1h-16.5v-7.2h14.4c.2 0 .4-.2.4-.4v-4.6c0-.2-.2-.4-.4-.4h-14.4v-6.9h16.3c.2 0 .4-.2.4-.4v-4.6c0-.2-.2-.4-.4-.4h-21.8c-.2 0-.4.2-.4.4v29.4c0 .2.2.4.4.4h22c.2 0 .4-.2.4-.4V332c0-.2-.2-.4-.4-.4zm16.7-24.8h-11c-.2 0-.4.2-.4.4v29.4c0 .2.2.4.4.4h11c9.3 0 16-6.4 16-15.1 0-8.8-6.7-15.1-16-15.1zm0 24.7h-5.4v-19.3h5.4c5.8 0 9.8 4 9.8 9.7.1 5.8-3.9 9.6-9.8 9.6zm-188.4 40.2c2.5-1.5 3.7-3.7 3.7-6.5 0-4.8-3.9-7.9-10.1-7.9h-13.2c-.2 0-.4.2-.4.4v29.4c0 .2.2.4.4.4h13.6c7.1 0 11.3-3.2 11.3-8.5 0-3.5-1.7-5.8-5.3-7.3zm-14.2-9.1h7.1c1.8 0 4.8.4 4.8 3.4 0 3.2-3.2 3.7-5.2 3.7h-6.7v-7.1zm8.3 19.5h-8.2v-7.3h7.8c2.6 0 5.7.6 5.7 3.6 0 3.3-3.4 3.7-5.3 3.7zm33.9-5.9c4.3-1.4 6.8-4.7 6.8-9.2 0-6-4.3-9.7-11.3-9.7h-13.1c-.2 0-.4.2-.4.4v29.4c0 .2.2.4.4.4h5.2c.2 0 .4-.2.4-.4v-9.9h5.9l7.1 10.1c.1.1.2.2.3.2h6.1c.1 0 .3-.1.3-.2.1-.1.1-.3 0-.4l-7.7-10.7zm-4.9-4.3h-7.2v-9.1h7.2c3.7 0 5.7 1.6 5.7 4.5 0 2.8-2.2 4.6-5.7 4.6zm32.8-14.6c-.1-.1-.2-.2-.3-.2h-4.8c-.1 0-.3.1-.3.2l-13 29.7c-.1.1 0 .2 0 .4.1.1.2.2.3.2h5.3c.2 0 .3-.1.3-.2l2.9-6.9h13.4l2.9 6.9c.1.1.2.2.3.2h5.5c.1 0 .2-.1.3-.2.1-.1.1-.2 0-.4l-12.8-29.7zm-7.3 17.7 4.5-10.5 4.5 10.5h-9zm50.2-17.7h-5.1c-.2 0-.4.2-.4.4V377l-15.1-19.5c-.1-.1-.2-.1-.3-.1H247c-.2 0-.4.2-.4.4v29.4c0 .2.2.4.4.4h5.1c.2 0 .4-.2.4-.4v-19.9l15.6 20.1c.1.1.2.1.3.1h4.3c.2 0 .4-.2.4-.4v-29.4c0-.3-.2-.4-.4-.4zm18.1 0h-11c-.2 0-.4.2-.4.4v29.4c0 .2.2.4.4.4h11c9.3 0 16-6.4 16-15.1.1-8.8-6.7-15.1-16-15.1zm0 24.7h-5.4v-19.3h5.4c5.8 0 9.8 4 9.8 9.7.1 5.8-3.9 9.6-9.8 9.6zM73.4 76.8h5.8v16c0 .2.2.4.4.4h3.5c.2 0 .4-.2.4-.4v-16h5.8c.2 0 .4-.2.4-.4v-3.2c0-.2-.2-.4-.4-.4H73.4c-.2 0-.4.2-.4.4v3.2c.1.3.2.4.4.4zm19.3 16.4h3.4c.2 0 .4-.2.4-.4V85h8.6v7.9c0 .2.2.4.4.4h3.4c.2 0 .4-.2.4-.4V73.3c0-.2-.2-.4-.4-.4h-3.4c-.2 0-.4.2-.4.4V81h-8.6v-7.8c0-.2-.2-.4-.4-.4h-3.4c-.2 0-.4.2-.4.4v19.6c0 .3.2.4.4.4zm21 0h14.7c.2 0 .4-.2.4-.4v-3.1c0-.2-.2-.4-.4-.4h-10.9v-4.5h9.5c.2 0 .4-.2.4-.4v-3.1c0-.2-.2-.4-.4-.4h-9.5v-4.3h10.7c.2 0 .4-.2.4-.4v-3.1c0-.2-.2-.4-.4-.4h-14.5c-.2 0-.4.2-.4.4v19.6c0 .4.2.5.4.5zm34.6.4c5.6 0 8.8-3.3 8.8-9.2V73.3c0-.2-.2-.4-.4-.4h-3.4c-.2 0-.4.2-.4.4v11.3c0 3.3-1.6 5.1-4.6 5.1-3 0-4.6-1.9-4.6-5.2V73.3c0-.2-.2-.4-.4-.4H140c-.2 0-.4.2-.4.4v11.3c0 5.7 3.2 9 8.7 9zm12.9-.4h3.4c.2 0 .4-.2.4-.4v-5.5l2.6-2.7 6.4 8.5c.1.1.2.1.3.1h4.2c.1 0 .3-.1.3-.2.1-.1 0-.3 0-.4l-8.3-10.9 7.9-8.2c.1-.1.1-.3.1-.4s-.2-.2-.3-.2H174c-.1 0-.2 0-.3.1l-8.7 9.2v-8.9c0-.2-.2-.4-.4-.4h-3.4c-.2 0-.4.2-.4.4v19.6c0 .2.2.3.4.3zm18.6-11.9c0 .2.2.3.4.3 3.2-.3 4.7-1.8 4.7-5v-3.3c0-.2-.2-.4-.4-.4h-3.7c-.2 0-.4.2-.4.4v3.8c0 .2.2.4.4.4h1.1c0 .7-.4 1.6-2.1 1.9-.1 0-.2.1-.2.2-.1.1-.1.2 0 .3l.2 1.4zm15.5 12.2c4.5 0 7.4-2.5 7.4-6.3 0-4-3.2-5.3-6.6-6.1-3.9-.9-4.4-1.6-4.4-2.7 0-1.2 1.1-2 2.8-2 1.7 0 3.3.6 5.1 1.9.1.1.2.1.3.1.1 0 .2-.1.2-.2l1.8-2.6c.1-.2.1-.4-.1-.5-2.1-1.7-4.5-2.5-7.3-2.5-4.2 0-7.1 2.5-7.1 6.1 0 3.8 2.5 5.2 6.8 6.2 3.8.9 4.1 1.6 4.1 2.7 0 1.3-1.2 2.1-3.1 2.1-2.2 0-4-.7-5.9-2.5-.1-.1-.2-.1-.3-.1-.1 0-.2.1-.3.1l-2.1 2.5c-.1.2-.1.4 0 .5 2.7 2.2 5.6 3.3 8.7 3.3zM74.6 257.1h25.2c1.3 0 2.3-1 2.3-2.3V158l76.1 98.2c.4.6 1.1.9 1.8.9h21.4c1.3 0 2.3-1 2.3-2.3V109.1c0-1.3-1-2.3-2.3-2.3h-25.2c-1.3 0-2.3 1-2.3 2.3V203l-73.8-95.3c-.4-.6-1.1-.9-1.8-.9H74.6c-1.3 0-2.3 1-2.3 2.3v145.6c0 1.3 1 2.4 2.3 2.4zM261 192c25.8 0 45.9-19.6 45.9-44.7v-.3c0-25-20-44.5-45.6-44.5-25.7 0-45.8 19.7-45.8 44.8v.3c0 24.9 20 44.4 45.5 44.4zm-22.9-45c0-14.1 9.6-24.3 22.9-24.3 13.3 0 23.4 10.6 23.4 24.6v.3c0 14-9.7 24.1-23.1 24.1-13 0-23.2-10.7-23.2-24.5v-.2zm89.9-5c.2.6.6 1.1 1.1 1.4.5.3 1.2.4 1.8.2l23.3-6.5v117.6c0 1.3 1 2.3 2.3 2.3h25.4c1.3 0 2.3-1 2.3-2.3V108.1c0-1.3-1-2.3-2.3-2.3h-17.7c-.2 0-.5 0-.7.1l-39.3 12.5c-1.2.4-1.9 1.6-1.5 2.8L328 142zm-97.8 65.8c-2.8 0-5 2.2-5 5v6c0 2.8 2.2 5 5 5h62.1c2.8 0 5-2.2 5-5v-6c0-2.8-2.2-5-5-5h-62.1zm.5 64-7.6 7.7H71v1.1h152.1l7.6 7.6 7.7-7.6h152.1v-1.1H238.4z" fill="#fff"/></svg>