<svg xmlns="http://www.w3.org/2000/svg" viewBox="0 0 57.6 57.6"><path d="M25.7 39.6c0 .6 0 1.3-.1 1.9-.1.3-.3.5-.5.5-.4.1-.9-.1-1-.5-.1-.6-.1-1.2-.1-1.9v-7.3h-2.3v8c0 1 0 1.8.1 2.1 0 .3.1.6.2.9.1.3.3.5.5.6.3.2.6.2.9.2s.6-.1.9-.2c.3-.2.5-.5.7-.8l.7.2v.6H28V32.3h-2.3v7.3zM36 33.7c0-.3-.1-.5-.2-.8-.1-.2-.3-.4-.5-.6-.3-.1-.6-.2-.9-.2-.3 0-.6.1-.8.2-.3.2-.5.4-.7.7l-.7 1.1v-5.6h-2.3V44H32l.1-.7.2-1 .5.8c.2.3.4.6.7.8.2.2.5.2.8.2.4 0 .8-.1 1-.4.3-.3.5-.6.6-1s.1-1.2.1-1.1v-6.1c.1-.6.1-1.2 0-1.8zm-2.2 6c0 .5 0 1.1-.1 1.6-.1.3-.3.5-.6.6-.4.1-.8-.1-.9-.5-.1-.5-.1-1-.1-1.5v-3.1c0-.5 0-1 .1-1.5.1-.3.4-.6.7-.5.4 0 .7.2.7.6.1.5.1 1 .1 1.5l.1 2.8zm-6.5-16.9c.4.1.8-.1.9-.5s.2-.9.1-1.3v-4.8c0-.5 0-1-.1-1.5-.1-.3-.4-.6-.7-.6-.3 0-.6.2-.7.6-.1.5-.2 1-.1 1.5v4.7c0 .5 0 1 .1 1.4 0 .2.2.4.5.5zm-13 5.8V31h2.3v13H19V31h2.3v-2.4z"/><path d="M28.8 0C12.9 0 0 12.9 0 28.8s12.9 28.8 28.8 28.8 28.8-12.9 28.8-28.8S44.7 0 28.8 0zm3.7 12.8h2.4v7.4c0 1.4 0 1.4.1 1.6.1.3.3.5.6.6.4.1.9-.2.9-.6.1-.5.1-1.1.1-1.6v-7.3H39V24h-2.4v-.6l-.7-.3c-.1.3-.4.6-.7.8-.3.2-.6.3-.9.3-.3 0-.7-.1-1-.3-.2-.2-.4-.4-.5-.6-.1-.3-.2-.6-.2-.9 0-.4-.1-1.1-.1-2.2v-7.4zm-8.2 4.6c0-.9.1-1.8.3-2.7.2-.6.5-1.1 1-1.4.5-.4 1.2-.6 1.9-.6.6 0 1.1.1 1.7.4.4.2.8.5 1 .9s.4.7.5 1.2c.1.6.2 1.3.1 2v2c0 .8 0 1.7-.1 2.5-.1.5-.3.9-.5 1.3s-.6.7-1 .9c-.5.2-1 .3-1.5.3-.6 0-1.1-.1-1.6-.3-.4-.1-.7-.4-.9-.7-.2-.4-.4-.8-.5-1.2-.1-.8-.2-1.6-.2-2.4v-2.2h-.2zm-5.5-8.6 1.9 6.2c.3-1.6 1-3.8 1.5-6.2h1.7l-2.2 8.8v6.3h-2v-6.3l-2.6-8.8h1.7zm27.7 34.5c-.4 2.8-2.7 5-5.5 5.2-8.1.3-16.2.3-24.3 0-2.8-.2-5.1-2.4-5.5-5.2-.3-4.4-.3-8.7 0-13.1.4-2.8 2.7-5 5.5-5.2 8.1-.3 16.2-.3 24.3 0 2.8.2 5.1 2.4 5.5 5.2.3 4.4.3 8.7 0 13.1z"/><path d="M41.8 40.8c0 .5 0 .9-.1 1.4-.1.3-.5.6-.8.6s-.6-.2-.7-.5c-.2-.4-.2-.8-.2-1.2v-2.6h3.9v-1.3c0-1-.1-2.1-.3-3.1-.2-.6-.5-1.1-1-1.4-.6-.4-1.2-.6-1.9-.5-.6 0-1.2.1-1.6.4-.5.3-.8.7-1 1.2-.3.9-.4 1.9-.3 2.8v3.6c0 .5.1 1.1.1 1.6.1.4.3.8.5 1.2.3.4.6.6 1 .8.5.2 1 .3 1.5.3s1-.1 1.5-.3c.4-.2.7-.5.9-.9s.4-.8.5-1.2c.1-.6.1-1.1.1-1.7v-.5h-2.1v1.3zM40 35.5c0-1 0-.8.1-1 .1-.3.4-.5.8-.5.3 0 .6.2.7.5 0 .1.1 0 .1.9v1.7H40v-1.6z"/></svg>