<svg xmlns="http://www.w3.org/2000/svg" viewBox="0 0 40.6 37.2"><path d="m40.4 4.9-.1-.1c-.2-.3-.6-.4-1-.4H8.7l-.1-.9C8.2 1.5 6.5 0 4.4 0H1.3C.6 0 0 .5 0 1.2v.1c0 .7.6 1.3 1.3 1.3h3.1c.8 0 1.5.6 1.6 1.3l2.7 16c0 .1 0 .2.1.4l.4 2.7c.4 2.4 2.5 4.2 5 4.3h20.6c.7 0 1.3-.5 1.3-1.2V26c0-.7-.6-1.3-1.3-1.3H14.2c-1.2 0-2.2-.9-2.4-2l-.3-1.5h23.9c.2.1.5 0 .7-.1.3-.2.6-.5.7-.8L40.5 6c.2-.4.1-.8-.1-1.1zM37.7 7l-3.1 11.7H11.1L9.2 7h28.5zM14.6 28.5c-2.4 0-4.3 1.9-4.3 4.3s1.9 4.3 4.3 4.3 4.3-1.9 4.3-4.3-1.9-4.3-4.3-4.3zm0 2.6c.9 0 1.7.7 1.7 1.6v.1c0 .9-.8 1.7-1.7 1.7-1 0-1.7-.8-1.7-1.8 0-.8.8-1.6 1.7-1.6zm14.3-2.6c-2.4 0-4.4 1.9-4.4 4.3s1.9 4.4 4.3 4.4 4.4-1.9 4.4-4.3c.1-2.4-1.8-4.4-4.3-4.4.1 0 .1 0 0 0zm0 2.6c.9 0 1.7.7 1.7 1.7v.1c0 1-.7 1.7-1.7 1.8-1 0-1.7-.7-1.8-1.7v-.1c.1-1 .8-1.8 1.8-1.8z"/></svg>