<svg xmlns="http://www.w3.org/2000/svg" viewBox="0 0 84.2 86.1"><path d="M59.1 25.6h-34c-.8 0-1.5.7-1.5 1.5s.7 1.5 1.5 1.5h34c.8 0 1.5-.7 1.5-1.5 0-.9-.6-1.5-1.5-1.5zm0 10.5h-34c-.8 0-1.5.7-1.5 1.5s.7 1.5 1.5 1.5h34c.8 0 1.5-.7 1.5-1.5 0-.9-.6-1.5-1.5-1.5z"/><path d="M84.2 34.1c-.1-.5-.4-.9-.8-1.2l-12.3-5.1V1.5c0-.8-.7-1.5-1.5-1.5h-55c-.8 0-1.5.7-1.5 1.5v26.3L1 32.8c-.6.1-1 .7-1 1.4v50.4c0 .8.7 1.5 1.5 1.5h81.2c.8 0 1.5-.7 1.5-1.5V34.1zm-79.5.3 8.4-3.5v8.7l-8.4-5.2zm66.4 5.1v-8.7l8.4 3.5-8.4 5.2zm-55 1.8V2.9h52v38.3L42.1 57l-26-15.7zm65.1-4.5v46.3H3V36.8L41.4 60c.3.2.5.2.7.2.2 0 .4 0 .8-.2l38.3-23.2z"/><path d="M50.4 19.1h8.7c.8 0 1.5-.7 1.5-1.5V8.9c0-.8-.7-1.5-1.5-1.5h-8.7c-.8 0-1.5.7-1.5 1.5v8.7c0 .8.7 1.5 1.5 1.5zm1.4-2.9v-5.8h5.8v5.8h-5.8z"/></svg>