<svg xmlns="http://www.w3.org/2000/svg" viewBox="0 0 65.55 66"><path d="M32.78 38.9c-7.1 0-13 5.9-13 13.1 0 7.1 5.9 13 13.1 13s13.1-5.9 13.1-13.1c0-7.2-5.9-13-13.2-13zm-.4 11.6c-.4.4-1 .4-1.4 0l-1.2-1.2V56c0 .5-.5 1-1 1-.6 0-1-.5-1-1v-6.7l-1.2 1.2c-.4.4-1 .4-1.4 0s-.4-1 0-1.4l2.9-3c.4-.4 1-.4 1.4 0l2.9 3c.4.4.4 1 0 1.4zm8.3 4.3-2.9 3c-.2.2-.4.3-.7.3s-.5-.1-.7-.3l-2.9-3c-.4-.4-.4-1 0-1.4s1-.4 1.4 0l1.2 1.2v-6.7c0-.5.5-1 1-1s1 .5 1 1v6.7l1.2-1.2c.4-.4 1-.4 1.4 0 .3.3.3 1 0 1.4zm23.79-32.6-5.1-13c-.1-.3-.4-.6-.7-.6L33.08 1h-.6L6.88 8.5c-.3.1-.5.4-.6.6l-5.2 13.1c-.1.3-.1.6 0 .8.1.3.3.4.6.5l25.6 8.3c.5.2 1.1-.1 1.3-.6l4.2-11.5 4.3 11.6c.2.5.7.8 1.2.6l25.6-8.3c.3-.1.5-.3.6-.5s.1-.6-.01-.9zM42.58 13l-9.8 2.8-3.6-1-18.4-5.3 22-6.5 22 6.4-12.2 3.6z"/><path d="M31.77 36.9v-8.7l-1.4 3.7c-.6 1.5-2.3 2.3-3.7 1.8l-17-5.5 3.6 14.3c.1.3.3.6.7.7l5.5 1.9c2.3-4.6 6.91-7.8 12.3-8.2zm3.41-5-1.4-3.7v8.7c5.4.4 10.1 3.6 12.5 8.1l5.3-1.8c.3-.1.6-.4.7-.7l3.6-14.3-16.9 5.5c-1.7.6-3.3-.3-3.8-1.8z"/></svg>