<svg version="1.1" id="Layer_1" xmlns="http://www.w3.org/2000/svg" x="0" y="0" viewBox="0 0 558.4 54" xml:space="preserve"><style>.st0{fill:#fff}</style><path class="st0" d="M30.3 8.4c.7 0 1.2-.6 1.2-1.2V3c0-.7-.6-1.2-1.2-1.2h-29C.6 1.7 0 2.3 0 3v40.4c0 .7.6 1.2 1.2 1.2h4.6c.7 0 1.2-.6 1.2-1.2V27h20.7c.7 0 1.2-.6 1.2-1.2v-4.2c0-.7-.6-1.2-1.2-1.2H7v-12h23.3zM57.7 16.7c-1.3-1.6-2.9-2.8-4.8-3.7-1.9-.9-4.1-1.4-6.4-1.4-2.3 0-4.4.4-6.3 1.3-1.9.9-3.6 2.1-4.9 3.6-1.4 1.5-2.5 3.3-3.2 5.4-.8 2-1.1 4.2-1.1 6.5 0 2.5.4 4.8 1.3 6.8.9 2.1 2 3.9 3.5 5.3 1.5 1.5 3.2 2.6 5.1 3.4 1.9.8 4.1 1.2 6.2 1.2 3 0 5.6-.6 7.7-1.7 2-1.1 3.9-2.5 5.5-4.3.4-.5.4-1.3-.1-1.7l-2.8-2.5c-.5-.4-1.2-.4-1.7.1-1.1 1.2-2.4 2.1-3.8 2.8-1.3.7-2.9 1-4.8 1-1.2 0-2.3-.2-3.3-.6-1-.4-2-1-2.8-1.7-.8-.8-1.5-1.7-2.1-2.8-.4-.8-.7-1.6-.8-2.5h22.2c.6 0 1.1-.5 1.2-1.1 0-.3.1-.6.1-.9v-.6c0-2.3-.3-4.5-1-6.6-.6-1.9-1.6-3.7-2.9-5.3m-19.5 8.9c.2-.8.4-1.6.7-2.3.5-1.1 1.1-2.1 1.8-2.9.7-.8 1.6-1.4 2.5-1.9.9-.4 2-.7 3.1-.7 1.3 0 2.4.2 3.4.7 1 .5 1.8 1.1 2.5 1.9.7.8 1.2 1.8 1.6 2.9.3.7.5 1.5.6 2.2H38.2zM88.4 16.7c-1.3-1.6-2.9-2.8-4.8-3.7-1.9-.9-4.1-1.4-6.4-1.4-2.2 0-4.4.4-6.3 1.3-1.9.9-3.6 2.1-4.9 3.6-1.4 1.5-2.5 3.3-3.2 5.4-.8 2-1.1 4.2-1.1 6.5 0 2.5.4 4.8 1.3 6.8.9 2.1 2 3.9 3.5 5.3 1.5 1.5 3.2 2.6 5.1 3.4 1.9.8 4.1 1.2 6.2 1.2 3 0 5.6-.6 7.7-1.7 2-1.1 3.9-2.5 5.5-4.3.4-.5.4-1.3-.1-1.7l-2.8-2.5c-.5-.4-1.2-.4-1.7.1-1.1 1.2-2.4 2.1-3.8 2.8-1.3.7-2.9 1-4.8 1-1.2 0-2.3-.2-3.3-.6-1-.4-2-1-2.8-1.7-.8-.8-1.5-1.7-2.1-2.8-.4-.8-.7-1.6-.8-2.5H91c.6 0 1.1-.5 1.2-1.1 0-.3.1-.6.1-.9v-.6c0-2.3-.3-4.5-1-6.6-.6-1.9-1.6-3.7-2.9-5.3m-19.5 8.9c.2-.8.4-1.6.7-2.3.5-1.1 1.1-2.1 1.8-2.9.7-.8 1.6-1.4 2.5-1.9.9-.4 2-.7 3.1-.7 1.3 0 2.4.2 3.4.7 1 .5 1.8 1.1 2.5 1.9.7.8 1.2 1.8 1.6 2.9.3.7.5 1.5.6 2.2H68.9zM100.3 0h-4.4c-.7 0-1.2.6-1.2 1.2v42.1c0 .7.6 1.2 1.2 1.2h4.4c.7 0 1.2-.6 1.2-1.2V1.2c0-.6-.5-1.2-1.2-1.2"/><path class="st0" d="M30.3 8.4c.7 0 1.2-.6 1.2-1.2V3c0-.7-.6-1.2-1.2-1.2h-29C.6 1.7 0 2.3 0 3v40.4c0 .7.6 1.2 1.2 1.2h4.6c.7 0 1.2-.6 1.2-1.2V27h20.7c.7 0 1.2-.6 1.2-1.2v-4.2c0-.7-.6-1.2-1.2-1.2H7v-12h23.3zM57.7 16.7c-1.3-1.6-2.9-2.8-4.8-3.7-1.9-.9-4.1-1.4-6.4-1.4-2.3 0-4.4.4-6.3 1.3-1.9.9-3.6 2.1-4.9 3.6-1.4 1.5-2.5 3.3-3.2 5.4-.8 2-1.1 4.2-1.1 6.5 0 2.5.4 4.8 1.3 6.8.9 2.1 2 3.9 3.5 5.3 1.5 1.5 3.2 2.6 5.1 3.4 1.9.8 4.1 1.2 6.2 1.2 3 0 5.6-.6 7.7-1.7 2-1.1 3.9-2.5 5.5-4.3.4-.5.4-1.3-.1-1.7l-2.8-2.5c-.5-.4-1.2-.4-1.7.1-1.1 1.2-2.4 2.1-3.8 2.8-1.3.7-2.9 1-4.8 1-1.2 0-2.3-.2-3.3-.6-1-.4-2-1-2.8-1.7-.8-.8-1.5-1.7-2.1-2.8-.4-.8-.7-1.6-.8-2.5h22.2c.6 0 1.1-.5 1.2-1.1 0-.3.1-.6.1-.9v-.6c0-2.3-.3-4.5-1-6.6-.6-1.9-1.6-3.7-2.9-5.3m-19.5 8.9c.2-.8.4-1.6.7-2.3.5-1.1 1.1-2.1 1.8-2.9.7-.8 1.6-1.4 2.5-1.9.9-.4 2-.7 3.1-.7 1.3 0 2.4.2 3.4.7 1 .5 1.8 1.1 2.5 1.9.7.8 1.2 1.8 1.6 2.9.3.7.5 1.5.6 2.2H38.2zM88.4 16.7c-1.3-1.6-2.9-2.8-4.8-3.7-1.9-.9-4.1-1.4-6.4-1.4-2.2 0-4.4.4-6.3 1.3-1.9.9-3.6 2.1-4.9 3.6-1.4 1.5-2.5 3.3-3.2 5.4-.8 2-1.1 4.2-1.1 6.5 0 2.5.4 4.8 1.3 6.8.9 2.1 2 3.9 3.5 5.3 1.5 1.5 3.2 2.6 5.1 3.4 1.9.8 4.1 1.2 6.2 1.2 3 0 5.6-.6 7.7-1.7 2-1.1 3.9-2.5 5.5-4.3.4-.5.4-1.3-.1-1.7l-2.8-2.5c-.5-.4-1.2-.4-1.7.1-1.1 1.2-2.4 2.1-3.8 2.8-1.3.7-2.9 1-4.8 1-1.2 0-2.3-.2-3.3-.6-1-.4-2-1-2.8-1.7-.8-.8-1.5-1.7-2.1-2.8-.4-.8-.7-1.6-.8-2.5H91c.6 0 1.1-.5 1.2-1.1 0-.3.1-.6.1-.9v-.6c0-2.3-.3-4.5-1-6.6-.6-1.9-1.6-3.7-2.9-5.3m-19.5 8.9c.2-.8.4-1.6.7-2.3.5-1.1 1.1-2.1 1.8-2.9.7-.8 1.6-1.4 2.5-1.9.9-.4 2-.7 3.1-.7 1.3 0 2.4.2 3.4.7 1 .5 1.8 1.1 2.5 1.9.7.8 1.2 1.8 1.6 2.9.3.7.5 1.5.6 2.2H68.9zM100.3 0h-4.4c-.7 0-1.2.6-1.2 1.2v42.1c0 .7.6 1.2 1.2 1.2h4.4c.7 0 1.2-.6 1.2-1.2V1.2c0-.6-.5-1.2-1.2-1.2M149.4 12.3H145c-.7 0-1.2.5-1.2 1.2v2.2c-.8-.8-1.8-1.5-2.8-2.1-1-.6-2.2-1.1-3.5-1.4-2.9-.8-6.6-.7-9.8.5-1.8.7-3.5 1.7-4.9 3-1.4 1.3-2.6 2.9-3.4 4.8-.9 1.9-1.3 4.1-1.3 6.4 0 2.4.4 4.5 1.3 6.4.9 1.9 2 3.5 3.4 4.8 1.4 1.3 3.1 2.3 4.9 3 1.8.7 3.7 1 5.7 1 3 0 5.5-.7 7.6-2 1-.7 2-1.4 2.9-2.3v.3c0 3.2-.8 5.5-2.5 7-1.7 1.6-4.1 2.4-7.1 2.4-2 0-3.9-.3-5.7-.9-1.8-.6-3.5-1.5-5.1-2.7-.3-.2-.6-.3-1-.2-.3.1-.6.3-.8.6l-2 3.5c-.3.6-.2 1.3.4 1.6 2.1 1.5 4.4 2.6 6.7 3.3 2.4.7 4.9 1.1 7.5 1.1 2.4 0 4.7-.3 6.7-1s3.8-1.7 5.2-3c1.5-1.3 2.6-3 3.4-5 .8-1.9 1.2-4.2 1.2-6.8V13.5c-.1-.7-.7-1.2-1.4-1.2M143.9 27c0 1.3-.3 2.6-.8 3.6-.5 1.1-1.3 2-2.2 2.8-.9.8-1.9 1.4-3.1 1.8-2.3.8-5 .9-7.2 0-1.1-.4-2.1-1-2.9-1.8-.8-.8-1.5-1.7-2-2.8-.5-1.1-.7-2.3-.7-3.7 0-1.4.2-2.6.7-3.7.5-1.1 1.1-2 1.9-2.8.8-.8 1.8-1.4 2.9-1.8 1.1-.4 2.3-.6 3.6-.6 1.3 0 2.5.2 3.7.6 1.2.4 2.2 1 3.1 1.8.9.8 1.6 1.7 2.2 2.8.6 1.2.8 2.4.8 3.8M181.6 16.6c-1.5-1.5-3.3-2.7-5.3-3.6-2.1-.9-4.3-1.3-6.7-1.3-2.4 0-4.7.5-6.8 1.3-2 .9-3.8 2.1-5.3 3.6s-2.7 3.3-3.5 5.4c-.8 2-1.2 4.2-1.2 6.5s.4 4.4 1.2 6.5c.8 2 2 3.8 3.5 5.3s3.3 2.7 5.3 3.6c2 .9 4.3 1.3 6.7 1.3 2.4 0 4.6-.5 6.7-1.3 2.1-.9 3.9-2.1 5.4-3.6 1.5-1.5 2.7-3.3 3.5-5.4.8-2 1.3-4.2 1.3-6.5s-.4-4.4-1.2-6.5c-.9-2-2.1-3.8-3.6-5.3m-2.2 11.9c0 1.5-.2 2.8-.7 4.1-.5 1.2-1.2 2.3-2 3.3-.8.9-1.9 1.6-3.1 2.2-2.3 1-5.4 1.1-7.8 0-1.2-.5-2.2-1.3-3.1-2.2s-1.6-2-2.1-3.3c-.5-1.3-.8-2.6-.8-4.1 0-1.5.2-2.8.7-4.1.5-1.3 1.2-2.4 2-3.3.8-.9 1.8-1.7 3-2.2 1.2-.5 2.5-.8 4-.8 1.4 0 2.7.3 3.9.8 1.2.5 2.2 1.3 3.1 2.2.9.9 1.6 2.1 2.1 3.3.5 1.3.8 2.7.8 4.1M215.5 16.6c-1.5-1.5-3.3-2.7-5.3-3.6-2.1-.9-4.3-1.3-6.7-1.3-2.4 0-4.7.5-6.8 1.3-2 .9-3.8 2.1-5.3 3.6s-2.7 3.3-3.5 5.4c-.8 2-1.2 4.2-1.2 6.5s.4 4.4 1.2 6.5c.8 2 2 3.8 3.5 5.3s3.3 2.7 5.3 3.6c2 .9 4.3 1.3 6.7 1.3 2.4 0 4.6-.5 6.7-1.3 2.1-.9 3.9-2.1 5.4-3.6 1.5-1.5 2.7-3.3 3.5-5.4.8-2 1.3-4.2 1.3-6.5s-.4-4.4-1.2-6.5c-1-2-2.1-3.8-3.6-5.3m-2.3 11.9c0 1.5-.2 2.8-.7 4.1-.5 1.2-1.2 2.3-2 3.3-.8.9-1.9 1.6-3.1 2.2-2.3 1-5.4 1.1-7.8 0-1.2-.5-2.2-1.3-3.1-2.2-.9-.9-1.6-2-2.1-3.3-.5-1.3-.8-2.6-.8-4.1 0-1.5.2-2.8.7-4.1.5-1.3 1.2-2.4 2-3.3.8-.9 1.8-1.7 3-2.2 1.2-.5 2.5-.8 4-.8 1.4 0 2.7.3 3.9.8 1.2.5 2.2 1.3 3.1 2.2.9.9 1.6 2 2.1 3.3.5 1.3.8 2.7.8 4.1M252 0h-4.4c-.7 0-1.2.5-1.2 1.2v14.6c-.8-.8-1.7-1.5-2.6-2.1-1-.6-2.2-1.1-3.4-1.5-1.3-.4-2.7-.6-4.2-.6-2 0-3.9.4-5.7 1.2-1.8.8-3.5 1.9-4.9 3.3-1.5 1.4-2.6 3.2-3.5 5.3-.9 2.1-1.3 4.4-1.3 7.1s.4 5 1.3 7.1c.9 2.1 2 3.8 3.5 5.3 1.5 1.4 3.1 2.5 5 3.3 1.8.8 3.8 1.1 5.7 1.1 1.5 0 2.9-.2 4.1-.6 1.2-.4 2.4-.9 3.4-1.6 1-.6 1.9-1.4 2.7-2.2v2.5c0 .7.6 1.2 1.2 1.2h4.4c.7 0 1.2-.6 1.2-1.2V1.2c-.1-.7-.7-1.2-1.3-1.2m-5.5 28.4c0 1.6-.3 3-.8 4.3-.5 1.3-1.3 2.4-2.1 3.2-.9.9-1.9 1.6-3.1 2.1-2.3 1-4.9.9-7.1 0-1.1-.5-2.1-1.2-2.9-2-.8-.9-1.5-2-2-3.3-.5-1.3-.8-2.7-.8-4.3 0-1.6.3-3.1.8-4.4.5-1.3 1.2-2.4 2-3.2.8-.8 1.8-1.5 2.9-2 1.1-.5 2.3-.7 3.6-.7 1.2 0 2.4.2 3.5.7 1.1.5 2.2 1.2 3.1 2.1.9.9 1.6 2 2.2 3.2.4 1.3.7 2.8.7 4.3"/><path class="st0" d="M149.4 12.3H145c-.7 0-1.2.5-1.2 1.2v2.2c-.8-.8-1.8-1.5-2.8-2.1-1-.6-2.2-1.1-3.5-1.4-2.9-.8-6.6-.7-9.8.5-1.8.7-3.5 1.7-4.9 3-1.4 1.3-2.6 2.9-3.4 4.8-.9 1.9-1.3 4.1-1.3 6.4 0 2.4.4 4.5 1.3 6.4.9 1.9 2 3.5 3.4 4.8 1.4 1.3 3.1 2.3 4.9 3 1.8.7 3.7 1 5.7 1 3 0 5.5-.7 7.6-2 1-.7 2-1.4 2.9-2.3v.3c0 3.2-.8 5.5-2.5 7-1.7 1.6-4.1 2.4-7.1 2.4-2 0-3.9-.3-5.7-.9-1.8-.6-3.5-1.5-5.1-2.7-.3-.2-.6-.3-1-.2-.3.1-.6.3-.8.6l-2 3.5c-.3.6-.2 1.3.4 1.6 2.1 1.5 4.4 2.6 6.7 3.3 2.4.7 4.9 1.1 7.5 1.1 2.4 0 4.7-.3 6.7-1s3.8-1.7 5.2-3c1.5-1.3 2.6-3 3.4-5 .8-1.9 1.2-4.2 1.2-6.8V13.5c-.1-.7-.7-1.2-1.4-1.2M143.9 27c0 1.3-.3 2.6-.8 3.6-.5 1.1-1.3 2-2.2 2.8-.9.8-1.9 1.4-3.1 1.8-2.3.8-5 .9-7.2 0-1.1-.4-2.1-1-2.9-1.8-.8-.8-1.5-1.7-2-2.8-.5-1.1-.7-2.3-.7-3.7 0-1.4.2-2.6.7-3.7.5-1.1 1.1-2 1.9-2.8.8-.8 1.8-1.4 2.9-1.8 1.1-.4 2.3-.6 3.6-.6 1.3 0 2.5.2 3.7.6 1.2.4 2.2 1 3.1 1.8.9.8 1.6 1.7 2.2 2.8.6 1.2.8 2.4.8 3.8M181.6 16.6c-1.5-1.5-3.3-2.7-5.3-3.6-2.1-.9-4.3-1.3-6.7-1.3-2.4 0-4.7.5-6.8 1.3-2 .9-3.8 2.1-5.3 3.6s-2.7 3.3-3.5 5.4c-.8 2-1.2 4.2-1.2 6.5s.4 4.4 1.2 6.5c.8 2 2 3.8 3.5 5.3s3.3 2.7 5.3 3.6c2 .9 4.3 1.3 6.7 1.3 2.4 0 4.6-.5 6.7-1.3 2.1-.9 3.9-2.1 5.4-3.6 1.5-1.5 2.7-3.3 3.5-5.4.8-2 1.3-4.2 1.3-6.5s-.4-4.4-1.2-6.5c-.9-2-2.1-3.8-3.6-5.3m-2.2 11.9c0 1.5-.2 2.8-.7 4.1-.5 1.2-1.2 2.3-2 3.3-.8.9-1.9 1.6-3.1 2.2-2.3 1-5.4 1.1-7.8 0-1.2-.5-2.2-1.3-3.1-2.2s-1.6-2-2.1-3.3c-.5-1.3-.8-2.6-.8-4.1 0-1.5.2-2.8.7-4.1.5-1.3 1.2-2.4 2-3.3.8-.9 1.8-1.7 3-2.2 1.2-.5 2.5-.8 4-.8 1.4 0 2.7.3 3.9.8 1.2.5 2.2 1.3 3.1 2.2.9.9 1.6 2.1 2.1 3.3.5 1.3.8 2.7.8 4.1M215.5 16.6c-1.5-1.5-3.3-2.7-5.3-3.6-2.1-.9-4.3-1.3-6.7-1.3-2.4 0-4.7.5-6.8 1.3-2 .9-3.8 2.1-5.3 3.6s-2.7 3.3-3.5 5.4c-.8 2-1.2 4.2-1.2 6.5s.4 4.4 1.2 6.5c.8 2 2 3.8 3.5 5.3s3.3 2.7 5.3 3.6c2 .9 4.3 1.3 6.7 1.3 2.4 0 4.6-.5 6.7-1.3 2.1-.9 3.9-2.1 5.4-3.6 1.5-1.5 2.7-3.3 3.5-5.4.8-2 1.3-4.2 1.3-6.5s-.4-4.4-1.2-6.5c-1-2-2.1-3.8-3.6-5.3m-2.3 11.9c0 1.5-.2 2.8-.7 4.1-.5 1.2-1.2 2.3-2 3.3-.8.9-1.9 1.6-3.1 2.2-2.3 1-5.4 1.1-7.8 0-1.2-.5-2.2-1.3-3.1-2.2-.9-.9-1.6-2-2.1-3.3-.5-1.3-.8-2.6-.8-4.1 0-1.5.2-2.8.7-4.1.5-1.3 1.2-2.4 2-3.3.8-.9 1.8-1.7 3-2.2 1.2-.5 2.5-.8 4-.8 1.4 0 2.7.3 3.9.8 1.2.5 2.2 1.3 3.1 2.2.9.9 1.6 2 2.1 3.3.5 1.3.8 2.7.8 4.1M252 0h-4.4c-.7 0-1.2.5-1.2 1.2v14.6c-.8-.8-1.7-1.5-2.6-2.1-1-.6-2.2-1.1-3.4-1.5-1.3-.4-2.7-.6-4.2-.6-2 0-3.9.4-5.7 1.2-1.8.8-3.5 1.9-4.9 3.3-1.5 1.4-2.6 3.2-3.5 5.3-.9 2.1-1.3 4.4-1.3 7.1s.4 5 1.3 7.1c.9 2.1 2 3.8 3.5 5.3 1.5 1.4 3.1 2.5 5 3.3 1.8.8 3.8 1.1 5.7 1.1 1.5 0 2.9-.2 4.1-.6 1.2-.4 2.4-.9 3.4-1.6 1-.6 1.9-1.4 2.7-2.2v2.5c0 .7.6 1.2 1.2 1.2h4.4c.7 0 1.2-.6 1.2-1.2V1.2c-.1-.7-.7-1.2-1.3-1.2m-5.5 28.4c0 1.6-.3 3-.8 4.3-.5 1.3-1.3 2.4-2.1 3.2-.9.9-1.9 1.6-3.1 2.1-2.3 1-4.9.9-7.1 0-1.1-.5-2.1-1.2-2.9-2-.8-.9-1.5-2-2-3.3-.5-1.3-.8-2.7-.8-4.3 0-1.6.3-3.1.8-4.4.5-1.3 1.2-2.4 2-3.2.8-.8 1.8-1.5 2.9-2 1.1-.5 2.3-.7 3.6-.7 1.2 0 2.4.2 3.5.7 1.1.5 2.2 1.2 3.1 2.1.9.9 1.6 2 2.2 3.2.4 1.3.7 2.8.7 4.3M263.2 36.1h-5.3c-.7 0-1.2.6-1.2 1.2v6.1c0 .7.6 1.2 1.2 1.2h.8c-.1.4-.2.8-.5 1-.5.6-1.3 1.1-2.6 1.6-.6.2-1 .9-.7 1.6l.7 2c.2.5.6.8 1.2.8h.3c2.4-.6 4.3-1.6 5.5-3 1.2-1.4 1.9-3.5 1.9-6.1v-5.2c-.1-.7-.6-1.2-1.3-1.2"/><linearGradient id="SVGID_1_" gradientUnits="userSpaceOnUse" x1="490.792" y1="-37.786" x2="348.521" y2="104.485"><stop offset="0" stop-color="#f9af00"/><stop offset=".5" stop-color="#ee7403"/><stop offset="1" stop-color="#ee3424"/></linearGradient><path d="M534.4 36.1c-.7 0-1.2.5-1.2 1.2v6.1c0 .7.6 1.2 1.2 1.2h5.3c.7 0 1.2-.6 1.2-1.2v-6.1c0-.7-.5-1.2-1.2-1.2h-5.3zm8.6 0c-.1 0-.2.1-.2.2v.8c0 .1.1.2.2.2h2.5v7c0 .1.1.2.2.2h.9c.1 0 .2-.1.2-.2v-7h2.5c.1 0 .2-.1.2-.2v-.8c0-.1-.1-.2-.2-.2H543zm14.2 0c-.1 0-.2 0-.2.1l-2.7 4.1-2.7-4.1c0-.1-.1-.1-.2-.1h-.9c-.1 0-.2.1-.2.2v8c0 .1.1.2.2.2h.9c.1 0 .2-.1.2-.2v-5.7l2.5 3.7c0 .1.1.1.2.1s.2 0 .2-.1l2.5-3.7v5.7c0 .1.1.2.2.2h.9c.1 0 .2-.1.2-.2v-8c0-.1-.1-.2-.2-.2h-.9zM454.1 12.2c-.5 0-1 .3-1.2.8L446 33.6l-6.7-20.4c-.2-.5-.6-.8-1.2-.8h-4.7c-.4 0-.8.2-1 .5-.2.3-.3.7-.2 1.1l10.5 30c.2.5.6.8 1.2.8h3.9c.5 0 1-.3 1.2-.8l6.9-20.2 6.9 20.2c.2.5.6.8 1.2.8h3.9c.5 0 1-.3 1.2-.8l10.5-30.1c.1-.4.1-.8-.2-1.1-.2-.3-.6-.5-1-.5h-4.6c-.5 0-1 .3-1.2.8l-6.7 20.4-7-20.5c-.2-.5-.6-.8-1.2-.8h-3.6zm-161.6.2c-1.4.5-2.6 1.1-3.6 2-1 .9-1.9 1.9-2.4 3.1-.6 1.2-.9 2.6-.9 4.1 0 1.6.4 3 1.1 4.1.7 1.1 1.6 2 2.7 2.7 1 .7 2.2 1.2 3.4 1.7 1.2.4 2.4.8 3.6 1.1.9.3 1.9.5 2.7.8.8.3 1.6.6 2.2 1 .5.3 1 .7 1.3 1.1.2.3.4.7.4 1.3 0 1.1-.4 1.9-1.2 2.5-.9.7-2.2 1-3.7 1-1.6 0-3.2-.3-4.9-.9-1.6-.6-3.2-1.5-4.7-2.7-.3-.2-.6-.3-.9-.2-.3 0-.6.2-.8.5l-2.3 3.2c-.4.5-.3 1.3.2 1.7 1.8 1.4 3.9 2.6 6.2 3.4 2.3.8 4.7 1.3 6.9 1.3 1.6 0 3.2-.2 4.6-.7 1.4-.4 2.7-1.1 3.8-2 1.1-.9 1.9-1.9 2.6-3.2.6-1.3 1-2.7 1-4.5 0-1.6-.3-2.9-1-4-.6-1.1-1.5-2-2.6-2.7-1-.7-2.1-1.3-3.4-1.8-1.2-.4-2.3-.8-3.5-1.2-1-.3-1.9-.6-2.9-.9-.8-.3-1.6-.6-2.3-1-.6-.3-1-.7-1.3-1.1-.2-.3-.4-.6-.4-1.2 0-.9.3-1.5 1.1-2.1.8-.6 2-1 3.4-1 1.3 0 2.7.2 4.1.7 1.4.5 2.8 1.1 4.1 2 .3.2.6.2.9.2.3-.1.6-.3.8-.6l2-3.3c.3-.6.2-1.3-.4-1.7-1.6-1.1-3.5-1.9-5.4-2.5-2-.6-4-1-5.9-1-1.7.2-3.2.4-4.6.8m37.2 10.9c.5-1.1 1.1-2.1 1.8-2.9.7-.8 1.6-1.4 2.5-1.9.9-.4 2-.7 3.1-.7 1.3 0 2.4.2 3.4.7 1 .5 1.8 1.1 2.5 1.9.7.8 1.2 1.8 1.6 2.9.3.7.5 1.5.6 2.2H329c.1-.7.4-1.5.7-2.2M331 13c-1.9.9-3.6 2.1-4.9 3.6-1.4 1.5-2.5 3.3-3.2 5.4-.8 2-1.1 4.2-1.1 6.5 0 2.5.4 4.8 1.3 6.8.9 2.1 2 3.9 3.5 5.3 1.5 1.5 3.2 2.6 5.1 3.4 1.9.8 4.1 1.2 6.2 1.2 3 0 5.6-.6 7.7-1.7 2-1.1 3.9-2.5 5.5-4.3.4-.5.4-1.3-.1-1.7l-2.8-2.5c-.5-.4-1.2-.4-1.7.1-1.1 1.2-2.4 2.1-3.8 2.8-1.3.7-2.9 1-4.8 1-1.2 0-2.3-.2-3.3-.6-1-.4-2-1-2.8-1.7-.8-.8-1.5-1.7-2.1-2.8-.4-.8-.7-1.6-.8-2.5h22.2c.6 0 1.1-.5 1.2-1.1 0-.3.1-.6.1-.9v-.6c0-2.3-.3-4.5-1-6.6-.7-2.1-1.7-3.9-2.9-5.4-1.3-1.6-2.9-2.8-4.8-3.7-1.9-.9-4.1-1.4-6.4-1.4-2.2.1-4.4.5-6.3 1.4m29.4 10.3c.5-1.1 1.1-2.1 1.8-2.9.7-.8 1.6-1.4 2.5-1.9.9-.4 2-.7 3.1-.7 1.3 0 2.4.2 3.4.7 1 .5 1.8 1.1 2.5 1.9.7.8 1.2 1.8 1.6 2.9.3.7.5 1.5.6 2.2h-16.3c.3-.7.5-1.5.8-2.2m1.4-10.3c-1.9.9-3.6 2.1-4.9 3.6-1.4 1.5-2.5 3.3-3.2 5.4-.8 2-1.1 4.2-1.1 6.5 0 2.5.4 4.8 1.3 6.8.9 2.1 2 3.9 3.5 5.3 1.5 1.5 3.2 2.6 5.2 3.4 1.9.8 4 1.2 6.2 1.2 3 0 5.6-.6 7.7-1.7 2-1.1 3.9-2.5 5.5-4.3.4-.5.4-1.3-.1-1.7l-2.8-2.5c-.5-.4-1.2-.4-1.7.1-1.1 1.2-2.4 2.1-3.8 2.8-1.3.7-2.9 1-4.8 1-1.2 0-2.3-.2-3.3-.6-1-.4-2-1-2.8-1.7-.8-.8-1.5-1.7-2.1-2.8-.4-.8-.7-1.6-.8-2.5H382c.6 0 1.1-.5 1.2-1.1 0-.3.1-.6.1-.9v-.6c0-2.3-.3-4.5-1-6.6-.7-2.1-1.7-3.9-2.9-5.4-1.3-1.6-2.9-2.8-4.8-3.7-1.9-.9-4.1-1.4-6.4-1.4-2.4.1-4.5.5-6.4 1.4m36 25c-1.1-.5-2.2-1.2-3.1-2.1-.9-.9-1.6-2-2.2-3.2-.5-1.3-.8-2.7-.8-4.3s.3-3 .8-4.2c.5-1.3 1.3-2.3 2.2-3.2.9-.9 1.9-1.6 3.1-2.1 1.1-.5 2.3-.7 3.5-.7 1.2 0 2.5.2 3.6.7 1.1.5 2.1 1.2 2.9 2 .8.9 1.5 2 2 3.3.5 1.3.8 2.7.8 4.3 0 1.6-.3 3.1-.8 4.4-.5 1.3-1.2 2.4-2 3.2-.8.8-1.8 1.5-2.9 2-1.1.4-2.3.7-3.6.7-1.1-.1-2.4-.3-3.5-.8m.2-25.7c-1.2.4-2.4.9-3.4 1.6-1 .6-1.9 1.4-2.7 2.2v-2.5c0-.7-.6-1.2-1.2-1.2h-4.4c-.7 0-1.2.6-1.2 1.2v39.1c0 .7.6 1.2 1.2 1.2h4.4c.7 0 1.2-.5 1.2-1.2V41.1c.8.8 1.7 1.5 2.6 2.1 1 .6 2.2 1.1 3.4 1.5 1.3.4 2.7.6 4.2.6 2 0 3.9-.4 5.8-1.2 1.9-.8 3.5-1.9 5-3.3 1.4-1.4 2.6-3.2 3.5-5.3.9-2.1 1.3-4.4 1.3-7.1 0-2.6-.4-5-1.3-7.1-.9-2.1-2-3.8-3.5-5.3-1.5-1.4-3.1-2.5-5-3.3-1.9-.7-3.8-1.1-5.7-1.1-1.6.1-3 .3-4.2.7m87.7 11c.5-1.1 1.1-2.1 1.8-2.9.7-.8 1.6-1.4 2.6-1.9.9-.4 2-.7 3.1-.7 1.3 0 2.4.2 3.4.7 1 .5 1.8 1.1 2.5 1.9.7.8 1.2 1.8 1.6 2.9.3.7.5 1.5.6 2.2H485c.1-.7.3-1.5.7-2.2M487 13c-1.9.9-3.6 2.1-4.9 3.6-1.4 1.5-2.5 3.3-3.2 5.4-.8 2-1.1 4.2-1.1 6.5 0 2.5.4 4.8 1.3 6.8.9 2.1 2 3.9 3.5 5.3 1.5 1.5 3.2 2.6 5.1 3.4 1.9.8 4 1.2 6.2 1.2 3 0 5.6-.6 7.7-1.7 2-1.1 3.9-2.5 5.5-4.3.4-.5.4-1.3-.1-1.7l-2.8-2.5c-.5-.4-1.2-.4-1.7.1-1.1 1.2-2.4 2.1-3.8 2.8-1.3.7-2.9 1-4.8 1-1.2 0-2.3-.2-3.3-.6-1-.4-2-1-2.8-1.7-.8-.8-1.5-1.7-2.1-2.8-.4-.8-.7-1.6-.8-2.5h22.2c.6 0 1.1-.5 1.2-1.1 0-.3.1-.6.1-.9v-.6c0-2.3-.3-4.5-1-6.6-.7-2.1-1.7-3.9-2.9-5.4-1.3-1.6-2.9-2.8-4.8-3.7-1.9-.9-4.1-1.4-6.4-1.4-2.3.1-4.4.5-6.3 1.4M313.5 0c-.7 0-1.2.6-1.2 1.2v42.1c0 .7.6 1.2 1.2 1.2h4.4c.7 0 1.2-.6 1.2-1.2V1.2c0-.7-.6-1.2-1.2-1.2h-4.4zm198.4 0c-.7 0-1.2.6-1.2 1.2v42.1c0 .7.6 1.2 1.2 1.2h4.4c.7 0 1.2-.6 1.2-1.2V1.2c0-.7-.6-1.2-1.2-1.2h-4.4zm11.7 0c-.7 0-1.2.6-1.2 1.2v42.1c0 .7.6 1.2 1.2 1.2h4.4c.7 0 1.2-.6 1.2-1.2V1.2c0-.7-.5-1.2-1.2-1.2h-4.4z" fill="url(#SVGID_1_)"/></svg>