<svg version="1.1" id="Layer_1" xmlns="http://www.w3.org/2000/svg" xmlns:xlink="http://www.w3.org/1999/xlink" x="0" y="0" viewBox="0 0 147.2 14.22" xml:space="preserve"><style>.st0{clip-path:url(#SVGID_2_);fill:#fff}</style><defs><path id="SVGID_1_" d="M0 0h147.2v14.22H0z"/></defs><clipPath id="SVGID_2_"><use xlink:href="#SVGID_1_" overflow="visible"/></clipPath><path class="st0" d="M7.98 2.22c.18 0 .32-.14.32-.32V.78c0-.18-.14-.32-.32-.32H.32C.15.46 0 .6 0 .78v10.65c0 .18.14.32.32.32h1.2c.18 0 .32-.15.32-.32V7.12h5.44c.18 0 .32-.14.32-.32V5.7c0-.18-.14-.32-.32-.32H1.85V2.22h6.13zM15.21 4.41c-.34-.41-.77-.74-1.26-.98-.5-.24-1.07-.36-1.69-.36a3.936 3.936 0 00-2.95 1.3c-.36.4-.65.88-.85 1.41-.2.53-.3 1.11-.3 1.72 0 .65.11 1.25.34 1.8.23.54.54 1.02.92 1.4a4.183 4.183 0 003.01 1.23c.8 0 1.49-.15 2.04-.44.54-.29 1.03-.67 1.45-1.14.12-.13.11-.34-.03-.46l-.73-.65a.317.317 0 00-.45.02c-.3.31-.63.56-.99.75-.34.18-.77.27-1.26.27-.31 0-.6-.05-.88-.16a2.308 2.308 0 01-1.3-1.19c-.1-.2-.17-.42-.22-.67h5.85c.16 0 .3-.12.32-.28.01-.09.02-.17.02-.24v-.17c0-.61-.09-1.19-.26-1.73a4.3 4.3 0 00-.78-1.43m-5.15 2.33a2.896 2.896 0 01.67-1.36c.19-.21.42-.37.67-.49.25-.12.52-.17.81-.17.34 0 .64.06.89.19.26.13.48.3.65.51.18.21.32.47.43.75.07.19.12.39.16.59h-4.28zM23.31 4.41c-.34-.41-.77-.74-1.26-.98-.5-.24-1.07-.36-1.69-.36a3.936 3.936 0 00-2.95 1.3c-.36.4-.65.88-.85 1.41-.2.54-.3 1.11-.3 1.72 0 .65.12 1.26.34 1.8s.54 1.02.92 1.4c.39.39.84.69 1.36.91.51.21 1.07.32 1.65.32.8 0 1.49-.15 2.04-.44.54-.29 1.03-.67 1.45-1.14.12-.13.11-.34-.03-.46l-.73-.65a.317.317 0 00-.45.02c-.3.31-.63.56-.99.75-.34.18-.76.27-1.26.27-.31 0-.6-.05-.88-.16a2.308 2.308 0 01-1.3-1.19c-.1-.2-.17-.42-.22-.67h5.85c.16 0 .3-.12.32-.28.01-.09.02-.17.02-.24v-.17c0-.61-.09-1.19-.26-1.73a4.3 4.3 0 00-.78-1.43m-5.15 2.33a2.896 2.896 0 01.67-1.36c.19-.21.42-.37.67-.49.25-.12.52-.17.82-.17.34 0 .64.06.89.19.26.13.48.3.65.51.18.21.32.47.43.75.07.19.12.39.16.59h-4.29zM26.44 0h-1.17c-.18 0-.32.15-.32.32v11.11c0 .18.14.32.32.32h1.17c.18 0 .32-.15.32-.32V.32c0-.17-.14-.32-.32-.32"/><path class="st0" d="M7.98 2.22c.18 0 .32-.14.32-.32V.78c0-.18-.14-.32-.32-.32H.32C.15.46 0 .6 0 .78v10.65c0 .18.14.32.32.32h1.2c.18 0 .32-.15.32-.32V7.12h5.44c.18 0 .32-.14.32-.32V5.7c0-.18-.14-.32-.32-.32H1.85V2.22h6.13zM15.21 4.41c-.34-.41-.77-.74-1.26-.98-.5-.24-1.07-.36-1.69-.36a3.936 3.936 0 00-2.95 1.3c-.36.4-.65.88-.85 1.41-.2.53-.3 1.11-.3 1.72 0 .65.11 1.25.34 1.8.23.54.54 1.02.92 1.4a4.183 4.183 0 003.01 1.23c.8 0 1.49-.15 2.04-.44.54-.29 1.03-.67 1.45-1.14.12-.13.11-.34-.03-.46l-.73-.65a.317.317 0 00-.45.02c-.3.31-.63.56-.99.75-.34.18-.77.27-1.26.27-.31 0-.6-.05-.88-.16a2.308 2.308 0 01-1.3-1.19c-.1-.2-.17-.42-.22-.67h5.85c.16 0 .3-.12.32-.28.01-.09.02-.17.02-.24v-.17c0-.61-.09-1.19-.26-1.73a4.3 4.3 0 00-.78-1.43m-5.15 2.33a2.896 2.896 0 01.67-1.36c.19-.21.42-.37.67-.49.25-.12.52-.17.81-.17.34 0 .64.06.89.19.26.13.48.3.65.51.18.21.32.47.43.75.07.19.12.39.16.59h-4.28zM23.31 4.41c-.34-.41-.77-.74-1.26-.98-.5-.24-1.07-.36-1.69-.36a3.936 3.936 0 00-2.95 1.3c-.36.4-.65.88-.85 1.41-.2.54-.3 1.11-.3 1.72 0 .65.12 1.26.34 1.8s.54 1.02.92 1.4c.39.39.84.69 1.36.91.51.21 1.07.32 1.65.32.8 0 1.49-.15 2.04-.44.54-.29 1.03-.67 1.45-1.14.12-.13.11-.34-.03-.46l-.73-.65a.317.317 0 00-.45.02c-.3.31-.63.56-.99.75-.34.18-.76.27-1.26.27-.31 0-.6-.05-.88-.16a2.308 2.308 0 01-1.3-1.19c-.1-.2-.17-.42-.22-.67h5.85c.16 0 .3-.12.32-.28.01-.09.02-.17.02-.24v-.17c0-.61-.09-1.19-.26-1.73a4.3 4.3 0 00-.78-1.43m-5.15 2.33a2.896 2.896 0 01.67-1.36c.19-.21.42-.37.67-.49.25-.12.52-.17.82-.17.34 0 .64.06.89.19.26.13.48.3.65.51.18.21.32.47.43.75.07.19.12.39.16.59h-4.29zM26.44 0h-1.17c-.18 0-.32.15-.32.32v11.11c0 .18.14.32.32.32h1.17c.18 0 .32-.15.32-.32V.32c0-.17-.14-.32-.32-.32M39.39 3.24h-1.17c-.18 0-.32.14-.32.32v.57c-.22-.21-.47-.39-.74-.55-.27-.15-.58-.28-.91-.37-.78-.21-1.74-.19-2.59.15-.48.19-.92.46-1.29.8-.37.35-.68.78-.9 1.28-.23.5-.34 1.07-.34 1.69 0 .62.11 1.19.34 1.69.23.49.53.92.9 1.27s.81.61 1.28.8c.48.18.98.27 1.49.27.78 0 1.45-.18 2-.54.28-.18.53-.38.76-.6v.08c0 .84-.22 1.44-.67 1.85-.45.41-1.08.62-1.87.62-.53 0-1.03-.08-1.49-.24-.47-.16-.92-.4-1.35-.7a.331.331 0 00-.47.1l-.53.91c-.09.15-.04.33.1.43.55.38 1.15.67 1.78.87.63.19 1.29.29 1.98.29.64 0 1.23-.09 1.75-.26.53-.18 1-.44 1.38-.79.38-.35.69-.79.89-1.31.2-.51.3-1.12.3-1.79v-6.5a.308.308 0 00-.31-.34m-1.45 3.87a2.193 2.193 0 01-.78 1.7c-.24.21-.51.37-.82.48-.6.22-1.31.23-1.9 0-.29-.11-.54-.27-.76-.48a2.333 2.333 0 01-.71-1.72c0-.36.06-.69.19-.98.12-.29.3-.54.51-.74.21-.2.47-.36.76-.46.29-.11.61-.16.94-.16.33 0 .66.06.97.17.31.11.58.28.82.48a2.193 2.193 0 01.78 1.71M47.89 4.38c-.39-.4-.86-.72-1.4-.95-.54-.23-1.14-.35-1.76-.35-.64 0-1.24.12-1.78.35a4.31 4.31 0 00-2.32 2.38c-.22.54-.33 1.11-.33 1.71s.11 1.17.33 1.7c.22.53.53 1.01.92 1.41.39.4.86.72 1.39.95.54.24 1.13.35 1.76.35.63 0 1.22-.12 1.77-.35.55-.23 1.02-.56 1.41-.96.39-.4.7-.88.93-1.42.22-.54.34-1.12.34-1.71 0-.6-.11-1.17-.33-1.7-.23-.54-.54-1.01-.93-1.41m-.6 3.14c0 .38-.07.74-.19 1.07-.13.33-.3.62-.53.86-.22.24-.49.43-.81.57-.62.27-1.43.28-2.06-.01a2.563 2.563 0 01-1.36-1.45c-.13-.33-.2-.7-.2-1.08 0-.38.06-.75.19-1.08.13-.33.3-.63.53-.87.22-.24.48-.44.79-.57.31-.14.66-.21 1.04-.21.37 0 .71.07 1.02.21.31.14.59.34.83.59.23.25.42.54.55.87.13.35.2.71.2 1.1M56.81 4.38c-.39-.4-.86-.72-1.4-.95-.54-.23-1.14-.35-1.76-.35-.64 0-1.24.12-1.78.35a4.31 4.31 0 00-2.32 2.38c-.22.54-.33 1.11-.33 1.71s.11 1.17.33 1.7c.22.53.53 1.01.92 1.41.39.4.86.72 1.39.95.54.24 1.13.35 1.76.35.63 0 1.22-.12 1.77-.35.54-.23 1.02-.56 1.41-.96.39-.4.7-.88.93-1.42.22-.54.34-1.12.34-1.71 0-.6-.11-1.17-.33-1.7-.23-.54-.54-1.01-.93-1.41m-.6 3.14c0 .38-.06.74-.19 1.07-.13.33-.3.62-.53.86-.22.24-.49.43-.81.57-.62.27-1.43.28-2.06-.01a2.541 2.541 0 01-1.36-1.45c-.13-.33-.2-.7-.2-1.08 0-.38.06-.75.19-1.08.13-.33.3-.63.53-.87.22-.24.48-.44.79-.57.31-.14.66-.21 1.04-.21.37 0 .71.07 1.02.21.31.14.59.34.83.59.23.25.42.54.55.87.13.35.2.71.2 1.1M66.42 0h-1.17c-.18 0-.32.14-.32.32v3.85c-.21-.21-.44-.39-.69-.55-.27-.17-.57-.3-.9-.4a3.8 3.8 0 00-1.1-.15c-.52 0-1.03.1-1.51.31-.48.2-.92.5-1.3.87-.38.38-.69.85-.92 1.39s-.34 1.17-.34 1.86.12 1.32.34 1.86c.23.55.54 1.01.92 1.39.38.38.82.67 1.31.87.48.2.99.3 1.51.3.4 0 .76-.05 1.09-.15.33-.1.63-.24.9-.42.25-.17.49-.37.7-.59v.67c0 .18.15.32.32.32h1.17c.18 0 .32-.15.32-.32V.32c0-.18-.15-.32-.33-.32m-1.45 7.49c0 .41-.07.79-.21 1.12-.14.34-.33.62-.57.85-.24.23-.51.42-.82.55-.6.26-1.29.25-1.87.01-.29-.12-.55-.31-.77-.54-.22-.24-.4-.52-.53-.86-.13-.32-.2-.71-.2-1.13 0-.43.07-.82.2-1.16.13-.34.31-.62.52-.85.22-.22.47-.4.76-.52.3-.12.62-.18.96-.18.32 0 .63.06.93.19.3.13.58.31.81.55.24.23.43.52.57.85.15.34.22.71.22 1.12"/><path class="st0" d="M39.39 3.24h-1.17c-.18 0-.32.14-.32.32v.57c-.22-.21-.47-.39-.74-.55-.27-.15-.58-.28-.91-.37-.78-.21-1.74-.19-2.59.15-.48.19-.92.46-1.29.8-.37.35-.68.78-.9 1.28-.23.5-.34 1.07-.34 1.69 0 .62.11 1.19.34 1.69.23.49.53.92.9 1.27s.81.61 1.28.8c.48.18.98.27 1.49.27.78 0 1.45-.18 2-.54.28-.18.53-.38.76-.6v.08c0 .84-.22 1.44-.67 1.85-.45.41-1.08.62-1.87.62-.53 0-1.03-.08-1.49-.24-.47-.16-.92-.4-1.35-.7a.331.331 0 00-.47.1l-.53.91c-.09.15-.04.33.1.43.55.38 1.15.67 1.78.87.63.19 1.29.29 1.98.29.64 0 1.23-.09 1.75-.26.53-.18 1-.44 1.38-.79.38-.35.69-.79.89-1.31.2-.51.3-1.12.3-1.79v-6.5a.308.308 0 00-.31-.34m-1.45 3.87a2.193 2.193 0 01-.78 1.7c-.24.21-.51.37-.82.48-.6.22-1.31.23-1.9 0-.29-.11-.54-.27-.76-.48a2.333 2.333 0 01-.71-1.72c0-.36.06-.69.19-.98.12-.29.3-.54.51-.74.21-.2.47-.36.76-.46.29-.11.61-.16.94-.16.33 0 .66.06.97.17.31.11.58.28.82.48a2.193 2.193 0 01.78 1.71M47.89 4.38c-.39-.4-.86-.72-1.4-.95-.54-.23-1.14-.35-1.76-.35-.64 0-1.24.12-1.78.35a4.31 4.31 0 00-2.32 2.38c-.22.54-.33 1.11-.33 1.71s.11 1.17.33 1.7c.22.53.53 1.01.92 1.41.39.4.86.72 1.39.95.54.24 1.13.35 1.76.35.63 0 1.22-.12 1.77-.35.55-.23 1.02-.56 1.41-.96.39-.4.7-.88.93-1.42.22-.54.34-1.12.34-1.71 0-.6-.11-1.17-.33-1.7-.23-.54-.54-1.01-.93-1.41m-.6 3.14c0 .38-.07.74-.19 1.07-.13.33-.3.62-.53.86-.22.24-.49.43-.81.57-.62.27-1.43.28-2.06-.01a2.563 2.563 0 01-1.36-1.45c-.13-.33-.2-.7-.2-1.08 0-.38.06-.75.19-1.08.13-.33.3-.63.53-.87.22-.24.48-.44.79-.57.31-.14.66-.21 1.04-.21.37 0 .71.07 1.02.21.31.14.59.34.83.59.23.25.42.54.55.87.13.35.2.71.2 1.1M56.81 4.38c-.39-.4-.86-.72-1.4-.95-.54-.23-1.14-.35-1.76-.35-.64 0-1.24.12-1.78.35a4.31 4.31 0 00-2.32 2.38c-.22.54-.33 1.11-.33 1.71s.11 1.17.33 1.7c.22.53.53 1.01.92 1.41.39.4.86.72 1.39.95.54.24 1.13.35 1.76.35.63 0 1.22-.12 1.77-.35.54-.23 1.02-.56 1.41-.96.39-.4.7-.88.93-1.42.22-.54.34-1.12.34-1.71 0-.6-.11-1.17-.33-1.7-.23-.54-.54-1.01-.93-1.41m-.6 3.14c0 .38-.06.74-.19 1.07-.13.33-.3.62-.53.86-.22.24-.49.43-.81.57-.62.27-1.43.28-2.06-.01a2.541 2.541 0 01-1.36-1.45c-.13-.33-.2-.7-.2-1.08 0-.38.06-.75.19-1.08.13-.33.3-.63.53-.87.22-.24.48-.44.79-.57.31-.14.66-.21 1.04-.21.37 0 .71.07 1.02.21.31.14.59.34.83.59.23.25.42.54.55.87.13.35.2.71.2 1.1M66.42 0h-1.17c-.18 0-.32.14-.32.32v3.85c-.21-.21-.44-.39-.69-.55-.27-.17-.57-.3-.9-.4a3.8 3.8 0 00-1.1-.15c-.52 0-1.03.1-1.51.31-.48.2-.92.5-1.3.87-.38.38-.69.85-.92 1.39s-.34 1.17-.34 1.86.12 1.32.34 1.86c.23.55.54 1.01.92 1.39.38.38.82.67 1.31.87.48.2.99.3 1.51.3.4 0 .76-.05 1.09-.15.33-.1.63-.24.9-.42.25-.17.49-.37.7-.59v.67c0 .18.15.32.32.32h1.17c.18 0 .32-.15.32-.32V.32c0-.18-.15-.32-.33-.32m-1.45 7.49c0 .41-.07.79-.21 1.12-.14.34-.33.62-.57.85-.24.23-.51.42-.82.55-.6.26-1.29.25-1.87.01-.29-.12-.55-.31-.77-.54-.22-.24-.4-.52-.53-.86-.13-.32-.2-.71-.2-1.13 0-.43.07-.82.2-1.16.13-.34.31-.62.52-.85.22-.22.47-.4.76-.52.3-.12.62-.18.96-.18.32 0 .63.06.93.19.3.13.58.31.81.55.24.23.43.52.57.85.15.34.22.71.22 1.12M69.39 9.51h-1.4c-.18 0-.32.15-.32.32v1.6c0 .18.15.32.32.32h.22c-.02.11-.06.2-.12.28-.12.16-.35.3-.68.42-.17.06-.25.24-.19.41l.18.53c.05.13.17.22.31.22.02 0 .05 0 .07-.01.64-.15 1.13-.41 1.45-.78.32-.38.49-.92.49-1.62V9.84c-.01-.18-.15-.33-.33-.33"/><path d="M147.13 9.51h-.24c-.02 0-.04.01-.05.03l-.72 1.08-.72-1.08a.055.055 0 00-.05-.03h-.24c-.04 0-.06.03-.06.06v2.12c0 .03.03.06.06.06h.23c.04 0 .06-.03.06-.06v-1.51l.66.96c.01.02.03.03.05.03h.01c.02 0 .04-.01.05-.03l.66-.97v1.51c0 .03.03.06.06.06h.24c.04 0 .06-.03.06-.06v-2.1c0-.04-.02-.07-.06-.07m-2.32 0h-1.66c-.03 0-.06.03-.06.06v.23c0 .04.03.06.06.06h.65v1.83c0 .03.03.06.06.06h.24c.03 0 .06-.03.06-.06V9.86h.65c.04 0 .06-.03.06-.06v-.22c.01-.04-.02-.07-.06-.07m-12.68-2.77c-.04-.2-.09-.4-.15-.59a2.3 2.3 0 00-.43-.75c-.18-.21-.4-.38-.65-.51-.25-.12-.55-.19-.89-.19-.29 0-.57.06-.82.18s-.48.28-.67.49c-.2.21-.36.46-.48.75-.08.19-.15.4-.19.61h4.28zm1.64-.9c.17.54.26 1.12.26 1.73v.17c0 .08-.01.16-.02.24-.02.16-.16.28-.32.28h-5.85c.05.25.12.47.22.67.14.29.33.54.55.74.22.2.47.35.75.45.28.1.57.15.88.15.49 0 .92-.09 1.26-.27.36-.19.69-.44.99-.74.12-.12.32-.13.45-.02l.73.65c.13.12.15.32.03.46-.42.47-.9.86-1.45 1.15-.55.29-1.24.44-2.04.44-.58 0-1.13-.11-1.65-.32a4.153 4.153 0 01-2.28-2.32c-.23-.54-.34-1.15-.34-1.8 0-.61.1-1.18.3-1.72.2-.54.49-1.01.85-1.41a3.936 3.936 0 012.95-1.3c.63 0 1.19.12 1.69.36s.92.56 1.27.97c.33.41.59.9.77 1.44m-7.41-2.46a.314.314 0 00-.26-.14h-1.22c-.14 0-.26.09-.31.22l-1.77 5.39-1.82-5.42a.325.325 0 00-.31-.22h-.97c-.14 0-.26.09-.31.22l-1.81 5.42-1.76-5.39a.325.325 0 00-.31-.22h-1.25c-.11 0-.2.05-.26.14-.06.09-.08.19-.04.29l2.75 7.93c.04.13.17.22.31.22h1.03c.14 0 .26-.09.31-.22l1.82-5.31L122 11.6c.05.13.17.22.31.22h1.02c.14 0 .26-.09.31-.22l2.77-7.93c.02-.1.01-.21-.05-.29m15.93 6.13h-1.4c-.18 0-.32.14-.32.32v1.6c0 .18.15.32.32.32h1.4c.18 0 .32-.15.32-.32v-1.6c0-.17-.14-.32-.32-.32M139.21 0h-1.17c-.18 0-.32.14-.32.32v11.11c0 .18.15.32.32.32h1.17c.18 0 .32-.15.32-.32V.32c.01-.17-.14-.32-.32-.32m-3.09 0h-1.17c-.18 0-.32.14-.32.32v11.11c0 .18.15.32.32.32h1.17c.18 0 .32-.15.32-.32V.32c.01-.17-.14-.32-.32-.32m-27.87 7.51c0-.42-.07-.8-.2-1.14-.13-.33-.31-.62-.53-.86-.22-.23-.48-.41-.77-.54-.29-.12-.61-.19-.94-.19-.32 0-.63.06-.93.19-.3.13-.58.31-.82.55-.24.23-.43.52-.57.85-.14.33-.21.71-.21 1.12 0 .41.07.79.21 1.13.14.34.33.62.57.85.24.23.51.42.82.55.61.26 1.29.25 1.88.01.29-.12.55-.29.77-.51.22-.23.39-.51.52-.85.13-.34.2-.73.2-1.16m1.5-1.88c.23.55.35 1.17.35 1.86 0 .69-.12 1.32-.35 1.86-.23.54-.54 1.01-.91 1.39-.38.38-.82.67-1.31.88-.49.2-1 .31-1.52.31a3.9 3.9 0 01-1.1-.15c-.33-.1-.63-.23-.9-.4-.25-.16-.48-.34-.69-.55v3.04c0 .18-.15.32-.32.32h-1.17c-.18 0-.32-.14-.32-.32V3.57c0-.18.14-.32.32-.32H103c.18 0 .32.15.32.32v.67c.21-.22.45-.42.7-.59.27-.17.57-.31.89-.42.33-.11.7-.16 1.1-.16.51 0 1.01.1 1.5.3.49.2.93.49 1.32.87.38.38.69.85.92 1.39M99.11 6.74c-.04-.2-.09-.4-.16-.59a2.3 2.3 0 00-.43-.75c-.18-.21-.4-.38-.65-.51-.25-.12-.55-.19-.89-.19-.29 0-.57.06-.82.18s-.48.28-.67.49c-.19.21-.36.46-.48.75-.08.19-.15.4-.19.61h4.29zm1.64-.9c.17.54.26 1.12.26 1.73v.17c0 .08-.01.16-.02.24-.02.16-.16.28-.32.28h-5.85c.05.25.12.47.22.67.14.29.33.54.55.74.22.2.47.35.75.45.28.1.57.15.88.15.49 0 .92-.09 1.26-.27.36-.19.69-.44.99-.74.12-.12.32-.13.45-.01l.73.65c.13.12.14.32.03.45-.42.47-.91.86-1.45 1.15-.55.29-1.24.44-2.04.44-.58 0-1.13-.11-1.65-.32-.51-.21-.97-.52-1.36-.91-.38-.39-.69-.86-.92-1.41s-.34-1.15-.34-1.8c0-.61.1-1.18.3-1.72.2-.54.49-1.01.85-1.41a3.936 3.936 0 012.95-1.3c.62 0 1.19.12 1.69.36s.92.56 1.27.97c.33.41.6.9.77 1.44m-9.73.9c-.04-.2-.09-.4-.16-.59a2.3 2.3 0 00-.43-.75c-.18-.21-.4-.38-.65-.51-.25-.12-.55-.19-.89-.19-.29 0-.57.06-.82.18s-.48.28-.67.49c-.2.21-.36.46-.49.75-.08.19-.15.4-.19.61h4.3zm1.63-.9c.17.54.26 1.12.26 1.73v.17c0 .08-.01.16-.02.24-.02.16-.16.28-.32.28h-5.85c.05.25.12.47.22.67.14.29.33.54.55.74.22.2.47.35.75.45.28.1.57.15.88.15.49 0 .92-.09 1.26-.27.36-.19.69-.44.99-.74.12-.12.32-.13.45-.01l.73.65c.13.12.14.32.03.45-.42.47-.9.86-1.44 1.15-.55.29-1.24.44-2.04.44-.58 0-1.13-.11-1.65-.32-.51-.21-.97-.52-1.36-.91-.38-.39-.69-.86-.92-1.41-.23-.55-.34-1.15-.34-1.8 0-.61.1-1.18.3-1.72.2-.54.49-1.01.85-1.41a3.936 3.936 0 012.95-1.3c.62 0 1.19.12 1.69.36s.92.56 1.27.97c.33.41.59.9.76 1.44M83.82 0h-1.17c-.18 0-.32.14-.32.32v11.11c0 .18.14.32.32.32h1.17c.18 0 .32-.15.32-.32V.32C84.15.15 84 0 83.82 0m-2.48 8.13c.18.29.27.65.27 1.07 0 .45-.09.84-.26 1.17-.17.33-.39.61-.68.84-.28.23-.61.4-.99.52-.37.12-.77.17-1.2.17-.6 0-1.22-.11-1.83-.33a5.6 5.6 0 01-1.63-.9.327.327 0 01-.06-.44l.59-.84c.05-.07.13-.12.22-.13.09-.01.17.01.24.06.4.3.82.54 1.25.7.42.16.85.24 1.28.24.4 0 .73-.09.98-.27.22-.16.32-.37.32-.65a.51.51 0 00-.1-.34c-.08-.11-.19-.2-.34-.29-.16-.09-.36-.18-.57-.25-.23-.08-.47-.15-.72-.22-.32-.09-.63-.19-.94-.3-.33-.12-.64-.26-.91-.44-.29-.18-.52-.42-.7-.7-.19-.3-.29-.66-.29-1.09 0-.41.08-.77.23-1.09.15-.32.37-.6.64-.83.27-.22.59-.4.96-.52.81-.26 1.79-.23 2.75.08.52.16 1 .39 1.43.67.15.1.19.29.1.44l-.53.88a.322.322 0 01-.45.11c-.34-.22-.71-.4-1.08-.52-.37-.13-.73-.19-1.08-.19-.39 0-.69.09-.91.26-.2.16-.29.34-.29.56 0 .14.03.23.09.31.08.1.2.2.35.28.17.09.37.18.6.25.24.08.49.16.75.24.31.09.62.2.92.31.33.12.63.28.89.47.3.19.53.43.7.71" clip-path="url(#SVGID_2_)" fill="#4ac7ff"/></svg>