<?xml version="1.0" encoding="utf-8"?>
<!-- Generator: Adobe Illustrator 26.3.1, SVG Export Plug-In . SVG Version: 6.00 Build 0)  -->
<svg version="1.1" id="Layer_1" xmlns="http://www.w3.org/2000/svg" xmlns:xlink="http://www.w3.org/1999/xlink" x="0px" y="0px"
	 viewBox="0 0 216.6 188.3" style="enable-background:new 0 0 216.6 188.3;" xml:space="preserve">
<style type="text/css">
	.st0{fill:#FFFFFF;}
</style>
<g>
	<g>
		<path class="st0" d="M78.2,175.6c52.4-39.2,97.9-78.6,97.9-117.5c0-21.1-9.2-38.6-37.4-38.6c-27,0-40.2,18.8-41.7,44.2H79.7
			c2-38.4,25.4-59.5,59-59.5c31.8,0,55.2,18.1,55.2,53.1c0,46.5-52.6,89.5-88.5,115.9h94.1v15H78.2V175.6z"/>
	</g>
	<path class="st0" d="M0,3v16c38.3,0.2,43.9,35,43.9,76c0,42.6-5.6,76.8-43.9,77v16.3C49.5,188.1,61.4,148,61.4,95
		C61.4,43,49.5,3.2,0,3z"/>
</g>
</svg>
