<?xml version="1.0" encoding="utf-8"?>
<!-- Generator: Adobe Illustrator 26.3.1, SVG Export Plug-In . SVG Version: 6.00 Build 0)  -->
<svg version="1.1" id="Layer_1" xmlns="http://www.w3.org/2000/svg" xmlns:xlink="http://www.w3.org/1999/xlink" x="0px" y="0px"
	 viewBox="0 0 216.6 188.3" style="enable-background:new 0 0 216.6 188.3;" xml:space="preserve">
<style type="text/css">
	.st0{fill:#FFFFFF;}
</style>
<g>
	<g>
		<path class="st0" d="M140.8,1.5c35.1,0,53.9,20.6,53.9,46.5c0,20.6-12.2,38.4-36.1,42.2v1.3c23.1,4.6,39.4,20.3,39.4,47.3
			c0,27.7-18.6,49.6-57,49.6c-34.3,0-59.5-18.6-63.1-53.1h17.3c3.1,21.6,18.8,38.1,45.8,38.1s39.9-16,39.9-36.1
			c0-27-20.3-38.6-55.7-38.6h-5.6v-15h5.8c34.8,0,51.9-11.4,51.9-33.8c0-19.3-13-32.8-37.1-32.8c-22.6,0-39.2,12.2-42,34.3H81
			C83.5,20.3,106.7,1.5,140.8,1.5z"/>
	</g>
	<path class="st0" d="M0,3v16c38.3,0.2,43.9,35,43.9,76c0,42.6-5.6,76.8-43.9,77v16.3C49.5,188.1,61.4,148,61.4,95
		C61.4,43,49.5,3.2,0,3z"/>
</g>
</svg>
