<?xml version="1.0" encoding="utf-8"?>
<!-- Generator: Adobe Illustrator 26.3.1, SVG Export Plug-In . SVG Version: 6.00 Build 0)  -->
<svg version="1.1" id="Layer_1" xmlns="http://www.w3.org/2000/svg" xmlns:xlink="http://www.w3.org/1999/xlink" x="0px" y="0px"
	 viewBox="0 0 207.6 188.3" style="enable-background:new 0 0 207.6 188.3;" xml:space="preserve">
<style type="text/css">
	.st0{fill:#FFFFFF;}
</style>
<g>
	<g>
		<path class="st0" d="M196.7,3v15.5h-93.1v65.1c8.1-11.4,25.7-20.3,45-20.3c44,0,59,31,59,59.8c0,34.3-18.8,63.3-61.8,63.3
			c-35.3,0-57.7-20.1-62.3-50.3h17.5c4.6,22.6,21.6,35.1,44.7,35.1c30.8,0,44.7-20.3,44.7-47.8c0-27.7-15.3-44.8-44.2-44.8
			c-20.1,0-35.3,10.2-42.5,25.4H87.1V3H196.7z"/>
	</g>
	<path class="st0" d="M0,3v16c38.3,0.2,43.9,35,43.9,76c0,42.6-5.6,76.8-43.9,77v16.3C49.5,188.1,61.4,148,61.4,95
		C61.4,43,49.5,3.2,0,3z"/>
</g>
</svg>
