<?xml version="1.0" encoding="utf-8"?>
<!-- Generator: Adobe Illustrator 26.3.1, SVG Export Plug-In . SVG Version: 6.00 Build 0)  -->
<svg version="1.1" id="Layer_1" xmlns="http://www.w3.org/2000/svg" xmlns:xlink="http://www.w3.org/1999/xlink" x="0px" y="0px"
	 viewBox="0 0 207.6 188.3" style="enable-background:new 0 0 207.6 188.3;" xml:space="preserve">
<style type="text/css">
	.st0{fill:#FFFFFF;}
</style>
<g>
	<path class="st0" d="M0,1.7v16c38.3,0.2,43.9,35,43.9,76c0,42.6-5.6,76.8-43.9,77v16.3c49.5-0.2,61.4-40.3,61.4-93.3
		C61.4,41.8,49.5,1.9,0,1.7z"/>
	<g>
		<path class="st0" d="M176.5,49.8C173,29.2,161,16.7,138.1,16.7c-32,0-50.1,22.1-48.8,82.6c6.9-20.8,28.2-32.8,52.4-32.8
			c35.6,0,58,23.1,58,61.5c0,32.3-18.3,60.3-59.5,60.3c-54.4,0-66.6-40.2-66.6-92.5c0-57.7,18.1-94.1,64.6-94.1
			c34.1,0,51.6,21.4,54.9,48.1H176.5z M91.6,125.3c0,25.7,14.7,48.1,47.8,48.1c26.2,0,43-17,43-44.5c0-29.5-15.8-47-44-47
			C115.8,81.8,91.6,95.3,91.6,125.3z"/>
	</g>
</g>
</svg>
