<svg xmlns="http://www.w3.org/2000/svg" width="235.31" height="84" viewBox="0 0 235.31 84">
  <g id="Group_418" data-name="Group 418" transform="translate(-231.687 -101.021)">
    <g id="Group_418-2" data-name="Group 418" transform="translate(301.826 101.021)">
      <path id="Path_189" data-name="Path 189" d="M616.056,101.021h4.46c2.833,0,4.5,1.1,4.5,3.692,0,2.449-1.554,3.711-4.5,3.711h-3.181v5.758h-1.28Zm1.28,6.233h3.181c1.755,0,3.181-.713,3.181-2.468,0-1.736-.932-2.6-3.181-2.6h-3.181Z" transform="translate(-616.056 -101.021)"/>
      <path id="Path_190" data-name="Path 190" d="M671.449,124.315c0-3.345,1.828-5.063,4.332-5.063s4.332,1.718,4.332,5.063-1.828,5.063-4.332,5.063S671.449,127.661,671.449,124.315Zm4.332,4.04c1.682,0,3.126-1.152,3.126-4.04s-1.444-4.04-3.126-4.04-3.126,1.152-3.126,4.04S674.1,128.355,675.781,128.355Z" transform="translate(-661.341 -115.925)"/>
      <path id="Path_191" data-name="Path 191" d="M724.339,120.854h1.133l2.431,8.263h.036l2.1-8.263h1.206l2.084,8.263h.036l2.413-8.263h1.133L733.9,130.4h-1.206l-2.029-8.006h-.036l-2.139,8.006h-1.206Z" transform="translate(-704.58 -117.235)"/>
      <path id="Path_192" data-name="Path 192" d="M806.9,126.2a3.966,3.966,0,0,1-4.04,3.181c-2.632,0-4.3-1.846-4.3-4.9,0-3.363,1.791-5.228,4.35-5.228,2.413,0,3.985,1.645,3.985,4.606,0,.238-.018.457-.036.695h-7.093c0,1.024.512,3.8,3.162,3.8a2.916,2.916,0,0,0,2.76-2.157Zm-1.206-2.6c0-1.554-.768-3.327-2.8-3.327-2.267,0-3.034,2.1-3.126,3.327Z" transform="translate(-765.259 -115.925)"/>
      <path id="Path_193" data-name="Path 193" d="M858.763,119.544h1.06v1.5h.036a3.1,3.1,0,0,1,3.053-1.791v1.206c-2.541.018-3.016,1.737-3.016,3.565v5.064h-1.133Z" transform="translate(-814.474 -115.925)"/>
      <path id="Path_194" data-name="Path 194" d="M895.145,126.2a3.966,3.966,0,0,1-4.04,3.181c-2.632,0-4.3-1.846-4.3-4.9,0-3.363,1.791-5.228,4.351-5.228,2.413,0,3.985,1.645,3.985,4.606,0,.238-.018.457-.036.695h-7.093c0,1.024.512,3.8,3.162,3.8a2.917,2.917,0,0,0,2.76-2.157Zm-1.206-2.6c0-1.554-.768-3.327-2.8-3.327-2.267,0-3.034,2.1-3.126,3.327Z" transform="translate(-837.403 -115.925)"/>
      <path id="Path_195" data-name="Path 195" d="M951.929,112.775a4.531,4.531,0,0,1-3.4,1.7c-2.705,0-4.222-1.846-4.222-5.045,0-2.852,1.682-5.082,4.222-5.082a3.8,3.8,0,0,1,3.327,1.609v-4.935h1.133v13.161h-1.06Zm-3.4.676c2.34,0,3.327-1.773,3.327-4.15,0-2.321-1.115-3.93-3.327-3.93-1.736,0-3.016,1.682-3.016,4.058C945.512,112.062,946.7,113.451,948.528,113.451Z" transform="translate(-884.407 -101.021)"/>
      <path id="Path_196" data-name="Path 196" d="M1035.558,101.021h1.133v5.118h.037a3.7,3.7,0,0,1,3.327-1.791c3.016,0,4.168,2.486,4.168,5.118,0,3.235-1.737,5.008-4.168,5.008a3.874,3.874,0,0,1-3.4-1.883h-.036v1.59h-1.06Zm4.314,12.43c1.645,0,3.144-1.225,3.144-3.985,0-2.34-1.005-4.095-3.144-4.095-2.065,0-3.181,1.627-3.181,3.821C1036.691,112.062,1038.208,113.451,1039.872,113.451Z" transform="translate(-959.008 -101.021)"/>
      <path id="Path_197" data-name="Path 197" d="M1092.078,130.616c-.749,1.956-1.023,3.583-2.943,3.583a3.273,3.273,0,0,1-.932-.128v-1.024a4.235,4.235,0,0,0,.932.128c1.206,0,1.59-2.212,1.792-2.687l-3.583-9.633h1.207l2.979,7.988,3.071-7.988h1.207Z" transform="translate(-1001.344 -117.235)"/>
    </g>
    <g id="Group_420" data-name="Group 420" transform="translate(231.687 109.411)">
      <g id="Group_419" data-name="Group 419" transform="translate(0 0)">
        <path id="Path_198" data-name="Path 198" d="M287.379,164.7a28.988,28.988,0,1,0-26.716,40.287h.025A28.994,28.994,0,0,0,287.379,164.7Zm-26.7,30.978a19.684,19.684,0,1,1,19.683-19.665A19.695,19.695,0,0,1,260.676,195.676Z" transform="translate(-231.687 -147)" fill="#0c2074"/>
        <path id="Path_199" data-name="Path 199" d="M586.622,240.508c.086,0,.13.051.133.146,0,.113,0,.225,0,.338q0,1.916,0,3.832c0,.113,0,.225.005.338a.078.078,0,0,0,.035.056.076.076,0,0,0,.068,0c.065-.058.126-.121.188-.184a16.359,16.359,0,0,1,8.192-4.546,18.6,18.6,0,0,1,2.409-.378,19.254,19.254,0,0,1,16.134,6.41,20.2,20.2,0,0,1,3.911,6.834,21.827,21.827,0,0,1,.916,3.713c.1.644.173,1.29.227,1.939a24.722,24.722,0,0,1,.041,3.078c-.028.675-.1,1.348-.188,2.019a21.971,21.971,0,0,1-.553,2.759,19.6,19.6,0,0,1-3.456,7.03,18.3,18.3,0,0,1-8.586,6.137,19.6,19.6,0,0,1-3.42.847,22,22,0,0,1-3.4.26,20.123,20.123,0,0,1-2.024-.111,17.979,17.979,0,0,1-2.95-.543,15.867,15.867,0,0,1-7.226-4.186c-.07-.071-.144-.137-.218-.2a.045.045,0,0,0-.067.007c-.008.009-.02.017-.022.027a.764.764,0,0,0-.011.112c0,.125,0,.251,0,.376q0,10.783,0,21.566c0,.162-.011.325-.017.487H578.4a1.644,1.644,0,0,1-.027-.184c0-.125,0-.251,0-.376q0-28.5,0-56.995c0-.163,0-.325.01-.488a.122.122,0,0,1,.126-.113Zm11.617,7.368-.812.049a10.872,10.872,0,0,0-2,.316,11.157,11.157,0,0,0-4.745,2.478,11.9,11.9,0,0,0-3.037,4.194,15.081,15.081,0,0,0-.991,8.384,12.636,12.636,0,0,0,.923,3.084,11.351,11.351,0,0,0,4.491,5.159,11.883,11.883,0,0,0,5.576,1.715,13.022,13.022,0,0,0,2.25-.049,12.314,12.314,0,0,0,2.061-.4,11.18,11.18,0,0,0,6.471-4.773,12.655,12.655,0,0,0,1.978-6.15,15.617,15.617,0,0,0-.055-2.738,14.875,14.875,0,0,0-.394-2.177,12.855,12.855,0,0,0-1.742-3.927,11.34,11.34,0,0,0-4.92-4.163A12.423,12.423,0,0,0,598.239,247.876Z" transform="translate(-515.109 -223.055)" fill="#0c2074"/>
        <path id="Path_200" data-name="Path 200" d="M1153.333,242.687c.014,0,.038.036.037.053a.493.493,0,0,1-.029.144c-.176.442-.355.882-.532,1.324L1139.4,277.5q-4.629,11.491-9.259,22.981c-.046.116-.084.234-.126.352h-9.167a.385.385,0,0,1,.047-.216q.337-.836.671-1.672,4.908-12.228,9.816-24.457,4.636-11.548,9.274-23.1,1.671-4.163,3.342-8.326a1.2,1.2,0,0,1,.177-.37S1153.388,242.665,1153.333,242.687Z" transform="translate(-958.59 -225.219)" fill="#0c2074"/>
        <path id="Path_201" data-name="Path 201" d="M868.282,280.072c0,.67.093.584-.567.585q-3.532.005-7.063,0c-.1,0-.2,0-.3,0-.2,0-.227-.036-.231-.25,0-.1,0-.2,0-.3q0-1.9,0-3.794a1.03,1.03,0,0,0-.026-.372c-.006-.016-.051-.036-.06-.029a1.443,1.443,0,0,0-.168.148c-.353.374-.72.732-1.107,1.07a15.632,15.632,0,0,1-5.732,3.191,17.4,17.4,0,0,1-2.819.622,19.9,19.9,0,0,1-3.033.188c-.626-.01-1.25-.048-1.874-.108a19.8,19.8,0,0,1-3.392-.624,18.4,18.4,0,0,1-9.107-5.681,19.005,19.005,0,0,1-3.375-5.559,20.92,20.92,0,0,1-1.138-3.962c-.136-.739-.235-1.482-.3-2.231a23.862,23.862,0,0,1-.045-3.64,22.132,22.132,0,0,1,2.124-8.314,19.547,19.547,0,0,1,4.6-6.161,18.576,18.576,0,0,1,7.871-4.205,20.137,20.137,0,0,1,2.47-.464,18.843,18.843,0,0,1,3.524-.118,16.667,16.667,0,0,1,8.388,2.758,15.485,15.485,0,0,1,2.639,2.22c.077.081.16.158.244.232.008.007.057-.012.059-.025a.922.922,0,0,0,.022-.185c0-.351,0-.7,0-1.052q0-1.578,0-3.156c0-.362,0-.355.349-.355h7.7c.357,0,.352-.006.351.35Zm-31.921-19.151a16.4,16.4,0,0,0,.265,2.737,12.751,12.751,0,0,0,.921,2.929,11.031,11.031,0,0,0,5.4,5.521,12.164,12.164,0,0,0,4.56,1.143,12.9,12.9,0,0,0,2.883-.128,11.626,11.626,0,0,0,2.6-.728,11.005,11.005,0,0,0,5.3-4.589,12.908,12.908,0,0,0,1.791-5.831,16,16,0,0,0-.053-2.888,15.076,15.076,0,0,0-.472-2.467,12.9,12.9,0,0,0-1.794-3.865,11.165,11.165,0,0,0-3.757-3.45,11.392,11.392,0,0,0-5.427-1.427c-.388-.008-.776.015-1.163.043a11.891,11.891,0,0,0-1.963.308,11.25,11.25,0,0,0-5.96,3.635,12.335,12.335,0,0,0-2.328,4.086A15.436,15.436,0,0,0,836.361,260.921Z" transform="translate(-719.097 -223.053)" fill="#0c2074"/>
        <path id="Path_202" data-name="Path 202" d="M1074.852,242.622c-.095,0-.14.063-.105.145.059.138.12.275.182.412l14.39,31.805q.487,1.077.976,2.154a1.524,1.524,0,0,0,.109.195.072.072,0,0,0,.063,0c.061-.122.122-.245.173-.372q1.889-4.682,3.773-9.365a1.655,1.655,0,0,0,.159-.458c-.061-.15-.119-.3-.185-.45q-3.9-8.66-7.8-17.32-1.456-3.235-2.914-6.468c-.127-.282-.1-.278-.412-.277Z" transform="translate(-920.897 -225.17)" fill="#0c2074"/>
      </g>
      <path id="Path_203" data-name="Path 203" d="M1331.411,246.281a20.425,20.425,0,0,0-14.562-6.114h-.051a20.525,20.525,0,0,0-.036,41.05h.042a20.52,20.52,0,0,0,14.608-34.936Zm-14.634,27.113a12.7,12.7,0,1,1,12.728-12.7A12.706,12.706,0,0,1,1316.777,273.394Z" transform="translate(-1102.018 -223.166)" fill="#0c2074"/>
    </g>
  </g>
</svg>
