<?xml version="1.0" encoding="utf-8"?>
<!-- Generator: Adobe Illustrator 26.4.0, SVG Export Plug-In . SVG Version: 6.00 Build 0)  -->
<svg version="1.1" id="Layer_1" xmlns="http://www.w3.org/2000/svg" xmlns:xlink="http://www.w3.org/1999/xlink" x="0px" y="0px"
	 viewBox="0 0 447.8 53.3" style="enable-background:new 0 0 447.8 53.3;" xml:space="preserve">
<style type="text/css">
	.st0{fill:#FFFFFF;}
	.st1{fill:#1334CB;}
	.st2{clip-path:url(#SVGID_00000036253507609978946350000012533271161489227671_);}
	.st3{clip-path:url(#SVGID_00000005259809101525947910000001352750321980959132_);}
	.st4{opacity:0;}
	.st5{clip-path:url(#SVGID_00000103954350957501968560000012414342153874002317_);}
	.st6{fill:#F16223;}
	.st7{fill:#E82128;}
	.st8{fill:#F49D20;}
	.st9{clip-path:url(#SVGID_00000044897382383392521920000017976933594139990674_);fill:#FFFFFF;}
	
		.st10{clip-path:url(#SVGID_00000110444709161138873100000000381124840195927737_);fill-rule:evenodd;clip-rule:evenodd;fill:#FFFFFF;}
	
		.st11{clip-path:url(#SVGID_00000032641777660193267030000015978964131876040116_);fill-rule:evenodd;clip-rule:evenodd;fill:#026FCF;}
	.st12{clip-path:url(#SVGID_00000142147518614994794120000015593934180516458674_);fill:#FFFFFF;}
	.st13{fill-rule:evenodd;clip-rule:evenodd;fill:#0F3182;}
	.st14{fill-rule:evenodd;clip-rule:evenodd;fill:#459BD9;}
	.st15{fill-rule:evenodd;clip-rule:evenodd;fill:#28356A;}
	.st16{fill-rule:evenodd;clip-rule:evenodd;fill:#22284F;}
	.st17{clip-path:url(#SVGID_00000012441476451210286990000002021300003843917185_);fill:#FFFFFF;}
	.st18{fill:#00A2E5;}
	.st19{fill:#7375CF;}
	.st20{fill:#EB001B;}
</style>
<g>
	<path id="Path_934" class="st0" d="M75,0H5C2.2,0.1-0.1,2.5,0,5.3V48c-0.1,2.8,2.2,5.2,5,5.3h70c2.8-0.1,5.1-2.5,5-5.3V5.3
		C80.1,2.5,77.8,0.1,75,0"/>
	<path id="Path_935" class="st1" d="M39.7,17.6l-3.9,18.1h-4.7L35,17.6H39.7z M59.4,29.3l2.5-6.8l1.4,6.8H59.4z M64.6,35.7h4.3
		l-3.7-18.1h-4c-0.9,0-1.7,0.6-2,1.4l-7,16.7H57l1-2.7h6L64.6,35.7z M52.4,29.8c0-4.8-6.6-5-6.6-7.2c0-0.7,0.7-1.4,1.9-1.5
		c1.6-0.1,3.2,0.1,4.7,0.8l0.8-3.9c-1.4-0.6-2.8-0.8-4.3-0.8c-4.7,0-7.8,2.5-7.8,6c0,2.6,2.3,4.1,4.1,4.9c1.8,0.9,2.4,1.5,2.4,2.3
		c0,1.2-1.5,1.7-2.8,1.8c-1.7,0-3.3-0.3-4.8-1.1l-0.8,4c1.7,0.7,3.4,1,5.2,0.9C49.3,36,52.4,33.5,52.4,29.8 M33.1,17.6l-7.6,18.1
		h-4.9l-3.7-14.4c-0.1-0.7-0.5-1.2-1.1-1.6c-1.5-0.7-3.1-1.2-4.7-1.6l0.1-0.6h7.9c1,0,2,0.8,2.2,1.8l1.9,10.4l4.9-12.3h5V17.6z"/>
</g>
<g>
	<g>
		<g>
			<defs>
				<rect id="SVGID_1_" x="92" width="80" height="53.3"/>
			</defs>
			<clipPath id="SVGID_00000169543572962298542690000014986151623641282740_">
				<use xlink:href="#SVGID_1_"  style="overflow:visible;"/>
			</clipPath>
			<g style="clip-path:url(#SVGID_00000169543572962298542690000014986151623641282740_);">
				<g>
					<g>
						<defs>
							<rect id="SVGID_00000062173199675491671980000010799544643848250543_" x="92" width="80" height="53.3"/>
						</defs>
						<clipPath id="SVGID_00000065072243846701342350000014926139235585383062_">
							<use xlink:href="#SVGID_00000062173199675491671980000010799544643848250543_"  style="overflow:visible;"/>
						</clipPath>
						<g id="Group_1065" style="clip-path:url(#SVGID_00000065072243846701342350000014926139235585383062_);">
							<path id="Path_936" class="st0" d="M167,0H97c-2.8,0.1-5.1,2.5-5,5.3V48c-0.1,2.8,2.2,5.2,5,5.3h70c2.8-0.1,5.1-2.5,5-5.3
								V5.3C172.1,2.5,169.8,0.1,167,0"/>
							<g id="Group_1064" transform="translate(14.193 9.6)" class="st4">
								<g id="Group_1063">
									<g>
										<g>
											<g>
												<defs>
													<rect id="SVGID_00000110464435181642699040000007242677193138495875_" x="92" y="0" width="51.6" height="34.1"/>
												</defs>
												<clipPath id="SVGID_00000104682704560163441140000017887198140321727133_">
													<use xlink:href="#SVGID_00000110464435181642699040000007242677193138495875_"  style="overflow:visible;"/>
												</clipPath>
												<g id="Group_1062" style="clip-path:url(#SVGID_00000104682704560163441140000017887198140321727133_);">
													<rect id="Rectangle_628" x="92" y="0" class="st0" width="51.6" height="34.1"/>
												</g>
											</g>
										</g>
									</g>
								</g>
							</g>
							<rect id="Rectangle_630" x="125.2" y="15.5" class="st6" width="13.6" height="22.2"/>
							<path id="Path_937" class="st7" d="M126.7,26.7c0-4.3,1.9-8.4,5.3-11.1c-6.1-4.8-15-3.8-19.9,2.4s-3.8,15,2.4,19.9
								c5.1,4,12.4,4,17.5,0C128.6,35.1,126.6,31,126.7,26.7"/>
							<path id="Path_938" class="st8" d="M153.5,35.4V35h0.2v-0.1h-0.5V35h0.2L153.5,35.4L153.5,35.4z M154.4,35.4v-0.5h-0.1
								l-0.2,0.4l-0.2-0.4h-0.1v0.5h0.1V35l0.2,0.4h0.1l0.1-0.4L154.4,35.4L154.4,35.4z"/>
							<path id="Path_939" class="st8" d="M154.9,26.7c0,7.8-6.3,14.1-14.2,14.1c-3.2,0-6.2-1.1-8.7-3c6.1-4.8,7.2-13.7,2.4-19.9
								c-0.7-0.9-1.5-1.7-2.4-2.4c6.1-4.8,15-3.8,19.9,2.4C153.8,20.4,154.9,23.5,154.9,26.7"/>
						</g>
					</g>
				</g>
			</g>
		</g>
	</g>
</g>
<g>
	<g>
		<g>
			<g>
				<defs>
					<rect id="SVGID_00000030449928878193704810000008978880947790909855_" x="183.9" width="80" height="53.3"/>
				</defs>
				<clipPath id="SVGID_00000063594114282356299420000010205560778297308838_">
					<use xlink:href="#SVGID_00000030449928878193704810000008978880947790909855_"  style="overflow:visible;"/>
				</clipPath>
				
					<path id="Path_940_00000134220652501216389470000005729235101561879192_" style="clip-path:url(#SVGID_00000063594114282356299420000010205560778297308838_);fill:#FFFFFF;" d="
					M258.9,0h-70c-2.8,0.1-5.1,2.5-5,5.3V48c-0.1,2.8,2.2,5.2,5,5.3h70c2.8-0.1,5.1-2.5,5-5.3V5.3C264,2.5,261.7,0.1,258.9,0"/>
			</g>
		</g>
		<g>
			<g>
				<defs>
					<rect id="SVGID_00000174573921319762671360000001764425039967183026_" x="183.9" width="80" height="53.3"/>
				</defs>
				<clipPath id="SVGID_00000099645656754637367190000008703513886051778702_">
					<use xlink:href="#SVGID_00000174573921319762671360000001764425039967183026_"  style="overflow:visible;"/>
				</clipPath>
				
					<path id="Path_941_00000004547111158401481180000003552905733783258514_" style="clip-path:url(#SVGID_00000099645656754637367190000008703513886051778702_);fill-rule:evenodd;clip-rule:evenodd;fill:#FFFFFF;" d="
					M203.9,6.7v40h40v-40C243.9,6.7,203.9,6.7,203.9,6.7z"/>
			</g>
		</g>
		<g>
			<g>
				<defs>
					<rect id="SVGID_00000074410597970121593690000014401913550215697851_" x="183.9" width="80" height="53.3"/>
				</defs>
				<clipPath id="SVGID_00000116930501813837720840000004501212631412299953_">
					<use xlink:href="#SVGID_00000074410597970121593690000014401913550215697851_"  style="overflow:visible;"/>
				</clipPath>
				
					<path id="Path_942_00000034085980312044474810000015423840703513779893_" style="clip-path:url(#SVGID_00000116930501813837720840000004501212631412299953_);fill-rule:evenodd;clip-rule:evenodd;fill:#026FCF;" d="
					M203.9,6.7v40h40v-6.3h-5.5l-2-2.4l-2.1,2.4h-15.7V27.6h-5.2l6.5-14.6h6.3l1.5,3.3V13h7.8l1.3,3.5l1.3-3.5h5.9V6.7H203.9z
					 M239.4,15.1l-2.1,5.4l-0.5,1.5l-0.6-1.5l-2.1-5.4h-4.5v10.7h2.7v-6.9v-1.4l0.5,1.4l2.6,6.9h2.6l2.6-6.9l0.5-1.4v8.3h2.7V15.1
					H239.4z M221.3,15.1l-4.7,10.7h3.1l0.8-2.1h5.2l0.8,2.1h3.1l-4.7-10.7C224.9,15.1,221.3,15.1,221.3,15.1z M222.6,18.7l0.5-1.3
					l0.5,1.3l1.1,2.7h-3.3L222.6,18.7z M239.6,27.7l-3.2,3.5l-3.2-3.5h-12.5v10.6h8.9V36h-6.2v-1.9h6.1v-2.3h-6.1V30h6.2v-2.3l5,5.3
					l-5,5.3h3.4l3.2-3.5l3.2,3.5h3.5l-5-5.3l5-5.3H239.6z M240.9,32.9l3,3.1v-6.1L240.9,32.9z"/>
			</g>
		</g>
	</g>
</g>
<g>
	<g>
		<g>
			<g>
				<g>
					<defs>
						<rect id="SVGID_00000062161224210272409100000005093873236834345643_" x="367.8" width="80" height="53.3"/>
					</defs>
					<clipPath id="SVGID_00000130619978785377637060000013043914851848835203_">
						<use xlink:href="#SVGID_00000062161224210272409100000005093873236834345643_"  style="overflow:visible;"/>
					</clipPath>
					
						<path id="Path_940_00000151503549862409565010000013216298696332778684_" style="clip-path:url(#SVGID_00000130619978785377637060000013043914851848835203_);fill:#FFFFFF;" d="
						M442.8,0h-70c-2.8,0.1-5.1,2.5-5,5.3V48c-0.1,2.8,2.2,5.2,5,5.3h70c2.8-0.1,5.1-2.5,5-5.3V5.3C447.9,2.5,445.6,0.1,442.8,0"/>
				</g>
			</g>
		</g>
	</g>
	<g>
		<path id="Path_2" class="st13" d="M394.7,34.8H392c-0.2,0-0.3,0.1-0.4,0.3l-1.1,6.9c0,0.1,0.1,0.2,0.2,0.3l0,0h1.3
			c0.2,0,0.3-0.1,0.4-0.3l0.3-2c0-0.2,0.2-0.3,0.4-0.3h0.8c1.8,0,2.8-0.9,3-2.5c0.1-0.6,0-1.2-0.3-1.7
			C396.1,34.9,395.4,34.7,394.7,34.8L394.7,34.8z M395,37.3c-0.1,1-0.9,1-1.6,1H393l0.3-1.8c0-0.1,0.1-0.2,0.2-0.2h0.2
			c0.5,0,0.9,0,1.2,0.3C395,36.7,395.1,37,395,37.3L395,37.3z M402.7,37.2h-1.3c-0.1,0-0.2,0.1-0.2,0.2l-0.1,0.4l-0.1-0.1
			c-0.4-0.4-1-0.6-1.5-0.5c-1.5,0-2.7,1.1-2.9,2.6c-0.1,0.7,0,1.4,0.5,2c0.4,0.5,1,0.7,1.6,0.7c0.7,0,1.3-0.3,1.8-0.7l-0.1,0.4
			c0,0.1,0.1,0.2,0.2,0.3l0,0h1.2c0.2,0,0.3-0.1,0.4-0.3l0.7-4.4C402.9,37.4,402.9,37.3,402.7,37.2L402.7,37.2L402.7,37.2z
			 M400.9,39.7c-0.1,0.7-0.7,1.2-1.4,1.2c-0.3,0-0.6-0.1-0.9-0.3c-0.2-0.3-0.3-0.6-0.2-0.9c0.1-0.7,0.7-1.2,1.4-1.2
			c0.3,0,0.6,0.1,0.9,0.3C400.9,39.1,401,39.4,400.9,39.7L400.9,39.7z M409.5,37.2h-1.3c-0.1,0-0.2,0.1-0.3,0.2l-1.8,2.6l-0.8-2.5
			c0-0.2-0.2-0.3-0.4-0.3h-1.3c-0.1,0-0.2,0.1-0.2,0.2c0,0,0,0,0,0.1l1.4,4.2l-1.3,1.9c-0.1,0.1-0.1,0.2,0,0.3h0.1h1.3
			c0.1,0,0.2-0.1,0.3-0.2l4.3-6.2C409.6,37.4,409.5,37.3,409.5,37.2C409.6,37.2,409.6,37.2,409.5,37.2L409.5,37.2z"/>
		<path id="Path_3" class="st14" d="M413.8,34.8h-2.7c-0.2,0-0.3,0.1-0.4,0.3l-1.1,6.9c0,0.1,0.1,0.2,0.2,0.3l0,0h1.4
			c0.1,0,0.2-0.1,0.3-0.2l0.3-1.9c0-0.2,0.2-0.3,0.4-0.3h0.8c1.8,0,2.8-0.9,3-2.5c0.1-0.6,0-1.2-0.3-1.7
			C415.2,34.9,414.5,34.7,413.8,34.8L413.8,34.8z M414.1,37.3c-0.1,1-0.9,1-1.6,1h-0.4l0.3-1.8c0-0.1,0.1-0.2,0.2-0.2h0.2
			c0.5,0,0.9,0,1.2,0.3C414.1,36.7,414.2,37,414.1,37.3L414.1,37.3z M421.8,37.2h-1.3c-0.1,0-0.2,0.1-0.2,0.2l-0.1,0.4l-0.1-0.1
			c-0.4-0.4-1-0.6-1.5-0.5c-1.5,0-2.7,1.1-2.9,2.6c-0.1,0.7,0,1.4,0.5,2c0.4,0.5,1,0.7,1.6,0.7c0.7,0,1.3-0.3,1.8-0.7l-0.1,0.4
			c0,0.1,0.1,0.2,0.2,0.3l0,0h1.2c0.2,0,0.3-0.1,0.4-0.3l0.7-4.4C422,37.4,422,37.3,421.8,37.2L421.8,37.2z M420,39.7
			c-0.1,0.7-0.7,1.2-1.4,1.2c-0.5,0.1-1-0.3-1.1-0.9c0-0.1,0-0.2,0-0.4c0.1-0.7,0.7-1.2,1.4-1.2c0.3,0,0.6,0.1,0.9,0.3
			C420,39.1,420.1,39.4,420,39.7L420,39.7z M423.3,34.9l-1.1,7c0,0.1,0.1,0.2,0.2,0.3l0,0h1.1c0.2,0,0.3-0.1,0.4-0.3L425,35
			c0-0.1-0.1-0.2-0.2-0.3l0,0h-1.2C423.4,34.8,423.3,34.8,423.3,34.9L423.3,34.9z"/>
		<path id="Path_4" class="st15" d="M404.3,31.4l0.4-2.5h-0.9h-4.2l2.9-18.5c0-0.1,0.1-0.2,0.2-0.2h7.1c2.4,0,4,0.5,4.8,1.5
			c0.4,0.4,0.6,0.9,0.8,1.4c0.1,0.7,0.1,1.3,0,2v0.1v0.5l0.4,0.2c0.3,0.2,0.6,0.4,0.8,0.6c0.4,0.4,0.6,0.9,0.7,1.5
			c0.1,0.7,0.1,1.4-0.1,2.1c-0.1,0.8-0.4,1.7-0.9,2.4c-0.3,0.6-0.8,1.1-1.4,1.5s-1.2,0.7-1.9,0.8c-0.8,0.2-1.5,0.3-2.3,0.3h-0.6
			c-0.8,0-1.5,0.6-1.6,1.4v0.2l-0.7,4.4v0.2v0.1c0,0,0,0-0.1,0H404.3z"/>
		<path id="Path_5" class="st14" d="M416.2,15.2c0,0.1,0,0.3-0.1,0.4c-0.9,4.8-4.1,6.5-8.2,6.5h-2.1c-0.5,0-0.9,0.4-1,0.9l-1.4,8.7
			c0,0.3,0.2,0.6,0.4,0.6h0.1h3.7c0.4,0,0.8-0.3,0.9-0.7v-0.2l0.7-4.4v-0.2c0.1-0.4,0.4-0.7,0.9-0.7h0.6c3.6,0,6.4-1.5,7.2-5.7
			c0.3-1.8,0.2-3.2-0.7-4.2C416.9,15.6,416.6,15.4,416.2,15.2L416.2,15.2z"/>
		<path id="Path_6" class="st16" d="M415.2,14.8c-0.3-0.1-0.6-0.2-0.9-0.2c-0.6-0.1-1.2-0.1-1.8-0.1h-5.6c-0.4,0-0.8,0.3-0.9,0.7
			l-1.2,7.5v0.2c0.1-0.5,0.5-0.9,1-0.9h2.1c4.1,0,7.3-1.7,8.2-6.5c0-0.1,0.1-0.3,0.1-0.4C415.9,15,415.6,14.9,415.2,14.8L415.2,14.8
			z"/>
		<path id="Path_7" class="st13" d="M406,15.2c0.1-0.4,0.4-0.8,0.9-0.7h5.6c0.6,0,1.2,0,1.8,0.1c0.3,0.1,0.6,0.1,0.9,0.2l0.2,0.1
			c0.3,0.1,0.5,0.2,0.8,0.3c0.3-1.8,0-3-1-4.1c-1.1-1.2-3-1.7-5.4-1.7h-7.1c-0.5,0-0.9,0.4-1,0.9l-3,18.7c-0.1,0.3,0.2,0.6,0.5,0.7
			h0.1h4.4C403.8,29.7,406,15.2,406,15.2z"/>
	</g>
</g>
<g>
	<g>
		<g>
			<g>
				<g>
					<g>
						<defs>
							<rect id="SVGID_00000106843416196478208450000015580746903176630930_" x="275.9" width="80" height="53.3"/>
						</defs>
						<clipPath id="SVGID_00000098221699837241071470000003765833350461479571_">
							<use xlink:href="#SVGID_00000106843416196478208450000015580746903176630930_"  style="overflow:visible;"/>
						</clipPath>
						
							<path id="Path_940_00000165916144632399650980000000024099574510525839_" style="clip-path:url(#SVGID_00000098221699837241071470000003765833350461479571_);fill:#FFFFFF;" d="
							M350.9,0h-70c-2.8,0.1-5.1,2.5-5,5.3V48c-0.1,2.8,2.2,5.2,5,5.3h70c2.8-0.1,5.1-2.5,5-5.3V5.3C356,2.5,353.7,0.1,350.9,0"/>
					</g>
				</g>
			</g>
		</g>
	</g>
	<g>
		<g>
			<path class="st18" d="M338.1,31.7v-0.5H338l-0.2,0.4l-0.2-0.4h-0.1v0.5h0.1v-0.4l0.2,0.4h0.1l0.2-0.4V31.7L338.1,31.7z
				 M337.2,31.7v-0.5h0.2v-0.1h-0.5v0.1h0.2L337.2,31.7L337.2,31.7z"/>
			<path class="st19" d="M322,34h-12.2V12H322V34z"/>
			<path class="st20" d="M310.6,23.1c0-4.5,2.1-8.4,5.3-11c-2.4-1.9-5.4-3-8.6-3c-7.7,0-14,6.3-14,14s6.3,14,14,14
				c3.3,0,6.3-1.1,8.6-3C312.7,31.5,310.6,27.5,310.6,23.1"/>
			<path class="st18" d="M338.5,23.1c0,7.7-6.3,14-14,14c-3.3,0-6.3-1.1-8.6-3c3.3-2.6,5.3-6.5,5.3-11s-2.1-8.4-5.3-11
				c2.4-1.9,5.4-3,8.6-3C332.3,9.1,338.5,15.3,338.5,23.1"/>
		</g>
		<g>
			<path d="M326.1,40.3c0.2,0,0.4,0,0.6,0.1l-0.2,0.8c-0.2-0.1-0.3-0.1-0.5-0.1c-0.5,0-0.8,0.3-0.8,0.9v2.1h-0.8v-3.7h0.8v0.5
				C325.4,40.5,325.7,40.3,326.1,40.3 M323.2,41.1h-1.4v1.7c0,0.4,0.1,0.6,0.5,0.6c0.2,0,0.5-0.1,0.7-0.2l0.2,0.7
				c-0.2,0.2-0.7,0.3-1,0.3c-0.9,0-1.3-0.5-1.3-1.4v-1.7h-0.7v-0.7h0.7v-1.1h0.8v1.1h1.3v0.7H323.2z M312.8,41.9
				c0.1-0.5,0.4-0.9,1-0.9c0.5,0,0.9,0.3,0.9,0.9H312.8z M315.6,42.2c0-1.2-0.7-1.9-1.8-1.9c-1.1,0-1.9,0.8-1.9,1.9
				c0,1.2,0.8,1.9,1.9,1.9c0.6,0,1.1-0.1,1.5-0.5l-0.4-0.6c-0.3,0.2-0.7,0.4-1.1,0.4c-0.5,0-1-0.2-1.1-0.9h2.8
				C315.6,42.4,315.6,42.3,315.6,42.2 M319.1,41.3c-0.2-0.1-0.7-0.3-1.2-0.3s-0.7,0.2-0.7,0.4s0.3,0.3,0.6,0.4h0.4
				c0.8,0.1,1.3,0.5,1.3,1.1c0,0.7-0.6,1.2-1.7,1.2c-0.6,0-1.2-0.2-1.6-0.5l0.4-0.6c0.3,0.2,0.7,0.4,1.2,0.4s0.8-0.2,0.8-0.5
				c0-0.2-0.2-0.3-0.7-0.4h-0.4c-0.8-0.1-1.3-0.5-1.3-1.1c0-0.7,0.6-1.2,1.5-1.2c0.6,0,1.1,0.1,1.5,0.4L319.1,41.3z M329.1,41
				c-0.2,0-0.3,0-0.5,0.1c-0.1,0.1-0.3,0.1-0.4,0.2c-0.1,0.1-0.2,0.2-0.2,0.4c-0.1,0.1-0.1,0.3-0.1,0.5s0,0.3,0.1,0.5
				c0.1,0.1,0.1,0.3,0.2,0.4c0.1,0.1,0.2,0.2,0.4,0.2s0.3,0.1,0.5,0.1s0.3,0,0.5-0.1c0.1-0.1,0.3-0.1,0.4-0.2
				c0.1-0.1,0.2-0.2,0.2-0.4c0.1-0.1,0.1-0.3,0.1-0.5s0-0.3-0.1-0.5c-0.1-0.1-0.1-0.3-0.2-0.4c-0.1-0.1-0.2-0.2-0.4-0.2
				S329.3,41,329.1,41 M329.1,40.3c0.3,0,0.6,0,0.8,0.2c0.2,0.1,0.5,0.2,0.6,0.4c0.2,0.2,0.3,0.4,0.4,0.6c0.1,0.2,0.2,0.5,0.2,0.8
				s0,0.5-0.2,0.8c-0.1,0.2-0.2,0.5-0.4,0.6c-0.2,0.2-0.4,0.3-0.6,0.4c-0.2,0.1-0.5,0.2-0.8,0.2s-0.6,0-0.8-0.2
				c-0.2-0.1-0.5-0.2-0.6-0.4c-0.2-0.2-0.3-0.4-0.4-0.6c-0.1-0.2-0.2-0.5-0.2-0.8s0-0.5,0.2-0.8c0.1-0.2,0.2-0.5,0.4-0.6
				c0.2-0.2,0.4-0.3,0.6-0.4C328.5,40.3,328.8,40.3,329.1,40.3 M308.1,42.2c0-0.7,0.4-1.2,1.1-1.2s1.1,0.5,1.1,1.2s-0.5,1.2-1.1,1.2
				C308.5,43.4,308.1,42.9,308.1,42.2 M311.1,42.2v-1.9h-0.8v0.5c-0.2-0.3-0.6-0.5-1.2-0.5c-1,0-1.9,0.8-1.9,1.9
				c0,1.1,0.8,1.9,1.9,1.9c0.5,0,0.9-0.2,1.2-0.5v0.5h0.8V42.2z M306.6,44.1v-2.3c0-0.9-0.6-1.5-1.5-1.5c-0.5,0-1,0.1-1.3,0.7
				c-0.2-0.4-0.7-0.7-1.2-0.7c-0.4,0-0.8,0.1-1.1,0.5v-0.5h-0.8V44h0.8v-2c0-0.6,0.4-1,0.9-1s0.8,0.3,0.8,1v2h0.8v-2
				c0-0.6,0.4-1,0.9-1s0.8,0.3,0.8,1v2L306.6,44.1L306.6,44.1z"/>
			<path d="M332,43.8L332,43.8L332,43.8c0.1,0.1,0.1,0.1,0.1,0.1l0,0l0,0C332.1,43.8,332.1,43.7,332,43.8L332,43.8L332,43.8z
				 M332.1,43.7L332.1,43.7c0.1,0,0.1,0.1,0.1,0.1s0,0,0,0.1s0,0-0.1,0l0.1,0.1h-0.1l-0.1-0.1l0,0V44h-0.1v-0.3L332.1,43.7
				L332.1,43.7z M332,44.2h0.1c0,0,0.1,0,0.1-0.1c0,0,0,0,0.1-0.1v-0.1v-0.1c0,0,0-0.1-0.1-0.1c0,0,0,0-0.1-0.1H332h-0.1
				c0,0-0.1,0-0.1,0.1c0,0,0,0.1-0.1,0.1v0.1V44c0,0,0,0.1,0.1,0.1c0,0,0.1,0,0.1,0.1C332,44.2,332,44.2,332,44.2 M332,43.5h0.1
				c0,0,0.1,0,0.1,0.1s0.1,0.1,0.1,0.1v0.1v0.1c0,0,0,0.1-0.1,0.1l-0.1,0.1H332c0,0-0.1,0-0.2,0c0,0-0.1,0-0.1-0.1l-0.1-0.1v-0.1
				v-0.1c0,0,0-0.1,0.1-0.1l0.1-0.1C331.9,43.5,332,43.5,332,43.5"/>
		</g>
	</g>
</g>
</svg>
