<?xml version="1.0" encoding="utf-8"?>
<!-- Generator: Adobe Illustrator 26.4.0, SVG Export Plug-In . SVG Version: 6.00 Build 0)  -->
<svg version="1.1" id="Layer_1" xmlns="http://www.w3.org/2000/svg" xmlns:xlink="http://www.w3.org/1999/xlink" x="0px" y="0px"
	 viewBox="0 0 80 53.3" style="enable-background:new 0 0 80 53.3;" xml:space="preserve">
<style type="text/css">
	.st0{clip-path:url(#SVGID_00000120525668305530576290000004727033334241248936_);fill:#FFFFFF;}
	.st1{fill:#00A2E5;}
	.st2{fill:#7375CF;}
	.st3{fill:#EB001B;}
</style>
<g>
	<g>
		<g>
			<g>
				<defs>
					<rect id="SVGID_1_" x="0" width="80" height="53.3"/>
				</defs>
				<clipPath id="SVGID_00000132068375541293841300000009627112611100728216_">
					<use xlink:href="#SVGID_1_"  style="overflow:visible;"/>
				</clipPath>
				
					<path id="Path_940_00000165916144632399650980000000024099574510525839_" style="clip-path:url(#SVGID_00000132068375541293841300000009627112611100728216_);fill:#FFFFFF;" d="
					M75,0H5C2.2,0.1-0.1,2.5,0,5.3V48c-0.1,2.8,2.2,5.2,5,5.3h70c2.8-0.1,5.1-2.5,5-5.3V5.3C80.1,2.5,77.8,0.1,75,0"/>
			</g>
			<g>
				<defs>
					<rect id="SVGID_00000111183278278833328300000011012135908966496191_" x="0" width="80" height="53.3"/>
				</defs>
				<clipPath id="SVGID_00000072987294373384762890000006203606112137770406_">
					<use xlink:href="#SVGID_00000111183278278833328300000011012135908966496191_"  style="overflow:visible;"/>
				</clipPath>
			</g>
			<g>
				<defs>
					<rect id="SVGID_00000040553132075023237220000003571388967311374214_" x="0" width="80" height="53.3"/>
				</defs>
				<clipPath id="SVGID_00000049182024004279308050000003423596502818529433_">
					<use xlink:href="#SVGID_00000040553132075023237220000003571388967311374214_"  style="overflow:visible;"/>
				</clipPath>
			</g>
		</g>
	</g>
</g>
<g>
	<g>
		<path class="st1" d="M62.2,31.7v-0.5h-0.1l-0.2,0.4l-0.2-0.4h-0.1v0.5h0.1v-0.4l0.2,0.4H62l0.2-0.4L62.2,31.7L62.2,31.7z
			 M61.3,31.7v-0.5h0.2v-0.1H61v0.1h0.2L61.3,31.7L61.3,31.7z"/>
		<path class="st2" d="M46.1,34H33.9v-22h12.2V34z"/>
		<path class="st3" d="M34.7,23.1c0-4.5,2.1-8.4,5.3-11c-2.4-1.9-5.4-3-8.6-3c-7.7,0-14,6.3-14,14s6.3,14,14,14c3.3,0,6.3-1.1,8.6-3
			C36.7,31.5,34.7,27.5,34.7,23.1"/>
		<path class="st1" d="M62.6,23.1c0,7.7-6.3,14-14,14c-3.3,0-6.3-1.1-8.6-3c3.3-2.6,5.3-6.5,5.3-11s-2.1-8.4-5.3-11
			c2.4-1.9,5.4-3,8.6-3C56.4,9.1,62.6,15.3,62.6,23.1"/>
	</g>
	<g>
		<path d="M50.2,40.3c0.2,0,0.4,0,0.6,0.1l-0.2,0.8C50.4,41.1,50.2,41,50,41c-0.5,0-0.8,0.3-0.8,0.9v2.1h-0.8v-3.7h0.8v0.5
			C49.5,40.5,49.8,40.3,50.2,40.3 M47.2,41.1h-1.3v1.7c0,0.4,0.1,0.6,0.5,0.6c0.2,0,0.5-0.1,0.7-0.2l0.2,0.7c-0.2,0.2-0.7,0.3-1,0.3
			c-0.9,0-1.3-0.5-1.3-1.4v-1.7h-0.7v-0.7h0.7v-1.1h0.8v1.1h1.3L47.2,41.1L47.2,41.1z M36.9,41.9c0.1-0.5,0.4-0.9,1-0.9
			c0.5,0,0.9,0.3,0.9,0.9H36.9z M39.7,42.2c0-1.2-0.7-1.9-1.8-1.9c-1.1,0-1.9,0.8-1.9,1.9c0,1.2,0.8,1.9,1.9,1.9
			c0.6,0,1.1-0.1,1.5-0.5L39.1,43c-0.3,0.2-0.7,0.4-1.1,0.4c-0.5,0-1-0.2-1.1-0.9h2.8C39.7,42.4,39.7,42.3,39.7,42.2 M43.2,41.3
			C43,41.2,42.6,41,42.1,41c-0.5,0-0.7,0.2-0.7,0.4c0,0.2,0.3,0.3,0.6,0.4l0.4,0c0.8,0.1,1.3,0.5,1.3,1.1c0,0.7-0.6,1.2-1.7,1.2
			c-0.6,0-1.2-0.2-1.6-0.5l0.4-0.6c0.3,0.2,0.7,0.4,1.2,0.4c0.5,0,0.8-0.2,0.8-0.5c0-0.2-0.2-0.3-0.7-0.4l-0.4,0
			c-0.8-0.1-1.3-0.5-1.3-1.1c0-0.7,0.6-1.2,1.5-1.2c0.6,0,1.1,0.1,1.5,0.4L43.2,41.3z M53.2,41c-0.2,0-0.3,0-0.5,0.1
			c-0.1,0.1-0.3,0.1-0.4,0.2c-0.1,0.1-0.2,0.2-0.2,0.4c-0.1,0.1-0.1,0.3-0.1,0.5c0,0.2,0,0.3,0.1,0.5c0.1,0.1,0.1,0.3,0.2,0.4
			c0.1,0.1,0.2,0.2,0.4,0.2s0.3,0.1,0.5,0.1c0.2,0,0.3,0,0.5-0.1c0.1-0.1,0.3-0.1,0.4-0.2c0.1-0.1,0.2-0.2,0.2-0.4
			c0.1-0.1,0.1-0.3,0.1-0.5c0-0.2,0-0.3-0.1-0.5c-0.1-0.1-0.1-0.3-0.2-0.4c-0.1-0.1-0.2-0.2-0.4-0.2C53.5,41.1,53.3,41,53.2,41
			 M53.2,40.3c0.3,0,0.6,0,0.8,0.2c0.2,0.1,0.5,0.2,0.6,0.4c0.2,0.2,0.3,0.4,0.4,0.6c0.1,0.2,0.2,0.5,0.2,0.8c0,0.3,0,0.5-0.2,0.8
			c-0.1,0.2-0.2,0.5-0.4,0.6c-0.2,0.2-0.4,0.3-0.6,0.4c-0.2,0.1-0.5,0.2-0.8,0.2c-0.3,0-0.6,0-0.8-0.2c-0.2-0.1-0.5-0.2-0.6-0.4
			c-0.2-0.2-0.3-0.4-0.4-0.6c-0.1-0.2-0.2-0.5-0.2-0.8c0-0.3,0-0.5,0.2-0.8c0.1-0.2,0.2-0.5,0.4-0.6c0.2-0.2,0.4-0.3,0.6-0.4
			C52.6,40.3,52.9,40.3,53.2,40.3 M32.2,42.2c0-0.7,0.4-1.2,1.1-1.2c0.7,0,1.1,0.5,1.1,1.2c0,0.7-0.5,1.2-1.1,1.2
			C32.6,43.4,32.2,42.9,32.2,42.2 M35.2,42.2v-1.9h-0.8v0.5c-0.2-0.3-0.6-0.5-1.2-0.5c-1,0-1.9,0.8-1.9,1.9c0,1.1,0.8,1.9,1.9,1.9
			c0.5,0,0.9-0.2,1.2-0.5v0.5h0.8V42.2z M30.7,44.1v-2.3c0-0.9-0.6-1.5-1.5-1.5c-0.5,0-1,0.1-1.3,0.7c-0.2-0.4-0.7-0.7-1.2-0.7
			c-0.4,0-0.8,0.1-1.1,0.5v-0.5h-0.8v3.7h0.8V42c0-0.6,0.4-1,0.9-1c0.5,0,0.8,0.3,0.8,1V44h0.8V42c0-0.6,0.4-1,0.9-1
			c0.5,0,0.8,0.3,0.8,1V44L30.7,44.1L30.7,44.1z"/>
		<path d="M56.1,43.8L56.1,43.8L56.1,43.8c0.1,0.1,0.1,0.1,0.1,0.1c0,0,0,0,0,0c0,0,0,0,0,0C56.2,43.8,56.2,43.7,56.1,43.8
			L56.1,43.8L56.1,43.8z M56.2,43.7C56.2,43.7,56.2,43.7,56.2,43.7c0.1,0,0.1,0.1,0.1,0.1c0,0,0,0,0,0.1c0,0,0,0-0.1,0l0.1,0.1h-0.1
			l-0.1-0.1h0v0.1H56v-0.3H56.2L56.2,43.7z M56.1,44.2c0,0,0.1,0,0.1,0c0,0,0.1,0,0.1-0.1c0,0,0,0,0.1-0.1c0,0,0-0.1,0-0.1
			c0,0,0-0.1,0-0.1c0,0,0-0.1-0.1-0.1c0,0,0,0-0.1-0.1c0,0-0.1,0-0.1,0c0,0-0.1,0-0.1,0c0,0-0.1,0-0.1,0.1c0,0,0,0.1-0.1,0.1
			c0,0,0,0.1,0,0.1c0,0,0,0.1,0,0.1c0,0,0,0.1,0.1,0.1c0,0,0.1,0,0.1,0.1C56.1,44.2,56.1,44.2,56.1,44.2 M56.1,43.5c0,0,0.1,0,0.1,0
			s0.1,0,0.1,0.1c0,0,0.1,0.1,0.1,0.1c0,0,0,0.1,0,0.1s0,0.1,0,0.1c0,0,0,0.1-0.1,0.1c0,0-0.1,0.1-0.1,0.1c0,0-0.1,0-0.1,0
			c0,0-0.1,0-0.2,0c0,0-0.1,0-0.1-0.1c0,0-0.1-0.1-0.1-0.1c0,0,0-0.1,0-0.1c0,0,0-0.1,0-0.1c0,0,0-0.1,0.1-0.1c0,0,0.1-0.1,0.1-0.1
			C56,43.5,56.1,43.5,56.1,43.5"/>
	</g>
</g>
</svg>
