<?xml version="1.0" encoding="utf-8"?>
<!-- Generator: Adobe Illustrator 26.4.0, SVG Export Plug-In . SVG Version: 6.00 Build 0)  -->
<svg version="1.1" id="Layer_1" xmlns="http://www.w3.org/2000/svg" xmlns:xlink="http://www.w3.org/1999/xlink" x="0px" y="0px"
	 viewBox="0 0 80 53.3" style="enable-background:new 0 0 80 53.3;" xml:space="preserve">
<style type="text/css">
	.st0{clip-path:url(#SVGID_00000078037054106111796990000018184071412824888765_);fill:#FFFFFF;}
	.st1{fill-rule:evenodd;clip-rule:evenodd;fill:#0F3182;}
	.st2{fill-rule:evenodd;clip-rule:evenodd;fill:#459BD9;}
	.st3{fill-rule:evenodd;clip-rule:evenodd;fill:#28356A;}
	.st4{fill-rule:evenodd;clip-rule:evenodd;fill:#22284F;}
</style>
<g>
	<g>
		<g>
			<g>
				<defs>
					<rect id="SVGID_1_" x="0" width="80" height="53.3"/>
				</defs>
				<clipPath id="SVGID_00000054263909995748123850000016968626797466081724_">
					<use xlink:href="#SVGID_1_"  style="overflow:visible;"/>
				</clipPath>
				
					<path id="Path_940_00000151503549862409565010000013216298696332778684_" style="clip-path:url(#SVGID_00000054263909995748123850000016968626797466081724_);fill:#FFFFFF;" d="
					M75,0H5C2.2,0.1-0.1,2.5,0,5.3V48c-0.1,2.8,2.2,5.2,5,5.3h70c2.8-0.1,5.1-2.5,5-5.3V5.3C80.1,2.5,77.8,0.1,75,0"/>
			</g>
			<g>
				<defs>
					<rect id="SVGID_00000032647885965499078130000014151679181662050432_" x="0" width="80" height="53.3"/>
				</defs>
				<clipPath id="SVGID_00000045578680807951603730000013244959743210203030_">
					<use xlink:href="#SVGID_00000032647885965499078130000014151679181662050432_"  style="overflow:visible;"/>
				</clipPath>
			</g>
			<g>
				<defs>
					<rect id="SVGID_00000003795721538401083810000006393306481753516443_" x="0" width="80" height="53.3"/>
				</defs>
				<clipPath id="SVGID_00000106120714128185354820000012933706337837499054_">
					<use xlink:href="#SVGID_00000003795721538401083810000006393306481753516443_"  style="overflow:visible;"/>
				</clipPath>
			</g>
		</g>
	</g>
	<g>
		<path id="Path_2" class="st1" d="M26.9,34.8h-2.7c-0.2,0-0.3,0.1-0.4,0.3l-1.1,6.9c0,0.1,0.1,0.2,0.2,0.3c0,0,0,0,0,0h1.3
			c0.2,0,0.3-0.1,0.4-0.3L25,40c0-0.2,0.2-0.3,0.4-0.3h0.8c1.8,0,2.8-0.9,3-2.5c0.1-0.6,0-1.2-0.3-1.7
			C28.4,34.9,27.6,34.7,26.9,34.8L26.9,34.8z M27.2,37.3c-0.1,1-0.9,1-1.6,1h-0.4l0.3-1.8c0-0.1,0.1-0.2,0.2-0.2h0.2
			c0.5,0,0.9,0,1.2,0.3C27.3,36.7,27.3,37,27.2,37.3L27.2,37.3z M34.9,37.2h-1.3c-0.1,0-0.2,0.1-0.2,0.2l-0.1,0.4l-0.1-0.1
			c-0.4-0.4-1-0.6-1.5-0.5c-1.5,0-2.7,1.1-2.9,2.6c-0.1,0.7,0,1.4,0.5,2c0.4,0.5,1,0.7,1.6,0.7c0.7,0,1.3-0.3,1.8-0.7l-0.1,0.4
			c0,0.1,0.1,0.2,0.2,0.3c0,0,0,0,0,0h1.2c0.2,0,0.3-0.1,0.4-0.3l0.7-4.4C35.2,37.4,35.1,37.3,34.9,37.2
			C35,37.2,34.9,37.2,34.9,37.2L34.9,37.2z M33.1,39.7c-0.1,0.7-0.7,1.2-1.4,1.2c-0.3,0-0.6-0.1-0.9-0.3c-0.2-0.3-0.3-0.6-0.2-0.9
			c0.1-0.7,0.7-1.2,1.4-1.2c0.3,0,0.6,0.1,0.9,0.3C33.1,39.1,33.2,39.4,33.1,39.7L33.1,39.7z M41.8,37.2h-1.3
			c-0.1,0-0.2,0.1-0.3,0.2L38.4,40l-0.8-2.5c0-0.2-0.2-0.3-0.4-0.3H36c-0.1,0-0.2,0.1-0.2,0.2c0,0,0,0,0,0.1l1.4,4.2l-1.3,1.9
			c-0.1,0.1-0.1,0.2,0,0.3c0,0,0.1,0,0.1,0h1.3c0.1,0,0.2-0.1,0.3-0.2l4.3-6.2c0.1-0.1,0-0.2-0.1-0.3C41.8,37.2,41.8,37.2,41.8,37.2
			L41.8,37.2z"/>
		<path id="Path_3" class="st2" d="M46,34.8h-2.7c-0.2,0-0.3,0.1-0.4,0.3l-1.1,6.9c0,0.1,0.1,0.2,0.2,0.3c0,0,0,0,0,0h1.4
			c0.1,0,0.2-0.1,0.3-0.2L44,40c0-0.2,0.2-0.3,0.4-0.3h0.8c1.8,0,2.8-0.9,3-2.5c0.1-0.6,0-1.2-0.3-1.7C47.4,34.9,46.7,34.7,46,34.8
			L46,34.8z M46.3,37.3c-0.1,1-0.9,1-1.6,1h-0.4l0.3-1.8c0-0.1,0.1-0.2,0.2-0.2H45c0.5,0,0.9,0,1.2,0.3C46.3,36.7,46.4,37,46.3,37.3
			L46.3,37.3z M54,37.2h-1.3c-0.1,0-0.2,0.1-0.2,0.2l-0.1,0.4l-0.1-0.1c-0.4-0.4-1-0.6-1.5-0.5c-1.5,0-2.7,1.1-2.9,2.6
			c-0.1,0.7,0,1.4,0.5,2c0.4,0.5,1,0.7,1.6,0.7c0.7,0,1.3-0.3,1.8-0.7l-0.1,0.4c0,0.1,0.1,0.2,0.2,0.3c0,0,0,0,0,0h1.2
			c0.2,0,0.3-0.1,0.4-0.3l0.7-4.4C54.3,37.4,54.2,37.3,54,37.2C54,37.2,54,37.2,54,37.2z M52.2,39.7c-0.1,0.7-0.7,1.2-1.4,1.2
			c-0.5,0.1-1-0.3-1.1-0.9c0-0.1,0-0.2,0-0.4c0.1-0.7,0.7-1.2,1.4-1.2c0.3,0,0.6,0.1,0.9,0.3C52.2,39.1,52.3,39.4,52.2,39.7
			L52.2,39.7z M55.5,34.9l-1.1,7c0,0.1,0.1,0.2,0.2,0.3c0,0,0,0,0,0h1.1c0.2,0,0.3-0.1,0.4-0.3l1.1-6.9c0-0.1-0.1-0.2-0.2-0.3
			c0,0,0,0,0,0h-1.2C55.6,34.8,55.5,34.8,55.5,34.9L55.5,34.9z"/>
		<path id="Path_4" class="st3" d="M36.5,31.4l0.4-2.5l-0.9,0h-4.2l2.9-18.5c0-0.1,0.1-0.2,0.2-0.2H42c2.4,0,4,0.5,4.8,1.5
			c0.4,0.4,0.6,0.9,0.8,1.4c0.1,0.7,0.1,1.3,0,2l0,0.1v0.5l0.4,0.2c0.3,0.2,0.6,0.4,0.8,0.6c0.4,0.4,0.6,0.9,0.7,1.5
			c0.1,0.7,0.1,1.4-0.1,2.1c-0.1,0.8-0.4,1.7-0.9,2.4c-0.3,0.6-0.8,1.1-1.4,1.5c-0.6,0.4-1.2,0.7-1.9,0.8c-0.8,0.2-1.5,0.3-2.3,0.3
			h-0.6c-0.8,0-1.5,0.6-1.6,1.4l0,0.2L40,31.1l0,0.2c0,0,0,0.1,0,0.1c0,0,0,0-0.1,0L36.5,31.4z"/>
		<path id="Path_5" class="st2" d="M48.4,15.2c0,0.1,0,0.3-0.1,0.4c-0.9,4.8-4.1,6.5-8.2,6.5H38c-0.5,0-0.9,0.4-1,0.9l-1.4,8.7
			c0,0.3,0.2,0.6,0.4,0.6c0,0,0.1,0,0.1,0h3.7c0.4,0,0.8-0.3,0.9-0.7l0-0.2l0.7-4.4l0-0.2c0.1-0.4,0.4-0.7,0.9-0.7H43
			c3.6,0,6.4-1.5,7.2-5.7c0.3-1.8,0.2-3.2-0.7-4.2C49.1,15.6,48.8,15.4,48.4,15.2L48.4,15.2z"/>
		<path id="Path_6" class="st4" d="M47.4,14.8c-0.3-0.1-0.6-0.2-0.9-0.2c-0.6-0.1-1.2-0.1-1.8-0.1h-5.6c-0.4,0-0.8,0.3-0.9,0.7
			l-1.2,7.5l0,0.2c0.1-0.5,0.5-0.9,1-0.9h2.1c4.1,0,7.3-1.7,8.2-6.5c0-0.1,0.1-0.3,0.1-0.4C48.1,15,47.8,14.9,47.4,14.8L47.4,14.8z"
			/>
		<path id="Path_7" class="st1" d="M38.3,15.2c0.1-0.4,0.4-0.8,0.9-0.7h5.6c0.6,0,1.2,0,1.8,0.1c0.3,0.1,0.6,0.1,0.9,0.2l0.2,0.1
			c0.3,0.1,0.5,0.2,0.8,0.3c0.3-1.8,0-3-1-4.1c-1.1-1.2-3-1.7-5.4-1.7H35c-0.5,0-0.9,0.4-1,0.9L31,29c-0.1,0.3,0.2,0.6,0.5,0.7
			c0,0,0.1,0,0.1,0H36C36,29.7,38.3,15.2,38.3,15.2z"/>
	</g>
</g>
</svg>
