<?xml version="1.0" encoding="utf-8"?>
<!-- Generator: Adobe Illustrator 26.4.0, SVG Export Plug-In . SVG Version: 6.00 Build 0)  -->
<svg version="1.1" id="Layer_1" xmlns="http://www.w3.org/2000/svg" xmlns:xlink="http://www.w3.org/1999/xlink" x="0px" y="0px"
	 viewBox="0 0 80 53.3" style="enable-background:new 0 0 80 53.3;" xml:space="preserve">
<style type="text/css">
	.st0{fill:#FFFFFF;}
	.st1{fill:#1334CB;}
</style>
<path id="Path_934" class="st0" d="M75,0H5C2.2,0.1-0.1,2.5,0,5.3V48c-0.1,2.8,2.2,5.2,5,5.3h70c2.8-0.1,5.1-2.5,5-5.3V5.3
	C80.1,2.5,77.8,0.1,75,0"/>
<path id="Path_935" class="st1" d="M39.7,17.6l-3.9,18.1h-4.7l3.9-18.1H39.7z M59.4,29.3l2.5-6.8l1.4,6.8H59.4z M64.6,35.7h4.3
	l-3.7-18.1h-4c-0.9,0-1.7,0.6-2,1.4l-7,16.7H57l1-2.7h6L64.6,35.7z M52.4,29.8c0-4.8-6.6-5-6.6-7.2c0-0.7,0.7-1.4,1.9-1.5
	c1.6-0.1,3.2,0.1,4.7,0.8l0.8-3.9c-1.4-0.6-2.8-0.8-4.3-0.8c-4.7,0-7.8,2.5-7.8,6c0,2.6,2.3,4.1,4.1,4.9c1.8,0.9,2.4,1.5,2.4,2.3
	c0,1.2-1.5,1.7-2.8,1.8c-1.7,0-3.3-0.3-4.8-1.1l-0.8,4c1.7,0.7,3.4,1,5.2,0.9C49.3,36,52.4,33.5,52.4,29.8 M33.1,17.6l-7.6,18.1
	h-4.9l-3.7-14.4c-0.1-0.7-0.5-1.2-1.1-1.6c-1.5-0.7-3.1-1.2-4.7-1.6l0.1-0.6h7.9c1,0,2,0.8,2.2,1.8l1.9,10.4l4.9-12.3h5V17.6z"/>
</svg>
