<svg version="1.1" id="Layer_1" xmlns="http://www.w3.org/2000/svg" xmlns:xlink="http://www.w3.org/1999/xlink" x="0" y="0" viewBox="0 0 87.06 32.88" xml:space="preserve"><style>.st0,.st1{clip-path:url(#SVGID_2_);fill:#349bbd}.st1{fill:#010202}</style><defs><path id="SVGID_1_" d="M0 0h87.06v32.88H0z"/></defs><clipPath id="SVGID_2_"><use xlink:href="#SVGID_1_" overflow="visible"/></clipPath><path class="st0" d="M10.68 2.48c.22 0 .39-.16.39-.36V.87c0-.2-.18-.36-.39-.36H1.42c-.22 0-.39.16-.39.36v11.91c0 .2.18.36.39.36h1.45c.22 0 .39-.16.39-.36V7.96h6.58c.22 0 .39-.16.39-.36V6.37c0-.2-.18-.36-.39-.36H3.27V2.48h7.41zM13.19 7.54c.05-.24.13-.47.23-.68.15-.32.35-.61.59-.84.23-.23.51-.42.81-.55.3-.13.63-.2.98-.2.41 0 .78.07 1.08.21.31.14.58.33.79.56.22.24.39.52.51.84.08.21.14.43.19.66h-5.18zm6.23-2.61a4.45 4.45 0 00-1.53-1.09c-.6-.27-1.29-.4-2.04-.4-.72 0-1.39.13-1.99.39-.6.26-1.13.61-1.57 1.06-.44.45-.78.98-1.02 1.58-.24.6-.36 1.25-.36 1.92 0 .73.14 1.4.41 2.01.27.61.65 1.14 1.11 1.57.47.43 1.02.78 1.64 1.01.62.24 1.29.36 1.99.36.97 0 1.8-.17 2.46-.49.65-.32 1.24-.75 1.75-1.28.14-.15.13-.38-.03-.51l-.88-.73a.41.41 0 00-.54.02c-.36.34-.76.63-1.2.83-.41.2-.92.3-1.52.3-.37 0-.73-.06-1.06-.17-.33-.11-.64-.28-.9-.51-.27-.22-.49-.5-.66-.83-.12-.22-.21-.47-.27-.74h7.07c.19 0 .36-.13.39-.31.02-.1.02-.19.02-.27v-.19c0-.68-.11-1.33-.31-1.93-.24-.61-.55-1.15-.96-1.6"/><path class="st0" d="M22.98 7.54c.06-.24.13-.47.23-.68.15-.32.35-.61.59-.84.23-.23.51-.42.81-.55.3-.13.63-.2.98-.2.41 0 .78.07 1.08.21.31.14.58.33.79.57.22.24.39.52.51.84.08.21.14.43.19.66h-5.18zm6.23-2.61c-.42-.46-.93-.82-1.53-1.09-.6-.27-1.29-.4-2.05-.4-.72 0-1.39.13-1.99.39-.6.26-1.13.61-1.57 1.06-.44.45-.78.98-1.02 1.58-.24.6-.36 1.25-.36 1.92 0 .73.14 1.4.41 2.01.27.61.65 1.14 1.11 1.57.47.43 1.02.78 1.64 1.01.62.24 1.29.36 1.99.36.97 0 1.8-.17 2.46-.49.65-.32 1.24-.75 1.75-1.28.14-.15.13-.38-.03-.51l-.88-.73a.41.41 0 00-.54.02c-.36.34-.76.63-1.2.83-.41.2-.92.3-1.52.3-.37 0-.73-.06-1.06-.17-.33-.11-.64-.28-.91-.51-.27-.22-.49-.5-.66-.83-.12-.22-.21-.47-.27-.74h7.07c.19 0 .36-.13.39-.31.02-.1.02-.19.02-.27v-.19c0-.68-.11-1.33-.31-1.93-.22-.61-.53-1.15-.94-1.6M32.99 0h-1.42c-.22 0-.39.16-.39.36v12.42c0 .2.17.36.39.36h1.42c.22 0 .39-.16.39-.36V.36c0-.2-.17-.36-.39-.36M46.89 7.95c0 .4-.08.76-.25 1.07-.17.32-.4.6-.69.83-.29.23-.62.41-.99.54-.73.25-1.58.26-2.29 0-.35-.12-.66-.3-.92-.54a2.51 2.51 0 01-.86-1.92c0-.4.08-.77.23-1.09.15-.32.36-.6.62-.82.26-.23.57-.4.92-.52.35-.12.74-.18 1.14-.18.4 0 .8.06 1.17.19.37.13.7.31.99.54.28.23.51.51.69.83.16.31.24.68.24 1.07m1.75-4.33h-1.42c-.22 0-.39.16-.39.36v.64c-.27-.23-.57-.44-.89-.61-.33-.17-.7-.31-1.1-.42-.93-.24-2.09-.21-3.13.16-.58.21-1.11.51-1.56.9-.45.39-.82.87-1.09 1.43-.27.56-.41 1.2-.41 1.89 0 .7.14 1.33.41 1.89.27.55.64 1.03 1.09 1.42.45.39.97.69 1.55.89.58.2 1.18.31 1.8.31.94 0 1.76-.2 2.42-.6a7 7 0 00.92-.67v.09c0 .93-.26 1.61-.81 2.07-.55.46-1.31.7-2.26.7-.64 0-1.25-.09-1.8-.27-.56-.18-1.11-.45-1.63-.79a.419.419 0 00-.57.11l-.64 1.02c-.1.16-.05.37.11.48.67.43 1.39.75 2.15.97.76.21 1.56.32 2.4.32.77 0 1.49-.1 2.12-.29.65-.2 1.21-.49 1.67-.88.47-.39.83-.89 1.08-1.47.24-.57.37-1.25.37-2V3.99c.01-.2-.17-.37-.39-.37M58.19 8.4c0 .43-.08.83-.23 1.2-.15.37-.37.69-.64.96s-.6.48-.98.64c-.74.3-1.73.32-2.49-.01a3.21 3.21 0 01-.99-.65c-.28-.27-.5-.6-.66-.97-.16-.37-.24-.78-.24-1.21 0-.43.08-.83.23-1.2.15-.37.37-.7.63-.98.26-.27.58-.49.96-.64.38-.15.8-.23 1.26-.23.44 0 .86.08 1.24.24a3.111 3.111 0 011.67 1.64c.16.38.24.78.24 1.21m.72-3.5c-.47-.44-1.04-.8-1.7-1.06-.65-.26-1.37-.4-2.13-.4-.77 0-1.5.13-2.15.4-.65.26-1.22.62-1.7 1.07-.47.45-.85.99-1.11 1.59-.26.6-.4 1.25-.4 1.91 0 .67.13 1.31.4 1.91.26.6.64 1.13 1.11 1.57.48.45 1.04.8 1.69 1.06.65.26 1.36.4 2.13.4.76 0 1.48-.13 2.14-.4.66-.26 1.23-.62 1.71-1.07.47-.45.85-.98 1.12-1.59.27-.6.41-1.25.41-1.92 0-.67-.13-1.31-.4-1.91-.27-.59-.64-1.12-1.12-1.56M68.97 8.4c0 .43-.08.83-.23 1.2-.15.37-.37.69-.64.96s-.6.48-.98.64c-.74.3-1.73.32-2.49-.01a3.21 3.21 0 01-.99-.65c-.28-.27-.5-.6-.66-.97-.16-.37-.24-.78-.24-1.21 0-.43.08-.83.23-1.2.15-.37.37-.7.63-.98.26-.27.58-.49.96-.64.38-.15.8-.23 1.26-.23.44 0 .86.08 1.24.24a3.111 3.111 0 011.67 1.64c.16.38.24.78.24 1.21m.72-3.5c-.47-.44-1.04-.8-1.7-1.06-.65-.26-1.37-.4-2.13-.4-.77 0-1.5.13-2.15.4-.65.26-1.22.62-1.7 1.07-.47.45-.85.99-1.11 1.59-.26.6-.4 1.25-.4 1.91 0 .67.13 1.31.4 1.91.26.6.64 1.13 1.11 1.57.48.45 1.04.8 1.69 1.06.65.26 1.36.4 2.13.4.76 0 1.48-.13 2.14-.4.66-.26 1.23-.62 1.71-1.07.47-.45.85-.98 1.12-1.59.27-.6.41-1.25.41-1.92 0-.67-.13-1.31-.4-1.91-.27-.59-.64-1.12-1.12-1.56M79.56 8.38c0 .46-.09.88-.25 1.26-.17.38-.4.7-.68.95-.29.26-.62.47-.99.61-.73.29-1.56.28-2.26.01-.35-.14-.67-.34-.93-.6a2.96 2.96 0 01-.65-.96c-.16-.37-.24-.8-.24-1.27 0-.48.08-.92.24-1.3.16-.38.37-.69.63-.95.26-.25.57-.44.92-.58.36-.13.75-.2 1.16-.2.39 0 .76.07 1.12.22.36.15.7.35.99.61.29.26.52.58.69.95.17.37.25.79.25 1.25M81.32 0H79.9c-.22 0-.39.16-.39.36v4.31c-.25-.23-.53-.44-.84-.61-.32-.19-.69-.34-1.09-.45-.4-.11-.85-.17-1.33-.17-.63 0-1.24.11-1.83.34-.58.23-1.11.56-1.58.98-.46.42-.84.95-1.12 1.56-.28.61-.42 1.31-.42 2.08s.14 1.47.42 2.08c.28.61.65 1.13 1.12 1.56.46.42 1 .75 1.58.97.58.22 1.2.33 1.82.33.48 0 .92-.06 1.32-.17.4-.11.76-.27 1.09-.47.31-.19.59-.41.85-.66v.75c0 .2.18.36.39.36h1.42c.22 0 .39-.16.39-.36V.36c.01-.2-.17-.36-.38-.36M84.9 10.63h-1.69c-.22 0-.39.16-.39.36v1.79c0 .2.18.36.39.36h.26c-.02.12-.07.22-.15.31-.15.18-.43.34-.82.47-.2.07-.3.27-.23.46l.22.6c.06.15.21.24.37.24.03 0 .06 0 .09-.01.78-.16 1.37-.46 1.76-.87.39-.42.59-1.03.59-1.81V11a.396.396 0 00-.4-.37"/><path class="st1" d="M73.68 17.01h-1.42c-.22 0-.39.16-.39.36V29.8c0 .2.18.36.39.36h1.42c.22 0 .39-.16.39-.36V17.38c0-.2-.17-.37-.39-.37M77.42 17.01H76c-.22 0-.39.16-.39.36V29.8c0 .2.18.36.39.36h1.42c.22 0 .39-.16.39-.36V17.38c0-.2-.18-.37-.39-.37M81.13 27.65h-1.69c-.22 0-.39.16-.39.36v1.79c0 .2.18.36.39.36h1.69c.22 0 .39-.16.39-.36v-1.79c0-.2-.17-.36-.39-.36M6.97 25.3c-.32-.21-.68-.38-1.07-.52-.37-.13-.74-.24-1.12-.35-.32-.09-.62-.18-.91-.27-.27-.08-.51-.18-.72-.28-.18-.09-.32-.19-.43-.31-.08-.09-.11-.19-.11-.34 0-.25.11-.45.35-.63.26-.19.63-.29 1.1-.29.42 0 .86.07 1.3.21.45.14.89.34 1.31.58.09.05.2.07.3.05.1-.02.19-.08.25-.17l.63-.98c.11-.17.06-.38-.12-.49-.52-.31-1.1-.56-1.73-.75-1.15-.34-2.35-.38-3.32-.08-.44.13-.83.33-1.16.58-.33.25-.59.57-.78.92-.18.36-.28.76-.28 1.22 0 .48.12.89.35 1.22.22.32.51.58.85.79.33.2.7.36 1.1.49.38.12.76.23 1.14.34.3.08.59.16.87.25.26.08.5.18.69.28.17.09.31.2.41.32.08.1.12.21.12.38 0 .32-.12.55-.39.73-.3.2-.7.31-1.18.31-.52 0-1.04-.09-1.55-.27-.52-.18-1.03-.44-1.51-.78a.389.389 0 00-.3-.07c-.1.01-.2.07-.26.15l-.72.94c-.12.16-.09.37.08.49.57.42 1.23.76 1.97 1s1.48.37 2.21.37c.52 0 1.01-.07 1.45-.19.46-.13.86-.33 1.2-.58.34-.26.62-.58.82-.94.19-.39.3-.83.3-1.33 0-.46-.11-.86-.32-1.19-.21-.32-.49-.59-.82-.81M10.79 17.01H9.37c-.22 0-.39.16-.39.36V29.8c0 .2.18.36.39.36h1.42c.22 0 .39-.16.39-.36V17.38c0-.2-.18-.37-.39-.37M14.3 24.55c.05-.24.13-.47.23-.68.15-.32.35-.61.59-.84.23-.23.51-.42.81-.55.3-.13.63-.2.99-.2.41 0 .77.07 1.08.21.31.14.58.33.79.57.22.24.39.52.51.84.08.21.14.43.19.66H14.3zm6.22-2.61c-.42-.46-.93-.82-1.53-1.09-.6-.27-1.29-.4-2.05-.4-.72 0-1.39.13-1.99.39-.6.26-1.13.62-1.57 1.06-.44.45-.78.98-1.02 1.58-.24.6-.36 1.24-.36 1.92 0 .73.14 1.4.41 2.01.27.61.65 1.14 1.11 1.57.47.44 1.02.78 1.64 1.02.62.24 1.29.36 1.99.36.97 0 1.8-.17 2.46-.49.65-.32 1.24-.75 1.75-1.28.14-.15.13-.38-.03-.51l-.88-.73a.41.41 0 00-.54.02c-.36.34-.76.63-1.2.83-.41.2-.92.3-1.52.3-.37 0-.73-.06-1.06-.17-.33-.11-.64-.28-.9-.51-.27-.22-.49-.5-.67-.83a2.77 2.77 0 01-.27-.75h7.07c.19 0 .36-.13.39-.31.02-.1.02-.19.02-.27v-.19c0-.68-.11-1.33-.31-1.93-.21-.61-.53-1.14-.94-1.6M24.08 24.55c.05-.24.13-.47.23-.68.15-.32.35-.61.59-.84.23-.23.51-.42.81-.55.3-.13.63-.2.99-.2.41 0 .77.07 1.08.21.31.14.58.33.79.57.22.24.39.52.51.84.08.21.14.43.19.66h-5.19zm6.23-2.61c-.42-.46-.93-.82-1.53-1.09-.6-.27-1.29-.4-2.05-.4-.72 0-1.39.13-1.99.39-.6.26-1.13.62-1.57 1.06-.44.45-.78.98-1.02 1.58-.24.6-.36 1.24-.36 1.92 0 .73.14 1.4.41 2.01.27.61.65 1.14 1.11 1.57.47.44 1.02.78 1.64 1.02.62.24 1.29.36 1.99.36.97 0 1.8-.17 2.47-.49.65-.32 1.24-.75 1.75-1.28.14-.15.13-.38-.03-.51l-.88-.73a.41.41 0 00-.54.02c-.36.34-.76.63-1.2.83-.41.2-.92.3-1.52.3-.37 0-.73-.06-1.06-.17-.33-.11-.64-.28-.9-.51-.27-.22-.49-.5-.67-.83a2.77 2.77 0 01-.27-.75h7.07c.19 0 .36-.13.39-.31.02-.1.02-.19.02-.27v-.19c0-.68-.11-1.33-.31-1.93-.23-.6-.54-1.14-.95-1.6M40.07 26.71c-.16.38-.37.69-.63.95-.26.25-.57.44-.93.58-.71.26-1.54.28-2.27-.01-.37-.15-.7-.35-.99-.61-.29-.26-.52-.58-.69-.96-.17-.38-.25-.8-.25-1.26 0-.46.08-.88.25-1.25.17-.37.4-.69.69-.95.29-.26.62-.47.99-.61.36-.14.74-.22 1.12-.22.4 0 .78.07 1.14.21.35.14.67.34.94.6.27.26.49.59.65.96.16.38.24.8.24 1.27-.02.48-.11.92-.26 1.3m.94-4.95c-.47-.42-1-.75-1.59-.97a5.17 5.17 0 00-1.81-.33c-.48 0-.93.06-1.33.18-.39.12-.75.27-1.08.47-.31.19-.6.41-.85.65V21c0-.2-.18-.36-.39-.36h-1.42c-.22 0-.39.16-.39.36v11.52c0 .2.17.36.39.36h1.42c.22 0 .39-.16.39-.36v-3.41c.25.23.53.44.84.61.32.19.69.34 1.09.45.4.11.85.17 1.33.17a5.053 5.053 0 003.41-1.32c.46-.42.83-.94 1.1-1.55.28-.61.42-1.31.42-2.08s-.14-1.47-.42-2.08c-.27-.61-.65-1.13-1.11-1.55M61.88 20.79a.409.409 0 00-.32-.15h-1.47c-.17 0-.32.1-.37.25l-2.13 6.02-2.2-6.06a.383.383 0 00-.37-.25h-1.18c-.17 0-.32.1-.37.25l-2.18 6.06-2.13-6.02a.383.383 0 00-.37-.25h-1.51c-.13 0-.25.06-.32.15-.07.1-.09.22-.05.33l3.33 8.86c.06.15.2.24.37.24h1.25c.17 0 .31-.1.37-.24l2.2-5.94 2.19 5.94c.05.15.2.25.37.25h1.23c.17 0 .31-.1.37-.24l3.35-8.86c.03-.12.01-.24-.06-.34M63.67 24.55c.05-.24.13-.47.23-.68.15-.32.35-.61.59-.84.23-.23.51-.42.81-.55.3-.13.63-.2.98-.2.41 0 .78.07 1.08.21.31.14.58.33.79.57.22.24.39.52.51.84.08.21.14.43.19.66h-5.18zm6.23-2.61c-.42-.46-.93-.82-1.53-1.09-.6-.27-1.29-.4-2.04-.4-.72 0-1.39.13-1.99.39-.6.26-1.13.62-1.57 1.06-.44.45-.78.98-1.02 1.58-.24.6-.36 1.24-.36 1.92 0 .73.14 1.4.41 2.01.27.61.65 1.14 1.11 1.57.47.44 1.02.78 1.64 1.02.62.24 1.29.36 1.99.36.97 0 1.8-.17 2.46-.49.65-.32 1.24-.75 1.75-1.28.14-.15.13-.38-.03-.51l-.88-.73a.41.41 0 00-.54.02c-.36.34-.76.63-1.2.83-.41.2-.93.3-1.52.3-.37 0-.72-.06-1.06-.17-.33-.11-.64-.28-.9-.51-.27-.22-.49-.5-.67-.83a2.77 2.77 0 01-.27-.75h7.07c.19 0 .36-.13.39-.31.01-.1.02-.19.02-.27v-.19c0-.68-.11-1.33-.31-1.93-.23-.6-.54-1.14-.95-1.6M84.18 27.65h-2.01c-.04 0-.08.03-.08.07v.25c0 .04.03.07.08.07h.78v2.05c0 .04.03.07.08.07h.29c.04 0 .08-.03.08-.07v-2.05h.78c.04 0 .08-.03.08-.07v-.25c0-.04-.03-.07-.08-.07M86.99 27.65h-.29c-.02 0-.05.01-.06.03l-.87 1.2-.87-1.2c-.01-.02-.04-.03-.06-.03h-.29c-.04 0-.08.03-.08.07v2.37c0 .04.03.07.08.07h.28c.04 0 .08-.03.08-.07V28.4l.79 1.08c.01.02.04.03.06.03h.02c.02 0 .05-.01.06-.03l.79-1.08v1.69c0 .04.03.07.08.07H87c.04 0 .08-.03.08-.07v-2.37c-.02-.04-.05-.07-.09-.07"/></svg>