<svg id="Group_1131" data-name="Group 1131" xmlns="http://www.w3.org/2000/svg" xmlns:xlink="http://www.w3.org/1999/xlink" width="10.273" height="6.14" viewBox="0 0 10.273 6.14">
  <defs>
    <clipPath id="clip-path">
      <rect id="Rectangle_1" data-name="Rectangle 1" width="10.273" height="6.14" fill="#007bfc"/>
    </clipPath>
  </defs>
  <g id="Group_1" data-name="Group 1" clip-path="url(#clip-path)">
    <path id="Path_1" data-name="Path 1" d="M.307,1.7A.987.987,0,0,1,.288.292.972.972,0,0,1,.612.075.985.985,0,0,1,1.7.307L4.976,3.593a.249.249,0,0,0,.271.054.23.23,0,0,0,.081-.054L8.608.307a.988.988,0,0,1,1.65.885,1.047,1.047,0,0,1-.314.539l-4.087,4.1a1.013,1.013,0,0,1-.538.3A.973.973,0,0,1,4.846,6.1a.99.99,0,0,1-.405-.243Z" transform="translate(0 -0.001)" fill="#007bfc"/>
  </g>
</svg>
