<svg version="1.1" id="Layer_1" xmlns="http://www.w3.org/2000/svg" x="0" y="0" viewBox="0 0 67.8 57.9" style="enable-background:new 0 0 67.8 57.9" xml:space="preserve"><style>.st0{fill:#fff}</style><path class="st0" d="M15.1 20.2c-.3.4-1.3 1.9-1.2 4.3 0 .4.4.6.9.5 1.2-.2 2.4-.9 3.2-1.8.9-1 1-2.9-.8-3.3-.9-.2-1.4-.1-1.9.2-.1 0-.1.1-.2.1zM9.7 23.7c-.2 1 .6 1.7 2 1.7.4 0 .9-.3.9-.7.1-1 .4-2.4 1.2-3.9-.2-.1-3.6.5-4.1 2.9zM8.5 22.7c.2-.7.6-1.2 1.2-1.7-1-.6-2.1-1.5-3-2.9 0 0 1.8 1.3 4.5 1.9.8-.4 1.6-.6 2.1-.6-.5-2.9-1.8-4.6-1.8-4.6 1.7 1.1 2.6 2.6 3.1 4.1h.1c.4-.2 1-.5 1.8-.5h.1c0-1.3-.1-2.5-.2-3-.4-2.6-2.5-6.9-3.6-6.8-1.2.1-1.1 2.7-2.2 2.8-1 .1-3.7-1.7-5.2-.3-1.6 1.4.4 3.5-.1 4.8-.5 1.4-5.1 1.4-3.9 3.5.6 1.1 4.3 2.4 7.1 3.3zM50.4 19.3c.5.1 1-.1 1-.6.2-2.7-1-4.5-1.4-5 0-.1-.1-.1-.2-.1-.6-.3-1.2-.5-2.3-.2-2.1.5-2.1 2.7-1 3.9 1.1.9 2.5 1.7 3.9 2zM51.7 14.5c.9 1.8 1.3 3.4 1.4 4.6.1.4.5.8 1.1.8 1.6 0 2.5-.8 2.3-2-.6-3-4.6-3.6-4.8-3.4zM65.7 35.8c-3.3-8.7-9-11.8-10.1-14.4-.4.1-.9.2-1.5.2-.3 0-.7-.1-1-.2 1 2.2 2.1 6 .1 9.7 0 0 .6-4.9-2.8-10.1H50c-.6-.1-1.1-.3-1.7-.5-6.8 3.5-10.4 10.7-10.4 10.7 1.9-7 5.9-10.6 8.3-12.1-.3-.2-.6-.5-.8-.7l-.6-.9c-6.4 3.1-16.5 8.8-20.3 15.7-5.8 10.6-2.3 16.8-1 18.8s3.6 5.9 8.1 5.9c2.9 0 4.1-.3 5.2-.6-1.9-1.4-4.9-4.5-4.7-9 0 0 2.2 6.4 10.1 9.4.7.1 1.8.3 3.3.3 2.1 0 4.1-.9 5.6-2.4 4.6-4.8 5.1-10 5.1-10 1.5 5.3-1.6 9.7-3.1 11.4 1.3.2 1.6.4 4.5.4 3.6 0 7.7-2.1 9.2-6.6 1.3-3.5 1.7-7.6-1.1-15zM23.1 29.5c.7-1 1.6-2 2.5-3-2.1-1.2-4.2-2.3-5.9-3.1-.1.3-.3.5-.5.8-.2.2-.4.4-.7.6 1.2.8 3 2.3 4.6 4.7z"/><path class="st0" d="m20.9 53.8-.1-.1c-5-7.9-2.3-16.3.9-22 .2-.4.4-.7.7-1.1-1.5-1.6-3.4-3.4-5.8-4.6-.5.2-.9.4-1.4.5h-.3c-2.9 4.4-2.4 8.6-2.4 8.6-1.7-3.2-.8-6.4.1-8.3-.3.1-.5.1-.8.1-.4 0-.9-.1-1.2-.2C9.5 29 4.7 31.6 1.8 39c-2.4 6.3-2 9.9-1 12.7 1.3 3.8 4.8 5.6 7.9 5.6 2.5 0 2.7-.2 3.8-.4-1.3-1.4-3.9-5.1-2.6-9.7 0 0 .4 4.5 4.3 8.5 1.3 1.3 3 2 4.8 2 1.3 0 2.2-.1 2.8-.2.5-.2 1-.4 1.4-.6-1-1-1.7-2.2-2.3-3.1zM50.7 12c0 .1 0 .1 0 0 .6-1.6 1.7-3.5 3.7-4.7 0 0-1.5 2-2.1 5.4.7.1 1.6.3 2.5.7 3.1-.7 5.2-2.3 5.2-2.3-1.1 1.7-2.3 2.7-3.5 3.4.6.5 1.1 1.2 1.4 2 3.3-1.1 7.6-2.6 8.5-4.1 1.4-2.5-3.9-2.5-4.5-4.1s1.7-4-.2-5.7c-1.8-1.7-4.9.5-6.1.4S54.3.2 53 0c-1.4-.2-3.8 4.9-4.3 7.9-.1.6-.3 2.1-.3 3.6h.2c.9 0 1.6.3 2.1.5z"/></svg>