<svg xmlns="http://www.w3.org/2000/svg" viewBox="0 0 44 59" style="enable-background:new 0 0 44 59" xml:space="preserve"><path d="M22 0C9.8 0 0 9.8 0 22c0 15.1 15.2 31.8 20.8 36.6.7.6 1.7.6 2.4 0C28.7 53.8 44 37.1 44 22 44 9.8 34.2 0 22 0zm1.8 8.6c4.4 0 4.6.5 5.5 1.7l1.7 2.8 2.1-1.1-3.3 5.7-7.2-.3 2.1-1.1-3.2-5.7c-.6-1.1-1.7-1.8-2.9-2h5.2zM7.6 18l6.8-.1 3.3 6.2-2-1.2-2.7 4.2h-1.3c-2.9 0-5.5-2.1-3.9-5.1l1.7-2.8L7.6 18zm12.9 16.6h-6c-1.3-.1-2.4-.8-3-1.9C10.6 31 7.8 26 7.8 26c.8 1 2 1.5 3.2 1.5 3.9.1 9.5 0 9.5 0v7.1zm-1.9-16.2-6.1-3.5 2.4-4.1c1.5-2.4 4.2-2.5 6 .5L22 13l-3.4 5.4zm14.9 12.3c-2.2 3.7-2.7 3.6-4.3 3.8h-3.4l-.1 2.3-3.4-5.6 3.9-5.9v2.3h6.7c1.2.1 2.4-.4 3.2-1.3l-2.6 4.4zm-.9-3.6h-2.1l-3.1-5.6 6.2-3.3 2.4 4.1c1.5 2.4.2 4.7-3.4 4.8z" style="fill:#fffffd"/></svg>