<?xml version="1.0" encoding="utf-8"?>
<!-- Generator: Adobe Illustrator 25.4.1, SVG Export Plug-In . SVG Version: 6.00 Build 0)  -->
<svg version="1.1" id="Layer_1" xmlns="http://www.w3.org/2000/svg" xmlns:xlink="http://www.w3.org/1999/xlink" x="0px" y="0px"
	 viewBox="0 0 127.2 127.2" style="enable-background:new 0 0 127.2 127.2;" xml:space="preserve">
<style type="text/css">
	.st0{fill:#3BAED4;}
	.st1{fill:#FFFFFF;}
</style>
<circle class="st0" cx="63.6" cy="63.6" r="63.6"/>
<path class="st1" d="M39.8,67.9c-0.6,0-1-0.4-1-1c0-14.3,11.6-25.8,25.9-25.8c0.6,0,1,0.4,1,1s-0.4,1-1,1
	c-13.2,0-23.8,10.7-23.9,23.8C40.8,67.5,40.3,67.9,39.8,67.9"/>
<path class="st1" d="M35,68.3c-0.6,0-1-0.4-1-1c0-17.2,14-31.1,31.2-31.1c0.6,0,1,0.4,1,1s-0.4,1-1,1c-16.1,0-29.1,13-29.2,29.1
	C36,67.9,35.6,68.3,35,68.3"/>
<path class="st1" d="M91.1,25.1h-55c-6.1,0-11.1,5-11.1,11.1v54.9c0,6.1,5,11.1,11.1,11.1h55v0c6.1,0,11.1-5,11.1-11.1V36.2
	C102.2,30.1,97.2,25.1,91.1,25.1z M26.9,91.1V36.2c0-5.1,4.1-9.2,9.2-9.2h55c5.1,0,9.2,4.1,9.2,9.2V85c-0.8-0.6-1.6-1.1-2.5-1.5
	c-0.6-0.3-1.2-0.7-1.8-1.1c-0.4-0.3-0.8-0.6-1.3-0.9c-1.9-1.3-4.1-2.8-4.9-5c-1-2.6-2.4-13.5-2.9-17.6c-0.1-0.9-0.2-1.6-0.2-1.8
	c-0.2-1.6-1.4-2.8-2.9-3.1c-1.2-0.1-1.9,0.6-2.3,2.2c-0.2,1.5-0.2,3-0.2,4.5c0,1.9,0,5-0.2,6.8c-1.4-2.7-3.8-9.3-5.1-12.8
	c-1.1-3.1-1.7-4.6-2-5.1c-0.4-1-1.3-1.8-2.4-2.2c-0.5-0.2-1.2-0.2-1.6,0.1c-0.6,0.5-1,1.2-1.1,2c-0.2,1.2,0.7,4.6,2.5,10.7l0.2,0.8
	c0.6,2.1,1.1,4.3,1.4,6.5c-2.1-3-6.2-9.7-8.2-12.9c-1.5-2.4-2.1-3.5-2.3-3.7c-1.3-1.7-2.8-2.6-4-2.3c-0.7,0.1-1.4,0.5-1.8,1.1
	c-0.4,0.7-0.5,1.6-0.2,2.3c0.5,1.6,3.2,6.5,6.7,12.8c1.4,2.6,2.7,4.8,3.2,5.9c0.2,0.3,0.3,0.6,0.4,0.9c-0.1,0-0.2-0.1-0.3-0.1
	l-5.2-3.7c-2.9-2.1-6.2-4.5-7.3-5.3c-2.3-1.6-4.5-2-5.6-1c-1.2,1.2-1.2,3.1-0.2,4.4c1.1,1.6,15.1,13.6,16.5,14.5
	c1.3,0.9,4.4,5.4,4.1,6.3c0,0-0.4,0.2-1.8-0.2c-7-2.2-10.2-1.1-12.8,0.2c-0.8,0.4-1.5,1.1-1.8,2c-0.3,1.3-0.1,2.6,0.7,3.6
	c0.3,0.5,0.6,1.2,27.1,7c0.8,0.2,1.7,0.4,2.5,0.8c0.1,0,0.1,0.1,0.2,0.1H36.1C31,100.3,26.9,96.2,26.9,91.1z M91.1,100.3h-2.5
	c-1.9-0.6-3.7-1.4-5.5-2.2c-0.8-0.3-1.6-0.5-2.4-0.7c-9.1-2-23.8-5.4-25.9-6.2c-0.3-0.6-0.5-1.2-0.4-1.9c0.1-0.4,0.4-0.6,0.8-0.8
	c1.9-0.9,4.5-2.2,11.3-0.1c2.2,0.7,3.5,0.5,4.1-0.7c1.2-2.5-3.5-8.1-4.7-8.9c-1.7-1.2-15.1-12.8-15.9-14c-0.6-0.9-0.4-1.6-0.2-1.8
	c0.2-0.2,1.4-0.1,3.1,1.2l7.3,5.3l5.2,3.8c0.5,0.3,2,1,3,0.2c1.1-1,0.2-2.8-0.2-3.5c-0.6-1.2-1.8-3.4-3.3-6
	c-2.5-4.6-6-10.9-6.5-12.4c-0.1-0.2-0.1-0.5,0-0.8c0.1-0.1,0.3-0.2,0.5-0.2c0.2,0,1,0.2,2,1.6c0.2,0.2,1.2,1.8,2.2,3.6
	c8.8,14.3,9.5,15,10.4,15.1c0.4,0.1,0.9-0.1,1.1-0.4c1.3-1.5-0.9-9.1-1.1-10l-0.2-0.8c-0.8-2.9-2.6-8.8-2.5-9.8
	c0-0.2,0.1-0.3,0.1-0.5c0.4,0.1,0.7,0.2,1.3,1.3c0.2,0.3,1,2.6,1.8,4.8c5.1,13.8,6,15.1,7.2,15c1.8,0,1.9-2.5,1.9-9.8
	c0-1.3,0-2.7,0.1-4c0.1-0.3,0.1-0.5,0.3-0.7c0.6,0.3,1,0.8,1.1,1.4c0,0.3,0.1,0.9,0.2,1.8c0.6,4.6,2,15.2,3,18s3.6,4.6,5.6,6
	c0.4,0.3,0.8,0.6,1.2,0.9c0.7,0.5,1.3,0.9,2.1,1.2c1.4,0.8,3.2,1.8,3.5,2.9v3.1C100.3,96.2,96.2,100.3,91.1,100.3z"/>
</svg>
