<?xml version="1.0" encoding="utf-8"?>
<!-- Generator: Adobe Illustrator 25.4.1, SVG Export Plug-In . SVG Version: 6.00 Build 0)  -->
<svg version="1.1" id="Layer_1" xmlns="http://www.w3.org/2000/svg" xmlns:xlink="http://www.w3.org/1999/xlink" x="0px" y="0px"
	 viewBox="0 0 409.5 154.1" style="enable-background:new 0 0 409.5 154.1;" xml:space="preserve">
<style type="text/css">
	.st0{clip-path:url(#SVGID_00000160169749439889863670000010757375168196662420_);fill:#86878C;}
	.st1{fill:#86878C;}
	.st2{clip-path:url(#SVGID_00000082364530642137850480000014488015034922162857_);fill:#86878C;}
	.st3{clip-path:url(#SVGID_00000039815217946036459210000002564368142476641945_);fill:#86878C;}
	.st4{clip-path:url(#SVGID_00000070083643355349075480000014896687239238225338_);fill:#86878C;}
	.st5{clip-path:url(#SVGID_00000047768757673733220970000000023555942214640039_);fill:#86878C;}
	.st6{clip-path:url(#SVGID_00000059268432614013455390000008226069830718379408_);fill:#86878C;}
	.st7{clip-path:url(#SVGID_00000086671708926179011170000005298161088929618611_);fill:#86878C;}
	.st8{clip-path:url(#SVGID_00000128470144740777306510000000991727646253580163_);fill:#86878C;}
	.st9{fill:#67B9E8;}
	.st10{clip-path:url(#SVGID_00000106859417008734414430000005231868355943738033_);fill:#67B9E8;}
</style>
<g>
	<defs>
		<rect id="SVGID_1_" width="409.5" height="154.1"/>
	</defs>
	<clipPath id="SVGID_00000061442045729616928990000003356479210095517113_">
		<use xlink:href="#SVGID_1_"  style="overflow:visible;"/>
	</clipPath>
	<path style="clip-path:url(#SVGID_00000061442045729616928990000003356479210095517113_);fill:#86878C;" d="M175.9,110.8
		c1.5,0,2.7-0.1,3.8-1.3c0.8-0.8,1.2-1.9,1.1-3c0.1-1.2-0.5-2.4-1.6-3.1c-0.9-0.6-2-0.8-3.1-0.7h-5.6v8.1L175.9,110.8z M181,122.9
		l-4.1-9.8h-6.2v9.8h-2.8v-22.6h8.3c1.8-0.1,3.6,0.4,5.1,1.4c1.5,1.2,2.4,3.1,2.4,5c0.1,2.7-1.6,5-4.1,5.8l4.4,10.5L181,122.9z"/>
</g>
<polygon class="st1" points="207,122.9 192.6,122.9 192.6,100.3 206.6,100.3 206.6,102.7 195.4,102.7 195.4,109.9 204.3,109.9 
	204.3,112.2 195.4,112.2 195.4,120.5 207,120.5 "/>
<g>
	<defs>
		<rect id="SVGID_00000098931252949516628160000008328579049141469572_" width="409.5" height="154.1"/>
	</defs>
	<clipPath id="SVGID_00000110436977667711782690000014882261466946847132_">
		<use xlink:href="#SVGID_00000098931252949516628160000008328579049141469572_"  style="overflow:visible;"/>
	</clipPath>
	<path style="clip-path:url(#SVGID_00000110436977667711782690000014882261466946847132_);fill:#86878C;" d="M231.8,123.1h-1.7
		l-0.8-2.8c-1.4,2-3.7,3.1-6.2,3c-2.8,0.1-5.4-1.2-6.9-3.5c-1.6-2.3-2.4-5.1-2.3-7.9c0-5.9,3-11.9,9.6-11.9c4.2,0,7,2.4,8,6.5
		l-2.6,0.7c-0.4-2.8-2.8-4.8-5.6-4.8c-5,0-6.4,5.2-6.4,9.4c0,2.1,0.4,4.1,1.3,6c1,2,3,3.2,5.2,3.2c3.4,0,5.6-2.4,5.6-5.8v-1.2h-5.5
		v-2.4h8.4L231.8,123.1z"/>
</g>
<rect x="241" y="100.3" class="st1" width="2.8" height="22.6"/>
<g>
	<defs>
		<rect id="SVGID_00000127016438353668003440000007391038327083904440_" width="409.5" height="154.1"/>
	</defs>
	<clipPath id="SVGID_00000176018513031136086930000004620700226277846711_">
		<use xlink:href="#SVGID_00000127016438353668003440000007391038327083904440_"  style="overflow:visible;"/>
	</clipPath>
	<path style="clip-path:url(#SVGID_00000176018513031136086930000004620700226277846711_);fill:#86878C;" d="M254.9,116.2
		c0.9,3.1,3.5,4.6,6.6,4.6c1.4,0.1,2.8-0.3,4-1.1c0.9-0.7,1.4-1.8,1.4-2.9c0-2.3-1.9-3.2-3.8-3.7l-3.7-0.9c-1.5-0.2-2.9-0.9-4-1.8
		c-1.2-1.1-1.8-2.6-1.8-4.2c0-4.4,3.7-6.2,7.5-6.2c3.6-0.2,6.9,2.1,7.9,5.5l-2.5,0.7c-0.5-2.5-3.1-4-5.5-4c-2.1,0-4.8,1.1-4.8,3.6
		s2,3.1,4,3.6l3.3,0.8c1.5,0.2,2.9,0.8,4.1,1.8c1.3,1.1,2.1,2.8,2.1,4.5c0,2-0.9,3.9-2.5,5.2c-1.7,1.2-3.7,1.7-5.8,1.6
		c-4.5,0-7.5-2-9-6.4L254.9,116.2z"/>
</g>
<polygon class="st1" points="285.1,122.9 282.3,122.9 282.3,102.8 276,102.8 276,100.3 291.4,100.3 291.4,102.8 285.1,102.8 "/>
<polygon class="st1" points="313.4,122.9 298.9,122.9 298.9,100.3 313,100.3 313,102.7 301.7,102.7 301.7,109.9 310.7,109.9 
	310.7,112.2 301.7,112.2 301.7,120.5 313.4,120.5 "/>
<g>
	<defs>
		<rect id="SVGID_00000003825592609642429620000010774058288438549167_" width="409.5" height="154.1"/>
	</defs>
	<clipPath id="SVGID_00000057841233830015955320000009428669685629072807_">
		<use xlink:href="#SVGID_00000003825592609642429620000010774058288438549167_"  style="overflow:visible;"/>
	</clipPath>
	<path style="clip-path:url(#SVGID_00000057841233830015955320000009428669685629072807_);fill:#86878C;" d="M329.4,110.8
		c1.5,0,2.7-0.1,3.8-1.3c0.8-0.8,1.2-1.9,1.1-3c0.1-1.2-0.5-2.4-1.5-3.1c-0.9-0.6-2-0.8-3.1-0.7h-5.5v8.1L329.4,110.8z M334.5,122.9
		l-4.1-9.8h-6.2v9.8h-2.8v-22.6h8.3c1.8-0.1,3.5,0.4,5,1.4c1.5,1.2,2.4,3.1,2.4,5c0.1,2.7-1.6,5-4.1,5.8l4.4,10.5L334.5,122.9z"/>
</g>
<polygon class="st1" points="360.4,122.9 346,122.9 346,100.3 360.1,100.3 360.1,102.7 348.8,102.7 348.8,109.9 357.8,109.9 
	357.8,112.2 348.8,112.2 348.8,120.5 360.4,120.5 "/>
<g>
	<defs>
		<rect id="SVGID_00000087403313624278735500000003409302497152935856_" width="409.5" height="154.1"/>
	</defs>
	<clipPath id="SVGID_00000013189437712744892440000010988552537346853025_">
		<use xlink:href="#SVGID_00000087403313624278735500000003409302497152935856_"  style="overflow:visible;"/>
	</clipPath>
	<path style="clip-path:url(#SVGID_00000013189437712744892440000010988552537346853025_);fill:#86878C;" d="M375.5,120.5
		c2.6,0,4.6-0.6,6.1-2.9c1.1-1.8,1.6-4,1.6-6.1c0.1-2.4-0.6-4.7-2-6.6c-1.5-1.9-3.3-2.3-5.6-2.3h-4.1v17.8L375.5,120.5z
		 M368.6,100.3h7c3.2,0,5.5,0.7,7.7,3.2c1.8,2.3,2.8,5.1,2.7,8c0,2.8-0.8,5.5-2.3,7.8c-1.6,2.4-4.3,3.8-7.1,3.6h-7.9L368.6,100.3z"
		/>
</g>
<rect x="168.2" y="36.9" class="st1" width="5.3" height="23.2"/>
<g>
	<defs>
		<rect id="SVGID_00000085939078292225861560000016708317293815234494_" width="409.5" height="154.1"/>
	</defs>
	<clipPath id="SVGID_00000134246643202540698540000006743406343311162812_">
		<use xlink:href="#SVGID_00000085939078292225861560000016708317293815234494_"  style="overflow:visible;"/>
	</clipPath>
	<path style="clip-path:url(#SVGID_00000134246643202540698540000006743406343311162812_);fill:#86878C;" d="M189.6,43.6
		c-0.4-1.8-2.1-2.9-3.9-2.7c-1.4,0-3.2,0.4-3.2,2.2s2,2.1,3.3,2.3c1.9,0.4,4.4,0.9,6,2c1.9,1.2,3,3.3,3,5.5c0,2.3-1.1,4.4-2.9,5.8
		c-1.9,1.4-4.3,2-6.6,1.9c-4.3,0-8.2-1.9-9.2-6.4l4.9-1.2c0.7,2.4,2.4,3.3,4.8,3.3c1.5,0,3.6-0.6,3.6-2.5s-2.6-2.3-4-2.6
		c-4.1-0.8-8.1-2.1-8.1-7.2c0-2.1,0.9-4.1,2.5-5.5c1.6-1.3,3.7-2,5.7-1.9c4,0,7.2,1.4,8.6,5.5L189.6,43.6z"/>
	<path style="clip-path:url(#SVGID_00000134246643202540698540000006743406343311162812_);fill:#86878C;" d="M203.4,43.7
		c-0.5,1.6-0.8,3.2-0.7,4.8c0,2.9,0.4,7.6,4.2,7.6c1.8,0,2.8-0.9,3.4-2.6c0.5-1.6,0.7-3.2,0.7-4.9c0.1-1.8-0.2-3.6-0.8-5.2
		c-0.4-1.4-1.8-2.4-3.3-2.3C205.1,41,204.1,42,203.4,43.7 M199.5,56.8c-1.6-2.5-2.4-5.4-2.4-8.3c0-6.2,3-11.9,9.8-11.9
		c2.9-0.2,5.6,1.2,7.2,3.6c1.6,2.5,2.5,5.4,2.5,8.4c0,2.8-0.7,5.6-2.2,8.1c-1.7,2.5-4.5,4-7.6,3.9C204,60.6,201.2,59.2,199.5,56.8"
		/>
	<path style="clip-path:url(#SVGID_00000134246643202540698540000006743406343311162812_);fill:#86878C;" d="M167.8,70
		c3.1-0.9,6.4-2.2,8.3-5h4.1v20.4h6.8v4.5h-19.8v-4.5h7.4v-14l-6.8,3.7L167.8,70z"/>
</g>
<path class="st1" d="M199,80V69.5L192.3,80H199z M207.8,80v4.2h-3.4v5.7h-5.7v-5.7H188V80l9.9-14.9h6.5V80H207.8z"/>
<g>
	<defs>
		<rect id="SVGID_00000026139810110232259200000011882775174322858166_" width="409.5" height="154.1"/>
	</defs>
	<clipPath id="SVGID_00000133507768088928088680000011519478381388152510_">
		<use xlink:href="#SVGID_00000026139810110232259200000011882775174322858166_"  style="overflow:visible;"/>
	</clipPath>
	<path style="clip-path:url(#SVGID_00000133507768088928088680000011519478381388152510_);fill:#86878C;" d="M215.6,77.4
		c-0.1,1.8,0.1,3.6,0.4,5.4c0.4,1.7,1.2,3.2,3.1,3.2s2.9-1.4,3.3-3.3c0.3-1.6,0.4-3.3,0.4-5c0-1.9-0.1-3.9-0.5-5.8
		c-0.4-1.8-1.3-3-3.2-3C215.4,68.9,215.6,74.9,215.6,77.4 M209.7,77.5c0-6,2.6-12.7,9.4-12.7s9.6,6.6,9.6,12.7s-2.6,12.8-9.6,12.8
		C212.3,90.3,209.7,83.4,209.7,77.5"/>
	<path style="clip-path:url(#SVGID_00000133507768088928088680000011519478381388152510_);fill:#86878C;" d="M237,77.4
		c-0.1,1.8,0.1,3.6,0.4,5.4c0.4,1.7,1.2,3.2,3.1,3.2c2.1,0,2.9-1.4,3.3-3.3c0.3-1.6,0.4-3.3,0.4-5c0-1.9-0.1-3.9-0.5-5.8
		c-0.4-1.8-1.3-3-3.2-3C236.7,68.9,237,74.9,237,77.4 M231.1,77.5c0-6,2.6-12.7,9.4-12.7s9.6,6.6,9.6,12.7s-2.6,12.8-9.6,12.8
		C233.6,90.3,231.1,83.4,231.1,77.5"/>
	<path style="clip-path:url(#SVGID_00000133507768088928088680000011519478381388152510_);fill:#86878C;" d="M253.2,70
		c3.1-0.9,6.4-2.2,8.2-5h4.1v20.4h6.8v4.5h-19.8v-4.5h7.4v-14l-6.8,3.7L253.2,70z"/>
</g>
<path class="st1" d="M283.1,89.9v-5.6h5.6v5.6H283.1z M283.1,71.5h5.6v5.6h-5.6V71.5z"/>
<g>
	<defs>
		<rect id="SVGID_00000068672889913528289990000003956514576068005255_" width="409.5" height="154.1"/>
	</defs>
	<clipPath id="SVGID_00000129175455758659484810000006207969029759406730_">
		<use xlink:href="#SVGID_00000068672889913528289990000003956514576068005255_"  style="overflow:visible;"/>
	</clipPath>
	<path style="clip-path:url(#SVGID_00000129175455758659484810000006207969029759406730_);fill:#86878C;" d="M318.6,89.9h-18.3v-4.8
		l1.8-1.4l7.3-5.7c1.6-1.5,3.5-3.1,3.5-5.5c0-1.8-1.4-3.2-3.1-3.3c-0.1,0-0.1,0-0.2,0c-2.8,0-4,2.2-4.2,4.8l-5-1.2
		c1-5.2,4.2-8.2,9.5-8.2c2.2-0.1,4.3,0.5,6,1.9c1.8,1.4,2.8,3.6,2.8,5.8c0,3.2-1.4,5.2-3.7,7.2c-2.2,1.8-4.5,3.4-6.9,4.8l-0.8,0.5
		h11.7L318.6,89.9z"/>
	<path style="clip-path:url(#SVGID_00000129175455758659484810000006207969029759406730_);fill:#86878C;" d="M327.4,77.4
		c-0.1,1.8,0.1,3.6,0.4,5.4c0.4,1.7,1.2,3.2,3.1,3.2s2.9-1.4,3.3-3.3c0.3-1.6,0.4-3.3,0.4-5c0-1.9-0.1-3.9-0.5-5.8
		c-0.4-1.8-1.3-3-3.2-3C327.1,68.9,327.4,74.9,327.4,77.4 M321.4,77.5c0-6,2.6-12.7,9.4-12.7s9.6,6.6,9.6,12.7s-2.6,12.8-9.6,12.8
		C323.9,90.3,321.4,83.4,321.4,77.5"/>
	<path style="clip-path:url(#SVGID_00000129175455758659484810000006207969029759406730_);fill:#86878C;" d="M343.5,70
		c3.1-0.9,6.4-2.2,8.2-5h4.1v20.4h6.8v4.5h-19.8v-4.5h7.4v-14l-6.8,3.7L343.5,70z"/>
	<path style="clip-path:url(#SVGID_00000129175455758659484810000006207969029759406730_);fill:#86878C;" d="M369.8,75.7
		c1.4-1.5,3.3-2.2,5.3-2.1c2.1,0,4.1,0.8,5.5,2.2c1.6,1.5,2.4,3.7,2.3,5.8c0,2.3-0.8,4.6-2.5,6.2c-1.9,1.7-4.4,2.6-7,2.5
		c-4.7,0-8.5-2.2-9.6-7l5.3-0.8c0.3,2,2.1,3.4,4.1,3.3c2,0.1,3.8-1.5,3.9-3.5c0-0.1,0-0.1,0-0.2c0.1-2.1-1.5-3.9-3.7-4
		c-0.1,0-0.2,0-0.3,0c-1.4,0-2.7,0.8-3.5,2l-4.7-0.8l1-14.1h15.4l-0.6,5.1h-10.7L369.8,75.7z"/>
</g>
<rect x="164.8" y="18" class="st9" width="221.6" height="2.4"/>
<rect x="164.8" y="133.6" class="st9" width="221.6" height="2.4"/>
<g>
	<defs>
		<rect id="SVGID_00000168823488247021610640000009303584825388219043_" width="409.5" height="154.1"/>
	</defs>
	<clipPath id="SVGID_00000173866860248077226800000001387167766683141275_">
		<use xlink:href="#SVGID_00000168823488247021610640000009303584825388219043_"  style="overflow:visible;"/>
	</clipPath>
	<path style="clip-path:url(#SVGID_00000173866860248077226800000001387167766683141275_);fill:#67B9E8;" d="M39.3,88.6
		c1.5,0,2.9-0.3,4.2-1l-3-3.3l4.3-3.8l2.7,3.2c0.8-1.4,1.2-3,1.2-4.7c-0.1-5.2-4.4-9.4-9.6-9.3c-5.2,0.1-9.4,4.4-9.3,9.6
		C29.9,84.5,34.1,88.6,39.3,88.6"/>
	<path style="clip-path:url(#SVGID_00000173866860248077226800000001387167766683141275_);fill:#67B9E8;" d="M39.3,62.5
		c9,0.1,16.3,7.5,16.2,16.5c0,0,0,0,0,0c0,3.6-1.2,7.1-3.4,10l5.3,6.2h-7l-2.2-2.5c-2.6,1.8-5.7,2.7-8.9,2.7
		c-9.1,0-16.5-7.4-16.5-16.5S30.2,62.4,39.3,62.5 M57.9,63.3h11.4l5.5,19.1l5.8-19.1h11.5v32h-7.3v-26h-0.2l-7.8,26h-5l-7.6-26h-0.1
		v26h-6.2L57.9,63.3z M106.2,82.7C100.5,81.6,95,79.9,95,73c-0.1-2.9,1.2-5.6,3.4-7.5c2.2-1.8,5-2.7,7.9-2.6c5.5,0,10,2,11.9,7.5
		l-6.2,2.1c-0.9-2.7-2.6-3.8-5.4-3.8c-2,0-4.3,0.5-4.3,3s2.8,2.9,4.5,3.2c2.6,0.6,6,1.2,8.2,2.7c2.6,1.6,4.1,4.5,4.1,7.5
		c0,3.1-1.4,6.1-3.9,8c-2.5,2-6,2.6-9.1,2.6c-5.9,0-11.3-2.6-12.7-8.8l6.8-1.6c0.9,3.3,3.3,4.5,6.6,4.5c2.1,0,4.9-0.8,4.9-3.4
		S108.1,83.2,106.2,82.7 M124.9,55.1c3.6-0.1,6.6,2.8,6.7,6.5c0.1,3.6-2.8,6.6-6.5,6.7s-6.6-2.8-6.7-6.5c0,0,0-0.1,0-0.1
		C118.3,58.1,121.2,55.2,124.9,55.1C124.9,55.1,124.9,55.1,124.9,55.1 M75.8,154.1c41.8,0,75.8-34.5,75.8-77.1S117.6,0,75.8,0
		S0,34.5,0,77.1S33.9,154.1,75.8,154.1"/>
	<path style="clip-path:url(#SVGID_00000173866860248077226800000001387167766683141275_);fill:#67B9E8;" d="M123.8,62.9l-1.9-1.5
		l-0.8,0.7l3.2,3.4c1.1-2.4,2.6-4.6,4.4-6.4l-0.2-0.5C126.7,59.8,125.1,61.2,123.8,62.9"/>
</g>
</svg>
