<svg id="Layer_1" data-name="Layer 1" xmlns="http://www.w3.org/2000/svg" viewBox="0 0 127.16 127.16"><defs><style>.cls-1{fill:#3baed4;}.cls-2{fill:#fff;}</style></defs><circle class="cls-1" cx="63.58" cy="63.58" r="63.58"/><path class="cls-2" d="M36.13,27a9.2,9.2,0,0,0-9.2,9.18V91a9.2,9.2,0,0,0,9.2,9.18H91A9.19,9.19,0,0,0,100.22,91V36.16A9.19,9.19,0,0,0,91,27ZM91,102.06H36.13A11.09,11.09,0,0,1,25.05,91V36.16A11.08,11.08,0,0,1,36.13,25.1H91a11.08,11.08,0,0,1,11.08,11.06V91A11.09,11.09,0,0,1,91,102.06"/><path class="cls-2" d="M65,31.58l-7.12-2.7A1.18,1.18,0,0,0,56.22,30v1.76H41.72A11.09,11.09,0,0,0,30.63,42.81v17a.95.95,0,0,0,1.89,0v-17a9.2,9.2,0,0,1,9.2-9.18h14.5v1.76a1.19,1.19,0,0,0,1.61,1.11L65,33.8a1.19,1.19,0,0,0,0-2.22"/><path class="cls-2" d="M62,95.45l7.12,2.7A1.19,1.19,0,0,0,70.7,97V95.28H85.2A11.09,11.09,0,0,0,96.29,84.21v-17a.95.95,0,0,0-1.89,0v17a9.21,9.21,0,0,1-9.2,9.19H70.7V91.64a1.18,1.18,0,0,0-1.61-1.11L62,93.23a1.19,1.19,0,0,0,0,2.22"/></svg>