<svg id="Layer_1" data-name="Layer 1" xmlns="http://www.w3.org/2000/svg" viewBox="0 0 852.02 82.61"><defs><style>.cls-1{fill:#00151d}.cls-2{fill:#009bb9}</style></defs><path class="cls-1" d="M47 12.87A1.89 1.89 0 0 0 48.85 11V4.53A1.89 1.89 0 0 0 47 2.65H2a1.89 1.89 0 0 0-2 1.88v61.88a1.89 1.89 0 0 0 1.91 1.88H9a1.9 1.9 0 0 0 1.91-1.88V41.33h32a1.89 1.89 0 0 0 1.9-1.88v-6.36a1.9 1.9 0 0 0-1.9-1.89h-32V12.87ZM59.2 39.16a17.62 17.62 0 0 1 1.13-3.56 15.36 15.36 0 0 1 2.85-4.37 12.79 12.79 0 0 1 3.95-2.85 11.41 11.41 0 0 1 4.8-1 11.91 11.91 0 0 1 5.25 1.09A12.11 12.11 0 0 1 81 31.38a14 14 0 0 1 2.5 4.37 21.69 21.69 0 0 1 .92 3.41ZM89.51 25.6a22 22 0 0 0-7.45-5.66 23.69 23.69 0 0 0-27.3 5.47 25.38 25.38 0 0 0-5 8.21A27.81 27.81 0 0 0 48 43.6a26.81 26.81 0 0 0 2 10.45 25.26 25.26 0 0 0 5.42 8.16 24.41 24.41 0 0 0 8 5.28 25.55 25.55 0 0 0 9.68 1.86 25.74 25.74 0 0 0 12-2.56 30.39 30.39 0 0 0 8.51-6.64 1.87 1.87 0 0 0-.16-2.65l-4.3-3.81a1.92 1.92 0 0 0-2.64.1 22.69 22.69 0 0 1-5.82 4.32 16 16 0 0 1-7.41 1.56 15 15 0 0 1-5.15-.9 13.7 13.7 0 0 1-4.41-2.64 14.17 14.17 0 0 1-3.23-4.3A15.06 15.06 0 0 1 59.18 48H93.6a1.9 1.9 0 0 0 1.89-1.62 10.24 10.24 0 0 0 .11-1.41V44a32.5 32.5 0 0 0-1.53-10 24.47 24.47 0 0 0-4.56-8.33M106.83 39.16A18.29 18.29 0 0 1 108 35.6a15.36 15.36 0 0 1 2.85-4.37 12.79 12.79 0 0 1 4-2.85 11.41 11.41 0 0 1 4.8-1 11.91 11.91 0 0 1 5.25 1.09 12.11 12.11 0 0 1 3.85 2.93 14 14 0 0 1 2.5 4.37 21.69 21.69 0 0 1 .92 3.41Zm30.32-13.56a22 22 0 0 0-7.45-5.66 23.69 23.69 0 0 0-27.3 5.47 25.36 25.36 0 0 0-5 8.21 28 28 0 0 0-1.77 10 26.77 26.77 0 0 0 2 10.45 25.26 25.26 0 0 0 5.42 8.16 24.31 24.31 0 0 0 8 5.28 27.85 27.85 0 0 0 21.68-.7 30.2 30.2 0 0 0 8.5-6.64 1.86 1.86 0 0 0-.15-2.65l-4.3-3.81a1.92 1.92 0 0 0-2.64.1 22.46 22.46 0 0 1-5.82 4.32 16 16 0 0 1-7.41 1.56 15 15 0 0 1-5.15-.9 13.7 13.7 0 0 1-4.41-2.64 14.17 14.17 0 0 1-3.23-4.3 15.06 15.06 0 0 1-1.3-3.87h34.42a1.9 1.9 0 0 0 1.89-1.62 10.24 10.24 0 0 0 .11-1.41V44a32.5 32.5 0 0 0-1.53-10 24.3 24.3 0 0 0-4.56-8.33M155.57 0h-6.9a1.89 1.89 0 0 0-1.9 1.88v64.53a1.89 1.89 0 0 0 1.9 1.88h6.9a1.89 1.89 0 0 0 1.9-1.88V1.88a1.89 1.89 0 0 0-1.9-1.88M223.24 41.31a12.36 12.36 0 0 1-1.24 5.57 13.58 13.58 0 0 1-3.34 4.32 15.46 15.46 0 0 1-4.83 2.8 16.31 16.31 0 0 1-11.15 0 13.22 13.22 0 0 1-4.47-2.78 13.43 13.43 0 0 1-4.2-10 14.23 14.23 0 0 1 1.09-5.67 12.85 12.85 0 0 1 3-4.28 13.3 13.3 0 0 1 4.46-2.7 16.35 16.35 0 0 1 5.56-.94 16.82 16.82 0 0 1 5.7 1 16 16 0 0 1 4.83 2.8 13.81 13.81 0 0 1 3.35 4.3 12.37 12.37 0 0 1 1.24 5.58m8.53-22.48h-6.89a1.9 1.9 0 0 0-1.88 1.88V24a22.2 22.2 0 0 0-4.35-3.18 23.47 23.47 0 0 0-5.36-2.17 25.12 25.12 0 0 0-15.21.81 23.56 23.56 0 0 0-7.59 4.66 22.66 22.66 0 0 0-5.32 7.41 23.5 23.5 0 0 0-2 9.83 23.23 23.23 0 0 0 2 9.8 22.66 22.66 0 0 0 5.32 7.36 23.12 23.12 0 0 0 7.51 4.65 24.91 24.91 0 0 0 8.78 1.59 21.36 21.36 0 0 0 11.78-3.14 32.18 32.18 0 0 0 4.49-3.48v.49c0 4.86-1.29 8.38-3.94 10.77s-6.37 3.62-11 3.62a27 27 0 0 1-8.78-1.4 31.8 31.8 0 0 1-7.93-4.09 1.93 1.93 0 0 0-1.51-.3 1.89 1.89 0 0 0-1.24.89l-3.14 5.3a1.87 1.87 0 0 0 .56 2.49 38.13 38.13 0 0 0 10.47 5 40.43 40.43 0 0 0 11.66 1.67 33.14 33.14 0 0 0 10.32-1.51 22.35 22.35 0 0 0 8.11-4.59 20.21 20.21 0 0 0 5.24-7.64 28.26 28.26 0 0 0 1.79-10.41V20.71a1.9 1.9 0 0 0-1.91-1.88M278.22 43.65a17.17 17.17 0 0 1-1.13 6.25 15.41 15.41 0 0 1-3.1 5 14.49 14.49 0 0 1-4.75 3.31 15.73 15.73 0 0 1-12.14 0 15.37 15.37 0 0 1-4.83-3.37 15.64 15.64 0 0 1-3.19-5 17.76 17.76 0 0 1 0-12.52 16.35 16.35 0 0 1 3.09-5.07 13.38 13.38 0 0 1 4.68-3.32 15.23 15.23 0 0 1 6.12-1.21 14.64 14.64 0 0 1 6 1.24 15.82 15.82 0 0 1 4.87 3.42 15.63 15.63 0 0 1 3.23 5.08 16.81 16.81 0 0 1 1.17 6.28m3.53-18.21A27.05 27.05 0 0 0 252.66 20a25.86 25.86 0 0 0-8.27 5.59 25.3 25.3 0 0 0-5.39 8.16 26.11 26.11 0 0 0-2 9.94 25.81 25.81 0 0 0 2 9.91 25.25 25.25 0 0 0 5.42 8.17 26.36 26.36 0 0 0 8.21 5.52 25.8 25.8 0 0 0 10.34 2.06 26.65 26.65 0 0 0 10.43-2 25.93 25.93 0 0 0 13.81-33.69 24.88 24.88 0 0 0-5.42-8.17"/><path class="cls-1" d="M330.7 43.65a17.17 17.17 0 0 1-1.13 6.25 15.43 15.43 0 0 1-3.11 5 14.49 14.49 0 0 1-4.75 3.31 15.73 15.73 0 0 1-12.14 0 15 15 0 0 1-8-8.41 16.74 16.74 0 0 1-1.17-6.28 17.21 17.21 0 0 1 1.12-6.24 16.37 16.37 0 0 1 3.1-5.07 13.34 13.34 0 0 1 4.67-3.32 15.28 15.28 0 0 1 6.13-1.21 14.59 14.59 0 0 1 6 1.24 15.42 15.42 0 0 1 8.11 8.5 16.81 16.81 0 0 1 1.17 6.28m3.53-18.21a27.07 27.07 0 0 0-29.12-5.53 25.93 25.93 0 0 0-8.26 5.59 25.49 25.49 0 0 0-5.42 8.25 26.11 26.11 0 0 0-1.93 9.94 25.63 25.63 0 0 0 1.94 9.91 24.93 24.93 0 0 0 5.42 8.17 26.2 26.2 0 0 0 8.2 5.52 25.85 25.85 0 0 0 10.35 2.06 26.6 26.6 0 0 0 10.42-2 26 26 0 0 0 13.82-33.69 25 25 0 0 0-5.42-8.17"/><path class="cls-1" d="M382.28 43.52a16.85 16.85 0 0 1-1.28 6.53 14.94 14.94 0 0 1-3.34 5 15.52 15.52 0 0 1-4.8 3.18 14.29 14.29 0 0 1-11 0 13.54 13.54 0 0 1-4.56-3.12 15.43 15.43 0 0 1-3.14-5 17.86 17.86 0 0 1-1.16-6.59 18.53 18.53 0 0 1 1.17-6.76 14.65 14.65 0 0 1 3.09-4.91 12.85 12.85 0 0 1 4.5-3 15 15 0 0 1 5.64-1.05 13.93 13.93 0 0 1 5.46 1.12 15.7 15.7 0 0 1 4.8 3.18A14.93 14.93 0 0 1 381 37a16.54 16.54 0 0 1 1.24 6.49M390.81 0h-6.9A1.89 1.89 0 0 0 382 1.88v22.37a23 23 0 0 0-4.07-3.19 22.17 22.17 0 0 0-5.3-2.33 22.78 22.78 0 0 0-6.46-.87 23.17 23.17 0 0 0-8.89 1.78 24.18 24.18 0 0 0-13.1 13.16 27.4 27.4 0 0 0-2 10.8 27.42 27.42 0 0 0 2 10.81 24.55 24.55 0 0 0 5.43 8.08 23.74 23.74 0 0 0 16.56 6.78 22.34 22.34 0 0 0 6.42-.88 20.09 20.09 0 0 0 5.3-2.45 23.7 23.7 0 0 0 4.11-3.42v3.89a1.89 1.89 0 0 0 1.9 1.88h6.9a1.89 1.89 0 0 0 1.9-1.88V1.88A1.89 1.89 0 0 0 390.81 0M408.27 55.25H400a1.89 1.89 0 0 0-1.9 1.88v9.28a1.89 1.89 0 0 0 1.9 1.88h1.27a3.8 3.8 0 0 1-.71 1.61 9 9 0 0 1-4 2.44 1.88 1.88 0 0 0-1.14 2.37l1.08 3.09a1.89 1.89 0 0 0 1.8 1.27 2 2 0 0 0 .42 0c3.79-.85 6.67-2.38 8.55-4.54s2.87-5.37 2.87-9.41v-7.99a1.89 1.89 0 0 0-1.9-1.88"/><path class="cls-2" d="M786.88.09H780A1.9 1.9 0 0 0 778.08 2v64.5a1.9 1.9 0 0 0 1.92 1.88h6.89a1.9 1.9 0 0 0 1.91-1.88V2a1.9 1.9 0 0 0-1.92-1.91M805.06.09h-6.9a1.89 1.89 0 0 0-1.9 1.91v64.5a1.89 1.89 0 0 0 1.9 1.88h6.9A1.89 1.89 0 0 0 807 66.5V2a1.89 1.89 0 0 0-1.9-1.88M823.15 55.33h-8.24a1.91 1.91 0 0 0-1.91 1.89v9.28a1.9 1.9 0 0 0 1.91 1.88h8.24a1.89 1.89 0 0 0 1.9-1.88v-9.28a1.9 1.9 0 0 0-1.9-1.89M462.13 43.13a22.87 22.87 0 0 0-5.23-2.71c-1.79-.65-3.62-1.26-5.44-1.8-1.54-.46-3-.93-4.43-1.4a22.77 22.77 0 0 1-3.51-1.46 7 7 0 0 1-2.07-1.61 2.6 2.6 0 0 1-.55-1.78 3.92 3.92 0 0 1 1.7-3.25 8.51 8.51 0 0 1 5.4-1.49 19.68 19.68 0 0 1 6.32 1.09 29.86 29.86 0 0 1 6.36 3 2 2 0 0 0 1.45.25 1.91 1.91 0 0 0 1.2-.87l3.08-5.1a1.86 1.86 0 0 0-.59-2.55 34.75 34.75 0 0 0-8.43-3.88c-5.61-1.76-11.42-2-16.16-.44a17 17 0 0 0-5.65 3 14 14 0 0 0-3.77 4.8 14.26 14.26 0 0 0-1.35 6.33 11.35 11.35 0 0 0 1.69 6.32 13.92 13.92 0 0 0 4.14 4.09 24.72 24.72 0 0 0 5.35 2.55c1.85.63 3.68 1.21 5.52 1.75 1.46.41 2.88.84 4.25 1.3a18.61 18.61 0 0 1 3.37 1.48 6.58 6.58 0 0 1 2 1.67 3.08 3.08 0 0 1 .56 2 4.33 4.33 0 0 1-1.91 3.78 9.66 9.66 0 0 1-5.77 1.58 21.67 21.67 0 0 1-7.53-1.38 28.54 28.54 0 0 1-7.34-4.07 2 2 0 0 0-1.45-.36 1.89 1.89 0 0 0-1.26.77l-3.5 4.86a1.87 1.87 0 0 0 .37 2.56 33.79 33.79 0 0 0 9.59 5.21 32.25 32.25 0 0 0 10.76 1.92 24 24 0 0 0 7.06-1 17.48 17.48 0 0 0 5.83-3 15.26 15.26 0 0 0 4-4.89 14.57 14.57 0 0 0 1.5-6.82 11.74 11.74 0 0 0-1.57-6.19 14.09 14.09 0 0 0-4-4.18M480.72.09h-6.89A1.89 1.89 0 0 0 471.92 2v64.5a1.89 1.89 0 0 0 1.91 1.88h6.89a1.9 1.9 0 0 0 1.91-1.88V2a1.9 1.9 0 0 0-1.91-1.91M497.8 39.25a19 19 0 0 1 1.13-3.56 15.8 15.8 0 0 1 2.86-4.38 12.79 12.79 0 0 1 3.95-2.85 11.37 11.37 0 0 1 4.8-1 11.45 11.45 0 0 1 9.1 4 13.79 13.79 0 0 1 2.5 4.37 20.12 20.12 0 0 1 .91 3.41Zm30.32-13.56a22.14 22.14 0 0 0-7.45-5.69A24.54 24.54 0 0 0 501 20a23.46 23.46 0 0 0-7.64 5.53 25.36 25.36 0 0 0-5 8.21 28 28 0 0 0-1.77 10 26.84 26.84 0 0 0 2 10.45A25.26 25.26 0 0 0 494 62.3a24.28 24.28 0 0 0 8 5.27 25.36 25.36 0 0 0 9.68 1.87 25.77 25.77 0 0 0 12-2.56 30.24 30.24 0 0 0 8.5-6.65 1.86 1.86 0 0 0-.15-2.65l-4.3-3.8a1.93 1.93 0 0 0-2.64.09 22.67 22.67 0 0 1-5.82 4.33 16.18 16.18 0 0 1-7.41 1.55 14.9 14.9 0 0 1-5.16-.9 13.59 13.59 0 0 1-4.4-2.64 14.13 14.13 0 0 1-3.23-4.29 15.32 15.32 0 0 1-1.3-3.87h34.42a1.91 1.91 0 0 0 1.89-1.62 10.36 10.36 0 0 0 .11-1.41V44a32.55 32.55 0 0 0-1.53-10 24.33 24.33 0 0 0-4.56-8.32M545.44 39.25a19 19 0 0 1 1.13-3.56 15.44 15.44 0 0 1 2.86-4.38 12.79 12.79 0 0 1 4-2.85 11.37 11.37 0 0 1 4.8-1 11.41 11.41 0 0 1 9.09 4 13.81 13.81 0 0 1 2.51 4.37 20.12 20.12 0 0 1 .91 3.41Zm30.32-13.56a22.14 22.14 0 0 0-7.45-5.69 24.54 24.54 0 0 0-19.66 0 23.57 23.57 0 0 0-7.65 5.5 25.36 25.36 0 0 0-5 8.21 28 28 0 0 0-1.78 10 26.85 26.85 0 0 0 2 10.45 25.2 25.2 0 0 0 5.42 8.16 24.28 24.28 0 0 0 8 5.27 25.36 25.36 0 0 0 9.68 1.87 25.77 25.77 0 0 0 12-2.56 30.24 30.24 0 0 0 8.5-6.65 1.86 1.86 0 0 0-.15-2.65l-4.3-3.8a1.93 1.93 0 0 0-2.64.09 22.67 22.67 0 0 1-5.82 4.33 16.2 16.2 0 0 1-7.41 1.55 14.9 14.9 0 0 1-5.16-.9 13.59 13.59 0 0 1-4.4-2.64 14.16 14.16 0 0 1-3.24-4.29 15.73 15.73 0 0 1-1.3-3.87h34.43a1.91 1.91 0 0 0 1.89-1.62 10.37 10.37 0 0 0 .1-1.41V44a32.55 32.55 0 0 0-1.52-10 24.33 24.33 0 0 0-4.56-8.32M623.25 50.44a14.73 14.73 0 0 1-3.08 4.92 13.2 13.2 0 0 1-4.54 3 14.68 14.68 0 0 1-11.07-.07 16 16 0 0 1-4.8-3.18 14.82 14.82 0 0 1-3.33-5 16.6 16.6 0 0 1-1.24-6.53 16.31 16.31 0 0 1 1.24-6.48 15.05 15.05 0 0 1 3.33-4.93 16 16 0 0 1 4.8-3.18 14 14 0 0 1 5.44-1.1 14.22 14.22 0 0 1 5.55 1.11 13.56 13.56 0 0 1 4.56 3.13 15.43 15.43 0 0 1 3.14 5 17.7 17.7 0 0 1 1.17 6.61 18.3 18.3 0 0 1-1.17 6.75m4.59-25.73a23.91 23.91 0 0 0-16.56-6.77 21.2 21.2 0 0 0-6.45.93 21.77 21.77 0 0 0-9.37 5.82v-3.9a1.9 1.9 0 0 0-1.91-1.88h-6.9a1.89 1.89 0 0 0-1.9 1.88v59.8a1.89 1.89 0 0 0 1.9 1.88h6.9a1.9 1.9 0 0 0 1.91-1.88V63a23.36 23.36 0 0 0 4.06 3.2 21.93 21.93 0 0 0 5.3 2.32 22.88 22.88 0 0 0 6.46.88 23.72 23.72 0 0 0 16.61-6.87 24.75 24.75 0 0 0 5.38-8.07 27.45 27.45 0 0 0 2-10.81 27.48 27.48 0 0 0-2-10.81 24.76 24.76 0 0 0-5.43-8.08M729.42 19.71a1.89 1.89 0 0 0-1.55-.8h-7.16a1.89 1.89 0 0 0-1.81 1.3l-10.39 31.3L697.8 20a1.9 1.9 0 0 0-1.8-1.26h-5.73a1.91 1.91 0 0 0-1.82 1.26l-10.62 31.49-10.38-31.28a1.91 1.91 0 0 0-1.82-1.3h-7.34a1.91 1.91 0 0 0-1.55.8 1.85 1.85 0 0 0-.25 1.7l16.21 46.06a1.91 1.91 0 0 0 1.8 1.26h6.09a1.9 1.9 0 0 0 1.8-1.27l10.73-30.86 10.65 30.86a1.9 1.9 0 0 0 1.8 1.27h6a1.9 1.9 0 0 0 1.8-1.26l16.3-46a1.86 1.86 0 0 0-.25-1.71M738.15 39.25a17.62 17.62 0 0 1 1.13-3.56 15.55 15.55 0 0 1 2.85-4.38 12.9 12.9 0 0 1 4-2.85 11.41 11.41 0 0 1 4.8-1 11.88 11.88 0 0 1 5.25 1.08 12 12 0 0 1 3.82 2.93 13.79 13.79 0 0 1 2.5 4.37 20.14 20.14 0 0 1 .92 3.41Zm30.31-13.56A22.1 22.1 0 0 0 761 20a24.54 24.54 0 0 0-19.64 0 23.61 23.61 0 0 0-7.65 5.53 25.34 25.34 0 0 0-5 8.21 28 28 0 0 0-1.78 10 26.63 26.63 0 0 0 2 10.45 25.2 25.2 0 0 0 5.42 8.16 24.35 24.35 0 0 0 8 5.27 25.38 25.38 0 0 0 9.69 1.87 25.73 25.73 0 0 0 12-2.56 30.42 30.42 0 0 0 8.51-6.65 1.86 1.86 0 0 0-.16-2.65l-4.29-3.8a1.93 1.93 0 0 0-2.64.09 22.72 22.72 0 0 1-5.83 4.33 16.16 16.16 0 0 1-7.4 1.55 14.86 14.86 0 0 1-5.16-.9 13.38 13.38 0 0 1-4.4-2.64 14 14 0 0 1-3.24-4.29 15.73 15.73 0 0 1-1.3-3.87h34.42a1.9 1.9 0 0 0 1.89-1.62 10.48 10.48 0 0 0 .11-1.41V44A32.55 32.55 0 0 0 773 34a24.35 24.35 0 0 0-4.57-8.32M838 55.33h-9.78a.37.37 0 0 0-.37.37V57a.36.36 0 0 0 .37.37H832V68a.38.38 0 0 0 .37.37h1.41a.37.37 0 0 0 .37-.37V57.35H838a.37.37 0 0 0 .37-.37V55.7a.38.38 0 0 0-.37-.37M851.65 55.33h-1.42a.39.39 0 0 0-.31.17l-4.23 6.26-4.24-6.26a.38.38 0 0 0-.31-.17h-1.42a.37.37 0 0 0-.37.37V68a.37.37 0 0 0 .37.37h1.37a.37.37 0 0 0 .37-.37v-8.75l3.87 5.59a.37.37 0 0 0 .3.16h.07a.37.37 0 0 0 .31-.16l3.87-5.61V68a.37.37 0 0 0 .37.37h1.4A.37.37 0 0 0 852 68V55.7a.37.37 0 0 0-.37-.37"/></svg>