<svg id="Layer_1" data-name="Layer 1" xmlns="http://www.w3.org/2000/svg" viewBox="0 0 127.16 127.16"><defs><style>.cls-1{fill:#3baed4;}.cls-2{fill:#fff;}.cls-3{fill:none;stroke:#fff;stroke-miterlimit:10;stroke-width:1.98px;}</style></defs><circle class="cls-1" cx="63.58" cy="63.58" r="63.58"/><path class="cls-2" d="M95.6,24.94h-64V40.65l23.72,11a19.66,19.66,0,0,0,16.6,0l23.72-11Z"/><path class="cls-3" d="M95.6,24.94h-64V87.75A2.49,2.49,0,0,0,33,90l22.29,10.33a19.66,19.66,0,0,0,16.6,0L94.16,90a2.49,2.49,0,0,0,1.44-2.25Z"/><path class="cls-2" d="M41.22,72.91a5.74,5.74,0,0,0,2.58.58,5.47,5.47,0,0,0,1.89-.31,4.11,4.11,0,0,0,2.46-2.27,4.54,4.54,0,0,0,.35-1.79,4.12,4.12,0,0,0-.35-1.71,3.57,3.57,0,0,0-1-1.29,4.46,4.46,0,0,0-1.45-.81A5.72,5.72,0,0,0,43.94,65a5.82,5.82,0,0,0-1.41.16,7.16,7.16,0,0,0-.74.25L42,62.15h5.67a.27.27,0,0,0,.27-.27v-1.3a.27.27,0,0,0-.27-.27H40.53a.27.27,0,0,0-.27.26l-.36,6.05a.26.26,0,0,0,.13.24l.94.62a.28.28,0,0,0,.28,0A6,6,0,0,1,42.38,67a4.36,4.36,0,0,1,1.35-.19A3.59,3.59,0,0,1,44.9,67a2.63,2.63,0,0,1,.89.49,2.1,2.1,0,0,1,.56.73,2.24,2.24,0,0,1,.2,1A2.43,2.43,0,0,1,45.8,71a2.37,2.37,0,0,1-.86.51,3.14,3.14,0,0,1-1.12.19,3.73,3.73,0,0,1-1.72-.42,7,7,0,0,1-1.63-1.2.22.22,0,0,0-.2-.08.25.25,0,0,0-.19.09l-.92,1a.26.26,0,0,0,0,.37A7.65,7.65,0,0,0,41.22,72.91Z"/><path class="cls-2" d="M60.53,73V68.16l5.12-7.42a.26.26,0,0,0,0-.28.28.28,0,0,0-.24-.15H63.79a.27.27,0,0,0-.22.12l-4,5.88-4-5.88a.27.27,0,0,0-.22-.12H53.68a.28.28,0,0,0-.24.15.26.26,0,0,0,0,.28l5.12,7.44V73a.27.27,0,0,0,.27.27h1.41A.27.27,0,0,0,60.53,73Z"/><path class="cls-2" d="M64.29,66.46a5.82,5.82,0,0,0-.34,2,5.36,5.36,0,0,0,.39,2.06,4.94,4.94,0,0,0,1,1.6,4.86,4.86,0,0,0,1.55,1,5,5,0,0,0,1.88.36,5,5,0,0,0,2.34-.5,6.08,6.08,0,0,0,1.65-1.31.27.27,0,0,0,0-.38l-.85-.77a.28.28,0,0,0-.38,0,4.7,4.7,0,0,1-1.18.89,3.38,3.38,0,0,1-1.52.32,2.89,2.89,0,0,1-1.06-.19,2.67,2.67,0,0,1-.91-.55,3,3,0,0,1-.67-.89h0a3.75,3.75,0,0,1-.29-.93h7a.27.27,0,0,0,.27-.24,1.18,1.18,0,0,0,0-.26v-.2a6.67,6.67,0,0,0-.29-2A4.91,4.91,0,0,0,72,64.88a4.38,4.38,0,0,0-1.44-1.11,4.79,4.79,0,0,0-3.81,0,4.74,4.74,0,0,0-1.49,1.09A5.2,5.2,0,0,0,64.29,66.46Zm1.65,1.18a4.06,4.06,0,0,1,.25-.86,3.17,3.17,0,0,1,.59-.91,2.53,2.53,0,0,1,.82-.59,2.18,2.18,0,0,1,1-.22,2.47,2.47,0,0,1,1.09.23,2.57,2.57,0,0,1,.8.62,2.69,2.69,0,0,1,.51.91,3.8,3.8,0,0,1,.21.82Z"/><path class="cls-2" d="M74.82,72.7a3.79,3.79,0,0,0,1.19.59,5,5,0,0,0,1.33.18A4.25,4.25,0,0,0,79.51,73a6,6,0,0,0,.88-.64V73a.27.27,0,0,0,.27.27H82a.27.27,0,0,0,.27-.27V67.4a3.84,3.84,0,0,0-1.1-3,4.39,4.39,0,0,0-3.08-1,7.52,7.52,0,0,0-1.87.21,9.77,9.77,0,0,0-1.59.57.27.27,0,0,0-.14.34l.41,1.12a.26.26,0,0,0,.15.16.24.24,0,0,0,.22,0,8.74,8.74,0,0,1,1.26-.47h0a5.62,5.62,0,0,1,1.41-.17,2.72,2.72,0,0,1,1.84.56,2.06,2.06,0,0,1,.63,1.63c-.32-.08-.64-.14-1-.19a9.12,9.12,0,0,0-1.59-.12,6.18,6.18,0,0,0-1.66.21,4.17,4.17,0,0,0-1.33.61,2.85,2.85,0,0,0-.89,1,3,3,0,0,0-.31,1.41A2.8,2.8,0,0,0,74,71.72,2.89,2.89,0,0,0,74.82,72.7Zm.76-2.43a1.38,1.38,0,0,1,.58-1.18h0A3,3,0,0,1,78,68.63a8.06,8.06,0,0,1,1.46.12q.52.09,1,.21v.68a1.81,1.81,0,0,1-.21.87,2.29,2.29,0,0,1-.58.7,3.48,3.48,0,0,1-.9.47,3.59,3.59,0,0,1-1.11.17,3,3,0,0,1-.8-.11,2.13,2.13,0,0,1-.64-.32,1.57,1.57,0,0,1-.44-.49A1.4,1.4,0,0,1,75.58,70.27Z"/><path class="cls-2" d="M84.18,73.28h1.37a.27.27,0,0,0,.27-.27V69.35a5.11,5.11,0,0,1,.27-1.73,3.35,3.35,0,0,1,.72-1.22,2.94,2.94,0,0,1,1.07-.74,3.58,3.58,0,0,1,1.31-.24h.11a.27.27,0,0,0,.27-.27V63.67a.28.28,0,0,0-.27-.27,4.32,4.32,0,0,0-1.31.17,3.88,3.88,0,0,0-1.13.57A4.68,4.68,0,0,0,86,65c0,.06-.09.12-.13.19V63.83a.27.27,0,0,0-.27-.27H84.18a.27.27,0,0,0-.27.27V73A.27.27,0,0,0,84.18,73.28Z"/><path class="cls-2" d="M46.14,79.09H43.06a.27.27,0,0,0-.27.27v.74a.27.27,0,0,0,.27.27h2v1.46a3.69,3.69,0,0,1-.77.41,3.17,3.17,0,0,1-1.11.2,2.87,2.87,0,0,1-1.12-.21,2.61,2.61,0,0,1-.83-.59,2.76,2.76,0,0,1-.54-.89,3.55,3.55,0,0,1-.19-1.15,3,3,0,0,1,.2-1.09,2.92,2.92,0,0,1,.53-.89A2.67,2.67,0,0,1,42,77a2.34,2.34,0,0,1,1-.22,3.4,3.4,0,0,1,.67.06,3,3,0,0,1,.55.16,4,4,0,0,1,.46.24,4.12,4.12,0,0,1,.41.32.26.26,0,0,0,.2.07.28.28,0,0,0,.19-.09l.54-.64a.31.31,0,0,0,.07-.2.3.3,0,0,0-.1-.19,5.13,5.13,0,0,0-.6-.44,4.22,4.22,0,0,0-.67-.34,3.71,3.71,0,0,0-.78-.2,5.06,5.06,0,0,0-.9-.07,4,4,0,0,0-1.64.34,3.88,3.88,0,0,0-1.27.91,4.05,4.05,0,0,0-.81,1.32,4.15,4.15,0,0,0-.29,1.56,4.67,4.67,0,0,0,.27,1.6,3.87,3.87,0,0,0,2.1,2.2,4.35,4.35,0,0,0,1.69.32A4.62,4.62,0,0,0,45,83.37h0a5.11,5.11,0,0,0,1.35-.85.25.25,0,0,0,.09-.2v-3A.27.27,0,0,0,46.14,79.09Z"/><path class="cls-2" d="M52.19,77.56h-.81a.27.27,0,0,0-.27.27V81a1.64,1.64,0,0,1-.11.6,1.44,1.44,0,0,1-.29.46,1.15,1.15,0,0,1-.43.28,1.38,1.38,0,0,1-.55.11,1.15,1.15,0,0,1-.92-.36,1.48,1.48,0,0,1-.33-1V77.83a.27.27,0,0,0-.27-.27h-.82a.27.27,0,0,0-.27.27v3.41a2.86,2.86,0,0,0,.16,1,2.1,2.1,0,0,0,.47.79,2.17,2.17,0,0,0,.75.51,2.66,2.66,0,0,0,1,.18,2.23,2.23,0,0,0,1.31-.36,1.76,1.76,0,0,0,.3-.24v.22a.27.27,0,0,0,.27.27h.81a.27.27,0,0,0,.27-.27v-5.5A.27.27,0,0,0,52.19,77.56Z"/><path class="cls-2" d="M55.69,77.48a4.44,4.44,0,0,0-1.15.13,7,7,0,0,0-1,.35.27.27,0,0,0-.14.34l.24.67a.29.29,0,0,0,.15.16.28.28,0,0,0,.22,0,4.47,4.47,0,0,1,.74-.28,3,3,0,0,1,.82-.1,1.51,1.51,0,0,1,1,.31,1,1,0,0,1,.33.76,3.12,3.12,0,0,0-.44-.09,5.58,5.58,0,0,0-1-.07,3.72,3.72,0,0,0-1,.13,2.52,2.52,0,0,0-.83.38,1.73,1.73,0,0,0-.57.66,2,2,0,0,0-.2.89,1.83,1.83,0,0,0,.21.89,2.14,2.14,0,0,0,.54.62,2.5,2.5,0,0,0,.75.37,3.32,3.32,0,0,0,.83.11,2.74,2.74,0,0,0,1.36-.32,3.27,3.27,0,0,0,.36-.25v.19a.27.27,0,0,0,.27.27H58a.27.27,0,0,0,.27-.27V80a2.41,2.41,0,0,0-.69-1.85A2.76,2.76,0,0,0,55.69,77.48Zm-.72,5a1,1,0,0,1-.36-.18.72.72,0,0,1-.23-.26.67.67,0,0,1-.07-.33.7.7,0,0,1,.3-.62,1.72,1.72,0,0,1,1-.26,4.29,4.29,0,0,1,.85.07L57,81v.33a1,1,0,0,1-.11.47,1.3,1.3,0,0,1-.32.38,1.53,1.53,0,0,1-.51.26A1.86,1.86,0,0,1,55,82.46Z"/><path class="cls-2" d="M62.42,78.89a.28.28,0,0,0,.27-.28v-.88a.27.27,0,0,0-.27-.27,2.43,2.43,0,0,0-.82.11,2.76,2.76,0,0,0-.71.35,3.47,3.47,0,0,0-.45.41v-.5a.27.27,0,0,0-.27-.27h-.82a.27.27,0,0,0-.27.27v5.5a.27.27,0,0,0,.27.27h.82a.27.27,0,0,0,.27-.27v-2.2a3,3,0,0,1,.15-1,2,2,0,0,1,.42-.7,1.53,1.53,0,0,1,.6-.41,1.84,1.84,0,0,1,.74-.14Z"/><path class="cls-2" d="M65.05,77.48a4.49,4.49,0,0,0-1.15.13,7.54,7.54,0,0,0-1,.35.27.27,0,0,0-.14.34L63,79a.31.31,0,0,0,.16.16.28.28,0,0,0,.22,0,4.16,4.16,0,0,1,.74-.28,2.9,2.9,0,0,1,.81-.1,1.49,1.49,0,0,1,1,.31,1,1,0,0,1,.33.76,3.12,3.12,0,0,0-.44-.09,5.58,5.58,0,0,0-1-.07,3.72,3.72,0,0,0-1,.13,2.52,2.52,0,0,0-.83.38,1.82,1.82,0,0,0-.57.66,2,2,0,0,0-.2.89,1.83,1.83,0,0,0,.21.89,2,2,0,0,0,.55.62,2.45,2.45,0,0,0,.74.37,3.32,3.32,0,0,0,.83.11A2.71,2.71,0,0,0,66,83.39a3.27,3.27,0,0,0,.36-.25v.19a.27.27,0,0,0,.27.27h.79a.27.27,0,0,0,.27-.27V80A2.4,2.4,0,0,0,67,78.11,2.74,2.74,0,0,0,65.05,77.48Zm-.72,5a1.11,1.11,0,0,1-.36-.18.7.7,0,0,1-.22-.26.58.58,0,0,1-.08-.33.7.7,0,0,1,.3-.62,1.72,1.72,0,0,1,1-.26,4.47,4.47,0,0,1,.86.07l.48.1v.33a1,1,0,0,1-.11.47,1.16,1.16,0,0,1-.32.38,1.58,1.58,0,0,1-.5.26A1.89,1.89,0,0,1,64.33,82.46Z"/><path class="cls-2" d="M73.16,78.14a2,2,0,0,0-.75-.52,2.62,2.62,0,0,0-1-.18,2.23,2.23,0,0,0-1.31.36,1.76,1.76,0,0,0-.3.24v-.21a.27.27,0,0,0-.27-.27h-.82a.27.27,0,0,0-.27.27v5.5a.27.27,0,0,0,.27.27h.82a.27.27,0,0,0,.27-.27V80.18a1.7,1.7,0,0,1,.11-.61,1.22,1.22,0,0,1,.28-.45,1.3,1.3,0,0,1,.44-.29,1.42,1.42,0,0,1,.55-.1,1.16,1.16,0,0,1,.93.35,1.5,1.5,0,0,1,.32,1v3.22a.27.27,0,0,0,.27.27h.82a.28.28,0,0,0,.28-.27V79.91a3.05,3.05,0,0,0-.16-1A2.18,2.18,0,0,0,73.16,78.14Z"/><path class="cls-2" d="M77.56,82.24a1.65,1.65,0,0,1-.34.13,1.86,1.86,0,0,1-.34,0,.76.76,0,0,1-.5-.15.65.65,0,0,1-.16-.5V78.82H77.7a.27.27,0,0,0,.27-.27v-.72a.27.27,0,0,0-.27-.27H76.22V76.17A.27.27,0,0,0,76,75.9h-.82a.27.27,0,0,0-.27.27v1.39h-.49a.28.28,0,0,0-.28.27v.72a.28.28,0,0,0,.28.27h.49v3.05a2,2,0,0,0,.14.81,1.52,1.52,0,0,0,.39.59,1.6,1.6,0,0,0,.6.33,2.63,2.63,0,0,0,.7.09,2.77,2.77,0,0,0,.6-.06,2.54,2.54,0,0,0,.52-.2.29.29,0,0,0,.14-.24v-.7a.28.28,0,0,0-.13-.24A.27.27,0,0,0,77.56,82.24Z"/><path class="cls-2" d="M83,78.39a2.74,2.74,0,0,0-.91-.7,2.93,2.93,0,0,0-2.37,0,2.84,2.84,0,0,0-.93.67,3.25,3.25,0,0,0-.6,1A3.51,3.51,0,0,0,78,80.58a3.35,3.35,0,0,0,.24,1.28,3.1,3.1,0,0,0,.65,1,3.18,3.18,0,0,0,3.59.56,3.58,3.58,0,0,0,1-.81.27.27,0,0,0,0-.38l-.51-.46a.27.27,0,0,0-.38,0,3,3,0,0,1-.68.51,1.86,1.86,0,0,1-.86.18,1.73,1.73,0,0,1-.6-.11,1.56,1.56,0,0,1-.51-.3,1.76,1.76,0,0,1-.37-.51,1.57,1.57,0,0,1-.14-.4h4a.28.28,0,0,0,.27-.23,1.21,1.21,0,0,0,0-.18v-.12a4,4,0,0,0-.18-1.22A3.18,3.18,0,0,0,83,78.39ZM79.38,80a1.9,1.9,0,0,1,.12-.36,2.1,2.1,0,0,1,.33-.52,1.5,1.5,0,0,1,.46-.33,1.4,1.4,0,0,1,1.15,0,1.28,1.28,0,0,1,.45.34,1.69,1.69,0,0,1,.29.51,2,2,0,0,1,.09.35Z"/><path class="cls-2" d="M89.4,79.4a3,3,0,0,0-.56-1,2.6,2.6,0,0,0-.9-.7,2.74,2.74,0,0,0-1.2-.25,2.67,2.67,0,0,0-1.17.25,2.84,2.84,0,0,0-.93.67,3.25,3.25,0,0,0-.6,1,3.51,3.51,0,0,0-.21,1.22,3.35,3.35,0,0,0,.24,1.28,3.1,3.1,0,0,0,.65,1,3,3,0,0,0,2.14.88,3.1,3.1,0,0,0,1.45-.32,3.58,3.58,0,0,0,1-.81.27.27,0,0,0,0-.38l-.51-.46a.28.28,0,0,0-.38,0,2.57,2.57,0,0,1-.68.52,1.86,1.86,0,0,1-.86.18,1.73,1.73,0,0,1-.6-.11,1.46,1.46,0,0,1-.51-.3,1.59,1.59,0,0,1-.37-.51h0a1.57,1.57,0,0,1-.14-.4h4a.28.28,0,0,0,.27-.23c0-.07,0-.12,0-.18v-.12A4,4,0,0,0,89.4,79.4Zm-4.14.6a1.9,1.9,0,0,1,.12-.36,2.1,2.1,0,0,1,.33-.52,1.5,1.5,0,0,1,.46-.33,1.4,1.4,0,0,1,1.15,0,1.28,1.28,0,0,1,.45.34,1.69,1.69,0,0,1,.29.51,2,2,0,0,1,.09.35Z"/><path d="M60.28,45.3a.37.37,0,0,1,.36-.33.36.36,0,0,1,.35.33Zm1,.22v-.07a.7.7,0,0,0-.69-.78.77.77,0,0,0,0,1.53.75.75,0,0,0,.6-.27.08.08,0,0,0,0,0,.05.05,0,0,0,0,0l-.13-.11a.06.06,0,0,0-.09,0,.48.48,0,0,1-.38.17.4.4,0,0,1-.39-.33h1a.06.06,0,0,0,.06,0"/><path d="M58.8,45.3a.39.39,0,0,1,.36-.33.37.37,0,0,1,.36.33Zm1.06.22v-.07a.7.7,0,0,0-.69-.78.77.77,0,0,0,0,1.53.76.76,0,0,0,.61-.27,0,0,0,0,0,0,0s0,0,0,0l-.12-.11a.06.06,0,0,0-.09,0,.5.5,0,0,1-.38.17.41.41,0,0,1-.4-.33h1a.07.07,0,0,0,.07,0"/><rect x="58.03" y="44.15" width="0.33" height="2.03" rx="0.07"/><path d="M57.24,45.88a.79.79,0,0,1-.58-.24s0,0,0,0l0,0-.12.15a.06.06,0,0,0,0,.09,1.14,1.14,0,0,0,.79.31.62.62,0,0,0,.69-.58c0-.39-.35-.52-.65-.58s-.44-.18-.44-.3.13-.23.32-.23a.74.74,0,0,1,.49.19h0a.05.05,0,0,0,0,0l.12-.15a.06.06,0,0,0,0-.09,1,1,0,0,0-.68-.24.6.6,0,0,0-.67.56c0,.39.32.52.67.59s.42.18.42.29-.14.24-.34.24"/><path d="M67.08,46.17h.2a.07.07,0,0,0,.07-.06v-.83a.58.58,0,0,0-1-.39.54.54,0,0,0-.44-.22.5.5,0,0,0-.37.14v-.05a.07.07,0,0,0-.07-.06h-.2a.06.06,0,0,0-.06.06v1.35a.06.06,0,0,0,.06.06h.2a.07.07,0,0,0,.07-.06v-.77a.33.33,0,0,1,.31-.36c.18,0,.28.12.28.34v.79a.06.06,0,0,0,.06.06h.2a.07.07,0,0,0,.07-.06v-.78a.31.31,0,0,1,.3-.35c.24,0,.29.19.29.34v.79a.06.06,0,0,0,.06.06"/><path d="M64.4,45.88a.81.81,0,0,1-.58-.24,0,0,0,0,0,0,0l0,0-.13.15a.06.06,0,0,0,0,.09,1.1,1.1,0,0,0,.78.31.61.61,0,0,0,.69-.58c0-.39-.34-.52-.64-.58s-.45-.18-.45-.3.14-.23.33-.23a.72.72,0,0,1,.48.19h0s0,0,0,0l.12-.15a.06.06,0,0,0,0-.09,1,1,0,0,0-.68-.24.59.59,0,0,0-.66.56c0,.39.32.52.66.59s.42.18.42.29-.13.24-.34.24"/><path d="M62.17,45a.43.43,0,0,1,.41.46.41.41,0,0,1-.41.45.46.46,0,0,1,0-.91m-.48-.28h-.2a.07.07,0,0,0-.07.06v1.76a.07.07,0,0,0,.07.07h.2a.07.07,0,0,0,.07-.07V46a.64.64,0,0,0,.45.17.77.77,0,0,0,0-1.53.61.61,0,0,0-.45.18v-.09a.07.07,0,0,0-.07-.06"/><path d="M68.42,45.53v.08c0,.17-.16.3-.38.3s-.27-.06-.27-.2.22-.22.32-.22a1.86,1.86,0,0,1,.33,0m-1,.18a.52.52,0,0,0,.57.49.64.64,0,0,0,.42-.14v0a.06.06,0,0,0,.06.06h.2a.06.06,0,0,0,.06-.06v-.82a.56.56,0,0,0-.63-.61,1.17,1.17,0,0,0-.52.12.07.07,0,0,0,0,.08l.06.16a.08.08,0,0,0,0,0,0,0,0,0,0,0,0,.89.89,0,0,1,.38-.09c.21,0,.32.09.34.26a1.53,1.53,0,0,0-.35,0c-.39,0-.64.2-.64.5"/><path d="M70.67,44.7h-.36v-.34a.07.07,0,0,0-.07-.07H70a.07.07,0,0,0-.06.07v.34h-.12a.07.07,0,0,0-.07.06v.18a.07.07,0,0,0,.07.07H70v.74a.41.41,0,0,0,.44.45.68.68,0,0,0,.28-.07.06.06,0,0,0,0-.06V45.9a.05.05,0,0,0,0,0,0,0,0,0,0-.06,0,.35.35,0,0,1-.17,0c-.11,0-.16,0-.16-.15V45h.36a.07.07,0,0,0,.07-.07v-.18a.07.07,0,0,0-.07-.06"/><path d="M69.11,44.7h-.2a.07.07,0,0,0-.07.06v1.35a.07.07,0,0,0,.07.06h.2a.06.06,0,0,0,.06-.06v-.54c0-.34.18-.55.47-.55h0a.06.06,0,0,0,.06-.06v-.22a.06.06,0,0,0-.06-.06.59.59,0,0,0-.49.21v-.13a.06.06,0,0,0-.06-.06"/><path d="M77.66,41.54l-.11-.15h-.08v.15h-.1v-.47h.21a.2.2,0,0,1,.14,0,.13.13,0,0,1,0,.1h0a.14.14,0,0,1-.1.14l.12.17Zm-.11-.61a.38.38,0,1,0,.38.38.38.38,0,0,0-.38-.38"/><path d="M77.57,41.16h-.1v.14h.11a.07.07,0,0,0,.08-.07h0s0-.07-.09-.07"/><path d="M48.93,40.86l.61-.57a.37.37,0,0,1,.5,0,1.07,1.07,0,0,0,.76.34c.44,0,.72-.3.72-.88V35.38a.38.38,0,0,1,.42-.37l1,.12a.37.37,0,0,1,.33.36v4.25a2.35,2.35,0,0,1-.62,1.78,2.39,2.39,0,0,1-1.74.65,2.59,2.59,0,0,1-2-.79A.37.37,0,0,1,48.93,40.86Z"/><path d="M66.05,38H64.57a.25.25,0,0,0-.22.12l-.54.9a.25.25,0,0,0,.22.37h2a.25.25,0,0,0,.26-.25v-.9a.25.25,0,0,0-.26-.24"/><path d="M75.4,36.81h2.65a.24.24,0,0,0,.24-.24v-1a.25.25,0,0,0-.21-.24,39.75,39.75,0,0,0-4.14-.25.47.47,0,0,0-.48.48v1.08a.2.2,0,0,0,.21.2Z"/><path d="M78.1,40.51H73.67a.21.21,0,0,0-.21.21v1.11a.24.24,0,0,0,.24.24h4.4a.24.24,0,0,0,.24-.24V40.75a.24.24,0,0,0-.24-.24m-.42,1.29a.52.52,0,0,1-.63-.62.53.53,0,0,1,.37-.37.51.51,0,0,1,.62.62.5.5,0,0,1-.36.37"/><path d="M75.4,39.36h1.46a.24.24,0,0,0,.24-.24v-.91a.24.24,0,0,0-.24-.24H73.67a.2.2,0,0,0-.21.2v1a.21.21,0,0,0,.21.21Z"/><path d="M71.12,40c0,.41-.33.64-.93.64H68.8a.12.12,0,0,1-.12-.12V39.48a.12.12,0,0,1,.12-.12h1.37c.65,0,1,.25,1,.63Zm-2.44-3.26a.12.12,0,0,1,.12-.12H70c.57,0,.88.31.88.7v0c0,.41-.34.61-.93.61H68.8a.12.12,0,0,1-.12-.12Zm4.39,3.4v0a1.7,1.7,0,0,0-1.39-1.71,1.63,1.63,0,0,0,1.08-1.57v0a1.58,1.58,0,0,0-.45-1.14,2.35,2.35,0,0,0-1.56-.61,16.34,16.34,0,0,0-3.5.12.51.51,0,0,0-.47.5v6.15a.24.24,0,0,0,.24.24h3.39c1.68,0,2.66-.73,2.66-1.94"/><path d="M57.38,39.47H56.25a.13.13,0,0,1-.11-.17l.57-1.42a.12.12,0,0,1,.22,0l.56,1.43a.12.12,0,0,1-.11.16m.09-3.92-.6,0-.59,0a.48.48,0,0,0-.47.29l-2.52,6a.24.24,0,0,0,.22.33H54.9a.23.23,0,0,0,.22-.15l.37-.92a.2.2,0,0,1,.18-.12H58a.2.2,0,0,1,.18.12l.36.92a.25.25,0,0,0,.23.15h1.44a.24.24,0,0,0,.22-.33l-2.5-5.9a.48.48,0,0,0-.42-.3"/><path d="M64.8,35.41l-1.49.13a.22.22,0,0,0-.19.12l-1.2,2.05a.11.11,0,0,1-.2,0l-1.13-2a.22.22,0,0,0-.21-.12l-1.46,0a.24.24,0,0,0-.22.36l2.1,3.5a.62.62,0,0,1,.09.32v2.06a.24.24,0,0,0,.24.24h1.36a.24.24,0,0,0,.24-.24V39.76a.62.62,0,0,1,.09-.32L65,35.77a.24.24,0,0,0-.23-.36"/></svg>