<svg version="1.1" id="Layer_1" xmlns="http://www.w3.org/2000/svg" x="0" y="0" viewBox="0 0 62.8 60.3" style="enable-background:new 0 0 62.8 60.3" xml:space="preserve"><style>.st0{fill:#fff}</style><path class="st0" d="m16.3 4.5-5.2 8.8 13.1 7.6 7.4-11.5-2.3-3.9c-4-6.4-9.9-6.1-13-1zM49.6 39.7l4.6-.1c7.7 0 10.4-5.1 7.4-10.3l-5.3-8.7-13.4 7.2 6.7 11.9z"/><path class="st0" d="m30.2 4.4 6.9 12.3-4.5 2.3 15.4.6 7.1-12.2-4.5 2.3-3.5-6.1C45.2 1 44.8 0 35.3 0H24c2.6.4 4.9 2.1 6.2 4.4zM54.8 40.5H40.3v-4.9L32 48.2l7.4 12.1.2-4.9 7.2.1c3.3-.4 4.4-.1 9.1-8.1l5.7-9.6h-.1c-1.6 1.9-4.1 2.9-6.7 2.7zM9.4 39.6h2.8l5.7-9 4.3 2.6L15 20l-14.5.1 4.3 2.6-3.7 6c-3.6 6.3 2 10.9 8.3 10.9zM28.4 40.5z"/><path class="st0" d="M8 40.5c-2.7 0-5.3-1.1-7-3.2 0 0 6 10.8 7.8 14.3 1.3 2.4 3.8 4 6.6 4h12.8l.2-15.2c-.2.1-12.2.3-20.4.1z"/></svg>