<?xml version="1.0" encoding="utf-8"?>
<!-- Generator: Adobe Illustrator 26.3.1, SVG Export Plug-In . SVG Version: 6.00 Build 0)  -->
<svg version="1.1" id="Layer_1" xmlns="http://www.w3.org/2000/svg" xmlns:xlink="http://www.w3.org/1999/xlink" x="0px" y="0px"
	 viewBox="0 0 48 48" style="enable-background:new 0 0 48 48;" xml:space="preserve">
<style type="text/css">
	.st0{fill:#E7E7E7;}
	.st1{fill:#FFFFFF;}
	.st2{fill:none;}
</style>
<path id="Path_417" class="st0" d="M23.5,46.6l5.3-4.5l6.6,2.3l2-7.1l6.7-1.2l-1.9-7.5l4.5-4.2L41.4,19l1.8-5.8l-6.6-2l-1.3-6.4
	l-6.6,1.3l-5.3-4.3l-5.1,4.3l-5.9-1.3l-1.6,6.4l-6.6,2L6.2,19l-1.8,2l-2.9,3.2l4.7,4.9l-1.8,5.8l6.6,2.3l1.6,5.7l6.7-0.9L23.5,46.6z
	"/>
<path id="Path_418" class="st1" d="M21.9,30.6l11.9-11.3c0,0-0.4-4-3.1-2.2s-9.3,9.7-9.3,9.7l-5.7-4.5l-1.8,2.3l6.1,6h2.5"/>
<path id="Path_408" d="M48,24c0-0.6-0.3-1.2-0.7-1.6l-4-3.7l1.7-5.2c0.2-0.6,0.1-1.2-0.2-1.7c-0.3-0.5-0.8-0.9-1.4-1l-5.3-1.1
	L37,4.5c-0.1-0.6-0.5-1.1-1-1.4c-0.5-0.3-1.1-0.4-1.7-0.2l-5.2,1.7l-3.7-4C25.2,0.2,24.6,0,24,0c-0.6,0-1.2,0.3-1.6,0.7l-3.7,4
	L13.6,3c-0.6-0.2-1.2-0.1-1.7,0.2c-0.5,0.3-0.9,0.8-1,1.4L9.8,9.8L4.5,11c-0.6,0.1-1.1,0.5-1.4,1c-0.3,0.5-0.4,1.1-0.2,1.7l1.7,5.2
	l-4,3.7C0.2,22.8,0,23.4,0,24c0,0.6,0.3,1.2,0.7,1.6l4,3.7L3,34.4c-0.2,0.6-0.1,1.2,0.2,1.7c0.3,0.5,0.8,0.9,1.4,1l5.3,1.1l1.1,5.3
	c0.2,1.1,1.3,1.8,2.4,1.6c0.1,0,0.2,0,0.2-0.1l5.2-1.7l3.7,4c0.4,0.4,1,0.7,1.6,0.7c0.6,0,1.2-0.3,1.6-0.7l3.7-4l5.2,1.7
	c0.6,0.2,1.2,0.1,1.7-0.2c0.5-0.3,0.9-0.8,1-1.4l1.1-5.3l5.3-1.1c0.6-0.1,1.1-0.5,1.4-1c0.3-0.5,0.3-1.1,0.2-1.7l-1.7-5.2l4-3.7
	C47.7,25.2,48,24.6,48,24z M41.9,27.7c-0.6,0.5-0.8,1.4-0.6,2.2L43,35l-5.3,1.1c-0.8,0.2-1.4,0.8-1.6,1.6L34.9,43l-5.2-1.7
	c-0.8-0.2-1.6,0-2.2,0.6l-3.6,4l-3.7-4c-0.4-0.4-1-0.7-1.6-0.7c-0.2,0-0.4,0-0.6,0.1L13,43l-1.1-5.3c-0.2-0.8-0.8-1.4-1.6-1.6L5,35
	l1.7-5.2c0.2-0.8,0-1.6-0.6-2.2l-4-3.7l4-3.6c0.6-0.6,0.8-1.4,0.6-2.2L5,13l5.3-1.1c0.8-0.2,1.4-0.8,1.6-1.6L13,5l5.2,1.7
	c0.8,0.2,1.6,0,2.2-0.6l3.7-4l3.7,4c0.5,0.6,1.4,0.8,2.2,0.6L35,5l1.1,5.3c0.2,0.8,0.8,1.4,1.6,1.6l5.2,1.1l-1.7,5.2
	c-0.2,0.8,0,1.6,0.6,2.2l4,3.7L41.9,27.7z M29.8,16.3L21,25.1l-3-3c-0.6-0.6-1.4-0.9-2.2-0.9c-0.8,0-1.6,0.3-2.2,0.9
	c-0.6,0.6-0.9,1.4-0.9,2.2c0,0.8,0.3,1.6,0.9,2.2l5.2,5.2c0.6,0.6,1.4,0.9,2.2,0.9c0.8,0,1.6-0.3,2.2-0.9l11.1-11.1
	c1.2-1.2,1.2-3.2,0-4.4C33,15,31.1,15,29.8,16.3C29.9,16.3,29.9,16.3,29.8,16.3z M32.8,19.2L21.8,30.3c-0.4,0.4-1,0.4-1.4,0
	c0,0,0,0,0,0l-5.2-5.2c-0.4-0.4-0.4-1.1,0-1.5c0.4-0.4,1.1-0.4,1.5,0l0,0l3.7,3.7c0.4,0.4,1,0.4,1.4,0c0,0,0,0,0,0l9.6-9.6
	c0.4-0.4,1-0.4,1.4,0c0,0,0,0,0,0C33.2,18.1,33.2,18.7,32.8,19.2C32.9,19.1,32.8,19.2,32.8,19.2L32.8,19.2z"/>
<rect id="Rectangle_539" class="st2" width="48" height="48"/>
</svg>
