<svg xmlns="http://www.w3.org/2000/svg" xmlns:xlink="http://www.w3.org/1999/xlink" width="44.17" height="48" viewBox="0 0 44.17 48">
  <defs>
    <clipPath id="clip-path">
      <rect id="Rectangle_542" data-name="Rectangle 542" width="39.675" height="48" fill="none"/>
    </clipPath>
  </defs>
  <g id="Group_1140" data-name="Group 1140" transform="translate(-761 -842)">
    <circle id="Ellipse_17" data-name="Ellipse 17" cx="2" cy="2" r="2" transform="translate(783 868)" fill="#e7e7e7"/>
    <path id="Path_431" data-name="Path 431" d="M3483.866,846.629h8.407l.409-4.787h-8.816s-1.109,1.051-1.109,1.46A31.541,31.541,0,0,0,3483.866,846.629Z" transform="translate(-2703 1)" fill="#e7e7e7"/>
    <path id="Subtraction_1" data-name="Subtraction 1" d="M-2683.5,39a19.372,19.372,0,0,1-13.788-5.711A19.372,19.372,0,0,1-2703,19.5a19.373,19.373,0,0,1,5.711-13.789A19.372,19.372,0,0,1-2683.5,0a19.373,19.373,0,0,1,13.789,5.711A19.374,19.374,0,0,1-2664,19.5a19.372,19.372,0,0,1-5.711,13.788A19.373,19.373,0,0,1-2683.5,39Zm0-34A14.516,14.516,0,0,0-2698,19.5,14.516,14.516,0,0,0-2683.5,34,14.517,14.517,0,0,0-2669,19.5,14.517,14.517,0,0,0-2683.5,5Z" transform="translate(3468 851)" fill="#e7e7e7"/>
    <rect id="Rectangle_541" data-name="Rectangle 541" width="44.17" height="48" transform="translate(761 842)" fill="none"/>
    <g id="Group_924" data-name="Group 924" transform="translate(765 842)">
      <g id="Group_924-2" data-name="Group 924" clip-path="url(#clip-path)">
        <path id="Path_420" data-name="Path 420" d="M277.12,259.06a.69.69,0,0,1,.7-.68H278.9a.69.69,0,0,1,0,1.379H277.82A.691.691,0,0,1,277.12,259.06Z" transform="translate(-247.651 -230.904)"/>
        <path id="Path_421" data-name="Path 421" d="M71.317,259.06a.686.686,0,0,0-.7-.68H69.534a.69.69,0,0,0,0,1.379h1.087A.689.689,0,0,0,71.317,259.06Z" transform="translate(-61.528 -230.904)"/>
        <path id="Path_422" data-name="Path 422" d="M34.233,11.035a2.493,2.493,0,0,1,1.637.678,2.2,2.2,0,0,1,.368,3.073l-.9,1.021a20.122,20.122,0,0,0-3.322-3.277l.789-.9A1.816,1.816,0,0,1,34.233,11.035Zm-14.4-1.323A18.457,18.457,0,1,1,1.379,28.172,18.451,18.451,0,0,1,19.836,9.711M18.416,6.248h2.843V8.395c-.472-.034-.943-.058-1.423-.058s-.952.024-1.421.058ZM16.148,1.374h7.375a.844.844,0,0,1,.865.862V4.012a.846.846,0,0,1-.865.862H16.148a.846.846,0,0,1-.865-.862V2.237a.844.844,0,0,1,.865-.862m0-1.374a2.246,2.246,0,0,0-2.24,2.236V4.012a2.248,2.248,0,0,0,2.24,2.236h.889V8.539a19.846,19.846,0,1,0,19.14,8.4l1.095-1.243A3.581,3.581,0,0,0,36.8,10.7,3.944,3.944,0,0,0,34.2,9.665a3.177,3.177,0,0,0-2.433,1.057l-.865.989a19.739,19.739,0,0,0-8.267-3.174V6.247h.885a2.251,2.251,0,0,0,2.244-2.236V2.236A2.248,2.248,0,0,0,23.522,0Z" fill-rule="evenodd"/>
        <path id="Path_423" data-name="Path 423" d="M59.631,124.29a13.724,13.724,0,1,1-13.723,13.722A13.715,13.715,0,0,1,59.631,124.29Zm0-1.376a15.1,15.1,0,1,0,15.1,15.1A15.109,15.109,0,0,0,59.631,122.914Z" transform="translate(-39.795 -109.844)" fill-rule="evenodd"/>
        <path id="Path_424" data-name="Path 424" d="M178.778,151.565a.692.692,0,0,1-.68-.7v-1.082a.689.689,0,1,1,1.379,0v1.082A.688.688,0,0,1,178.778,151.565Z" transform="translate(-159.16 -133.24)"/>
        <path id="Path_425" data-name="Path 425" d="M178.778,357.381a.688.688,0,0,0-.68.7v1.085a.689.689,0,1,0,1.379,0v-1.085A.685.685,0,0,0,178.778,357.381Z" transform="translate(-159.16 -319.378)"/>
        <path id="Path_426" data-name="Path 426" d="M164.9,212.983a1.2,1.2,0,1,1-1.2,1.2,1.189,1.189,0,0,1,1.2-1.2m5.11-4.834a.668.668,0,0,0-.476.211l-3.52,3.518a2.545,2.545,0,0,0-1.116-.266,2.575,2.575,0,1,0,2.575,2.574,2.555,2.555,0,0,0-.421-1.4l3.453-3.453A.687.687,0,0,0,170.01,208.148Z" transform="translate(-145.064 -186.014)" fill-rule="evenodd"/>
        <path id="Path_427" data-name="Path 427" d="M248.318,328.578a.687.687,0,0,1,.971.011l.77.768a.689.689,0,1,1-.976.973l-.765-.765A.686.686,0,0,1,248.318,328.578Z" transform="translate(-221.725 -293.463)"/>
        <path id="Path_428" data-name="Path 428" d="M102.785,183.043a.687.687,0,0,0-.01-.972l-.768-.769a.689.689,0,1,0-.973.976l.765.765A.687.687,0,0,0,102.785,183.043Z" transform="translate(-90.108 -161.843)"/>
        <path id="Path_429" data-name="Path 429" d="M248.312,183.058a.686.686,0,0,1,.014-.972l.765-.769a.69.69,0,0,1,.976.976l-.77.765A.685.685,0,0,1,248.312,183.058Z" transform="translate(-221.733 -161.858)"/>
        <path id="Path_430" data-name="Path 430" d="M102.773,328.578a.688.688,0,0,0-.972.011l-.765.768a.688.688,0,1,0,.973.973l.768-.765A.69.69,0,0,0,102.773,328.578Z" transform="translate(-90.11 -293.463)"/>
      </g>
    </g>
  </g>
</svg>
