<svg xmlns="http://www.w3.org/2000/svg" width="85.155" height="48"><defs><clipPath id="a"><path data-name="Rectangle 663" fill="none" d="M0 0h85.155v48H0z"/></clipPath></defs><g data-name="Group 1143" transform="translate(-108.151 -263.667)"><circle data-name="Ellipse 45" cx="8" cy="8" r="8" transform="translate(129.306 294.667)" fill="#e7e7e7"/><circle data-name="Ellipse 46" cx="8" cy="8" r="8" transform="translate(171.306 294.667)" fill="#e7e7e7"/><path data-name="Path 1282" d="M171.113 284.412h15.417l-7.7-11.754h-7.716Z" fill="#e7e7e7"/><path data-name="Path 1281" d="M158.426 291.667v-26.9h-29.8v26.9Z" fill="#e7e7e7"/><g data-name="Group 1142"><g data-name="Group 1141" clip-path="url(#a)" transform="translate(108.151 263.667)"><path data-name="Path 1280" d="M71.849 5.957h-11.56a1.6 1.6 0 0 0-1.6 1.6V36.77a1.606 1.606 0 0 0 1.6 1.6h2.12v-.033l.009-.078v-.033l.008-.062.008-.055.006-.042.008-.055.008-.046.009-.056v-.005l.015-.086v-.006l.017-.091.012-.062.006-.034.012-.059.009-.042.01-.047.013-.057.01-.043.011-.045.014-.059.02-.08v-.009l.024-.089.024-.085.019-.068.008-.029.017-.055.016-.052.01-.033.019-.059.015-.045.012-.036.019-.058.03-.086.03-.083.015-.042.022-.06.014-.037.018-.048.018-.046.02-.051.036-.054.032-.069.006-.015.021-.049.043-.1.013-.029.006-.013.009-.02.029-.063.022-.049.013-.029.027-.056.023-.047.016-.032.03-.059.011-.024.008-.015.04-.077.043-.079.006-.01.012-.023.034-.062.013-.023.035-.062.017-.03.03-.051.025-.042.019-.033.031-.051.044-.072v-.005l.048-.076v-.008l.044-.068.006-.009.081-.121.029-.041.024-.035.044-.062.009-.013.057-.07.014-.019.005-.007.053-.072.06-.079.013-.018.043-.056.024-.03.04-.051.02-.025.045-.056.015-.019.047-.056.015-.018.008-.009.058-.068.057-.065.011-.013.048-.053.007-.008.037-.04.033-.036.027-.029.044-.047.022-.024.043-.044.022-.023.01-.01.063-.063a8.645 8.645 0 0 1 12.228 0l.062.063.01.01.022.023.043.044.022.024.044.047.027.029.033.036.037.04.007.008.048.053.011.013.057.065.058.068.007.009.015.018.047.056.015.019.045.056.02.025.04.051.024.03.043.056.014.018.06.079.053.072.005.007.014.019.045.063.009.013.044.062.024.035.028.041.029.042.052.079.006.009.044.068v.008l.048.076v.005l.044.072.031.051.019.033.025.042.03.051.017.03.035.062.013.023.034.062.012.023.006.01.042.079.04.077.008.015.011.024.031.059.016.032.023.047.027.056.013.029.022.049.029.063.009.02.006.013.013.029.043.1.021.049.006.015.031.073.036.089.018.046.019.048.014.037.022.06.015.042.03.083.03.086.019.058.011.036.015.045.019.059.01.033.016.052.017.055.008.029.019.068.024.085.024.089v.009l.02.08.014.059.01.045.01.043.013.057.01.047.009.042.012.059.006.034.012.062.017.091v.006l.015.086v.005l.009.056.008.046.008.055.006.042.008.055.008.062v.033l.009.078v.033h2a1.606 1.606 0 0 0 1.6-1.6v-3.286H80.22a1.211 1.211 0 0 1-.857-.356 1.214 1.214 0 0 1-.356-.859v-3.391a1.214 1.214 0 0 1 .355-.859 1.21 1.21 0 0 1 .857-.357H83.2v-6.549L73.172 6.641a1.518 1.518 0 0 0-1.317-.685ZM17.255 47.673a.654.654 0 0 1 0-1.308h7.091a8.654 8.654 0 0 1-3.531-6.031h-5.708a3.922 3.922 0 0 1-3.913-3.913v-5.593a3.921 3.921 0 0 1 3.913-3.913h4.321V.981a.981.981 0 0 1 .98-.981H50.1a.981.981 0 0 1 .981.981v25.934h3.69a3.883 3.883 0 0 1 1.952.524V7.559A3.567 3.567 0 0 1 60.289 4h11.56a3.511 3.511 0 0 1 2.926 1.535l10.159 14.638a.977.977 0 0 1 .221.621v15.978a3.566 3.566 0 0 1-3.562 3.562h-2a8.654 8.654 0 0 1-3.531 6.031h5.348a.654.654 0 0 1 0 1.308h-8.046a8.7 8.7 0 0 1-4.726 0H60.12a.654.654 0 1 1 0-1.308h5.821a8.652 8.652 0 0 1-3.531-6.031h-2.12a3.551 3.551 0 0 1-2.517-1.044 3.836 3.836 0 0 1-.163-.175q-.033.037-.069.071a3.9 3.9 0 0 1-2.765 1.149H38a8.654 8.654 0 0 1-3.531 6.031h16.416a.654.654 0 0 1 0 1.308H31.771a8.7 8.7 0 0 1-4.726 0h-9.79Zm39.011 0a.654.654 0 0 1 0-1.308h1.076a.654.654 0 0 1 0 1.308ZM41.323 23.638a.49.49 0 0 1 0-.981h3.689a.49.49 0 0 1 0 .981ZM21.388 1.961v24.953h27.736V1.961Zm35.339 28.867a1.961 1.961 0 0 0-1.952-1.953H15.107a1.961 1.961 0 0 0-1.953 1.953v5.593a1.962 1.962 0 0 0 1.953 1.952h5.708a8.647 8.647 0 0 1 17.182 0h16.778a1.962 1.962 0 0 0 1.952-1.952Zm26.467 1.658v-3.861h-2.979a.233.233 0 0 0-.165.067.235.235 0 0 0-.069.166v3.391a.232.232 0 0 0 .069.165.236.236 0 0 0 .167.068h2.979ZM.491 20.616a.49.49 0 1 1 0-.981h.5a.49.49 0 1 1 0 .981Zm4.515 0a.49.49 0 1 1 0-.981h10.252a.49.49 0 1 1 0 .981ZM7.43 14.08a.491.491 0 0 1 0-.981h7.828a.491.491 0 0 1 0 .981ZM62.4 25.174a.49.49 0 0 1 0-.981h2.428a.49.49 0 0 1 0 .981Zm-33 11.268a2.9 2.9 0 0 1 2.059.853l.037.04a2.906 2.906 0 0 1-.037 4.075 2.909 2.909 0 0 1-4.116 0l-.038-.041a2.906 2.906 0 0 1 .039-4.076 2.9 2.9 0 0 1 2.059-.853Zm1.135 1.777a1.6 1.6 0 0 0-2.269 0 1.611 1.611 0 0 0-.027 2.241l.03.028a1.605 1.605 0 0 0 2.3-2.242Zm3.593-3.593a6.685 6.685 0 1 0 1.958 4.727 6.663 6.663 0 0 0-1.958-4.727M71 36.442a2.9 2.9 0 0 1 2.059.853l.037.04a2.906 2.906 0 0 1-.037 4.075 2.909 2.909 0 0 1-4.116 0l-.038-.041a2.906 2.906 0 0 1 .039-4.076A2.9 2.9 0 0 1 71 36.442Zm1.134 1.777a1.6 1.6 0 0 0-2.269 0 1.61 1.61 0 0 0-.027 2.241l.029.028a1.605 1.605 0 0 0 2.3-2.242Zm-7.82 1.134a6.685 6.685 0 1 0 1.958-4.727 6.665 6.665 0 0 0-1.956 4.728Zm13.26-19.212L70.533 9.565h-7.475v10.576Zm-6.149-11.59L79.312 20.4a.654.654 0 0 1-.519 1.052H62.4a.654.654 0 0 1-.654-.654V8.911a.654.654 0 0 1 .654-.654h8.477a.65.65 0 0 1 .544.292Z"/></g></g></g></svg>